<svg width="98" height="98" viewBox="0 0 98 98" fill="none" xmlns="http://www.w3.org/2000/svg">
<path d="M44.7225 25.8033V23.4233H47.9225V14.0633H45.2225V12.2433C46.7225 11.9633 47.7225 11.5833 48.6825 11.0033H50.8625V23.4233H53.6425V25.8033H44.7225Z" fill="white"/>
<path d="M67.2007 56.1422C65.8662 52.4107 63.0869 49.7091 60.204 47.1696C58.8759 46.0035 57.1721 45.3362 55.5007 44.7467C54.7297 44.4746 54.1078 44.2737 54.0495 43.3084C54.0301 42.9845 53.9718 42.8096 54.3216 42.6671C55.397 42.2265 55.3063 41.2483 55.2739 40.3543C55.248 39.5704 54.8917 38.929 54.1272 38.5662C53.2721 38.1646 52.3781 38.048 51.4516 37.9378C49.1583 37.6592 46.9362 37.7888 44.7529 38.5597C44.3901 38.6893 44.0727 38.9096 44.0403 39.2983C43.982 40.0368 43.7812 40.7624 43.9431 41.5269C44.0662 42.1164 44.3642 42.5051 44.8955 42.7513C45.1287 42.8614 45.5627 42.8744 45.3554 43.2761C45.1481 43.6712 45.485 44.2932 44.6622 44.4551C42.9001 44.805 41.2027 45.3686 39.635 46.3274C38.3328 47.1242 37.2962 48.2126 36.1301 49.152C35.5535 49.6184 34.9122 49.9942 34.4457 50.6097C33.4351 51.9636 32.7095 53.4666 31.9645 54.9632C30.7789 57.3602 30.5522 59.9645 30.2088 62.5818C29.8072 65.5878 30.5975 68.2828 31.6794 70.9779C32.4828 72.9732 33.8951 74.554 35.2944 76.1347C36.3633 77.3397 37.7562 78.1366 39.1361 78.9399C41.5267 80.3327 44.0403 81.2656 46.826 81.4665C47.8431 81.5377 48.8927 81.4794 49.8903 81.8033C50.5641 81.7969 51.2378 81.7839 51.9181 81.7774C52.553 81.6673 53.2008 81.609 53.8163 81.447C55.3841 81.0324 56.887 80.4429 58.3706 79.7756C59.7959 79.1342 61.2535 78.5706 62.3549 77.3851C62.9833 76.7113 63.521 75.9533 64.2271 75.3379C65.8273 73.945 66.812 72.1181 67.4469 70.1422C67.8874 68.7622 68.017 67.2787 68.2697 65.8405C68.8722 62.4717 68.328 59.2584 67.2072 56.1293L67.2007 56.1422ZM45.0574 40.7559C45.1092 39.9137 45.5627 39.6611 46.2365 39.5186C47.2407 39.3048 48.2578 39.1752 49.4044 39.2011C50.3309 39.0392 51.3285 39.3955 52.3521 39.4279C52.3781 39.4279 52.404 39.4408 52.4299 39.4408C53.2008 39.5898 53.7061 40.1081 53.5571 40.7365C53.3822 41.4686 52.6825 41.2807 52.242 41.2159C50.8167 41.0021 49.398 40.9568 47.9857 41.203C47.3832 41.3066 46.8066 41.5398 46.2235 41.7212C45.2842 42.0128 45.0056 41.6888 45.0639 40.7559H45.0574ZM52.3457 43.749C52.3781 43.9045 52.2161 43.9174 52.0736 43.9174C51.0564 43.9174 50.0329 43.9174 49.0157 43.9174C48.4197 43.9369 47.8431 44.0016 47.2536 44.1053C46.9945 44.1506 46.528 44.3385 46.4697 43.9822C46.4114 43.6324 46.528 43.127 46.988 42.9586C48.5299 42.3885 50.1171 42.246 51.7237 42.6217C52.2679 42.7513 52.255 43.3149 52.3457 43.749ZM66.5723 67.4925C65.7755 70.7511 64.2984 73.6535 61.5321 75.7395C61.124 76.044 60.7806 76.4457 60.4243 76.8085C59.9643 77.2684 59.446 77.56 58.8047 77.7738C57.7422 78.1301 56.6992 78.616 55.7274 79.1796C54.8528 79.6849 53.894 79.8533 52.9482 80.0542C51.7626 80.3003 50.5576 80.4558 49.3332 80.391C46.0486 80.3651 42.8742 79.7626 40.0107 78.1236C37.9052 76.9186 36.1042 75.286 34.828 73.1676C33.8432 71.5415 32.716 69.9931 32.1977 68.1144C31.6146 65.996 31.0705 63.8645 31.3555 61.6554C31.5563 60.0747 32.0746 58.5522 32.6771 57.0687C33.2861 55.5657 33.9469 54.0951 34.7696 52.6957C35.3009 51.7952 35.7609 50.8299 36.7521 50.3116C36.9464 50.208 37.1019 50.0072 37.2509 49.8322C39.3434 47.3121 42.168 46.1914 45.2842 45.7055C47.2666 45.401 49.2749 45.3103 51.2832 45.3815C54.0624 45.4852 56.5696 46.2885 58.701 48.1673C59.621 48.9771 60.7029 49.599 61.6098 50.4477C62.5946 51.3741 63.3396 52.4884 64.2336 53.4796C65.8014 55.2288 65.8338 57.4962 66.4298 59.5629C67.1813 62.1737 67.2137 64.8622 66.5723 67.4925Z" fill="white"/>
<path d="M64.7252 59.7119C64.1745 56.1552 62.2569 53.3371 59.6979 50.9141C59.1861 50.4283 58.4865 50.2663 57.9423 49.8063C56.1542 48.2968 54.12 47.338 51.7489 47.1242C50.4273 47.0076 49.1251 47.1955 47.8165 47.2214C43.7156 47.2927 40.3339 49.0548 37.5676 51.9183C35.3778 54.1922 34.4644 57.2371 33.5445 60.1718C32.8707 62.3291 33.1234 64.5448 33.8165 66.7086C34.5745 69.0473 35.3066 71.3471 37.0622 73.2388C39.9775 76.3809 43.4046 78.2337 47.5832 78.2402C49.2352 78.2596 50.7058 78.1625 52.1764 77.8126C53.5369 77.4887 54.8002 76.9251 56.1218 76.5169C57.4888 76.0958 58.6678 75.3443 59.7627 74.4179C61.5378 72.9149 62.6456 70.9649 63.6627 68.9307C64.5244 67.2139 65.1852 65.4712 64.9519 63.4758C64.8094 62.2255 64.9066 60.9428 64.7187 59.6989L64.7252 59.7119ZM63.9154 63.8321C63.1185 66.3393 62.231 68.8011 60.5984 70.9131C60.132 71.5221 59.8534 72.2476 59.3027 72.8177C58.2014 73.958 56.8409 74.6641 55.4027 75.2083C53.064 76.1023 50.6799 76.8085 48.1274 76.7243C44.2468 76.5947 40.6837 75.5905 38.0534 72.5521C36.3885 70.6345 35.2677 68.393 35.0345 65.7692C34.9568 64.8817 34.6134 64.0135 34.7041 63.4888C34.7818 59.3879 35.8637 55.9868 38.0664 53.0067C39.1418 51.549 40.729 50.6032 42.3163 49.7351C45.4518 48.0248 48.8724 47.9988 52.2542 48.3681C54.2495 48.5884 56.2643 49.2168 57.8127 50.7392C58.3828 51.2964 58.5642 52.0738 59.0889 52.6568C60.1449 53.8489 61.2333 55.0279 61.9589 56.4662C62.9307 58.3967 63.7664 60.3791 64.0644 62.5365C64.1227 62.9511 64.032 63.4175 63.9024 63.8257L63.9154 63.8321Z" fill="white"/>
<path d="M61.2731 63.5601C60.9103 63.288 60.4892 63.288 60.0876 63.3269C59.498 63.3852 59.2778 63.1584 59.362 62.5818C59.3814 62.4328 59.362 62.2709 59.3426 62.1219C59.2346 61.1199 59.6665 60.5347 60.6382 60.3662C61.0529 60.295 61.3833 60.1265 61.4092 59.6471C61.4286 59.1677 61.1824 58.8503 60.7354 58.7337C60.418 58.6559 60.0681 58.617 59.7442 58.6494C59.3814 58.6883 59.3037 58.5587 59.2842 58.2348C59.2648 57.7619 59.3555 57.1011 58.7271 57.0363C57.9886 56.965 58.0922 57.7295 57.9886 58.1765C57.9043 58.5393 57.7489 58.6494 57.4314 58.6494C56.4791 58.643 55.5267 58.6235 54.5744 58.6235C54.1533 58.6235 54.0756 58.4097 54.0756 58.0405C54.0756 57.2436 54.0756 56.4403 53.9978 55.6499C53.9331 55.028 54.0626 54.8012 54.7299 54.9308C55.4361 55.0669 56.1552 55.1381 56.8743 55.1511C57.3407 55.1511 57.7489 54.879 57.7424 54.3477C57.7424 53.8295 57.3666 53.5833 56.8613 53.5639C56.3689 53.5444 55.8895 53.4926 55.4166 53.3306C54.9243 53.1687 54.2311 53.3889 53.9331 52.929C53.6545 52.5014 53.8035 51.873 53.81 51.3353C53.81 51.0437 53.81 50.7393 53.4536 50.655C53.0714 50.5643 52.8965 50.8429 52.754 51.128C52.5272 51.6009 52.5208 52.1256 52.443 52.6374C52.3912 52.9549 52.294 53.1622 51.9247 53.1687C50.5902 53.1816 49.2621 53.2335 47.9275 53.078C47.5777 53.0391 47.4417 52.8966 47.3769 52.5079C47.2797 51.9378 47.4676 51.3741 47.3121 50.817C47.2473 50.5838 47.1501 50.357 46.878 50.3441C46.5995 50.3311 46.4634 50.5449 46.4181 50.7846C46.3209 51.2899 46.1978 51.8017 46.1913 52.307C46.1913 52.7605 46.0423 52.8836 45.6083 52.8642C44.1636 52.78 42.7383 52.9743 41.3066 53.1039C41.0021 53.1298 40.7429 53.2075 40.6199 53.5055C40.5292 53.7193 40.5939 53.9072 40.7689 54.0562C41.028 54.283 41.3454 54.2506 41.6499 54.257C42.8808 54.27 44.1117 54.1534 45.3491 54.2117C45.7961 54.2311 46.0423 54.3154 46.0164 54.8012C45.9646 55.8248 45.9063 56.8549 45.8544 57.8785C45.8285 58.3385 45.5823 58.4616 45.1353 58.4486C44.2867 58.4227 43.438 58.4551 42.5828 58.468C41.9004 58.4767 41.5657 58.1268 41.5787 57.4185C41.5787 57.1076 41.5916 56.7966 41.5787 56.4921C41.5787 56.2654 41.6175 55.9933 41.313 55.922C40.9762 55.8507 40.8596 56.1228 40.7689 56.3561C40.5551 56.8938 40.6328 57.4768 40.6199 58.034C40.6069 58.4356 40.4644 58.5652 40.0757 58.5717C39.4084 58.5717 38.7411 58.63 38.0673 58.6624C37.7953 58.6753 37.4065 58.5976 37.4001 58.9928C37.3936 59.4204 37.8212 59.3944 38.1062 59.4074C38.7217 59.4268 39.3371 59.4074 39.9526 59.3621C40.4125 59.3297 40.6069 59.4787 40.5875 59.9646C40.5551 60.7614 40.5551 61.5647 40.568 62.3616C40.5745 62.8604 40.3802 63.0418 39.8748 63.0224C39.1557 62.9835 38.4366 62.9965 37.711 63.0224C37.4195 63.0289 37.0114 62.99 36.979 63.4111C36.9531 63.7739 37.2835 63.9099 37.5944 64.0071C38.2876 64.2144 39.0002 64.3375 39.7258 64.2468C40.1469 64.195 40.2895 64.3116 40.2052 64.7521C40.134 65.1538 40.121 65.5749 40.1275 65.983C40.134 66.4883 40.4125 66.8382 40.9179 66.8771C41.4426 66.9159 41.6175 66.5078 41.6694 66.0672C41.7082 65.685 41.7406 65.2898 41.7018 64.9076C41.6499 64.4023 41.8508 64.2598 42.3107 64.3245C43.2825 64.4606 44.2543 64.5383 45.2325 64.4735C45.5759 64.4541 45.686 64.6355 45.686 64.94C45.686 65.5101 45.686 66.0737 45.686 66.6438C45.686 67.1297 45.9387 67.4407 46.4181 67.4666C46.878 67.4925 47.1372 67.188 47.1825 66.754C47.2343 66.2162 47.2797 65.6721 47.2473 65.1343C47.2149 64.629 47.4093 64.5254 47.8692 64.5513C48.5365 64.5902 49.2103 64.5642 49.8775 64.5642C50.1367 64.5642 50.3958 64.5642 50.6485 64.5642C50.9076 64.5578 51.1603 64.5383 51.4194 64.5189C52.7151 64.4347 52.7216 64.4347 52.7151 65.698C52.7151 66.1515 52.8965 66.592 52.7475 67.0714C52.6568 67.3565 52.8835 67.6221 53.2075 67.6739C53.6091 67.7387 53.9007 67.5119 53.9201 67.1427C53.9654 66.3976 54.4384 65.7304 54.2829 64.9594C54.2246 64.6614 54.3542 64.5383 54.6586 64.5383C55.2223 64.5448 55.7859 64.5837 56.343 64.5319C57.7553 64.3958 57.9756 64.5966 57.8136 65.996C57.7035 66.9677 57.8979 67.4795 58.4485 67.4925C59.3102 67.5055 59.2648 66.7864 59.3685 66.2292C59.4462 65.8275 59.3166 65.2704 59.5434 65.0501C59.796 64.8104 60.2819 65.1862 60.6836 65.2315C61.1824 65.2898 61.5517 65.089 61.7201 64.6161C61.8951 64.1431 61.6294 63.8387 61.2731 63.573V63.5601ZM45.2973 63.2038C44.1636 63.288 43.0428 63.0936 41.9091 63.0353C41.6046 63.0159 41.5204 62.8604 41.5204 62.5883C41.5204 61.6619 41.5204 60.7355 41.5074 59.8091C41.5074 59.4916 41.6694 59.4204 41.9415 59.4268C42.4533 59.4333 42.9715 59.4268 43.4833 59.4268C43.4833 59.4074 43.4833 59.3944 43.4833 59.375C43.6647 59.3944 43.8396 59.4204 44.021 59.4333C45.0274 59.5024 45.5521 60.0337 45.5953 61.027C45.6212 61.6166 45.4916 62.2061 45.6601 62.7956C45.7508 63.1066 45.5823 63.1908 45.2908 63.2103L45.2973 63.2038ZM47.3769 54.6328C47.3833 54.3542 47.5647 54.3801 47.7526 54.3996C48.9252 54.5097 50.0978 54.6717 51.2704 54.7041C52.1191 54.73 52.5337 54.9373 52.4301 55.8896C52.3458 56.6476 52.4365 57.425 52.456 58.1959C52.4624 58.5846 52.3134 58.7272 51.8988 58.6883C51.3093 58.6365 50.7133 58.6753 49.8387 58.6753C49.3269 58.6494 48.53 58.6041 47.7332 58.5652C47.4676 58.5523 47.2797 58.4875 47.2927 58.1765C47.325 56.9974 47.351 55.8119 47.3833 54.6328H47.3769ZM52.3134 63.2945C50.9011 63.2945 49.4824 63.288 48.0701 63.301C47.4611 63.3074 47.2538 63.0353 47.1955 62.4458C47.1501 61.9729 47.2797 61.5194 47.2214 61.1048C47.2343 59.5629 47.2343 59.5499 48.7114 59.6082C49.7415 59.6471 50.7651 59.7378 51.7887 59.7961C52.294 59.822 52.5985 59.984 52.5467 60.58C52.4819 61.3509 52.4819 62.1219 52.6114 62.8928C52.6568 63.1455 52.5985 63.2945 52.3134 63.2945ZM57.8331 62.9641C57.8201 63.2945 57.6387 63.3333 57.3796 63.3269C57.1204 63.3204 56.8678 63.3269 56.6086 63.3269C55.9867 63.4046 55.3842 63.1779 54.7688 63.2167C54.3736 63.2426 54.2246 63.0612 54.244 62.6596C54.2699 62.096 54.3282 61.5129 54.2181 60.9687C54.0367 60.1006 54.4319 60.0423 55.1121 60.12C55.8507 60.2043 56.5957 60.2431 57.3407 60.2496C57.7553 60.2496 57.9821 60.3727 57.9562 60.8067C57.9173 61.5259 57.859 62.2385 57.8331 62.9576V62.9641Z" fill="white"/>
<path d="M58.8623 68.5679C57.6833 68.678 56.5042 68.8594 55.3251 68.8335C52.3709 68.7817 49.4168 68.678 46.4626 68.5096C44.4802 68.3994 42.4978 68.5938 40.5219 68.3087C39.4724 68.1597 38.4293 68.5873 37.3733 68.4448C37.2114 68.4254 37.0429 68.4642 36.9976 68.6456C36.9393 68.8853 37.1401 68.9436 37.315 69.0019C37.4381 69.0408 37.5612 69.0797 37.6908 69.0926C40.2174 69.4036 42.7375 69.747 45.2965 69.7599C46.6051 69.7664 47.9138 69.8571 49.2224 69.883C52.1248 69.9543 55.0271 70.1681 57.8776 70.3235C58.3117 70.3235 58.7069 70.3754 59.0826 70.3106C59.6333 70.2199 60.0997 69.9284 60.022 69.2935C59.9442 68.6586 59.4519 68.5161 58.8688 68.5679H58.8623Z" fill="white"/>
</svg>
