<svg width="98" height="98" viewBox="0 0 98 98" fill="none" xmlns="http://www.w3.org/2000/svg">
<path d="M38.2225 25.8033V23.4233H41.4225V14.0633H38.7225V12.2433C40.2225 11.9633 41.2225 11.5833 42.1825 11.0033H44.3625V23.4233H47.1425V25.8033H38.2225ZM55.0994 26.0833C52.0794 26.0833 50.0794 23.4633 50.0794 18.3433C50.0794 13.2433 52.0794 10.7433 55.0994 10.7433C58.0994 10.7433 60.0994 13.2433 60.0994 18.3433C60.0994 23.4633 58.0994 26.0833 55.0994 26.0833ZM55.0994 23.7833C56.3794 23.7833 57.3194 22.5033 57.3194 18.3433C57.3194 14.2033 56.3794 13.0033 55.0994 13.0033C53.8194 13.0033 52.8594 14.2033 52.8594 18.3433C52.8594 22.5033 53.8194 23.7833 55.0994 23.7833Z" fill="white"/>
<path d="M66.6575 52.6661C66.5643 51.0471 65.9994 50.558 64.3688 50.3774C63.5826 50.2901 62.8022 50.3425 62.0218 50.325C58.1375 50.226 54.2473 50.1736 50.363 49.9523C47.5909 49.7892 44.813 49.8184 42.041 50.0222C40.9345 50.1037 39.8397 50.3716 38.7332 50.4007C36.9861 50.4415 35.2914 50.8084 33.5735 51.0355C32.4961 51.1753 32.1874 51.6645 32.1292 52.736C32.0826 53.5222 32.1001 54.3026 32.1583 55.0887C32.2864 56.7485 32.4903 58.4024 32.5485 60.0679C32.6184 62.0829 32.5427 64.0979 32.5951 66.1129C32.6359 67.6561 32.4146 69.211 32.8455 70.7426C33.1775 71.9307 33.6142 72.3616 34.8488 72.4257C35.472 72.4548 36.1009 72.4257 36.724 72.4664C39.0593 72.5887 41.3888 72.7401 43.7182 72.8391C44.1433 72.8566 44.3705 72.9789 44.4403 73.3866C44.6558 73.9456 44.6442 74.5047 44.4287 75.0638C44.1957 75.7917 44.6209 76.0188 45.2207 76.1295C46.63 76.3974 48.0568 76.4207 49.4836 76.4789C50.561 76.5255 51.6267 76.8167 52.7099 76.543C53.1874 76.4207 53.6125 76.2751 53.6999 75.7277C53.7465 75.4539 53.9037 75.4714 54.0959 75.4889C54.8064 75.5588 55.5169 75.6403 56.2332 75.6985C56.4661 75.7218 56.6292 75.7859 56.6874 76.0363C56.8388 76.6827 56.8155 77.3233 56.6292 77.9523C56.5768 78.1328 56.4486 78.2726 56.2099 78.1969C55.1966 77.894 54.1949 78.2493 53.1874 78.2668C52.6633 78.2784 52.1333 78.3658 51.6034 78.3716C48.9012 78.4007 46.2049 78.6045 43.5027 78.5055C43.3397 78.4997 43.1824 78.4997 43.0194 78.4881C42.4778 78.4473 42.1866 78.2609 42.3438 77.6203C42.4661 77.1312 42.3497 76.607 42.2274 76.112C42.0527 75.4074 42.2914 74.9415 43.0194 74.7609C42.5244 74.5163 42.0002 74.7085 41.4936 74.6328C40.9054 74.8716 40.7365 75.3084 40.8472 75.9198C40.9287 76.3741 40.9345 76.84 40.9636 77.3059C41.0568 78.721 42.0585 79.6528 43.4969 79.6586C44.7723 79.6586 46.0418 79.6702 47.3172 79.6702C49.9495 79.6702 52.5759 79.647 55.2082 79.6702C55.5635 79.6702 55.8896 79.4606 56.2856 79.6528C57.229 80.1187 58.3646 79.449 58.4811 78.3774C58.5626 77.6669 58.5451 76.9448 58.4403 76.2343C58.353 75.6694 58.021 75.32 57.5202 75.023C56.6117 74.4872 55.6159 74.5688 54.6433 74.4523C54.2357 74.4057 53.7057 74.6736 53.4553 74.3882C53.2224 74.1262 53.2922 73.602 53.2049 73.2002C53.1292 72.8391 53.1874 72.6819 53.6242 72.647C55.7032 72.4956 57.7881 72.7401 59.8555 72.4897C60.8222 72.3733 61.7365 72.6644 62.6741 72.6819C63.204 72.6936 63.6816 72.548 63.7573 71.9423C63.8388 71.3017 63.3962 71.0338 62.8546 70.9173C62.6566 70.8766 62.4412 70.8824 62.2315 70.8882C60.7814 70.9406 59.3255 70.9698 57.8813 71.0629C56.7922 71.1328 55.7032 70.929 54.6317 71.0338C53.0651 71.1852 51.4869 71.0571 49.9204 71.2493C48.5343 71.4182 47.1541 71.1037 45.7623 71.1328C44.9994 71.1503 44.2365 71.2784 43.4794 71.2493C40.6899 71.1386 37.9004 70.9814 35.1051 70.8824C34.5751 70.8649 34.3713 70.6611 34.2548 70.1894C34.0277 69.2518 34.1383 68.2967 34.1325 67.3533C34.1151 65.5072 34.0976 63.6553 34.0568 61.8092C34.0277 60.4407 33.7656 59.0779 33.853 57.721C33.9578 56.1661 33.8821 54.6229 33.6899 53.0912C33.6084 52.4623 33.8239 52.4273 34.3131 52.3749C35.6467 52.241 36.9803 52.0838 38.3022 51.8799C40.1076 51.6062 41.9071 51.2568 43.7299 51.2568C46.368 51.2626 49.0061 51.1694 51.6442 51.35C53.8804 51.5014 56.1225 51.4548 58.3646 51.5655C59.9836 51.647 61.6025 51.6994 63.2215 51.6586C64.7182 51.6179 64.8405 51.7518 64.8405 53.2951C64.8405 55.6362 65.1433 57.9598 65.2365 60.2951C65.3122 62.2576 65.4578 64.2144 65.3588 66.1886C65.2889 67.5105 64.9104 68.7975 64.9803 70.1253C65.0094 70.6262 65.1258 71.0688 65.7082 71.1445C66.1857 71.2085 66.5876 70.7485 66.6283 70.137C66.739 68.2909 66.8787 66.4448 66.937 64.5929C67.0709 60.6154 66.8729 56.6378 66.6516 52.6661H66.6575ZM50.3338 72.5946C50.4037 72.6004 50.4736 72.6178 50.5377 72.6178C50.9861 72.612 51.5684 72.315 51.8422 72.6877C52.0518 72.9731 51.8829 73.5322 51.8829 73.9689C51.8946 75.0754 51.8946 75.0696 50.7531 75.1045C49.4894 75.1453 48.2199 75.0929 46.9853 75.4656C46.7931 75.5238 46.5718 75.4947 46.3621 75.4831C45.3546 75.4248 45.343 75.419 45.4886 74.4406C45.5294 74.1553 45.4769 73.8874 45.4362 73.6137C45.4012 73.3633 45.343 73.1187 45.2789 72.7809C46.9853 72.9265 48.6333 72.4082 50.3222 72.5887L50.3338 72.5946Z" fill="white"/>
<path d="M38.4068 69.4732C38.599 69.5489 38.8028 69.6188 39.0008 69.6362C39.7171 69.6945 40.4334 69.7527 41.1497 69.7644C43.0657 69.811 44.9933 69.9857 46.8976 69.8284C49.3494 69.6246 51.7953 69.6188 54.2471 69.6362C56.8327 69.6537 59.4243 69.7352 62.0099 69.7644C62.9941 69.776 63.4833 69.2868 63.5416 68.3026C63.6522 66.4507 63.4659 64.6046 63.4717 62.7527C63.4833 60.068 63.5008 57.3892 63.5066 54.7045C63.5066 54.3376 63.559 53.8717 63 53.9066C62.5399 53.9358 62.47 54.3201 62.4584 54.7336C62.3594 57.1329 62.5748 59.5439 62.3361 61.9374C62.1497 63.8709 62.3535 65.8276 61.9517 67.7494C61.876 68.1046 61.7654 68.2444 61.3926 68.2852C60.2396 68.4133 59.0807 68.2852 57.9276 68.3842C57.5083 68.4191 57.4035 68.2036 57.4675 67.8367C57.549 67.3417 57.3918 66.87 57.3103 66.3925C57.1822 65.6471 56.5882 65.3209 55.8718 65.5015C55.604 65.5714 55.3244 65.5772 55.0565 65.6412C54.6431 65.7344 54.4451 65.6179 54.4684 65.1579C54.4916 64.6279 54.4392 64.0922 54.4916 63.5622C54.5499 62.9333 54.2704 62.6887 53.688 62.6013C53.0183 62.5023 52.3544 62.7003 51.6847 62.5722C50.6655 62.3742 50.3394 62.6595 50.2986 63.7078C50.287 64.0339 50.2637 64.36 50.287 64.6803C50.3161 65.0123 50.5199 65.2511 50.8635 65.2685C51.2362 65.286 51.3877 65.0356 51.4051 64.6862C51.4051 64.5464 51.4284 64.4066 51.411 64.2669C51.3527 63.7427 51.5274 63.5331 52.0981 63.603C52.6106 63.667 53.3502 63.3758 53.6123 63.6321C53.9559 63.9699 53.6705 64.6803 53.6239 65.2278C53.554 66.0897 53.8802 66.375 54.7479 66.2993C55.4506 66.2411 55.8408 66.5614 55.9184 67.2602C55.9359 67.4233 55.9126 67.5863 55.9417 67.7436C56.0582 68.3609 55.7495 68.489 55.2021 68.489C54.579 68.489 53.9617 68.4075 53.3327 68.4249C51.9001 68.4715 52.0923 68.7452 51.9409 67.2078C51.9234 67.004 51.9118 66.7885 51.8535 66.5905C51.7138 66.1013 51.4925 65.7752 50.8635 65.88C50.4209 65.9557 49.9492 65.8567 49.495 65.8392C49.2504 65.8334 49.1223 65.7635 49.1048 65.484C49.0524 64.6512 48.9301 63.8243 48.9068 62.9915C48.8893 62.3917 48.6214 62.1587 48.0565 62.1529C47.4101 62.1412 46.7579 62.1238 46.1115 62.0655C45.4476 62.0073 44.9875 62.1995 44.8594 62.91C44.8244 63.3001 44.772 63.6903 44.7604 64.0805C44.7487 64.3775 44.8652 64.692 45.1913 64.692C45.599 64.692 45.5 64.3484 45.5 64.0689C45.5 63.6845 45.168 63.1662 45.4184 62.974C45.6863 62.7702 46.2105 62.8867 46.6239 62.9041C48.0158 62.9507 48.01 62.9565 48.0915 64.3135C48.1148 64.6803 48.1381 65.0531 48.1672 65.4199C48.1847 65.6645 48.1672 65.8742 47.8411 65.9208C47.4684 65.9732 47.2471 66.2003 47.3286 66.5963C47.4101 66.9748 47.7304 67.0855 48.074 67.0971C48.6971 67.1088 49.3203 67.1204 49.9434 67.0971C50.8519 67.0506 50.3511 67.8076 50.5141 68.157C50.6888 68.5356 50.2229 68.4424 50.0133 68.4599C49.1164 68.5239 48.2196 68.5414 47.3228 68.6113C46.9151 68.6462 46.8278 68.5123 46.8045 68.1221C46.7521 67.2719 46.6181 66.4274 46.5308 65.5772C46.49 65.1637 46.2745 64.9424 45.8785 64.89C44.9584 64.7677 44.0324 64.855 43.1123 64.9191C42.6115 64.9541 42.46 65.3734 42.4717 65.8392C42.7862 66.6662 42.8735 67.5397 42.9725 68.4075C43.0075 68.7278 42.7629 68.7569 42.5649 68.7219C41.2196 68.4832 39.8918 68.8151 38.5582 68.8675C38.3719 68.8733 38.1564 68.8559 38.1214 69.1005C38.0982 69.281 38.2554 69.3975 38.4068 69.4557V69.4732ZM44.1023 65.8858C45.6106 65.8451 45.6106 65.8218 45.7038 67.4582C45.7038 67.8659 45.8552 68.3725 45.663 68.6462C45.4184 68.9956 44.8827 68.6171 44.4808 68.7045C43.9975 68.8093 43.7937 68.5938 43.7529 68.1396C43.7063 67.563 43.6597 66.9923 43.6073 66.4158C43.5782 66.0605 43.6655 65.8917 44.0965 65.88L44.1023 65.8858Z" fill="white"/>
<path d="M38.6221 61.3958C40.4449 61.4075 42.2677 61.4075 44.0963 61.3667C44.6786 61.3551 45.3134 61.3376 45.4008 60.4699C45.5522 59.0198 45.4765 57.5639 45.5289 56.108C45.5405 55.6945 45.2668 55.3742 44.8184 55.4383C44.1662 55.5314 43.5256 55.4266 42.8791 55.4033C41.2078 55.3451 39.5597 55.5955 37.9058 55.8284C37.667 55.8634 37.4806 55.9624 37.4806 56.2011C37.4806 57.4299 37.1662 58.6471 37.3176 59.8759C37.4574 61.0231 37.7835 61.39 38.6221 61.3958ZM38.8841 56.4341C39.152 56.4749 39.4374 56.4399 39.9033 56.4399C40.241 56.4108 40.771 56.4341 41.3009 56.3293C42.1861 56.1546 43.0247 56.5506 43.8983 56.5913C44.1545 56.603 44.0788 56.801 44.0672 56.9524C44.0089 57.791 44.0788 58.6063 44.3351 59.4158C44.5098 59.9749 44.2535 60.3126 43.7527 60.1903C42.6113 59.8991 41.4757 60.2486 40.34 60.167C39.8392 60.1321 39.3209 60.2078 38.8317 60.3126C38.4648 60.3883 38.3484 60.2777 38.3833 59.9574C38.5056 58.9615 38.2785 57.9774 38.3018 56.9873C38.3134 56.5447 38.4183 56.3584 38.8841 56.4283V56.4341Z" fill="white"/>
<path d="M62.0863 53.3476C62.0746 52.7362 61.5563 52.7303 61.1021 52.7828C60.5081 52.8526 59.9606 53.1031 59.3375 53.0739C56.5888 52.9342 53.8342 53.0914 51.0854 53.0972C48.6803 53.0972 46.2693 53.2486 43.8758 53.1264C41.7327 53.0099 39.6246 53.1613 37.5106 53.3768C37.1845 53.4117 36.8642 53.4991 36.8991 53.8834C36.934 54.2561 37.3009 54.227 37.563 54.2154C38.1628 54.1921 38.7627 54.1047 39.3625 54.0873C43.0372 53.9766 46.7119 54.2387 50.3866 54.0814C51.9357 53.9999 53.4848 54.128 55.0397 53.9999C57.078 53.8252 59.1104 54.0523 61.1487 54.0465C61.6204 54.0465 62.1037 53.9358 62.0921 53.3651L62.0863 53.3476Z" fill="white"/>
<path d="M40.1015 43.4066C40.3578 43.2028 40.6082 43.0106 40.911 42.8825C42.4368 42.2419 43.817 41.2984 45.5175 41.0306C46.228 40.9199 46.8861 40.3841 47.6897 40.5355C48.4584 40.3434 49.1514 40.7335 49.8794 40.8093C51.9293 41.0306 53.8919 41.4324 55.4701 42.9174C55.9534 43.3716 56.6057 43.3251 56.891 42.9058C57.2579 42.37 56.9842 41.939 56.5882 41.5605C55.936 40.9374 55.1148 40.6171 54.2762 40.3434C51.7662 39.5164 49.2097 39.8367 46.6531 40.0231C46.2513 40.0522 45.8844 39.9241 45.4826 39.9823C44.2538 40.1628 43.1182 40.5821 42.0059 41.1179C41.1323 41.543 40.2297 41.9041 39.4493 42.5039C39.1057 42.766 38.9543 43.0979 39.2396 43.4532C39.5075 43.7851 39.8278 43.6104 40.0957 43.4008L40.1015 43.4066Z" fill="white"/>
<path d="M61.0553 55.6304C60.9447 55.1296 60.7059 54.8908 60.24 54.8617C59.4247 54.8093 58.6211 54.885 57.8407 55.1296C57.6078 55.1995 57.4971 55.3218 57.4331 55.6013C57.1826 56.667 57.1652 57.7444 57.1826 58.8276C57.1826 59.5439 57.1885 60.2602 57.1826 60.9765C57.1826 61.3317 57.2991 61.5123 57.6776 61.588C58.3707 61.7219 59.0462 61.687 59.745 61.6054C61.265 61.4249 61.2592 61.4424 61.2475 59.9166C61.2359 58.4898 61.3698 57.0572 61.0553 55.6362V55.6304ZM59.8965 59.9399C59.8848 60.1204 59.844 60.2485 59.6344 60.266C59.1743 60.3068 58.7143 60.3534 58.2542 60.4C57.8465 60.4407 57.9688 60.1379 57.9572 59.9341C57.9164 58.6005 58.097 57.2552 57.6311 55.8692C58.4056 56.0089 59.0404 56.1371 59.6926 56.0206C60.0712 55.9507 60.1876 56.1487 60.1585 56.4923C60.0653 57.6396 59.978 58.7926 59.8965 59.9399Z" fill="white"/>
<path d="M35.4959 68.8092C35.5949 69.0655 35.7521 69.2577 36.0491 69.246C36.3462 69.2344 36.5267 69.0422 36.5616 68.7685C36.6024 68.4482 36.5674 68.122 36.5907 67.8017C36.6432 66.9224 36.4743 66.0605 36.4219 65.1928C36.2355 62.3567 36.2297 59.5147 36.1714 56.6728C36.1598 56.0031 36.119 55.3334 36.0491 54.6637C36.0259 54.4365 36.0375 54.0813 35.6823 54.0988C35.3736 54.1162 35.3095 54.4249 35.3095 54.6811C35.3095 55.4673 35.3853 56.2593 35.3328 57.0397C35.1931 59.1129 35.1232 61.1919 35.2222 63.2127C35.1698 64.756 35.3387 66.2294 35.4144 67.7086C35.4318 68.0755 35.3503 68.4482 35.4901 68.8092H35.4959Z" fill="white"/>
<path d="M45.1215 47.6578C46.6473 47.4598 48.1614 47.0871 49.6989 47.7102C50.2404 47.9315 50.8694 47.949 51.5391 48.0713C51.7604 48.0888 52.005 47.984 52.1506 47.7044C52.3078 47.4132 52.1972 47.157 51.9992 46.9415C51.6905 46.6096 51.3003 46.4058 50.8578 46.3359C50.3103 46.2485 49.7629 46.1728 49.2155 46.0971C47.7188 45.8933 46.2687 46.0971 44.8711 46.6678C44.4925 46.8251 44.015 47.1104 44.1606 47.5647C44.3178 48.0655 44.7895 47.6986 45.1215 47.6578Z" fill="white"/>
<path d="M49.7111 44.2744C50.0838 44.286 50.4566 44.2045 50.5206 43.791C50.5963 43.3251 50.2061 43.1213 49.8334 43.0747C49.3559 43.0165 48.8667 43.0631 48.3833 43.0631C46.316 43.0631 44.3592 43.5464 42.5248 44.4957C42.1987 44.6645 41.6745 44.8858 41.9075 45.3343C42.1346 45.771 42.5772 45.4041 42.8917 45.2702C44.2369 44.6995 45.6055 44.1987 47.0847 44.1754C47.9582 44.1637 48.8376 44.2452 49.717 44.2802L49.7111 44.2744Z" fill="white"/>
<path d="M52.5997 44.6646C52.5648 45.1713 53.3568 45.8002 54.0382 45.8235C54.475 45.8352 54.7487 45.6372 54.7545 45.1771C54.7603 44.6879 53.9741 44.0473 53.3161 44.0415C52.9725 44.0764 52.6347 44.1987 52.6056 44.6705L52.5997 44.6646Z" fill="white"/>
<path d="M43.0656 74.7319C43.0656 74.7319 43.0481 74.7494 43.0365 74.761C43.3451 74.7552 43.6538 74.7494 43.9625 74.7377C44.1139 74.7377 44.2595 74.7377 44.3468 74.8309C44.4633 74.3534 44.5914 73.8758 44.4458 73.375C44.5623 74.0971 44.3876 74.3883 43.5373 74.4116C42.8793 74.4291 42.1571 74.3359 41.5049 74.6271C42.029 74.5863 42.5648 74.4 43.0714 74.7261L43.0656 74.7319Z" fill="white"/>
<path d="M43.0257 74.7551C43.0374 74.7434 43.0432 74.7376 43.0548 74.726C42.554 74.394 42.0182 74.5862 41.4883 74.627C41.9949 74.7027 42.5249 74.5105 43.0141 74.7551H43.0257Z" fill="white"/>
<path d="M44.3408 74.8309C44.3874 74.8775 44.4224 74.9416 44.4282 75.0522C44.6495 74.4931 44.6553 73.9341 44.4398 73.375C44.5854 73.8758 44.4573 74.3534 44.3408 74.8309Z" fill="white"/>
<path d="M43.0312 74.7551H43.0254L43.0312 74.7609V74.7551Z" fill="white"/>
<path d="M40.4744 59.5148C41.2198 59.5148 41.7964 59.0548 41.8138 58.4375C41.8313 57.7212 41.1965 57.098 40.4395 57.0864C39.6125 57.0747 39.1699 57.5756 39.1583 58.5306C39.1524 59.1421 39.6474 59.509 40.4744 59.5148ZM40.4336 57.5173C40.7073 57.529 41.016 57.5348 41.08 57.8784C41.1208 58.1055 40.9345 58.3326 40.7306 58.2919C40.4103 58.2336 39.9677 58.1637 39.8746 57.8551C39.793 57.5989 40.1774 57.5348 40.4395 57.5115L40.4336 57.5173Z" fill="white"/>
</svg>
