<svg width="98" height="98" viewBox="0 0 61 80" fill="none" xmlns="http://www.w3.org/2000/svg">
<path d="M19.2225 15.8033V13.4233H22.4225V4.06334H19.7225V2.24334C21.2225 1.96334 22.2225 1.58334 23.1825 1.00334H25.3625V13.4233H28.1425V15.8033H19.2225ZM31.8194 15.8033V13.4233H35.0194V4.06334H32.3194V2.24334C33.8194 1.96334 34.8194 1.58334 35.7794 1.00334H37.9594V13.4233H40.7394V15.8033H31.8194Z" fill="white"/>
<path d="M48.4909 60.8671C48.4909 61.7092 48.4909 62.5513 48.4909 63.399C48.2957 64.8824 47.2528 65.362 45.959 65.5963C44.7376 65.8193 43.5051 65.9699 42.2726 66.048C41.5644 66.0926 40.9342 66.3324 40.2761 66.5053C38.748 66.9124 37.6773 66.1484 37.7442 64.5645C37.8446 62.2669 37.7219 59.9692 37.7832 57.6659C37.8334 55.9203 37.9673 54.1748 37.8446 52.4236C37.8167 52.0444 37.7163 51.4867 38.2405 51.4309C38.8094 51.3696 38.7146 51.9384 38.7759 52.3121C39.1663 54.5484 39.1942 56.8071 39.1663 59.0657C39.1607 59.6178 39.2053 60.1755 39.1942 60.7276C39.183 61.1124 39.2611 61.2965 39.7128 61.2463C40.1255 61.2017 40.5549 61.2574 40.9732 61.2742C42.0663 61.3188 42.7355 62.2334 42.4622 63.3097C42.3953 63.583 42.2671 63.8284 41.9659 63.8674C41.6424 63.912 41.4026 63.728 41.2744 63.4492C41.1851 63.254 41.1294 63.0309 41.1015 62.8134C41.0624 62.4676 40.9063 62.3226 40.5438 62.3449C40.1144 62.3728 39.3503 62.1107 39.3169 62.4063C39.2332 63.1145 38.9209 63.834 39.1384 64.5645C39.2332 64.888 39.5121 64.9493 39.7853 64.8657C41.8934 64.2299 44.1019 64.1407 46.249 63.7336C46.6617 63.6555 46.8568 63.477 46.8903 62.9863C47.013 61.1459 46.9572 59.3223 46.829 57.4763C46.684 55.4017 46.762 53.3103 46.7453 51.2246C46.7397 50.4438 46.723 50.4271 45.959 50.6055C44.5982 50.9234 43.243 51.2636 41.8878 51.5815C41.4082 51.693 40.923 51.7042 40.4322 51.6763C40.159 51.6652 39.8634 51.6429 39.8076 51.3082C39.7463 50.968 39.9805 50.7673 40.2538 50.639C40.739 50.4104 41.2744 50.3602 41.793 50.2542C43.3992 49.9363 44.9663 49.4344 46.5892 49.1723C47.5261 49.0217 48.067 49.3898 48.1451 50.3267C48.3347 52.5575 48.4686 54.7827 48.2678 57.0246C48.1563 58.3017 48.2065 59.5955 48.4965 60.8615L48.4909 60.8671Z" fill="white"/>
<path d="M25.9596 61.5085C25.8982 62.1833 26.099 63.2429 25.8759 64.3081C25.6974 65.1558 26.0265 65.4569 26.9076 65.3175C28.5417 65.061 30.1813 65.3175 31.8153 65.2227C32.3228 65.1948 32.8303 65.2171 33.3434 65.206C33.7561 65.1948 33.9903 65.0498 33.9736 64.5646C33.9568 64.0571 34.0238 63.544 34.0795 63.0421C34.1241 62.6573 34.007 62.5123 33.6055 62.5792C33.1259 62.6573 32.6741 62.8469 32.1722 62.8246C31.8822 62.8079 31.8878 63.0979 31.9213 63.3377C31.9715 63.7114 32.0217 64.085 32.0495 64.4587C32.0607 64.6204 31.9603 64.7542 31.7986 64.8212C31.648 64.8825 31.5476 64.7765 31.4584 64.6817C31.0736 64.2746 31.029 62.6517 31.3747 62.2279C31.609 61.9435 31.8934 61.8208 32.2447 61.8431C32.334 61.8431 32.4232 61.871 32.5068 61.871C33.7505 61.9156 34.1576 61.4081 33.9791 60.1923C33.7951 58.9598 33.8788 57.7106 33.8565 56.4725C33.8341 55.3014 33.8174 54.1246 33.8341 52.9479C33.8397 52.4572 33.5832 52.4125 33.2095 52.446C31.754 52.5687 30.2928 52.697 28.8372 52.8029C28.2628 52.842 27.6884 52.7973 27.1196 52.6579C26.8463 52.591 26.5897 52.4795 26.6065 52.1448C26.6176 51.827 26.8742 51.7098 27.1474 51.6429C27.298 51.6039 27.4542 51.5704 27.6047 51.5648C29.6347 51.4254 31.6703 51.2749 33.7059 51.1689C34.693 51.1187 35.2284 51.6318 35.312 52.6245C35.5016 54.8106 35.6243 56.9912 35.4124 59.1885C35.2563 60.7835 35.5964 62.3673 35.7136 63.9567C35.7638 64.6204 35.6745 65.245 35.4626 65.8529C35.1726 66.6727 34.4532 66.8233 33.6947 66.9013C32.1443 67.0575 30.594 66.9571 29.0492 66.8567C28.3242 66.8065 27.6438 66.9961 26.9355 67.0352C25.374 67.1188 24.4538 66.2377 24.4649 64.6873C24.4873 62.0494 24.504 59.4116 24.5263 56.7793C24.5374 55.4966 24.688 54.2139 24.5709 52.9256C24.543 52.6133 24.4984 52.1504 24.9446 52.117C25.4353 52.0779 25.4744 52.5297 25.5413 52.9145C26.0153 55.636 25.9651 58.391 25.9707 61.514L25.9596 61.5085Z" fill="white"/>
<path d="M12.8263 52.3179C12.8263 54.2475 12.949 56.1882 12.7873 58.1011C12.6479 59.7519 12.7259 61.3748 12.7761 63.0144C12.7929 63.5219 13.0327 63.678 13.4342 63.7394C14.9902 63.9792 16.5406 64.2246 18.0965 64.4253C18.6542 64.4978 19.1617 64.7265 19.7027 64.838C20.3384 64.9719 20.673 64.7767 20.5782 64.1576C20.2436 61.9715 20.5448 59.7742 20.4778 57.588C20.4165 55.7142 20.595 53.8236 20.9073 51.9609C20.9519 51.6821 21.0578 51.3977 21.3757 51.4144C21.7327 51.4311 21.8275 51.749 21.8107 52.0558C21.755 53.4054 21.7996 54.7606 21.8442 56.1102C21.9334 58.6309 21.8888 61.1517 21.8609 63.6724C21.8609 64.219 21.9892 64.7599 21.7996 65.3176C21.465 66.2992 20.8069 66.8903 19.8198 66.578C17.6838 65.9032 15.4419 66.0036 13.2836 65.5072C11.4042 65.0667 11.0083 64.074 11.1198 62.3786C11.2871 59.8578 11.4377 57.3482 11.3206 54.8219C11.2481 53.305 11.354 51.7713 11.5325 50.2488C11.6329 49.4067 12.1794 49.0275 13.0327 49.1669C14.6779 49.4346 16.2673 49.931 17.8957 50.2656C18.3754 50.3604 18.8605 50.4161 19.3123 50.6002C19.6357 50.734 19.9369 50.9348 19.8588 51.3308C19.7863 51.6933 19.4405 51.6765 19.1505 51.6821C18.1411 51.7156 17.1707 51.4869 16.2059 51.2248C15.2857 50.9738 14.3488 50.7842 13.4286 50.55C13.0773 50.4608 12.9267 50.55 12.9323 50.9181C12.9434 51.3809 12.9323 51.8494 12.9323 52.3123C12.8933 52.3123 12.8598 52.3123 12.8208 52.3123L12.8263 52.3179Z" fill="white"/>
<path d="M12.7201 39.7529C12.5249 41.2977 12.8205 43.0489 12.7536 44.7945C12.748 44.9729 12.7424 45.1514 12.7145 45.3243C12.6643 45.6422 12.4803 45.8652 12.1568 45.8987C11.839 45.9322 11.6382 45.7593 11.4709 45.4748C11.192 45.0064 11.3593 44.51 11.3593 44.0416C11.3928 40.8572 11.3259 37.6616 11.6772 34.4828C11.7776 33.5626 11.6828 32.6257 11.7386 31.6943C11.8278 30.2332 12.6476 29.6587 14.0976 29.9264C15.8153 30.2499 17.5274 30.6124 19.273 30.7853C19.5797 30.8132 19.892 30.8522 20.1541 31.0474C20.3326 31.1812 20.5334 31.3207 20.4441 31.5828C20.3605 31.8226 20.1597 31.8728 19.9087 31.8839C18.9941 31.9174 18.0962 31.7389 17.2095 31.5828C15.9714 31.3653 14.7111 31.2259 13.5009 30.8689C13.2722 30.802 13.1663 30.7909 13.144 31.1143C13.0213 33.2391 12.854 35.3583 12.7257 37.4776C12.6867 38.1635 12.7201 38.8495 12.7201 39.7474V39.7529Z" fill="white"/>
<path d="M34.002 43.4281C34.2307 40.16 33.7232 36.9254 33.5893 33.674C33.5726 33.2948 33.4164 33.3562 33.1878 33.3729C31.4199 33.5179 29.652 33.5123 27.8786 33.5179C27.4045 33.5179 26.9528 33.4231 26.4899 33.3896C26.2222 33.3729 25.988 33.239 25.9824 32.9546C25.9824 32.6256 26.2836 32.4973 26.5345 32.4806C27.2428 32.436 27.9566 32.4137 28.6593 32.4416C30.0368 32.5029 31.4032 32.3691 32.7751 32.3244C34.0411 32.2854 34.9668 33.0439 35.0282 34.3098C35.2457 38.5985 35.5134 42.8871 35.4576 47.1869C35.4576 47.6275 35.3739 48.0792 34.8218 48.1182C34.2195 48.1573 34.002 47.7278 33.9964 47.2148C33.9741 45.9544 33.9909 44.6884 33.9909 43.4281H34.002Z" fill="white"/>
<path d="M48.3406 38.7157C48.3406 40.7512 48.3406 42.7868 48.3406 44.8168C48.3406 45.1681 48.2346 45.4804 48.0115 45.7314C47.8554 45.9043 47.6323 45.9601 47.3981 45.882C47.0523 45.7649 46.924 45.4749 46.924 45.1514C46.9185 44.2201 46.924 43.2887 46.9519 42.3574C47.03 39.898 46.9798 37.4385 46.7679 34.9847C46.6619 33.7299 46.5727 32.4695 46.5225 31.2091C46.5114 30.8634 46.4556 30.7965 46.1265 30.8801C44.3475 31.343 42.5239 31.5661 40.7114 31.8505C40.3879 31.9007 40.0477 31.8672 39.7187 31.884C39.49 31.8951 39.3227 31.8059 39.2391 31.6051C39.1387 31.3709 39.3004 31.2315 39.4566 31.0976C39.7075 30.8857 40.0143 30.8299 40.321 30.7965C42.2116 30.579 44.0798 30.2165 45.9481 29.8372C46.9631 29.6309 47.8554 30.3838 47.9223 31.5493C48.006 33.0105 48.0506 34.4716 48.1231 35.9272C48.1677 36.853 48.2402 37.7843 48.296 38.7101H48.3517L48.3406 38.7157Z" fill="white"/>
<path d="M22.2012 34.9903C22.3183 36.9143 22.0172 38.8328 22.1008 40.7624C22.1566 41.9782 22.1064 43.1939 22.1008 44.4153C22.1008 44.5491 22.112 44.683 22.1008 44.8168C22.0673 45.3076 22.0729 45.8541 21.4093 45.9155C20.9297 45.9601 20.6229 45.4135 20.6341 44.7332C20.6564 43.1214 20.6341 41.5041 20.662 39.8924C20.701 37.5222 20.9018 35.1632 21.1416 32.8042C21.1806 32.4417 21.1918 31.9453 21.7104 31.9843C22.19 32.0234 22.1956 32.4807 22.1956 32.8711C22.1956 33.5793 22.1956 34.2876 22.1956 34.9959L22.2012 34.9903Z" fill="white"/>
<path d="M39.0267 37.1431C38.7478 37.5056 38.9263 37.9239 38.9542 38.2919C39.1047 40.506 38.9095 42.72 39.0322 44.934C39.0601 45.4694 38.6697 45.9434 38.2459 45.9156C37.6826 45.8821 37.5767 45.4359 37.5711 45.0065C37.5432 43.5677 37.5599 42.1233 37.5432 40.6844C37.5265 38.7548 37.493 36.8252 37.4651 34.8956C37.454 34.271 37.5153 33.6519 37.7049 33.0552C37.7719 32.8377 37.8778 32.6146 38.1455 32.6202C38.4467 32.6258 38.3686 32.8935 38.3965 33.0775C38.5359 34.126 38.7701 35.1577 38.798 36.2619C39.2163 36.0054 39.3892 35.5425 39.8297 35.4031C40.0082 35.7042 39.8297 35.9329 39.6234 36.0835C39.2553 36.3567 39.0713 36.6969 39.0267 37.1375V37.1431Z" fill="white"/>
<path d="M24.488 40.4223C24.4043 38.7604 24.4601 37.0929 24.4545 35.431C24.4545 35.0685 24.5381 34.7283 24.6274 34.3825C24.6999 34.1092 24.8114 33.8527 25.1405 33.8694C25.4918 33.8806 25.542 34.165 25.5643 34.4438C25.7149 36.4348 25.8878 38.4202 25.9993 40.4111C26.0997 42.2459 25.9156 44.0807 26.0551 45.9155C26.0885 46.3561 25.8655 46.7019 25.3914 46.7632C24.9341 46.8246 24.672 46.5402 24.5939 46.133C24.4099 45.1682 24.5605 44.1867 24.4991 43.2163C24.4378 42.2906 24.488 41.3536 24.488 40.4279V40.4223Z" fill="white"/>
<path d="M42.3676 57.309C42.3732 57.9058 42.4513 58.5025 42.284 59.0936C42.2059 59.3725 42.3453 59.5175 42.6465 59.4673C42.7357 59.4506 42.8249 59.445 42.9086 59.4338C43.2822 59.4004 43.7618 59.4952 44.0016 59.3C44.2359 59.1048 43.9068 58.6642 43.8734 58.3185C43.7507 56.9521 44.788 56.5227 45.6468 56.4837C46.0093 56.4669 46.3272 56.6008 46.3607 57.019C46.3941 57.4373 46.0874 57.6715 45.7416 57.6492C45.0222 57.6046 44.9163 57.9225 44.9553 58.5583C45.0278 59.6123 44.5593 60.0808 43.5109 60.2481C42.9811 60.3317 42.4624 60.3986 41.927 60.3206C41.3693 60.2369 41.057 59.9135 41.124 59.3725C41.2299 58.5081 41.0738 57.6381 41.1741 56.7848C41.2522 56.1379 40.9176 55.9538 40.399 55.9148C39.9528 55.8758 39.384 55.9204 39.4174 55.3069C39.462 54.5931 40.1145 54.844 40.5272 54.844C40.9176 54.844 41.308 54.9779 41.6928 55.0727C42.1947 55.201 42.3063 55.6248 42.3453 56.0487C42.3843 56.4669 42.3509 56.8908 42.3509 57.309H42.3676Z" fill="white"/>
<path d="M39.0271 37.1429C38.7594 36.7024 38.9434 36.3677 39.3226 36.1391C39.6126 35.9606 39.7799 35.7376 39.8301 35.4085C40.728 34.8954 41.598 34.9401 42.4401 35.5368C43.2265 36.0945 44.1578 36.4626 44.749 37.2879C44.827 37.3939 44.933 37.4887 44.9832 37.6058C45.368 38.4201 45.658 39.0725 44.4032 39.357C43.2432 39.6191 42.2226 39.8868 41.6594 41.1193C41.4251 41.6379 40.5384 41.6714 39.964 41.4148C39.6461 41.2698 39.4565 41.0356 39.4955 40.6899C39.5346 40.3552 39.7576 40.1154 40.0922 40.0541C40.3488 40.0039 40.6221 40.0206 40.8842 40.0262C41.1296 40.0318 41.3303 39.976 41.414 39.725C41.6705 38.9331 42.3119 38.6933 43.0424 38.5651C43.3659 38.5093 43.6893 38.4145 44.0128 38.342C44.4924 38.2416 44.4645 37.9906 44.1913 37.6951C43.667 37.1262 43.154 36.5295 42.2951 36.4626C42.1445 36.4514 41.994 36.3845 41.8545 36.3231C40.8842 35.9049 40.2372 36.0722 39.6294 36.9422C39.4621 37.182 39.3449 37.4218 39.0326 37.1429H39.0271Z" fill="white"/>
<path d="M30.0758 57.7384C30.0758 57.1417 30.0702 56.545 30.0758 55.9482C30.0758 55.53 30.2877 55.24 30.6725 55.0726C31.3863 54.7715 32.1058 54.844 32.8196 55.0448C33.1208 55.1284 33.316 55.3682 33.2546 55.7028C33.1933 56.0375 32.9311 56.1546 32.6133 56.1657C32.524 56.1657 32.4404 56.1434 32.3511 56.1378C31.1633 56.0319 31.1019 56.0653 31.1688 57.309C31.2246 58.3296 31.2413 59.339 31.1521 60.3596C31.1075 60.8838 30.9179 61.1459 30.3267 61.1459C29.7133 61.1459 29.0998 61.2853 28.4808 61.3522C28.241 61.3801 27.99 61.4136 27.7558 61.369C27.3264 61.2909 26.9973 61.0622 27.0196 60.5771C27.0475 60.0584 27.4212 59.9636 27.8617 59.9301C28.4362 59.8855 28.9381 60.1699 29.4735 60.2703C29.8862 60.3484 30.1148 60.2592 30.1092 59.7963C30.0981 59.1103 30.1092 58.4244 30.1092 57.7384C30.0981 57.7384 30.0925 57.7384 30.0813 57.7384H30.0758Z" fill="white"/>
<path d="M30.5272 42.3629C31.057 42.3741 31.4418 42.3071 31.821 42.1398C32.1779 41.9781 32.546 41.9837 32.7412 42.3741C32.9587 42.8091 32.691 43.0879 32.3229 43.2831C31.3135 43.8073 30.2873 43.7292 29.3281 43.2106C28.5139 42.77 28.4191 41.9725 29.0158 41.2475C29.172 41.0579 29.3393 40.885 29.501 40.701C29.6014 40.5894 29.7687 40.4835 29.646 40.3106C28.882 39.2343 29.5122 38.5093 30.2929 37.8846C30.9566 37.3548 31.7095 36.97 32.6018 37.0091C32.9475 37.0258 33.3323 37.0425 33.2989 37.511C33.2654 37.9348 32.9029 37.801 32.6185 37.801C31.6425 37.801 30.8841 38.2416 30.2985 39C30.0754 39.2844 30.0977 39.5856 30.3097 39.8589C30.7558 40.4333 30.6331 40.8962 30.1089 41.3591C29.8747 41.5654 29.4341 41.7885 29.607 42.1287C29.791 42.4912 30.2873 42.3239 30.5216 42.3685L30.5272 42.3629Z" fill="white"/>
<path d="M14.7168 41.3089C14.5327 41.2977 14.3989 41.3089 14.2706 41.2866C13.8468 41.2196 13.5345 41.0021 13.607 40.5392C13.6739 40.0819 14.042 39.9537 14.4602 40.0039C14.7893 40.0485 15.1127 40.1266 15.4418 40.1879C15.7095 40.2381 15.9771 40.2381 16.2281 40.1266C16.4345 40.0373 16.6296 39.9146 16.652 39.6581C16.6743 39.4071 16.546 39.2398 16.3341 39.1227C16.0608 38.9721 15.7987 38.8048 15.5254 38.6654C14.7948 38.2862 14.5662 37.6393 14.622 36.8864C14.6889 35.9885 14.5272 35.665 13.7018 35.3695C13.462 35.2802 13.1887 35.2356 13.317 34.8954C13.4173 34.6166 13.646 34.4883 13.9527 34.5385C14.912 34.6835 15.7373 35.81 15.5589 36.7804C15.4473 37.3883 15.5979 37.8177 16.1891 38.0687C16.3898 38.1523 16.5795 38.2806 16.7691 38.3977C17.2989 38.7212 17.6391 39.1841 17.5443 39.8254C17.4495 40.4723 16.8416 41.0244 16.1946 41.1304C15.7596 41.2029 15.3191 41.2587 14.8785 41.3144C14.8116 41.3256 14.7447 41.3144 14.7279 41.3144L14.7168 41.3089Z" fill="white"/>
<path d="M18.0297 60.5773C18.2751 60.5773 18.5204 60.5661 18.7603 60.5773C19.1283 60.5996 19.4128 60.7558 19.4629 61.1517C19.5131 61.5365 19.2901 61.7819 18.961 61.9269C18.342 62.2002 16.6578 61.8544 16.1837 61.3692C15.9662 61.1461 15.8937 60.8617 15.9049 60.5717C15.9439 59.8188 15.9774 59.0659 16.0833 58.3242C16.1503 57.8502 16.022 57.6327 15.5591 57.655C15.0293 57.6829 14.5553 57.4933 14.0868 57.3036C13.886 57.22 13.663 57.0583 13.7299 56.8017C13.8024 56.5117 14.0701 56.4838 14.3266 56.5285C14.9178 56.6288 15.5033 56.7181 16.0889 56.8352C16.9031 56.9969 17.2043 57.404 17.0258 58.2015C16.8976 58.7648 16.9087 59.3504 16.7805 59.9081C16.6466 60.4992 16.9087 60.6609 17.433 60.6219C17.6337 60.6052 17.8289 60.6052 18.0297 60.594V60.5773Z" fill="white"/>
<path d="M31.6424 48.425C30.0976 48.2689 28.5472 48.386 27.0024 48.4139C26.6008 48.4195 26.177 48.4027 26.1212 47.9287C26.0543 47.371 26.5618 47.2316 26.9578 47.1702C27.8724 47.0364 28.8037 46.9304 29.7295 46.9081C30.5437 46.8914 31.3579 47.0085 32.1722 47.0531C32.6685 47.081 33.031 47.2929 32.9697 47.8116C32.9139 48.2968 32.5458 48.5087 32.0439 48.425C31.9156 48.4027 31.7818 48.425 31.6479 48.425H31.6424Z" fill="white"/>
<path d="M14.7172 45.2016C16.2788 45.0734 17.8738 45.6366 19.5022 46.0326C19.7253 46.0884 19.9316 46.2612 20.1157 46.4118C20.3164 46.5735 20.4391 46.791 20.3109 47.0587C20.177 47.3432 19.9372 47.4101 19.6416 47.3543C17.9295 47.0309 16.2007 46.791 14.4663 46.5903C13.9922 46.5345 13.7134 46.1832 13.7468 45.7091C13.7803 45.2351 14.1261 45.0957 14.7172 45.2072V45.2016Z" fill="white"/>
<path d="M39.9581 47.3599C39.657 47.3711 39.4841 47.2874 39.3725 47.0978C39.2387 46.8747 39.3056 46.6684 39.4618 46.4899C39.6514 46.2668 39.8912 46.0717 40.1756 46.027C41.2687 45.8542 42.2837 45.3467 43.3991 45.2909C43.9679 45.263 44.5423 45.2184 45.1112 45.1626C45.5071 45.1236 45.8418 45.2017 45.9087 45.6534C45.9812 46.1163 45.7135 46.5067 45.3064 46.5568C43.4883 46.7967 41.6702 47.0142 39.9525 47.3655L39.9581 47.3599Z" fill="white"/>
<path d="M14.0029 67.3754C14.0587 66.9069 14.0308 66.3492 14.6275 66.3381C15.1852 66.3269 15.4195 66.8177 15.425 67.3029C15.4306 67.894 15.4139 68.4852 15.4362 69.0819C15.4529 69.4723 15.2298 69.7679 14.806 69.8013C14.3877 69.8292 14.2595 69.5448 14.1702 69.1879C14.0141 68.58 14.1312 67.9554 14.0029 67.381V67.3754Z" fill="white"/>
<path d="M45.7131 67.7156C45.7131 67.8717 45.7075 68.0223 45.7131 68.1784C45.741 68.6469 45.596 69.0317 45.0996 69.1321C44.6033 69.2325 44.3858 68.8644 44.2519 68.474C44.04 67.8717 44.0679 67.2583 44.2631 66.656C44.3746 66.3213 44.5977 66.0592 44.9881 66.1038C45.4175 66.1485 45.6517 66.4385 45.6852 66.8567C45.7075 67.1411 45.6852 67.4311 45.6852 67.7156H45.7075H45.7131Z" fill="white"/>
<path d="M28.4803 68.3345C28.4413 68.552 28.4245 68.7751 28.352 68.9815C28.2349 69.3217 27.9951 69.5615 27.6047 69.5168C27.2255 69.4722 27.0303 69.2213 26.9801 68.8476C26.9411 68.5799 26.9132 68.3178 26.9969 68.0557C27.1307 67.6263 27.3649 67.2303 27.8668 67.3028C28.4413 67.3809 28.4747 67.8661 28.4803 68.3401V68.3345Z" fill="white"/>
<path d="M41.5697 67.7155C41.592 68.0948 41.5306 68.4851 41.2239 68.7919C40.8447 69.1767 40.3483 69.0596 40.1866 68.5465C40.0695 68.1784 40.0695 67.7992 40.22 67.4367C40.3818 67.0407 40.5937 66.6169 41.1124 66.7117C41.6366 66.8121 41.5641 67.2861 41.5641 67.7155H41.5697Z" fill="white"/>
<path d="M18.0906 67.5817C18.0906 67.2527 18.0405 66.7787 18.5703 66.7062C19.0833 66.6337 19.312 67.0575 19.4403 67.4646C19.5908 67.9331 19.641 68.4294 19.2841 68.8477C19.1279 69.0373 18.8937 69.0708 18.6762 68.9592C18.1408 68.686 18.0739 68.184 18.0851 67.5817H18.0906Z" fill="white"/>
<path d="M32.6355 68.5577C32.5909 68.9815 32.5351 69.4388 31.9217 69.4388C31.4867 69.4388 31.1521 68.9759 31.2023 68.435C31.2469 67.9554 31.4365 67.5315 31.983 67.5594C32.5519 67.5873 32.6355 68.0502 32.6299 68.5577H32.6355Z" fill="white"/>
<path d="M45.7407 47.8284C45.6738 48.2746 45.6013 48.7598 45.0659 48.8378C44.6477 48.8936 44.5305 48.5423 44.5082 48.1742C44.4748 47.6165 44.7982 47.254 45.2723 47.1648C45.6627 47.0923 45.685 47.5273 45.7407 47.8284Z" fill="white"/>
<path d="M15.1568 48.2465C15.1401 48.5142 15.0397 48.8823 14.6159 48.8377C14.0749 48.7763 13.9634 48.2967 13.941 47.845C13.9243 47.5383 13.9801 47.1869 14.3816 47.1479C14.7497 47.1144 15.1624 47.6888 15.1568 48.2465Z" fill="white"/>
<path d="M31.5149 50.0144C31.5037 49.4065 31.883 48.9548 32.2901 48.9994C32.6805 49.044 32.7641 49.3786 32.7641 49.6909C32.7641 50.1259 32.6582 50.5721 32.1116 50.6C31.671 50.6223 31.526 50.2821 31.5149 50.02V50.0144Z" fill="white"/>
<path d="M19.513 48.7598C19.4851 49.1502 19.368 49.5015 18.9274 49.5127C18.5259 49.5238 18.3419 49.2171 18.353 48.8435C18.3642 48.4921 18.4088 48.0739 18.8717 48.0515C19.3122 48.0292 19.4517 48.3806 19.5074 48.7598H19.513Z" fill="white"/>
<path d="M41.3241 48.7819C41.3129 49.1778 41.1735 49.4957 40.7775 49.5125C40.3369 49.5292 40.1696 49.189 40.1641 48.7986C40.1641 48.4082 40.3258 48.068 40.7496 48.0457C41.2348 48.0234 41.2404 48.464 41.3241 48.7763V48.7819Z" fill="white"/>
<path d="M26.9918 49.9698C26.9806 49.5013 27.1368 49.2058 27.5383 49.2002C28.0346 49.2002 28.1239 49.624 28.1741 49.9921C28.2243 50.3379 28.057 50.6223 27.6666 50.6223C27.2037 50.6223 27.0252 50.3044 26.9918 49.9642V49.9698Z" fill="white"/>
</svg>
