<svg width="98" height="98" viewBox="0 0 98 98" fill="none" xmlns="http://www.w3.org/2000/svg">
<path d="M38.2225 25.8033V23.4233H41.4225V14.0633H38.7225V12.2433C40.2225 11.9633 41.2225 11.5833 42.1825 11.0033H44.3625V23.4233H47.1425V25.8033H38.2225ZM50.0394 25.8033V24.1233C54.0794 20.5033 56.4394 17.7233 56.4394 15.4433C56.4394 13.9633 55.6594 13.0433 54.2394 13.0433C53.1394 13.0433 52.2794 13.7433 51.5194 14.5833L49.8994 12.9833C51.2594 11.5233 52.5994 10.7433 54.6194 10.7433C57.3994 10.7433 59.2794 12.5233 59.2794 15.2833C59.2794 17.9833 57.0394 20.8633 54.3394 23.5033C55.0794 23.4233 56.0594 23.3233 56.7594 23.3233H59.9594V25.8033H50.0394Z" fill="white"/>
<path d="M69.1131 65.72C69.0393 63.4146 69.1975 61.1038 69.0868 58.7983C68.9918 56.8516 69.0762 54.8996 69.0076 52.9475C68.9601 51.655 69.1342 50.3519 69.2081 49.0541C69.2028 49.0541 69.1975 49.0541 69.187 49.0541C69.187 48.7375 69.187 48.4263 69.187 48.1097C69.1764 46.3107 68.0263 45.15 66.222 45.1026C65.4465 45.0815 64.671 45.0182 63.8955 45.0129C60.7881 44.9971 57.6754 44.9126 54.5733 45.0129C52.1887 45.092 49.8146 45.4138 47.4352 45.6407C47.1187 45.6723 46.7705 45.7673 46.6175 46.0522C46.4434 46.3846 46.2007 46.3898 45.9 46.4057C45.1245 46.4479 44.8027 46.7591 44.6919 47.503C44.4914 48.8589 44.523 50.2253 44.6022 51.5864C44.7605 54.372 44.982 57.1523 44.8238 59.9431C44.7288 61.6155 44.7499 63.2879 44.9979 64.9498C45.1403 65.8994 45.383 66.8385 45.3513 67.8198C45.3091 69.202 45.3513 70.5895 45.3461 71.977C45.3461 72.4782 45.383 72.9953 45.2827 73.4859C44.9662 75.0844 44.8923 76.683 45.1034 78.2973C45.1931 78.9674 45.9791 79.7007 46.6228 79.6743C47.5935 79.6374 48.5748 79.7218 49.535 79.7587C52.31 79.8642 55.0745 79.6849 57.8442 79.6532C58.4298 79.6479 59.0207 79.6374 59.6063 79.6637C61.3842 79.7482 63.1674 79.5741 64.9506 79.7429C65.7631 79.8167 66.5861 79.8484 67.4038 79.6849C67.7203 79.6215 67.9578 79.4685 68.0369 79.152C68.1266 78.7933 67.9261 78.5453 67.6623 78.3501C67.4355 78.1813 67.1664 78.1338 66.8868 78.1443C65.858 78.1813 64.8345 78.2182 63.8058 78.2446C61.6902 78.3079 59.5799 78.2868 57.4644 78.2288C55.7498 78.1813 54.0246 78.0336 52.3153 78.0916C50.664 78.1496 49.0021 77.928 47.3561 78.2288C47.0448 78.2868 46.8127 78.1338 46.7494 77.7012C46.5595 76.4561 46.4962 75.2005 46.3484 73.9554C45.995 71.0538 45.8895 68.1416 46.2324 65.2241C46.264 64.9762 46.3115 64.7124 46.2746 64.4697C46.0108 62.8026 46.0847 61.1302 46.1849 59.4525C46.4329 55.4746 46.2377 51.4862 46.3854 47.503C46.4012 47.0915 46.5067 46.833 47.029 46.9174C47.9681 47.0599 48.9124 46.8963 49.8462 46.8172C51.4342 46.6853 53.0275 46.4426 54.6155 46.4426C57.6332 46.4479 60.6614 46.3318 63.6739 46.622C64.5655 46.7064 65.4676 46.5428 66.3592 46.8172C67.2825 47.1021 67.8153 47.7774 67.7467 48.7217C67.7098 49.2229 67.7256 49.7294 67.7731 50.2306C68 52.5571 67.7942 54.889 67.8206 57.2156C67.8417 59.7321 67.7573 62.2486 67.7414 64.7651C67.7309 66.3373 67.7995 67.9095 67.7837 69.4764C67.7678 71.6763 67.5515 73.871 67.5832 76.071C67.5937 76.7463 67.9419 77.2369 68.4589 77.2528C68.9812 77.2686 69.3347 76.8254 69.34 76.0921C69.34 74.9156 69.3875 73.7339 69.2925 72.5679C69.1079 70.2888 69.2028 68.0044 69.129 65.72H69.1131Z" fill="white"/>
<path d="M64.1698 52.5676C64.2648 52.4938 64.3756 52.4094 64.3439 52.2616C64.307 52.0875 64.1645 52.0453 64.0115 52.0453C63.7425 52.0453 63.4787 52.0084 63.2518 52.23C62.9406 52.5307 62.7454 52.3777 62.6346 52.0242C62.5343 52.0031 62.4341 51.9557 62.3339 51.9662C61.3104 52.0823 60.3238 52.0717 59.4481 51.3912C59.1843 51.1854 58.8888 51.2962 58.625 51.4703C57.4011 52.2775 56.1824 52.2458 54.9795 51.4386C54.5416 51.1432 54.0774 51.0957 53.5973 51.2856C52.9748 51.5283 52.3469 51.7763 51.7402 52.0664C51.3604 52.2458 51.0122 52.2933 50.5901 52.23C50.1839 52.172 49.8304 51.8554 49.4717 51.9029C48.865 51.982 48.8861 51.6497 48.8755 51.2645C48.865 50.7792 48.8755 50.2938 48.7542 49.8243C48.6909 49.5816 48.5484 49.3969 48.2741 49.4022C47.9998 49.4022 47.8679 49.5974 47.8098 49.8401C47.7413 50.1092 47.7624 50.3782 47.7887 50.6526C48.0314 53.0055 48.3532 55.3585 48.0894 57.7326C47.9153 59.2889 48.2002 60.8347 48.2002 62.3857C48.2002 64.3114 48.1053 66.237 48.3269 68.1574C48.5115 69.7401 48.6645 71.3228 48.5537 72.9213C48.5221 73.4014 48.4482 73.8868 48.4904 74.3616C48.6065 75.6172 49.2184 76.245 50.4582 76.3505C51.7561 76.4613 53.0539 76.4244 54.357 76.3083C55.1272 76.2398 55.9239 76.1817 56.6783 76.3083C57.7229 76.4824 58.7517 76.4824 59.8015 76.4561C60.5085 76.4402 61.1996 76.2925 61.9171 76.3242C62.5607 76.3505 63.2729 76.4191 63.8902 76.0551C64.1856 75.881 64.3703 75.6278 64.2806 75.2743C64.1856 74.8892 63.8902 74.7045 63.5262 74.7414C62.6346 74.8364 61.7377 74.8892 60.8461 74.9683C59.7488 75.0633 58.6461 75.1635 57.5541 75.2057C55.5124 75.2848 53.4601 75.1952 51.4131 75.1688C51.0808 75.1688 50.7484 75.1213 50.4108 75.1055C50.2367 75.1002 50.1523 75.0422 50.1364 74.8522C50.0415 73.6388 49.7355 72.4518 49.6352 71.2489C49.4295 68.8274 49.1551 66.4111 49.2132 63.9684C49.2765 61.4519 48.8755 58.9512 48.981 56.4295C49.0285 55.2213 48.9916 54.0132 48.9916 52.7576C50.147 53.4803 51.2443 53.7177 52.4155 52.9791C52.8059 52.7365 53.2491 52.5782 53.6606 52.3777C53.8822 52.2669 54.0616 52.2511 54.299 52.4041C55.792 53.3854 57.3272 53.5806 58.8941 52.5676C59.1051 52.4305 59.2265 52.4568 59.4481 52.5465C60.7934 53.0899 62.1914 53.2588 63.6317 53.0636C63.7056 52.7892 63.9588 52.7048 64.154 52.5571L64.1698 52.5676Z" fill="white"/>
<path d="M64.8233 74.0029C64.8972 74.425 65.0976 74.7943 65.6041 74.731C66.1211 74.6677 66.3691 74.2931 66.3638 73.8024C66.3427 72.6101 66.3322 71.4178 66.2266 70.2361C66.1 68.838 66.0525 67.4399 65.9576 66.0419C65.8204 64.1215 65.8784 62.1959 65.8204 60.2702C65.7202 57.0468 65.9365 53.8233 65.7043 50.6051C65.6938 50.4416 65.7413 50.2253 65.5302 50.1831C65.2665 50.125 65.2348 50.3677 65.1979 50.5471C65.0027 51.5548 64.7705 52.5466 64.8022 53.5912C64.9183 57.3422 64.9868 61.0985 64.8602 64.8496C64.7864 67.0865 64.5279 69.3181 64.6861 71.5286C64.6439 72.3833 64.6809 73.201 64.818 74.0082L64.8233 74.0029Z" fill="white"/>
<path d="M34.6624 53.9658C36.8782 53.9447 38.883 52.1985 39.0202 50.0196C39.1204 48.4421 37.6696 46.4479 35.0528 46.4901C33.3804 46.3266 31.5023 48.0728 31.4337 50.0143C31.3862 51.3649 32.9056 53.9816 34.6572 53.9658H34.6624ZM35.2322 47.6244C36.8308 47.6402 38.0125 48.6215 37.9914 49.9141C37.965 51.4124 36.3612 52.7471 34.6519 52.6838C33.5545 52.6416 32.7368 51.4968 32.721 50.0882C32.7104 48.9961 34.0768 47.3501 35.2322 47.6244Z" fill="white"/>
<path d="M43.2825 71.2385C43.1454 71.1963 42.9765 71.1646 42.8499 71.2068C42.1377 71.4179 41.5574 71.0855 40.9454 70.8164C40.1277 70.4524 39.3258 70.4155 38.45 70.769C37.5162 71.1435 36.5507 71.6922 35.4903 71.3124C33.8971 70.7426 32.2563 70.8428 30.6736 70.8586C29.8506 70.7162 29.2808 71.2913 28.5686 71.3862C28.2362 71.4284 27.9566 71.6078 28.0094 72.014C28.0674 72.4414 28.3945 72.531 28.7585 72.5152C29.5129 72.4783 30.2146 72.2198 30.8266 71.8135C31.8976 71.1013 32.8472 71.5076 33.8548 71.9454C35.0419 72.4677 36.2078 73.2274 37.6112 72.5996C38.1282 72.3728 38.6821 72.2303 39.1939 71.9982C39.5684 71.8294 39.885 71.8294 40.1804 72.1037C41.1617 73.0217 42.2643 72.7843 43.3722 72.4255C43.6307 72.3411 43.8681 72.1512 43.8523 71.8294C43.8365 71.4865 43.578 71.3282 43.2878 71.2332L43.2825 71.2385Z" fill="white"/>
<path d="M49.0233 48.6373C49.2027 48.6848 49.3926 48.7375 49.5773 48.7481C51.4027 48.822 53.2175 48.5898 55.0376 48.5634C57.2007 48.5318 59.3584 48.3999 61.5056 48.7534C62.5819 48.9275 63.6845 48.8905 64.5814 49.1543C65.4624 49.1701 65.8054 48.9433 65.8106 48.4579C65.8212 47.9567 65.4255 47.6349 64.766 47.6033C64.6183 47.598 64.4706 47.6033 64.3229 47.6033C63.025 47.6085 61.7325 47.4977 60.4294 47.5505C59.4903 47.5874 58.5407 47.4292 57.6016 47.4397C56.4093 47.4503 55.217 47.5874 54.0247 47.5874C52.9273 47.5874 51.8405 47.5874 50.7643 47.8301C50.2526 47.9462 49.7355 48.0253 49.2027 47.9145C48.9231 47.8565 48.6065 47.9145 48.5538 48.2522C48.501 48.5634 48.8123 48.5793 49.0286 48.6373H49.0233Z" fill="white"/>
<path d="M51.6818 71.1857C51.8032 71.5656 52.336 71.3651 52.6948 71.3018C52.7581 71.2912 52.8108 71.2543 52.8741 71.2437C53.7868 71.0697 54.6943 70.9747 55.6017 71.3123C56.5566 71.6658 57.5062 71.6658 58.4875 71.2701C59.5637 70.8375 60.6664 70.5632 61.8217 71.1435C62.2174 71.344 62.7133 71.3704 63.1723 71.4337C63.5944 71.4917 63.9162 71.2965 64.0586 70.885C64.2011 70.4735 63.9901 70.2044 63.6524 69.9987C63.415 69.8562 63.1459 69.7824 62.8716 69.7666C61.769 69.7032 60.6611 69.5028 59.5532 69.6769C58.0549 69.909 56.583 70.5632 55.1216 69.8615C54.1667 70.0514 53.2962 70.1833 52.4468 70.4102C52.0828 70.5051 51.5499 70.7637 51.6871 71.1857H51.6818Z" fill="white"/>
<path d="M72.7213 70.0671C72.0671 70.0038 71.4341 70.083 70.8168 70.3151C70.4686 70.4417 69.9938 70.4575 69.9991 70.9376C70.0096 71.4546 70.4739 71.5602 70.8959 71.6446C71.0173 71.6709 71.1439 71.6815 71.1914 71.6868C71.7453 71.6604 72.2254 71.634 72.7002 71.6129C73.1698 71.5918 73.5549 71.3913 73.5654 70.8954C73.576 70.3837 73.2225 70.1199 72.7161 70.0724L72.7213 70.0671Z" fill="white"/>
<path d="M36.9047 56.8991C36.6356 57.0257 36.546 57.2684 36.6093 57.5269C36.7834 58.2392 36.9575 58.9514 37.1949 59.6478C37.3162 60.0118 37.6486 60.2017 38.0601 60.112C38.4241 60.0329 38.5613 59.7638 38.5454 59.4104C38.4347 58.5346 38.0812 57.7591 37.522 57.0838C37.369 56.8991 37.1632 56.7778 36.91 56.8991H36.9047Z" fill="white"/>
<path d="M31.4809 59.9855C31.866 60.0857 32.1456 59.8853 32.2881 59.5423C32.5783 58.8248 32.8368 58.0915 32.9159 57.3107C32.9423 57.0733 32.9423 56.8306 32.6996 56.704C32.4464 56.5721 32.2248 56.7093 32.0982 56.9045C31.6286 57.622 31.2277 58.3764 31.0852 59.0675C31.0536 59.574 31.1011 59.8905 31.4809 59.9855Z" fill="white"/>
<path d="M28.7216 55.575C28.959 55.2268 28.9274 54.963 28.4895 54.7942C27.8511 54.5462 26.701 54.9419 26.3845 55.538C26.1312 56.0181 26.4214 56.4929 26.9701 56.4929C27.3499 56.4929 28.5053 55.8968 28.7269 55.5697L28.7216 55.575Z" fill="white"/>
<path d="M42.8509 42.6494C42.2811 42.8446 41.9329 43.2983 41.7114 43.8311C41.5636 44.1952 41.8643 44.5117 42.3972 44.5064C42.7612 44.3904 43.2044 44.211 43.579 43.8997C43.8744 43.657 44.0696 43.351 43.8375 42.9712C43.6106 42.6019 43.2413 42.5122 42.8509 42.6441V42.6494Z" fill="white"/>
<path d="M27.3029 48.8905C27.2923 48.4262 26.8808 48.1149 26.2741 48.0991C25.5883 48.0886 25.0871 48.442 25.1029 48.959C25.1187 49.5024 25.488 49.6449 25.8046 49.666C26.8544 49.6765 27.3187 49.4075 27.3029 48.8905Z" fill="white"/>
<path d="M36.72 42.164C37.1684 42.1904 37.2845 41.8264 37.2898 41.4307C37.2898 41.3094 37.3478 41.188 37.3636 41.0667C37.4586 40.3756 37.2001 39.8427 36.7569 39.8058C36.319 39.7689 36.108 40.1276 36.0869 40.9295C36.0869 41.0772 36.0869 41.2197 36.0869 41.3674C36.1027 41.7895 36.2874 42.1429 36.72 42.1693V42.164Z" fill="white"/>
<path d="M29.83 43.5938C30.2785 43.7626 30.7005 43.4777 30.6953 43.0029C30.6953 42.5914 30.0886 41.7631 29.7034 41.6365C29.2866 41.4993 28.9384 41.7367 28.9173 42.1746C28.9015 42.6283 29.4238 43.4408 29.83 43.5938Z" fill="white"/>
<path d="M41.6209 55.385C42.0271 55.3797 42.3384 55.0526 42.3225 54.6569C42.3067 54.2402 41.8794 53.8498 41.4204 53.8603C40.9772 53.8709 40.7187 54.1188 40.6871 54.5567C40.6554 54.9893 41.1249 55.3903 41.6209 55.385Z" fill="white"/>
<path d="M52.6159 56.0393C52.1569 56.0287 51.7506 56.4191 51.7559 56.8623C51.7559 57.3002 52.0144 57.5165 52.4154 57.5587C52.8374 57.6009 53.3017 57.1735 53.3122 56.704C53.2859 56.3242 53.0801 56.0551 52.6159 56.0445V56.0393Z" fill="white"/>
<path d="M52.3727 63.5255C52.3885 63.9529 52.6523 64.1481 53.0691 64.1744C53.4806 64.1322 53.7338 63.9054 53.7338 63.4939C53.7338 63.0876 53.4753 62.808 53.0638 62.8133C52.6365 62.8133 52.3569 63.0665 52.3727 63.5308V63.5255Z" fill="white"/>
<path d="M60.7927 57.2316C60.8033 56.8148 60.5553 56.5827 60.128 56.551C59.7323 56.5774 59.4949 56.7937 59.4896 57.1841C59.4791 57.6009 59.7059 57.8594 60.1438 57.8541C60.5448 57.8541 60.7822 57.6167 60.7927 57.2316Z" fill="white"/>
<path d="M56.7415 59.9961C56.7415 59.5952 56.5252 59.363 56.119 59.3578C55.7127 59.3525 55.4753 59.5952 55.4701 59.975C55.4595 60.3654 55.7075 60.5817 56.0979 60.6239C56.4935 60.5975 56.7362 60.3971 56.7415 59.9961Z" fill="white"/>
<path d="M64.7134 51.9926C64.4654 51.4967 64.0434 51.5442 63.653 51.7974C63.3312 52.0085 62.9882 52.019 62.6348 52.0243C62.8194 52.2248 63.0252 52.2511 63.252 52.1034C63.3417 52.0454 63.4261 51.9874 63.5316 51.961C63.864 51.8766 64.2491 51.7974 64.418 52.172C64.5868 52.5519 64.228 52.7101 63.9642 52.879C63.8587 52.9423 63.7216 52.9581 63.653 53.0742C63.8693 53.1058 64.0698 53.0425 64.2491 52.9317C64.5973 52.7154 64.9614 52.4727 64.7187 51.9926H64.7134Z" fill="white"/>
<path d="M63.9584 52.8791C64.2222 52.7103 64.5809 52.552 64.4121 52.1722C64.2433 51.7923 63.8634 51.8767 63.5258 51.9611C63.4255 51.9875 63.3359 52.0456 63.2462 52.1036C63.0193 52.2513 62.8136 52.2249 62.6289 52.0245C62.745 52.3727 62.9402 52.5309 63.2462 52.2302C63.473 52.0086 63.7368 52.0403 64.0059 52.0456C64.1589 52.0456 64.3013 52.0878 64.3382 52.2619C64.3699 52.4043 64.2591 52.494 64.1641 52.5679C63.9689 52.7156 63.7157 52.8 63.6418 53.0743C63.7157 52.9583 63.8476 52.9424 63.9531 52.8791H63.9584Z" fill="white"/>
<path d="M58.9311 63.5833C58.9469 63.8735 59.1263 64.0265 59.4745 64.0318C59.7066 63.9896 59.8807 63.8366 59.8701 63.5411C59.8649 63.251 59.6908 63.061 59.4059 63.061C59.0841 63.061 58.91 63.2668 58.9258 63.5833H58.9311Z" fill="white"/>
</svg>
