<svg width="98" height="99" viewBox="0 0 98 99" fill="none" xmlns="http://www.w3.org/2000/svg">
<path d="M43.9425 26.3774V24.6974C47.9825 21.0774 50.3425 18.2974 50.3425 16.0174C50.3425 14.5374 49.5625 13.6174 48.1425 13.6174C47.0425 13.6174 46.1825 14.3174 45.4225 15.1574L43.8025 13.5574C45.1625 12.0974 46.5025 11.3174 48.5225 11.3174C51.3025 11.3174 53.1825 13.0974 53.1825 15.8574C53.1825 18.5574 50.9425 21.4374 48.2425 24.0774C48.9825 23.9974 49.9625 23.8974 50.6625 23.8974H53.8625V26.3774H43.9425Z" fill="white"/>
<path d="M71.8297 74.5109C71.8091 68.9115 71.7541 63.3121 71.7885 57.7127C71.7953 56.5172 71.7198 55.3218 71.7198 54.1263C71.7198 52.6148 70.8472 50.7392 68.7998 50.3613C68.1952 50.2514 67.5632 50.4781 67.0273 50.2308C66.1891 49.846 65.3234 49.8804 64.4577 49.8941C61.4553 49.956 58.4667 50.2926 55.4643 50.3132C51.9192 50.3407 48.3809 50.5537 44.8427 50.2033C43.2075 50.0453 41.5517 50.3957 39.9372 50.2308C36.4126 49.8666 33.0393 50.5949 29.6384 51.2545C28.3468 51.5087 27.0689 53.1232 27.1032 54.3942C27.1307 55.5622 27.1994 56.7302 27.22 57.905C27.275 61.0929 27.3643 64.2808 27.5841 67.4618C27.8109 70.7253 27.2956 74.0368 28.333 77.259C28.6353 78.1934 28.546 79.2995 28.7315 80.3232C28.9307 81.4706 29.2674 81.924 30.4216 82.2057C31.2873 82.4118 32.1667 82.2607 33.0324 82.3775C34.0217 82.3775 35.0111 82.3775 36.0073 82.3775C37.1546 82.3225 38.302 82.2607 39.4494 82.2057C39.7311 82.0546 40.0334 82.0889 40.3288 82.0821C41.7235 82.0477 43.1319 82.1164 44.506 81.924C45.7496 81.7523 47 81.5737 48.2435 81.505C51.7337 81.3126 55.1964 82.0271 58.6866 81.9447C60.7546 81.8966 62.8294 81.8347 64.8974 81.8141C66.3402 81.8004 67.7624 81.4019 69.2189 81.663C69.906 81.7866 71.2801 80.9897 71.3625 80.4194C71.4862 79.5606 71.8572 78.7568 71.8297 77.8636C71.7953 76.7506 71.8366 75.6307 71.8297 74.5109ZM69.6792 68.4443C69.7411 71.3092 69.6792 74.1811 69.6518 77.0529C69.6518 77.7331 69.5418 78.4133 69.4937 79.0866C69.4731 79.3889 69.2189 79.4988 69.0403 79.4095C68.2433 79.0247 67.4807 79.4095 66.7043 79.4507C62.3691 79.6705 58.0407 79.9316 53.7055 80.1377C52.5925 80.1927 51.4657 80.0416 50.3527 80.0622C46.8557 80.1171 43.3655 80.282 39.8685 80.1996C38.5906 80.1721 37.3058 80.3782 36.0279 80.3576C34.2622 80.3301 32.5171 79.9179 30.7445 80.0484C30.4629 80.069 30.3873 79.8698 30.3117 79.6499C30.1606 79.2102 30.0438 78.7705 30.0506 78.2965C30.0919 75.5895 29.7415 72.9032 29.6178 70.21C29.5628 68.987 29.5285 67.7572 29.4873 66.5274C29.3567 63.0647 29.1506 59.6089 28.8002 56.1599C28.7865 56.05 28.7865 55.9401 28.759 55.837C28.4636 54.3118 29.2674 53.1713 30.7858 52.9102C32.3728 52.6423 33.9393 52.1957 35.5332 52.0652C38.4394 51.8247 41.3594 51.4812 44.2793 51.6598C49.0886 51.9621 53.8841 51.7491 58.6934 51.6804C60.466 51.6529 62.2386 51.9072 64.0111 51.9965C65.289 52.0583 66.5532 52.2919 67.8517 52.2507C69.1571 52.2095 69.8235 53.0614 69.8235 54.6004C69.8235 56.0225 69.8235 57.4378 69.8235 59.4715C69.9541 62.0548 69.6243 65.2427 69.693 68.4443H69.6792Z" fill="white"/>
<path d="M41.2494 47.565C41.8471 47.5925 41.9776 47.1322 42.0051 46.6856C42.0876 45.3115 42.4517 43.9993 42.8364 42.687C43.0632 41.9107 43.4273 41.2168 44.0662 40.7015C44.5884 40.2824 45.1586 40.3854 45.5228 40.9351C45.9213 41.5259 46.1892 42.1855 46.4915 42.8244C47.0343 43.9855 47.0755 45.2566 47.3915 46.4658C47.6045 47.2902 48.1198 47.7643 48.7107 47.6612C49.3221 47.5582 49.645 46.981 49.6038 46.1154C49.5901 45.8062 49.4939 45.5314 49.3702 45.2497C49.2809 45.0573 49.2122 44.8443 49.1778 44.6314C48.9374 43.0718 48.4152 41.6152 47.4946 40.3373C46.9243 39.5472 46.1342 38.9907 45.0006 39.1075C44.08 39.0526 43.3036 39.4167 42.6715 40.1518C41.057 42.0275 40.4455 44.2397 40.4799 46.6581C40.4799 47.1116 40.6997 47.5375 41.2494 47.565Z" fill="white"/>
<path d="M52.3384 40.4953C52.888 40.6259 52.9705 40.8801 52.9086 41.3473C52.7643 42.5221 52.8743 43.6969 52.9498 44.8649C52.9842 45.4008 52.9361 45.5863 52.359 45.5863C51.8574 45.5863 51.4796 45.8749 51.3903 46.4176C51.3009 46.981 51.6445 47.2833 52.1048 47.4688C52.833 47.7505 53.6025 47.723 54.3652 47.7368C54.6125 47.7368 54.8598 47.7436 55.1003 47.7368C55.7805 47.7024 56.2683 47.3932 56.3576 46.6925C56.4469 45.9917 55.966 45.7306 55.3682 45.6344C55.0865 45.5932 54.9698 45.5176 54.956 45.181C54.9148 43.7382 54.8323 42.2954 54.5919 40.8732C54.5507 40.6121 54.5919 40.461 54.8736 40.3991C55.5881 40.2411 56.069 39.8289 55.8286 39.0731C55.595 38.3311 54.9079 38.3243 54.2484 38.4205C53.685 38.5029 53.1216 38.6403 52.5514 38.6747C51.9124 38.7159 51.1773 38.6266 51.088 39.4785C50.9986 40.3098 51.7956 40.3854 52.3315 40.5159L52.3384 40.4953Z" fill="white"/>
<path d="M43.3245 44.3772C43.2627 44.9543 43.8879 45.5314 44.5475 45.5383C45.2483 45.5521 45.9147 45.0643 45.9353 44.5284C45.9628 43.9306 45.3651 43.4772 44.3895 43.4497C43.9085 43.4634 43.4001 43.6558 43.3245 44.3772Z" fill="white"/>
<path d="M64.2108 75.2873C63.668 75.2736 63.1253 75.3835 62.5825 75.4179C60.6245 75.5278 58.6664 75.727 56.722 75.9675C54.0632 76.2973 51.3837 76.311 48.7111 76.366C46.9386 76.4003 45.1935 75.94 43.4072 76.0774C41.8613 76.1942 40.3017 76.1736 38.749 76.098C37.6635 76.0431 36.5711 76.1599 35.4856 76.256C35.0046 76.2973 34.5374 76.5171 34.5993 77.1217C34.6542 77.6782 35.0871 77.8775 35.6024 77.8912C36.2276 77.9049 36.8596 77.8912 37.4849 77.8912C37.4849 77.8981 37.4849 77.9118 37.4849 77.9187C38.6528 77.8637 39.8345 77.8775 40.9956 77.7263C42.569 77.5202 44.1629 77.3897 45.7156 77.479C48.0859 77.6164 50.4493 77.5271 52.8128 77.5339C55.2586 77.5408 57.7045 77.266 60.1573 77.1492C61.4626 77.0874 62.7749 77.0599 64.0803 77.0599C64.8017 77.0599 65.3788 76.7507 65.3513 76.2148C65.3169 75.5209 64.7948 75.3011 64.2108 75.2873Z" fill="white"/>
<path d="M37.4287 55.8782C39.3593 55.4935 41.3243 55.1431 43.2823 55.3698C45.4053 55.624 47.5351 55.6515 49.6306 55.5141C52.0009 55.3629 54.3643 55.5828 56.7346 55.308C58.3973 55.1156 60.108 55.3148 61.7913 55.2805C62.5333 55.2667 63.2478 55.569 63.9898 55.4179C64.5257 55.308 65.0616 55.1293 65.0066 54.4629C64.9516 53.7759 64.4089 53.6797 63.8455 53.7621C61.7844 54.0438 59.7233 53.7209 57.6553 53.8583C55.8758 53.9751 54.0689 54.0026 52.2757 54.0301C49.4932 54.0713 46.7107 54.0782 44.0518 54.0988C40.8296 53.982 37.7654 54.3255 34.7286 54.9164C34.3164 54.9988 33.966 55.1774 34.0004 55.6446C34.0416 56.1187 34.4676 56.1324 34.818 56.1256C35.6905 56.1256 36.563 56.0431 37.4218 55.8713L37.4287 55.8782Z" fill="white"/>
<path d="M67.0544 55.9057C67.0407 55.6103 66.8895 55.3561 66.5872 55.308C66.2437 55.2599 66.1132 55.5347 66.0513 55.8164C65.859 56.6409 65.6047 57.4584 65.5979 58.3035C65.536 62.1509 65.2406 65.9846 65.0551 69.8321C64.9933 71.1924 64.9246 72.5596 64.8627 73.92C64.8353 74.504 65.0414 74.9712 65.646 75.0948C66.2712 75.2254 66.6216 74.8612 66.7727 74.2841C66.862 73.9406 66.9857 73.5971 66.9994 73.2467C67.1025 69.9489 67.0132 66.6442 67.1162 63.3395C67.1781 61.3608 67.2399 59.3616 67.0613 57.376C67.0613 56.8813 67.075 56.3935 67.0613 55.8989L67.0544 55.9057Z" fill="white"/>
<path d="M32.9502 65.4281C32.9571 63.2983 32.4968 61.1891 32.5655 58.8119C32.5311 58.2348 32.4762 57.4172 32.4281 56.5996C32.4075 56.2767 32.3182 55.9675 31.9403 55.9675C31.5762 55.9675 31.4662 56.2904 31.3907 56.5859C31.3494 56.7439 31.3426 56.9088 31.3426 57.0737C31.3082 58.9012 31.3426 60.7287 31.4731 62.5494C31.6792 65.4625 31.2464 68.3893 31.7548 71.2886C32.009 72.7657 32.0571 74.2703 32.112 75.775C32.1464 76.5925 32.6342 77.0666 33.177 76.9636C33.919 76.8193 33.8777 76.2559 33.8434 75.6857C33.6235 72.2573 32.9365 68.8702 32.9502 65.4212V65.4281Z" fill="white"/>
<path d="M44.4857 70.5465C44.2658 70.9587 44.4651 71.2885 44.7742 71.5495C45.049 71.7763 45.3582 71.9274 45.7086 72.0373C46.8834 72.3946 48.0858 72.2778 49.2744 72.3465C50.8614 72.5251 52.3454 71.9824 53.8638 71.6732C54.6195 71.5221 54.915 71.0136 54.7226 70.4503C54.5234 69.8663 53.7814 69.6258 53.1355 69.9693C52.7989 70.148 52.476 70.306 52.0844 70.3816C49.8652 70.835 47.6667 70.9381 45.475 70.2098C45.0834 70.0793 44.7055 70.1411 44.4857 70.5465Z" fill="white"/>
<path d="M48.3388 64.1984C48.3182 63.8687 48.1052 63.6282 47.7548 63.6282C47.4182 63.6282 47.3289 63.903 47.2327 64.171C46.5113 66.2733 47.6999 67.7436 49.8572 67.4069C50.0976 67.3726 50.345 67.3245 50.5854 67.2833C51.2313 67.1733 51.6091 66.7474 51.7328 66.1496C51.8565 65.5382 51.9046 64.9061 51.9252 64.2809C51.9458 63.7725 51.6572 63.4358 51.1351 63.429C50.5786 63.429 50.3793 63.7793 50.4137 64.3015C50.4343 64.6313 50.448 64.9542 50.4686 65.3046C50.4068 65.7168 50.6473 66.2252 50.4961 66.555C50.3175 66.9466 49.6923 66.6581 49.2938 66.8298C49.2732 66.8367 49.2388 66.8298 49.2113 66.8298C48.4212 66.8023 48.2014 66.5756 48.4006 65.813C48.5449 65.2496 48.38 64.7275 48.3457 64.1916L48.3388 64.1984Z" fill="white"/>
<path d="M55.3681 59.5265C55.0658 59.6021 54.7979 59.7876 54.8803 60.1655C54.949 60.5021 55.217 60.6945 55.533 60.6808C56.7422 60.6395 57.9171 60.9212 59.1125 61.0243C59.6622 61.0655 60.1294 60.9006 60.2461 60.3235C60.3698 59.6983 59.9232 59.4441 59.408 59.3273C58.0476 59.0181 56.701 59.1967 55.3681 59.5196V59.5265Z" fill="white"/>
<path d="M38.5213 60.4058C38.3152 60.5157 38.0198 60.6531 38.0816 60.9348C38.1434 61.2371 38.4663 61.3196 38.7343 61.3264C39.3595 61.347 39.9847 61.3333 40.6099 61.3333C41.2626 61.3333 41.9222 61.3677 42.568 61.3196C42.9939 61.2852 43.3581 61.0585 43.3993 60.5638C43.4336 60.1928 43.255 59.8905 42.884 59.8356C41.3794 59.6157 39.8954 59.6569 38.5144 60.3989L38.5213 60.4058Z" fill="white"/>
</svg>
