<svg width="88" height="68" viewBox="0 0 61 80" fill="none" xmlns="http://www.w3.org/2000/svg">
<path d="M29.5625 15.6574C27.2225 15.6574 25.6425 14.7974 24.6025 13.5974L26.0025 11.7374C26.8825 12.5974 27.9425 13.2774 29.2825 13.2774C30.8025 13.2774 31.8225 12.5174 31.8225 11.1974C31.8225 9.73744 30.9625 8.83744 27.7425 8.83744V6.71744C30.4625 6.71744 31.3425 5.79744 31.3425 4.47744C31.3425 3.31744 30.6225 2.61744 29.3625 2.61744C28.3025 2.61744 27.4425 3.11744 26.5625 3.93744L25.0625 2.11744C26.3425 1.01744 27.7625 0.317441 29.4825 0.317441C32.3425 0.317441 34.2825 1.71744 34.2825 4.25744C34.2825 5.83744 33.4025 7.01744 31.8225 7.61744V7.71744C33.5025 8.19744 34.7825 9.41744 34.7825 11.3774C34.7825 14.0974 32.4025 15.6574 29.5625 15.6574Z" fill="white"/>
<path d="M52.7725 51.5782C51.7717 50.0867 50.0954 49.819 48.5911 49.3346C47.1123 48.8565 45.5507 48.6079 43.9636 48.6462C43.4855 48.6589 42.9373 48.6653 42.88 49.2262C42.8162 49.8445 43.3899 49.9465 43.8743 50.0421C43.9253 50.0485 43.9763 50.0548 44.0273 50.0548C45.965 50.2333 47.9027 50.3799 49.7575 51.0492C50.6308 51.3679 51.555 51.7057 51.7016 52.7574C51.8355 53.7135 51.2427 54.4147 50.4396 54.8354C48.2851 55.9763 46.0542 56.9133 43.6703 57.4678C42.6378 57.71 41.7135 57.6654 40.7638 57.0918C39.5718 56.3779 38.3098 56.3906 36.9904 56.9069C35.894 57.3404 34.9443 58.1307 33.5994 58.0033C31.4131 57.8057 29.1949 57.9331 27.015 57.6272C25.9187 57.4742 24.7586 57.6527 23.7388 57.079C22.7954 56.5436 21.8329 56.499 20.8067 56.7858C20.233 56.9452 19.5956 57.2065 19.0602 57.0854C17.7854 56.7922 16.517 56.4926 15.2231 56.2823C13.0431 55.9317 10.9078 55.4536 9.01475 54.2107C8.58131 53.9239 8.49845 53.586 8.70242 53.1781C9.05937 52.4515 9.57566 51.8842 10.417 51.693C11.4305 51.4635 12.444 51.2404 13.4447 50.9727C13.8654 50.858 14.5028 50.7496 14.4136 50.1951C14.3179 49.5959 13.6997 49.6979 13.2152 49.7425C13.1897 49.7425 13.1642 49.7489 13.1387 49.7553C11.3285 49.8509 9.8115 50.7432 8.33273 51.6611C7.59971 52.1136 7.24914 52.955 7.32563 53.841C7.37025 54.3509 7.25552 54.7844 7.10254 55.2433C7.10891 55.8552 7.11529 56.4607 7.12166 57.0726C7.14716 57.1173 7.17903 57.1619 7.1854 57.2065C7.38937 58.6534 7.92479 59.8453 9.4928 60.2724C9.6904 60.3234 9.76688 60.4764 9.80513 60.6612C10.0091 61.6301 10.2449 62.5862 10.417 63.5614C10.8122 65.8369 11.4369 68.0551 12.0998 70.2669C12.2528 70.7704 12.5396 71.2804 13.1834 71.0636C13.7634 70.8724 13.8399 70.3497 13.6742 69.8016C13.3427 68.6861 13.0049 67.5643 12.6734 66.4488C12.1125 64.5685 11.558 62.6882 10.9461 60.6357C12.6543 61.3177 14.2478 61.7958 15.9178 61.9424C16.3576 61.9806 16.5616 62.1719 16.6955 62.6053C17.2564 64.441 18.2826 65.7796 20.2713 66.366C22.3811 66.9843 24.4973 66.2831 25.4789 64.3135C25.7338 63.8036 26.0717 63.6698 26.6198 63.6698C29.0483 63.6506 31.4705 64.014 33.899 63.8929C34.1157 63.8801 34.3069 63.8929 34.4153 64.1223C35.008 65.4035 36.1044 66.0218 37.4047 66.3532C38.6285 66.6656 39.7949 66.7484 40.9869 66.0409C41.9812 65.4481 42.4848 64.5558 42.9437 63.606C43.1477 63.179 43.4345 62.975 43.8488 62.9431C45.1682 62.8411 46.4367 62.4842 47.7242 62.2165C48.3935 62.0763 48.4254 62.2611 48.3298 62.8539C47.9091 65.378 47.5394 67.9085 47.1633 70.439C47.1059 70.8214 47.2143 71.1529 47.6031 71.3122C48.0174 71.478 48.3425 71.3122 48.6166 70.9999C48.7951 70.8023 48.8397 70.5473 48.8716 70.2924C49.1839 67.73 49.4325 65.1549 49.7384 62.5926C49.8659 61.5153 50.6435 61.3432 51.2236 60.9481C51.7526 60.5847 52.1669 60.2278 52.4346 59.6605C52.9382 58.596 52.9509 57.4615 52.9828 56.3205C53.0019 55.6704 52.8808 55.0075 53.1485 54.3701C53.5756 53.3757 53.3716 52.4642 52.7788 51.5782H52.7725ZM16.5998 60.2852C16.5552 60.6421 16.3194 60.5784 16.0963 60.5401C13.8845 60.1895 11.7938 59.4183 9.67765 58.7426C8.98925 58.5195 8.57494 58.067 8.53032 57.3085C8.49208 56.6838 8.40284 56.0592 8.3136 55.2114C11.1755 57.2575 14.5155 57.2766 17.7089 58.0797C17.2054 58.8128 16.7082 59.4565 16.5998 60.2788V60.2852ZM21.6417 64.9828C19.551 65.0657 17.9894 63.6953 17.9384 61.7193C17.8746 59.3673 18.8754 58.2518 21.1382 58.1626C23.2097 58.1499 24.7586 59.3864 24.8287 61.2668C24.8988 63.128 23.6495 64.9063 21.6417 64.9828ZM33.644 61.6237C33.6759 62.1464 33.4655 62.2547 32.9938 62.2484C31.5023 62.2229 30.0172 62.2484 28.5384 61.9998C28.0285 61.9169 27.4867 62.0444 26.964 62.0444C26.7282 62.0444 26.435 62.038 26.435 61.6556C26.4477 60.6612 26.2756 59.6987 25.6191 58.6916C28.4874 59.1378 31.2027 59.0677 33.9882 59.2079C33.6058 60.0621 33.593 60.8461 33.6376 61.6237H33.644ZM41.9047 61.5408C41.7709 63.4913 40.4897 65.0019 38.5265 64.9828C36.4358 64.9573 34.8614 63.6379 35.008 60.9417C35.0973 59.2717 36.4422 58.0925 38.3799 58.1244C40.5789 58.016 42.0195 59.9665 41.9047 61.5472V61.5408ZM51.1853 58.4941C51.179 58.6598 51.1025 58.8765 50.9814 58.9657C50.344 59.4502 49.7448 60.1067 49.0182 60.3298C47.431 60.8142 45.8248 61.2795 44.1675 61.5281C43.7341 61.5918 43.4855 61.5855 43.4791 61.0054C43.4791 60.4573 43.3899 59.8836 43.0839 59.3992C42.7716 58.902 42.982 58.8255 43.4473 58.7873C45.4423 58.6215 47.4183 58.3602 49.2922 57.5953C49.9296 57.334 50.5543 57.079 51.1917 56.5946C51.1917 57.3021 51.2045 57.9013 51.1853 58.4941Z" fill="white"/>
<path d="M19.3282 53.2289C19.3154 52.8018 19.188 52.3811 19.1306 51.954C19.0796 51.5844 18.9266 51.323 18.5251 51.2911C16.7595 51.1573 15.064 51.5142 13.5469 52.3556C12.9478 52.6871 12.5653 52.9229 11.9471 52.5341C11.6539 52.3492 11.2969 52.4193 11.0675 52.7444C10.8571 53.044 10.9655 53.3308 11.1631 53.5858C11.6284 54.1786 12.3104 54.2742 12.9988 54.3571C14.4521 54.5355 15.9053 54.7395 17.365 54.8861C18.2 54.9753 18.9904 55.3896 19.8381 55.2685C20.9217 55.1092 21.9543 55.3896 23.006 55.4853C25.0011 55.6637 26.9579 56.1227 28.9657 56.2374C30.5146 56.3266 32.0635 56.1992 33.606 56.2565C36.0791 56.3458 38.514 56.0016 40.9617 55.804C43.0842 55.6382 45.1175 54.9307 47.2146 54.5929C47.6608 54.5228 48.1069 54.3826 48.5213 54.2041C49.216 53.8981 49.3563 53.0121 48.7443 52.6934C47.954 52.2855 47.2401 51.7437 46.2776 51.6481C45.0283 51.527 43.7981 51.2402 42.5615 51.0362C41.4397 50.845 41.07 51.1637 41.0636 52.3174C41.0636 52.5723 41.0636 52.8273 41.0636 53.0823H41.0828C41.0828 53.3372 41.0636 53.5922 41.0828 53.8408C41.1401 54.4272 40.9617 54.6758 40.3115 54.8606C38.4503 55.3896 36.5444 55.3833 34.6577 55.5044C29.9218 55.8231 25.256 55.0646 20.5775 54.4654C19.7935 54.3634 19.3409 54.0638 19.3154 53.2225L19.3282 53.2289ZM17.9769 53.7515C17.6773 54.0575 17.2184 53.675 16.8168 53.6942C15.8862 53.7388 15.0193 53.4711 14.1015 52.9611C15.3381 52.6106 16.479 52.4066 17.6263 52.209C17.8558 52.1708 18.047 52.1899 17.9769 52.5086C17.9769 52.5341 17.9769 52.5596 17.9705 52.5851C17.8685 52.9866 18.2637 53.4647 17.9833 53.7515H17.9769ZM46.5644 53.1396C45.551 53.9555 44.3526 54.032 43.2244 54.3061C42.8547 54.3953 42.6826 54.2869 42.6571 53.8599C42.6253 53.2607 42.5042 52.6616 42.4086 51.9795C43.8427 52.26 45.245 52.4576 46.5644 53.1396Z" fill="white"/>
<path d="M33.8358 43.1388C34.0652 43.1069 34.282 43.1261 34.5114 43.1579C35.8053 43.3555 36.8571 44.0694 37.9152 44.7514C38.406 45.0638 38.8776 45.2295 39.3493 44.7514C39.4895 44.6112 39.6425 44.5793 39.8274 44.573C40.248 44.5602 40.4584 44.2925 40.5667 43.9228C41.1404 41.9787 41.7077 40.0346 42.275 38.0906C42.4088 37.6316 42.3069 37.1982 41.9308 36.9241C41.2042 36.3823 40.5476 35.7003 39.6871 35.3944C38.4952 34.9673 37.2395 34.757 35.9838 34.655C35.3082 34.5785 34.913 34.8334 34.6453 35.4963C33.8358 37.5169 33.0263 39.5375 32.5036 41.6537C32.2231 42.801 32.6757 43.2982 33.823 43.1324L33.8358 43.1388ZM33.9696 41.1374C34.3457 39.563 34.7026 37.995 35.3783 36.5098C35.6333 35.9489 35.9073 35.7386 36.5192 35.8788C37.5263 36.1146 38.5526 36.2803 39.5087 36.701C39.7955 36.8285 40.0887 36.8413 40.3946 36.8476C40.7643 36.8604 41.0639 37.0389 41.2679 37.3894C41.2105 37.4723 41.1595 37.5552 41.1022 37.6316C40.2927 38.7535 40.1078 40.1048 39.719 41.3796C39.6999 41.4497 39.6999 41.5325 39.6808 41.6027C39.2728 43.2982 39.19 43.3236 37.6538 42.546C36.6149 42.0233 35.5121 41.6345 34.3329 41.5389C34.0461 41.5134 33.8613 41.5389 33.9633 41.1246L33.9696 41.1374Z" fill="white"/>
<path d="M21.8584 34.9291C22.2153 35.7832 22.687 36.6246 22.738 37.5679C22.7954 38.5814 23.0121 38.7408 23.8981 38.301C25.3386 37.5871 26.8365 37.0899 28.4874 37.4022C30.1701 37.4086 30.7502 36.2358 30.2976 34.7952C30.2211 34.553 30.1574 34.3108 30.1 34.0622C29.6475 32.099 29.3351 30.0912 28.3535 28.281C27.952 27.5416 27.2636 27.2038 26.4604 27.4651C26.0206 27.6117 25.5936 27.7392 25.1219 27.6946C23.7515 28.0069 22.4703 28.5232 21.3166 29.3263C21.119 29.4602 20.813 29.6323 21.0234 29.9191C21.1827 30.1358 21.4568 29.9637 21.6417 29.8426C22.3874 29.3518 23.2288 29.2052 24.0893 29.1223C24.8414 29.0459 25.6063 29.0012 26.3521 28.8801C27.3974 28.708 27.3783 28.6889 27.6779 29.7151C28.2005 31.5126 28.2515 33.4121 28.8252 35.1968C28.8953 35.4135 28.9463 35.6876 28.6021 35.7195C27.0405 35.8597 25.5999 36.3951 24.1658 36.9879C23.8535 37.1154 23.777 37.0006 23.7387 36.7011C23.4901 34.7124 22.5914 32.9404 21.8456 31.1174C21.7628 30.9135 21.6289 30.7159 21.4887 30.5438C21.3548 30.378 21.2401 30.0848 20.9788 30.1741C20.7302 30.2569 20.7557 30.5629 20.7812 30.7796C20.9405 32.2138 21.2847 33.5969 21.8456 34.9418L21.8584 34.9291Z" fill="white"/>
<path d="M17.906 43.5852C18.639 43.649 18.7473 44.2481 18.9513 44.7326C19.5186 46.0902 19.8054 47.5371 20.1496 48.9649C20.2898 49.5449 20.5894 49.7935 21.1503 49.7553C21.4244 49.7362 21.7176 49.7425 21.9726 49.6406C22.9351 49.2709 23.974 49.0988 24.8409 48.4932C25.0895 48.3211 25.3827 48.251 25.695 48.4231C26.0456 48.6143 26.3898 48.5442 26.6639 48.2574C26.9443 47.9642 26.9188 47.6264 26.7913 47.2694C26.632 46.8169 26.326 46.4408 26.1731 45.9755C25.6695 44.4139 25.0576 42.9032 24.229 41.4754C23.8593 40.8316 23.2729 40.7297 22.6419 40.5703C22.3869 40.6277 22.1064 40.6659 21.8451 40.7488C20.6213 41.1631 19.4421 41.6666 18.3139 42.304C18.0398 42.457 17.8295 42.6865 17.6829 42.9478C17.5299 43.2219 17.5299 43.5661 17.906 43.598V43.5852ZM19.4803 43.0817C20.5448 42.6865 21.5774 42.1893 22.6865 41.9152C22.9478 41.8515 23.1645 41.7814 23.2665 42.1574C23.6617 43.649 24.076 45.1277 24.484 46.6129C24.4967 46.6639 24.5031 46.7149 24.5286 46.8296C24.3501 47.2439 23.8912 47.416 23.5087 47.5626C23.0179 47.7538 22.5207 47.9451 22.0172 48.1235C21.0356 48.4805 21.0101 48.4677 20.7806 47.4606C20.5384 46.4089 20.1241 45.4401 19.4485 44.586C19.372 44.484 19.2955 44.382 19.2063 44.2927C18.4541 43.4641 18.4541 43.4577 19.4803 43.0753V43.0817Z" fill="white"/>
<path d="M29.8267 52.4705C29.8458 53.1398 30.3494 53.484 30.9039 53.1398C32.2871 52.2793 33.7467 52.4577 35.2255 52.7191C35.8119 52.8211 36.1688 52.5534 36.3282 52.0371C36.4493 51.6546 36.4748 51.2594 36.4366 50.8387C36.3027 49.3281 36.0987 47.8302 35.8247 46.3387C35.7418 45.8925 35.5251 45.7204 35.1108 45.5865C33.377 45.0129 31.758 45.7204 30.1135 46.0009C29.5016 46.1028 29.3805 46.6829 29.7693 47.2183C29.8904 47.384 29.9159 47.5051 29.8777 47.6963C29.7056 48.5696 29.6801 49.4556 29.8139 50.3416C29.8139 51.0491 29.7948 51.7566 29.8139 52.4705H29.8267ZM30.8274 47.0079C31.7516 46.8677 32.6759 46.7147 33.6065 46.6319C34.1865 46.5809 34.5945 46.7912 34.416 47.5179C34.3586 47.7601 34.4096 48.0214 34.4096 48.2764C34.4287 48.2764 34.4479 48.2764 34.4606 48.2764C34.4606 48.9329 34.4606 49.5831 34.4606 50.2396C34.4606 50.6603 34.3268 50.8834 33.8296 50.8387C32.9946 50.7686 32.1532 50.775 31.3501 51.0682C30.974 51.2084 30.9039 50.9981 30.8657 50.7176C30.7254 49.6404 30.5852 48.5632 30.445 47.486C30.4067 47.1992 30.5725 47.0462 30.821 47.0079H30.8274Z" fill="white"/>
<path d="M38.3102 59.9407C37.4816 59.9407 36.8506 60.5143 36.8506 61.2537C36.8506 62.1142 37.641 63.013 38.4122 63.0257C39.1644 63.0385 39.8018 62.3054 39.789 61.4386C39.7763 60.6036 39.1197 59.9407 38.3166 59.9407H38.3102Z" fill="white"/>
<path d="M21.2274 59.9407C20.4051 59.9471 19.7677 60.5271 19.7805 61.2665C19.7868 62.1334 20.5836 63.0194 21.3548 63.0258C22.107 63.0258 22.738 62.2927 22.7189 61.4259C22.6998 60.5909 22.0432 59.9343 21.2337 59.9407H21.2274Z" fill="white"/>
</svg>
