<svg width="61" height="80" viewBox="0 0 61 80" fill="none" xmlns="http://www.w3.org/2000/svg">
<path d="M29.5625 16.0833C27.2225 16.0833 25.6425 15.2233 24.6025 14.0233L26.0025 12.1633C26.8825 13.0233 27.9425 13.7033 29.2825 13.7033C30.8025 13.7033 31.8225 12.9433 31.8225 11.6233C31.8225 10.1633 30.9625 9.26334 27.7425 9.26334V7.14334C30.4625 7.14334 31.3425 6.22334 31.3425 4.90334C31.3425 3.74334 30.6225 3.04334 29.3625 3.04334C28.3025 3.04334 27.4425 3.54334 26.5625 4.36334L25.0625 2.54334C26.3425 1.44334 27.7625 0.743344 29.4825 0.743344C32.3425 0.743344 34.2825 2.14334 34.2825 4.68334C34.2825 6.26334 33.4025 7.44334 31.8225 8.04334V8.14334C33.5025 8.62334 34.7825 9.84334 34.7825 11.8033C34.7825 14.5233 32.4025 16.0833 29.5625 16.0833Z" fill="white"/>
<path d="M52.7725 52.004C51.7717 50.5125 50.0954 50.2448 48.5911 49.7604C47.1123 49.2823 45.5507 49.0337 43.9636 49.072C43.4855 49.0847 42.9373 49.0911 42.88 49.652C42.8162 50.2703 43.3899 50.3723 43.8743 50.4679C43.9253 50.4742 43.9763 50.4806 44.0273 50.4806C45.965 50.6591 47.9027 50.8057 49.7575 51.475C50.6308 51.7937 51.555 52.1315 51.7016 53.1832C51.8355 54.1393 51.2427 54.8405 50.4396 55.2611C48.2851 56.4021 46.0542 57.3391 43.6703 57.8936C42.6378 58.1358 41.7135 58.0912 40.7638 57.5175C39.5718 56.8037 38.3098 56.8164 36.9904 57.3327C35.894 57.7661 34.9443 58.5565 33.5994 58.429C31.4131 58.2314 29.1949 58.3589 27.015 58.053C25.9187 57.9 24.7586 58.0785 23.7388 57.5048C22.7954 56.9694 21.8329 56.9248 20.8067 57.2116C20.233 57.3709 19.5956 57.6323 19.0602 57.5112C17.7854 57.218 16.517 56.9184 15.2231 56.708C13.0431 56.3575 10.9078 55.8794 9.01475 54.6365C8.58131 54.3497 8.49845 54.0118 8.70242 53.6039C9.05937 52.8773 9.57566 52.31 10.417 52.1187C11.4305 51.8893 12.444 51.6662 13.4447 51.3985C13.8654 51.2837 14.5028 51.1754 14.4136 50.6208C14.3179 50.0217 13.6997 50.1237 13.2152 50.1683C13.1897 50.1683 13.1642 50.1747 13.1387 50.181C11.3285 50.2766 9.8115 51.169 8.33273 52.0869C7.59971 52.5394 7.24914 53.3808 7.32563 54.2668C7.37025 54.7767 7.25552 55.2101 7.10254 55.6691C7.10891 56.281 7.11529 56.8865 7.12166 57.4984C7.14716 57.543 7.17903 57.5877 7.1854 57.6323C7.38937 59.0792 7.92479 60.2711 9.4928 60.6982C9.6904 60.7492 9.76688 60.9022 9.80513 61.087C10.0091 62.0559 10.2449 63.012 10.417 63.9872C10.8122 66.2627 11.4369 68.4809 12.0998 70.6927C12.2528 71.1962 12.5396 71.7061 13.1834 71.4894C13.7634 71.2982 13.8399 70.7755 13.6742 70.2274C13.3427 69.1119 13.0049 67.9901 12.6734 66.8746C12.1125 64.9943 11.558 63.1139 10.9461 61.0615C12.6543 61.7435 14.2478 62.2216 15.9178 62.3682C16.3576 62.4064 16.5616 62.5976 16.6955 63.0311C17.2564 64.8668 18.2826 66.2053 20.2713 66.7918C22.3811 67.41 24.4973 66.7089 25.4789 64.7393C25.7338 64.2294 26.0717 64.0955 26.6198 64.0955C29.0483 64.0764 31.4705 64.4397 33.899 64.3186C34.1157 64.3059 34.3069 64.3186 34.4153 64.5481C35.008 65.8293 36.1044 66.4476 37.4047 66.779C38.6285 67.0913 39.7949 67.1742 40.9869 66.4667C41.9812 65.8739 42.4848 64.9815 42.9437 64.0318C43.1477 63.6047 43.4345 63.4008 43.8488 63.3689C45.1682 63.2669 46.4367 62.91 47.7242 62.6423C48.3935 62.502 48.4254 62.6869 48.3298 63.2797C47.9091 65.8038 47.5394 68.3343 47.1633 70.8648C47.1059 71.2472 47.2143 71.5787 47.6031 71.738C48.0174 71.9037 48.3425 71.738 48.6166 71.4257C48.7951 71.2281 48.8397 70.9731 48.8716 70.7182C49.1839 68.1558 49.4325 65.5807 49.7384 63.0183C49.8659 61.9411 50.6435 61.769 51.2236 61.3738C51.7526 61.0105 52.1669 60.6536 52.4346 60.0863C52.9382 59.0218 52.9509 57.8872 52.9828 56.7463C53.0019 56.0961 52.8808 55.4332 53.1485 54.7958C53.5756 53.8015 53.3716 52.89 52.7788 52.004H52.7725ZM16.5998 60.7109C16.5552 61.0679 16.3194 61.0041 16.0963 60.9659C13.8845 60.6153 11.7938 59.8441 9.67765 59.1684C8.98925 58.9453 8.57494 58.4928 8.53032 57.7343C8.49208 57.1096 8.40284 56.485 8.3136 55.6372C11.1755 57.6833 14.5155 57.7024 17.7089 58.5055C17.2054 59.2385 16.7082 59.8823 16.5998 60.7046V60.7109ZM21.6417 65.4086C19.551 65.4915 17.9894 64.121 17.9384 62.1451C17.8746 59.7931 18.8754 58.6776 21.1382 58.5884C23.2097 58.5756 24.7586 59.8122 24.8287 61.6925C24.8988 63.5538 23.6495 65.3321 21.6417 65.4086ZM33.644 62.0495C33.6759 62.5722 33.4655 62.6805 32.9938 62.6741C31.5023 62.6486 30.0172 62.6741 28.5384 62.4256C28.0285 62.3427 27.4867 62.4702 26.964 62.4702C26.7282 62.4702 26.435 62.4638 26.435 62.0814C26.4477 61.087 26.2756 60.1245 25.6191 59.1174C28.4874 59.5636 31.2027 59.4935 33.9882 59.6337C33.6058 60.4878 33.593 61.2719 33.6376 62.0495H33.644ZM41.9047 61.9666C41.7709 63.9171 40.4897 65.4277 38.5265 65.4086C36.4358 65.3831 34.8614 64.0637 35.008 61.3675C35.0973 59.6975 36.4422 58.5183 38.3799 58.5501C40.5789 58.4418 42.0195 60.3922 41.9047 61.973V61.9666ZM51.1853 58.9198C51.179 59.0856 51.1025 59.3023 50.9814 59.3915C50.344 59.8759 49.7448 60.5325 49.0182 60.7556C47.431 61.24 45.8248 61.7053 44.1675 61.9539C43.7341 62.0176 43.4855 62.0112 43.4791 61.4312C43.4791 60.883 43.3899 60.3094 43.0839 59.8249C42.7716 59.3278 42.982 59.2513 43.4473 59.213C45.4423 59.0473 47.4183 58.786 49.2922 58.0211C49.9296 57.7598 50.5543 57.5048 51.1917 57.0204C51.1917 57.7279 51.2045 58.327 51.1853 58.9198Z" fill="white"/>
<path d="M19.3282 53.6546C19.3154 53.2276 19.188 52.8069 19.1306 52.3798C19.0796 52.0101 18.9266 51.7488 18.5251 51.7169C16.7595 51.5831 15.064 51.94 13.5469 52.7814C12.9478 53.1128 12.5653 53.3487 11.9471 52.9599C11.6539 52.775 11.2969 52.8451 11.0675 53.1702C10.8571 53.4698 10.9655 53.7566 11.1631 54.0116C11.6284 54.6044 12.3104 54.7 12.9988 54.7828C14.4521 54.9613 15.9053 55.1653 17.365 55.3119C18.2 55.4011 18.9904 55.8154 19.8381 55.6943C20.9217 55.535 21.9543 55.8154 23.006 55.911C25.0011 56.0895 26.9579 56.5484 28.9657 56.6632C30.5146 56.7524 32.0635 56.6249 33.606 56.6823C36.0791 56.7715 38.514 56.4273 40.9617 56.2297C43.0842 56.064 45.1175 55.3565 47.2146 55.0187C47.6608 54.9486 48.1069 54.8083 48.5213 54.6299C49.216 54.3239 49.3563 53.4379 48.7443 53.1192C47.954 52.7113 47.2401 52.1695 46.2776 52.0739C45.0283 51.9528 43.7981 51.6659 42.5615 51.462C41.4397 51.2707 41.07 51.5894 41.0636 52.7431C41.0636 52.9981 41.0636 53.2531 41.0636 53.508H41.0828C41.0828 53.763 41.0636 54.018 41.0828 54.2665C41.1401 54.853 40.9617 55.1015 40.3115 55.2864C38.4503 55.8154 36.5444 55.8091 34.6577 55.9302C29.9218 56.2489 25.256 55.4904 20.5775 54.8912C19.7935 54.7892 19.3409 54.4896 19.3154 53.6483L19.3282 53.6546ZM17.9769 54.1773C17.6773 54.4833 17.2184 54.1008 16.8168 54.1199C15.8862 54.1646 15.0193 53.8968 14.1015 53.3869C15.3381 53.0364 16.479 52.8324 17.6263 52.6348C17.8558 52.5965 18.047 52.6157 17.9769 52.9344C17.9769 52.9599 17.9769 52.9854 17.9705 53.0109C17.8685 53.4124 18.2637 53.8905 17.9833 54.1773H17.9769ZM46.5644 53.5654C45.551 54.3813 44.3526 54.4578 43.2244 54.7318C42.8547 54.8211 42.6826 54.7127 42.6571 54.2857C42.6253 53.6865 42.5042 53.0873 42.4086 52.4053C43.8427 52.6858 45.245 52.8834 46.5644 53.5654Z" fill="white"/>
<path d="M33.8358 43.5647C34.0652 43.5328 34.282 43.552 34.5114 43.5838C35.8053 43.7814 36.8571 44.4953 37.9152 45.1773C38.406 45.4897 38.8776 45.6554 39.3493 45.1773C39.4895 45.0371 39.6425 45.0052 39.8274 44.9989C40.248 44.9861 40.4584 44.7184 40.5667 44.3487C41.1404 42.4046 41.7077 40.4606 42.275 38.5165C42.4088 38.0575 42.3069 37.6241 41.9308 37.35C41.2042 36.8082 40.5476 36.1262 39.6871 35.8203C38.4952 35.3932 37.2395 35.1829 35.9838 35.0809C35.3082 35.0044 34.913 35.2593 34.6453 35.9222C33.8358 37.9428 33.0263 39.9634 32.5036 42.0796C32.2231 43.2269 32.6757 43.7241 33.823 43.5583L33.8358 43.5647ZM33.9696 41.5633C34.3457 39.9889 34.7026 38.4209 35.3783 36.9357C35.6333 36.3748 35.9073 36.1645 36.5192 36.3047C37.5263 36.5405 38.5526 36.7062 39.5087 37.1269C39.7955 37.2544 40.0887 37.2672 40.3946 37.2735C40.7643 37.2863 41.0639 37.4648 41.2679 37.8153C41.2105 37.8982 41.1595 37.9811 41.1022 38.0575C40.2927 39.1794 40.1078 40.5307 39.719 41.8055C39.6999 41.8756 39.6999 41.9584 39.6808 42.0286C39.2728 43.7241 39.19 43.7496 37.6538 42.9719C36.6149 42.4493 35.5121 42.0604 34.3329 41.9648C34.0461 41.9393 33.8613 41.9648 33.9633 41.5505L33.9696 41.5633Z" fill="white"/>
<path d="M21.8584 35.355C22.2153 36.2091 22.687 37.0505 22.738 37.9938C22.7954 39.0073 23.0121 39.1667 23.8981 38.7269C25.3386 38.013 26.8365 37.5158 28.4874 37.8281C30.1701 37.8345 30.7502 36.6617 30.2976 35.2211C30.2211 34.9789 30.1574 34.7367 30.1 34.4881C29.6475 32.5249 29.3351 30.5171 28.3535 28.7069C27.952 27.9675 27.2636 27.6297 26.4604 27.891C26.0206 28.0376 25.5936 28.1651 25.1219 28.1205C23.7515 28.4328 22.4703 28.9491 21.3166 29.7522C21.119 29.8861 20.813 30.0582 21.0234 30.345C21.1827 30.5617 21.4568 30.3896 21.6417 30.2685C22.3874 29.7777 23.2288 29.6311 24.0893 29.5483C24.8414 29.4718 25.6063 29.4271 26.3521 29.306C27.3974 29.1339 27.3783 29.1148 27.6779 30.141C28.2005 31.9385 28.2515 33.838 28.8252 35.6227C28.8953 35.8394 28.9463 36.1135 28.6021 36.1454C27.0405 36.2856 25.5999 36.821 24.1658 37.4138C23.8535 37.5413 23.777 37.4266 23.7387 37.127C23.4901 35.1383 22.5914 33.3663 21.8456 31.5433C21.7628 31.3394 21.6289 31.1418 21.4887 30.9697C21.3548 30.8039 21.2401 30.5107 20.9788 30.6C20.7302 30.6828 20.7557 30.9888 20.7812 31.2055C20.9405 32.6397 21.2847 34.0228 21.8456 35.3677L21.8584 35.355Z" fill="white"/>
<path d="M17.906 44.011C18.639 44.0747 18.7473 44.6739 18.9513 45.1583C19.5186 46.516 19.8054 47.9629 20.1496 49.3907C20.2898 49.9707 20.5894 50.2193 21.1503 50.1811C21.4244 50.1619 21.7176 50.1683 21.9726 50.0663C22.9351 49.6966 23.974 49.5245 24.8409 48.919C25.0895 48.7469 25.3827 48.6768 25.695 48.8489C26.0456 49.0401 26.3898 48.97 26.6639 48.6832C26.9443 48.39 26.9188 48.0521 26.7913 47.6952C26.632 47.2426 26.326 46.8666 26.1731 46.4013C25.6695 44.8396 25.0576 43.329 24.229 41.9012C23.8593 41.2574 23.2729 41.1554 22.6419 40.9961C22.3869 41.0535 22.1064 41.0917 21.8451 41.1746C20.6213 41.5889 19.4421 42.0924 18.3139 42.7298C18.0398 42.8828 17.8295 43.1123 17.6829 43.3736C17.5299 43.6477 17.5299 43.9919 17.906 44.0238V44.011ZM19.4803 43.5075C20.5448 43.1123 21.5774 42.6151 22.6865 42.341C22.9478 42.2773 23.1645 42.2072 23.2665 42.5832C23.6617 44.0748 24.076 45.5535 24.484 47.0387C24.4967 47.0897 24.5031 47.1407 24.5286 47.2554C24.3501 47.6697 23.8912 47.8418 23.5087 47.9884C23.0179 48.1796 22.5207 48.3708 22.0172 48.5493C21.0356 48.9063 21.0101 48.8935 20.7806 47.8864C20.5384 46.8347 20.1241 45.8659 19.4485 45.0117C19.372 44.9097 19.2955 44.8078 19.2063 44.7185C18.4541 43.8899 18.4541 43.8835 19.4803 43.5011V43.5075Z" fill="white"/>
<path d="M29.8267 52.8964C29.8458 53.5657 30.3494 53.9099 30.9039 53.5657C32.2871 52.7052 33.7467 52.8836 35.2255 53.145C35.8119 53.247 36.1688 52.9793 36.3282 52.463C36.4493 52.0805 36.4748 51.6853 36.4366 51.2646C36.3027 49.754 36.0987 48.2561 35.8247 46.7646C35.7418 46.3184 35.5251 46.1463 35.1108 46.0124C33.377 45.4388 31.758 46.1463 30.1135 46.4268C29.5016 46.5287 29.3805 47.1088 29.7693 47.6442C29.8904 47.8099 29.9159 47.931 29.8777 48.1222C29.7056 48.9955 29.6801 49.8815 29.8139 50.7675C29.8139 51.475 29.7948 52.1825 29.8139 52.8964H29.8267ZM30.8274 47.4339C31.7516 47.2936 32.6759 47.1406 33.6065 47.0578C34.1865 47.0068 34.5945 47.2171 34.416 47.9438C34.3586 48.186 34.4096 48.4473 34.4096 48.7023C34.4287 48.7023 34.4479 48.7023 34.4606 48.7023C34.4606 49.3588 34.4606 50.009 34.4606 50.6655C34.4606 51.0862 34.3268 51.3093 33.8296 51.2646C32.9946 51.1945 32.1532 51.2009 31.3501 51.4941C30.974 51.6343 30.9039 51.424 30.8657 51.1435C30.7254 50.0663 30.5852 48.9891 30.445 47.9119C30.4067 47.6251 30.5725 47.4721 30.821 47.4339H30.8274Z" fill="white"/>
<path d="M38.3102 60.3665C37.4816 60.3665 36.8506 60.9401 36.8506 61.6795C36.8506 62.54 37.641 63.4387 38.4122 63.4515C39.1644 63.4642 39.8018 62.7312 39.789 61.8644C39.7763 61.0294 39.1197 60.3665 38.3166 60.3665H38.3102Z" fill="white"/>
<path d="M21.2274 60.3665C20.4051 60.3729 19.7677 60.9529 19.7805 61.6923C19.7868 62.5592 20.5836 63.4452 21.3548 63.4515C22.107 63.4515 22.738 62.7185 22.7189 61.8516C22.6998 61.0167 22.0432 60.3601 21.2337 60.3665H21.2274Z" fill="white"/>
</svg>
