<svg width="61" height="80" viewBox="0 0 61 80" fill="none" xmlns="http://www.w3.org/2000/svg">
<path d="M30.8225 15.8033V6.70334C30.8225 5.84334 30.9025 4.50334 30.9425 3.62334H30.8625C30.4825 4.42334 30.0825 5.24334 29.6625 6.04334L27.3825 9.72334H35.3225V11.9833H24.5225V9.96334L30.0225 1.00334H33.5625V15.8033H30.8225Z" fill="white"/>
<path d="M39.9603 28.0024C37.8626 27.9823 35.7849 28.2362 33.7006 28.4834C29.7991 28.951 25.9177 29.5924 22.0028 29.8395C19.1101 30.0199 16.5448 31.0487 13.9126 32.0308C13.0776 32.3448 12.5765 32.9327 12.2692 33.7544C11.5143 35.7719 11.5343 37.8362 11.7481 39.9406C12.002 42.4725 12.6233 44.9377 12.8838 47.4696C13.2312 50.7966 13.8659 54.0767 14.4738 57.3703C15.2955 61.7995 16.7586 66.035 17.9945 70.344C18.1682 70.9386 18.235 71.4997 18.9164 71.9006C19.5377 72.268 20.0187 72.2813 20.6734 72.1477C23.3456 71.5999 26.0045 71.0254 28.7369 70.7715C31.85 70.4843 34.9632 70.1369 38.0697 69.7561C40.3277 69.4822 42.559 69.0279 44.8037 68.6337C46.1331 68.3999 47.4559 68.1394 48.7853 67.8922C49.4668 67.7653 49.9478 68.0125 50.1281 68.6939C50.2684 69.2283 49.8342 69.8029 49.106 69.8697C48.1574 69.9632 47.2087 70.1302 46.2601 70.1502C45.6187 70.1636 44.9841 70.2371 44.3695 70.344C41.2363 70.9051 38.083 71.2325 34.9231 71.5665C33.0325 71.7669 31.1352 72.0342 29.2446 72.1945C26.1582 72.455 23.2053 73.3569 20.1724 73.7444C18.2684 73.9916 16.5381 73.5239 16.4713 71.139C16.4579 70.5711 16.0037 70.2104 15.8834 69.6826C15.4024 67.5315 14.888 65.3937 14.3335 63.2626C13.5252 60.1561 12.9974 56.9895 12.4229 53.8362C12.0354 51.6984 11.7348 49.5406 11.3807 47.3961C11.06 45.4655 10.6792 43.5414 10.392 41.6041C10.1047 39.5932 9.99113 37.5623 10.2383 35.5648C10.4254 34.0283 10.8997 32.5051 11.9886 31.2759C12.316 30.9084 12.6567 30.688 13.1243 30.6345C14.7811 30.4274 16.478 30.394 18.088 29.9932C22.0362 29.0045 26.0646 28.5101 30.0663 27.8688C33.8408 27.2675 37.5953 26.5928 41.3431 25.8646C42.392 25.6575 43.1803 25.9915 43.2805 26.6262C43.3741 27.194 42.9198 27.5414 41.7707 27.802C41.4834 27.8621 41.2095 27.969 40.9223 28.0024C40.6083 28.0358 40.2876 28.0091 39.9669 28.0091L39.9603 28.0024Z" fill="white"/>
<path d="M32.7923 66.4491C31.2624 66.2019 29.8662 66.9101 28.4031 67.2174C25.9447 67.7318 23.5129 68.46 20.9743 68.4533C20.5133 68.4533 20.2996 68.6003 20.333 69.1013C20.3731 69.6558 20.3196 70.217 20.333 70.7781C20.3397 71.2257 20.2194 71.5932 19.7384 71.68C19.2173 71.7736 18.8566 71.5063 18.7096 71.012C18.6428 70.7915 18.6294 70.531 18.6762 70.3105C19.1572 68.0324 18.6495 65.8011 18.1685 63.6232C17.5004 60.6236 16.7455 57.6374 16.1509 54.6178C15.6766 52.2061 15.2891 49.781 14.9016 47.3493C14.5743 45.285 14.0198 43.2608 13.5655 41.2165C13.0845 39.0787 12.8975 36.9142 12.8373 34.7297C12.8307 34.4224 12.7371 33.9881 13.138 33.9146C13.6123 33.8278 13.7392 34.2687 13.8127 34.6428C14.1467 36.4399 14.4875 38.237 14.7814 40.0474C15.4428 44.156 16.0908 48.2712 17.1263 52.313C17.4804 53.7026 17.3801 55.1456 17.6607 56.5284C18.2887 59.6216 18.9501 62.7147 20.0323 65.6942C20.2795 66.3823 20.6136 66.6295 21.3551 66.5827C23.1255 66.4625 24.849 65.9614 26.6328 65.9147C28.1693 65.8746 29.7192 65.8946 31.229 65.6608C33.1864 65.3602 35.0971 64.7389 37.0478 64.4316C39.9873 63.9639 42.8132 63.0287 45.7326 62.4942C46.875 62.2871 47.9439 61.7527 49.1263 61.6792C49.6407 61.6458 50.0816 61.6992 50.4224 62.1001C50.6428 62.3606 50.7297 62.6545 50.576 62.9886C50.3823 63.4028 50.0349 63.5097 49.614 63.5832C47.5564 63.9372 45.4921 64.2579 43.4545 64.7055C41.9113 65.0462 40.4081 65.5673 38.8315 65.8078C36.8407 66.1151 34.8499 66.3957 32.8056 66.4558L32.7923 66.4491Z" fill="white"/>
<path d="M47.8306 56.9561C47.6702 54.4642 47.2226 52.0191 46.6681 49.5874C46.1337 47.2625 45.7529 44.9043 45.3253 42.5594C44.5838 38.5177 43.8556 34.4826 43.1074 30.4408C43.0339 30.0266 42.8201 29.6391 42.7333 29.2249C42.6331 28.7439 42.7466 28.2897 43.2677 28.1226C43.8222 27.949 44.0961 28.3164 44.2898 28.7707C44.851 30.0801 44.9579 31.4963 45.2251 32.8726C46.0268 36.9544 46.2539 41.1364 47.2093 45.1916C47.6836 47.2024 48.1111 49.2133 48.3984 51.2642C48.5788 52.5402 49.0932 53.7628 49.3938 55.0321C49.7612 56.582 49.9416 58.1653 50.102 59.7486C50.1621 60.3498 49.9884 60.8375 49.347 60.9578C48.7124 61.078 48.2982 60.6705 48.1779 60.116C47.9976 59.2943 47.9374 58.4392 47.8372 57.5974C47.8105 57.3903 47.8372 57.1699 47.8372 56.9628L47.8306 56.9561Z" fill="white"/>
<path d="M37.4488 37.3286C37.4488 37.362 37.4488 37.5224 37.4488 37.6827C37.4354 38.1236 37.2818 38.4777 36.7941 38.5378C36.3264 38.5979 36.0392 38.304 35.8989 37.9032C35.7987 37.6092 35.812 37.2752 35.7385 36.9679C35.5715 36.2998 35.4513 35.6251 35.2108 34.9704C34.8701 34.0284 34.3423 33.7345 33.387 34.0885C32.2513 34.5094 31.4496 35.3645 30.6479 36.213C30.0467 36.8476 29.5323 37.5624 28.9778 38.2372C28.8108 38.4443 28.6438 38.6514 28.4567 38.8384C28.1761 39.119 27.8621 39.4731 27.4412 39.1123C27.0605 38.7783 27.2341 38.3775 27.4747 38.0368C28.2028 37.0213 28.9177 35.9992 29.8195 35.124C30.8083 34.1687 31.7569 33.1532 33.1598 32.7791C34.5628 32.405 35.5515 32.8259 36.3532 34.0418C36.9945 35.0171 37.5289 35.9992 37.4488 37.3353V37.3286Z" fill="white"/>
<path d="M19.7178 32.2513C19.4305 32.2847 19.0764 32.3983 18.9962 31.9975C18.9161 31.5766 19.2501 31.3895 19.5975 31.2826C20.8067 30.9152 22.1829 32.2112 22.0493 33.681C22.0092 34.1353 22.1428 34.2689 22.4835 34.4292C23.7595 35.0371 23.9466 36.1595 22.9445 37.1415C21.615 38.4509 20.0317 39.1257 18.1411 38.9653C17.6668 38.9252 17.266 38.7449 17.0188 38.3106C16.805 37.9298 16.7716 37.5557 17.0722 37.2017C17.3461 36.8743 17.7002 36.8075 18.081 36.9611C18.5754 37.1616 19.0898 37.2685 19.6175 37.362C20.78 37.5758 21.5416 36.9678 22.243 36.1996C22.5036 35.9123 22.4234 35.6584 22.056 35.5315C21.8622 35.4647 21.6484 35.3979 21.4413 35.3979C21.0271 35.3979 20.613 35.3912 20.4192 34.9503C20.2255 34.5094 20.5795 34.2889 20.8601 34.0351C21.2142 33.7077 21.1006 33.3002 20.9403 32.9261C20.7065 32.3983 20.3524 32.2112 19.7244 32.2513H19.7178Z" fill="white"/>
<path d="M32.0507 62.3473C30.7881 62.1869 29.5388 61.5256 28.3831 60.637C28.0691 60.3965 27.7885 60.0759 27.4344 59.9289C26.0582 59.3544 25.2499 58.1986 24.4148 57.0696C24.0474 56.5619 24.1676 55.4128 24.6086 54.9986C24.7088 54.9051 24.8223 54.8383 24.9626 54.8984C25.1029 54.9585 25.1764 55.0988 25.1363 55.2191C24.5484 56.8491 25.7309 57.7443 26.7597 58.3924C28.2495 59.3276 29.5455 60.5903 31.2825 61.1581C32.4315 61.5322 32.8791 61.412 33.32 60.283C33.5338 59.7418 33.781 59.2074 34.0616 58.6997C34.2887 58.2922 34.6762 58.0784 35.1372 58.2922C35.5848 58.4993 35.685 58.9201 35.6115 59.3744C35.3042 61.2116 34.0549 62.3205 32.0441 62.3473H32.0507Z" fill="white"/>
<path d="M31.0883 57.4839C29.1776 57.3837 27.6277 57.0363 26.4319 55.7603C26.325 55.6467 26.2048 55.5331 26.1179 55.4062C25.9375 55.1323 25.7572 54.825 26.0912 54.5578C26.3918 54.3173 26.6924 54.4375 26.953 54.6647C27.2937 54.9586 27.6077 55.2993 27.9751 55.5398C29.7522 56.6889 31.616 56.4484 33.4799 55.8137C34.0277 55.6267 34.5421 55.3327 35.0566 55.0588C35.5442 54.805 35.8983 54.4576 35.9651 53.8496C36.0186 53.3553 36.2457 52.921 36.7935 52.8008C37.1743 52.7139 37.4816 52.8809 37.6553 53.2217C37.9158 53.7093 37.7488 54.1035 37.4215 54.5311C35.7447 56.7022 33.353 57.2434 31.0749 57.4906L31.0883 57.4839Z" fill="white"/>
<path d="M35.2508 42.6263C34.8967 42.6396 34.6228 42.486 34.4224 42.2188C34.0483 41.7311 33.5205 41.4171 33.0729 41.0229C32.0976 40.1478 30.9685 40.1344 29.8596 40.3616C28.784 40.582 27.695 40.9227 26.7664 41.5641C26.0783 42.0451 25.5907 42.6998 25.2767 43.4881C25.1364 43.8421 25.0094 44.3632 24.475 44.1294C23.9673 43.909 24.2211 43.4413 24.3547 43.0806C24.936 41.524 26.1318 40.6154 27.6216 40.0409C29.412 39.3528 31.169 39.119 33.113 39.6668C34.2353 39.9874 35.1973 40.3081 35.9322 41.21C36.1727 41.5039 36.2796 41.8179 36.0992 42.1653C35.9255 42.506 35.6249 42.653 35.2508 42.6196V42.6263Z" fill="white"/>
<path d="M41.9515 40.9827C40.4149 40.9493 39.3594 39.2525 40.0208 38.0165C40.1811 37.7092 40.0542 37.6157 39.9005 37.422C39.0053 36.2996 39.4462 34.6428 40.7623 34.1151C41.0429 34.0015 41.3235 33.9347 41.6041 34.0817C41.8646 34.222 42.1251 34.4357 42.192 34.7096C42.2588 34.9902 41.878 35.0103 41.7043 35.1372C40.5552 35.9322 40.5151 36.146 41.5506 37.108C42.0183 37.5422 41.9581 37.8829 41.5172 38.217C41.2233 38.4441 40.936 38.6512 41.1498 39.0587C41.3636 39.4662 41.7176 39.3259 42.065 39.2458C42.3723 39.1723 42.693 39.1255 43.007 39.0988C43.4279 39.0721 43.7352 39.2658 43.8621 39.6666C43.9957 40.0875 43.7819 40.3748 43.4613 40.622C42.9803 40.9894 42.3723 40.809 41.9715 40.9894L41.9515 40.9827Z" fill="white"/>
<path d="M42.4654 58.1585C41.9042 58.5861 41.47 59.1206 41.0357 59.6617C40.1272 60.8041 39.2787 60.764 38.4103 59.5882C38.1764 59.2675 37.9025 58.9736 37.662 58.6529C37.475 58.4057 37.3748 58.1118 37.6353 57.8579C37.9092 57.5907 38.2366 57.6375 38.4971 57.878C38.8311 58.1853 39.1652 58.4993 39.4257 58.8667C39.7197 59.2742 39.9268 59.1673 40.1339 58.84C40.5347 58.1986 41.1359 57.7377 41.5969 57.1565C42.0111 56.6421 42.4854 56.5686 43.0867 56.8157C43.7681 57.103 44.2691 57.6174 44.7969 58.1051C45.0508 58.3389 45.0975 58.673 44.9238 58.9869C44.7101 59.3811 44.3426 59.4011 43.9485 59.3277C43.2537 59.2007 42.9865 58.5327 42.4721 58.1652L42.4654 58.1585Z" fill="white"/>
<path d="M19.7188 60.4368C20.6273 60.557 21.2219 61.1182 21.743 61.7395C22.1839 62.2673 22.391 62.127 22.5714 61.5792C22.6382 61.3787 22.6849 61.1716 22.7651 60.9712C23.2862 59.6952 24.1146 59.4347 25.257 60.203C25.4975 60.3633 25.758 60.5036 25.9785 60.6906C26.2925 60.9512 26.4327 61.2986 26.2323 61.686C26.0319 62.0602 25.6712 62.1537 25.277 62.0802C25.1233 62.0535 24.943 62.0067 24.8428 61.8998C24.148 61.205 23.8273 61.5992 23.4532 62.2673C22.7584 63.5098 22.2774 63.4965 21.3822 62.3541C20.8678 61.6927 20.2799 61.0781 19.7321 60.4435L19.7188 60.4368Z" fill="white"/>
<path d="M31.3625 55.3194C30.6476 55.2593 30.0664 55.1925 29.6188 54.7516C29.4184 54.5579 29.2915 54.324 29.4451 54.0368C29.6055 53.7361 29.8593 53.7562 30.1332 53.8698C30.9883 54.2372 31.7833 54.0835 32.5449 53.6025C32.8856 53.3887 33.2664 53.2952 33.5337 53.6827C33.8009 54.0769 33.527 54.4109 33.2397 54.6447C32.6652 55.119 31.9303 55.1725 31.3625 55.3128V55.3194Z" fill="white"/>
<path d="M49.4397 65.7544C49.4196 66.1285 49.4397 66.5026 49.3662 66.8634C49.2994 67.2175 49.099 67.5114 48.6848 67.5448C48.324 67.5715 48.0902 67.3644 47.9232 67.0638C47.5825 66.4626 47.7896 64.9193 48.2706 64.425C48.451 64.2379 48.6514 64.131 48.9119 64.2179C49.1858 64.3114 49.3662 64.5185 49.3996 64.7991C49.433 65.1131 49.4063 65.4337 49.4063 65.7544C49.413 65.7544 49.4263 65.7544 49.433 65.7544H49.4397Z" fill="white"/>
<path d="M27.8945 43.2074C28.2954 41.7243 30.3664 41.063 31.462 41.9248C31.8294 42.2187 31.7826 42.6997 31.3417 42.8734C31.1747 42.9402 30.9409 42.987 30.8006 42.9135C29.8185 42.4191 28.9033 42.7465 27.8945 43.2007V43.2074Z" fill="white"/>
<path d="M41.3967 50.6162C41.1495 49.7945 41.0961 48.9461 40.9625 48.1177C40.7287 46.6814 40.2477 45.2918 40.1541 43.8287C40.1007 43.0471 39.6664 42.7064 38.8648 42.7932C35.4978 43.1607 32.2042 44.0024 28.8572 44.4901C26.5792 44.8175 24.3278 45.2851 22.0564 45.6659C21.5554 45.7527 21.2881 45.9999 21.2414 46.4876C21.2146 46.7749 21.2414 47.0755 21.2414 47.3628C21.4418 49.5006 21.6288 51.6384 22.3637 53.6826C22.5775 54.2772 22.9316 54.4442 23.5395 54.1837C24.7888 53.6425 26.1182 53.382 27.4744 53.2751C29.6188 53.1081 31.7433 52.8075 33.8744 52.5202C36.1257 52.2129 38.3303 51.5515 40.6284 51.5649C41.2431 51.5649 41.5704 51.1306 41.4101 50.6229L41.3967 50.6162ZM39.2456 49.8279C36.8071 50.182 34.3821 50.6229 32.0706 51.5248C31.309 51.8254 30.4873 51.9791 29.6589 52.0325C27.8284 52.1528 26.0113 52.3265 24.2276 52.7874C23.6931 52.9277 23.4526 52.8141 23.2789 52.2262C22.7779 50.5494 22.7779 48.7657 22.043 47.1757C25.2096 46.3674 28.4096 46.0601 31.5495 45.4521C33.7608 45.0246 35.9988 44.7239 38.19 44.1761C38.6577 44.0626 38.8781 44.0893 38.9783 44.6571C39.2322 46.0935 39.5796 47.5097 39.8602 48.9394C39.9537 49.407 39.9337 49.7277 39.2456 49.8279Z" fill="white"/>
<path d="M35.9449 46.4342C35.4305 46.4208 35.0898 46.7014 35.023 47.2158C34.9629 47.7035 35.2768 47.9239 35.7712 48.0041C36.1988 47.9239 36.6063 47.7436 36.6464 47.2024C36.6798 46.7348 36.4125 46.4475 35.9449 46.4342Z" fill="white"/>
<path d="M33.3331 46.9821C32.8588 47.0355 32.4513 47.2894 32.4379 47.8171C32.4246 48.2113 32.7252 48.4117 33.2196 48.3984C33.607 48.3382 34.0279 48.1445 34.0613 47.6167C34.088 47.1825 33.754 46.9353 33.3331 46.9821Z" fill="white"/>
<path d="M30.1664 47.7169C29.7789 47.777 29.3313 47.8038 29.2845 48.3115C29.2444 48.7658 29.5785 48.9862 29.9927 48.9729C30.4202 48.9595 30.8945 48.8526 30.8945 48.3048C30.8945 47.9107 30.5672 47.737 30.173 47.7169H30.1664Z" fill="white"/>
<path d="M26.2245 48.1912C25.7903 48.1912 25.503 48.3983 25.4897 48.8459C25.4763 49.3068 25.7836 49.4872 26.2245 49.5072C26.6655 49.4939 27.0262 49.2935 27.0062 48.8191C26.9928 48.3983 26.6387 48.1978 26.2245 48.1912Z" fill="white"/>
</svg>
