<svg width="98" height="98" viewBox="0 0 98 98" fill="none" xmlns="http://www.w3.org/2000/svg">
<path d="M48.6225 26.0833C46.2825 26.0833 44.7225 25.1633 43.6025 24.0633L44.9825 22.2033C45.8025 23.0233 46.8625 23.7033 48.2225 23.7033C49.7825 23.7033 50.8425 22.7233 50.8425 20.9633C50.8425 19.2433 49.8425 18.2833 48.3625 18.2833C47.4825 18.2833 47.0025 18.5033 46.1425 19.0633L44.7825 18.1833L45.2025 11.0033H53.1225V13.4633H47.7425L47.4625 16.6033C48.0425 16.3433 48.5625 16.2033 49.2425 16.2033C51.7225 16.2033 53.8025 17.6633 53.8025 20.9033C53.8025 24.1833 51.3425 26.0833 48.6225 26.0833Z" fill="white"/>
<path d="M31.1605 76.8949C31.5892 77.8804 32.0628 78.8403 32.1716 79.9153C32.1972 80.1841 32.3187 80.2097 32.5747 80.2033C34.9872 80.1265 37.4061 80.0113 39.8187 80.0369C41.1369 80.0497 42.4488 80.0945 43.767 80.0945C46.5571 80.0945 49.3535 80.2289 52.1436 80.2865C56.2903 80.3761 60.4306 80.3569 64.5773 80.3505C65.9468 80.3505 67.3162 80.2993 68.6857 80.3121C69.1208 80.3121 69.3256 80.2417 69.4344 79.7234C69.6135 78.8915 69.7543 78.0148 70.2919 77.2916C70.4263 77.1125 70.5286 76.8565 70.8038 76.9077C71.1046 76.9589 71.175 77.2341 71.2134 77.49C71.3797 78.6483 71.1622 79.7746 70.8422 80.8688C70.6694 81.4576 70.1319 81.7903 69.4664 81.7583C66.4715 81.6175 63.4767 81.8095 60.4818 81.8031C55.996 81.7903 51.5101 81.6879 47.0306 81.5791C45.354 81.5343 43.671 81.7071 42.02 81.5791C38.7884 81.3424 35.5696 81.5855 32.3443 81.5343C31.6212 81.5215 30.9429 81.0032 30.7957 80.2161C30.5782 79.1026 30.1942 78.066 29.5607 77.1189C29.5159 77.0549 29.5159 76.9461 29.4647 76.9141C28.0824 76.1782 28.524 74.8535 28.46 73.7209C28.3384 71.6411 28.556 69.5294 28.4088 67.4752C28.2552 65.4082 28.236 63.3477 28.1592 61.2807C28.1208 60.2185 28.108 59.1178 28.3192 58.0875C28.5112 57.1532 29.0551 56.3085 29.9126 55.7518C30.175 55.579 30.4438 55.515 30.6741 55.7582C30.8981 55.995 30.8725 56.3021 30.6933 56.5325C30.4054 56.9165 30.0918 57.3004 29.7335 57.6204C29.3559 57.9595 29.2599 58.3371 29.2215 58.8234C29.0551 61.0568 29.1319 63.2965 29.1191 65.5298C29.1127 66.4321 28.7992 67.2832 28.8376 68.2303C28.908 69.8877 29.3303 71.5067 29.2855 73.1641C29.2663 73.8297 29.6823 74.4184 29.5671 75.1159C29.5159 75.4359 29.9254 75.4039 30.1622 75.4359C31.0837 75.5766 31.986 75.3015 32.8947 75.2567C35.3968 75.1223 37.9053 75.1159 40.4138 75.1095C44.4581 75.0967 48.5088 75.2119 52.5532 74.9175C54.0122 74.8087 55.4968 74.8471 56.9686 74.9687C57.9477 75.0519 58.946 74.9687 59.9315 74.9367C62.7792 74.8535 65.6204 74.8023 68.4617 74.6616C69.5751 74.604 70.6886 74.476 71.8085 74.4248C72.346 74.3992 72.8132 74.5016 72.9348 75.0903C73.0499 75.6598 72.6212 75.8902 72.1732 76.0822C71.8597 76.2166 71.4885 76.3062 71.2006 76.191C70.0423 75.7238 68.8904 76.1718 67.745 76.1526C64.7949 76.1078 61.8385 76.191 58.882 76.2102C56.2903 76.2294 53.6858 76.1334 51.1005 76.2614C47.4338 76.4469 43.7734 76.3894 40.1066 76.2998C38.2764 76.255 36.4655 76.5557 34.6481 76.4853C33.4642 76.4405 32.3379 76.6837 31.1605 76.8757V76.8949Z" fill="white"/>
<path d="M30.6297 70.6428C30.5273 68.0191 30.4057 65.485 30.3353 62.9445C30.2969 61.6007 30.2265 60.244 30.4633 58.9066C30.5145 58.625 30.5081 58.2219 30.9048 58.2027C31.3336 58.1835 31.4744 58.5226 31.5576 58.9066C31.6343 59.265 31.564 59.6169 31.5704 59.9689C31.6088 62.6822 31.6088 65.4018 31.6919 68.1151C31.7239 69.2094 31.8135 70.2973 31.7879 71.3915C31.7751 71.8331 31.9863 71.9483 32.3639 72.0123C33.6245 72.217 34.898 72.3194 36.165 72.313C39.1151 72.3002 42.0587 72.3706 45.0152 72.249C47.8372 72.1274 50.6657 72.2618 53.4878 72.2298C54.6012 72.217 55.7147 71.9867 56.8282 71.9547C59.0679 71.8971 61.3076 71.9163 63.5474 71.8843C64.2577 71.8715 64.968 71.8075 65.6783 71.7563C66.3055 71.7115 66.843 71.8715 66.971 72.5434C67.1054 73.2537 66.6126 73.5289 66.0047 73.6633C64.776 73.932 63.5602 73.6377 62.3571 73.5353C59.7718 73.3113 57.2057 73.1961 54.614 73.5481C53.1614 73.7464 51.664 73.6697 50.1858 73.6505C47.7476 73.6185 45.3095 73.6569 42.8714 73.74C39.5438 73.8552 36.2034 74.1112 32.8822 73.7145C31.2568 73.5161 30.6169 72.9657 30.6297 71.3979C30.6297 71.1164 30.6297 70.8348 30.6297 70.6364V70.6428Z" fill="white"/>
<path d="M47.7359 50.1974C48.6574 49.8966 49.4765 50.2486 50.1548 50.7669C51.2043 51.5668 52.1834 52.4691 53.0537 53.4738C53.4184 53.8961 53.7832 54.0753 54.3719 53.9793C56.0933 53.7106 57.8275 53.9025 59.5553 53.9025C62.6397 53.9025 65.7178 53.8833 68.8022 53.9153C69.9541 53.9281 71.0547 54.2161 71.9826 54.9648C72.4946 55.3808 72.7505 55.9247 72.8849 56.5838C73.2369 58.3948 72.9937 60.2378 73.2625 62.0552C73.7616 65.4788 73.9344 68.9344 74.024 72.3899C74.0304 72.6971 74.1136 72.9979 74.1072 73.2986C74.088 73.9002 73.8064 74.3481 73.1601 74.3801C72.5522 74.4121 72.2834 73.9898 72.2642 73.4522C72.2322 72.4859 72.2258 71.5196 72.2578 70.5534C72.3794 66.7714 72.277 62.9959 71.9122 59.2267C71.8482 58.542 71.8035 57.8573 71.7395 57.1789C71.6371 56.0463 70.466 55.048 69.3141 55.144C67.516 55.2976 65.7178 55.1568 63.9196 55.1824C61.5071 55.2144 59.0882 55.1504 56.6692 55.144C56.2213 55.144 55.7605 55.016 55.3126 55.1568C55.3062 55.2144 55.2742 55.2784 55.2934 55.304C55.6198 55.7583 55.9333 56.2383 55.4022 56.7246C54.9222 57.1597 54.4039 56.955 53.924 56.6542C52.7465 55.9183 51.8122 54.8944 50.8587 53.9153C50.1548 53.1922 49.3229 52.5843 48.8046 51.6692C48.5422 51.1956 47.8767 51.1381 47.5759 50.6645C47.4095 50.4341 47.5759 50.3126 47.7359 50.1846V50.1974Z" fill="white"/>
<path d="M47.0453 58.2092C46.9941 59.5915 47.506 60.9225 47.3204 62.2984C47.2564 62.7655 47.6084 62.7655 47.8836 62.8487C48.997 63.1814 49.0994 63.2774 49.1442 64.4101C49.1826 65.5748 49.1698 66.7458 49.2018 67.9105C49.2146 68.3392 49.1378 68.7104 48.6387 68.736C48.1011 68.7552 47.922 68.3328 47.954 67.9105C48.0052 67.2002 48.0244 66.4899 48.0308 65.7795C48.0371 64.2181 48.0435 64.2629 46.5397 64.2821C45.1831 64.3013 43.8776 64.7109 42.5274 64.6917C42.0347 64.6853 41.9963 64.9668 42.0539 65.3444C42.1882 66.1763 42.1882 67.0146 42.2202 67.8529C42.2394 68.3904 42.1818 68.8896 41.5547 68.9408C40.8636 68.9984 40.6396 68.448 40.6012 67.8849C40.5372 66.925 40.518 65.9523 40.5372 64.9924C40.5628 63.6038 40.774 63.3798 42.1818 63.175C42.5274 63.1239 42.6746 63.0471 42.6554 62.6695C42.6106 61.94 42.5978 61.2041 42.6106 60.4682C42.6106 60.193 42.5018 60.1866 42.2906 60.2122C41.0556 60.3658 39.8205 60.5194 38.5791 60.6473C38.2207 60.6857 38.2271 60.8841 38.3103 61.1209C38.739 62.3047 38.5471 63.5462 38.6431 64.7557C38.6815 65.2548 38.5215 65.7923 37.8879 65.7923C37.2864 65.7923 37.1904 65.2932 37.1904 64.8005C37.1904 63.5014 37.1904 62.2088 37.4144 60.9225C37.4336 60.8009 37.4592 60.6665 37.4336 60.5514C37.2544 59.5915 37.3824 59.4059 38.3231 59.4379C39.219 59.4699 40.0893 59.2523 40.9788 59.1947C41.3051 59.1755 41.6379 59.1115 41.9643 59.1179C43.3337 59.1371 43.6025 59.3803 43.7433 60.7305C43.8072 61.3385 44.0696 61.9144 44.044 62.5351C44.044 62.6887 44.076 62.8487 44.2616 62.8935C44.6519 62.9831 45.0167 62.8295 45.3943 62.7975C46.0726 62.7335 45.6502 62.26 45.6758 61.9848C45.7654 60.9481 45.4647 59.9242 45.5606 58.8684C45.6886 57.5053 46.0918 57.1086 47.4612 57.0446C48.5811 56.9934 49.6882 56.8974 50.808 57.0702C51.2752 57.1406 51.5311 57.3325 51.6847 57.7741C52.1263 59.0731 52.1391 60.4234 52.1135 61.7672C52.1071 62.228 51.9023 62.7143 51.3136 62.7143C50.7056 62.7143 50.6032 62.2664 50.5904 61.7608C50.5649 60.8009 50.4625 59.8346 50.4881 58.8748C50.5009 58.3884 50.3217 58.222 49.9057 58.2156C48.9458 58.2028 47.986 58.2156 47.0389 58.2156L47.0453 58.2092Z" fill="white"/>
<path d="M33.5874 60.0523C33.6002 62.6504 33.9969 65.2293 33.9585 67.8274C33.9521 68.4545 34.1441 69.0817 34.2465 69.7024C34.2977 70.0095 34.5409 69.9328 34.7264 69.9328C36.0703 69.92 37.4269 69.952 38.7644 69.856C39.6155 69.792 40.441 69.9392 41.2729 69.9584C45.7267 70.0735 50.1742 69.6576 54.6281 69.632C56.6887 69.6192 58.762 69.7536 60.8162 69.4848C62.3584 69.28 63.9198 69.7472 65.4428 69.2544C65.782 69.1456 66.1083 69.3056 66.2299 69.6832C66.3579 70.0735 66.1339 70.3167 65.8204 70.4895C65.622 70.6047 65.3916 70.6879 65.1613 70.6367C63.4207 70.2783 61.6737 70.4447 59.9331 70.5599C56.9318 70.7519 53.9242 70.6047 50.9229 70.7391C49.2975 70.8095 47.6721 70.9502 46.0531 70.9374C44.0757 70.9182 42.0984 71.0974 40.1082 70.8926C38.7324 70.7519 37.3117 70.8798 35.9231 70.9886C34.816 71.0782 33.8881 70.8478 33.1458 70.0031C32.8387 69.6512 32.7555 69.2224 32.8003 68.7873C32.8835 67.9746 32.8643 67.1683 32.7555 66.3556C32.4931 64.4294 32.6083 62.4904 32.7363 60.5643C32.7875 59.79 32.5379 59.054 32.5763 58.2861C32.5955 57.9214 32.5891 57.4926 33.0562 57.4606C33.5618 57.4222 33.5746 57.883 33.5874 58.2285C33.6194 58.8365 33.5938 59.4508 33.5938 60.0587L33.5874 60.0523Z" fill="white"/>
<path d="M68.8024 70.3549C68.8344 67.3217 69.2696 64.5764 68.8664 61.844C68.6616 60.4745 68.7192 59.1051 68.6744 57.7356C68.6616 57.2877 68.6744 56.7821 69.2696 56.763C69.8647 56.7438 69.9159 57.2813 69.9223 57.7036C69.9415 60.8073 70.3446 63.8853 70.447 66.9825C70.5046 68.6847 70.543 70.3869 70.5622 72.0955C70.5686 72.6715 70.383 73.1322 69.7495 73.1834C69.1416 73.2346 68.9496 72.8059 68.8344 72.2747C68.6808 71.5324 68.8408 70.8029 68.8088 70.3549H68.8024Z" fill="white"/>
<path d="M46.072 51.1446C45.8608 51.3238 45.6432 51.5029 45.4384 51.6885C44.3186 52.6676 43.1603 52.9428 41.8933 51.9253C40.7798 51.0358 39.5575 51.8869 38.4633 52.9876C37.2346 54.2226 36.3195 55.688 35.4748 57.1983C35.2892 57.5374 35.0589 57.9086 34.5981 57.7486C34.131 57.5886 34.1374 57.1791 34.291 56.7887C34.4061 56.4943 34.2526 56.4304 34.0286 56.3856C33.4974 56.2832 32.9727 56.2512 32.4416 56.3856C32 56.5007 31.5905 56.4176 31.4497 55.9376C31.2961 55.4321 31.6801 55.1953 32.0704 55.0417C32.9599 54.6962 33.8814 54.9329 34.7773 54.9713C35.1485 54.9841 35.2956 54.9265 35.4812 54.6258C36.5435 52.9492 38.0473 51.7525 39.7879 50.8438C40.383 50.5367 41.0294 50.5367 41.6309 50.831C42.3604 51.1894 43.0387 51.8229 43.7938 51.9253C44.5297 52.0213 45.0865 51.1062 45.88 50.9462C46.0592 50.895 46.1104 50.9782 46.072 51.1446Z" fill="white"/>
<path d="M65.9289 65.4276C65.9033 63.3991 65.7434 61.3641 65.9417 59.3355C65.9545 59.182 65.9609 59.0284 65.9929 58.8812C66.0569 58.5292 66.2297 58.2221 66.6136 58.2029C67.0104 58.1837 67.2536 58.4524 67.3752 58.83C67.6823 59.7579 67.2792 60.6794 67.3496 61.6201C67.5159 63.8406 67.2664 66.0739 67.5607 68.2945C67.6375 68.864 67.4583 69.3568 66.8376 69.4399C66.1721 69.5295 65.9481 69.0304 65.9353 68.4737C65.9097 67.4562 65.9289 66.4387 65.9289 65.4212V65.4276Z" fill="white"/>
<path d="M51.5234 68.096C51.5234 67.0466 52.1441 66.413 52.7905 65.8499C53.328 65.3828 53.6352 64.9092 53.6032 64.1669C53.552 63.015 54.1791 62.0999 54.8254 61.2169C55.171 60.7433 55.5613 60.3082 55.9709 59.8922C56.342 59.5146 56.4188 59.2267 55.9709 58.8299C55.7405 58.6188 55.6189 58.2796 55.4781 57.9788C55.3566 57.7165 55.4269 57.4669 55.6765 57.3133C55.9389 57.1533 56.1565 57.2813 56.3548 57.4733C57.5003 58.5932 57.5579 60.2186 56.4828 61.3832C56.0669 61.8312 55.6765 62.2919 55.171 62.6567C54.6462 63.0342 54.563 63.6358 54.5822 64.2373C54.6206 65.3252 54.3519 66.3043 53.5392 67.0786C53.1808 67.4177 53.1616 67.9041 52.9952 68.32C52.8352 68.7104 52.6369 69.1007 52.1249 69.0111C51.5874 68.9151 51.485 68.4928 51.517 68.096H51.5234Z" fill="white"/>
<path d="M60.2266 63.5143C60.3034 62.74 60.3994 61.7225 60.5018 60.7114C60.5146 60.6154 60.5402 60.4938 60.6042 60.4298C61.5193 59.4508 62.5752 58.6829 63.8678 58.2797C64.1622 58.1901 64.4245 58.3565 64.5589 58.6381C64.6933 58.9196 64.5269 59.1308 64.3157 59.2972C63.8486 59.6555 63.3175 59.9115 62.7671 60.1163C62.0824 60.3723 61.6025 60.705 61.5897 61.5753C61.5769 62.5864 61.3721 63.5911 61.2761 64.6022C61.1801 65.6132 60.649 66.3556 59.8875 66.9635C59.1708 67.533 58.3964 68.0194 57.5645 68.4097C57.3278 68.5185 57.0398 68.6337 56.867 68.3777C56.643 68.0386 57.0014 67.8722 57.2062 67.725C57.6605 67.3986 58.1405 67.1107 58.614 66.8163C60.0219 65.9524 60.297 65.4341 60.2266 63.5207V63.5143Z" fill="white"/>
<path d="M64.8338 57.4667C62.8309 57.6331 60.8215 57.1915 58.8121 57.5307C58.345 57.6075 57.8458 57.6075 57.3979 57.3451C57.1483 57.1979 56.9116 57.0252 56.9883 56.6924C57.0715 56.3532 57.3211 56.1933 57.6667 56.1933C59.5096 56.1933 61.359 56.2061 63.202 56.1933C63.7587 56.1933 64.3155 56.0909 64.8722 56.0781C65.4225 56.0653 66.0753 55.9693 66.1393 56.7948C66.1777 57.2939 65.6465 57.5435 64.8338 57.4603V57.4667Z" fill="white"/>
<path d="M46.0728 51.1445C46.0088 51.0805 45.9449 51.0165 45.8809 50.9461C46.4312 50.511 47.1031 50.4022 47.743 50.1974C47.6918 50.3574 47.6407 50.5173 47.5831 50.6773C47.0263 50.6709 46.5912 51.0357 46.0728 51.1445Z" fill="white"/>
<path d="M68.9294 44.0412C68.2703 42.8318 67.1888 42.0063 66.3633 40.9504C65.6786 40.0737 64.8851 39.2738 64.1044 38.4803C63.2661 37.6292 61.6279 37.5716 61.0136 38.3587C60.4184 39.1138 59.8617 39.9073 59.2986 40.688C58.0251 42.4606 56.7645 44.2332 55.619 46.0954C54.9151 47.2473 55.1583 48.4439 56.4253 48.9495C57.4172 49.3462 58.4731 49.5382 59.5481 49.5958C61.3591 49.6918 63.1317 49.2054 64.6739 49.3078C66.0562 49.2182 67.176 49.2694 68.2767 49.0007C69.1918 48.7767 69.9405 48.06 69.9277 47.3369C69.8957 46.153 69.5054 45.0907 68.9358 44.0412H68.9294ZM67.0289 47.2921C64.8723 47.4712 62.7158 47.6568 60.572 47.9512C59.1578 48.1496 57.8459 47.74 56.4189 47.5608C57.3212 45.6347 58.3771 43.8493 59.4649 42.0767C59.9321 41.3152 60.4568 40.5985 61.02 39.9073C61.7943 38.9474 62.8629 38.9218 63.6629 39.8305C63.9828 40.1953 64.354 40.5089 64.6867 40.8544C65.1987 41.3856 65.717 41.8975 66.0498 42.5822C66.6129 43.7469 67.2528 44.8731 67.8096 46.0442C68.2319 46.9209 67.9823 47.2025 67.0289 47.2857V47.2921Z" fill="white"/>
<path d="M38.0727 43.3247C37.7143 43.3247 37.6695 43.1263 37.6055 42.8639C37.2792 41.4689 36.3769 40.6498 35.0394 40.2082C33.8044 39.7923 31.9166 40.1762 31.3727 41.1745C31.0591 41.7505 30.752 41.7313 30.2464 41.6801C28.2946 41.4945 26.938 41.4241 26.1445 44.2718C26.0421 44.6301 25.8053 44.6685 25.5238 44.7133C24.839 44.8221 24.1735 45.0013 23.6616 45.5132C23.316 45.8588 22.9577 46.2107 23.1624 46.7739C23.3864 47.3882 23.86 47.7338 24.4743 47.7849C25.8437 47.9065 27.2132 48.0409 28.5826 47.7594C29.1201 47.6506 29.5681 47.8041 30.0096 48.1177C30.8031 48.6872 31.6606 49.0648 32.6909 49.0456C34.0732 49.0136 35.257 48.4697 36.3897 47.7785C37.0872 47.3498 37.7207 46.9594 38.5526 47.433C38.7318 47.5354 39.0006 47.4778 39.231 47.497C40.3124 47.721 40.5812 46.8507 40.9332 46.1723C41.2787 45.5132 40.9523 44.9501 40.4724 44.4637C39.8069 43.7854 39.039 43.3183 38.0663 43.3247H38.0727ZM39.5189 45.9292C39.4101 46.3323 39.039 46.2555 38.8278 46.1915C37.4072 45.7436 36.1977 46.2363 35.001 46.9402C33.8428 47.6186 32.5949 47.8233 31.2575 47.5866C30.8735 47.5162 30.6048 47.2986 30.3552 47.0554C29.8497 46.5563 29.2417 46.4155 28.5954 46.5691C27.2068 46.8891 25.8181 46.7099 24.2759 46.6907C24.6279 46.0891 25.127 46.0444 25.5814 45.9612C26.9252 45.718 27.0916 45.5836 27.3668 44.2846C27.5907 43.2159 28.3394 42.7807 29.2801 42.3648C30.08 42.0128 30.528 42.2432 31.0719 42.7231C31.5007 43.1007 32.051 42.9599 32.2302 42.3968C32.4989 41.5713 33.0365 41.2705 33.8428 41.3153C34.8283 41.3665 35.7946 41.5713 36.1273 42.6208C36.4537 43.6574 37.1768 44.1182 38.1111 44.4189C38.5462 44.5597 38.9622 44.7197 39.3461 44.9885C39.7493 45.2764 39.6021 45.59 39.5061 45.9356L39.5189 45.9292Z" fill="white"/>
<path d="M62.9535 40.8994C62.5951 40.4194 61.9616 40.4066 61.7888 40.9314C61.5008 41.7953 61.3473 42.7104 61.6736 43.6126C61.7952 43.939 62.0576 44.1374 62.4415 44.131C62.7935 44.1246 62.9983 43.9134 63.1391 43.6254C63.331 43.2479 63.3246 42.8447 63.2542 42.4864C63.2542 41.904 63.299 41.3601 62.9535 40.8994Z" fill="white"/>
<path d="M62.5506 45.1739C61.9299 45.1675 61.7635 45.6282 61.6611 46.0826C61.6803 46.6137 61.9427 46.9145 62.4098 46.9145C62.9986 46.9145 63.2865 46.5177 63.2929 45.9738C63.2929 45.5195 63.0434 45.1803 62.5506 45.1739Z" fill="white"/>
</svg>
