<svg width="88" height="68" viewBox="0 0 61 80" fill="none" xmlns="http://www.w3.org/2000/svg">
<path d="M30.4025 16.0833C27.6025 16.0833 25.0825 13.8233 25.0825 8.60334C25.0825 3.10334 27.8225 0.743344 30.8225 0.743344C32.6225 0.743344 33.9425 1.48334 34.8425 2.42334L33.2625 4.16334C32.7625 3.58334 31.8425 3.10334 31.0025 3.10334C29.2025 3.10334 27.7825 4.48334 27.7825 8.60334C27.7825 12.4433 28.9025 13.8633 30.3625 13.8633C31.4625 13.8633 32.3625 12.9433 32.3625 11.1433C32.3625 9.38334 31.5225 8.58334 30.2625 8.58334C29.4425 8.58334 28.5025 9.02334 27.7625 10.2433L27.6425 8.24334C28.4225 7.14334 29.8025 6.50334 30.8025 6.50334C33.2825 6.50334 35.0625 7.96334 35.0625 11.1433C35.0625 14.1833 32.9225 16.0833 30.4025 16.0833Z" fill="white"/>
<path d="M58.0584 59.9908C57.6532 59.0981 56.8567 58.7685 55.9571 58.6243C55.0713 58.4801 54.1855 58.3565 53.2997 58.226C54.5014 57.6767 55.6069 57.0381 56.8567 56.6879C57.8524 56.4132 58.3536 55.7608 58.2781 55.1222C58.1751 54.2913 57.2 53.3575 56.3966 53.2201C55.3185 53.0347 54.2679 52.6914 53.1349 52.5952C54.0962 52.2588 54.9134 51.6408 55.9091 51.4279C56.3966 51.3249 56.8498 51.1258 57.2412 50.8168C58.1682 50.0751 58.1339 48.8872 57.1314 48.2554C56.7262 48.0014 56.6987 47.6168 56.6987 47.2666C56.6987 46.0306 56.4584 44.8289 56.2524 43.6204C56.0533 42.453 55.3666 42.1165 54.3022 42.6727C53.698 42.9886 53.1212 43.3388 52.4757 43.586C50.7109 44.259 48.9942 45.0349 47.6758 46.4632C47.511 46.6417 47.3256 46.6829 47.0852 46.6623C46.2132 46.5937 45.3479 46.525 44.4759 46.4907C44.1325 46.4769 44.1051 46.2984 44.0639 46.0237C43.8991 44.9182 43.6862 43.8195 43.542 42.7139C43.4458 41.9517 43.0407 41.6359 42.3128 41.5466C41.3858 41.4298 40.4725 41.4985 39.5524 41.5741C38.7558 41.6427 38.2477 42.1852 38.5704 42.8925C38.9962 43.8332 38.7146 44.774 38.852 45.7079C38.8932 45.9963 38.8451 46.1336 38.4537 46.0855C37.2863 45.9345 37.1421 45.8589 37.1078 44.4375C37.0872 43.6272 36.7507 43.2976 35.9954 43.2427C34.8143 43.1603 33.7019 43.5654 32.5482 43.7165C32.0882 43.7714 31.7242 44.1491 31.6556 44.671C31.5869 45.2134 31.326 45.3165 30.811 45.2066C28.7715 44.7808 26.6909 44.719 24.6171 44.6984C24.5965 44.7602 24.5896 44.8083 24.5828 44.8632C24.5622 45.1722 24.8712 45.1448 25.1184 45.1997C26.3681 45.495 27.6522 45.4332 28.9089 45.6461C28.9501 45.6186 28.9844 45.6255 29.0187 45.6667C29.7123 45.5637 30.3577 45.8864 31.0444 45.9139C31.2436 45.9207 31.4152 46.0031 31.4633 46.2366C31.5114 46.4769 31.3946 46.5799 31.1886 46.6555C30.9758 46.731 30.7972 46.8615 30.7423 47.095C30.5019 48.1387 30.3509 49.1893 30.5981 50.2468C30.6805 50.5901 30.8178 50.9953 31.2916 50.8854C31.7448 50.7824 31.8341 50.4047 31.7723 49.979C31.6624 49.1962 31.5594 48.4134 31.271 47.6718C31.0856 47.1911 31.271 47.0675 31.7242 47.1705C31.8547 47.198 31.9852 47.2598 32.1156 47.2941C32.5345 47.4246 33.1457 47.04 33.3723 47.5756C33.5439 47.9739 33.4478 48.4889 33.4615 48.949C33.4753 49.4091 33.4615 49.876 33.592 50.3292C33.7225 50.7755 33.9971 51.0708 34.4641 51.0296C34.9516 50.9953 35.1233 50.6382 35.1576 50.1713C35.2332 49.0108 35.0821 47.8915 34.622 46.8134C34.4847 46.4838 34.2787 46.2641 33.9079 46.2229C33.6263 46.1885 33.2624 46.2847 33.1319 45.9139C32.9671 45.4263 32.8367 44.925 32.7131 44.4238C32.7062 44.3894 32.8641 44.2727 32.9534 44.2521C33.2006 44.204 33.4478 44.1834 33.6881 44.1766C33.6881 44.1766 33.6881 44.1697 33.6881 44.1628C33.6881 44.1628 33.6881 44.1697 33.6881 44.1766C34.3473 44.1628 34.986 44.2933 35.5971 44.5748C35.9679 44.7465 35.8718 45.186 35.8855 45.5293C35.9404 46.6143 35.7688 47.713 36.0984 48.7773C36.2151 49.1481 36.4005 49.4983 36.8331 49.5807C37.1353 49.6357 37.355 49.4709 37.5473 49.2649C37.6846 49.1207 37.7533 48.9352 37.7464 48.743C37.7395 48.4683 37.6915 48.2005 37.6983 47.9258C37.7052 47.6031 37.2795 47.0881 37.8494 47.0194C38.3164 46.9645 38.9756 46.9851 39.0717 47.7748C39.1198 48.173 39.2365 48.6674 39.7996 48.5507C40.3489 48.4408 40.2665 47.9396 40.2047 47.5413C40.0056 46.2709 39.9506 44.9937 40.0811 43.7165C40.1292 43.2427 40.2185 42.7689 40.9051 42.8856C41.4545 42.9817 42.2579 42.6521 42.2167 43.7028C42.2098 43.9156 42.2716 44.1354 42.306 44.3482C42.5669 45.028 42.4364 45.7422 42.5326 46.4426C42.5944 46.8683 42.5326 47.3284 42.8484 47.6855C43.0613 47.9258 43.4184 48.125 43.645 47.919C44.572 47.0812 45.5608 47.8022 46.5359 47.6443C46.1308 49.155 46.1514 49.1207 47.4698 49.9241C48.4243 50.5077 49.5092 50.6725 50.5461 50.9953C50.9581 51.1258 51.2946 51.2906 51.5761 51.5996C50.7658 52.3068 50.7315 52.3274 49.8114 51.8468C47.4355 50.597 44.8398 50.1919 42.2236 50.1644C41.0356 50.1507 39.882 50.7893 38.8726 51.524C38.3438 51.9086 37.7739 52.2313 37.0872 52.2382C35.913 52.6227 34.6838 52.712 33.4684 52.8699C31.9028 53.0759 30.9552 54.0647 30.2273 55.3488C30.0899 55.5892 30.0213 55.9394 30.2685 56.0973C30.5637 56.2827 30.7629 55.9806 30.914 55.754C31.1886 55.342 31.4839 54.9574 31.7929 54.5729C32.7268 53.3987 34.0933 53.3849 35.3705 53.3025C37.0735 53.1927 38.6803 52.9592 40.0536 51.8536C41.1523 50.9747 42.3403 51.5652 43.5008 51.6545C43.9609 51.6888 44.4141 51.888 44.8673 51.8674C46.2887 51.8193 47.4972 52.2588 48.5273 53.3712C47.0921 54.1128 45.657 54.8613 44.2218 55.596C43.4733 55.9806 42.7042 56.3239 41.9626 56.7291C41.5437 56.9557 41.3309 57.0861 41.3034 56.4132C41.2485 55.1497 40.6717 54.1197 39.6622 53.3437C39.4837 53.2064 39.3258 52.9043 39.0442 53.1171C38.8108 53.3025 39.0099 53.5223 39.106 53.7008C39.6004 54.5798 39.7858 55.5068 39.7515 56.5162C39.7378 56.9145 39.6348 56.9625 39.3052 56.9625C35.7276 57.0106 32.1706 56.6879 28.6204 56.3033C28.2908 56.269 28.0574 56.1934 28.0848 55.7677C28.1123 55.2115 27.5904 54.7995 27.6454 54.2158C27.714 53.4811 27.7415 52.7738 28.1878 52.1146C28.6754 51.3936 28.8814 50.5146 29.1286 49.6837C29.4445 48.5988 28.3664 46.4083 27.357 45.9619C26.89 45.7559 26.6771 45.9825 26.6497 46.422C26.6291 46.6761 26.7801 46.9027 26.9518 47.0812C27.9338 48.1044 28.1054 49.2511 27.5286 50.5352C27.1647 51.3524 27.0686 52.2588 26.6565 53.0759C26.2926 53.7901 26.4574 54.5729 26.5947 55.3282C26.7046 55.8982 26.5055 56.0492 25.9355 55.9394C24.8162 55.7128 23.6832 55.548 22.5571 55.3557C22.1451 55.4587 21.7537 55.342 21.3966 55.2527C21.4378 54.051 21.7125 52.9661 22.6944 52.1832C22.8249 52.0802 22.8729 51.8468 22.921 51.6682C23.4566 49.7661 22.9759 48.4958 21.321 47.4108C21.1837 47.3216 21.0258 47.198 20.8747 47.3078C20.6824 47.452 20.7717 47.6649 20.8747 47.8228C20.9708 47.9808 21.1082 48.125 21.2386 48.2623C22.2 49.3198 22.2343 50.7069 21.3073 51.8056C20.8816 52.3137 20.552 52.8631 20.3254 53.4879C20.14 54.0167 20.5176 54.8338 19.8928 55.0398C19.3846 55.2115 18.7185 54.93 18.128 54.8476C17.9357 54.8201 17.7503 54.7858 17.558 54.7583C16.9194 54.6896 16.9606 54.3531 17.3246 54.0235C17.716 53.6733 17.7435 53.2545 17.819 52.7875C18.0937 51.1738 17.2284 49.8417 16.7409 48.4271C16.5486 47.8572 16.583 47.761 17.1529 47.5688C18.7529 47.0331 20.4284 46.6967 21.9391 45.9001C22.3099 45.701 22.8317 45.5637 22.6463 45.083C22.4472 44.5611 21.9459 44.8976 21.5683 44.9868C21.4653 45.0074 21.3622 45.0692 21.2592 45.0967C19.364 45.6804 17.5237 46.4426 15.5667 46.8065C15.3126 46.8546 15.086 46.9507 14.9006 46.7241C14.1796 45.8246 13.1221 45.6323 12.1058 45.3439C11.0621 45.6598 9.97711 45.7285 8.90589 45.8933C7.15486 46.1611 5.38323 46.2091 3.62533 46.422C3.16526 46.4769 2.79445 46.6898 2.64338 47.1705C2.62965 47.2186 2.61591 47.2598 2.60218 47.301C3.46053 47.3078 4.27081 46.9507 5.15662 47.0538C6.98319 47.2598 8.78916 46.6143 10.5745 46.6486C12.3393 46.6898 14.1933 47.1705 15.4774 48.6537C15.9375 49.1893 15.91 49.9584 15.9581 50.6176C16.0405 51.6888 16.5555 52.7189 16.2053 53.8313C16.0542 54.3188 15.8894 54.566 15.3263 54.4493C11.8723 53.7351 8.38402 53.3506 4.85449 53.3369C4.55921 53.3369 4.24334 53.2957 3.96867 53.1858C3.59786 53.0416 3.13779 52.8699 3.6322 52.3343C3.81073 52.142 3.78327 51.8811 3.7352 51.627C3.46053 50.2193 3.32319 48.7704 2.55411 47.507C2.45111 48.7842 2.45111 50.0614 2.58158 51.3318C2.62278 51.7369 2.69145 52.1489 2.55411 52.5403C2.30691 53.2476 2.67085 53.6184 3.26139 53.8656C3.694 54.0441 4.15407 54.0991 4.62101 54.1059C5.21843 54.1128 5.81584 54.0853 6.41325 54.1197C6.65358 54.1334 6.92826 54.0922 7.09993 54.2776C7.12739 54.2776 7.15486 54.2776 7.18233 54.2776C7.73167 54.2707 8.28101 54.2845 8.80976 54.4218C9.08443 54.4905 9.4827 54.4424 9.51704 54.8407C9.5445 55.1703 9.20116 55.2664 8.95396 55.3557C7.28533 55.9737 5.8021 56.99 4.12661 57.5943C4.05107 57.6217 3.97554 57.6561 3.9 57.6904C3.52233 57.8895 2.91805 58.0063 2.92492 58.4526C2.93178 58.9127 3.52233 59.0981 3.91374 59.311C4.38068 59.565 4.92315 59.5444 5.43816 59.5307C6.72912 59.4895 8.00634 59.6062 9.26983 59.8328C9.53077 59.8809 9.89471 59.874 9.93591 60.1899C9.96338 60.4303 9.65437 60.5607 9.4415 60.6912C7.8072 61.7006 6.00124 62.353 4.29141 63.2182C4.21587 63.2525 4.14034 63.28 4.0648 63.3212C3.6528 63.5615 2.95238 63.6439 3.02105 64.2001C3.08972 64.7357 3.7558 64.8525 4.24334 65.0104C4.42874 65.0653 4.62101 65.0928 4.81328 65.0928C9.07069 65.1065 13.2388 65.8825 17.407 66.6447C20.0164 67.1254 22.6601 67.3176 25.2969 67.5923C26.9243 67.7571 28.5243 68.1691 30.1655 68.2927C32.2186 68.4438 34.1894 69.0343 36.2288 69.2884C37.046 69.3914 37.87 69.3159 38.6872 69.3983C39.0374 69.4326 39.3944 69.4876 39.6966 69.7073C39.7103 69.721 39.7172 69.7416 39.724 69.7554C40.2665 69.4052 40.8021 69.412 41.3446 69.7691C42.8347 69.0275 44.3248 68.2927 45.8218 67.558C49.0011 65.9924 52.0568 64.1589 55.3323 62.7787C56.0052 62.4903 56.7399 62.3255 57.3923 61.9959C58.3399 61.5152 58.5116 60.9178 58.0721 59.9564L58.0584 59.9908ZM51.5143 50.3773C50.2028 50.0957 49.3101 49.0245 48.0809 48.5782C47.7651 48.4614 47.9917 48.2142 48.1153 48.0494C49.1109 46.7035 50.347 45.6804 51.9469 45.1104C52.716 44.8358 53.4851 44.5474 54.1512 44.053C54.4464 43.8332 54.7692 43.8538 55.0713 44.0392C55.3529 44.2109 55.4833 44.4581 55.3529 44.7946C55.4353 46.1405 55.5039 47.4932 55.6069 48.8322C55.655 49.4228 55.3803 49.7043 54.9271 50.0683C53.8147 50.9678 52.6817 50.6245 51.5143 50.3704V50.3773ZM4.003 58.4801C5.26649 57.9513 6.51625 57.402 7.79347 56.9076C9.2355 56.3514 10.7668 56.0355 12.0783 55.1772C12.3256 55.0124 12.559 55.136 12.7925 55.1772C15.2439 55.5892 17.6679 56.1866 20.1468 56.3926C23.6626 56.681 27.1304 57.2715 30.6324 57.6904C32.2255 57.8758 33.7911 58.281 35.3842 58.4938C36.7645 58.6792 38.1653 58.6518 39.5386 58.8646C40.4382 59.0088 41.118 58.693 41.8527 58.3084C44.7162 56.8389 47.5934 55.39 50.4706 53.9411C50.6834 53.8313 50.8826 53.7214 51.1641 53.8038C52.4963 54.2227 53.849 54.5386 55.2293 54.772C55.4559 54.8132 55.6619 54.978 55.9777 55.1291C53.5538 56.4132 51.2259 57.6698 48.8843 58.8921C46.687 60.0388 44.4759 61.1513 42.2648 62.2637C41.4613 62.6688 40.5961 62.353 39.7721 62.3736C34.9036 62.4697 30.0762 61.9135 25.2695 61.1993C22.1382 60.7324 18.9795 60.444 15.8688 59.8603C11.9616 59.1324 8.02694 58.8578 4.00987 58.4801H4.003ZM52.5512 62.5109C50.4774 63.6027 48.4105 64.7151 46.3299 65.7932C44.9085 66.5348 43.5076 67.3382 42.0176 67.9151C41.3309 68.1829 40.4657 67.9631 39.676 67.97C34.4778 68.0249 29.3346 67.4 24.2051 66.6104C21.479 66.1915 18.7254 65.9512 16.0199 65.4567C12.2226 64.7632 8.39775 64.4473 4.50428 64.0422C5.4931 63.5478 6.48191 63.0534 7.4776 62.5727C8.94709 61.8585 10.5745 61.4946 11.9822 60.65C12.5934 60.2861 13.1702 60.547 13.7264 60.6637C17.661 61.4809 21.6507 61.8792 25.6403 62.353C29.1561 62.7718 32.665 63.3006 36.1533 63.9461C37.4031 64.1795 38.7215 64.0697 39.9781 64.2757C40.8777 64.4267 41.5575 64.1246 42.2991 63.7469C45.0183 62.353 47.7582 61.0002 50.4774 59.6062C50.8482 59.414 51.1778 59.4002 51.5624 59.5032C52.9838 59.874 54.4121 60.2105 55.8885 60.7736C54.7761 61.3573 53.6636 61.9341 52.5512 62.5178V62.5109Z" fill="white"/>
<path d="M7.21006 54.5248C7.97227 54.518 8.72075 54.6278 9.4555 54.8544C7.44353 55.5823 5.72683 56.8389 3.73546 57.5256C3.33032 57.6629 2.97325 57.9514 2.62304 58.2054C2.39644 58.3634 2.3003 58.6792 2.57498 58.8166C3.26165 59.1736 3.77666 59.8123 4.70368 59.7848C6.41351 59.7367 8.12334 59.8397 9.90184 60.1762C7.98601 61.3847 5.9603 62.1813 4.01013 63.122C3.57066 63.3349 3.09685 63.5066 2.74664 63.8637C2.46511 64.1521 2.43077 64.4679 2.80158 64.6808C3.47452 65.0585 4.15434 65.3744 4.98522 65.3538C7.25813 65.3057 9.51043 65.6147 11.749 65.9512C14.3103 66.3357 16.8579 66.8438 19.4261 67.2078C21.7745 67.5443 24.1504 67.6679 26.492 68.0524C28.8885 68.4438 31.3331 68.5056 33.6884 69.1099C35.666 69.618 37.6917 69.5562 39.69 69.8034C39.7037 69.7966 39.7106 69.7966 39.7243 69.7897C39.7174 69.776 39.7106 69.7554 39.6968 69.7416C39.4016 69.5219 39.0445 69.467 38.6874 69.4326C37.8703 69.3502 37.0531 69.4326 36.2291 69.3228C34.1965 69.0687 32.2189 68.4781 30.1657 68.3271C28.5314 68.2035 26.9315 67.7915 25.2972 67.6267C22.6603 67.3589 20.0166 67.1597 17.4072 66.679C13.2391 65.9168 9.07783 65.1409 4.81355 65.1271C4.62128 65.1271 4.42901 65.0997 4.24361 65.0447C3.7492 64.8868 3.08312 64.7701 3.02132 64.2345C2.95265 63.6783 3.65306 63.589 4.06507 63.3555C4.13374 63.3143 4.21614 63.2937 4.29167 63.2525C5.99464 62.3873 7.80747 61.735 9.44176 60.7255C9.64777 60.5951 9.96364 60.4646 9.93617 60.2243C9.89497 59.9084 9.52417 59.9153 9.2701 59.8672C7.99974 59.6406 6.72252 59.5238 5.43843 59.565C4.91655 59.5856 4.38094 59.5994 3.914 59.3453C3.52259 59.1324 2.93205 58.9402 2.92518 58.487C2.91831 58.0406 3.52259 57.9239 3.90027 57.7247C3.9758 57.6835 4.05133 57.6561 4.12687 57.6286C5.80237 57.0243 7.28559 56.0149 8.95422 55.39C9.20143 55.3008 9.5379 55.2046 9.5173 54.875C9.48297 54.4768 9.08469 54.5248 8.81002 54.4562C8.27441 54.3257 7.73193 54.3051 7.18259 54.312C7.15512 54.312 7.12766 54.312 7.10019 54.312C7.14826 54.3669 7.18946 54.4287 7.21693 54.5248H7.21006Z" fill="white"/>
<path d="M2.4101 47.3354C2.01869 48.7225 2.2041 50.1165 2.36203 51.5105C2.4101 51.8881 2.51997 52.2589 2.27276 52.6091C1.92256 53.1036 2.16289 53.4606 2.54057 53.804C3.02124 54.2434 3.60492 54.2846 4.2092 54.3533C4.44954 54.3808 4.69674 54.3876 4.93708 54.3876C5.63749 54.2022 6.37224 54.367 7.09325 54.3121C6.92158 54.1267 6.64004 54.1679 6.40657 54.1542C5.80916 54.1198 5.21175 54.1473 4.61434 54.1404C4.1474 54.1404 3.68732 54.0786 3.25471 53.9001C2.66417 53.6529 2.30023 53.2821 2.54744 52.5748C2.68477 52.1834 2.6161 51.7714 2.5749 51.3663C2.44443 50.089 2.44443 48.8187 2.54744 47.5415C2.5131 47.4797 2.47877 47.4178 2.43757 47.356C2.4307 47.356 2.42383 47.3492 2.41697 47.3423L2.4101 47.3354Z" fill="white"/>
<path d="M2.42389 47.3285C2.42389 47.3285 2.41702 47.3285 2.41016 47.3285C2.41702 47.3285 2.42389 47.3354 2.43076 47.3422C2.43076 47.3422 2.43076 47.3285 2.42389 47.3285Z" fill="white"/>
<path d="M2.43073 47.3286C2.43073 47.3286 2.42386 47.3217 2.41699 47.3148C2.41699 47.3148 2.41699 47.3217 2.42386 47.3286C2.42386 47.3286 2.42386 47.3286 2.43073 47.3286Z" fill="white"/>
<path d="M11.0346 45.3508C8.59684 45.8246 6.1248 45.9551 3.66649 46.1748C3.04847 46.2297 2.30686 46.3808 2.403 47.3284L2.41673 47.3147C2.41673 47.3147 2.4236 47.3216 2.43046 47.3284C2.4854 47.3284 2.53347 47.3284 2.5884 47.3284C2.60213 47.2872 2.61587 47.2392 2.6296 47.198C2.78754 46.7242 3.15148 46.5113 3.61155 46.4495C5.36945 46.2366 7.14108 46.1954 8.89211 45.9207C9.96333 45.7559 11.0483 45.6873 12.092 45.3714C11.735 45.3577 11.371 45.2821 11.0346 45.3439V45.3508Z" fill="white"/>
<path d="M4.9375 54.3875C5.69971 54.3875 6.46193 54.312 7.21041 54.5249C7.18294 54.4287 7.14174 54.3601 7.09367 54.312C6.37953 54.3738 5.63791 54.2021 4.9375 54.3875Z" fill="white"/>
<path d="M39.7178 69.7897C39.7178 69.7897 39.7178 69.8034 39.7246 69.8034C40.2603 69.8034 40.7959 69.8034 41.3383 69.8034C40.7959 69.4463 40.2602 69.4395 39.7178 69.7897Z" fill="white"/>
<path d="M39.7238 69.8035C39.7238 69.8035 39.7238 69.7898 39.717 69.7898C39.7032 69.7967 39.6964 69.7967 39.6826 69.8035H39.7238Z" fill="white"/>
<path d="M42.0585 37.4334C43.5005 37.4472 44.8876 37.5639 46.1167 38.4497C46.3914 38.6488 46.7759 38.7175 47.1193 38.7724C48.4102 38.9853 49.7081 39.1982 50.8754 39.1089C51.7132 39.1089 52.3998 39.1364 53.0797 39.0952C53.3955 39.0746 53.7114 38.9304 54.0204 38.8274C55.4693 38.333 55.7371 37.2549 54.6796 36.1425C54.3637 35.8129 54.2195 35.5039 54.2058 35.0026C54.1921 34.261 54.1783 33.4301 53.4779 32.9151C52.8324 32.4413 52.1183 32.0705 51.3012 32.0636C50.7724 32.0636 50.484 31.8645 50.2574 31.37C49.8042 30.3469 49.0008 29.7769 47.8128 29.8044C46.4257 29.8319 45.4644 30.4293 45.0592 31.7958C44.9837 32.0636 44.9425 32.2215 44.5786 32.1391C43.3013 31.8576 42.5185 32.5649 42.0791 33.6224C41.7289 34.467 41.1108 34.7966 40.3074 34.982C39.5589 35.1536 39.3323 35.7648 39.7581 36.4034C40.3074 37.2205 41.1589 37.4266 42.0516 37.4403L42.0585 37.4334ZM41.825 35.5588C42.5735 35.4901 43.0679 35.1056 43.0953 34.3502C43.1159 33.8352 43.3425 33.7116 43.7889 33.6773C44.2215 33.643 44.6472 33.5331 45.073 33.4232C45.5468 33.2927 45.8627 33.0112 45.9657 32.4756C46.1511 31.5554 46.6523 31.1434 47.5794 31.0267C48.424 30.9168 48.8016 31.473 49.1244 32.1048C49.2617 32.3726 49.3716 32.6473 49.4883 32.9288C49.6737 33.3751 49.9759 33.5125 50.4634 33.4507C51.9741 33.2721 52.3312 33.5949 52.29 35.1262C52.2694 35.8884 52.3243 36.5957 53.1483 37.2892C50.7449 37.3373 48.63 37.3442 46.5219 36.7124C45.1622 36.3073 43.734 36.0532 42.2782 36.1013C42.1409 36.1013 41.9898 36.1425 41.8731 36.1013C41.5366 35.9639 40.8842 36.0875 40.9117 35.6961C40.946 35.2498 41.4954 35.6 41.8113 35.5725L41.825 35.5588Z" fill="white"/>
<path d="M10.7044 42.0547C10.8761 42.0135 11.2538 41.9448 11.6177 41.8418C13.0323 41.4298 14.4194 40.8874 15.8614 40.6333C17.0837 40.4135 18.148 40.029 19.1025 39.2462C19.645 38.8067 19.7549 38.3054 19.5214 37.7286C18.7935 35.9501 17.4339 34.6454 16.0811 33.3614C15.7035 33.0043 15.1541 32.7639 14.646 32.606C13.9112 32.3794 13.1833 32.4343 12.6409 33.1141C11.9267 34.0068 11.24 34.8858 10.828 35.9845C10.2718 37.4883 9.51647 38.9235 9.21434 40.5165C9.02893 41.4848 9.53021 42.0547 10.7044 42.0684V42.0547ZM12.4898 35.545C12.6683 35.1467 12.8949 34.769 13.0391 34.3639C13.2383 33.7871 13.6228 33.7528 14.0692 33.9862C15.7584 34.8789 16.7953 36.3415 17.5918 38.017C17.791 38.4359 17.3721 38.4428 17.1867 38.5732C15.2846 39.926 13.0185 40.3449 10.7456 41.1414C10.8418 39.0265 11.7138 37.296 12.4898 35.545Z" fill="white"/>
<path d="M25.7093 38.0582C25.8329 38.0994 25.9839 38.0651 26.1144 38.0925C27.4603 38.3947 28.8817 38.1818 30.1933 38.7861C30.722 39.0264 31.3538 39.0539 31.8344 39.1569C32.9812 39.0539 34.0112 38.8891 34.9588 38.4359C36.2773 37.811 36.4833 36.5201 35.4326 35.545C34.9314 35.0849 34.4164 34.6523 34.0112 34.0892C33.6541 33.5948 33.0979 33.3201 32.5005 33.1485C32.2945 33.0867 32.0885 33.0592 31.8962 32.9219C30.4474 31.8506 28.8131 32.3519 27.9478 33.9656C27.6457 34.515 26.9247 34.8308 26.7736 35.5656C26.7599 35.6274 26.4715 35.6342 26.3135 35.6617C26.0457 35.7166 25.7436 35.7098 25.517 35.8334C24.9608 36.1424 24.1711 36.3553 24.2329 37.1381C24.2947 37.9552 25.1325 37.8659 25.7024 38.0513L25.7093 38.0582ZM26.6638 36.4651C27.323 36.3965 27.6251 36.0462 27.7144 35.4214C27.783 34.9613 27.7899 34.4325 28.5453 34.6042C28.7375 34.6454 28.8749 34.357 29.0191 34.1922C29.8911 33.1553 30.3512 33.2309 31.5392 33.8351C32.2877 34.2197 32.8988 34.3364 32.6104 35.3802C32.5211 35.7098 32.9606 36.0188 33.3108 36.2179C33.5717 36.3621 33.8739 36.4377 34.1966 36.9458C31.2576 37.7149 28.4354 37.2136 25.4346 37.09C25.8878 36.6299 26.2861 36.5063 26.6706 36.4651H26.6638Z" fill="white"/>
<path d="M2.56098 47.4109C2.56098 47.4109 2.49918 47.3834 2.46484 47.3628C2.49231 47.3903 2.51978 47.4109 2.54725 47.4383C2.54725 47.4315 2.54725 47.4177 2.55411 47.4109H2.56098Z" fill="white"/>
<path d="M2.55424 47.4384C2.55424 47.4384 2.4993 47.3835 2.47183 47.3629C2.4581 47.3629 2.44437 47.3492 2.4375 47.3423C2.4787 47.4041 2.51303 47.4659 2.54737 47.5277C2.54737 47.5071 2.54737 47.4796 2.54737 47.459C2.54737 47.459 2.54737 47.4453 2.54737 47.4384H2.55424Z" fill="white"/>
<path d="M2.43073 47.3422C2.43073 47.3422 2.45819 47.356 2.46506 47.3628C2.45133 47.3491 2.43759 47.3422 2.42386 47.3285C2.42386 47.3285 2.42386 47.3285 2.41699 47.3285C2.41699 47.3285 2.41699 47.3422 2.42386 47.3422H2.43073Z" fill="white"/>
<path d="M2.42386 47.3286C2.42386 47.3286 2.42386 47.3217 2.41699 47.3148C2.41699 47.3148 2.41699 47.3217 2.41699 47.3286C2.41699 47.3286 2.42386 47.3286 2.43073 47.3286H2.42386Z" fill="white"/>
<path d="M2.465 47.3628C2.465 47.3628 2.5268 47.3972 2.56113 47.4109C2.568 47.3834 2.57487 47.356 2.5886 47.3285C2.53367 47.3285 2.4856 47.3285 2.43066 47.3285C2.4444 47.3422 2.45813 47.3491 2.47186 47.3628H2.465Z" fill="white"/>
<path d="M33.6748 44.1766C33.6748 44.1766 33.6748 44.1835 33.6748 44.1904C33.6748 44.1904 33.6748 44.1904 33.6817 44.1904C33.6817 44.1904 33.6817 44.1835 33.6817 44.1766H33.6748Z" fill="white"/>
<path d="M4.13364 48.4751C4.35337 48.5712 4.60058 48.6056 4.83405 48.6674C5.9602 48.9901 7.31296 49.0244 8.16444 49.6905C9.92921 51.0707 12.4356 51.16 13.8364 53.0896C13.9188 53.1994 14.1179 53.2475 14.2759 53.2681C14.4956 53.3025 14.7222 53.2819 14.8664 53.0758C15.0312 52.8492 15.0106 52.602 14.839 52.396C14.2141 51.6476 13.6373 50.8716 12.5317 50.7137C11.5086 50.5695 10.4373 50.3017 9.6408 49.6425C8.08891 48.3652 6.11127 48.4545 4.60744 47.8022C4.18857 47.761 3.9757 47.7198 3.88643 47.9395C3.77656 48.1867 3.92763 48.3721 4.1405 48.4682L4.13364 48.4751Z" fill="white"/>
<path d="M53.4643 49.4571C53.6566 48.3653 54.1098 47.3284 54.1853 46.2229C54.1372 45.9894 54.302 45.6804 54.0136 45.5637C53.7939 45.4744 53.5604 45.6529 53.4506 45.8109C52.7364 46.8615 52.345 48.0288 52.3587 49.3061C52.3587 49.6082 52.606 49.8623 52.9493 49.8897C53.2308 49.9103 53.4231 49.7181 53.4643 49.464V49.4571Z" fill="white"/>
<path d="M14.6127 37.0764C14.9011 36.582 14.7157 35.4764 14.2831 35.1056C13.9329 34.8035 13.6445 34.8928 13.3905 35.2361C13.1982 35.497 13.2256 35.7992 13.2119 36.2455C13.2394 36.3966 13.2737 36.6919 13.3424 36.9803C13.4111 37.2549 13.5759 37.4747 13.8849 37.509C14.2282 37.5433 14.4479 37.3579 14.6059 37.0833L14.6127 37.0764Z" fill="white"/>
<path d="M14.2689 37.818C13.8157 37.8592 13.5891 38.1339 13.6097 38.5734C13.6234 38.9579 13.8706 39.1639 14.2414 39.1708C14.7084 39.1708 14.9144 38.903 14.9487 38.4086C14.8869 38.0652 14.7221 37.7768 14.2758 37.818H14.2689Z" fill="white"/>
</svg>
