<svg width="98" height="98" viewBox="0 0 98 98" fill="none" xmlns="http://www.w3.org/2000/svg">
<path d="M46.8025 25.8033C47.0825 20.6833 47.9225 17.3833 50.7625 13.4633H44.1025V11.0033H53.9225V12.7833C50.4825 16.9833 50.0425 20.0233 49.7825 25.8033H46.8025Z" fill="white"/>
<path d="M70.193 52.8819C69.1017 52.5729 68.0253 52.244 67.0137 51.7407C65.4838 50.9833 63.8742 50.4052 62.3493 49.6428C61.3128 49.1245 60.2763 48.666 59.1451 48.4069C58.6268 48.2873 58.1434 48.098 57.665 47.8239C56.1302 46.9468 54.5654 46.1096 52.6917 46.2591C51.9941 46.3139 51.6502 46.5232 51.4011 47.181C51.0821 48.0232 51.0074 48.9152 50.818 49.7823C50.4542 51.4069 50.23 53.0513 49.936 54.6858C49.6569 56.2506 49.5672 57.8353 49.4127 59.41C49.3679 59.8784 49.2333 60.4415 49.6669 60.7505C50.1951 61.1242 50.6187 61.6226 51.2366 61.8917C52.7615 62.5544 54.2216 63.3667 55.7714 63.9597C56.778 64.3484 56.7681 65.1707 56.9774 65.9381C57.0073 66.0577 57.072 66.272 56.788 66.267C55.5671 66.2421 54.5854 66.7803 53.7183 67.5925C53.1053 68.1656 53.1103 68.5643 53.7582 69.1075C54.3063 69.5659 54.9093 69.9297 55.5472 70.2636C56.7481 70.8915 58.0189 71.33 59.2647 71.8483C60.052 72.1772 60.8145 72.5509 61.6567 72.7502C62.1101 72.8599 62.4789 72.7801 62.8377 72.536C63.3809 72.1672 63.8792 71.7436 64.3028 71.2403C64.7662 70.6872 64.7812 70.1639 64.2828 69.6506C63.9639 69.3267 63.5951 69.0626 63.1417 68.933C62.2347 68.6789 61.3726 68.3849 61.4723 67.164C61.4872 66.9846 61.3876 66.7952 61.3228 66.546C62.748 67.0294 64.0337 67.6623 65.2895 68.3251C66.5253 68.9729 67.801 69.4912 69.1316 69.8898C69.6149 70.0343 70.0136 69.8699 70.2827 69.4812C70.6365 68.9729 70.8707 68.3998 70.806 67.752C70.791 67.5975 70.7163 67.448 70.806 67.2886C71.2544 66.5211 71.1946 65.6391 71.3292 64.8069C71.5086 63.6557 71.5235 62.4797 71.693 61.3286C71.977 59.4299 72.3508 57.5512 72.5949 55.6476C72.6547 55.1892 72.5949 54.7556 72.3308 54.3968C71.7827 53.6742 71.0501 53.1111 70.198 52.867L70.193 52.8819ZM61.5968 69.4065C61.7115 69.2021 61.8859 69.252 61.9905 69.3566C62.3593 69.7204 63.0071 69.6307 63.2513 70.1539C63.2762 70.2088 63.1417 70.3483 63.0669 70.438C62.7779 70.8018 62.3543 71.0011 62.0105 71.2951C61.8809 71.4047 61.7364 71.4097 61.567 71.3649C59.4989 70.8267 57.4308 70.2885 55.5422 69.252C55.1784 69.0526 54.8395 68.8085 54.4757 68.6041C54.0572 68.3749 54.0023 68.1606 54.4508 67.9015C54.999 67.5826 55.5272 67.2288 56.0853 66.9248C56.5488 66.6756 57.0073 66.9447 57.1069 67.4729C57.1617 67.7769 57.2714 68.0909 57.6401 68.0859C58.0438 68.0859 58.0488 67.7271 58.0836 67.4281C58.1434 66.865 58.0139 66.3218 57.9192 65.7786C57.8743 65.5245 57.8195 65.2753 57.8893 64.9863C58.7663 65.3102 59.6185 65.674 60.4258 66.1225C60.7746 66.3168 60.8743 66.7055 60.8444 67.1042C60.7995 67.7171 60.7447 68.3301 60.6999 68.938C60.6799 69.2171 60.66 69.5161 60.969 69.6656C61.258 69.8051 61.4673 69.6506 61.6068 69.4015L61.5968 69.4065ZM71.5335 55.3187C71.075 57.9947 70.9704 60.7206 70.3525 63.3717C70.1282 64.3385 69.9189 65.3052 69.7495 66.277C69.6448 66.87 69.5651 67.458 69.3807 68.0361C69.2562 68.4148 69.1216 68.4895 68.7479 68.3799C67.3974 67.9763 66.1167 67.4131 64.831 66.85C62.6932 65.9132 60.5553 64.9664 58.4524 63.9448C56.3544 62.9232 54.2316 61.9465 52.1137 60.9648C51.7349 60.7904 51.3961 60.5462 51.0273 60.3518C50.7981 60.2372 50.8031 60.0678 50.828 59.8535C51.1021 57.1326 51.3712 54.4118 51.6303 51.6909C51.6652 51.3371 51.6303 50.9783 51.6303 50.6195C51.5306 49.7474 51.8944 48.99 52.2283 48.2325C52.4276 47.784 53.3744 47.5697 54.1469 47.7043C55.4624 47.9335 56.6833 48.4418 57.9441 48.8504C59.0903 49.2242 60.1816 49.7424 61.3128 50.1212C62.3194 50.455 63.3958 50.5896 64.3725 51.0431C65.8077 51.7158 67.228 52.4284 68.703 53.0214C69.5103 53.3453 70.203 53.9035 71.0103 54.2523C71.4438 54.4367 71.6232 54.7955 71.5335 55.3187Z" fill="white"/>
<path d="M34.4476 51.8602C35.2599 52.0794 35.9476 52.2987 36.7848 52.0446C37.9608 51.6907 39.1618 51.4216 40.3827 51.2572C40.8411 51.1974 41.2996 50.6144 41.6833 50.9084C42.0371 51.1825 41.778 51.8004 41.7531 52.2688C41.7282 52.7821 41.9973 53.0811 42.4806 53.2156C43.1683 53.405 43.8361 53.2505 44.4441 52.9714C44.9573 52.7372 44.8178 52.1442 44.9075 51.6957C44.9523 51.4665 45.0171 51.2024 44.9474 50.9881C44.7331 50.3004 45.1616 50.0662 45.66 49.8121C47.1151 49.0496 48.2911 48.048 48.5004 46.2739C48.6549 44.9384 48.2612 43.7524 47.6184 42.5963C47.1849 41.8189 46.7364 41.2209 45.7347 41.4451C45.645 41.4651 45.5404 41.4152 45.4457 41.3903C42.675 40.6877 39.8844 40.0847 37.0239 39.8953C35.9824 39.8256 34.926 39.5465 34.024 40.4983C33.6503 40.892 33.1569 41.181 32.9177 41.6943C32.3397 42.9301 32.1005 44.2457 31.9609 45.4666C32.0556 46.5181 32.0307 47.4699 32.245 48.3669C32.5739 49.7423 32.549 51.332 34.4476 51.8502V51.8602ZM43.8959 52.3635C43.5969 52.5578 43.1833 52.5728 42.7996 52.4931C42.5853 52.4532 42.5703 52.3087 42.5903 52.1392C42.6102 51.9598 42.6252 51.7854 42.6551 51.4914C42.7348 51.3021 42.3212 50.8536 42.9391 50.6891C43.3976 50.5695 43.6517 50.6791 43.7414 51.1476C43.7663 51.2821 43.8461 51.4117 43.856 51.5462C43.876 51.8253 44.2049 52.1642 43.8959 52.3585V52.3635ZM34.1685 41.3205C34.5074 40.6976 34.7167 40.578 35.4094 40.7425C36.5356 41.0066 37.6967 41.1262 38.8727 41.171C39.9441 41.2109 41.0106 41.5747 42.077 41.794C42.2713 41.8338 42.4757 41.9185 42.66 41.8886C43.7215 41.7192 44.6783 42.2275 45.6949 42.3272C45.8942 42.3471 46.0188 42.4767 46.1085 42.6311C46.5918 43.4982 47.1051 44.3504 47.3294 45.3271C47.4091 45.666 47.3643 45.9949 47.2795 46.3287C47.1649 46.7872 47.0104 47.2307 46.9756 47.7191C46.9457 48.1726 46.0188 49.0496 45.5653 49.0247C44.7032 48.9798 43.9607 49.3835 43.1633 49.543C41.5238 49.8818 39.984 50.5845 38.3047 50.8037C37.4924 50.9084 36.6851 51.1675 35.8628 51.2722C35.2748 51.3469 34.8861 51.1276 34.5373 50.6144C33.5058 49.0845 33.2217 47.3702 33.122 45.2723C33.1619 44.0912 33.431 42.671 34.1685 41.3205Z" fill="white"/>
<path d="M26.5845 46.4932C26.3104 46.4633 26.0314 46.4882 25.7523 46.4882C25.7523 46.4633 25.7523 46.4434 25.7523 46.4185C25.4184 46.4384 25.0796 46.4484 24.7457 46.4882C24.4118 46.5231 24.1128 46.6676 24.1028 47.0563C24.0929 47.4251 24.3271 47.6643 24.6709 47.7141C25.259 47.7988 25.847 47.8736 26.44 47.739C26.6643 47.6892 26.8387 47.5746 26.9732 47.3902C27.2772 46.9716 27.0978 46.548 26.5795 46.4932H26.5845Z" fill="white"/>
<path d="M27.935 51.8502C28.1294 52.0993 28.3885 52.1591 28.6775 52.0694C29.0912 51.9498 29.3951 51.6508 29.7191 51.3967C29.9533 51.2123 30.0529 50.9432 29.9483 50.6492C29.8387 50.3402 29.5696 50.2705 29.2058 50.2705C28.6177 50.2306 28.2789 50.694 27.94 51.1276C27.7706 51.3469 27.7507 51.606 27.935 51.8452V51.8502Z" fill="white"/>
<path d="M26.136 42.7357C26.44 42.9351 26.8037 42.9799 27.1476 43.0397C27.4416 43.0896 27.6908 42.965 27.8253 42.671C27.9549 42.3869 27.8253 42.1776 27.6359 41.9833C27.322 41.6594 26.9233 41.5746 26.5595 41.5896C26.126 41.5497 25.7473 41.5248 25.6177 41.9733C25.4931 42.4019 25.8619 42.5514 26.136 42.7308V42.7357Z" fill="white"/>
<path d="M34.9563 57.7056C34.9563 57.7056 34.9513 57.7056 34.9463 57.7056C34.9463 57.7056 34.9463 57.7105 34.9513 57.7155C34.9513 57.7155 34.9513 57.7105 34.9513 57.7056H34.9563Z" fill="white"/>
<path d="M33.506 72.4711C33.9445 73.3382 34.4129 74.2003 34.6222 75.1571C34.8714 76.2734 35.3398 76.6122 36.4561 76.373C38.8979 75.8448 41.3646 75.4013 43.7865 74.7884C44.2101 74.6787 44.6585 74.7036 45.0821 74.599C45.3612 74.5292 45.7748 74.5392 45.6552 74.1106C45.5506 73.7369 45.1768 73.8316 44.8878 73.9163C43.9509 74.1854 43.0091 74.4296 42.0573 74.6239C40.348 74.9727 38.6487 75.3963 36.9295 75.6853C36.5458 75.7501 36.1471 76.1039 35.8033 75.8946C35.4943 75.7053 35.589 75.202 35.4245 74.8581C34.7618 73.5226 34.1937 72.1472 33.6256 70.7718C33.3116 70.0044 33.3963 69.835 34.1837 69.6705C35.3099 69.4313 36.4062 69.0775 37.5374 68.8333C39.4211 68.4297 41.3048 68.051 43.1586 67.5177C43.6868 67.3633 43.921 67.5177 44.1104 68.051C44.3845 68.8184 44.6934 69.5709 44.9077 70.3582C45.1918 71.4197 45.725 72.3814 46.0738 73.413C46.1585 73.6721 46.2881 74.006 46.6419 73.8814C47.0406 73.7419 46.9608 73.3781 46.8562 73.0691C46.622 72.3964 46.313 71.7486 46.0389 71.0908C45.2266 69.1473 44.5639 67.149 43.916 65.1507C43.7217 64.5627 43.4077 64.0295 43.1436 63.4763C42.5755 62.2753 41.9377 61.1043 41.4991 59.8435C41.4344 59.6641 41.3596 59.4797 41.1752 59.3601C41.0357 59.5694 41.1503 59.7339 41.2101 59.8834C41.6088 60.8601 41.9277 61.8617 42.1221 62.8983C42.1968 63.2919 42.3812 63.6457 42.5606 64.0045C42.9094 64.7122 42.8197 64.9364 42.0523 65.1856C40.5224 65.6839 38.9577 66.0676 37.378 66.3865C35.9926 66.6656 34.6621 67.154 33.2668 67.3832C32.5342 67.5028 32.3548 67.4231 32.1007 66.7254C31.4927 65.0261 30.9196 63.3119 30.4911 61.5528C30.2967 60.7505 30.4911 60.5362 31.3632 60.581C31.3881 60.591 31.408 60.6059 31.4329 60.6159C31.6671 60.4814 31.9362 60.4913 32.1904 60.4465C32.2402 60.1525 32.5143 60.1325 32.7186 60.0628C33.6405 59.7688 34.5624 59.4698 35.5242 59.3302C35.8581 59.2804 36.172 59.1907 36.3863 58.8817C36.1471 58.6375 35.888 58.7173 35.6438 58.7522C34.7817 58.8718 33.9345 59.0512 33.1073 59.3402C32.8631 59.4249 32.594 59.5993 32.3299 59.3651C31.5027 59.6641 30.6854 60.0079 29.7735 59.9531C29.3997 59.9282 29.2353 60.1475 29.2104 60.4913C29.1904 60.7554 29.3001 60.9946 29.3898 61.2338C29.7336 62.1557 30.0077 63.1026 30.207 64.0643C30.506 65.5244 31.0592 66.8899 31.6173 68.2603C32.1754 69.6307 32.8482 70.9512 33.3116 72.3615C33.3963 72.3615 33.4661 72.4014 33.506 72.4761V72.4711ZM42.7051 65.8832C42.6951 65.7437 42.8048 65.6241 42.9194 65.659C43.318 65.7736 43.2034 66.2071 43.3729 66.4713C43.4725 66.6307 43.3828 66.7603 43.1685 66.7852C42.9742 66.8101 42.7898 66.8699 42.4958 66.9347C42.5955 66.5311 42.73 66.2221 42.7051 65.8832ZM40.0739 67.2387C40.1038 66.9447 40.1387 66.6507 40.1736 66.3566C40.1836 66.247 40.2284 66.1723 40.348 66.1573C40.7118 66.1174 41.0806 66.0776 41.4842 66.0327C41.3347 66.4115 41.1802 66.7254 41.0756 67.0693C40.946 67.5028 40.5075 67.4131 40.1736 67.458C40.049 67.4779 40.064 67.3284 40.0739 67.2337V67.2387ZM37.8115 66.84C37.7966 66.6606 37.8913 66.5759 38.0457 66.561C38.3946 66.5311 38.7185 66.3267 39.0872 66.4015C38.6437 67.9314 38.6188 67.9613 37.5873 67.9912C37.7667 67.6174 37.8464 67.2337 37.8065 66.84H37.8115ZM36.77 66.8799C36.5308 67.3483 36.2717 67.7221 36.187 68.2154C36.1222 68.5642 35.589 68.5443 35.2352 68.6191C35.1355 67.2885 35.3647 67.0244 36.775 66.8849L36.77 66.8799ZM32.9827 68.4696C32.903 68.2503 32.6439 67.9214 32.903 67.7819C33.2319 67.6025 33.6604 67.5975 34.0491 67.5377C34.1239 67.5277 34.1588 67.6473 34.1189 67.727C33.8897 68.1407 33.6604 68.5543 33.5458 69.0177C33.5309 69.0675 33.4213 69.0974 33.3565 69.1373C33.0973 68.9729 33.0674 68.6938 32.9877 68.4696H32.9827Z" fill="white"/>
<path d="M33.1074 59.3351C33.9346 59.046 34.7817 58.8716 35.6438 58.747C35.888 58.7122 36.1472 58.6324 36.3864 58.8766C36.1721 59.1856 35.8581 59.2753 35.5242 59.3251C34.5625 59.4646 33.6406 59.7586 32.7187 60.0576C32.5094 60.1224 32.2403 60.1424 32.1904 60.4413C32.2751 60.3965 32.3599 60.3317 32.4496 60.3068C33.4761 60.0028 34.4827 59.639 35.5541 59.5095C36.0325 59.4497 36.6853 59.2454 36.6455 58.7969C36.6106 58.4281 35.9329 58.5527 35.5043 58.5975C34.408 58.7072 33.4014 59.1656 32.33 59.365C32.5941 59.5992 32.8632 59.4248 33.1074 59.34V59.3351Z" fill="white"/>
<path d="M34.5131 75.3764C34.5829 75.7352 34.5679 76.1787 34.9317 76.393C35.3503 76.6372 35.9134 76.6322 36.3021 76.5525C36.935 76.4229 37.5828 76.3232 38.2206 76.1887C40.5628 75.6953 42.885 75.1073 45.257 74.7635C45.6108 74.7136 46.0095 74.5741 45.9497 74.1007C45.8849 73.6073 45.4763 73.6522 45.1125 73.697C45.0129 73.707 44.9132 73.722 44.8185 73.7519C42.7006 74.4395 40.488 74.7136 38.3402 75.2568C37.523 75.4661 36.636 75.3814 35.8685 75.8847C35.7639 75.3116 35.5745 74.8033 35.3453 74.3C34.7722 73.0392 34.2191 71.7685 33.6859 70.4928C33.6011 70.2885 33.347 69.9546 33.8603 69.8798C34.6676 69.7602 35.435 69.4712 36.2224 69.2868C38.5346 68.7387 40.8767 68.34 43.1641 67.6822C43.6026 67.5576 43.8318 67.6623 43.9863 68.1357C44.5893 69.9347 45.1873 71.7336 45.9049 73.4927C46.0593 73.8764 46.2138 74.3 46.7371 74.1057C47.2155 73.9263 47.1606 73.4977 47.046 73.0891C47.0112 72.9745 46.9663 72.8648 46.9165 72.7552C46.5178 71.8084 46.1092 70.8616 45.7205 69.9097C44.9281 67.9613 44.4547 65.8932 43.5577 63.9796C42.8601 62.4896 42.0428 61.0545 41.5146 59.4897C41.4448 59.2754 41.3452 58.9515 41.0511 59.0562C40.7023 59.1758 40.8817 59.4897 40.9664 59.714C41.3452 60.7355 41.7638 61.7422 41.9432 62.8285C42.0129 63.2571 42.1824 63.6657 42.3917 64.0494C42.7604 64.7271 42.7455 64.8069 42.0079 65.0311C39.1226 65.9082 36.1576 66.4563 33.2473 67.2337C32.5696 67.4131 32.3553 67.1042 32.1909 66.5859C31.6826 64.9663 31.1693 63.3468 30.661 61.7222C30.377 60.8103 30.3819 60.8053 31.3288 60.6707C31.3587 60.6458 31.3936 60.6309 31.4284 60.6109C31.4085 60.601 31.3836 60.586 31.3587 60.5761C30.4816 60.5312 30.2873 60.7405 30.4866 61.5478C30.9152 63.3069 31.4833 65.0162 32.0962 66.7204C32.3454 67.4231 32.5297 67.4978 33.2623 67.3782C34.6576 67.149 35.9881 66.6607 37.3735 66.3816C38.9532 66.0627 40.5179 65.6839 42.0478 65.1806C42.8152 64.9315 42.8999 64.7072 42.5561 63.9996C42.3817 63.6408 42.1923 63.287 42.1176 62.8933C41.9232 61.8568 41.5993 60.8551 41.2056 59.8784C41.1458 59.7289 41.0312 59.5645 41.1707 59.3552C41.3551 59.4748 41.4299 59.6591 41.4947 59.8385C41.9382 61.0993 42.571 62.2704 43.1391 63.4714C43.4033 64.0245 43.7172 64.5527 43.9116 65.1457C44.5644 67.144 45.2222 69.1423 46.0344 71.0858C46.3085 71.7436 46.6175 72.3914 46.8517 73.0642C46.9613 73.3731 47.041 73.7369 46.6374 73.8764C46.2836 74.001 46.154 73.6622 46.0693 73.408C45.7205 72.3715 45.1873 71.4097 44.9032 70.3533C44.6889 69.5659 44.38 68.8134 44.1059 68.046C43.9165 67.5128 43.6823 67.3633 43.1541 67.5128C41.3003 68.051 39.4166 68.4297 37.533 68.8284C36.4067 69.0676 35.3054 69.4264 34.1792 69.6656C33.3918 69.835 33.3071 69.9994 33.6211 70.7669C34.1842 72.1472 34.7573 73.5176 35.42 74.8532C35.5895 75.192 35.4948 75.7003 35.7988 75.8897C36.1426 76.104 36.5413 75.7452 36.925 75.6804C38.6492 75.3914 40.3435 74.9728 42.0528 74.6189C43.0046 74.4246 43.9464 74.1754 44.8833 73.9113C45.1723 73.8266 45.5461 73.7369 45.6507 74.1057C45.7703 74.5342 45.3567 74.5243 45.0776 74.594C44.6541 74.6987 44.2056 74.6738 43.782 74.7834C41.3551 75.3963 38.8934 75.8399 36.4516 76.3681C35.3353 76.6073 34.8669 76.2684 34.6177 75.1522C34.4084 74.1954 33.94 73.3333 33.5015 72.4662C33.4616 72.3914 33.3918 72.3565 33.3071 72.3516C33.4118 72.5658 33.5314 72.7701 33.6111 72.9894C33.9101 73.7818 34.3387 74.5243 34.5081 75.3714L34.5131 75.3764Z" fill="white"/>
<path d="M49.2986 71.8581C48.7753 70.4578 47.8584 69.2519 47.3252 67.8615C46.1491 64.8118 44.9631 61.767 43.8269 58.7023C43.5229 57.875 43.1392 57.0727 42.9947 56.1807C42.915 55.6824 42.5064 55.2638 42.023 55.2439C41.3552 55.214 40.6775 54.9548 40.0297 55.1093C38.5496 55.4731 37.0895 55.9216 35.6244 56.3402C34.5979 56.6342 33.6012 57.0129 32.5498 57.2322C31.274 57.5013 29.9834 57.7106 28.7525 58.179C28.015 58.4631 27.4967 59.0362 27.0333 59.5993C26.7044 59.9979 27.3074 60.4564 27.3522 60.9248C27.3522 60.9647 27.3721 60.9996 27.3871 61.0394C27.6961 61.8168 27.6462 62.6739 27.9004 63.4663C27.9402 63.3268 27.8705 63.1175 28.0997 63.0975C28.2542 63.0826 28.2691 63.2321 28.304 63.3417C28.3738 63.566 28.5432 63.6955 28.7475 63.7802C28.4037 62.4696 28.1545 61.1291 27.6064 59.8783C27.4519 59.5245 27.5615 59.3152 27.8904 59.2604C29.1412 59.0561 30.3422 58.6176 31.6129 58.5229C31.6129 58.3485 31.7425 58.2737 31.872 58.2438C32.8687 58.0196 33.8454 57.7006 34.872 57.6259C34.9019 57.6558 34.9218 57.6807 34.9417 57.7106C34.9417 57.7106 34.9467 57.7106 34.9517 57.7106C34.9716 57.6807 34.9966 57.6707 35.0314 57.6857C35.0314 57.6857 35.0613 57.6757 35.0763 57.6757C35.0663 57.6558 35.0564 57.6359 35.0514 57.6159C35.5646 57.287 36.1726 57.2621 36.7357 57.1076C37.7374 56.8385 38.724 56.4399 39.7905 56.4598C39.8104 56.4847 39.8303 56.5046 39.8453 56.5296C40.6875 56.2754 41.4997 56.096 42.1874 56.9133C42.4067 57.1724 42.4914 57.4714 42.5662 57.7555C42.9848 59.39 43.812 60.87 44.3452 62.4597C44.6093 63.242 44.8535 64.0344 45.1026 64.8217C45.4016 64.8915 45.4515 65.1706 45.5611 65.3948C45.9 66.0925 46.0196 66.8599 46.2538 67.5924C46.7621 69.1871 47.4498 70.712 48.0029 72.2917C48.0777 72.506 48.2521 72.7103 48.0826 72.9544C48.272 73.3431 48.2172 73.8215 48.5361 74.1654C48.7903 74.4395 49.0893 74.569 49.4431 74.4096C49.8069 74.2451 49.9065 73.9262 49.8019 73.5624C49.6374 72.9893 49.4979 72.4163 49.2886 71.8581H49.2986Z" fill="white"/>
<path d="M48.0126 72.2917C47.4594 70.712 46.7717 69.1871 46.2634 67.5925C46.0292 66.8599 45.9096 66.0925 45.5708 65.3949C45.4611 65.1706 45.4113 64.8965 45.1123 64.8218C45.4462 65.3849 45.6505 65.9978 45.8249 66.6257C46.0442 67.4081 46.1588 68.2453 46.5226 68.9529C47.1804 70.2436 47.4993 71.6489 48.0923 72.9545C48.2617 72.7103 48.0923 72.506 48.0126 72.2917Z" fill="white"/>
<path d="M34.8764 57.6258C33.8498 57.7006 32.8731 58.0195 31.8765 58.2438C31.7469 58.2737 31.6123 58.3484 31.6173 58.5228C32.6937 58.1142 33.8399 57.9747 34.9511 57.7056C34.9312 57.6806 34.9113 57.6507 34.8814 57.6208L34.8764 57.6258Z" fill="white"/>
<path d="M39.8545 56.5195C39.8545 56.5195 39.8146 56.4746 39.7996 56.4497C38.7332 56.4298 37.7465 56.8284 36.7449 57.0975C36.1818 57.247 35.5738 57.2769 35.0605 57.6058C35.0705 57.6307 35.0805 57.6457 35.0855 57.6656C36.6801 57.3168 38.2349 56.7935 39.8495 56.5195H39.8545Z" fill="white"/>
<path d="M28.279 63.5659C28.1744 63.4015 28.0647 63.3666 27.9053 63.4713C27.9302 64.0693 28.0348 64.6573 28.2142 65.2254C28.8072 67.0841 29.4302 68.9379 30.0531 70.7917C30.8703 73.2285 31.6926 75.6703 32.5298 78.1022C32.9583 79.348 33.94 79.9261 35.2606 79.7815C36.3818 79.657 37.4682 79.343 38.5695 79.1237C39.5213 78.9344 40.4681 78.7251 41.405 78.466C43.3883 77.9178 45.3667 77.3447 47.3351 76.7517C47.7786 76.6172 48.2919 76.6122 48.6307 76.2085C48.7802 76.0341 48.8799 75.8398 48.7802 75.6105C48.6806 75.3763 48.4762 75.3016 48.242 75.3265C47.968 75.3564 47.6889 75.3963 47.4198 75.461C45.7653 75.8547 44.1408 76.363 42.5113 76.8364C40.2289 77.4992 37.9117 78.0324 35.5696 78.451C34.3387 78.6703 34.4234 78.735 33.9201 77.6288C33.8703 77.5191 33.8404 77.4045 33.7955 77.2949C33.2473 75.9594 32.7141 74.6189 32.1361 73.2983C31.6377 72.1521 31.1643 71.001 30.8205 69.8C30.2325 67.7619 29.465 65.7885 28.7574 63.7952C28.5282 63.8799 28.3887 63.7404 28.284 63.5759L28.279 63.5659Z" fill="white"/>
<path d="M28.304 63.3417C28.2692 63.232 28.2542 63.0825 28.0997 63.0975C27.8705 63.1174 27.9403 63.3267 27.9004 63.4662C28.0599 63.3616 28.1695 63.4015 28.2741 63.5609C28.3788 63.7254 28.5183 63.8599 28.7475 63.7802C28.5383 63.6955 28.3738 63.5659 28.304 63.3417Z" fill="white"/>
<path d="M40.1141 70.5873C40.9812 70.3281 41.8732 70.1338 42.7453 69.8946C42.9944 69.8248 43.2536 69.6953 43.2087 69.3664C43.1689 69.0773 42.9496 68.9926 42.6805 69.0225C42.0775 69.0723 41.5443 69.3664 40.9712 69.486C39.1523 69.8697 37.4032 70.4926 35.5943 70.9062C35.4348 70.9411 35.3052 71.0258 35.1956 71.1454C35.0611 71.2899 35.0112 71.4593 35.1009 71.6387C35.1906 71.8181 35.3601 71.8779 35.5544 71.8381C35.9581 71.7533 36.3916 71.7234 36.7653 71.564C37.8467 71.1005 39.0028 70.9261 40.1191 70.5922L40.1141 70.5873Z" fill="white"/>
<path d="M43.0892 71.6637C42.6855 71.8181 42.2669 71.7534 41.8583 71.8381C39.8799 72.2367 37.9066 72.6404 35.9282 73.044C35.7339 73.0839 35.5644 73.1636 35.5993 73.3829C35.6442 73.647 35.8684 73.6968 36.1425 73.7068C36.8551 73.5374 37.6026 73.348 38.3551 73.1885C39.7703 72.8846 41.2055 72.7401 42.6457 72.6155C42.9098 72.5906 43.149 72.5009 43.3633 72.3613C43.5227 72.2567 43.737 72.147 43.6324 71.9029C43.5327 71.6687 43.2935 71.5889 43.0792 71.6686L43.0892 71.6637Z" fill="white"/>
<path d="M40.0245 57.4612C39.4414 57.6506 38.8684 57.8848 38.3003 58.114C38.1657 58.1689 37.9514 58.2237 37.9963 58.418C38.0362 58.5874 38.2504 58.5924 38.3999 58.6124C38.8584 58.6772 39.3019 58.4629 39.7853 58.5576C39.9248 58.5476 40.0793 58.5326 40.2388 58.5326C40.6374 58.5277 40.9763 58.4429 40.9414 57.9446C40.9115 57.5459 40.4879 57.3117 40.0295 57.4612H40.0245Z" fill="white"/>
<path d="M69.7299 54.576C67.4625 53.8983 65.3645 52.797 63.1669 51.9399C60.6753 50.9681 58.2285 49.8818 55.6771 49.0595C55.2036 48.9051 54.8199 48.5512 54.3067 48.5064C54.0176 48.4815 53.7784 48.5562 53.6987 48.8602C53.6239 49.1492 53.7585 49.3785 54.0326 49.4732C54.3465 49.5878 54.6804 49.6526 54.9993 49.7522C55.8913 50.0163 56.8332 50.0811 57.6953 50.4499C58.1139 50.6293 58.7717 50.699 58.8963 50.9931C59.0308 51.317 58.4727 51.7206 58.2484 52.1093C57.8149 52.8767 57.2568 53.1508 56.4445 52.8718C55.6023 52.5777 54.8598 52.7073 54.1073 53.1259C53.8631 53.2604 53.5891 53.6342 53.3499 53.4448C53.1356 53.2754 53.2153 52.8518 53.2452 52.5379C53.2502 52.4781 53.2701 52.4233 53.2751 52.3635C53.3399 51.3967 53.4944 50.4299 53.4047 49.4532C53.3897 49.3137 53.4146 49.1393 53.2552 49.0994C53.0758 49.0496 53.0509 49.2439 52.9811 49.3536C52.7818 49.6575 52.6672 49.9914 52.5725 50.3353C52.2037 51.7306 52.1937 53.1608 52.114 54.586C52.0343 56.1059 52.0492 57.6308 51.9147 59.1457C51.8549 59.7985 52.0791 60.1174 52.6173 60.3317C53.2253 60.5759 53.7984 60.8998 54.4013 61.144C55.3432 61.5277 56.1854 62.0858 57.1073 62.4945C58.2833 63.0177 59.4544 63.5509 60.6354 64.0542C62.6985 64.9313 64.7666 65.7934 66.8346 66.6605C67.1037 66.7751 67.3678 66.7851 67.4824 66.4761C67.5921 66.1921 67.4326 65.9628 67.1785 65.8432C66.8745 65.6987 66.5456 65.604 66.2366 65.4745C64.642 64.8167 63.0523 64.1589 61.3929 63.4762C61.6969 63.0077 62.0357 62.6988 62.25 62.2852C62.4493 61.8965 63.0224 61.8068 63.3862 62.0858C63.7699 62.3798 64.1686 62.6539 64.6171 62.7935C65.5091 63.0775 66.2017 63.8898 67.2383 63.7901C67.5123 63.7652 67.7914 63.7752 68.0705 63.7552C68.4642 63.7303 68.6037 63.8748 68.499 64.2785C68.3296 64.9313 68.1851 65.5891 68.0406 66.2469C67.9658 66.5957 68.0505 66.9047 68.4342 66.9944C68.818 67.0841 69.0322 66.8349 69.1319 66.501C69.2067 66.2369 69.2067 65.9578 69.1867 65.6738C69.1618 65.2602 69.0821 64.8167 69.1917 64.433C69.4907 63.4014 69.7 62.3649 69.7748 61.2885C69.9093 59.36 70.308 57.4564 70.3379 55.5079C70.3478 54.9847 70.1485 54.7056 69.715 54.576H69.7299ZM53.3847 59.5194C52.6721 59.2005 53.1256 58.6274 53.1157 58.1839C53.1057 57.7354 53.5342 57.9796 53.7685 57.9696C54.0625 57.9597 54.3565 58.0494 54.6555 58.0593C55.8315 58.0992 55.9362 59.0161 56.1256 59.8483C56.2053 60.1922 56.2651 60.541 56.5591 60.9895C55.388 60.4414 54.3914 59.9679 53.3897 59.5145L53.3847 59.5194ZM68.7332 61.3234C68.4342 61.747 69.1518 62.6938 67.9708 62.6838C67.3479 62.6788 66.7549 62.8782 66.1519 62.4596C65.2649 61.8466 64.1935 61.6324 63.1968 61.2486C62.9576 61.1589 62.7035 61.1888 62.4992 61.3035C61.8414 61.6822 61.0739 61.9413 60.6952 62.6739C60.5258 63.0028 60.3464 62.9928 60.0873 62.8234C59.2102 62.2353 58.2484 61.8118 57.1671 61.4031C57.6953 61.0443 57.6903 60.6556 57.476 60.1822C57.1621 59.4846 57.0076 58.7221 56.4495 58.1291C56.001 57.6557 55.4727 57.4913 54.8498 57.4962C54.3764 57.4962 53.898 57.4763 53.4246 57.4663C53.2253 57.4663 53.0808 57.4215 53.0957 57.1624C53.1256 56.7089 53.1904 56.2504 53.1406 55.8069C53.0459 54.9448 53.3399 54.4016 54.1771 54.0727C54.8648 53.8036 55.4379 53.3202 56.295 53.5844C57.5906 53.978 59.4394 52.9515 59.853 51.6608C59.9726 51.2871 60.1122 51.4266 60.3115 51.5063C61.7068 52.0744 63.1021 52.6425 64.4975 53.2106C65.2649 53.5229 65.4875 54.0594 65.1652 54.8202C65.0805 55.0195 64.9958 55.2239 64.8911 55.4182C64.4127 56.3301 64.6171 57.1325 65.524 57.6806C65.9625 57.9447 66.2366 58.2387 66.2416 58.8019C66.2516 60.4812 67.1187 61.2138 68.803 60.9845C68.7781 61.1091 68.793 61.2437 68.7332 61.3234ZM69.6552 56.086C69.3013 57.0627 69.3312 58.2487 69.097 59.3899C69.0322 59.6939 68.9675 59.7188 68.6884 59.6241C68.4542 59.5394 68.1801 59.5444 67.926 59.5493C67.2682 59.5693 66.9791 59.1606 66.9343 58.6075C66.8745 57.9049 66.4908 57.4962 65.9277 57.1723C65.1652 56.7338 65.0107 56.2504 65.3596 55.4431C65.4841 55.1541 65.6635 54.8601 65.6934 54.5561C65.7632 53.8684 65.9974 53.8335 66.6004 54.1026C67.5123 54.5013 68.3545 55.0195 69.2714 55.4033C69.4708 55.488 69.7947 55.5827 69.6552 56.086Z" fill="white"/>
<path d="M58.7768 68.2949C58.4778 68.2949 58.2934 68.3497 58.2037 68.559C58.119 68.7584 58.2336 68.9178 58.3781 69.0225C58.7867 69.3015 59.1954 69.5756 59.6289 69.8098C59.8332 69.9245 60.0575 69.8248 60.2169 69.6504C60.3615 69.4909 60.3365 69.3065 60.207 69.167C59.7984 68.7185 59.2651 68.4644 58.7768 68.2949Z" fill="white"/>
<path d="M36.6008 44.8487C36.7802 46.2739 36.6008 47.6493 36.1972 49.0097C36.1224 49.2639 36.0327 49.5579 36.3517 49.6775C36.6855 49.8021 36.85 49.533 36.9646 49.2639C37.0144 49.1543 37.0593 49.0446 37.0842 48.93C37.2785 47.9583 37.428 46.9865 37.438 45.8653C37.5177 45.5314 37.3882 45.0829 37.3134 44.6394C37.144 43.6278 36.7603 42.7009 36.0327 41.9534C35.9032 41.8189 35.7038 41.6395 35.5194 41.794C35.35 41.9385 35.5444 42.1228 35.6241 42.2674C36.0776 43.0796 36.4862 43.9019 36.6058 44.8537L36.6008 44.8487Z" fill="white"/>
<path d="M60.1173 55.1243C59.5492 54.7455 59.1455 54.8701 58.7967 55.4382C58.7618 55.8917 59.1754 55.8668 59.4196 56.0163C59.5342 56.0412 59.6538 56.0561 59.7684 56.091C60.775 56.39 60.7651 56.39 60.7501 57.4415C60.7451 57.7953 60.7551 58.0993 60.2867 58.179C59.584 58.2986 58.8465 58.179 58.717 57.8202C58.6422 57.6109 58.6871 57.3568 58.6821 57.1176C58.5874 57.0079 58.5077 56.8485 58.3183 56.9731C57.8798 57.4415 58.1987 57.7903 58.4479 58.2089C58.9362 59.0361 60.4412 58.9265 61.0242 58.5079C61.5973 58.0943 61.7518 56.5844 61.2534 56.0661C60.9146 55.7123 60.5259 55.3934 60.1173 55.1243Z" fill="white"/>
<path d="M58.7161 57.0229C58.8407 56.6791 58.8208 56.2356 59.2045 56.0711C58.9304 55.9714 58.6514 55.8768 58.7959 55.4382C58.6364 55.9515 58.472 56.4648 58.3125 56.9731C58.5268 56.7738 58.6264 56.8734 58.7112 57.0229H58.7161Z" fill="white"/>
<path d="M59.2045 56.0711C59.2643 56.0462 59.334 56.0263 59.4188 56.0163C59.1696 55.8668 58.761 55.8917 58.7959 55.4382C58.6513 55.8768 58.9354 55.9714 59.2045 56.0711Z" fill="white"/>
<path d="M58.6762 57.1175C58.6911 57.0876 58.7011 57.0527 58.716 57.0228C58.6313 56.8733 58.5267 56.7736 58.3174 56.973C58.5067 56.8484 58.5865 57.0078 58.6812 57.1175H58.6762Z" fill="white"/>
<path d="M59.3148 56.1159C59.2799 56.1009 59.245 56.086 59.2052 56.071C58.8165 56.2355 58.8414 56.679 58.7168 57.0229C58.7218 57.0328 58.7317 57.0428 58.7367 57.0577C58.9909 56.7837 59.0606 56.39 59.3148 56.1159Z" fill="white"/>
<path d="M59.3146 56.116C59.3495 56.0811 59.3844 56.0463 59.4242 56.0164C59.3395 56.0263 59.2698 56.0463 59.21 56.0712C59.2448 56.0861 59.2847 56.1011 59.3196 56.116H59.3146Z" fill="white"/>
<path d="M58.7166 57.0229C58.7067 57.0528 58.6967 57.0877 58.6768 57.1176C58.6967 57.0977 58.7166 57.0778 58.7316 57.0578C58.7266 57.0479 58.7166 57.0329 58.7116 57.0229H58.7166Z" fill="white"/>
</svg>
