<svg width="98" height="98" viewBox="0 0 98 98" fill="none" xmlns="http://www.w3.org/2000/svg">
<path d="M48.9825 26.0833C46.1425 26.0833 44.0425 24.4633 44.0425 22.1433C44.0425 20.2433 45.2025 18.9833 46.5625 18.2633V18.1833C45.4425 17.3633 44.6025 16.2233 44.6025 14.6633C44.6025 12.2833 46.5025 10.7633 49.0825 10.7633C51.7025 10.7633 53.3825 12.3233 53.3825 14.6833C53.3825 16.1633 52.4425 17.3833 51.4825 18.0833V18.1833C52.8425 18.9233 53.9625 20.1033 53.9625 22.1433C53.9625 24.3833 51.9625 26.0833 48.9825 26.0833ZM49.9225 17.3633C50.6425 16.6033 50.9825 15.7633 50.9825 14.8833C50.9825 13.6633 50.2425 12.8233 49.0225 12.8233C48.0025 12.8233 47.2025 13.4833 47.2025 14.6633C47.2025 16.0433 48.3625 16.7433 49.9225 17.3633ZM49.0425 24.0033C50.3225 24.0033 51.2225 23.3033 51.2225 22.0233C51.2225 20.4833 49.8425 19.8633 47.9425 19.0633C47.1225 19.7033 46.5625 20.7033 46.5625 21.8033C46.5625 23.1433 47.6625 24.0033 49.0425 24.0033Z" fill="white"/>
<path d="M49.5645 54.8926C49.6019 54.9247 49.6287 54.9621 49.65 54.9942C49.6287 54.9568 49.6019 54.9247 49.5645 54.8926Z" fill="white"/>
<path d="M43.0061 65.8543C43.7337 66.0308 44.3115 65.4958 44.0547 64.8271C43.6802 63.8535 43.4234 62.8424 43.0757 61.8633C42.2786 59.6164 41.1765 57.5033 40.1761 55.342C39.7053 54.3255 39.4967 53.1807 38.737 52.2979C38.5444 52.0733 38.3679 51.8914 38.0576 51.8914C37.5654 51.8967 37.1909 52.223 36.7415 52.3621C34.2111 53.1593 31.5629 53.293 28.9683 53.737C27.8662 53.9243 26.7214 53.9671 25.8119 54.7642C25.5819 54.9675 25.4214 55.1494 25.3304 55.465C24.9774 56.6741 25.0469 57.8403 25.4535 59.0173C25.828 60.1033 26.0366 61.2321 26.4165 62.3234C26.9942 63.9926 27.5078 65.6777 27.9358 67.395C28.2354 68.588 28.4922 69.7971 28.8185 70.9847C29.0325 71.7658 29.8082 72.2045 30.4448 71.8781C31.6378 71.2683 32.9378 71.1987 34.2111 70.9794C36.4259 70.6049 38.7263 70.7654 40.8876 70.0004C41.6152 69.7436 42.3802 69.6687 43.1399 69.5831C43.5411 69.5349 43.8995 69.3156 43.9156 68.8662C43.9316 68.4596 43.6374 68.251 43.2522 68.2403C42.9259 68.2349 42.958 68.0156 42.9152 67.8123C42.8028 67.272 42.9205 66.6995 42.7065 66.1699C42.5674 65.8275 42.6263 65.7633 43.0008 65.8543H43.0061ZM40.0209 65.1053C37.4958 65.2872 35.0082 65.7366 32.5259 66.2341C32.13 66.3144 31.7662 66.4642 31.365 66.5444C30.5786 66.6942 30.1185 68.3259 30.6481 68.9251C30.7819 69.0802 30.9531 69.1658 31.1617 69.1016C31.4131 69.0267 31.5469 68.8288 31.5843 68.588C31.6485 68.1921 31.5148 67.6893 31.7876 67.4218C32.0605 67.1543 32.5206 67.4699 32.9111 67.4004C35.2757 66.9724 37.667 66.753 40.0584 66.5551C40.481 66.523 40.909 66.5498 41.3263 66.4267C41.6152 66.3411 41.7008 66.5016 41.7008 66.7637C41.7008 67.1703 41.6954 67.5716 41.7329 67.9781C41.7596 68.2296 41.6312 68.2403 41.4493 68.2831C40.0209 68.6148 38.5926 68.9572 37.1642 69.3049C36.7469 69.4065 36.3349 69.46 35.9016 69.4868C34.3074 69.5777 32.7345 69.8399 31.1724 70.1662C30.8621 70.2304 30.5679 70.3481 30.2148 70.4551C29.6745 67.7588 28.4012 65.3407 27.4276 62.8049C26.9461 61.5477 26.6411 60.2477 26.2667 58.9638C26.1811 58.6749 26.2025 58.402 26.2988 58.0971C26.5234 57.4177 26.2881 56.7062 26.3362 56.0053C26.4111 54.9782 26.5448 54.8337 27.572 54.7107C30.0811 54.4111 32.6169 54.3148 35.1098 53.8547C35.9926 53.6889 36.8485 53.4481 37.6831 53.1325C38.0415 52.9988 38.2288 52.972 38.3625 53.4267C39.1917 56.2247 40.4596 58.8514 41.5296 61.5584C41.9469 62.6123 42.1448 63.7518 42.4604 64.9234C41.5617 64.5971 40.8074 65.0518 40.0102 65.1107L40.0209 65.1053Z" fill="white"/>
<path d="M49.736 56.0696C49.7734 56.3157 49.736 56.5725 49.736 56.8239C49.9018 57.498 50.4956 57.5194 50.9932 57.5729C51.6672 57.6478 52.352 57.5836 53.0207 57.4498C53.7537 57.3 54.1335 56.6313 53.9623 55.6256C53.8714 55.0799 54.0318 55.0424 54.4919 55.0745C55.396 55.1441 56.3002 55.2297 57.1989 55.3795C58.087 55.4918 58.9697 55.6202 59.8631 55.6202C60.4569 55.6202 61.0187 55.3848 61.6446 55.4437C62.1314 55.4918 62.3775 54.9889 62.431 54.5075C62.4684 54.1918 62.4524 53.8708 62.4417 53.5498C62.3615 51.7844 62.5059 50.019 62.5701 48.2589C62.6396 46.349 62.859 44.4392 62.3187 42.5453C62.0191 41.4968 61.789 41.2079 60.6923 41.0474C59.7882 40.9137 58.868 40.8869 57.9746 40.7211C56.1129 40.3733 54.2137 40.4268 52.3467 40.1112C51.25 39.9293 50.1426 40.1593 49.0405 40.1058C47.152 40.0096 45.2529 40.1058 43.3751 39.817C43.0487 39.7688 42.701 39.833 42.6261 40.2396C42.4924 40.9939 42.3854 41.7482 42.2837 42.5079C42.059 44.2038 42.3319 45.905 42.2356 47.6062C42.1393 49.3021 42.2944 51.0034 42.4228 52.6992C42.4817 53.4375 42.8348 53.9671 43.557 54.1437C44.4022 54.3523 45.2422 54.5824 46.1195 54.6359C47.2644 54.7054 48.4092 54.807 49.5541 54.8926C49.5915 54.9247 49.6183 54.9622 49.6397 54.9943C49.8751 55.3206 49.6718 55.7112 49.7253 56.0696H49.736ZM52.6677 56.2889C52.6516 56.4655 52.6035 56.5725 52.4216 56.5832C52.2718 56.5939 52.122 56.6099 51.9775 56.6206C50.4956 56.7597 50.2977 56.5725 50.5224 55.112C50.608 54.561 51.0841 54.9996 51.2874 54.8873C51.3998 54.8873 51.4426 54.8873 51.4854 54.8873C52.3253 54.9194 52.7479 55.4169 52.6784 56.2836L52.6677 56.2889ZM44.7286 52.8437C43.5837 52.6029 43.1825 52.2017 43.252 51.0301C43.3002 50.1795 43.3751 49.3342 43.359 48.4836C43.3483 47.6544 43.359 46.8198 43.359 45.9906C43.2948 44.6104 43.4072 43.2194 43.1932 41.8445C43.1825 41.7589 43.1718 41.6733 43.1771 41.5877C43.2092 41.2454 42.7385 40.8709 43.0969 40.6087C43.3483 40.4215 43.7496 40.6836 44.0866 40.7264C44.338 40.7585 44.5948 40.8067 44.8463 40.8067C46.0179 40.7906 47.1895 40.8227 48.3397 41.0795C49.2117 41.2721 50.0837 41.0153 50.9504 41.0849C53.2775 41.2668 55.61 41.4219 57.9211 41.7803C58.7183 41.9034 59.5314 41.8766 60.3232 42.0799C60.7191 42.1816 60.8903 42.3635 60.9438 42.8128C61.1524 44.6639 60.9491 46.5095 60.917 48.3606C60.8849 50.126 60.6442 51.8861 60.794 53.6515C60.8314 54.0795 60.7244 54.2025 60.275 54.1116C59.494 53.9511 58.7076 54.1865 57.9211 54.1972C55.4656 54.2239 53.0368 53.9457 50.6133 53.6087C48.6553 53.3359 46.6759 53.2449 44.7339 52.8383L44.7286 52.8437Z" fill="white"/>
<path d="M65.2504 71.3647C65.1487 71.3005 65.0097 71.2844 64.8813 71.2684C64.7047 71.247 64.5335 71.2684 64.4426 71.4556C64.3463 71.6429 64.4265 71.7926 64.5656 71.905C64.8278 72.1243 65.0899 72.3437 65.3681 72.5309C66.1813 73.0766 67.0158 73.5795 67.7059 74.3017C68.2409 74.8634 68.2088 75.2433 67.5187 75.4626C66.5878 75.7515 65.6142 75.7889 64.6673 76.0725C63.0623 76.554 61.4093 76.8856 59.7669 77.2494C58.3599 77.5597 57.001 78.0679 55.5673 78.2766C55.2784 78.3194 55.0805 78.2659 54.8825 78.0679C54.3368 77.5276 53.7698 77.014 53.2241 76.4737C52.0899 75.3449 50.7257 74.4943 49.5381 73.4243C49.201 73.1247 48.9336 72.7877 48.8908 72.3597C48.8159 71.6215 48.6393 70.8885 48.6072 70.1503C48.5216 67.8766 48.5109 65.5976 48.4521 63.3239C48.4414 62.8639 48.6126 62.7462 49.0566 62.7729C51.448 62.9227 53.8233 62.5857 56.1879 62.3182C58.408 62.0667 60.6228 61.826 62.8483 61.6388C63.0463 61.6227 63.1586 61.6067 63.1747 61.8635C63.2603 63.0297 63.3619 64.1906 63.4582 65.3569C63.5706 66.7318 63.271 68.1066 63.4796 69.4815C63.5492 69.947 63.7204 70.3429 64.2286 70.3643C64.8224 70.3964 64.8492 69.9095 64.9134 69.4762C65.0097 68.8289 64.7101 68.2136 64.7475 67.577C64.8652 65.5067 64.6352 63.4523 64.4533 61.4034C64.3837 60.6116 63.3138 59.884 62.736 60.2318C62.2278 60.5421 61.6928 60.5421 61.1471 60.5849C60.5533 60.633 59.9595 60.6651 59.371 60.756C57.2043 61.0877 55.0377 61.3552 52.8549 61.5478C51.5015 61.6655 50.1426 61.8153 48.7998 62.0453C47.2644 62.3075 47.3072 62.3503 47.334 63.9231C47.3607 65.7527 47.6282 67.5663 47.5587 69.4013C47.5105 70.3803 47.548 71.3593 47.7085 72.3276C47.8315 73.0659 47.7994 73.8577 48.4574 74.4408C49.0299 74.9437 49.6772 75.3609 50.1587 75.9708C50.2924 76.1474 50.5278 76.3239 50.7364 76.3453C51.4319 76.4256 51.8064 76.907 52.1969 77.3832C52.7212 78.0251 53.3471 78.5815 53.8928 79.1967C54.4545 79.8334 55.1019 79.8601 55.8027 79.7585C57.0652 79.5712 58.2529 79.0897 59.4833 78.7795C61.4627 78.2819 63.4368 77.763 65.4537 77.4153C66.743 77.1906 68.059 77.0354 69.2574 76.4416C70.1454 75.9976 70.322 75.2112 69.664 74.4782C68.4282 73.1033 66.7644 72.333 65.245 71.3647H65.2504Z" fill="white"/>
<path d="M51.1383 59.4615C52.5186 59.3973 53.9095 59.3919 55.2684 59.6166C55.9959 59.7397 56.6005 59.8039 57.1247 59.21C57.3227 58.6216 57.4564 58.0331 57.3173 57.3965C57.1461 56.6261 56.6753 56.0965 55.905 55.936C55.5519 55.8664 55.1881 55.8129 54.8297 55.8022C54.5408 55.7969 54.2572 55.9039 54.2251 56.2463C54.1931 56.5619 54.4284 56.6849 54.7013 56.7491C54.8243 56.7759 54.9527 56.8187 55.0758 56.8133C55.7605 56.7866 55.9478 57.1504 55.905 57.7709C55.8622 58.4236 55.3219 58.4718 54.942 58.4504C52.7861 58.3487 50.614 58.4825 48.4741 58.0545C47.9338 57.9475 47.7198 57.7602 47.8429 57.1557C48.0355 56.1928 47.9927 56.1767 49.0412 56.1393C49.2338 56.1339 49.4103 56.1018 49.5869 55.952C49.5922 55.9841 49.5976 56.0109 49.6029 56.043C49.6243 55.8825 49.6457 55.722 49.6671 55.5615C49.6885 55.3796 49.7581 55.1602 49.6511 54.9784C49.6243 54.9409 49.5976 54.9088 49.5655 54.8767C49.619 55.1442 49.726 55.4117 49.5815 55.6792C48.2922 55.0907 46.928 55.8985 46.6713 57.343C46.4894 58.3541 47.0243 58.8516 47.8589 59.0656C48.9235 59.3384 50.0149 59.4989 51.1383 59.4454V59.4615Z" fill="white"/>
<path d="M49.7363 56.824C49.7363 56.5726 49.7737 56.3158 49.7363 56.0697C49.6828 55.7166 49.8807 55.3207 49.6507 54.9944C49.763 55.1763 49.6935 55.3956 49.6667 55.5775C49.6453 55.738 49.6239 55.8985 49.6025 56.059C49.6507 56.3372 49.6935 56.5833 49.7363 56.8187V56.824Z" fill="white"/>
<path d="M62.6131 70.8778C62.7736 70.7119 63.0304 70.5996 62.8967 70.3161C62.7629 70.0325 62.4687 70.0272 62.2226 70.086C60.3127 70.5086 58.3707 70.728 56.4341 70.9687C54.5242 71.2095 52.6572 71.7498 50.7152 71.8193C50.2979 71.8354 49.8592 71.9638 49.8806 72.4988C49.902 73.0016 50.3247 73.0498 50.7313 73.0605C50.8168 73.0605 50.9024 73.0605 51.1271 73.0605C51.202 73.0551 51.4107 73.0391 51.6247 73.023C53.0905 72.9 54.4975 72.4667 55.9366 72.2259C57.8625 71.9049 59.7991 71.6642 61.7197 71.3004C62.0674 71.2362 62.3617 71.1346 62.6131 70.8724V70.8778Z" fill="white"/>
<path d="M51.6723 69.7544C51.6883 70.2572 52.1377 70.2144 52.5015 70.2037C52.5443 70.2037 52.5871 70.2037 52.7797 70.2037C54.818 70.0646 56.9739 69.7116 59.1192 69.2782C59.4295 69.214 59.7398 69.1284 60.0286 69C60.3015 68.877 60.4566 68.6309 60.3496 68.3153C60.248 68.0103 59.9912 67.9087 59.6863 67.9461C59.5632 67.9622 59.4402 68.0103 59.3171 68.0424C57.0863 68.5935 54.834 68.9947 52.5336 69.107C52.1163 69.1284 51.6562 69.214 51.6723 69.749V69.7544Z" fill="white"/>
<path d="M60.5639 62.9226C59.5475 62.9547 58.5364 63.2971 57.5252 63.1794C55.8508 62.9761 54.2726 63.4094 52.6783 63.7572C52.3467 63.8321 51.7207 63.7465 51.8491 64.2921C51.9829 64.8539 52.55 64.5596 52.9458 64.5115C54.3154 64.3563 55.6368 63.8481 57.1187 64.0567C57.7285 64.0995 58.3973 64.0942 59.0713 63.907C59.5796 63.7625 60.1145 63.709 60.6388 63.6181C60.9652 63.5592 61.5376 63.7572 61.5162 63.265C61.4948 62.7514 60.9117 62.9172 60.5639 62.9279V62.9226Z" fill="white"/>
<path d="M33.5901 44.8671C33.7185 45.3593 33.8576 45.8301 34.4514 45.7552C35.0132 45.6856 35.1309 45.1827 35.1576 44.6959C35.179 44.3161 35.1576 43.9362 35.1576 43.5511H35.1416C35.1416 43.0856 35.1523 42.6202 35.1416 42.1548C35.1309 41.791 34.965 41.4646 34.6173 41.3523C34.2428 41.2292 33.97 41.4807 33.772 41.7749C33.6329 41.9836 33.451 42.1922 33.4724 42.4597C33.5366 43.2568 33.3868 44.0646 33.5901 44.8617V44.8671Z" fill="white"/>
<path d="M49.7095 69.8935C49.8486 70.1289 50.0305 70.3054 50.3301 70.2305C50.5922 70.1663 50.7152 69.9523 50.7259 69.7062C50.7848 68.0853 50.6243 66.475 50.2873 64.8914C50.2445 64.7042 50.2017 64.4046 49.9342 64.4367C49.7255 64.4635 49.7416 64.7256 49.6988 64.9182C49.4901 65.9721 49.6346 67.0367 49.5543 68.0692C49.6453 68.6951 49.3671 69.3211 49.7148 69.8988L49.7095 69.8935Z" fill="white"/>
<path d="M67.4176 54.2881C67.7065 54.2399 67.9098 54.0634 68.1291 53.8922C68.5945 53.5391 68.7818 52.9453 69.2686 52.6136C69.6377 52.3621 69.8678 52.0197 69.6217 51.5864C69.3756 51.1584 68.9369 51.1103 68.4982 51.228C67.8295 51.4152 66.6579 52.9292 66.6419 53.5979C66.6312 54.0687 66.9575 54.3523 67.4176 54.2827V54.2881Z" fill="white"/>
<path d="M71.2262 56.0963C70.5094 56.0321 69.7818 56.016 69.0649 56.0267C68.6958 56.0321 68.4069 56.2514 68.3534 56.642C68.2999 57.0218 68.4978 57.2839 68.8349 57.4658C69.2843 57.7066 69.7657 57.7494 70.2633 57.744C70.6003 57.7066 70.9427 57.6959 71.2744 57.621C71.6649 57.53 72.018 57.3374 72.018 56.8667C72.018 56.3691 71.6596 56.1337 71.2316 56.0963H71.2262Z" fill="white"/>
<path d="M26.1223 48.0397C26.4486 48.2323 26.791 48.4142 27.0799 48.6602C27.4223 48.9491 27.8074 49.0882 28.1766 49.131C28.6046 49.1417 28.9416 49.0722 29.086 48.6977C29.2358 48.3179 29.0111 48.045 28.7276 47.8257C28.4601 47.6224 28.1926 47.3923 27.8984 47.2426C27.4009 46.9858 26.9247 46.5952 26.2881 46.7985C25.9832 46.8948 25.7317 47.0393 25.6996 47.387C25.6675 47.708 25.8708 47.8845 26.1276 48.0397H26.1223Z" fill="white"/>
<path d="M30.2148 46.1297C30.4128 46.4079 30.7016 46.6058 30.9959 46.6112C31.5309 46.6058 31.7984 46.2206 31.579 45.6857C31.242 44.8618 30.7284 44.1235 30.0811 43.5083C29.8243 43.2675 29.4712 43.1713 29.1556 43.4548C28.856 43.7223 28.856 44.054 29.0646 44.375C29.4391 44.9634 29.8136 45.5573 30.2202 46.1297H30.2148Z" fill="white"/>
<path d="M70.1777 60.8898C69.6641 60.6009 69.1131 60.3762 68.5888 60.2585C68.1341 60.2906 67.7596 60.3655 67.5938 60.7882C67.4493 61.152 67.5938 61.4783 67.8827 61.6869C68.3909 62.0507 68.974 62.2594 69.5999 62.254C69.9691 62.254 70.3008 62.0561 70.4399 61.6762C70.5522 61.3606 70.4506 61.045 70.1777 60.8898Z" fill="white"/>
<path d="M61.2118 67.7054C61.1744 68.0638 61.1369 68.4597 61.6024 68.4972C62.0464 68.5293 62.1374 68.1066 62.1481 67.7749C62.1855 66.6568 62.3353 65.528 62.025 64.4206C61.9822 64.2601 62.0036 64.0461 61.7789 64.0461C61.5596 64.0461 61.5489 64.2494 61.5114 64.4153C61.3509 65.1642 61.3028 65.9293 61.26 66.6889C61.2439 67.026 61.2439 67.3684 61.2118 67.7054Z" fill="white"/>
<path d="M62.9663 75.2112C63.3782 75.1309 63.8704 75.1042 63.9025 74.5532C63.9292 74.1252 63.6029 73.9272 63.1963 73.9005C62.7255 73.8684 62.2655 74.2161 62.2869 74.5906C62.3083 75.0026 62.5864 75.1684 62.9663 75.2165V75.2112Z" fill="white"/>
<path d="M59.1033 73.5688C59.1033 73.082 58.6753 73.0713 58.3008 73.0552C57.905 73.0445 57.5198 73.1408 57.5037 73.5955C57.4823 74.0717 57.8943 74.1626 58.2687 74.1626C58.67 74.1626 59.098 74.0503 59.098 73.5688H59.1033Z" fill="white"/>
<path d="M62.0942 73.5314C62.4473 73.4833 62.7576 73.3335 62.7523 72.9162C62.7469 72.4775 62.4099 72.301 62.0194 72.2742C61.6181 72.2421 61.3613 72.4508 61.3613 72.8627C61.3613 73.3174 61.6877 73.4619 62.0942 73.5261V73.5314Z" fill="white"/>
<path d="M59.4035 75.7995C59.8208 75.7995 60.1792 75.6069 60.1792 75.1469C60.1792 74.7403 59.8315 74.6761 59.4891 74.6921C59.1039 74.6814 58.7241 74.7296 58.7188 75.2164C58.7188 75.6337 59.0397 75.7995 59.4035 75.7995Z" fill="white"/>
<path d="M54.6787 73.5153C54.2828 73.5795 53.7639 73.5688 53.6943 74.1145C53.6462 74.4676 53.9618 74.5371 54.2935 74.5478C54.6466 74.3927 55.2404 74.5318 55.3153 73.9433C55.3581 73.5902 54.9943 73.4618 54.6787 73.51V73.5153Z" fill="white"/>
<path d="M55.8299 76.1421C56.1456 76.1314 56.3595 75.9709 56.3595 75.6873C56.3595 75.3236 56.0814 75.1898 55.7497 75.2059C55.4608 75.2166 55.2575 75.3824 55.2789 75.682C55.3056 76.0083 55.541 76.1367 55.8299 76.1421Z" fill="white"/>
<path d="M30.0595 62.5428C29.4335 61.3391 28.8237 60.1301 28.4545 58.8087C28.2619 58.1185 27.9516 57.4605 27.6735 56.7918C27.5825 56.5724 27.4274 56.3478 27.1492 56.428C26.8442 56.519 26.8282 56.8132 26.871 57.07C26.9405 57.5087 26.9994 57.958 27.1492 58.3753C27.8019 60.2156 28.3636 62.0881 29.2302 63.8481C29.5512 64.4955 29.7117 65.2177 30.1558 65.8062C30.3323 66.0416 30.5623 66.1967 30.8726 66.1004C31.1615 66.0095 31.2471 65.7794 31.2257 65.4103C31.2204 65.3728 31.2257 65.2337 31.1669 65.1267C30.7442 64.2868 30.4928 63.3827 30.0595 62.5482V62.5428Z" fill="white"/>
<path d="M57.5199 53.1914C57.9158 53.2181 58.2742 53.1058 58.3331 52.6564C58.3919 52.2177 58.0656 52.0733 57.6964 52.0091C57.4878 51.977 57.2738 51.9609 57.0598 51.9502C56.1931 51.8914 55.3158 51.8646 54.4545 51.779C51.7314 51.5009 49.0084 51.1906 46.2854 50.9231C45.8413 50.8803 45.6594 50.7572 45.6648 50.2758C45.6701 48.6173 45.6808 46.9589 45.4936 45.3058C45.4026 44.5033 45.4026 43.6955 45.2261 42.9038C45.1887 42.7433 45.1405 42.5346 44.9265 42.5507C44.7446 42.5667 44.7553 42.7647 44.7286 42.9091C44.6537 43.2622 44.6376 43.6206 44.6216 43.9844C44.552 45.5626 44.8998 47.1194 44.8035 48.6976C44.8035 49.484 44.8142 50.2704 44.8035 51.0622C44.7928 51.5972 45.0335 51.886 45.5631 51.9877C46.4619 52.1589 47.3714 52.1963 48.2755 52.3247C50.2656 52.619 52.2771 52.7634 54.2833 52.956C55.3639 53.0576 56.4446 53.1325 57.5252 53.2074L57.5199 53.1914Z" fill="white"/>
<path d="M47.5431 42.8128C50.0682 42.6844 52.5398 43.091 55.0274 43.4334C56.1883 43.5939 57.3171 43.8935 58.4727 44.0593C58.8953 44.1235 59.2805 44.0807 59.3928 43.6153C59.5159 43.107 59.1307 42.9037 58.7294 42.7593C58.5262 42.6844 58.3015 42.6523 58.0982 42.7219C56.5467 43.2301 55.0006 42.8502 53.4867 42.6256C50.662 42.2029 47.8319 42.0478 44.8682 42.128C45.7134 42.8877 46.6389 42.8609 47.5431 42.8128Z" fill="white"/>
<path d="M59.0553 44.8723C58.7183 44.8616 58.7183 45.1987 58.6648 45.4394C58.6273 45.6266 58.6273 45.8192 58.6166 46.0065C58.5204 47.7879 58.8467 49.5694 58.5632 51.3509C58.5043 51.7093 58.5043 52.0945 58.959 52.1427C59.4245 52.1908 59.4887 51.7682 59.5208 51.4365C59.585 50.741 59.601 50.0402 59.6331 49.4303C59.5636 48.0501 59.5047 46.7554 59.4245 45.4661C59.4084 45.2254 59.3763 44.8884 59.05 44.8777L59.0553 44.8723Z" fill="white"/>
</svg>
