<svg width="98" height="98" viewBox="0 0 98 98" fill="none" xmlns="http://www.w3.org/2000/svg">
<path d="M48.2025 26.0833C46.3425 26.0833 45.0225 25.3233 44.1225 24.4033L45.6825 22.6233C46.2425 23.2433 47.1425 23.7033 48.0225 23.7033C49.7625 23.7033 51.1825 22.3033 51.1825 18.0633C51.1825 14.2833 50.0425 12.9433 48.6025 12.9433C47.4825 12.9433 46.5825 13.8433 46.5825 15.6833C46.5825 17.4033 47.4225 18.2433 48.6825 18.2433C49.5225 18.2433 50.4425 17.7833 51.1625 16.5633L51.3225 18.5633C50.5225 19.6633 49.1825 20.3233 48.1425 20.3233C45.6625 20.3233 43.9025 18.8233 43.9025 15.6833C43.9025 12.6233 46.0225 10.7433 48.5425 10.7433C51.3625 10.7433 53.8825 12.9433 53.8825 18.0633C53.8825 23.6633 51.1425 26.0833 48.2025 26.0833Z" fill="white"/>
<path d="M58.2252 43.9783C59.1722 44.02 59.9524 43.5197 60.7922 43.2279C61.2032 43.0849 61.2985 42.6442 61.1913 42.1975C61.1079 41.8521 61.0364 41.5007 61.0245 41.1493C61.0066 40.7026 61.5427 40.2857 62.0013 40.3273C62.5313 40.3809 62.442 40.7264 62.4182 41.1076C62.3765 41.6734 62.4182 42.2452 62.9959 42.6323C62.5313 42.6918 62.1263 42.7991 61.7213 42.942C61.1317 43.1445 60.8637 43.5555 60.8994 44.1213C60.9232 44.5203 60.8696 44.7407 60.4468 44.8241C60.2562 44.8598 59.9643 44.9491 60.0179 45.2052C60.0715 45.4614 60.3753 45.4256 60.5659 45.3899C61.2091 45.2767 61.7094 45.4435 62.2276 45.8842C62.7517 46.3309 63.7463 46.1225 64.33 45.6043C64.9078 45.0921 64.6814 44.5441 64.4253 43.9902C64.3777 43.883 64.33 43.7699 64.2526 43.6805C63.9072 43.2815 64.1037 43.1683 64.5206 43.0611C65.0924 42.9122 65.6463 42.7038 66.2002 42.4953C66.8553 42.2511 67.308 41.5304 67.2067 40.9408C67.1055 40.3214 66.5695 39.9402 65.7475 39.9938C64.8541 40.0474 63.9369 40.0295 63.1508 40.5537C63.0257 40.6371 62.9244 40.6549 62.8768 40.5179C62.7279 40.0832 62.2693 40.0593 61.9834 39.8032H60.8458C60.7624 40.1487 60.2919 40.2261 60.2681 40.5775C60.2085 41.5066 59.5832 41.5185 58.8923 41.5066C58.6123 41.5066 58.3384 41.6138 58.0525 41.6496C57.2663 41.7568 56.8673 42.1439 56.8792 42.805C56.8911 43.4602 57.4748 43.9485 58.2312 43.9783H58.2252ZM66.0453 40.8336C66.1883 40.8336 66.3431 40.8693 66.3848 41.0242C66.4265 41.185 66.2836 41.2803 66.1883 41.3756C65.9322 41.6257 65.5867 41.721 65.2651 41.6496C64.6576 41.5185 64.0441 41.5721 63.3235 41.4947C64.2347 40.9706 65.1162 40.8217 66.0453 40.8336ZM63.8893 44.2999C63.8476 44.7109 63.4188 44.8896 63.1746 44.8419C62.6505 44.7288 62.5611 44.1868 62.4718 43.7282C62.3824 43.2874 62.7994 43.4482 62.9602 43.353C63.2639 43.347 63.9191 44.0022 63.8893 44.3059V44.2999ZM58.112 42.2154C58.4277 41.9771 58.8029 41.9354 59.1603 41.9116C59.3211 41.9533 59.5772 41.8342 59.5951 42.0427C59.6129 42.2749 59.6844 42.5966 59.3866 42.7335C59.0888 42.8705 58.7732 42.9777 58.4575 43.0492C58.2192 43.1028 57.8976 43.1862 57.7606 42.8943C57.5998 42.5608 57.8857 42.3881 58.112 42.2154Z" fill="white"/>
<path d="M36.0084 52.4834C35.8118 52.6204 35.5438 53.0314 35.3353 52.4656C34.9661 52.2988 34.5909 52.3762 34.2216 52.4298C33.9238 52.4715 33.6379 52.5668 33.6319 52.9242C33.626 53.2518 33.8583 53.4602 34.1501 53.5257C34.6802 53.6389 35.2222 53.8414 35.7582 53.7282C36.1632 53.6448 36.3478 53.7759 36.5563 54.0796C37.402 55.3304 37.7951 56.7896 38.4205 58.1356C38.5456 58.3977 38.3967 58.4989 38.2061 58.6419C37.6641 59.0588 37.0209 59.3506 36.6337 59.9522C36.5742 60.0475 36.4848 60.1725 36.5087 60.2559C36.5563 60.4286 36.7469 60.381 36.8779 60.3631C37.7951 60.2619 38.7124 59.97 39.3437 59.3685C39.9691 58.7669 40.6242 58.9218 41.3091 58.7729C41.2674 59.0945 41.2019 59.3506 41.2138 59.6067C41.2436 60.2738 41.1245 61.0123 41.9702 61.3518C42.9649 61.7568 44.0489 61.2506 44.3169 60.2083C44.4836 59.5591 44.5372 58.892 44.4122 58.2369C44.3586 57.945 44.4122 57.8438 44.6802 57.814C45.8654 57.671 46.9137 57.0457 48.0929 56.8491C48.6885 56.7479 49.302 56.3607 49.6593 57.2244C49.701 57.3256 49.8916 57.3792 50.0167 57.4388C50.8148 57.814 51.6486 57.7902 52.4408 57.5102C53.3878 57.1767 54.3467 56.7896 54.2394 55.4733C54.2156 55.2053 54.5075 55.2112 54.7159 55.1696C56.2168 54.8539 57.7177 54.5382 59.2126 54.2047C59.5283 54.1332 59.6832 54.1571 59.7368 54.5263C59.8082 55.0147 59.9274 55.509 60.0822 55.9736C60.4098 56.9444 60.8207 57.2541 61.5831 57.1886C62.8041 57.0755 63.5307 55.6937 63.0066 54.4787C62.8458 54.1034 62.5777 53.764 62.5182 53.3232C62.6313 53.3113 62.6969 53.2994 62.7683 53.2994C63.62 53.2934 64.4777 53.2994 65.3294 53.2696C65.7046 53.2577 66.056 53.1029 66.1037 52.674C66.1573 52.2273 65.8356 52.0725 65.4545 51.9772C64.9363 51.8462 64.4122 51.8521 63.9 51.9474C63.5247 52.0189 63.352 51.9117 63.1852 51.5781C62.8041 50.792 62.4765 49.976 61.8511 49.3268C61.6188 49.0886 61.3985 48.7848 61.0173 48.9635C60.6421 49.1362 60.654 49.5174 60.7314 49.839C60.8744 50.4346 61.0113 51.0421 61.2794 51.5841C61.5593 52.1499 61.3568 52.3345 60.8565 52.4775C59.5164 52.8706 58.1584 53.2101 56.8065 53.5019C54.1263 54.0737 51.4759 54.7705 48.8255 55.4554C46.1751 56.1463 43.5605 56.9921 40.9458 57.814C40.4098 57.9808 40.0703 57.9629 39.7785 57.4507C39.1471 56.3429 38.2061 55.4435 37.6701 54.2643C37.3961 53.6687 36.9673 53.1505 36.604 52.5966C36.4729 52.2333 36.2823 52.269 36.0024 52.4656L36.0084 52.4834ZM60.3621 53.9784C60.5587 53.9248 60.8148 53.7699 60.9399 53.9962C61.2317 54.5204 61.458 55.0802 61.6963 55.5865C61.6308 55.8902 61.6069 56.188 61.333 56.2893C61.053 56.3965 61.0173 56.0749 60.8863 55.9379C60.4753 55.515 60.3621 54.9551 60.1835 54.4191C60.1179 54.2166 60.112 54.0439 60.3621 53.9724V53.9784ZM50.8386 56.1582C51.2198 56.0451 51.6069 55.9319 51.9941 55.8307C52.2085 55.7711 52.4705 55.6043 52.5658 55.9677C52.6433 56.2654 52.5897 56.5513 52.2383 56.6407C51.9226 56.7241 51.595 56.7598 51.4283 56.7896C51.1245 56.7717 50.9816 56.7717 50.8446 56.7479C50.6361 56.7121 50.3562 56.6705 50.3502 56.4382C50.3502 56.1702 50.654 56.2178 50.8386 56.1582ZM41.9881 58.5227C42.2502 58.3917 42.5897 58.2845 42.8636 58.3441C43.084 58.3917 42.8339 58.7193 42.8398 58.7312C42.9291 59.2911 42.9768 59.6663 43.0483 60.0356C43.0959 60.2976 43.1972 60.5775 42.7981 60.6252C42.4348 60.6669 42.2263 60.5358 42.2025 60.1249C42.1787 59.7735 42.0834 59.434 42.006 59.0886C41.9643 58.898 41.738 58.6538 41.9881 58.5227Z" fill="white"/>
<path d="M45.5205 76.7002C44.502 76.8431 43.4836 76.7955 42.477 76.724C41.4228 76.6525 40.4163 77.0218 39.368 76.9742C37.9445 76.9086 36.5747 76.4917 35.1393 76.5096C33.9124 76.5215 33.7635 76.3309 33.8171 75.11C33.9243 72.7752 34.1149 70.4405 34.097 68.0998C34.097 67.8139 34.2102 67.7425 34.4901 67.7603C35.0321 67.7961 35.6098 67.9033 36.1161 67.7723C37.6587 67.3732 39.1834 67.671 40.714 67.7484C42.1733 67.8199 43.6086 68.1832 45.0917 67.9986C45.4014 67.9628 45.8123 67.9926 46.0386 68.3619C46.2531 68.7133 46.5747 68.8503 46.9499 68.6597C47.4085 68.4215 47.4026 67.9688 47.343 67.534C47.2894 67.1469 47.075 66.8014 46.67 66.8372C45.7587 66.9265 44.8951 66.6466 44.0077 66.5572C41.7504 66.3309 39.5229 67.0397 37.2715 66.7002C37.1167 66.6764 36.9439 66.73 36.7772 66.7657C35.8659 66.9742 34.9547 67.0337 34.0315 66.8253C33.4955 66.7061 33.2215 66.9206 33.1917 67.4745C33.0666 69.9104 32.9297 72.3464 32.7927 74.8777C32.7927 75.0623 32.7927 75.3482 32.7927 75.6341C32.7808 77.1111 32.9118 77.3911 34.3591 77.677C36.5747 78.1117 38.7843 78.7371 41.0952 78.3738C42.5783 78.1415 44.0732 78.5227 45.5681 78.3321C46.1101 78.2606 46.6045 78.1475 46.5866 77.4983C46.5687 76.867 46.0386 76.6168 45.5324 76.6883L45.5205 76.7002Z" fill="white"/>
<path d="M59.5827 73.9546C57.0514 75.3899 54.4427 76.6645 51.703 77.6591C51.304 77.8021 50.8692 78.1177 50.5178 78.0463C50.1604 77.9688 50.2617 77.3494 50.0413 77.0159C49.9639 76.8968 49.9162 76.7598 49.8507 76.6347C49.0764 75.2708 48.4392 73.8473 47.9389 72.3643C47.7661 71.8521 47.248 71.328 47.4683 70.8575C47.6827 70.3929 48.3975 70.3691 48.9037 70.1845C50.8989 69.4519 52.7155 68.2786 54.8358 67.8497C55.7352 67.6651 56.1759 67.1886 55.9198 66.7538C55.5088 66.051 54.9252 66.4263 54.4249 66.6347C52.8763 67.2839 51.3337 67.9569 49.7911 68.618C48.7906 69.0469 47.784 69.4578 46.7953 69.9105C46.4558 70.0653 46.158 70.2678 46.3069 70.786C46.7715 72.406 47.5219 73.9188 48.058 75.5031C48.4987 76.8074 49.3445 77.9272 49.6125 79.303C49.6839 79.6663 50.0353 79.7854 50.4284 79.8033C50.488 79.7914 50.5952 79.8033 50.6726 79.7556C51.5601 79.2375 52.5785 79.0469 53.5017 78.6359C55.8126 77.5996 58.0818 76.4799 60.3689 75.3959C60.8334 75.1755 61.1014 74.8539 60.8692 74.3238C60.6667 73.8533 60.0889 73.6865 59.5946 73.9665L59.5827 73.9546Z" fill="white"/>
<path d="M66.2599 47.7129C66.0217 48.4812 65.6464 48.6897 64.9198 48.6182C64.628 48.5884 64.3183 48.7254 64.0145 48.7671C63.2343 48.8743 62.8352 49.2674 62.8531 49.9285C62.871 50.5598 63.4308 51.0482 64.1456 51.0899C65.1164 51.1495 65.9264 50.6432 66.784 50.3395C67.195 50.1906 67.2784 49.7558 67.1712 49.3091C67.0878 48.9696 66.9984 48.6122 67.0103 48.2608C67.0342 47.7248 67.4332 47.4806 67.9216 47.4568C68.4934 47.433 68.4279 47.8201 68.3981 48.237C68.3623 48.7909 68.3683 49.3746 68.9877 49.7498C68.4279 49.8153 67.9514 49.9523 67.4928 50.1489C66.9984 50.3633 66.7304 50.8517 66.9031 51.2269C67.2367 51.9535 67.5642 52.7635 68.404 53.1209C68.9758 53.3651 69.9228 53.1209 70.3814 52.6444C70.8936 52.1203 70.6256 51.5962 70.3874 51.072C70.2802 50.8398 70.1372 50.6194 69.9883 50.3573C70.7268 50.0953 71.3999 49.863 72.0669 49.6307C72.8352 49.3567 73.3058 48.6777 73.1807 48.0226C73.0556 47.3794 72.466 47.016 71.5607 47.1054C70.7209 47.1828 69.8513 47.1649 69.1068 47.6772C68.809 47.8797 68.8329 47.5283 68.7316 47.421C68.0705 46.7123 66.5339 46.8314 66.2599 47.7129ZM65.3367 49.8689C64.9496 50.0476 64.5565 50.1906 64.1217 50.1846C63.949 50.1846 63.7763 50.1489 63.7167 49.9702C63.6631 49.8034 63.7286 49.6486 63.8537 49.5235C64.2051 49.1602 64.6458 49.0411 65.1283 49.0232C65.2891 49.0828 65.569 48.916 65.5809 49.19C65.5928 49.4222 65.6524 49.726 65.3427 49.8689H65.3367ZM72.0372 47.9452C72.1801 47.9452 72.3469 47.9809 72.3588 48.1477C72.3647 48.243 72.2754 48.3561 72.2039 48.4455C71.9657 48.7194 71.6262 48.8207 71.2986 48.7671C70.6732 48.6599 70.0419 48.6658 69.2796 48.6063C70.2206 48.0941 71.1021 47.9213 72.0312 47.9452H72.0372ZM69.8692 51.4175C69.8215 51.8225 69.3987 52.0071 69.1485 51.9535C68.6304 51.8344 68.5351 51.2924 68.4517 50.8338C68.3683 50.3931 68.7793 50.5598 68.946 50.4586C69.2438 50.4586 69.9049 51.1197 69.8692 51.4115V51.4175Z" fill="white"/>
<path d="M29.434 49.9286C29.3625 49.5832 29.2792 49.2318 29.2613 48.8864C29.2315 48.4278 29.708 48.0049 30.1904 48.0168C30.7741 48.0347 30.6669 48.4158 30.655 48.8208C30.6371 49.3688 30.6073 49.9644 31.2863 50.3217C30.6669 50.3813 30.1964 50.5302 29.7378 50.7267C29.2434 50.9412 28.9873 51.4355 29.16 51.8167C29.4876 52.5195 29.8033 53.3057 30.6073 53.669C31.2029 53.937 32.1678 53.7107 32.6443 53.2104C33.1505 52.6803 32.8706 52.1562 32.6383 51.638C32.5311 51.4057 32.3881 51.1913 32.2452 50.9352C32.9837 50.6791 33.6984 50.4468 34.4012 50.1907C35.0147 49.9703 35.5031 49.2795 35.4495 48.7315C35.3899 48.0764 34.9551 47.7547 34.3655 47.7071C33.4126 47.6297 32.4596 47.719 31.5841 48.118C31.2744 48.261 31.191 48.3086 30.9528 48.0108C30.375 47.2902 28.7967 47.4093 28.5406 48.2431C28.2845 49.077 27.8557 49.2795 27.0933 49.208C26.8432 49.1842 26.5871 49.3092 26.325 49.345C25.4852 49.4462 25.0743 49.8393 25.104 50.5123C25.1338 51.1675 25.7235 51.638 26.4799 51.6618C27.4209 51.6916 28.2071 51.1973 29.0409 50.8995C29.4221 50.7625 29.5174 50.3456 29.434 49.9286ZM31.4173 52.5373C31.1612 52.6029 30.6609 51.775 30.6848 51.364C30.7086 50.9531 31.06 51.1198 31.2387 51.0245C31.5245 51.0365 32.1797 51.769 32.1201 52.0251C32.0427 52.3765 31.7032 52.4659 31.4173 52.5373ZM34.2345 48.5111C34.3834 48.5111 34.5442 48.535 34.6038 48.6719C34.6871 48.8625 34.5085 48.9697 34.3893 49.077C34.1273 49.3152 33.7818 49.4045 33.4602 49.3331C32.8765 49.202 32.2809 49.2497 31.5067 49.1782C32.4656 48.6839 33.3232 48.4873 34.2345 48.5111ZM27.5996 50.4289C27.2363 50.6076 26.861 50.7327 26.5037 50.7565C26.2655 50.7565 26.051 50.7744 25.9736 50.554C25.8902 50.3277 26.0213 50.155 26.194 50.0061C26.5275 49.7083 26.9325 49.5951 27.3673 49.6011C27.5281 49.6011 27.808 49.482 27.8319 49.7381C27.8497 49.9644 27.9093 50.2741 27.6055 50.423L27.5996 50.4289Z" fill="white"/>
<path d="M34.3122 61.9354C34.872 61.3993 34.5921 60.8514 34.342 60.3094C34.2348 60.0771 34.0978 59.8627 33.9548 59.6125C34.6993 59.3564 35.414 59.1242 36.1228 58.8621C36.7422 58.6358 37.2127 57.9508 37.1591 57.3969C37.0996 56.7775 36.6946 56.444 36.1347 56.3904C35.1341 56.2951 34.1335 56.3785 33.2222 56.8311C32.9364 56.9741 32.8947 56.9562 32.7041 56.7239C32.1085 55.9913 30.5242 56.033 30.28 56.8609C30.012 57.7841 29.4938 57.9211 28.7196 57.8913C28.4635 57.8794 28.2074 57.9866 27.9513 58.0223C27.1889 58.1236 26.7779 58.5524 26.8137 59.2075C26.8494 59.8091 27.3974 60.2975 28.0585 60.3451C29.0531 60.4166 29.8869 59.9044 30.7625 59.5828C31.1436 59.4458 31.233 59.0229 31.1436 58.606C31.0722 58.2844 31.0066 57.9568 30.9769 57.6292C30.9352 57.123 31.3997 56.6763 31.906 56.7001C32.4956 56.7299 32.3646 57.117 32.3586 57.5101C32.3467 58.058 32.3169 58.6477 32.9959 59.005C32.4063 59.0408 31.9119 59.2016 31.4355 59.41C30.9471 59.6304 30.691 60.1248 30.8697 60.5059C31.1913 61.1909 31.501 61.9473 32.2574 62.3225C32.853 62.6203 33.7821 62.4357 34.3062 61.9294L34.3122 61.9354ZM29.2794 59.1361C28.9519 59.279 28.6243 59.4041 28.2669 59.4339C28.0406 59.4517 27.7607 59.5053 27.6713 59.2075C27.5999 58.9753 27.7607 58.8204 27.9274 58.6715C28.2669 58.3737 28.6779 58.3022 29.1127 58.2784C29.2556 58.3439 29.5474 58.1533 29.5415 58.469C29.5415 58.7013 29.5951 59.005 29.2794 59.142V59.1361ZM35.956 57.1944C36.1049 57.1944 36.2657 57.2183 36.3253 57.3612C36.4027 57.5518 36.224 57.659 36.1049 57.7662C35.8369 58.0044 35.4974 58.0878 35.1758 58.0164C34.5921 57.8853 33.9965 57.933 33.2222 57.8615C34.1931 57.3672 35.0448 57.1706 35.956 57.1944ZM32.4003 60.0711C32.3884 59.6364 32.7577 59.8091 32.9304 59.7078C33.2222 59.7078 33.8774 60.3987 33.8357 60.6846C33.7821 61.0539 33.4367 61.1313 33.1567 61.2087C32.8887 61.2862 32.4122 60.5238 32.4063 60.0711H32.4003Z" fill="white"/>
<path d="M68.5046 71.7092C67.3313 71.3101 66.0924 71.2029 64.8774 71.1255C63.174 71.0183 61.5957 70.4763 59.9876 70.0177C59.803 69.9641 59.7077 69.8926 59.7553 69.6663C60.2437 67.546 60.4819 65.378 61.0835 63.2756C61.1967 62.8765 61.3872 62.8825 61.685 62.9956C61.7089 62.8051 61.8161 62.4894 61.9292 62.549C62.7214 62.9659 63.5433 62.1559 64.3235 62.6562C64.5796 62.817 64.8715 62.7038 65.1216 62.5668C64.2104 62.2571 63.2336 62.4001 62.3223 62.2214C61.685 62.0963 61.2741 62.4656 60.7619 62.5609C60.071 62.6919 60.0531 63.4423 59.9102 63.9962C59.5111 65.5805 59.1538 67.1708 58.7666 68.761C58.4152 70.2261 58.4391 70.1606 59.7017 70.8932C61.0358 71.6675 62.495 71.8938 63.9602 72.132C65.1216 72.3167 66.3128 72.2809 67.4027 72.8646C68.1055 73.2398 68.8798 73.5019 69.6838 73.6389C70.7023 73.8176 71.149 73.4245 71.0775 72.3941C70.7797 72.0487 70.4105 71.9057 69.9519 71.9474C69.4516 71.9951 68.981 71.87 68.4986 71.7032L68.5046 71.7092Z" fill="white"/>
<path d="M39.0759 49.1719C41.4344 48.4512 43.8466 47.9688 46.2825 47.6115C49.5404 47.135 52.7388 46.3726 55.9431 45.6579C56.4017 45.5567 56.8603 45.3661 56.8126 44.8003C56.765 44.2404 56.2885 44.1332 55.7406 44.0796C55.2998 44.1808 54.7876 44.288 54.2814 44.4072C52.03 44.9492 49.8382 45.7115 47.5512 46.1344C45.4368 46.5275 43.3105 46.8848 41.2438 47.4864C40.404 47.7306 39.5524 47.945 38.8019 48.4095C38.5398 48.5704 38.254 48.8205 38.3909 49.1481C38.5398 49.4935 38.8555 49.2374 39.0759 49.1719Z" fill="white"/>
<path d="M64.5505 62.8527C63.7941 62.4835 63.0198 63.0314 62.2634 62.7634C62.0132 62.674 61.8882 62.8825 61.7393 63.0255C62.3468 63.4602 63.0853 63.3113 63.7464 63.3888C65.9263 63.6568 67.9751 64.4251 70.0895 64.9254C70.7089 65.0683 71.2926 65.3542 71.912 65.4972C72.2991 65.5865 72.3349 65.7533 72.2812 66.0868C72.1026 67.2303 71.9954 68.3858 71.6857 69.5055C71.5963 69.8331 71.6261 70.1606 71.6321 70.4942C71.7273 71.0183 71.6261 71.5365 71.4653 72.0249C71.3283 72.4418 71.6082 72.543 71.8703 72.6204C72.18 72.7157 72.4063 72.5966 72.5076 72.2512C72.7339 71.4888 72.9781 70.7324 73.2163 69.9701C73.6273 68.5347 73.8834 67.0695 73.9072 65.5746C73.9072 65.1338 73.7583 64.6872 73.2699 64.568C72.2038 64.306 71.227 63.7223 70.0895 63.6746C69.7678 63.6627 69.4462 63.5198 69.1246 63.4543C67.7786 63.1982 66.5159 62.5907 65.1163 62.5549C65.015 62.8289 64.741 62.9361 64.5445 62.8408L64.5505 62.8527Z" fill="white"/>
<path d="M64.324 62.656C63.5438 62.1557 62.7219 62.9657 61.9297 62.5488C61.8166 62.4893 61.7153 62.8049 61.6855 62.9955C61.7034 63.0074 61.7213 63.0134 61.7392 63.0312C61.888 62.8883 62.0131 62.6798 62.2633 62.7692C63.0137 63.0372 63.788 62.4893 64.5504 62.8585C64.7469 62.9538 65.0209 62.8466 65.1221 62.5726C64.866 62.7096 64.5742 62.8287 64.324 62.662V62.656Z" fill="white"/>
<path d="M42.1803 53.6628C43.6871 53.2519 45.1523 52.7337 46.6889 52.424C48.7556 52.0071 50.8342 51.6676 52.9188 51.3936C54.5567 51.1792 56.1827 50.8338 57.8444 50.7623C58.3744 50.7385 58.845 50.4407 58.8092 49.8272C58.7735 49.2138 58.2851 49.1125 57.755 49.1542C57.5644 49.1721 57.3738 49.1721 57.1892 49.2019C54.509 49.6783 51.8646 50.2739 49.2321 50.9946C46.8199 51.6557 44.3125 51.9773 41.9718 52.9184C41.6919 53.0315 41.3047 53.1089 41.4477 53.5259C41.5787 53.919 41.9182 53.7284 42.1743 53.6569L42.1803 53.6628Z" fill="white"/>
<path d="M49.5416 59.44C49.1425 59.4996 48.952 59.3685 48.7852 59.0052C48.547 58.4751 48.3623 57.8915 47.8561 57.5162C47.6417 57.3554 47.4094 57.1887 47.1473 57.3614C46.9031 57.5222 46.9686 57.7962 47.052 58.0106C47.2307 58.4751 47.3915 58.9516 47.6536 59.3685C48.0883 60.0594 48.6959 60.3453 49.5714 60.2679C52.2158 60.0296 54.6518 58.9814 57.2069 58.3858C57.6119 58.2905 58.0347 58.0165 57.9573 57.5639C57.8203 56.7062 57.5642 55.8664 56.7483 55.3542C56.4981 55.1994 56.2182 55.11 55.9561 55.3423C55.7179 55.5508 55.6643 55.8188 55.7715 56.1166C55.8966 56.4501 56.0752 56.7539 56.3373 57.0517C55.5213 57.7247 54.5684 58.0225 53.6512 58.3918C52.323 58.9218 50.9472 59.2434 49.5356 59.446L49.5416 59.44Z" fill="white"/>
<path d="M35.932 75.1337C36.4025 75.1516 36.8968 75.0801 37.3495 75.1814C39.166 75.5923 41.0004 75.6102 42.8468 75.5209C43.6151 75.4851 44.0439 75.1992 43.9963 74.687C43.9546 74.1927 43.5317 73.9783 42.7753 74.0676C42.6562 74.0795 42.543 74.1033 42.4239 74.1331C41.7985 74.2761 41.1553 74.2344 40.5299 74.3118C39.1243 74.4845 37.7604 74.0081 36.3667 74.1272C35.9617 74.1629 35.9498 73.9425 35.9439 73.6626C35.926 72.6203 35.92 71.578 35.8843 70.5417C35.8724 70.1069 35.8962 69.6424 35.5389 69.2493C35.1696 69.8032 35.2351 70.3988 35.2232 70.9824C35.1994 72.1617 35.4674 73.3291 35.2411 74.5143C35.1577 74.961 35.5329 75.1159 35.932 75.1337Z" fill="white"/>
<path d="M51.0475 75.003C50.5829 73.9488 50.2136 72.8351 49.5108 71.9C49.356 71.6975 49.1833 71.3878 48.8974 71.5486C48.5996 71.7154 48.8497 72.0191 48.9212 72.2276C49.3679 73.526 50.1481 74.6814 50.5948 75.9798C50.6782 76.224 50.845 76.4503 51.3214 76.3908C52.06 76.1823 52.9415 75.9024 53.8289 75.6641C55.2643 75.283 56.6639 74.7648 57.8968 73.9012C58.2184 73.6749 58.4388 73.3771 58.1827 73.0078C57.9087 72.6087 57.5156 72.6921 57.1821 72.9363C56.8545 73.1805 56.4912 73.3354 56.1338 73.52C54.7401 74.2288 53.1856 74.5444 51.8039 75.271C51.4048 75.4795 51.25 75.4735 51.0475 75.009V75.003Z" fill="white"/>
<path d="M35.9971 52.3464C36.4021 52.0129 36.551 52.2034 36.6106 52.6144C36.5808 52.1201 36.7535 51.6912 36.9799 51.2684C37.2538 50.7502 37.5099 50.7919 37.8197 51.2267C38.177 51.721 38.5284 52.2273 38.9394 52.6799C39.1597 52.9241 39.5171 53.079 39.8268 52.799C40.0948 52.5548 40.0293 52.2332 39.8506 51.9533C39.3861 51.2148 38.9155 50.4822 38.2664 49.8866C37.9983 49.6424 37.7065 49.5352 37.3551 49.6305C36.956 49.7496 37.0394 50.095 37.0156 50.3988C36.9322 51.4709 36.2592 52.2928 35.3301 52.4655C35.61 52.7573 35.8066 52.4953 35.9912 52.3464H35.9971Z" fill="white"/>
<path d="M35.998 52.3464C35.8134 52.5013 35.6168 52.7574 35.3369 52.4655C35.5394 53.0313 35.8134 52.6204 36.0099 52.4834C36.2899 52.2869 36.4805 52.2511 36.6115 52.6144C36.5519 52.1975 36.403 52.0129 35.998 52.3464Z" fill="white"/>
<path d="M59.8274 47.9094C60.0538 47.9273 60.2622 47.8916 60.3754 47.6712C60.5004 47.4211 60.5124 47.1352 60.3337 46.9327C60.0299 46.5932 59.8274 46.2001 59.6071 45.807C59.4403 45.5152 59.1485 45.408 58.8149 45.4675C58.529 45.5152 58.3563 45.6998 58.2968 45.9797C58.1538 46.7063 59.0949 47.8916 59.8334 47.9094H59.8274Z" fill="white"/>
<path d="M72.6274 72.3108C72.5261 72.6979 72.2581 72.8528 71.8829 72.7813C71.4957 72.7098 71.2277 72.4835 71.2992 72.0487C71.3587 71.6556 71.46 71.2745 71.4719 70.8754C71.2932 71.3698 71.2456 71.8998 71.0967 72.4001C71.2634 72.7634 71.46 73.097 71.9365 73.1029C72.3117 73.1029 72.5678 72.9064 72.675 72.5609C72.9311 71.7152 73.2706 70.8873 73.2289 69.9761C73.1277 70.7801 72.8299 71.5306 72.6274 72.3108Z" fill="white"/>
<path d="M71.8747 72.6264C71.6126 72.543 71.3327 72.4477 71.4697 72.0308C71.6305 71.5364 71.7318 71.0242 71.6365 70.5001C71.565 70.6252 71.5174 70.7502 71.4697 70.8813C71.4578 71.2744 71.3565 71.6615 71.297 72.0546C71.2315 72.4894 71.4995 72.7157 71.8807 72.7872C72.2499 72.8586 72.5239 72.7038 72.6252 72.3167C72.8277 71.5424 73.1195 70.786 73.2267 69.9819C72.9885 70.7383 72.7443 71.5007 72.5179 72.2631C72.4167 72.6085 72.1844 72.7276 71.8807 72.6323L71.8747 72.6264Z" fill="white"/>
<path d="M41.0771 54.4072C40.5887 54.4548 40.4636 54.8658 40.4458 55.2886C40.4279 55.646 40.5768 56.0629 40.9282 56.0272C41.5178 55.9676 41.357 55.3482 41.494 54.9968C41.494 54.6633 41.3928 54.3774 41.0771 54.4072Z" fill="white"/>
<path d="M71.083 72.4001C71.083 72.4001 71.083 72.4001 71.089 72.4061L71.083 72.3882C71.083 72.3882 71.083 72.3941 71.083 72.4001Z" fill="white"/>
<path d="M71.083 72.3882L71.089 72.4061C71.089 72.4061 71.089 72.3941 71.083 72.3941V72.3882Z" fill="white"/>
<path d="M62.3708 64.2166C61.942 64.1392 61.8765 64.5859 61.7395 64.8658C61.1975 65.9558 61.3345 67.2244 60.8282 68.3441C60.6555 68.7253 60.9235 69.1601 61.3821 69.2673C61.8348 69.3745 61.9896 69.0052 62.1028 68.6538C62.4721 67.4984 62.5316 66.2893 62.7401 65.1755C62.6984 64.7646 62.8592 64.306 62.3708 64.2166Z" fill="white"/>
</svg>
