<svg width="371" height="146" viewBox="0 0 371 146" fill="none" xmlns="http://www.w3.org/2000/svg">
<g clip-path="url(#clip0_988_43817)">
<path d="M219.605 30.18C219.685 32.53 218.845 33.75 217.375 33.96C215.785 34.18 214.115 33.13 213.805 31.46C213.405 29.28 213.225 27.06 212.945 24.86C212.785 23.54 212.275 22.32 211.705 21.15C210.905 19.53 209.015 19.12 207.405 19.93C205.385 20.94 204.855 22.47 204.895 24.67C204.945 27.19 205.475 29.73 204.965 32.25C204.645 33.82 203.655 34.68 202.295 34.69C200.775 34.69 199.705 33.52 199.965 32.04C200.635 28.16 200.455 24.32 199.625 20.49C199.365 19.3 199.135 19.24 197.995 19.62C195.175 20.57 193.925 22.44 194.185 25.4C194.395 27.8 193.405 30.06 193.255 32.44C193.175 33.68 192.185 34.39 191.075 34.43C189.835 34.47 189.055 33.81 188.575 32.74C187.895 31.23 188.155 29.66 188.545 28.18C188.995 26.46 189.055 24.72 189.095 23C189.155 20.57 189.665 18.2 189.875 15.79C189.985 14.58 190.955 13.83 192.085 13.85C193.385 13.87 193.715 14.79 193.905 15.83C194.205 17.43 194.245 17.5 195.665 16.64C196.975 15.85 198.255 15.36 199.845 15.7C201.155 15.98 202.295 16.39 202.975 17.62C203.325 18.26 203.715 18.46 204.335 17.87C205.425 16.84 206.835 16.29 208.205 15.81C211.895 14.5 215.595 16.24 217.195 19.83C218.745 23.3 218.955 27.04 219.615 30.18H219.605Z" fill="#A96B72"/>
<path d="M273.035 22.83C273.035 21.09 272.975 19.35 273.055 17.61C273.105 16.65 272.735 16.39 271.895 16.55C270.475 16.82 269.035 16.81 267.605 16.8C266.255 16.79 265.305 16.12 265.115 15.04C264.905 13.9 265.455 12.9 266.775 12.5C268.445 11.99 270.115 11.43 271.895 11.35C272.865 11.3 273.585 11.07 273.615 9.79C273.665 7.21 274.335 4.7 274.965 2.2C275.095 1.7 275.225 1.2 275.565 0.790001C276.055 0.190001 276.675 -0.149999 277.455 0.0800012C278.255 0.310001 278.535 0.930001 278.575 1.72C278.705 4.15 279.185 6.58 278.805 9.03C278.695 9.75 278.935 9.93 279.655 9.72C280.955 9.35 282.275 9.07 283.575 8.71C284.625 8.42 285.685 8.26 286.765 8.47C288.155 8.74 289.085 9.74 289.125 10.94C289.155 12.15 288.255 13.01 286.825 13.45C284.355 14.21 281.865 14.85 279.325 15.33C278.515 15.48 278.205 15.94 278.365 16.67C278.895 19.01 278.525 21.4 278.805 23.75C279.055 25.86 279.015 27.99 279.875 30.02C280.515 31.53 279.915 32.98 278.605 33.54C277.085 34.2 275.875 33.62 274.875 32.18C273.475 30.18 273.795 27.84 273.325 25.66C273.125 24.74 273.015 23.78 273.045 22.82L273.035 22.83Z" fill="#A96B72"/>
<path d="M133.845 12.08C134.105 15.28 134.315 18.48 134.475 21.68C134.685 25.95 135.185 30.2 135.455 34.46C135.515 35.44 135.255 36.26 134.485 36.89C133.435 37.75 132.105 37.69 131.145 36.74C130.075 35.69 129.695 34.32 129.755 32.93C129.875 30.15 129.445 27.42 129.305 24.68C129.145 21.33 128.805 17.99 128.855 14.62C128.895 12.53 128.725 10.43 128.735 8.33001C128.735 7.09001 128.935 5.95001 129.825 5.03001C130.895 3.92001 132.735 4.35001 133.015 5.85001C133.395 7.91001 133.585 10 133.855 12.07L133.845 12.08Z" fill="#A96B72"/>
<path d="M143.045 26.29C143.535 22.48 144.415 18.81 147.485 16.11C149.835 14.04 152.595 13.7 154.505 15.76C155.225 16.54 155.665 17.47 155.655 18.56C155.635 19.72 154.835 20.67 153.765 20.85C152.655 21.04 151.615 20.47 151.155 19.41C150.555 18.03 150.065 17.9 148.905 18.92C147.085 20.53 146.305 22.66 146.505 24.98C146.665 26.87 146.875 28.86 148.325 30.38C149.415 31.53 151.045 31.89 152.475 31.17C153.255 30.78 154.045 30.41 154.775 29.91C156.045 29.03 157.805 29.29 158.535 30.38C159.245 31.43 158.725 33.14 157.515 34.03C155.515 35.49 153.295 36.16 150.825 36.16C147.325 36.16 143.915 33.17 143.545 29.72C143.425 28.58 142.835 27.51 143.045 26.31V26.29Z" fill="#A96B72"/>
<path d="M95.8449 5.62C94.7649 5.02 93.9749 5.02 93.0149 5.79C91.1949 7.24 91.3449 9.3 91.3349 11.25C91.3349 14.45 91.5249 17.64 91.2849 20.84C91.1649 22.46 90.9349 24.07 90.7749 25.68C90.5549 27.94 90.0049 30.18 89.5349 32.41C89.3149 33.47 88.8949 34.63 87.6749 34.77C85.9749 34.97 84.2749 34.81 82.7149 33.89C81.8449 33.38 81.3649 33.01 82.3249 32.1C82.8649 31.59 83.1649 30.85 83.6449 30.27C84.6949 29.01 85.2849 27.55 85.6149 25.98C86.2149 23.09 84.6749 21.01 81.7549 20.53C79.5749 20.17 77.6549 20.79 75.7849 21.76C73.5049 22.94 72.5149 25.69 73.2549 28.17C73.6549 29.49 74.2249 30.69 75.0149 31.77C75.5649 32.52 75.3949 33.1 74.8149 33.62C74.1049 34.25 73.3349 34.82 72.5649 35.37C72.1349 35.68 71.7349 35.77 71.4249 35.12C70.3449 32.87 68.9749 30.73 68.1549 28.39C66.6949 24.21 65.2949 20.01 63.7449 15.86C62.9149 13.62 62.0849 11.26 59.0749 10.87C57.3149 10.64 55.8549 11.97 56.4249 13.62C57.3849 16.43 58.3949 19.23 59.5249 21.98C61.1849 26.01 62.8649 30.02 64.7249 33.96C66.0449 36.75 67.5449 39.52 70.6849 40.82H72.1249C74.5749 39.81 76.7349 38.39 78.4449 36.36C78.7549 35.99 79.0049 36.24 79.2649 36.4C80.2549 36.99 81.1949 37.64 82.2649 38.11C84.0349 38.88 85.8849 39.43 87.7749 39.4C90.7549 39.35 92.2349 38.38 93.7549 35.28C95.0049 32.72 95.2149 29.86 96.0549 27.2C97.5549 22.43 98.3049 17.56 98.5949 12.6C98.7549 9.86 98.7349 7.2 95.8349 5.6L95.8449 5.62ZM80.7249 26.08C80.2049 27 79.5049 27.82 78.9849 28.74C78.4449 29.68 78.0549 29.3 77.7049 28.67C77.2449 27.85 76.6449 26.89 77.1449 26.04C77.6949 25.12 78.8249 24.82 79.6949 24.67C81.2849 24.75 81.4049 24.9 80.7249 26.08Z" fill="#A96B72"/>
<path d="M311.395 13.12C309.895 11.6 307.965 10.37 305.765 10.75C303.955 11.07 302.185 11.22 300.365 11.31C296.685 11.5 294.555 14.33 292.835 16.98C290.545 20.51 290.535 24.59 292.015 28.55C293.095 31.43 295.615 32.77 299.505 32.74C300.265 32.73 301.005 32.72 301.765 32.58C305.525 31.89 308.735 30.09 311.485 27.58C312.995 26.2 314.295 24.46 314.575 22.33C315.045 18.77 313.885 15.65 311.395 13.13V13.12ZM308.365 23.3C306.355 25.52 303.775 26.69 300.965 27.39C299.895 27.66 298.735 27.48 297.645 27.21C296.915 27.03 296.545 26.44 296.535 25.69C296.525 24.78 296.295 23.88 296.405 22.93C296.495 20.15 297.815 17.95 300.285 16.83C302.405 15.87 304.815 15.62 307.095 16.64C309.395 17.67 310.045 21.44 308.365 23.3Z" fill="#A96B72"/>
<path d="M245.735 25.66C244.375 24.78 242.945 25.27 241.785 27.08C241.165 28.05 240.305 28.48 239.165 28.43C237.215 28.34 235.505 27.7 234.295 26.09C233.865 25.52 233.755 24.95 234.745 24.91C235.875 24.85 236.945 24.54 238.005 24.2C241.815 22.97 245.485 19.39 244.045 14.64C243.415 12.56 242.635 11.07 240.555 10.86C237.535 10.54 234.575 10.74 232.285 13.22C231.045 14.58 229.785 15.9 229.365 17.76C229.065 19.12 228.935 19.17 227.855 18.25C227.585 18.02 227.345 17.74 227.055 17.53C226.005 16.74 224.735 16.77 223.875 17.58C223.005 18.39 222.835 19.68 223.525 20.73C224.515 22.24 225.985 23.2 227.585 23.95C228.265 24.27 228.595 24.61 228.725 25.4C229.045 27.32 229.485 29.29 231.055 30.62C233.895 33.03 236.945 34.48 240.995 33.87C243.585 33.48 245.105 32.1 246.525 30.38C247.755 28.9 247.255 26.66 245.715 25.66H245.735ZM233.485 19.42C233.985 17.17 234.225 14.71 236.985 13.64C238.225 13.16 238.685 13.29 239.285 14.49C239.915 15.76 240.445 16.99 239.335 18.23C237.955 19.76 236.035 20.24 234.105 20.55C233.285 20.68 233.625 19.94 233.495 19.43L233.485 19.42Z" fill="#A96B72"/>
<path d="M120.255 32.17C118.495 32.73 116.795 32.46 115.095 31.96C114.225 31.7 113.705 31.09 113.315 30.31C113.145 29.97 113.075 29.72 113.565 29.64C114.505 29.48 115.265 28.91 116.005 28.42C118.755 26.59 120.855 24.19 121.725 20.93C122.585 17.75 119.275 15.08 117.165 15.16C115.085 15.24 113.355 16.13 112.025 17.6C110.105 19.72 108.865 22.25 108.335 25.08C108.185 25.88 107.805 25.9 107.155 25.73C106.055 25.43 105.635 24.56 105.155 23.67C104.505 22.45 103.165 21.97 102.015 22.46C100.905 22.94 100.455 24.13 100.865 25.48C101.715 28.3 103.645 30.11 106.525 30.42C108.335 30.62 108.815 31.74 109.455 32.96C109.545 33.13 109.555 33.35 109.635 33.52C110.355 34.94 111.455 36.24 112.835 36.74C114.685 37.42 116.655 38.18 118.755 37.83C120.625 38 122.125 37.42 123.045 35.68C123.525 34.78 123.735 33.86 123.045 33C122.325 32.11 121.315 31.82 120.245 32.16L120.255 32.17ZM112.365 24.96C112.925 22.53 113.385 20.32 115.475 18.94C116.095 18.53 116.745 18.13 117.415 18.75C118.085 19.37 118.145 20.14 117.655 20.91C116.435 22.82 114.655 24.03 112.365 24.97V24.96Z" fill="#A96B72"/>
<path d="M175.595 15.63C173.825 15.37 172.095 15.47 170.375 15.88C167.065 16.67 164.025 18.56 163.415 22.16C163.155 23.72 163.285 25.2 163.375 26.74C163.545 29.73 165.385 32.49 168.085 33.51C169.025 33.86 169.975 33.72 171.225 33.74C173.495 34.11 175.415 32.8 177.085 31.17C179.335 28.97 180.765 26.22 181.105 23.12C181.525 19.28 179.965 16.3 175.595 15.65V15.63ZM173.535 27.48C172.715 28.38 171.645 28.76 170.535 29.1C169.825 29.32 169.315 29.12 168.975 28.42C167.605 25.63 167.485 22.79 168.665 19.92C168.765 19.68 169.065 19.3 169.175 19.33C170.695 19.72 172.015 18.67 173.525 18.84C175.735 19.08 176.305 19.54 176.445 21.75C176.615 24.24 175.035 25.84 173.525 27.49L173.535 27.48Z" fill="#A96B72"/>
</g>
<path d="M221.784 111.879C222.018 113.61 221.379 115.568 220.961 117.54C220.763 118.477 220.365 119.388 219.97 120.285C219.638 121.038 219.464 121.868 219.099 122.608C218.433 123.964 218.011 125.427 217.231 126.729C216.455 128.028 215.715 129.357 214.838 130.589C213.961 131.817 213.003 133.009 211.956 134.097C210.483 135.627 208.929 137.08 207.118 138.228C206.439 138.66 205.826 139.199 205.137 139.614C204.517 139.989 203.932 140.447 203.225 140.665C202.844 140.785 202.532 141.026 202.191 141.21C201.13 141.78 199.958 142.064 198.857 142.533C197.906 142.941 196.888 143.112 195.901 143.383C195.292 143.55 194.672 143.724 194.073 143.909C192.918 144.267 191.71 144.287 190.551 144.591C189.745 144.802 188.901 144.752 188.078 144.849C185.925 145.1 183.793 144.719 181.654 144.608C181.48 144.598 181.309 144.588 181.138 144.595C179.997 144.642 178.919 144.3 177.817 144.093C175.829 143.721 173.985 142.934 172.137 142.171C171.169 141.773 170.235 141.271 169.338 140.732C167.219 139.463 165.117 138.168 163.182 136.628C162.041 135.714 160.876 134.827 159.818 133.806C158.7 132.724 157.803 131.486 157.059 130.127C156.952 129.936 156.875 129.715 156.728 129.558C156.092 128.881 155.781 128.035 155.439 127.201C154.8 125.641 154.134 124.095 153.357 122.598C152.862 121.637 152.55 120.616 152.249 119.589C151.831 118.139 151.359 116.703 150.967 115.244C150.532 113.62 150.167 111.99 150.033 110.296C149.919 108.86 150.123 107.477 150.301 106.075C150.391 105.372 150.532 104.682 150.652 103.986C150.743 103.45 150.98 102.962 151.138 102.456C151.332 101.843 151.379 101.224 151.502 100.608C151.8 99.1219 152.286 97.6925 152.878 96.2932C153.454 94.9241 153.929 93.5047 154.683 92.2092C155.392 90.9874 156.102 89.7789 156.972 88.6474C158.288 86.9335 159.674 85.2932 161.254 83.827C162.523 82.652 163.808 81.477 165.368 80.6703C165.626 80.5364 165.87 80.3556 166.074 80.148C166.697 79.5154 167.403 78.9931 168.163 78.5479C168.94 78.0893 169.723 77.6374 170.567 77.2959C170.794 77.2056 171.022 77.1252 171.209 76.9545C171.799 76.4155 172.532 76.1678 173.268 75.8967C174.416 75.4749 175.578 75.1066 176.743 74.7384C178.591 74.1526 180.492 73.8647 182.404 73.5869C183.425 73.4396 184.452 73.4898 185.473 73.3525C186.541 73.2052 187.616 73.4931 188.697 73.4496C190.27 73.3894 191.824 73.627 193.35 73.9417C195.764 74.4438 198.157 75.043 200.413 76.0473C201.933 76.7235 203.386 77.5303 204.775 78.4508C205.08 78.6517 205.435 78.7822 205.726 78.9965C207.544 80.3188 209.405 81.5875 210.978 83.211C212.21 84.4798 213.295 85.8489 214.185 87.3821C214.624 88.1386 215.106 88.8784 215.688 89.5379C215.953 89.8392 216.08 90.2141 216.291 90.5455C217.041 91.7138 217.75 92.8955 218.299 94.1943C218.878 95.5668 219.511 96.9192 219.926 98.3486C220.241 99.4432 220.452 100.568 220.709 101.679C220.73 101.773 220.726 101.877 220.756 101.967C221.279 103.534 221.436 105.154 221.496 106.794C221.523 107.571 221.637 108.348 221.717 109.124C221.804 109.928 221.761 110.738 221.784 111.879Z" fill="#E6C691"/>
<path d="M154 109.409C154.137 107.119 154.211 105.352 154.579 103.594C154.753 102.764 154.864 101.92 155.098 101.104C155.192 100.776 155.296 100.451 155.429 100.136C155.811 99.2357 155.898 98.2515 156.25 97.3343C156.805 95.8948 157.485 94.5257 158.322 93.2302C158.904 92.3331 159.393 91.3757 160.073 90.5354C161.485 88.788 162.908 87.0473 164.575 85.5242C165.178 84.9752 165.881 84.5668 166.563 84.1483C168.02 83.2512 169.339 82.1566 170.778 81.236C171.153 80.995 171.581 80.8878 171.97 80.6769C173.493 79.8468 175.076 79.1304 176.686 78.501C178.109 77.9487 179.599 77.5537 181.112 77.2457C182.139 77.0382 183.174 76.8674 184.208 76.7469C185.367 76.613 186.521 76.5026 187.713 76.6331C188.778 76.7469 189.832 76.9712 190.91 76.998C191.469 77.0114 192.008 77.2122 192.56 77.316C195.111 77.7914 197.568 78.578 199.905 79.7329C200.608 80.0777 201.267 80.4895 201.927 80.8979C202.305 81.1322 202.723 81.2695 203.098 81.5004C204.344 82.2737 205.479 83.1943 206.637 84.0881C207.581 84.8212 208.505 85.5777 209.405 86.3577C211.213 87.921 212.706 89.7186 213.67 91.9581C214.306 93.4311 215.019 94.8772 215.598 96.3702C216.181 97.8666 216.75 99.3729 217.068 100.963C217.289 102.058 217.627 103.136 217.821 104.234C218.015 105.335 218.126 106.453 218.256 107.564C218.38 108.582 218.393 109.606 218.49 110.624C218.621 112.027 218.554 113.439 218.192 114.839C217.814 116.301 217.389 117.734 216.874 119.157C216.201 120.995 215.307 122.729 214.637 124.567C214.376 125.29 214.005 126.043 213.503 126.682C213.067 127.241 212.773 127.891 212.388 128.486C211.929 129.193 211.32 129.755 210.808 130.405C210.098 131.308 209.378 132.199 208.558 133.012C207.306 134.264 205.86 135.272 204.437 136.3C203.296 137.123 202.124 137.933 200.852 138.539C199.088 139.379 197.25 140.032 195.339 140.494C194.084 140.799 192.842 141.144 191.576 141.418C191.436 141.448 191.285 141.492 191.144 141.482C190.063 141.405 188.995 141.612 187.924 141.672C187.094 141.719 186.264 141.836 185.433 141.776C183.077 141.602 180.73 141.408 178.414 140.846C177.001 140.501 175.665 139.992 174.33 139.473C172.622 138.807 171.019 137.923 169.492 136.892C168.2 136.015 166.871 135.192 165.65 134.214C164.709 133.468 163.839 132.678 163.102 131.71C162.436 130.843 161.716 130.006 161.03 129.149C160.588 128.597 160.176 128.014 159.734 127.476C159.296 126.943 158.995 126.337 158.613 125.782C158.272 125.283 158.067 124.694 157.81 124.141C157.2 122.836 156.574 121.54 155.999 120.221C155.48 119.03 155.252 117.751 154.947 116.496C154.593 115.029 154.405 113.53 154.251 112.033C154.147 110.996 153.916 109.955 154 109.409Z" fill="#A06C58"/>
<path d="M337.728 144.719C337.313 144.719 336.895 144.709 336.48 144.719C335.422 144.749 334.384 144.561 333.34 144.484C332.335 144.414 331.341 144.31 330.357 144.13C328.703 143.825 327.04 143.561 325.409 143.135C324.82 142.978 324.228 142.801 323.625 142.714C322.202 142.513 320.86 142.031 319.608 141.375C318.339 140.708 317.087 139.979 316.013 139.001C315.775 138.784 315.514 138.61 315.25 138.432C314.051 137.625 312.893 136.772 311.872 135.741C311.46 135.326 310.985 134.971 310.58 134.549C309.341 133.264 308.216 131.871 306.924 130.639C306.442 130.177 306.198 129.534 305.88 128.962C305.311 127.938 304.554 127.03 304.062 125.963C303.363 124.433 302.599 122.94 302.224 121.276C302.064 120.576 301.682 119.914 301.615 119.18C301.438 117.192 300.684 115.348 300.269 113.419C300.146 112.844 300.055 112.268 300.059 111.675C300.069 110.453 299.998 109.225 300.062 108.003C300.172 105.861 300.383 103.742 301.113 101.683C301.622 100.264 302.054 98.8073 302.569 97.3947C303.128 95.8615 303.727 94.3283 304.681 92.9793C304.896 92.678 305.036 92.3231 305.157 91.9951C305.702 90.5155 306.744 89.3673 307.674 88.1521C309.147 86.2239 310.915 84.5669 312.726 82.9534C313.164 82.5584 313.706 82.3207 314.152 81.929C315.24 80.9783 316.478 80.2184 317.69 79.4485C318.865 78.7054 320.117 78.0727 321.356 77.44C323.203 76.496 325.101 75.6825 327.133 75.1771C328.077 74.9427 329.018 74.6649 329.972 74.4707C331.043 74.2565 332.135 74.1259 333.236 74.0355C334.602 73.9184 335.971 73.9251 337.34 73.8715C338.947 73.8113 340.5 74.1326 342.07 74.3703C343.205 74.5444 344.3 74.8892 345.421 75.1201C346.094 75.2574 346.72 75.5453 347.356 75.7997C348.33 76.1847 349.328 76.5194 350.288 76.9412C351.246 77.3663 352.156 77.912 353.12 78.3304C354.5 78.9296 355.681 79.8469 356.947 80.6302C359.484 82.2035 361.63 84.2288 363.545 86.5085C364.107 87.178 364.626 87.8877 365.028 88.681C365.188 88.999 365.469 89.2601 365.697 89.548C366.37 90.3983 366.805 91.3858 367.294 92.3432C367.926 93.5818 368.499 94.8438 369.048 96.1193C369.105 96.2532 369.182 96.3871 369.215 96.5277C369.496 97.8165 369.995 99.0383 370.367 100.297C370.698 101.425 370.839 102.577 370.899 103.762C370.979 105.352 371.03 106.938 370.979 108.525C370.919 110.43 370.846 112.335 370.668 114.226C370.564 115.311 370.263 116.382 370.005 117.443C369.932 117.751 369.865 118.052 369.825 118.367C369.677 119.535 369.346 120.653 368.83 121.715C368.593 122.207 368.566 122.749 368.382 123.258C367.99 124.346 367.468 125.363 366.912 126.368C366.631 126.88 366.4 127.419 366.126 127.934C365.523 129.066 364.726 130.043 363.946 131.044C362.771 132.551 361.593 134.04 360.177 135.342C359.4 136.055 358.557 136.678 357.753 137.354C357.157 137.856 356.568 138.369 355.952 138.854C354.771 139.785 353.495 140.548 352.146 141.19C351.333 141.582 350.62 142.148 349.739 142.426C348.273 142.888 346.83 143.413 345.324 143.745C344.279 143.976 343.258 144.3 342.191 144.468C340.704 144.702 339.225 144.762 337.728 144.719Z" fill="#E6C691"/>
<path d="M304.036 109.957C304.026 108.458 304.126 107.226 304.277 105.984C304.488 104.243 305.081 102.63 305.573 100.979C305.82 100.139 305.988 99.2788 306.286 98.4486C306.65 97.4376 307.136 96.4769 307.521 95.476C307.755 94.86 308.026 94.2575 308.204 93.6215C308.579 92.2691 309.429 91.1945 310.256 90.1065C311.387 88.6169 312.827 87.4218 314.126 86.0928C315.033 85.1689 316.097 84.4291 317.132 83.6491C318.166 82.8725 319.18 82.0725 320.295 81.413C320.861 81.0749 321.447 80.7569 322.049 80.4924C322.986 80.084 323.924 79.6589 324.925 79.4179C325.266 79.3342 325.527 79.1132 325.865 79.0228C326.993 78.735 328.105 78.3768 329.236 78.0855C331.268 77.5566 333.33 77.2252 335.443 77.2687C335.808 77.2754 336.172 77.2888 336.534 77.175C336.926 77.0478 337.307 77.252 337.696 77.2654C339.483 77.329 341.214 77.7441 342.961 78.0855C343.581 78.2094 344.18 78.4236 344.819 78.4705C345.305 78.5073 345.736 78.7952 346.192 78.9559C348.424 79.756 350.62 80.6464 352.723 81.7544C353.626 82.2331 354.517 82.7386 355.354 83.3345C355.491 83.4316 355.642 83.542 355.802 83.5788C356.566 83.7496 357.064 84.2986 357.583 84.8141C358.333 85.5539 359.076 86.3004 359.823 87.0435C360.797 88.0143 361.617 89.0989 362.3 90.294C362.578 90.7761 362.946 91.2079 363.261 91.6698C364.275 93.1428 364.857 94.84 365.694 96.4033C366.304 97.5414 366.531 98.7834 366.873 99.9985C367.007 100.467 367.174 100.929 367.291 101.404C367.448 102.047 367.485 102.703 367.469 103.366C367.445 104.226 367.556 105.07 367.813 105.89C367.967 106.372 367.957 106.878 367.88 107.346C367.689 108.495 367.827 109.643 367.75 110.788C367.659 112.194 367.559 113.6 367.281 114.992C367.13 115.752 366.976 116.515 366.836 117.279C366.665 118.233 366.387 119.18 366.022 120.077C365.691 120.89 365.48 121.737 365.139 122.544C364.329 124.459 363.398 126.31 362.189 128.001C361.326 129.209 360.362 130.351 359.428 131.509C358.229 132.992 356.937 134.405 355.511 135.67C354.778 136.323 353.888 136.835 352.967 137.22C351.953 137.638 350.938 138.06 349.954 138.542C348.9 139.061 347.772 139.369 346.657 139.727C345.1 140.226 343.524 140.681 341.92 140.972C340.943 141.15 339.958 141.411 338.948 141.347C338.522 141.321 338.124 141.461 337.716 141.511C336.005 141.736 334.315 141.659 332.611 141.398C331.724 141.26 330.82 141.23 329.929 141.063C328.945 140.879 327.961 140.691 327.01 140.387C325.5 139.898 323.974 139.466 322.508 138.853C321.507 138.435 320.613 137.849 319.709 137.273C318.41 136.447 317.276 135.402 316.047 134.485C314.223 133.129 312.75 131.422 311.156 129.835C310.098 128.784 309.292 127.532 308.482 126.287C307.742 125.159 307.189 123.937 306.563 122.752C306.286 122.226 306.168 121.654 305.954 121.108C305.83 120.793 305.79 120.439 305.653 120.134C305.335 119.434 305.181 118.691 305.101 117.945C304.957 116.609 304.645 115.303 304.414 113.988C304.163 112.562 303.939 111.149 304.036 109.957Z" fill="#A06C58"/>
<path d="M296.087 110.001C296.063 111.296 295.996 112.639 295.916 113.978C295.815 115.581 295.491 117.168 295.149 118.738C295.059 119.16 294.814 119.548 294.637 119.95C294.289 120.73 294.185 121.587 293.874 122.38C293.238 123.994 292.602 125.604 291.685 127.09C291.457 127.462 291.35 127.904 291.126 128.278C290.225 129.785 289.472 131.365 288.29 132.711C286.72 134.502 285.063 136.182 283.215 137.685C282.619 138.167 281.92 138.465 281.25 138.81C280.293 139.305 279.366 139.851 278.442 140.407C277.839 140.768 277.347 141.31 276.678 141.578C275.432 142.077 274.334 142.887 273.032 143.269C272.075 143.55 271.144 143.928 270.18 144.183C269.336 144.407 268.459 144.504 267.606 144.708C267.227 144.799 266.853 144.906 266.471 144.993C265.507 145.214 264.529 145.224 263.552 145.086C262.889 144.993 262.243 145.177 261.58 145.177C259.843 145.177 258.112 145.103 256.385 144.886C254.57 144.658 252.769 144.34 250.975 143.975C249.211 143.617 247.52 142.998 246.041 141.993C244.521 140.969 242.948 140.025 241.461 138.95C239.798 137.745 238.161 136.52 236.618 135.158C235.63 134.281 234.72 133.327 233.739 132.443C233.076 131.85 232.513 131.12 231.948 130.411C230.92 129.125 230.167 127.673 229.32 126.277C228.891 125.57 228.537 124.81 228.205 124.047C228.001 123.575 227.683 123.17 227.512 122.678C226.977 121.111 226.548 119.518 226.146 117.911C225.731 116.261 225.688 114.584 225.551 112.907C225.457 111.738 225.494 110.563 225.336 109.402C225.212 108.474 225.387 107.544 225.5 106.627C225.661 105.294 225.966 103.989 226.053 102.64C226.113 101.716 226.488 100.839 226.793 99.9717C227.174 98.8904 227.469 97.7824 227.944 96.7346C228.249 96.0684 228.56 95.409 228.952 94.783C229.367 94.1269 229.551 93.3536 229.983 92.6941C230.237 92.3092 230.435 91.8807 230.743 91.5325C231.375 90.8128 231.807 89.9592 232.343 89.1759C233.136 88.021 234.05 86.9732 235.034 85.9857C236.002 85.0115 236.966 84.0374 237.813 82.9561C238.241 82.4071 238.901 82.136 239.386 81.6439C240.176 80.8438 241.026 80.104 241.92 79.4178C242.208 79.1935 242.529 79.0094 242.847 78.8286C244.139 78.0888 245.492 77.4494 246.838 76.8268C248.987 75.8326 251.25 75.076 253.566 74.5839C254.962 74.286 256.391 74.0718 257.818 73.881C259.384 73.6734 260.951 73.7404 262.511 73.7872C264.051 73.8341 265.567 74.1186 267.063 74.4969C268.007 74.7346 268.951 74.9957 269.909 75.1765C270.568 75.3037 271.154 75.6016 271.78 75.8091C272.614 76.087 273.44 76.3916 274.264 76.6996C274.696 76.8636 275.128 77.031 275.536 77.2486C276.852 77.9449 278.244 78.4838 279.53 79.2605C281.126 80.2245 282.583 81.3661 284.076 82.4607C285.02 83.1536 285.769 84.0876 286.583 84.9379C287.38 85.7681 288.029 86.7154 288.782 87.5858C289.355 88.2419 289.87 88.965 290.322 89.7215C291.259 91.2915 292.157 92.8916 292.87 94.5754C293.462 95.9613 293.951 97.3941 294.326 98.8603C294.58 99.8545 294.922 100.829 295.106 101.833C295.307 102.931 295.548 104.029 295.655 105.15C295.758 106.215 295.892 107.276 296.033 108.337C296.107 108.876 296.05 109.415 296.087 110.001Z" fill="#E6C691"/>
<path d="M292.829 110.942C293.017 112.783 292.615 114.751 292.244 116.716C292.11 117.436 291.768 118.102 291.4 118.731C290.791 119.769 290.399 120.901 289.92 121.995C289.545 122.842 289.147 123.669 288.668 124.462C287.915 125.714 287.212 126.997 286.503 128.275C286.101 129.002 285.518 129.594 285.03 130.257C284.193 131.385 283.122 132.286 282.141 133.28C280.721 134.719 278.934 135.653 277.293 136.785C276.811 137.116 276.286 137.381 275.851 137.782C275.583 138.027 275.262 138.234 274.927 138.375C273.762 138.877 272.687 139.583 271.472 139.965C270.337 140.326 269.223 140.725 268.041 140.952C267.157 141.123 266.267 141.284 265.38 141.428C264.717 141.535 264.037 141.649 263.351 141.521C263.087 141.471 262.819 141.515 262.548 141.552C261.647 141.675 260.743 141.689 259.843 141.548C259.501 141.491 259.16 141.488 258.818 141.495C257.342 141.535 255.909 141.193 254.463 140.986C253.693 140.875 252.923 140.812 252.157 140.621C250.403 140.186 248.662 139.724 247.119 138.726C246.503 138.331 245.823 138.037 245.17 137.705C243.631 136.925 242.245 135.911 240.922 134.85C239.048 133.347 237.257 131.737 235.858 129.731C234.991 128.493 234.023 127.325 233.26 126.016C232.54 124.77 231.887 123.488 231.221 122.213C230.281 120.415 229.755 118.46 229.005 116.592C228.523 115.404 228.121 114.135 228.262 112.82C228.446 111.146 228.363 109.465 228.617 107.788C228.814 106.496 229.069 105.204 229.159 103.885C229.223 102.948 229.521 102.027 229.859 101.133C230.364 99.7911 230.692 98.3851 231.392 97.1097C232.232 95.5765 232.902 93.9563 233.996 92.5504C234.696 91.6532 235.289 90.6624 235.958 89.7317C236.403 89.1091 236.969 88.6036 237.471 88.0379C238.408 86.9767 239.446 86.0059 240.444 84.9983C240.926 84.5163 241.441 84.0945 242.064 83.7664C242.656 83.4518 243.182 82.9731 243.661 82.491C244.367 81.7813 245.187 81.2658 246.084 80.8708C247.159 80.3955 248.056 79.5954 249.194 79.2439C250.359 78.8857 251.531 78.5376 252.679 78.1258C253.767 77.7375 254.878 77.5199 256.023 77.4061C256.408 77.3659 256.78 77.212 257.161 77.135C259.317 76.6998 261.5 76.8169 263.672 76.8672C264.409 76.8872 265.182 76.9642 265.842 77.3994C266.19 77.6271 266.601 77.5601 266.98 77.6538C269.025 78.1593 270.97 78.9426 272.912 79.7427C274.267 80.2984 275.556 80.9947 276.872 81.6307C277.374 81.8751 277.863 82.2433 278.338 82.5781C279.496 83.3915 280.641 84.2284 281.786 85.0586C281.963 85.1858 282.137 85.323 282.295 85.4737C283.878 86.9734 285.318 88.5936 286.616 90.351C287.547 91.6097 288.26 92.9822 288.983 94.358C289.231 94.8267 289.569 95.2485 289.776 95.7473C290.53 97.5382 291.45 99.2722 291.862 101.187C292.106 102.325 292.364 103.457 292.454 104.638C292.541 105.82 292.692 107.008 292.813 108.193C292.896 109.044 292.829 109.907 292.829 110.942Z" fill="#A06C58"/>
<path d="M191 108.957C191.124 110.195 191.16 111.441 191.237 112.683C191.294 113.627 191.308 114.577 191.167 115.518C191.147 115.638 191.137 115.762 191.144 115.883C191.224 117.734 190.826 119.515 190.384 121.299C190.18 122.113 189.868 122.872 189.55 123.636C189.359 124.091 189.085 124.496 188.733 124.847C188.442 125.145 188.144 125.437 187.863 125.745C186.558 127.184 184.88 127.395 183.083 127.167C182.865 127.137 182.648 127.11 182.43 127.087C180.883 126.93 179.829 125.711 179.966 124.258C180.07 123.15 181.232 121.952 182.376 121.791C182.788 121.731 183.207 121.664 183.618 121.681C184.248 121.707 184.566 121.376 184.76 120.847C185.091 119.95 185.292 119.016 185.483 118.085C185.684 117.108 185.911 116.107 185.811 115.106C185.687 113.854 185.888 112.619 185.855 111.377C185.841 110.808 185.724 110.259 185.657 109.707C185.547 108.776 185.58 107.849 185.543 106.921C185.456 104.608 185.352 102.292 185.383 99.9753C185.406 98.4588 185.165 96.9558 185.242 95.4394C185.255 95.1448 185.225 94.8502 185.255 94.559C185.346 93.6317 186.015 93.0492 187.123 92.9086C187.88 92.8116 188.546 93.2869 188.928 94.0267C189.577 95.2887 189.815 96.6746 190.039 98.027C190.213 99.0949 190.317 100.2 190.404 101.294C190.518 102.777 190.578 104.267 190.786 105.743C190.929 106.804 190.933 107.886 191 108.957ZM170.821 114.182C169.525 114.172 168.598 113.198 168.494 111.749C168.454 111.223 168.531 110.707 168.822 110.272C169.425 109.379 169.73 108.334 170.289 107.414C170.58 106.931 170.894 106.47 171.256 106.044C171.942 105.234 172.839 105.281 173.75 105.519C174.573 105.733 175.005 106.322 175.176 107.122C175.28 107.624 175.139 108.1 174.942 108.542C174.64 109.211 174.419 109.907 174.145 110.587C173.803 111.447 173.325 112.247 172.906 113.071C172.501 113.864 171.721 114.189 170.821 114.182ZM202.16 113.138C201.652 113.118 200.945 112.669 200.37 111.99C199.66 111.149 198.947 110.312 198.317 109.409C197.327 107.989 198.043 106.118 199.733 105.736C200.467 105.572 201.113 105.807 201.658 106.235C202.924 107.226 203.978 108.404 204.664 109.877C205.418 111.487 204.333 113.171 202.16 113.138ZM262.647 120.466C263.163 120.412 263.615 120.616 264.05 120.82C264.485 121.028 264.923 121.118 265.395 121.088C266.493 121.015 267.595 121.162 268.693 120.958C269.138 120.874 269.613 120.917 270.082 120.991C270.628 121.075 271.193 121.018 271.749 121.055C272.472 121.098 273.158 121.707 273.369 122.454C273.55 123.09 273.289 123.86 272.74 124.292C272.546 124.446 272.332 124.59 272.08 124.593C271.254 124.606 270.417 124.717 269.603 124.439C268.863 124.188 268.114 123.96 267.367 123.729C267.257 123.693 267.139 123.683 267.039 123.662C266.915 123.806 266.986 123.92 267.022 124.031C267.427 125.276 267.099 126.444 266.614 127.582C266.092 128.808 265.168 129.641 263.973 130.207C263.658 130.358 263.34 130.468 263.005 130.528C262.118 130.689 261.258 130.967 260.331 130.903C259.437 130.843 258.59 130.585 257.786 130.254C256.879 129.886 256.337 129.106 256.397 128.111C256.461 127.124 256.976 126.337 257.971 126.006C258.607 125.795 259.269 125.828 259.922 126.016C260.438 126.163 260.953 126.304 261.485 126.401C261.917 126.478 262.309 126.354 262.717 126.347C263.019 126.344 263.156 126.059 263.343 125.875C263.872 125.353 264.157 124.727 264.16 123.977C264.164 123.398 263.969 123.144 263.414 123.113C261.666 123.023 259.936 123.01 258.212 123.475C256.943 123.813 255.621 123.947 254.318 124.151C253.666 124.255 253.013 124.372 252.39 124.58C251.577 124.854 250.737 125.025 249.896 125.165C249.136 125.289 248.36 125.219 247.69 124.807C247.014 124.392 246.693 123.746 246.82 122.929C246.974 121.965 247.406 121.185 248.427 120.961C249.187 120.794 249.967 120.71 250.743 120.62C251.614 120.519 252.487 120.549 253.354 120.516C254.559 120.472 255.788 120.352 257 120.563C257.167 120.593 257.341 120.589 257.512 120.593C258.63 120.626 258.647 120.633 259.045 119.615C259.367 118.805 259.822 118.099 260.451 117.496C260.689 117.269 260.973 117.064 261.131 116.703C260.739 116.626 260.418 116.716 260.083 116.75C258.834 116.87 257.649 117.272 256.437 117.553C256.18 117.61 255.939 117.751 255.701 117.881C255.005 118.26 254.375 118.229 253.873 117.771C253.381 117.322 253.224 116.539 253.502 115.876C253.719 115.357 254.067 114.972 254.593 114.741C255.765 114.229 256.983 113.881 258.248 113.73C258.623 113.683 258.951 113.529 259.306 113.456C260.384 113.232 261.499 112.96 262.58 113.165C264.629 113.556 265.61 114.43 265.489 116.268C265.442 116.984 265.041 117.553 264.662 118.119C264.364 118.564 264.006 118.969 263.598 119.327C263.25 119.632 262.952 119.99 262.63 120.325C262.637 120.372 262.644 120.419 262.647 120.466Z" fill="#FFEBCA"/>
<path d="M252.317 110.041C253.321 110.072 254.315 109.981 255.306 109.807C255.761 109.73 256.237 109.76 256.702 109.76C258.001 109.764 259.273 109.482 260.558 109.362C261.968 109.231 263.374 109.027 264.796 109.268C265.315 109.355 265.864 109.251 266.393 109.228C268.844 109.121 271.294 109.164 273.741 109.178C274.307 109.181 274.859 109.134 275.418 109.037C277.206 108.736 278.853 109.104 280.332 110.189C281.902 111.34 282.538 113.911 280.962 115.786C280.466 116.375 279.817 116.656 279.06 116.492C278.23 116.311 277.574 115.843 277.276 115.013C277.129 114.601 277.072 114.172 277.202 113.717C277.413 112.984 277.176 112.355 276.607 111.873C275.75 111.143 274.872 110.366 273.694 110.293C272.777 110.232 271.85 110.122 270.922 110.236C269.031 110.463 267.136 110.678 265.248 110.935C262.731 111.283 260.187 111.431 257.693 111.933C256.782 112.117 255.895 112.388 254.961 112.462C254.185 112.519 253.408 112.646 252.628 112.673C251.182 112.726 249.769 112.977 248.37 113.322C247.982 113.419 247.597 113.443 247.205 113.436C246.646 113.426 246.214 113.098 246.027 112.602C245.816 112.05 245.99 111.628 246.385 111.213C246.931 110.627 247.677 110.48 248.373 110.39C249.679 110.216 250.988 110.001 252.317 110.041ZM276.66 99.8014C276.533 101.157 276.553 102.821 276.225 104.454C276.158 104.793 276.061 105.121 275.9 105.425C275.565 106.065 274.789 106.46 274.123 106.336C273.363 106.195 272.754 105.532 272.683 104.772C272.633 104.227 272.737 103.701 272.904 103.186C273.182 102.345 273.403 101.492 273.483 100.615C273.6 99.3528 273.604 98.0673 273.353 96.8321C273.078 95.483 272.372 94.3415 271.096 93.6386C270.889 93.5247 270.712 93.4913 270.477 93.5515C270.099 93.6452 269.711 93.7089 269.322 93.7356C268.649 93.7825 268.124 93.5013 267.792 92.9188C267.431 92.2828 267.347 91.6099 267.719 90.9605C268.11 90.281 268.7 89.8793 269.523 89.896C269.791 89.8994 270.055 89.8491 270.323 89.8157C270.782 89.7588 271.25 89.7119 271.706 89.8692C273.159 90.3714 274.488 91.1145 275.09 92.5841C275.743 94.1708 276.573 95.7207 276.563 97.5317C276.563 98.1812 276.657 98.844 276.66 99.8014ZM247.061 103.982C247.061 104.538 247.051 105.097 247.065 105.653C247.078 106.152 246.991 106.627 246.797 107.082C246.428 107.936 245.478 108.378 244.607 108.053C243.707 107.715 243.084 107.096 242.947 106.091C242.83 105.271 242.612 104.461 242.666 103.628C242.746 102.369 242.827 101.11 243.155 99.8717C243.315 99.2591 243.513 98.6632 243.73 98.074C243.918 97.5619 244.212 97.1133 244.611 96.7384C244.935 96.4337 245.317 96.2831 245.752 96.4572C246.161 96.6212 246.338 96.9493 246.362 97.3778C246.412 98.2347 246.74 99.0348 246.823 99.8918C246.907 100.796 246.921 101.696 246.961 102.597C246.981 103.059 247.008 103.517 247.031 103.979C247.041 103.979 247.051 103.979 247.061 103.982ZM258.54 90.6325C259.049 90.609 259.507 90.8367 259.939 91.1246C260.227 91.3154 260.451 91.3857 260.763 91.0844C261.164 90.6894 261.717 90.4986 262.239 90.2944C262.651 90.1337 263.072 90.2475 263.317 90.532C263.578 90.8367 263.611 91.2049 263.357 91.62C263.049 92.1221 262.781 92.641 262.503 93.1599C262.379 93.3942 262.379 93.5582 262.577 93.739C262.808 93.9599 262.982 94.2277 263.136 94.5056C263.561 95.2788 263.434 96.0622 262.801 96.6346C262.162 97.207 261.415 97.3041 260.733 96.725C260.217 96.2831 259.849 96.3233 259.383 96.7082C259.096 96.9459 258.757 97.0999 258.376 97.0966C257.854 97.0932 257.516 96.812 257.375 96.2931C257.194 95.627 257.204 94.9675 257.623 94.3984C258.128 93.7155 257.974 93.1063 257.519 92.497C257.502 92.477 257.489 92.4569 257.475 92.4368C257.184 92.025 257.097 91.5899 257.365 91.1346C257.623 90.6994 258.041 90.6057 258.54 90.6325ZM252.146 90.1605C252.769 90.127 253.314 90.3781 253.82 90.6626C254.406 90.9907 254.643 91.5564 254.58 92.2192C254.513 92.9389 254.111 93.4277 253.468 93.7423C253.15 93.8997 252.802 93.8796 252.464 93.9298C250.442 94.2512 248.417 94.5759 246.392 94.8905C245.572 95.0177 244.892 94.6629 244.641 94.0034C244.386 93.3272 244.671 92.5205 245.367 92.1087C245.933 91.7706 246.509 91.466 247.178 91.3388C247.995 91.1815 248.742 90.7798 249.552 90.5756C250.409 90.358 251.292 90.358 252.146 90.1605ZM256.351 105.368C256.351 104.853 256.625 104.438 256.883 104.026C257.09 103.698 257.341 103.393 257.606 103.105C257.803 102.891 257.847 102.724 257.666 102.473C257.432 102.155 257.301 101.79 257.198 101.405C257.084 100.99 257.198 100.688 257.495 100.424C257.827 100.129 258.215 100.093 258.587 100.29C258.908 100.457 259.273 100.571 259.534 100.842C259.812 101.13 260.07 101.097 260.368 100.869C260.662 100.645 261.017 100.528 261.369 100.424C261.753 100.31 262.102 100.344 262.366 100.675C262.627 101.003 262.604 101.361 262.416 101.706C262.226 102.048 262.008 102.369 261.8 102.7C261.687 102.878 261.633 103.045 261.814 103.223C262.102 103.504 262.189 103.912 262.43 104.217C262.771 104.652 262.744 105.137 262.677 105.619C262.597 106.215 261.877 106.627 261.198 106.493C260.856 106.423 260.562 106.259 260.297 106.021C259.802 105.573 259.775 105.569 259.367 106.128C259.112 106.483 258.808 106.721 258.389 106.855C257.288 107.206 256.337 106.52 256.351 105.368ZM239.144 113.282C239.154 112.432 239.288 111.484 239.968 110.678C240.52 110.021 241.32 109.844 242.057 110.296C242.806 110.755 243.175 111.615 242.991 112.499C242.867 113.098 243.007 113.714 242.823 114.316C242.673 114.818 242.415 115.203 241.976 115.468C240.684 116.248 239.271 115.518 239.148 114.012C239.131 113.818 239.144 113.62 239.144 113.282ZM252.246 103.708C252.307 104.732 251.152 105.653 249.974 105.583C249.803 105.573 249.635 105.526 249.471 105.479C248.624 105.244 248.173 104.488 248.35 103.624C248.578 102.53 249.502 101.89 250.6 102.071C250.717 102.091 250.841 102.088 250.961 102.108C251.754 102.228 252.263 102.868 252.246 103.708ZM269.098 101.087C269.948 100.97 270.752 101.786 270.735 102.587C270.722 103.356 269.921 104.14 269.155 104.136C268.301 104.133 267.438 103.176 267.498 102.409C267.561 101.586 268.121 101.083 269.098 101.087ZM249.987 98.4121C250.231 98.4289 250.479 98.4121 250.717 98.4624C251.557 98.6465 251.885 99.5235 251.406 100.23C250.907 100.966 249.669 101.137 249.093 100.973C248.491 100.806 248.126 100.33 248.146 99.8114C248.169 99.2222 248.799 98.526 249.398 98.4423C249.592 98.4155 249.789 98.4389 249.984 98.4389C249.984 98.4289 249.987 98.4222 249.987 98.4121Z" fill="#FFEBCA"/>
<path d="M268.974 100.498C268.244 100.531 267.705 100.089 267.668 99.4298C267.618 98.5829 268.171 97.9 268.937 97.8565C269.667 97.8163 270.336 98.4088 270.357 99.1151C270.38 99.8516 269.767 100.461 268.974 100.498Z" fill="#FEEAC9"/>
<path d="M338.074 124.295C339.66 124.295 341.204 124.275 342.747 124.299C344.303 124.322 345.87 124.299 347.417 124.466C348.434 124.573 349.469 124.486 350.48 124.724C351.233 124.905 351.899 125.223 352.502 125.708C353.717 126.686 353.265 128.443 352.03 129.069C351.256 129.461 350.416 129.508 349.586 129.414C348.2 129.26 346.817 129.133 345.418 129.143C344.514 129.146 343.61 129.139 342.703 129.042C341.984 128.965 341.244 129.096 340.511 129.126C340.119 129.143 339.734 129.136 339.342 129.036C339.064 128.962 338.736 128.918 338.472 128.999C337.648 129.243 336.815 129.133 335.988 129.156C334.716 129.19 333.451 129.34 332.175 129.323C331.251 129.31 330.327 129.263 329.403 129.26C327.864 129.256 326.327 129.103 324.791 129.015C324.523 129.002 324.252 129.026 323.98 129.002C323.385 128.955 322.842 128.734 322.635 128.148C322.431 127.579 322.491 126.98 322.926 126.491C323.505 125.842 324.265 125.524 325.092 125.33C326.551 124.992 328.048 125.022 329.531 124.895C331.382 124.731 333.236 124.607 335.084 124.557C335.175 124.336 335.014 124.218 334.934 124.078C334.743 123.753 334.629 123.408 334.642 123.033C334.669 122.324 334.515 121.624 334.575 120.911C334.616 120.469 334.472 120.359 334.03 120.345C333.712 120.339 333.4 120.369 333.082 120.426C332.423 120.543 331.77 120.523 331.164 120.151C330.609 119.813 330.331 119.361 330.354 118.702C330.378 118.049 330.753 117.667 331.285 117.406C332.236 116.938 333.26 116.683 334.304 116.536C334.716 116.476 334.9 116.328 334.97 115.92C335.081 115.27 335.432 114.795 336.109 114.624C336.828 114.444 337.414 114.718 337.779 115.481C337.933 115.803 338.06 115.866 338.428 115.816C339.105 115.726 339.801 115.729 340.484 115.769C341.565 115.83 342.666 117.088 342.419 118.026C342.184 118.909 341.532 119.465 340.655 119.733C340.206 119.87 339.737 119.86 339.269 119.87C338.519 119.887 338.412 120.007 338.519 120.754C338.69 121.966 338.492 123.127 338.074 124.295ZM354.835 102.024C354.815 103.263 354.403 104.153 353.599 104.84C352.749 105.563 351.825 105.399 350.918 104.943C350.141 104.552 349.703 103.755 349.854 102.871C349.921 102.486 349.8 102.279 349.552 102.048C349.094 101.629 348.605 101.281 347.989 101.134C347.494 101.013 347.068 100.719 346.57 100.568C345.652 100.287 344.708 100.23 343.811 100.274C342.666 100.327 341.515 100.314 340.367 100.427C338.911 100.571 337.474 100.883 336.008 100.96C335.529 100.983 335.054 101.164 334.582 101.281C333.257 101.613 331.917 101.894 330.585 102.188C329.46 102.436 328.379 102.811 327.264 103.065C326.525 103.233 325.775 103.347 325.008 103.29C324.375 103.243 323.95 102.978 323.8 102.506C323.659 102.058 323.893 101.422 324.349 101.084C325.186 100.468 326.113 99.9957 327.104 99.7279C328.68 99.2994 330.24 98.7872 331.874 98.583C332.333 98.5261 332.768 98.3386 333.223 98.2349C334.204 98.0072 335.195 97.9202 336.192 97.8231C336.775 97.7662 337.32 97.5419 337.916 97.4984C339.011 97.4181 340.099 97.1536 341.19 97.1636C342.288 97.1737 343.383 97.0063 344.474 97.1101C345.498 97.2072 346.516 97.1067 347.537 97.1067C348.766 97.1067 349.977 97.2306 351.159 97.5955C352.753 98.0842 353.918 99.0383 354.493 100.638C354.674 101.144 354.935 101.633 354.835 102.024Z" fill="#FFEBCA"/>
<path d="M341.699 107.849C341.659 109.683 340.674 111.347 338.776 112.465C338.502 112.629 338.294 112.877 338.003 113.014C337.123 113.442 336.172 113.69 335.241 113.409C334.421 113.161 333.611 112.924 332.768 112.733C331.884 112.532 331.241 111.809 330.772 111.002C330.146 109.911 329.842 108.763 330.063 107.497C330.173 106.858 330.431 106.259 330.816 105.777C332.018 104.29 333.588 103.296 335.436 102.847C337.561 102.335 340.082 103.37 341.096 105.395C341.605 106.406 341.702 106.694 341.699 107.849ZM334.605 83.6058C335.446 83.5857 336.423 84.4762 336.56 85.4068C336.734 86.5885 337.006 87.7534 337.089 88.9485C337.103 89.146 337.096 89.3334 337.062 89.5309C336.989 90.013 337.059 90.5017 337.066 90.9871C337.073 92.0282 337.116 93.0894 336.791 94.1003C336.524 94.9305 335.429 95.6636 334.632 95.6201C333.708 95.5699 332.804 94.7531 332.59 93.7823C332.349 92.691 332.486 91.593 332.463 90.4984C332.446 89.6983 332.6 88.9183 332.53 88.1116C332.456 87.268 332.5 86.401 332.614 85.5574C332.761 84.4728 333.692 83.6259 334.605 83.6058ZM320.074 105.79C320.181 106.466 319.943 107.089 319.578 107.738C318.986 108.789 317.027 108.665 316.482 107.588C316.298 107.229 316.184 106.854 316.137 106.473C316.006 105.412 315.899 104.344 315.826 103.276C315.769 102.372 316.425 101.549 317.352 101.277C318.169 101.04 319.1 101.441 319.545 102.221C319.739 102.566 319.91 102.938 319.916 103.323C319.926 104.13 320.137 104.92 320.074 105.79ZM345.853 89.5176C345.676 90.4415 345.388 91.516 344.25 92.0952C342.971 92.7513 341.468 91.9144 341.448 90.4783C341.434 89.5042 341.726 88.5836 342.556 87.9509C343.152 87.499 343.818 87.3216 344.561 87.5592C345.395 87.827 345.846 88.433 345.853 89.5176ZM326.575 92.9454C326.658 93.4576 326.404 93.8928 326.216 94.338C326.089 94.646 325.805 94.8334 325.477 94.877C323.92 95.0912 322.859 94.4853 322.484 92.8952C322.28 92.0282 322.859 90.9938 323.666 90.6858C324.626 90.3143 325.664 90.649 326.153 91.4959C326.411 91.9412 326.655 92.3964 326.575 92.9454Z" fill="#FFEBCA"/>
<path d="M336.562 106.064C337.64 106.048 338.343 106.64 338.49 107.675C338.637 108.689 338.326 109.245 337.412 109.723C336.619 110.138 335.752 110.279 334.895 110.473C334.747 110.507 334.6 110.51 334.486 110.386C334.075 109.941 333.603 109.536 333.408 108.93C333.228 108.371 333.268 107.882 333.757 107.477C334.383 106.962 335.052 106.516 335.789 106.175C336.043 106.054 336.314 106.085 336.562 106.064Z" fill="#B48674"/>
<path d="M71.417 108.938C71.494 111.632 71.0956 114.013 70.6404 116.386C70.319 118.046 69.8102 119.653 69.1541 121.2C68.431 122.907 67.6309 124.584 66.6267 126.154C66.312 126.646 66.071 127.182 65.7731 127.684C65.435 128.256 65.0333 128.775 64.6918 129.334C63.7244 130.908 62.4557 132.237 61.2941 133.653C60.9861 134.024 60.6045 134.349 60.2128 134.637C59.2621 135.336 58.4386 136.177 57.5783 136.973C56.7648 137.727 55.851 138.329 54.9471 138.952C53.6349 139.856 52.1954 140.522 50.7493 141.174C49.7919 141.606 48.8077 141.968 47.8135 142.306C46.0092 142.922 44.1413 143.277 42.2834 143.685C41.3762 143.886 40.459 144.003 39.5518 144.197C39.197 144.274 38.8254 144.288 38.4605 144.304C36.9006 144.375 35.3607 144.81 33.794 144.686C32.4851 144.579 31.1729 144.428 29.9176 143.983C29.5929 143.869 29.2615 143.812 28.9133 143.796C28.3978 143.765 27.9024 143.642 27.4404 143.391C26.4897 142.878 25.4285 142.634 24.441 142.212C23.4301 141.78 22.3622 141.499 21.3379 141.118C20.357 140.749 19.4097 140.274 18.5058 139.732C17.4179 139.076 16.2663 138.53 15.1583 137.911C13.0159 136.716 10.9337 135.417 9.36371 133.482C8.30589 132.18 7.19116 130.911 6.46809 129.358C6.11995 128.615 5.7082 127.898 5.15586 127.259C4.43279 126.422 4.00765 125.384 3.5256 124.4C2.97996 123.285 2.52804 122.124 2.05938 120.975C1.17563 118.789 0.613247 116.517 0.355487 114.18C0.131201 112.145 -0.106474 110.093 0.0508608 108.041C0.174719 106.467 0.231628 104.877 0.696935 103.344C0.810752 102.972 0.884397 102.574 0.88105 102.189C0.86766 100.348 1.45683 98.644 2.07947 96.9502C2.12968 96.8129 2.20333 96.6723 2.20333 96.5317C2.21672 95.6212 2.62512 94.8512 3.00004 94.0545C3.54569 92.8795 4.14825 91.738 4.73072 90.5831C5.41027 89.2475 6.28398 88.039 7.17107 86.854C8.56365 84.9927 10.1203 83.2621 11.8576 81.7088C13.0226 80.6644 14.1775 79.5898 15.5366 78.8098C16.3634 78.3345 17.1367 77.7788 17.9434 77.2834C19.0113 76.6206 20.1662 76.1686 21.2709 75.6029C22.717 74.8598 24.287 74.4982 25.8369 74.0697C27.9124 73.5007 30.0214 73.1592 32.1604 72.9483C33.6836 72.7943 35.1967 72.8378 36.7097 72.878C37.7073 72.9014 38.6848 73.1659 39.6522 73.427C41.0214 73.7919 42.434 73.9392 43.8132 74.2505C45.1489 74.5518 46.4611 74.8832 47.7466 75.3887C49.1124 75.9276 50.4849 76.4465 51.7703 77.1495C52.7311 77.6717 53.6315 78.2943 54.5655 78.8601C55.004 79.1279 55.4961 79.3187 55.9045 79.62C57.0427 80.4602 58.1976 81.277 59.2487 82.2344C60.4806 83.3491 61.7627 84.4103 62.9779 85.5484C63.6273 86.1543 64.1294 86.8808 64.5981 87.6172C65.3948 88.8759 66.3254 90.0576 66.8777 91.4535C67.4301 92.8561 68.1532 94.1817 68.6586 95.6111C69.0269 96.6656 69.5859 97.6665 69.8637 98.7478C70.2855 100.398 70.9283 102.022 71.0454 103.722C71.1693 105.547 71.6413 107.351 71.417 108.938Z" fill="#E6C691"/>
<path d="M37.6391 76.0787C39.1722 75.9482 40.7221 76.3833 42.2921 76.9089C44.1701 77.5382 46.0213 78.2412 47.8223 79.048C49.0876 79.6104 50.3664 80.1728 51.5313 80.9594C52.2778 81.4682 53.0645 81.9202 53.8411 82.3855C54.5475 82.8073 55.217 83.3127 55.8497 83.845C57.4498 85.2041 59.1135 86.4896 60.6166 87.9625C61.5639 88.8864 62.1665 90.0246 62.8694 91.1025C63.8436 92.5888 64.4897 94.2425 65.1592 95.8861C65.5676 96.9004 65.9726 97.9147 66.4078 98.9223C66.7961 99.8261 67.161 100.75 67.325 101.744C67.469 102.605 67.7803 103.435 67.9209 104.305C67.9778 104.67 68.0247 105.032 68.018 105.393C68.0046 106.133 68.1519 106.849 68.259 107.569C68.2824 107.74 68.3125 107.91 68.3159 108.078C68.3527 109.959 68.2355 111.824 67.9309 113.688C67.7435 114.843 67.5393 115.988 67.3016 117.133C67.1509 117.849 66.997 118.566 66.7225 119.242C66.0396 120.912 65.3801 122.589 64.3457 124.096C64.0645 124.508 63.8536 124.99 63.6092 125.438C63.0569 126.442 62.4577 127.4 61.6509 128.243C60.8107 129.124 60.0776 130.108 59.2976 131.045C58.7754 131.675 58.1963 132.22 57.5569 132.709C56.874 133.228 56.3183 133.891 55.6153 134.386C54.6613 135.062 53.7106 135.745 52.7364 136.398C51.5882 137.165 50.3229 137.67 49.0977 138.269C47.9528 138.828 46.7243 139.156 45.5192 139.545C43.8889 140.064 42.1817 140.244 40.5347 140.676C40.0627 140.8 39.5639 140.78 39.0785 140.83C37.8968 140.954 36.7151 141.158 35.5067 140.9C34.8238 140.756 34.1007 140.854 33.3944 140.736C32.3399 140.556 31.272 140.462 30.2109 140.328C28.2425 140.087 26.4516 139.327 24.6104 138.681C23.576 138.316 22.5182 138.001 21.5407 137.493C20.5064 136.954 19.482 136.388 18.5179 135.715C17.1956 134.795 15.9336 133.804 14.6649 132.819C13.9084 132.23 13.1585 131.644 12.5225 130.935C11.2839 129.556 10.0989 128.136 8.99752 126.637C8.30124 125.683 7.83258 124.615 7.28358 123.587C6.93879 122.948 6.50695 122.358 6.19563 121.696C5.48596 120.193 4.96374 118.633 4.59551 117.016C4.34779 115.924 4.01639 114.853 3.88918 113.735C3.82223 113.156 3.82223 112.574 3.73854 111.991C3.49752 110.294 3.46404 108.577 3.5879 106.869C3.66155 105.862 3.94609 104.861 4.18042 103.867C4.37123 103.06 4.43148 102.233 4.57877 101.42C4.68589 100.82 4.83653 100.231 5.00056 99.6487C5.36879 98.3064 5.8341 96.9941 6.3831 95.7154C6.53374 95.3572 6.61073 94.9756 6.76137 94.614C7.73885 92.2574 9.031 90.0949 10.5675 88.0562C11.4077 86.9381 12.2982 85.877 13.3125 84.9196C14.3402 83.9454 15.4784 83.1052 16.64 82.2917C17.3597 81.7863 18.1129 81.3377 18.8125 80.7987C19.3448 80.387 19.9808 80.0991 20.5867 79.7878C22.0228 79.0446 23.5158 78.4454 25.0389 77.9232C25.4507 77.7826 25.8925 77.7257 26.321 77.6286C27.1981 77.4278 28.0249 77.0495 28.9221 76.9056C29.8828 76.7516 30.8369 76.544 31.8143 76.5105C32.1123 76.5005 32.3901 76.4068 32.6814 76.3833C34.2882 76.2528 35.8849 76.0185 37.6391 76.0787Z" fill="#A06C58"/>
<path d="M109.973 144.114C107.64 144.164 105.645 144.004 103.659 143.692C103.191 143.619 102.772 143.418 102.33 143.281C101.514 143.029 100.667 142.932 99.8499 142.668C98.5745 142.253 97.2891 141.888 96.0639 141.322C94.6244 140.656 93.1649 140.027 91.7154 139.384C91.4911 139.284 91.2568 139.197 91.056 139.063C89.66 138.119 88.1771 137.288 86.982 136.077C86.4966 135.588 85.9711 135.156 85.4522 134.707C84.1031 133.539 83.1156 132.1 82.2017 130.583C81.6226 129.626 81.0234 128.675 80.2367 127.855C79.7982 127.4 79.4668 126.851 79.2023 126.262C79.0383 125.89 78.814 125.539 78.583 125.2C78.0843 124.467 77.7194 123.677 77.4147 122.847C77.2139 122.302 76.9494 121.779 76.7318 121.234C76.2833 120.092 76.1494 118.86 75.674 117.735C75.1317 116.457 75.2623 115.098 75.1116 113.772C75.048 113.19 75.0112 112.604 74.8639 112.035C74.807 111.817 74.8104 111.599 74.8104 111.382C74.8003 110.254 74.7635 109.129 74.797 108.001C74.8238 106.953 74.9141 105.909 75.048 104.864C75.1351 104.165 75.1685 103.455 75.2255 102.749C75.3158 101.657 75.4866 100.566 75.7979 99.5249C76.1996 98.1992 76.6348 96.8736 77.4415 95.7087C78.2248 94.5805 78.7437 93.3018 79.4601 92.1335C80.6317 90.212 81.8402 88.3273 83.2127 86.5431C84.2169 85.2443 85.2547 83.9789 86.3928 82.8073C87.6549 81.5084 89.0608 80.3903 90.5773 79.3727C91.8795 78.5023 93.2452 77.7458 94.5541 76.8922C95.3743 76.3565 96.3283 76.0921 97.2489 75.7707C98.2197 75.436 99.1737 75.0577 100.168 74.7866C101.299 74.4752 102.438 74.2443 103.613 74.1539C104.366 74.097 105.116 73.9698 105.855 73.8258C106.555 73.6886 107.261 73.6819 107.961 73.5781C109.23 73.3906 110.505 73.4877 111.767 73.5982C113.759 73.7656 115.784 73.7689 117.716 74.3413C119.577 74.897 121.505 75.2619 123.239 76.236C123.788 76.544 124.448 76.7281 125.057 76.9725C125.75 77.247 126.359 77.6487 126.948 78.0839C127.283 78.3349 127.675 78.4923 128.04 78.6697C129.71 79.4831 131.119 80.6581 132.532 81.8231C133.473 82.5997 134.42 83.373 135.384 84.1228C135.538 84.2433 135.719 84.3471 135.829 84.5011C136.522 85.4351 137.476 86.1046 138.283 86.918C139.552 88.2001 140.549 89.6764 141.313 91.3C141.537 91.782 141.942 92.1067 142.173 92.5687C142.806 93.834 143.388 95.1195 143.883 96.4451C144.088 96.9941 144.315 97.5364 144.546 98.072C144.914 98.9323 145.092 99.8462 145.269 100.753C145.333 101.095 145.457 101.403 145.544 101.731C145.912 103.147 146.217 104.583 146.18 106.059C146.166 106.699 146.3 107.321 146.317 107.957C146.374 110.019 146.036 112.041 145.688 114.06C145.591 114.612 145.497 115.165 145.443 115.72C145.39 116.293 145.102 116.788 144.971 117.334C144.389 119.757 143.552 122.104 142.561 124.384C141.902 125.903 141.061 127.346 140.117 128.719C139.923 129 139.749 129.291 139.572 129.586C139.013 130.516 138.28 131.296 137.557 132.1C136.552 133.208 135.458 134.222 134.36 135.223C133.513 135.996 132.622 136.716 131.655 137.355C130.637 138.032 129.563 138.614 128.562 139.307C128.113 139.615 127.628 139.846 127.139 140.06C125.733 140.679 124.297 141.235 122.854 141.764C121.127 142.4 119.359 142.902 117.572 143.264C116.075 143.568 114.572 143.903 113.029 144C111.901 144.071 110.776 144.054 109.973 144.114Z" fill="#E6C691"/>
<path d="M108.269 76.6576C109.364 76.6241 110.753 76.671 112.129 76.9321C112.319 76.9656 112.52 76.9522 112.718 76.9455C114.248 76.8986 115.734 77.1296 117.177 77.6217C117.716 77.8024 118.275 77.8493 118.817 77.9966C119.881 78.2845 120.866 78.7665 121.887 79.1582C123.674 79.8444 125.308 80.8152 126.948 81.7827C128.341 82.6028 129.63 83.5468 130.845 84.6147C131.959 85.5989 133.144 86.506 134.239 87.517C134.366 87.6342 134.49 87.7379 134.584 87.8886C135.069 88.6552 135.705 89.3079 136.335 89.9507C136.987 90.6202 137.62 91.2964 138.052 92.1299C138.571 93.1275 139.411 93.9208 139.829 94.982C140.315 96.2072 140.8 97.4291 141.329 98.6375C141.771 99.6518 142.022 100.713 142.24 101.788C142.327 102.216 142.551 102.618 142.625 103.046C142.889 104.579 143.321 106.092 143.227 107.669C143.18 108.483 143.425 109.273 143.368 110.079C143.358 110.25 143.401 110.444 143.341 110.592C142.738 112.001 142.742 113.544 142.33 114.997C141.764 116.992 141.122 118.954 140.332 120.872C140.094 121.458 139.823 122.033 139.622 122.636C139.404 123.289 138.972 123.831 138.641 124.427C137.965 125.635 137.238 126.824 136.472 127.979C135.658 129.207 134.654 130.278 133.61 131.313C132.13 132.772 130.527 134.065 128.769 135.203C127.256 136.187 125.71 137.101 124.106 137.921C122.891 138.54 121.632 139.049 120.31 139.441C118.623 139.946 116.885 140.191 115.168 140.529C113.796 140.796 112.373 140.967 110.944 140.88C110.334 140.843 109.738 141.027 109.122 141.031C107.844 141.044 106.592 140.82 105.333 140.686C104.741 140.622 104.145 140.365 103.609 140.087C102.494 139.504 101.283 139.186 100.114 138.771C99.4213 138.523 98.7351 138.282 98.089 137.948C97.2655 137.519 96.4286 137.117 95.575 136.756C93.7941 135.999 92.1572 134.985 90.5805 133.874C89.9277 133.415 89.3653 132.816 88.7728 132.27C88.3042 131.842 87.8958 131.35 87.3602 130.991C87.1995 130.884 87.0622 130.73 86.9518 130.57C86.0546 129.261 84.9667 128.093 84.0729 126.784C83.6946 126.235 83.1992 125.796 82.851 125.237C81.7698 123.496 80.7789 121.719 80.0692 119.781C79.5236 118.288 79.2692 116.731 78.8239 115.218C78.6633 114.662 78.6733 114.053 78.6532 113.477C78.6197 112.399 78.4289 111.338 78.4524 110.26C78.4724 109.507 78.4021 108.744 78.3888 107.994C78.372 107.231 78.4055 106.437 78.536 105.667C78.5829 105.4 78.6231 105.135 78.6164 104.867C78.5863 103.515 78.8741 102.206 79.1252 100.887C79.383 99.5347 79.8851 98.2793 80.4743 97.0407C80.9028 96.1403 81.2944 95.2197 81.7095 94.3125C81.8635 93.9711 82.0677 93.6664 82.2686 93.3651C82.9481 92.3274 83.4335 91.1625 84.3206 90.2553C84.585 89.9841 84.7491 89.6159 84.9767 89.3012C85.9073 88.0091 86.9584 86.8441 88.177 85.8165C88.9235 85.1838 89.67 84.5544 90.393 83.8983C91.327 83.0547 92.3982 82.422 93.446 81.7492C94.3666 81.1533 95.3005 80.5709 96.2512 80.0219C96.8404 79.6838 97.4697 79.4126 98.089 79.1348C99.3577 78.5623 100.616 77.9665 101.909 77.4543C102.859 77.0794 103.837 76.8283 104.888 76.7681C105.916 76.7111 106.94 76.671 108.269 76.6576Z" fill="#A06C58"/>
<path d="M26.4347 103.766C27.5495 103.92 28.4232 104.274 29.2734 104.71C30.3179 105.239 30.9706 106.082 31.3221 107.173C31.4828 107.662 31.3389 108.158 31.205 108.616C30.8936 109.691 30.3413 110.625 29.4509 111.344C28.9186 111.773 28.4165 112.238 27.8407 112.616C27.2348 113.022 26.5921 113.263 25.8522 113.266C24.4162 113.269 23.4487 112.051 23.7902 110.648C23.9442 110.026 24.2956 109.557 24.8112 109.175C25.7284 108.486 26.5954 107.726 27.5461 107.08C27.7403 106.946 27.998 106.815 27.9244 106.517C27.8507 106.203 27.5528 106.139 27.295 106.089C26.4515 105.931 25.6045 105.828 24.7409 105.901C24.3191 105.938 23.9274 105.844 23.5324 105.677C22.3072 105.148 22.2101 103.926 22.5382 102.959C23.0001 101.593 23.7299 100.341 24.1919 98.9786C24.3057 98.6439 24.5568 98.4029 24.7375 98.115C25.0522 97.6128 24.8949 97.3517 24.2956 97.3584C22.9499 97.3718 21.5975 97.4321 20.2819 97.6999C19.358 97.8873 18.4341 98.1652 17.624 98.7075C17.0616 99.0824 16.5695 99.0422 16.0741 98.6338C15.5519 98.2087 15.351 97.576 15.6121 96.9969C15.9368 96.2604 16.5126 95.7081 17.1721 95.2863C18.8057 94.2419 20.6234 93.8335 22.5482 93.8536C22.7959 93.8536 23.0336 93.8134 23.2746 93.7833C24.8246 93.5958 26.3042 93.7833 27.5863 94.7641C28.3696 95.3666 28.8952 96.1366 28.9889 97.1576C29.0525 97.8405 29.0324 98.5267 28.9889 99.2096C28.9621 99.5979 28.8383 99.9963 28.5403 100.271C28.2056 100.585 28.0081 100.967 27.844 101.379C27.516 102.196 27.1411 102.986 26.4347 103.766ZM47.7786 110.759C49.2951 110.528 50.691 111.107 52.1204 111.495C52.1672 111.508 52.2175 111.522 52.2543 111.552C53.1581 112.275 54.1992 112.841 54.7683 113.942C55.5951 115.549 55.8094 117.239 55.5047 118.984C55.1968 120.741 54.4737 122.321 53.3623 123.74C52.7832 124.477 52.2208 125.21 51.4542 125.746C50.3663 126.505 49.1745 126.867 47.8556 126.492C46.9116 126.221 46.2454 125.632 46.1015 124.627C45.9475 123.536 46.4865 122.749 47.3669 122.164C47.5075 122.07 47.6615 121.98 47.8221 121.929C49.1511 121.514 49.8507 120.446 50.4667 119.325C50.7445 118.819 50.9956 118.284 51.1462 117.711C51.404 116.744 51.1128 115.797 50.3562 115.221C50.1989 115.1 50.0349 114.99 49.8374 114.956C48.9938 114.829 48.187 114.478 47.3133 114.548C47.2397 114.555 47.1593 114.561 47.0924 114.538C46.4061 114.307 45.6998 114.411 44.9968 114.401C44.0361 114.381 43.5038 114.016 43.323 113.269C43.1322 112.486 43.4804 111.723 44.247 111.298C44.9031 110.933 45.6429 110.869 46.366 110.772C46.8246 110.708 47.2966 110.759 47.7786 110.759Z" fill="#FFEBCA"/>
<path d="M20.0441 109.815C20.0709 110.96 20.2349 112.811 20.1881 114.672C20.1546 116.088 20.2015 117.508 20.2182 118.927C20.2316 120.002 20.2985 121.073 20.4659 122.131C20.64 123.222 20.1713 124.27 19.2307 124.829C18.2097 125.435 16.633 124.755 16.248 123.55C15.5584 121.394 15.5216 119.188 15.7258 116.962C15.7459 116.718 15.7459 116.473 15.7526 116.229C15.7894 113.906 15.8664 111.583 15.9568 109.263C16.0371 107.348 16.1275 105.413 16.5192 103.518C16.6564 102.852 17.0146 102.363 17.7243 102.186C18.4674 101.999 19.1202 102.29 19.388 103.006C19.542 103.415 19.6726 103.85 19.7027 104.282C19.8131 105.888 20.0943 107.485 20.0441 109.815ZM41.6893 107.736C41.7228 108.141 41.6056 108.553 41.5152 108.948C41.2508 110.123 41.2474 111.325 41.0566 112.5C40.8457 113.795 40.742 115.108 40.3804 116.38C40.1394 117.22 40.0825 118.104 39.7979 118.944C39.3628 120.233 39.0347 121.558 38.556 122.834C38.4623 123.081 38.4054 123.346 38.3418 123.607C38.0539 124.735 37.2438 125.314 36.1826 125.569C35.3223 125.773 34.395 125.291 33.9766 124.474C33.605 123.748 33.528 122.981 33.7992 122.204C34.0737 121.424 34.3415 120.638 34.6561 119.868C34.9038 119.262 35.0913 118.626 35.2654 117.99C35.6035 116.744 36.1056 115.553 36.3868 114.287C36.5676 113.484 36.8856 112.707 37.1199 111.914C37.2404 111.496 37.2873 111.054 37.4145 110.635C37.7593 109.524 38.0238 108.379 38.6464 107.361C38.8138 107.087 39.0046 106.846 39.2356 106.625C39.7076 106.17 40.2532 106.039 40.8524 106.307C41.4516 106.575 41.7395 107.053 41.6893 107.736ZM53.4693 98.6042C53.4793 99.6319 52.7797 100.539 51.7152 100.743C50.9017 100.901 50.0715 100.974 49.2447 101.041C47.9793 101.142 46.7374 101.403 45.4821 101.55C44.2167 101.701 42.9948 102.039 41.7596 102.297C40.0925 102.648 38.3987 102.889 36.7483 103.331C35.7608 103.592 34.9306 103.066 34.7833 102.189C34.6528 101.413 35.0511 100.837 35.6437 100.449C36.3332 99.9968 37.0195 99.5147 37.8296 99.2703C38.2246 99.1498 38.5794 98.9289 38.9544 98.7615C41.0031 97.8543 43.1924 97.4493 45.3348 96.8768C46.2386 96.6392 47.1759 96.6492 48.0965 96.5254C48.7493 96.4383 49.3953 96.3044 50.0515 96.2408C51.1762 96.1303 52.2006 96.3379 52.9638 97.2618C53.3153 97.6903 53.4659 98.1054 53.4693 98.6042ZM42.7906 91.0789C41.2575 91.0856 40.0557 89.4687 40.5779 88.036C40.8491 87.2828 41.4349 86.7874 42.245 86.6568C43.0484 86.5296 43.748 86.7372 44.22 87.4636C44.364 87.6879 44.5213 87.9088 44.6385 88.1465C45.4452 89.7834 44.3037 91.2697 42.7906 91.0789Z" fill="#FFEBCA"/>
<path d="M95.5719 127.504C96.0907 128.233 96.8071 128.679 97.6741 128.702C98.4641 128.672 99.1403 128.471 99.7898 128.166C101.172 127.52 102.428 126.667 103.606 125.709C104.593 124.906 105.588 124.096 106.404 123.118C107.091 122.295 107.767 121.458 108.413 120.598C109.431 119.239 110.334 117.816 110.857 116.202C111.299 114.837 111.72 113.467 111.787 111.998C111.831 111.064 111.677 110.153 111.7 109.229C111.707 108.834 111.506 108.48 111.285 108.145C110.719 107.291 109.832 107.308 109.327 108.208C109.146 108.523 109.026 108.875 108.895 109.216C108.313 110.746 107.851 112.313 107.171 113.809C106.602 115.064 105.919 116.273 105.106 117.354C104.356 118.352 103.506 119.306 102.562 120.173C101.055 121.552 99.445 122.767 97.644 123.731C96.9912 124.079 96.4054 124.531 95.8731 125.033C95.1501 125.713 95.0195 126.724 95.5719 127.504Z" fill="#FFEBCA"/>
<path d="M116.467 117.478C115.836 117.08 115.2 116.679 114.425 116.745C113.177 116.658 112.597 117.722 112.674 118.489C112.765 119.373 113.069 120.203 113.692 120.879C114.023 121.237 114.348 121.609 114.686 121.953C115.393 122.67 116.209 123.266 117.11 123.714C118.114 124.216 119.142 124.672 120.149 125.167C120.518 125.351 120.842 125.626 121.211 125.813C122.57 126.503 124.009 126.975 125.495 127.286C126.115 127.413 126.741 127.577 127.384 127.484C128.338 127.34 129.208 127.052 129.6 126.044C130.098 124.772 129.459 123.279 128.167 122.784C127.236 122.429 126.296 122.081 125.305 121.917C125.184 121.897 125.067 121.866 124.953 121.823C123.845 121.431 122.764 120.983 121.703 120.487C120.618 119.978 119.487 119.567 118.509 118.85C117.86 118.375 117.184 117.93 116.504 117.501L116.467 117.478Z" fill="#FFEBCA"/>
<path d="M95.4179 93.4994C94.7283 94.7681 94.3534 96.1138 94.3868 98.0889C94.4772 99.0463 94.6245 100.482 95.4848 101.811C96.5728 103.495 98.9094 103.673 100.268 103.154C101.561 102.662 101.795 101.373 100.817 100.382C100.75 100.312 100.68 100.245 100.607 100.181C99.3479 99.1099 99.3412 97.734 99.6726 96.2912C100.021 94.7715 100.74 93.4157 101.604 92.1336C101.869 91.7419 101.956 91.3168 101.832 90.8783C101.561 89.9075 100.657 89.1643 99.4684 89.3953C98.3704 89.6129 97.5 90.2054 96.8004 91.0858C96.2146 91.8256 95.8597 92.6826 95.4179 93.4994Z" fill="#FFEBCA"/>
<path d="M108.396 92.1805C107.603 93.6868 107.181 95.2568 107.161 96.9407C107.081 98.0286 107.325 99.0362 107.837 99.9836C108.46 101.135 109.541 101.463 110.867 101.108C112.048 100.794 112.557 99.3977 112.393 98.2596C112.279 97.4997 112.246 96.7398 112.39 96C112.631 94.7581 112.895 93.5228 113.29 92.3144C113.468 91.7821 113.645 91.2498 113.829 90.7209C114.315 89.3183 113.548 88.2772 112.069 88.4212C111.138 88.5116 110.391 89.0739 109.812 89.7903C109.23 90.5134 108.831 91.357 108.396 92.1805Z" fill="#FFEBCA"/>
<path d="M123.413 94.4635C123.48 93.9245 123.5 93.3923 123.517 92.8567C123.517 92.4884 123.541 92.1202 123.51 91.7553C123.453 91.0356 122.861 90.4197 122.155 90.3192C121.465 90.2255 120.836 90.3661 120.293 90.818C119.594 91.4005 119.145 92.1336 118.968 93.0341C118.8 93.8844 118.379 94.6945 118.623 95.5983C118.63 95.6217 118.62 95.6485 118.613 95.6719C118.456 96.1339 118.549 96.5858 118.633 97.0444C119.001 99.0797 120.869 100.904 123.279 100.61C124.11 100.509 124.796 100.205 125.147 99.3977C125.485 98.6111 125.191 97.9717 124.635 97.406C124.498 97.2687 124.391 97.0913 124.237 96.9775C123.377 96.3247 123.296 95.4075 123.413 94.4635Z" fill="#FFEBCA"/>
<path d="M97.1954 110.783C96.4154 111.084 95.5082 112.356 95.6455 113.253C95.6924 113.615 95.7292 113.98 95.7894 114.341C95.8296 114.555 95.8865 114.773 95.9669 114.974C96.3987 116.045 97.0013 116.427 98.1193 116.353C98.9763 116.293 99.7228 115.643 99.8935 114.659C100.078 113.605 99.9404 112.554 99.4751 111.586C99.1638 110.933 98.2198 110.384 97.1954 110.783Z" fill="#FFEBCA"/>
<path d="M117.776 112.376C117.635 113.561 118.476 114.425 119.704 114.455C120.822 114.542 121.428 113.819 121.703 112.965C121.85 112.503 121.95 112.021 122.037 111.543C122.215 110.552 121.693 109.681 120.709 109.273C119.872 108.928 119.062 109.266 118.429 110.09C117.893 110.786 117.87 111.593 117.776 112.376Z" fill="#FFEBCA"/>
<defs>
<clipPath id="clip0_988_43817">
<rect width="258.37" height="40.84" fill="white" transform="translate(56.3149)"/>
</clipPath>
</defs>
</svg>
