<svg width="157" height="25" viewBox="0 0 157 25" fill="none" xmlns="http://www.w3.org/2000/svg">
<path d="M32.1425 3.39739C30.9981 1.45601 29.4706 0.51087 27.4653 0.51087C25.69 0.51087 24.3515 1.41003 22.6885 3.72181C22.0167 4.65418 18.3383 9.68388 17.8402 10.3685C17.6665 10.1258 17.079 9.32115 16.2181 8.26616C14.8949 6.64409 13.9191 6.04124 12.6164 6.04124C10.9023 6.04124 10.0108 6.97872 8.96606 8.70553C8.65442 9.22408 4.31442 16.6013 4.27099 16.6754H4.20968H7.04001L10.4374 10.9126C11.3187 9.44887 11.9292 9.44887 12.4222 9.44887C12.9791 9.44887 13.5257 9.69665 14.3994 10.91C15.4237 12.3354 17.7125 15.6332 17.7125 15.6332C17.7125 15.6332 24.589 6.21239 25.0029 5.64275C26.0374 4.20971 26.7705 3.96703 27.5752 3.96703C28.1014 3.96703 29.0925 4.05899 30.007 5.57633L36.5617 16.6754H40L32.1425 3.39739Z" fill="#FFEBCA"/>
<path d="M12.5602 3.99262C13.7685 3.99262 14.734 4.49329 15.6536 5.4793C16.1466 6.01063 17.4622 7.53563 17.475 7.55096L17.5311 7.61737L22.7269 0.490474H19.166C19.166 0.490474 17.6895 2.34245 17.6001 2.46506C17.2732 2.13554 15.6843 0.454712 13.4108 0.454712C10.4017 0.454712 8.61359 2.40631 7.34658 4.51372C6.47296 5.9672 0 16.6754 0 16.6754H2.63619C2.69494 16.5784 8.55483 6.78462 9.03507 6.02595C9.98277 4.53671 11.214 3.99262 12.5602 3.99262Z" fill="#FFEBCA"/>
<path d="M29.9406 8.22789C29.0669 6.72843 28.5152 6.04384 27.4066 6.04384C26.4691 6.04384 25.6491 7.00175 24.6886 8.33007L18.6014 16.6754L21.9068 16.6729L25.5137 11.7096C26.5712 10.32 26.7245 10.0109 27.2686 10.0109C27.851 10.0109 28.0401 10.4656 28.8294 11.7121L31.7338 16.6729L34.9371 16.6754L29.9406 8.22789Z" fill="#FFEBCA"/>
<path d="M10.3148 24.4307H8.61351L4.20964 20.1878V24.4307H2.51094V18.134H4.21475L8.6084 22.3463L8.61351 18.134H10.3148V24.4307Z" fill="#FFEBCA"/>
<path d="M19.0714 24.4307H13.4133C12.7492 24.4307 12.1872 24.2417 11.7223 23.8611C11.2574 23.483 11.0249 23.0079 11.0249 22.4357V20.1265C11.0249 19.5543 11.2574 19.0817 11.7223 18.7011C12.1872 18.3231 12.7492 18.134 13.4133 18.134H19.0714V19.6003H13.4082C12.9535 19.6003 12.7262 19.774 12.7262 20.1265V22.4383C12.7262 22.7882 12.9535 22.9645 13.4082 22.9645H19.0714V24.4307Z" fill="#FFEBCA"/>
<path d="M28.2955 22.4357C28.2955 23.0079 28.0656 23.483 27.6058 23.8611C27.146 24.2417 26.584 24.4307 25.9224 24.4307H19.7815V20.4586H21.4828V22.9645H25.925C26.3618 22.9645 26.5789 22.7882 26.5789 22.4383V20.1239C26.5789 19.774 26.3618 19.6003 25.925 19.6003H19.7815V18.134H25.9224C26.584 18.134 27.146 18.3231 27.6058 18.7011C28.0656 19.0817 28.2955 19.5543 28.2955 20.1265V22.4357Z" fill="#FFEBCA"/>
<path d="M37.5911 24.4307H35.2589L31.6061 20.9056H36.0074C36.3241 20.9056 36.4799 20.6885 36.4799 20.2517C36.4799 19.8174 36.3241 19.6003 36.0074 19.6003H30.7069V24.4307H29.0056V18.134H36.1044C36.7558 18.134 37.2744 18.3537 37.6524 18.7956C38.0049 19.1941 38.1812 19.6795 38.1812 20.2517C38.1812 20.8239 38.0049 21.3092 37.6524 21.7102C37.2744 22.1522 36.7558 22.3718 36.0993 22.3718H35.4454L37.5911 24.4307Z" fill="#FFEBCA"/>
<path d="M50 24.4427H51.6771V0.442749H50V24.4427Z" fill="#FFEBCA"/>
<path d="M154.315 16.5501C154.965 16.6151 155.655 16.346 156.276 16.7759C156.777 17.1193 157 17.5523 156.833 18.0194C156.672 18.4679 156.109 18.8174 155.59 18.7122C154.748 18.5421 153.907 18.6813 153.069 18.6504C152.923 18.6442 152.747 18.6504 152.753 18.8514C152.772 19.3742 152.58 19.8722 152.654 20.4166C152.787 21.3816 152.738 22.3591 152.62 23.3272C152.54 23.9861 151.875 24.4779 151.207 24.4408C150.588 24.4068 150.158 23.9459 150.201 23.3334C150.3 21.9229 150.399 20.5125 150.526 19.1051C150.551 18.802 150.458 18.6813 150.18 18.6875C149.258 18.7123 148.336 18.7184 147.421 18.7927C147.043 18.8205 146.688 18.7556 146.323 18.7525C145.503 18.7401 144.696 18.8205 143.907 19.0587C143.703 19.1205 143.502 19.136 143.294 19.0618C143.053 18.9752 142.864 18.8298 142.84 18.5607C142.815 18.2885 142.979 18.1122 143.214 18.0008C143.591 17.8245 143.978 17.6791 144.396 17.6142C144.931 17.5338 145.457 17.4224 145.951 17.1873C146.456 16.9492 147.015 16.9955 147.551 16.9275C148.497 16.81 149.453 16.779 150.402 16.6584C150.622 16.6306 150.659 16.5501 150.672 16.3615C150.706 15.7459 150.743 15.1304 150.805 14.5148C150.876 13.7879 150.981 13.0641 151.055 12.3373C151.08 12.1176 151.046 11.8918 151.061 11.6722C151.083 11.3877 151.173 11.1247 151.497 11.0567C151.816 10.9886 152.002 11.1835 152.141 11.4402C152.305 11.7403 152.367 12.0681 152.401 12.4022C152.537 13.6828 152.688 14.9602 152.701 16.247C152.704 16.5068 152.834 16.5625 153.069 16.5532C153.483 16.5378 153.901 16.5501 154.315 16.5501ZM111.713 10.7505C111.772 11.3753 111.648 11.9877 111.596 12.6064C111.577 12.826 111.645 13.0487 111.651 13.2714C111.658 13.5312 111.791 13.5962 112.019 13.5745C112.149 13.5652 112.276 13.5714 112.403 13.5745C113.028 13.5807 113.365 13.8189 113.424 14.2921C113.492 14.8211 113.124 15.3438 112.589 15.4737C112.558 15.4799 112.527 15.483 112.493 15.4892C111.571 15.65 111.435 15.8418 111.546 16.8069C111.617 17.4441 111.602 18.0812 111.518 18.7153C111.478 19.0247 111.339 19.2907 111.144 19.5319C110.829 19.934 110.417 20.1042 109.916 19.9774C109.418 19.8505 109.155 19.467 109.121 18.9999C109.062 18.1926 109.059 17.3791 109.075 16.5687C109.084 16.1542 109.022 16.0583 108.602 16.1882C108.221 16.3089 107.862 16.4883 107.466 16.5718C106.783 16.7172 106.353 16.5811 106.214 16.1295C106.081 15.6871 106.402 15.1458 106.968 14.9479C107.643 14.7128 108.258 14.32 108.973 14.187C109.22 14.1406 109.298 13.9859 109.301 13.7415C109.332 12.2321 109.465 10.7319 109.703 9.241C109.74 9.0121 109.69 8.95334 109.458 9.01211C109.208 9.08016 108.945 9.07088 108.71 8.95024C108.218 8.69351 108.212 7.98827 108.707 7.68205C108.895 7.5676 109.118 7.44078 109.325 7.43769C110.157 7.42531 110.284 6.80668 110.451 6.2128C110.538 5.90657 110.529 5.5787 110.689 5.29104C110.838 5.03121 111.02 4.78994 111.367 4.87037C111.682 4.9477 111.763 5.21371 111.778 5.50137C111.797 5.83543 111.809 6.16949 111.822 6.50355C111.831 6.73863 111.886 6.84689 112.165 6.74482C112.415 6.65512 112.697 6.64584 112.966 6.60563C113.551 6.52211 114.03 6.84689 114.101 7.36655C114.172 7.87073 113.776 8.31614 113.192 8.39966C112.842 8.44915 112.496 8.34089 112.14 8.43987C111.886 8.51101 111.766 8.60381 111.772 8.88529C111.791 9.50701 111.661 10.1256 111.713 10.7505ZM122.607 10.902C122.502 10.4999 122.589 10.1256 122.821 9.77302C122.991 9.52248 123.214 9.40184 123.514 9.43896C123.811 9.47917 124.015 9.64311 124.098 9.93387C124.182 10.2215 124.315 10.503 124.287 10.8154C124.262 11.134 124.426 11.2392 124.726 11.2082C125.045 11.1804 125.363 11.1619 125.682 11.1526C126.406 11.1278 126.944 11.499 127.012 12.0558C127.077 12.5909 126.61 13.1415 125.945 13.2776C125.617 13.3456 125.277 13.3673 124.943 13.3982C124.658 13.426 124.559 13.5652 124.602 13.8467C124.748 14.753 124.643 15.6531 124.581 16.5563C124.534 17.2368 124.606 17.9235 124.491 18.604C124.324 19.6 124.367 20.63 123.947 21.5858C123.693 22.158 123.282 22.5601 122.743 22.8385C122.159 23.1386 121.382 22.9622 121.002 22.4704C120.646 22.0157 120.705 21.3878 121.15 20.8465C121.2 20.7878 121.253 20.7228 121.314 20.6733C121.955 20.1908 122.258 19.566 122.419 18.7586C122.731 17.1657 122.836 15.582 122.719 13.9704C122.697 13.689 122.623 13.5993 122.31 13.6395C121.519 13.7415 120.717 13.8622 119.929 13.8869C118.927 13.9209 117.927 14.0601 116.922 13.9519C116.455 13.8993 116.229 13.5436 116.387 13.0951C116.52 12.7208 116.817 12.5661 117.176 12.4764C118.592 12.1145 119.987 11.6413 121.469 11.5763C121.658 11.5671 121.85 11.4774 122.035 11.4897C122.481 11.5268 122.654 11.3351 122.607 10.902ZM122.617 8.26975C121.995 8.26665 121.37 8.30996 120.751 8.20788C120.455 8.15839 120.216 8.05632 120.158 7.747C120.096 7.41913 120.269 7.17477 120.557 7.05414C120.847 6.9335 121.163 6.85927 121.472 6.79122C121.695 6.74173 121.766 6.6644 121.679 6.4355C121.534 6.05195 121.59 5.64366 121.596 5.24773C121.602 4.9013 121.472 4.86727 121.169 4.88583C119.824 4.96935 118.54 5.37455 117.235 5.65603C116.987 5.70861 116.758 5.75192 116.535 5.63128C116.235 5.47044 116.124 5.23536 116.322 4.91986C116.65 4.40021 117.111 4.04759 117.711 3.89293C118.574 3.67331 119.446 3.48154 120.306 3.24337C120.724 3.12892 121.169 3.23099 121.574 3.03303C121.763 2.94333 121.871 2.85053 121.918 2.63401C122.001 2.24427 122.137 1.87 122.249 1.48645C122.323 1.23591 122.487 1.06269 122.743 1.01938C123.013 0.979174 123.133 1.19569 123.257 1.38438C123.467 1.70607 123.412 2.09271 123.477 2.44842C123.523 2.6866 123.594 2.76702 123.842 2.75774C124.401 2.73918 124.961 2.73918 125.521 2.75774C126.121 2.7763 126.502 3.19388 126.486 3.77848C126.471 4.31669 126.103 4.66622 125.506 4.66312C125.011 4.66312 124.519 4.61363 124.024 4.59198C123.675 4.57652 123.542 4.74045 123.579 5.09617C123.619 5.45807 123.625 5.82925 123.603 6.19114C123.588 6.45097 123.69 6.54067 123.922 6.54995C123.953 6.54995 123.984 6.55305 124.018 6.55923C124.636 6.63656 124.964 6.93041 124.937 7.3851C124.902 7.90785 124.392 8.29759 123.811 8.27284C123.415 8.25428 123.016 8.26975 122.617 8.26975ZM64.4034 9.63692C64.4034 11.0041 64.4467 12.3249 64.391 13.6426C64.3477 14.7221 64.3199 15.8016 64.2456 16.8811C64.1838 17.7503 64.1869 18.6287 64.1405 19.501C64.1281 19.7082 64.125 19.9217 64.0724 20.1165C63.9363 20.6053 63.4755 20.9857 63.0084 21.0321C62.5506 21.0785 62.1237 20.8001 61.8794 20.2959C61.6381 19.8041 61.6598 19.2876 61.7062 18.7556C61.8268 17.3977 61.8577 16.0305 62.0217 14.6788C62.1671 13.4693 62.2042 12.2414 62.5537 11.0598C62.7176 10.5154 62.9094 9.97717 63.0888 9.43587C63.0919 9.4204 63.1012 9.40494 63.1074 9.39256C63.2868 9.05232 63.5188 8.73372 63.9487 8.82033C64.4127 8.91003 64.4591 9.2874 64.4034 9.63692ZM68.5142 7.40676C69.6061 7.50574 70.3237 8.13365 70.4382 9.00592C70.4907 9.39875 70.3113 9.72662 70.1721 10.0576C69.9278 10.6484 69.6123 11.2021 69.0895 11.6011C68.542 12.0187 68.041 12.031 67.6605 11.6444C67.2089 11.1835 67.2027 10.5092 67.6419 9.99882C67.8492 9.75756 68.1245 9.59362 68.3039 9.31524C68.5297 8.9688 68.3812 8.85745 68.0688 8.80796C67.8646 8.78012 67.6543 8.79558 67.4471 8.78012C66.9553 8.74919 66.4696 8.68114 66.2469 8.15839C66.0211 7.62637 66.3366 7.24591 66.6521 6.87164C66.7233 6.78812 66.8284 6.72317 66.8748 6.62728C67.1006 6.14784 67.5801 5.85399 67.8368 5.33743C67.0419 5.34671 66.3676 5.65603 65.6592 5.80759C65.3314 5.87564 65.0313 6.03958 64.6787 6.02102C64.3477 6.00246 64.0817 5.87874 63.9549 5.56633C63.8281 5.2601 63.9085 4.97553 64.1188 4.7188C64.4096 4.36309 64.8333 4.2208 65.2386 4.11873C66.083 3.91458 66.9089 3.61764 67.8059 3.6362C68.8606 3.65476 69.8752 4.35381 69.6958 5.68387C69.6185 6.28085 69.0339 6.59944 68.774 7.10672C68.7245 7.19952 68.6348 7.27066 68.5142 7.40676ZM87.964 21.5332C87.1103 21.5177 86.6989 20.9084 86.9402 20.1846C87.1319 19.6185 87.4691 19.1329 87.8217 18.6566C89.1301 16.9089 90.4231 15.1489 91.7438 13.4106C92.1985 12.8167 92.7182 12.2692 93.21 11.7032C93.2502 11.6568 93.3059 11.6196 93.3585 11.5825C93.6369 11.3815 93.9462 11.1619 94.2679 11.4248C94.5555 11.6629 94.3885 12.0001 94.2617 12.263C94.0699 12.6651 93.8719 13.0672 93.5626 13.4013C93.3275 13.658 93.3461 14.023 93.176 14.3169C92.1552 16.0985 91.2891 17.973 90.0457 19.6247C89.7797 19.9804 89.5013 20.3207 89.26 20.695C88.9383 21.193 88.4713 21.5332 87.964 21.5332ZM99.2231 21.4126C98.5921 21.4188 98.1034 21.2177 97.7105 20.9641C97.03 20.5217 96.2629 20.2526 95.6134 19.7392C94.837 19.1267 94.1472 18.4617 93.6307 17.6266C93.4605 17.3513 93.4203 17.0234 93.411 16.7048C93.4018 16.3769 93.5379 16.1109 93.8503 15.9717C94.1596 15.8294 94.4844 15.882 94.6947 16.1171C95.5051 17.0234 96.5382 17.5492 97.6549 17.9792C98.4715 18.2947 99.2633 18.6751 100.064 19.0339C100.55 19.2474 100.825 19.6959 100.782 20.166C100.736 20.6764 100.334 21.162 99.817 21.3074C99.5881 21.3724 99.3468 21.3909 99.2231 21.4126ZM81.1343 16.0274C81.0786 16.6491 80.9085 17.3946 80.7013 18.1276C80.4569 18.9875 80.0919 19.7949 79.6156 20.5558C79.232 21.1744 78.4927 21.4249 77.8277 21.1249C77.1936 20.8403 76.9585 20.197 77.2307 19.4763C77.2864 19.3278 77.3452 19.1639 77.4472 19.0525C77.9638 18.5081 78.171 17.7905 78.5453 17.1688C78.8639 16.6429 78.7928 16.0243 78.9907 15.4675C79.0588 15.2819 78.8577 15.1582 78.7154 15.0592C78.5051 14.9139 78.2577 14.852 78.0102 14.7808C77.7566 14.7066 77.5462 14.5365 77.571 14.2303C77.5957 13.9271 77.7999 13.7539 78.0783 13.7508C78.9907 13.7415 79.9187 13.5962 80.6363 14.4375C81.0168 14.8829 81.1034 15.3562 81.1343 16.0274ZM72.8075 19.4113C71.8672 19.4268 71.2702 18.4122 71.7218 17.5647C72.3157 16.4542 72.9684 15.384 73.7324 14.3787C74.2768 13.6642 74.6046 12.826 74.9851 12.0217C75.0841 11.8145 75.1985 11.632 75.3656 11.4804C75.6872 11.1866 76.0646 11.1464 76.4296 11.3567C76.7915 11.564 76.906 11.932 76.7668 12.3125C76.5286 12.9528 76.2409 13.5745 75.9749 14.2055C75.4181 15.5046 74.9325 16.8378 74.2551 18.0874C74.0386 18.4895 73.7788 18.8422 73.4602 19.1577C73.2839 19.334 73.0581 19.4144 72.8075 19.4113ZM147.885 7.4315C148.93 7.31706 150.22 7.31087 151.51 7.35417C152.116 7.37582 152.722 7.38201 153.316 7.53048C153.864 7.66658 154.235 8.14293 154.201 8.67495C154.173 9.16058 153.845 9.38947 153.199 9.48536C152.676 9.56578 152.184 9.40494 151.683 9.35545C150.257 9.21625 148.831 9.37091 147.408 9.29668C146.685 9.25956 145.945 9.38019 145.209 9.36473C144.872 9.35854 144.587 9.27502 144.479 8.95024C144.358 8.60072 144.618 8.39038 144.884 8.28521C145.778 7.9295 146.629 7.41294 147.885 7.4315ZM80.0826 7.13765C80.3734 7.14075 80.6611 7.16549 80.9333 7.27684C81.3725 7.45934 81.6632 7.89857 81.6292 8.32542C81.5921 8.80486 81.2921 9.08325 80.8497 9.17914C80.0393 9.35235 79.2258 9.5132 78.4092 9.64002C77.7782 9.7359 77.1596 9.88747 76.5317 9.99264C75.6996 10.1318 74.8614 10.2246 74.0231 10.3267C73.8159 10.3514 73.6117 10.2927 73.4169 10.2092C73.1106 10.0792 72.9127 9.85345 72.9034 9.51938C72.8941 9.16676 73.0921 8.91312 73.42 8.78321C74.0138 8.54813 74.617 8.31305 75.2449 8.21407C75.913 8.1089 76.5317 7.85527 77.1874 7.72226C77.9329 7.57069 78.669 7.36964 79.4145 7.20261C79.631 7.15621 79.8599 7.1593 80.0826 7.13765ZM91.8274 6.24992C91.7346 5.69933 92.0377 5.19824 92.3687 4.72808C92.9161 3.94551 93.4977 3.18769 94.0699 2.42059C94.2493 2.17932 94.4998 2.05559 94.7813 2.20716C95.0473 2.35254 95.1247 2.62473 95.0319 2.9124C94.9205 3.24337 94.7782 3.55887 94.6081 3.86818C94.3204 4.39093 94.1132 4.96007 93.8781 5.51065C93.807 5.67459 93.9276 5.78594 94.0049 5.89729C94.3576 6.41076 94.772 6.87164 95.1772 7.3418C95.5855 7.81196 95.6319 8.3378 95.3381 8.79558C95.0319 9.28121 94.5493 9.43896 93.9121 9.25646C93.7575 9.21316 93.6028 9.16058 93.4667 9.08325C92.5914 8.59762 91.8366 7.32015 91.8274 6.24992ZM151.445 3.70115C151.445 3.93623 151.473 4.19297 151.439 4.44351C151.355 5.06214 150.9 5.37146 150.279 5.28485C149.886 5.22917 149.49 5.2632 149.094 5.32197C148.89 5.3529 148.689 5.40548 148.482 5.42404C147.959 5.47044 147.6 5.24464 147.526 4.83943C147.445 4.40639 147.696 3.99191 148.163 3.84962C148.544 3.73208 148.93 3.60526 149.323 3.56815C149.632 3.53722 149.679 3.39184 149.623 3.16913C149.555 2.90002 149.536 2.62783 149.574 2.36182C149.638 1.88547 149.372 1.73081 148.973 1.69679C148.701 1.67204 148.438 1.71225 148.169 1.77721C147.838 1.85763 147.461 1.88547 147.309 1.48027C147.17 1.1029 147.483 0.957522 147.752 0.79977C148.63 0.28012 149.867 0.335796 150.631 0.914217C151.009 1.20188 151.241 1.55759 151.272 2.03394C151.306 2.58762 151.627 3.10727 151.445 3.70115ZM86.5009 6.72626C86.5226 6.06433 87.1474 5.36527 87.8836 4.75592C88.1558 4.53321 88.4342 4.33216 88.6228 4.02903C88.7435 3.83725 88.9043 3.6795 89.1085 3.57743C89.3219 3.47226 89.5384 3.44133 89.7364 3.60836C89.922 3.76611 89.9034 3.96716 89.8384 4.1775C89.7178 4.57961 89.5415 4.96316 89.2879 5.28485C89.0002 5.64675 88.9074 6.08598 88.7187 6.485C88.5764 6.78503 88.8022 7.10363 89.0064 7.34489C89.1982 7.57069 89.3312 7.81505 89.4271 8.08725C89.5693 8.48627 89.5075 8.84507 89.192 9.13583C88.8765 9.42659 88.5022 9.52248 88.0846 9.37401C87.1196 9.02757 86.5133 8.1553 86.5009 6.72626ZM98.8117 7.92641C98.292 7.89548 97.9332 7.67895 97.6332 7.26447C96.9527 6.33034 96.9713 5.4426 97.5806 4.47754C97.8528 4.04759 98.091 3.59598 98.456 3.23409C98.7498 2.94642 99.1025 2.76083 99.486 3.01447C99.8727 3.26811 99.8324 3.66094 99.684 4.04759C99.6283 4.19606 99.5943 4.35381 99.5169 4.493C99.22 5.03121 99.3468 5.47044 99.7922 5.86636C100.213 6.24373 100.275 6.7077 100.04 7.21498C99.7891 7.747 99.3375 7.92331 98.8117 7.92641Z" fill="#FFEBCA"/>
<path d="M137.046 11.8609C137.018 11.6382 137.232 11.632 137.365 11.5732C137.594 11.4712 137.798 11.3505 137.829 11.0752C137.866 10.7721 137.653 10.6144 137.439 10.4659C137.247 10.3329 136.981 9.45133 137.102 9.25956C137.22 9.08015 137.427 9.18841 137.569 9.15439C138.092 9.16367 138.352 9.374 138.466 9.91531C138.627 10.6824 138.37 11.4124 138.123 12.1053C138.021 12.3836 137.492 12.3063 137.164 12.297C136.929 12.2908 137.065 12.0125 137.046 11.8609ZM139.864 15.1056C139.066 15.1242 138.268 15.1551 137.47 15.1984C136.861 15.2294 136.861 15.2386 136.821 14.6169C136.814 14.5396 136.817 14.4592 136.827 14.3818C136.876 14.0354 136.988 13.8281 137.427 13.8281C137.928 13.8281 138.506 13.9766 138.899 13.4632C138.927 13.426 139.014 13.4291 139.075 13.426C140.013 13.3673 140.585 12.7703 140.597 11.83C140.6 11.6196 140.597 11.4124 140.597 11.2052C140.597 11.0165 140.603 10.8247 140.597 10.6329C140.563 9.66167 140.186 8.88528 139.338 8.35017C138.766 7.98827 138.138 7.93568 137.495 7.99136C137.148 8.02229 137.025 7.90166 137.09 7.57378C137.164 7.20879 137.133 6.8438 137.127 6.47881C137.124 6.14784 137.189 5.97153 137.609 5.99318C138.163 6.02411 138.649 5.55395 138.673 5.08379C138.698 4.60126 138.361 4.2672 137.745 4.18987C137.396 4.14657 137.111 4.10945 137.139 3.61764C137.158 3.29595 136.938 2.99282 136.567 2.94642C136.227 2.90312 135.967 3.1351 135.967 3.43823C135.97 4.33525 135.422 4.64766 134.668 4.79304C134.618 4.80231 134.578 4.82706 134.532 4.84253C134.12 4.96316 133.839 5.19824 133.888 5.66221C133.925 6.00246 134.321 6.2097 134.801 6.19114C135.064 6.17877 135.367 5.92204 135.571 6.15093C135.763 6.36436 135.555 6.70151 135.62 6.98299C135.63 7.01392 135.63 7.04795 135.62 7.07888C135.438 7.66039 135.784 8.41203 134.949 8.79558C134.621 8.94405 134.791 9.55031 135.119 9.49773C135.682 9.41112 135.565 9.74827 135.586 10.0514C135.608 10.3143 135.577 10.4968 135.274 10.5927C135.104 10.6453 134.965 10.8123 134.825 10.9422C134.637 11.1154 134.532 11.3227 134.64 11.5856C134.745 11.8331 134.949 11.9908 135.203 11.9506C135.608 11.8856 135.58 12.1053 135.602 12.3898C135.63 12.7579 135.367 12.7889 135.138 12.8847C134.887 12.9868 134.661 13.1384 134.674 13.4322C134.686 13.7477 134.937 13.8498 135.215 13.8622C135.571 13.8776 135.565 14.1684 135.577 14.3818C135.593 14.7314 135.729 15.0994 135.494 15.4304C135.472 15.4613 135.407 15.4706 135.361 15.4737C134.779 15.5108 134.25 15.7676 133.687 15.8789C133.044 16.0119 132.41 16.1697 131.763 16.2717C131.265 16.3522 130.928 16.7945 130.999 17.2183C131.064 17.6266 131.466 17.8462 132.017 17.7688C132.079 17.7596 132.141 17.7379 132.202 17.7255C133.115 17.5616 134.009 17.3172 134.946 17.2894C135.289 17.2801 135.432 17.3018 135.385 17.7132C135.308 18.4091 135.262 19.1051 135.147 19.801C135.054 20.3702 135.376 20.8403 135.899 20.9703C136.425 21.1002 136.855 20.8218 137.059 20.2341C137.145 19.9897 137.167 19.7392 137.173 19.4824C137.185 18.8391 137.077 18.2142 136.963 17.5863C136.904 17.2801 136.96 17.11 137.334 17.1131C138.16 17.1255 138.986 17.1131 139.815 17.0141C140.449 16.9399 141.064 16.4975 141.058 15.9748C141.055 15.4118 140.625 15.0871 139.864 15.1056Z" fill="#FFEBCA"/>
<path d="M147.328 12.3309C147.402 13.2311 147.322 14.1374 147.396 15.0375C147.415 15.2664 147.387 15.4798 147.331 15.6963C147.217 16.1448 146.985 16.4912 146.474 16.5284C146.054 16.5562 145.605 16.1974 145.475 15.7118C145.305 15.0715 145.339 14.4219 145.432 13.7755C145.531 13.0888 145.478 12.3773 145.723 11.7123C145.75 11.6381 145.744 11.5484 145.778 11.4803C145.955 11.1277 146.084 10.6761 146.586 10.7287C147.046 10.7751 147.155 11.1834 147.217 11.5762C147.257 11.8268 147.291 12.0773 147.328 12.3309ZM131.407 12.7949C131.414 11.7463 131.683 10.7503 132.042 9.776C132.119 9.56567 132.243 9.37698 132.419 9.22851C132.784 8.9192 133.27 9.04601 133.331 9.51927C133.44 10.3513 133.613 11.1865 133.43 12.034C133.39 12.2258 133.409 12.4145 133.452 12.6031C133.536 12.9403 133.495 13.2713 133.415 13.5961C133.288 14.1281 132.824 14.4188 132.246 14.3384C131.711 14.2673 131.38 13.8992 131.376 13.3672C131.376 13.1785 131.395 12.9867 131.407 12.7949ZM107.831 7.30457C107.732 8.1026 107.674 8.84805 107.466 9.57185C107.38 9.86879 107.244 10.1348 107.005 10.3359C106.443 10.8153 105.808 10.6483 105.567 9.9585C105.14 8.73979 105.626 7.67884 106.195 6.66119C106.402 6.2931 106.838 6.19103 107.262 6.34878C107.723 6.522 107.797 6.93648 107.831 7.30457ZM146.48 3.82167C146.48 4.10624 146.505 4.3939 146.477 4.67847C146.422 5.23215 146.016 5.6157 145.552 5.58477C145.064 5.55384 144.628 5.10533 144.665 4.5764C144.739 3.54947 144.881 2.52873 145.175 1.53583C145.259 1.26054 145.435 1.04092 145.747 1.03783C146.047 1.03473 146.187 1.25435 146.264 1.51727C146.49 2.272 146.453 3.04838 146.48 3.82167ZM76.7946 2.9494C77.3761 3.06694 78.0102 3.16283 78.5917 3.43193C79.0897 3.66392 79.3063 4.18666 79.1361 4.65682C78.9598 5.13936 78.4092 5.40846 77.8803 5.24762C77.4132 5.10224 76.9462 4.94139 76.4915 4.76199C76.0151 4.57331 75.7522 4.05984 75.8605 3.60515C75.9533 3.2216 76.3399 2.93703 76.7946 2.9494ZM97.194 13.8899C97.2961 13.4043 97.5033 12.7949 97.8714 12.2753C98.1962 11.8206 98.7653 11.7154 99.1458 11.9567C99.5201 12.1948 99.585 12.5939 99.3839 13.1506C99.1953 13.6765 99.053 14.2209 98.6076 14.6044C98.323 14.8488 98.0044 14.9787 97.6363 14.8117C97.3084 14.6632 97.1692 14.391 97.194 13.8899ZM89.0311 13.627C89.093 14.0848 89.0497 14.5271 88.7373 14.8921C88.496 15.1736 88.1836 15.3406 87.8001 15.2447C87.4134 15.1457 87.2464 14.8519 87.1876 14.4714C87.135 14.125 87.1072 13.7785 87.1319 13.4259C87.1753 12.8135 87.6176 12.3371 88.1774 12.3217C88.6847 12.3093 88.9693 12.665 89.0188 13.3888C89.0219 13.4692 89.028 13.5466 89.0311 13.627ZM118.308 16.3335C118.858 16.349 119.539 16.9057 119.653 17.447C119.721 17.7594 119.694 18.0564 119.425 18.276C119.103 18.542 118.738 18.5235 118.385 18.3781C117.94 18.1956 117.63 17.8337 117.423 17.4192C117.142 16.847 117.596 16.3118 118.308 16.3335ZM149.465 15.8819C148.899 15.8757 148.46 15.4952 148.46 15.0096C148.457 14.4993 148.902 14.125 149.502 14.125C150.041 14.1219 150.588 14.5364 150.591 14.9447C150.594 15.4643 150.087 15.8881 149.465 15.8819ZM149.552 11.5453C150.031 11.5453 150.381 11.8484 150.393 12.2815C150.406 12.7083 149.778 13.2805 149.317 13.2682C148.896 13.2558 148.5 12.8723 148.497 12.4732C148.494 12.0309 149.042 11.5484 149.552 11.5453Z" fill="#FFEBCA"/>
</svg>
