<?xml version="1.0" encoding="utf-8"?>
<!-- Generator: Adobe Illustrator 26.0.3, SVG Export Plug-In . SVG Version: 6.00 Build 0)  -->
<svg version="1.1" id="图层_1" xmlns="http://www.w3.org/2000/svg" xmlns:xlink="http://www.w3.org/1999/xlink" x="0px" y="0px"
	 viewBox="0 0 15.67 3.61" style="enable-background:new 0 0 15.67 3.61;" xml:space="preserve">
<style type="text/css">
	.st0{fill:#26a8a8;}
</style>
<path class="st0" d="M15.67,1.7c-0.02,1.21-0.91,2.01-2.15,1.89c-0.58-0.05-1.16-0.01-1.73-0.02C10.2,3.55,8.61,3.56,7.01,3.56
	c-0.83,0-1.65,0.01-2.48,0.01c-0.89,0-1.77-0.07-2.66-0.04c-0.45,0.02-0.86-0.16-1.24-0.4C0.06,2.76-0.16,2,0.12,1.34
	c0.32-0.77,1.12-1.23,1.94-1.23c0.81,0,1.63-0.07,2.45-0.08C5.12,0.03,5.72,0.1,6.33,0.13c0.1,0,0.2,0.02,0.3,0.01
	c1.26-0.19,2.52-0.09,3.79-0.04c0.36,0.01,0.73,0.03,1.1-0.06c0.28-0.06,0.55-0.02,0.83-0.01c0.47,0.01,0.93,0.01,1.4-0.01
	c0.49-0.02,0.92,0.15,1.31,0.43C15.47,0.72,15.68,1.17,15.67,1.7z"/>
</svg>
