<?xml version="1.0" encoding="utf-8"?>
<!-- Generator: Adobe Illustrator 26.0.3, SVG Export Plug-In . SVG Version: 6.00 Build 0)  -->
<svg version="1.1" id="图层_1" xmlns="http://www.w3.org/2000/svg" xmlns:xlink="http://www.w3.org/1999/xlink" x="0px" y="0px"
	 viewBox="0 0 42.52 42.52" style="enable-background:new 0 0 42.52 42.52;" xml:space="preserve">
<style type="text/css">
	.st0{fill:#fff;}
	.st1{fill-rule:evenodd;clip-rule:evenodd;fill:#fff;}
</style>
<g>
	<path class="st0" d="M31.88,10.12c-0.45,0.11-0.75,0.42-1.05,0.73c-0.04,0.05-0.09,0.09-0.13,0.13c-1.2,1.23-2.27,2.57-3.32,3.94
		c-0.32,0.42-0.62,0.86-0.91,1.3c-0.24,0.36-0.49,0.73-0.75,1.08c-0.14,0.2-0.27,0.41-0.39,0.62c-0.18,0.33-0.37,0.65-0.64,0.92
		c-0.64,0.62-1.45,0.89-2.32,1.02c-1.26,0.2-2.46,0.05-3.61-0.52c-0.17-0.09-0.34-0.17-0.51-0.26c-0.26-0.13-0.51-0.26-0.77-0.39
		c-0.55-0.28-1.11-0.55-1.67-0.81c-0.56-0.27-1.11-0.54-1.67-0.81c-0.19-0.1-0.38-0.21-0.56-0.32c-0.2-0.12-0.4-0.25-0.62-0.35
		c-1.21-0.58-2.41-1.15-3.63-1.7c-0.44-0.2-0.9-0.33-1.39-0.37c-0.31-0.02-0.62-0.02-0.74,0.34c-0.11,0.34,0.04,0.62,0.32,0.8
		c0.81,0.57,1.62,1.13,2.5,1.56c0.52,0.25,1.02,0.53,1.53,0.8c0.55,0.3,1.09,0.59,1.65,0.86c0.48,0.23,0.96,0.48,1.44,0.73
		c0.77,0.4,1.54,0.81,2.34,1.14c0.04,0.02,0.09,0.04,0.13,0.05c0.66,0.27,1.32,0.54,2.05,0.58c0.95,0.06,1.91,0.07,2.87,0.04
		c0.48,0,0.94-0.12,1.4-0.23c0.2-0.05,0.39-0.1,0.59-0.14c0.76-0.16,1.45-0.47,2.03-0.98c0.47-0.41,0.83-0.91,1.2-1.41
		c0.15-0.2,0.3-0.41,0.46-0.61c0.15-0.19,0.27-0.41,0.39-0.62c0.12-0.22,0.24-0.44,0.4-0.63c0.98-1.2,1.96-2.4,3-3.55
		c0.56-0.62,0.9-1.32,1.19-2.07c0.11-0.29,0.08-0.59-0.15-0.83c-0.17-0.18-0.36-0.13-0.56-0.08C31.95,10.1,31.92,10.11,31.88,10.12z
		"/>
	<path class="st1" d="M38.04,28.66c-0.09-0.69-0.18-1.38-0.29-2.07c-0.13-0.8-0.23-1.6-0.17-2.39c0.11-1.37-0.05-2.72-0.22-4.06
		l-0.01-0.11c-0.13-1-0.25-2-0.34-3c-0.03-0.31-0.05-0.62-0.08-0.93c-0.09-1.01-0.18-2.02-0.23-3.03c-0.01-0.14-0.01-0.28-0.01-0.41
		c-0.01-0.35-0.01-0.71-0.09-1.05c-0.07-0.29-0.09-0.6-0.11-0.9c-0.03-0.48-0.07-0.97-0.29-1.42c-0.02-0.04-0.01-0.1-0.01-0.15
		c0-0.02,0.01-0.04,0.01-0.06c0.05-0.8-0.52-1.55-1.3-1.67c-0.92-0.14-1.86-0.19-2.79-0.07c-1.64,0.21-3.26,0.32-4.92,0.29
		c-1.38-0.02-2.76-0.01-4.14,0.13c-1.66,0.17-3.31,0.37-4.96,0.58c-0.2,0.02-0.41,0.05-0.61,0.07c-0.94,0.11-1.87,0.22-2.81,0.37
		c-0.74,0.12-1.5,0.26-2.23,0.46c-0.75,0.21-1.52,0.36-2.28,0.52C9.87,9.8,9.6,9.86,9.34,9.92c-1.6,0.33-3.15,0.69-4.28,2.05
		c-0.44,0.53-0.7,1.06-0.76,1.73c-0.09,0.96-0.02,1.92,0.05,2.88c0.03,0.44,0.06,0.89,0.08,1.33c0.05,1.36,0.22,2.71,0.52,4.05
		c0.28,1.29,0.35,2.6,0.42,3.92c0.04,0.85,0.09,1.71,0.19,2.56c0.02,0.15,0.04,0.3,0.05,0.45c0.16,1.37,0.32,2.74,1.09,3.96
		c0.06,0.09,0.12,0.2,0.15,0.3c0.28,1,1,1.54,1.92,1.84c1.05,0.35,2.16,0.29,3.23,0.23c0.04,0,0.09,0,0.13-0.01
		c0.46-0.02,0.92-0.04,1.39-0.06c0.69-0.03,1.38-0.06,2.07-0.1c0.25-0.01,0.5-0.01,0.76-0.02c0.6,0,1.2-0.01,1.77-0.17
		c0.42-0.11,0.85-0.19,1.28-0.27c0.48-0.09,0.96-0.17,1.43-0.31c0.78-0.22,1.6-0.3,2.42-0.37c0.21-0.02,0.42-0.04,0.62-0.06
		c1.08-0.11,2.15-0.26,3.22-0.41c1.62-0.23,3.24-0.46,4.88-0.53c0.35-0.01,0.71-0.01,1.05-0.01c0.71,0,1.38,0,1.92-0.13
		c0.83,0.01,1.37-0.07,1.9-0.2c0.32-0.07,0.54-0.28,0.73-0.55c0.51-0.73,0.91-1.47,0.59-2.4c-0.01-0.04-0.01-0.08-0.01-0.12
		c0-0.03,0-0.06,0-0.09C38.11,29.17,38.08,28.92,38.04,28.66z M31.67,31.55c1.29-0.24,2.59-0.39,3.9-0.5
		c0.47-0.04,0.82-0.39,0.78-0.86c-0.03-0.35-0.03-0.7-0.03-1.05c0-0.25,0-0.51-0.01-0.76c-0.01-0.35-0.01-0.71,0-1.06
		c0.01-0.62,0.03-1.23-0.07-1.84c-0.08-0.54-0.14-1.08-0.19-1.62c-0.03-0.3-0.06-0.6-0.1-0.9c-0.03-0.22-0.04-0.45-0.05-0.67
		c-0.02-0.31-0.04-0.62-0.09-0.93c-0.07-0.4-0.19-0.79-0.31-1.17c-0.1-0.33-0.2-0.65-0.27-0.99c-0.28-1.25-0.45-2.52-0.57-3.79
		c-0.1-1.06-0.16-2.12-0.23-3.18c-0.03-0.53-0.06-1.06-0.1-1.59c0-0.02,0-0.05-0.01-0.07c-0.04-0.59-0.08-1.18-0.94-1.15
		c-0.04,0-0.07-0.02-0.1-0.03c-0.02-0.01-0.04-0.02-0.05-0.03c-0.13-0.04-0.26-0.09-0.39-0.13c-0.74-0.25-1.47-0.49-2.27-0.5
		c-0.6-0.01-1.19,0.05-1.78,0.11c-0.31,0.03-0.61,0.06-0.92,0.08c-0.22,0.02-0.43,0.03-0.65,0.04c-0.32,0.01-0.63,0.03-0.95,0.07
		c-1.15,0.15-2.29,0.32-3.42,0.53c-0.4,0.07-0.81,0.11-1.22,0.14c-0.34,0.03-0.67,0.06-1.01,0.11c-0.15,0.02-0.29,0.04-0.44,0.07
		c-0.73,0.11-1.46,0.22-2.2,0.3c-0.11,0.01-0.23,0.02-0.34,0.04c-0.99,0.1-1.98,0.2-2.96,0.37c-0.91,0.16-1.82,0.35-2.72,0.53
		c-0.13,0.03-0.25,0.05-0.38,0.08c-0.86,0.18-1.72,0.38-2.57,0.66c-0.1,0.03-0.2,0.07-0.3,0.1c-0.72,0.25-1.45,0.5-2.22,0.56
		c-0.37,0.03-0.5,0.2-0.51,0.53c-0.01,0.18-0.01,0.37,0,0.55c0.1,1.61,0.25,3.21,0.4,4.81c0.01,0.14,0.03,0.29,0.04,0.43
		c0.11,1.18,0.22,2.36,0.36,3.53c0.2,1.76,0.39,3.52,0.56,5.28c0.1,1.01,0.27,2.02,0.43,3.03c0.08,0.47,0.15,0.94,0.23,1.4
		c0.14,0.94,0.36,1.52,1.74,1.35c0.57-0.07,1.15-0.07,1.73-0.08c0.61-0.01,1.23-0.02,1.85-0.1c0.61-0.08,1.23-0.08,1.85-0.08
		c0.58,0,1.16,0,1.73-0.06c0.44-0.05,0.87-0.09,1.31-0.14c0.68-0.07,1.36-0.14,2.04-0.23c1.04-0.14,2.1-0.2,3.16-0.25
		c0.44-0.02,0.87-0.05,1.31-0.07c1.13-0.06,2.25-0.12,3.37-0.29c0.23-0.03,0.46-0.07,0.68-0.1C29.73,31.88,30.7,31.73,31.67,31.55z
		 M30.83,10.86c-0.04,0.05-0.09,0.09-0.13,0.13c-1.2,1.23-2.27,2.57-3.32,3.94c-0.32,0.42-0.62,0.86-0.91,1.3
		c-0.24,0.36-0.49,0.73-0.75,1.08c-0.14,0.2-0.27,0.41-0.39,0.62c-0.18,0.33-0.37,0.65-0.64,0.92c-0.64,0.62-1.45,0.89-2.32,1.02
		c-1.26,0.2-2.46,0.05-3.61-0.52c-0.17-0.09-0.34-0.17-0.51-0.26c-0.26-0.13-0.51-0.26-0.77-0.39c-0.55-0.28-1.11-0.55-1.67-0.81
		c-0.56-0.27-1.11-0.54-1.67-0.81c-0.19-0.1-0.38-0.21-0.56-0.32c-0.2-0.12-0.4-0.25-0.62-0.35c-1.21-0.58-2.41-1.15-3.63-1.7
		c-0.44-0.2-0.9-0.33-1.39-0.37c-0.31-0.02-0.62-0.02-0.74,0.34c-0.11,0.34,0.04,0.62,0.32,0.8c0.81,0.57,1.62,1.13,2.5,1.56
		c0.52,0.25,1.02,0.53,1.53,0.8c0.55,0.3,1.09,0.59,1.65,0.86c0.48,0.23,0.96,0.48,1.44,0.73c0.77,0.4,1.54,0.81,2.34,1.14
		c0.04,0.02,0.09,0.04,0.13,0.05c0.66,0.27,1.32,0.54,2.05,0.58c0.95,0.06,1.91,0.07,2.87,0.04c0.48,0,0.94-0.12,1.4-0.23
		c0.2-0.05,0.39-0.1,0.59-0.14c0.76-0.16,1.45-0.47,2.03-0.98c0.47-0.41,0.83-0.91,1.2-1.41c0.15-0.2,0.3-0.41,0.46-0.61
		c0.15-0.19,0.27-0.41,0.39-0.62c0.12-0.22,0.24-0.44,0.4-0.63c0.98-1.2,1.96-2.4,3-3.55c0.56-0.62,0.9-1.32,1.19-2.07
		c0.11-0.29,0.08-0.59-0.15-0.83c-0.17-0.18-0.36-0.13-0.56-0.08c-0.04,0.01-0.07,0.02-0.11,0.03
		C31.43,10.23,31.13,10.55,30.83,10.86z"/>
</g>
</svg>
