<?xml version="1.0" encoding="utf-8"?>
<!-- Generator: Adobe Illustrator 26.0.3, SVG Export Plug-In . SVG Version: 6.00 Build 0)  -->
<svg version="1.1" id="图层_1" xmlns="http://www.w3.org/2000/svg" xmlns:xlink="http://www.w3.org/1999/xlink" x="0px" y="0px"
	 viewBox="0 0 42.52 42.52" style="enable-background:new 0 0 42.52 42.52;" xml:space="preserve">
<style type="text/css">
	.st0{fill:#FFEBCA;}
	.st1{fill-rule:evenodd;clip-rule:evenodd;fill:#FFEBCA;}
</style>
<g>
	<path class="st0" d="M11.13,36.44c0.76-0.05,1.51-0.12,2.27-0.14c1.3-0.03,2.6,0.12,3.89,0.16c0.4,0.01,0.8-0.11,1.2-0.15
		c1.93-0.19,3.87-0.21,5.81-0.16c1.9,0.05,3.81,0.15,5.72-0.05c1-0.1,2.02-0.07,3.03-0.11c0.15-0.01,0.42,0.09,0.4-0.23
		c-0.02-0.26,0.2-0.56-0.18-0.76c-0.58-0.31-0.63-0.48-0.42-1.08c0.18-0.48,0.28-0.97,0.3-1.49c0.01-0.2,0-0.32-0.25-0.32
		c-0.33,0-0.68-0.01-1.01-0.07c-0.88-0.16-1.4,0.28-1.78,1.01c-0.14,0.28-0.29,0.69-0.69,0.45c-0.37-0.22-0.15-0.58,0-0.86
		c0.52-0.99,1.27-1.6,2.47-1.45c0.5,0.06,1.01-0.03,1.51,0.14c0.58,0.2,0.76,0.5,0.68,1.11c-0.05,0.37-0.06,0.74-0.14,1.1
		c-0.1,0.45-0.25,0.85,0.26,1.18c0.25,0.16,0.23,0.52,0.19,0.81c-0.05,0.35-0.29,0.64-0.28,1.03c0,0.26-0.38,0.33-0.66,0.34
		c-2.78,0.14-5.57,0.16-8.35,0.08c-1.3-0.04-2.6-0.11-3.9-0.06c-1.23,0.05-2.46,0.01-3.69,0.01c-1.18,0-2.35,0.19-3.54,0.2
		c-1.44,0.01-2.89,0.23-4.33,0.06c-0.59-0.07-0.92-0.42-0.92-1.02c0.01-1.19,0.07-1.41,1.07-1.54c0.2-0.03,0.31-0.11,0.15-0.34
		c-0.17-0.23-0.25-0.51-0.44-0.74c-0.48-0.56-0.31-1.2,0.39-1.5c0.33-0.14,0.65-0.27,0.98-0.4c1.43-0.57,3.07,0.2,3.55,1.67
		c0.09,0.27,0.1,0.52-0.2,0.65c-0.27,0.11-0.5,0-0.65-0.24c-0.11-0.17-0.18-0.36-0.28-0.54c-0.41-0.77-1.02-1.03-1.88-0.81
		c-0.06,0.02-0.14,0.02-0.2,0.05c-0.31,0.14-0.71,0.21-0.89,0.45c-0.25,0.32,0.22,0.55,0.34,0.84c0.27,0.64,0.06,1.25-0.63,1.45
		C9.57,35.32,9.55,35.61,9.58,36c0.04,0.42,0.33,0.41,0.62,0.41c0.31,0,0.61,0,0.91,0L11.13,36.44L11.13,36.44z"/>
	<path class="st0" d="M26.8,12.21c-2.36-0.04-4.55,0.12-6.74,0.17c-2.03,0.05-4.05,0.03-6.08-0.06c-0.62-0.03-1.25-0.03-1.87-0.03
		c-0.21,0-0.41-0.03-0.59-0.11c-0.19-0.09-0.43-0.2-0.36-0.48c0.06-0.24,0.28-0.27,0.49-0.27c0.68,0.01,1.35,0.05,2.03,0.05
		c3.08,0,6.15-0.06,9.22,0c2.22,0.04,4.42-0.14,6.63-0.28c0.34-0.02,0.84-0.18,0.9,0.37c0.06,0.53-0.43,0.53-0.79,0.58
		C28.64,12.3,27.64,12.21,26.8,12.21L26.8,12.21z"/>
	<path class="st0" d="M14.64,34.68c3.51,0,7.03,0.01,10.55-0.01c0.98,0,1.95-0.13,2.93-0.16c0.86-0.02,1.72,0.01,2.57,0.04
		c0.25,0.01,0.49,0.14,0.48,0.42c0,0.25-0.2,0.38-0.44,0.41c-0.65,0.1-1.32,0.06-1.97,0.04c-2.36-0.08-4.72-0.21-7.08-0.18
		c-2.88,0.03-5.75,0.01-8.63,0.02c-0.23,0-0.54,0.05-0.53-0.3c0.01-0.34,0.31-0.28,0.54-0.28C13.59,34.69,14.11,34.69,14.64,34.68
		C14.64,34.69,14.64,34.69,14.64,34.68L14.64,34.68z"/>
	<path class="st0" d="M32.13,20.5c0,1.42-0.03,2.84,0.01,4.25c0.05,1.59,0,3.17-0.02,4.76c0,0.1,0,0.2,0,0.31
		c-0.02,0.25-0.1,0.48-0.4,0.5c-0.32,0.02-0.46-0.2-0.48-0.48c-0.04-0.47-0.03-0.94-0.04-1.42c-0.03-1.21-0.01-2.43-0.02-3.64
		c-0.02-2.29,0.05-4.58,0.08-6.88c0-0.19,0.03-0.37,0.06-0.56c0.03-0.24,0.09-0.5,0.41-0.47c0.28,0.02,0.32,0.25,0.35,0.48
		c0.09,0.91,0.06,1.82,0.08,2.74C32.14,20.23,32.14,20.36,32.13,20.5L32.13,20.5z"/>
	<path class="st0" d="M11.75,24.49c0,1.91,0,3.82,0,5.72c0,0.14,0.01,0.27-0.02,0.4c-0.04,0.24-0.18,0.4-0.44,0.41
		c-0.25,0-0.35-0.16-0.39-0.38c-0.14-0.82-0.09-1.65-0.09-2.48c0-2.09-0.01-4.18,0.05-6.27c0.04-1.32,0.02-2.63,0.05-3.95
		c0-0.09,0-0.17,0.03-0.25c0.06-0.17,0.13-0.39,0.35-0.38c0.24,0.01,0.32,0.22,0.34,0.44c0.03,0.67,0.07,1.35,0.08,2.02
		c0.01,1.57,0,3.14,0,4.72C11.72,24.49,11.73,24.49,11.75,24.49z"/>
	<path class="st0" d="M20.84,32.84c2.55,0,5.1,0,7.65,0c0.31,0,0.6,0.1,0.65,0.43c0.06,0.38-0.24,0.45-0.55,0.51
		c-0.49,0.09-0.98,0.03-1.47,0.02c-1.86-0.06-3.71-0.03-5.57,0c-0.71,0.01-1.42-0.07-2.13,0c-0.84,0.09-1.68,0.12-2.53,0.16
		c-0.28,0.01-0.57-0.01-0.86-0.05c-0.15-0.02-0.28-0.13-0.28-0.31c0-0.18,0.12-0.28,0.28-0.31c0.11-0.03,0.23-0.04,0.35-0.06
		C17.86,33.09,19.34,32.85,20.84,32.84L20.84,32.84z"/>
	<path class="st0" d="M19.5,25.02c0.9,0.15,1.81-0.01,2.71-0.05c0.46-0.02,0.9,0.1,1.32,0.25c0.14,0.05,0.29,0.12,0.29,0.31
		c0,0.2-0.13,0.31-0.28,0.39c-0.07,0.04-0.17,0.09-0.24,0.07c-1.32-0.2-2.65,0.27-3.96-0.09c-0.14-0.04-0.29-0.08-0.43-0.13
		c-0.2-0.07-0.39-0.18-0.35-0.42C18.6,25.09,18.8,25,19.04,25C19.2,25,19.34,25.01,19.5,25.02L19.5,25.02z"/>
	<path class="st0" d="M27.39,25.86c-0.5,0-1.01,0.01-1.51,0c-0.28-0.01-0.59-0.08-0.62-0.4c-0.04-0.36,0.28-0.42,0.56-0.43
		c1.29-0.05,2.59-0.09,3.88-0.14c0.08,0,0.17,0.01,0.25,0.04c0.22,0.08,0.49,0.13,0.46,0.45c-0.04,0.3-0.25,0.43-0.54,0.43
		c-0.82,0-1.65,0-2.47,0C27.39,25.82,27.39,25.84,27.39,25.86L27.39,25.86z"/>
	<path class="st0" d="M20.23,30.49c0.72-0.08,1.47,0.02,2.23-0.15c0.26-0.06,0.54-0.02,0.8,0.01c0.22,0.03,0.46,0.09,0.46,0.38
		c0.01,0.3-0.2,0.42-0.45,0.46c-0.55,0.08-1.1,0.19-1.66,0.19c-0.69,0.01-1.38,0.02-2.07-0.1c-0.17-0.03-0.33-0.07-0.48-0.14
		c-0.12-0.06-0.23-0.15-0.22-0.31c0.01-0.18,0.14-0.26,0.29-0.31C19.49,30.42,19.85,30.44,20.23,30.49L20.23,30.49z"/>
	<path class="st0" d="M15.75,20.11c-0.53,0-1.21,0.05-1.88-0.07c-0.25-0.05-0.49-0.1-0.51-0.39c-0.03-0.33,0.27-0.37,0.49-0.4
		c0.47-0.05,0.94-0.07,1.41-0.08c0.71-0.02,1.42-0.02,2.12-0.01c0.13,0,0.27,0.03,0.39,0.08c0.2,0.07,0.38,0.18,0.36,0.43
		c-0.03,0.24-0.21,0.34-0.42,0.37C17.11,20.13,16.5,20.14,15.75,20.11L15.75,20.11z"/>
	<path class="st0" d="M15.17,30.38c0.4,0,0.81,0,1.21,0c0.17,0,0.34,0,0.5,0.04c0.27,0.06,0.59,0.15,0.58,0.47
		c0,0.34-0.36,0.39-0.61,0.4c-1.13,0.07-2.25,0.12-3.38,0c-0.25-0.03-0.42-0.13-0.45-0.39c-0.03-0.28,0.15-0.4,0.38-0.45
		C13.99,30.33,14.58,30.48,15.17,30.38L15.17,30.38z"/>
	<path class="st0" d="M27.54,19.91c-0.44,0-0.88,0-1.31,0c-0.25,0-0.51-0.06-0.54-0.34c-0.04-0.31,0.23-0.43,0.48-0.48
		c0.45-0.09,0.9-0.05,1.36-0.07c0.52-0.02,1.04,0.03,1.56-0.06c0.33-0.06,0.69,0.03,0.76,0.41c0.07,0.42-0.29,0.45-0.6,0.51
		C28.68,19.99,28.1,19.94,27.54,19.91L27.54,19.91z"/>
	<path class="st0" d="M21.04,18.98c0.81,0.04,1.44-0.03,2.05,0.12c0.24,0.06,0.5,0.13,0.5,0.41c0,0.34-0.29,0.39-0.55,0.4
		c-1.07,0.07-2.13-0.03-3.19-0.12c-0.22-0.02-0.57-0.02-0.54-0.4c0.03-0.34,0.35-0.34,0.59-0.36C20.35,19,20.78,18.99,21.04,18.98
		L21.04,18.98z"/>
	<path class="st0" d="M15.11,25.96c-0.45-0.04-0.97-0.07-1.49-0.13c-0.29-0.03-0.54-0.18-0.54-0.5c0-0.31,0.29-0.36,0.52-0.35
		c1.09,0.05,2.19-0.1,3.26,0.17c0.17,0.04,0.42,0.08,0.42,0.3c0,0.2-0.24,0.26-0.41,0.32C16.32,25.97,15.75,25.9,15.11,25.96
		L15.11,25.96z"/>
	<path class="st0" d="M27.14,31.09c-0.36-0.08-0.85,0.08-1.31-0.1c-0.23-0.09-0.45-0.2-0.4-0.5c0.05-0.28,0.29-0.31,0.51-0.31
		c0.79,0,1.58,0,2.38,0.01c0.29,0,0.63,0.04,0.64,0.42c0.01,0.37-0.3,0.46-0.6,0.48C27.99,31.11,27.61,31.09,27.14,31.09z"/>
	<path class="st0" d="M31.94,32.65c0.18,0.01,0.36,0.08,0.39,0.33c0.03,0.28-0.59,0.88-0.89,0.85c-0.26-0.02-0.38-0.2-0.38-0.44
		C31.05,33.05,31.51,32.65,31.94,32.65z"/>
	<path class="st0" d="M26.35,22.96c-0.05,0.31-0.05,0.71-0.44,0.7c-0.43-0.01-0.44-0.42-0.47-0.76c-0.03-0.33,0.09-0.61,0.44-0.6
		C26.27,22.32,26.3,22.68,26.35,22.96L26.35,22.96z"/>
	<path class="st0" d="M19.63,22.38c-0.04,0.26,0.01,0.68-0.44,0.68c-0.39,0-0.42-0.39-0.42-0.68c0-0.31,0.06-0.66,0.46-0.66
		C19.62,21.72,19.64,22.04,19.63,22.38L19.63,22.38z"/>
	<path class="st0" d="M19.94,16.82c-0.02,0.28-0.07,0.6-0.43,0.56c-0.45-0.05-0.48-0.46-0.49-0.82c-0.01-0.27,0.09-0.5,0.39-0.48
		C19.85,16.12,19.93,16.46,19.94,16.82z"/>
	<path class="st0" d="M11.31,14.23c-0.23,0-0.4-0.06-0.4-0.33c-0.01-0.31,0.44-0.75,0.76-0.74c0.23,0.01,0.39,0.1,0.38,0.37
		C12.04,13.84,11.65,14.22,11.31,14.23L11.31,14.23z"/>
	<path class="st0" d="M26.26,16.45c0.02,0.32-0.02,0.64-0.36,0.62c-0.35-0.02-0.45-0.36-0.46-0.68c0-0.3,0.03-0.63,0.41-0.63
		C26.35,15.76,26.21,16.19,26.26,16.45L26.26,16.45z"/>
	<path class="st0" d="M26.47,27.79c-0.06,0.28-0.01,0.66-0.43,0.68c-0.36,0.02-0.46-0.29-0.46-0.59c0-0.28,0.06-0.61,0.43-0.63
		C26.34,27.23,26.46,27.48,26.47,27.79L26.47,27.79z"/>
	<path class="st0" d="M11.85,33.85c-0.42,0-0.76-0.26-0.75-0.58c0.01-0.27,0.18-0.41,0.42-0.39c0.34,0.04,0.67,0.16,0.72,0.57
		C12.27,33.73,12.12,33.85,11.85,33.85L11.85,33.85z"/>
	<path class="st0" d="M20.07,28.28c-0.05,0.24-0.05,0.62-0.43,0.58c-0.39-0.03-0.39-0.4-0.38-0.71c0.01-0.26,0.1-0.53,0.43-0.5
		C20.02,27.69,20.09,27.96,20.07,28.28L20.07,28.28z"/>
	<path class="st0" d="M31.3,14.16c-0.26,0.01-0.75-0.4-0.76-0.65c-0.01-0.22,0.11-0.35,0.32-0.38c0.26-0.03,0.7,0.44,0.71,0.76
		C31.58,14.09,31.47,14.16,31.3,14.16z"/>
	<path class="st0" d="M13.67,28.25c-0.03,0.28-0.08,0.55-0.42,0.53c-0.31-0.02-0.4-0.28-0.41-0.55c-0.02-0.27,0.11-0.48,0.4-0.48
		C13.57,27.74,13.65,27.99,13.67,28.25L13.67,28.25z"/>
	<path class="st0" d="M13.43,22.61c0.01-0.25,0.09-0.45,0.37-0.45c0.25-0.01,0.37,0.14,0.36,0.38c-0.01,0.24-0.06,0.51-0.36,0.52
		C13.51,23.07,13.44,22.84,13.43,22.61z"/>
	<path class="st0" d="M13.45,17.57c-0.28-0.05-0.39-0.24-0.41-0.5c-0.02-0.22,0.07-0.38,0.3-0.38c0.26,0,0.39,0.17,0.41,0.42
		C13.76,17.34,13.68,17.51,13.45,17.57z"/>
	<path class="st0" d="M34.68,9.66c-0.47-0.79-1.22-1.12-2.07-1.16c-1.64-0.08-3.27,0.14-4.9,0.16c-1.69,0.01-3.37,0.03-5.06-0.06
		c-0.24-0.01-0.34-0.06-0.36-0.34c-0.06-0.71-0.18-1.41-0.29-2.1c-0.06-0.42-0.28-0.63-0.73-0.68c-0.82-0.1-1.65-0.03-2.48-0.14
		c-0.44-0.06-0.9-0.1-1.36-0.05c-1.37,0.14-2.75,0.29-4.13,0.33c-0.37,0.01-0.93,0.45-0.94,0.82c-0.03,0.62-0.17,1.25-0.04,1.87
		c0.09,0.45-0.08,0.57-0.49,0.56c-1.13-0.04-2.19,0.29-3.24,0.66c-0.79,0.27-1.1,1-0.85,1.8c0.17,0.55,0.46,0.98,1.11,1.12
		c-0.88,0.85-0.94,1.53-0.09,2.2c0.62,0.49,1.27,0.93,1.8,1.53c0.23,0.25,0.6,0.32,0.9,0.14c0.87-0.54,1.68-1.14,2.09-2.14
		c0.14-0.34,0.12-0.68-0.23-0.82c-0.37-0.15-0.57,0.18-0.65,0.47c-0.19,0.72-0.68,1.18-1.21,1.64c-0.32,0.28-0.51,0.19-0.66-0.12
		c-0.24-0.49-0.67-0.75-1.12-0.99c-0.88-0.46-0.93-0.96-0.13-1.54c0.25-0.19,0.51-0.37,0.44-0.73c-0.07-0.37-0.36-0.44-0.68-0.47
		c-0.45-0.05-0.69-0.38-0.74-0.79c-0.05-0.37,0.21-0.6,0.55-0.76c0.74-0.36,1.48-0.51,2.34-0.44c2.18,0.18,4.35-0.19,6.54-0.14
		c1.45,0.03,2.91-0.08,4.36-0.07c1.28,0.01,2.56,0.08,3.83,0.17c2.37,0.16,4.75-0.29,7.12,0.08c0.4,0.06,0.63,0.17,0.63,0.55
		c0,0.38-0.03,0.82-0.56,0.88c-0.18,0.02-0.37,0.01-0.56,0.04c-0.3,0.05-0.66,0.06-0.74,0.42c-0.08,0.37-0.28,0.78,0.16,1.11
		c0.19,0.14,0.34,0.34,0.47,0.53c0.13,0.19,0.3,0.42,0.15,0.65c-0.26,0.43-0.52,0.87-0.93,1.19c-0.54,0.42-0.87,0.4-1.18-0.21
		c-0.26-0.52-0.71-0.9-0.95-1.44c-0.09-0.21-0.31-0.25-0.53-0.23c-0.18,0.02-0.36,0.07-0.55,0.08c-2.09,0.08-4.18,0.11-6.26,0.23
		c-1.41,0.09-2.8-0.06-4.2-0.03c-1.27,0.03-2.54,0.01-3.8,0.02c-0.26,0-0.51,0.05-0.5,0.37c0.01,0.28,0.25,0.33,0.49,0.33
		c0.14,0,0.27,0,0.41,0c2.01-0.03,4.02-0.02,6.03-0.03c2.54-0.01,5.07,0.05,7.61-0.01c0.58-0.01,1-0.01,1.16,0.66
		c0.06,0.26,0.33,0.42,0.52,0.61c0.71,0.69,1.39,0.73,2.19,0.41c0.77-0.31,1.54-1.58,1.45-2.28c-0.06-0.44-0.33-0.79-0.62-1.18
		c1.02-0.14,1.46-0.8,1.66-1.7c0.08-0.35,0.05-0.66-0.13-0.97L34.68,9.66z M16.2,8.57c-0.79,0.01-1.59,0.03-2.38,0.17
		c-0.42,0.07-0.66-0.03-0.66-0.52c0-0.54,0.04-1.08-0.09-1.62c-0.04-0.16,0.01-0.23,0.21-0.22c1.23,0.02,2.46-0.08,3.69-0.19
		c1.23-0.11,2.46-0.06,3.7-0.05c0.25,0,0.34,0.08,0.38,0.34c0.1,0.67,0.09,1.35,0.38,2.08C19.64,8.57,17.92,8.55,16.2,8.57
		L16.2,8.57z"/>
</g>
</svg>
