<?xml version="1.0" encoding="utf-8"?>
<!-- Generator: Adobe Illustrator 26.0.3, SVG Export Plug-In . SVG Version: 6.00 Build 0)  -->
<svg version="1.1" id="图层_1" xmlns="http://www.w3.org/2000/svg" xmlns:xlink="http://www.w3.org/1999/xlink" x="0px" y="0px"
	 viewBox="0 0 42.52 42.52" style="enable-background:new 0 0 42.52 42.52;" xml:space="preserve">
<style type="text/css">
	.st0{fill:#FFEBCA;}
	.st1{fill-rule:evenodd;clip-rule:evenodd;fill:#FFEBCA;}
</style>
<g>
	<path class="st0" d="M24.44,6.62c0.13,0.02,0.26,0.05,0.39,0.08c0.08,0.02,0.17,0.03,0.25,0.06c0.08,0.03,0.16,0.06,0.23,0.09
		C25.44,6.9,25.56,6.93,25.68,7c0.1,0.06,0.21,0.12,0.3,0.19c0.19,0.13,0.38,0.26,0.56,0.4c0.35,0.28,0.68,0.6,0.96,0.94
		c0.28,0.36,0.52,0.74,0.71,1.16c0.11,0.24,0.2,0.48,0.28,0.73c0.25,0.8,0.4,1.6,0.4,2.44c0,1.2-0.47,2.2-1.24,3.08
		c-0.28,0.32-0.74,0.35-1.07,0.08c-0.35-0.27-0.38-0.66-0.06-1.09c0.46-0.62,0.73-1.32,0.74-2.09c0.01-0.76-0.11-1.51-0.4-2.22
		c-0.2-0.48-0.27-1.01-0.64-1.42c-0.84-0.96-1.84-1.55-3.14-1.59c-0.67-0.02-1.31,0.11-1.91,0.36c-0.55,0.23-1.03,0.6-1.41,1.08
		c-0.91,1.12-1.08,2.46-0.9,3.8c0.11,0.84,0.51,1.66,1.23,2.23c0.14,0.12,0.25,0.25,0.33,0.42c0.18,0.44-0.06,0.84-0.53,0.89
		c-0.42,0.05-0.79-0.06-1.11-0.33c-0.8-0.7-1.23-1.58-1.29-2.64c-0.02-0.38-0.1-0.77-0.09-1.15c0.03-1.02,0.21-2.05,0.72-2.91
		c0.42-0.71,0.97-1.38,1.7-1.89c0.54-0.37,1.13-0.58,1.72-0.82c0.36-0.14,0.74-0.16,1.13-0.17c0.05,0,0.1-0.01,0.14-0.02
		c0.07-0.01,0.14,0,0.22,0c0.14,0,0.29,0.01,0.43,0.02c0.29,0.02,0.57,0.06,0.85,0.11C24.35,6.6,24.4,6.61,24.44,6.62z M33.81,30.1
		c-0.49-0.08-0.91-0.15-1.33-0.22c-0.54-0.09-0.93-0.58-0.85-1.05c0.08-0.44,0.62-0.8,1.13-0.7c0.64,0.13,1.29,0.19,1.92,0.39
		c0.13,0.04,0.28,0.05,0.42,0.08c0.17,0.02,0.25-0.05,0.26-0.24c0.05-1.39,0.13-2.78-0.03-4.17c-0.08-0.69-0.02-1.41-0.06-2.11
		c-0.04-0.61-0.13-1.22-0.2-1.83c-0.03-0.24-0.14-0.32-0.4-0.24c-0.78,0.25-1.52,0.6-2.24,0.98c-0.42,0.22-0.85,0.4-1.28,0.59
		c-0.17,0.07-0.36,0.09-0.49-0.08c-0.14-0.18-0.11-0.37,0.02-0.53c0.42-0.52,0.86-0.99,1.48-1.29c0.71-0.35,1.4-0.72,2.18-0.92
		c1.21-0.3,2.12,0.3,2.29,1.52c0.12,0.87,0.19,1.75,0.35,2.62c0.28,1.57,0.27,3.16,0.28,4.75c0.01,0.57-0.03,1.16-0.29,1.69
		c-0.36,0.76-1.01,1.08-1.91,0.96C34.62,30.24,34.17,30.22,33.81,30.1z M11.92,9.76c1.09,0.03,2.09,0.66,2.96,1.44
		c1.08,0.96,1.63,2.19,1.5,3.69c-0.06,0.73-0.21,1.39-0.7,1.94c-0.08,0.08-0.14,0.19-0.24,0.25c-0.3,0.16-0.6,0.42-0.95,0.13
		c-0.24-0.19-0.33-0.89-0.13-1.27c0.18-0.36,0.31-0.73,0.38-1.12c0.19-1.01-0.12-1.91-0.8-2.61c-0.7-0.71-1.6-1.13-2.65-1.09
		c-0.1,0-0.2-0.02-0.3-0.02c-1.44-0.16-2.54,0.41-3.34,1.58c-0.39,0.57-0.75,1.16-0.91,1.85c-0.22,0.97-0.01,1.9,0.39,2.79
		c0.27,0.6,0.28,0.77-0.01,0.94c-0.32,0.18-0.89-0.01-1.13-0.41c-0.3-0.51-0.55-1.05-0.64-1.64c-0.26-1.77,0.1-3.38,1.3-4.75
		c0.87-0.99,1.95-1.65,3.27-1.85C10.53,9.52,11.16,9.59,11.92,9.76z"/>
	<path class="st1" d="M20.28,24.73c-0.42-0.27-0.84-0.54-1.26-0.81c-0.48-0.3-1-0.52-1.53-0.71c-0.25-0.09-0.5-0.18-0.76-0.25
		c-0.13-0.04-0.24-0.11-0.34-0.18c-0.09-0.06-0.18-0.12-0.28-0.16c-0.09-0.03-0.19-0.05-0.29-0.06c-0.15-0.02-0.3-0.03-0.44-0.03
		c-0.11,0-0.23,0-0.33,0.05c-0.1,0.05-0.17,0.15-0.2,0.26c-0.03,0.1-0.04,0.21-0.04,0.32c0,0.07,0,0.14-0.01,0.21
		c-0.01,0.23-0.02,0.46,0.02,0.68c0.04,0.17,0.02,0.35,0.01,0.53c-0.01,0.11-0.01,0.22-0.01,0.33c0.01,0.29,0.05,0.58,0.09,0.87
		c0.05,0.36,0.09,0.71,0.1,1.07c0.01,0.6,0.07,1.21,0.13,1.81v0c0.04,0.43,0.08,0.86,0.23,1.27c0.17,0.49,0.84,1.05,1.53,0.85
		c0.36-0.11,0.71-0.25,1.01-0.46c0.48-0.33,0.98-0.63,1.48-0.93c0.63-0.37,1.26-0.74,1.84-1.19c0.44-0.34,0.89-1.13,0.77-1.57
		c-0.2-0.68-0.67-1.23-1.26-1.62C20.59,24.93,20.43,24.83,20.28,24.73z M18.98,27.9c0.65-0.38,1.29-0.76,1.81-1.29
		c0.11-0.11,0.16-0.19,0.02-0.31c-0.03-0.03-0.06-0.05-0.09-0.08c-0.23-0.21-0.47-0.42-0.78-0.55c-0.48-0.19-0.96-0.39-1.37-0.68
		c-0.4-0.28-0.85-0.47-1.3-0.67c-0.38-0.17-0.76-0.33-1.13-0.56c0,0.04,0,0.07,0,0.1c0,0.07,0,0.12,0.01,0.17
		c0.11,0.69,0.17,1.39,0.23,2.08c0.04,0.48,0.08,0.95,0.14,1.43c0.03,0.21,0.04,0.42,0.06,0.62c0.02,0.22,0.03,0.45,0.06,0.67
		c0.04,0.32,0.24,0.41,0.54,0.27c0.09-0.05,0.19-0.1,0.27-0.17C17.92,28.56,18.44,28.21,18.98,27.9z"/>
	<path class="st0" d="M24.82,12.23c0.39,0.05,0.73,0.3,0.95,0.71c0.3,0.55-0.06,1.12-0.69,1.1c-0.54-0.02-1.21-0.6-1.31-1.13
		C23.69,12.43,24.15,12.1,24.82,12.23z M23.54,10.81c-0.06,0.35-0.22,0.61-0.6,0.65c-0.37,0.04-0.55-0.19-0.67-0.51
		c-0.11-0.3-0.23-0.6-0.26-0.92c-0.03-0.34,0.1-0.63,0.37-0.84c0.19-0.14,0.4-0.13,0.61-0.02c0.11,0.06,0.21,0.13,0.25,0.23
		C23.41,9.86,23.61,10.31,23.54,10.81z M20.8,13.53c0.1-0.4,0.41-0.73,0.85-0.93c0.32-0.14,0.74-0.01,0.9,0.24
		c0.16,0.25,0.09,0.74-0.19,1.04c-0.19,0.2-0.42,0.37-0.68,0.49c-0.24,0.11-0.48,0.08-0.69-0.09C20.78,14.1,20.74,13.87,20.8,13.53z
		 M12.45,14.13c0.38,0.08,0.57,0.31,0.66,0.64c0.07,0.27,0.02,0.51-0.21,0.68c-0.28,0.21-0.57,0.2-0.86,0.02
		c-0.21-0.13-0.42-0.25-0.6-0.4c-0.24-0.2-0.22-0.52,0.04-0.68C11.79,14.21,12.13,14.13,12.45,14.13z M10.44,16.31
		c-0.06,0.42-0.79,0.97-1.19,0.88c-0.38-0.08-0.55-0.42-0.36-0.75c0.19-0.33,0.45-0.59,0.81-0.73
		C10.13,15.54,10.51,15.84,10.44,16.31z M10.4,14.02c-0.05,0.28-0.35,0.49-0.67,0.43c-0.41-0.07-0.69-0.33-0.85-0.69
		c-0.09-0.21-0.06-0.43,0.1-0.61c0.15-0.18,0.36-0.22,0.59-0.16C9.99,13.09,10.46,13.68,10.4,14.02z M28.71,31.86
		c-0.03,0.16-0.06,0.32-0.1,0.48c-0.03,0.12-0.06,0.24-0.13,0.33c-0.07,0.08-0.16,0.14-0.25,0.2c-0.22,0.14-0.41,0.31-0.58,0.52
		c-0.06,0.07-0.12,0.15-0.19,0.2c-0.07,0.04-0.15,0.06-0.23,0.08c-0.76,0.18-1.55,0.28-2.32,0.41c-1.11,0.18-2.22,0.36-3.34,0.44
		c-0.62,0.05-1.24,0.06-1.86,0.06c-2.9,0.05-5.82,0.09-8.73,0.11c-0.52,0-1.05,0.01-1.55-0.11s-1.01-0.35-1.33-0.75
		c-0.35-0.42-0.48-0.99-0.57-1.53c-0.34-1.98-0.36-4.01-0.38-6.03c-0.01-1.59-0.03-3.17-0.05-4.75c0-0.24,0-0.48,0.1-0.69
		c0.09-0.19,0.24-0.34,0.4-0.49c0.44-0.41,0.98-0.68,1.56-0.84c0.61-0.17,1.24-0.13,1.84-0.27c1.41-0.31,2.82-0.49,4.26-0.62
		c0.82-0.08,1.63-0.15,2.45-0.22c2.74-0.25,5.5-0.51,8.24-0.19c0.38,0.04,0.78,0.11,1.06,0.37c0.27,0.25,0.41,0.61,0.64,0.9
		c0.34,0.41,0.65,1.12,0.77,1.63c0.18,0.72,0.16,1.48,0.18,2.22C28.65,26.16,29.23,29.06,28.71,31.86z M30.14,31.6
		c0-0.13,0-0.27,0-0.4c0.01-0.88,0.1-1.73,0-2.62c-0.07-0.6-0.17-1.19-0.25-1.79c-0.11-0.84-0.16-1.7-0.21-2.55
		c-0.06-0.99-0.11-1.97-0.17-2.96c-0.06-0.97-0.33-1.97-0.76-2.85c-0.25-0.5-0.59-0.92-1.14-1.14c-0.7-0.29-1.42-0.49-2.19-0.52
		c-0.83-0.04-1.66-0.11-2.48,0.07c-0.86,0.19-1.73,0.17-2.59,0.24c-1.78,0.14-3.56,0.33-5.35,0.49c-1.13,0.1-2.25,0.33-3.39,0.41
		c-1.23,0.09-2.47,0.11-3.66,0.52c-1.05,0.35-1.73,1.01-1.98,2.09c-0.17,0.74,0.01,1.49-0.08,2.24c-0.03,0.27-0.06,0.56-0.05,0.84
		c0.07,0.88,0.13,1.76,0.04,2.66c-0.09,0.97-0.04,1.96,0.07,2.95c0.05,0.44,0.11,0.89,0.1,1.33c-0.04,1.26,0.26,2.44,0.75,3.58
		c0.09,0.22,0.22,0.41,0.42,0.53c0.21,0.14,0.34,0.35,0.52,0.51c0.44,0.42,0.93,0.79,1.59,0.82c0.74,0.05,1.48-0.12,2.22-0.04
		c0.51,0.05,1.02,0.03,1.53,0.03c0.7-0.01,1.4-0.08,2.1-0.06c0.77,0.03,1.53,0,2.3-0.03c0.87-0.02,1.74-0.06,2.61-0.06
		c0.79,0,1.59-0.03,2.37-0.14c0.89-0.13,1.81-0.14,2.7-0.29c0.73-0.12,1.48-0.08,2.2-0.33c0.23-0.08,0.4-0.27,0.65-0.3
		c0.9-0.09,1.38-0.75,1.77-1.44C30.07,32.83,30.12,32.22,30.14,31.6z"/>
</g>
</svg>
