<?xml version="1.0" encoding="utf-8"?>
<!-- Generator: Adobe Illustrator 16.0.0, SVG Export Plug-In . SVG Version: 6.00 Build 0)  -->
<!DOCTYPE svg PUBLIC "-//W3C//DTD SVG 1.1//EN" "http://www.w3.org/Graphics/SVG/1.1/DTD/svg11.dtd">
<svg version="1.1" id="圖層_1" xmlns="http://www.w3.org/2000/svg" xmlns:xlink="http://www.w3.org/1999/xlink" x="0px" y="0px"
	 width="42.52px" height="42.52px" viewBox="0 0 42.52 42.52" enable-background="new 0 0 42.52 42.52" xml:space="preserve">
<g>
	<path fill="#FFFFFF" d="M7.99,23.694c0.129-0.075,0.245-0.136,0.259-0.241c0.053-0.385,0.319-0.665,0.47-1.002
		c0.174-0.389,0.436-0.707,0.883-0.811c0.27-0.063,0.537-0.062,0.727,0.164c0.198,0.237,0.171,0.534,0.026,0.771
		c-0.423,0.69-0.88,1.35-1.617,1.768c-0.311,0.178-0.601,0.4-0.964,0.28c-0.498-0.163-0.97-0.402-1.308-0.819
		c-0.336-0.415-0.68-0.834-0.945-1.294c-0.266-0.459-0.422-0.979-0.463-1.518c-0.016-0.205,0.06-0.394,0.258-0.493
		c0.214-0.108,0.376,0.01,0.524,0.151c0.063,0.06,0.138,0.116,0.18,0.19c0.48,0.846,1.199,1.516,1.717,2.334
		C7.836,23.33,7.939,23.485,7.99,23.694z"/>
	<path fill="#FFFFFF" d="M23.125,33.006c-0.037,0.205,0.081,0.425,0.027,0.659c-0.088,0.387-0.311,0.606-0.711,0.665
		c-0.335,0.049-0.685-0.131-0.838-0.451c-0.19-0.396-0.227-0.822-0.146-1.248c0.08-0.42,0.527-0.729,0.952-0.691
		c0.393,0.035,0.682,0.362,0.715,0.813C23.13,32.828,23.125,32.905,23.125,33.006z"/>
	<path fill="#FFFFFF" d="M21.759,10.246c0.002,0.421-0.401,0.919-0.736,0.91c-0.459-0.013-0.777-0.464-0.776-1.104
		c0-0.41,0.294-0.728,0.677-0.734C21.341,9.312,21.757,9.774,21.759,10.246z"/>
	<g>
		<path fill="#FFFFFF" d="M36.893,21.151c-0.01,0.123-0.021,0.244-0.026,0.357c-0.018,0.418-0.097,0.827-0.13,1.244
			c-0.038,0.459-0.089,0.917-0.145,1.375c-0.118,0.956-0.361,1.877-0.712,2.777c-0.396,1.018-1.104,1.85-1.602,2.805
			c-0.261,0.501-0.628,0.918-0.966,1.359c-0.461,0.604-1.024,1.096-1.673,1.495c-0.277,0.171-0.528,0.386-0.793,0.577
			c-0.862,0.622-1.798,1.098-2.776,1.518c-0.637,0.273-1.223,0.697-1.896,0.861c-0.874,0.211-1.723,0.51-2.633,0.611
			c-1.262,0.142-2.509,0.104-3.75-0.078c-0.932-0.138-1.841-0.359-2.736-0.719c-1.454-0.585-2.763-1.402-4.049-2.257
			c-1.005-0.668-1.929-1.457-2.544-2.55c-0.268-0.475-0.596-0.914-0.795-1.428c-0.096-0.247-0.167-0.499-0.146-0.768
			c0.022-0.293,0.204-0.393,0.478-0.277c0.333,0.141,0.549,0.405,0.695,0.713c0.19,0.397,0.428,0.763,0.698,1.105
			c0.198,0.25,0.31,0.549,0.491,0.803c0.279,0.392,0.633,0.732,1.023,1.001c0.316,0.218,0.54,0.534,0.863,0.728
			c0.458,0.275,0.953,0.495,1.392,0.797c0.704,0.482,1.513,0.688,2.29,0.991c1.282,0.501,2.617,0.634,3.965,0.762
			c1.209,0.115,2.372-0.065,3.515-0.435c0.303-0.098,0.62-0.122,0.918-0.244c0.855-0.349,1.679-0.768,2.516-1.156
			c1.064-0.494,1.995-1.197,2.949-1.86c0.537-0.374,0.922-0.917,1.333-1.426c0.462-0.572,0.807-1.21,1.146-1.859
			c0.251-0.48,0.551-0.938,0.789-1.431c0.407-0.843,0.656-1.736,0.835-2.646c0.176-0.886,0.374-1.773,0.236-2.696
			c-0.121-0.81-0.26-1.614-0.47-2.404c-0.202-0.761-0.551-1.47-0.808-2.21c-0.397-1.152-1.109-2.114-1.771-3.115
			c-0.405-0.614-0.868-1.179-1.323-1.749c-0.308-0.386-0.74-0.673-1.122-0.999c-0.92-0.784-1.984-1.281-3.122-1.684
			c-1.227-0.435-2.471-0.775-3.746-1.021c-0.273-0.053-0.541,0.032-0.81,0.074c-0.75,0.118-1.508,0.061-2.261,0.064
			c-0.618,0.002-1.216,0.1-1.812,0.225c-0.837,0.175-1.629,0.511-2.386,0.882c-0.738,0.362-1.424,0.843-2.063,1.382
			c-0.533,0.449-0.999,0.967-1.514,1.428c-0.912,0.817-1.451,1.906-2.21,2.83c-0.482,0.587-0.8,1.259-1.052,1.949
			c-0.297,0.816-0.475,1.675-0.623,2.537c-0.12,0.696-0.206,1.395-0.285,2.096c-0.024,0.21-0.117,0.401-0.243,0.566
			c-0.162,0.213-0.405,0.216-0.59,0.018c-0.261-0.278-0.348-0.632-0.364-0.995c-0.027-0.602,0.112-1.191,0.172-1.786
			c0.073-0.722,0.308-1.385,0.554-2.044c0.189-0.507,0.465-0.984,0.734-1.457c0.264-0.463,0.416-0.977,0.714-1.427
			c0.681-1.03,1.206-2.165,2.146-3.017c0.605-0.549,1.116-1.197,1.77-1.698c1.016-0.778,2.026-1.597,3.253-1.983
			c0.746-0.235,1.443-0.612,2.217-0.75c0.544-0.097,1.079-0.258,1.638-0.258c0.339,0,0.685-0.056,1.024-0.075
			c0.37-0.021,0.752-0.052,1.118-0.015c0.188,0.019,0.383-0.004,0.572,0.008c0.193,0.013,0.385,0.036,0.576,0.064
			c0.417,0.063,0.828,0.158,1.24,0.248c1.076,0.236,2.137,0.55,3.129,1.036c0.597,0.292,1.186,0.604,1.775,0.914
			c0.543,0.285,1.088,0.556,1.564,0.947c0.942,0.774,1.803,1.615,2.443,2.67c0.276,0.455,0.677,0.832,0.934,1.302
			c0.406,0.746,0.878,1.453,1.15,2.274c0.22,0.663,0.506,1.302,0.645,1.993c0.118,0.59,0.256,1.177,0.337,1.774
			c0.036,0.269,0.05,0.54,0.097,0.805C36.917,20.772,36.907,20.963,36.893,21.151z"/>
		<path fill="#FFFFFF" d="M33.299,21.336c0.269,0.04,0.543,0.057,0.805,0.123c0.586,0.147,0.767,0.775,0.377,1.23
			c-0.354,0.412-1.351,0.677-1.955,0.106c-0.407-0.385-0.293-1.085,0.229-1.348C32.928,21.363,33.11,21.348,33.299,21.336z"/>
		<path fill="#FFFFFF" d="M28.948,24.606c0.009-0.621-0.123-1.252-0.058-1.864c0.102-0.945,0.105-1.892,0.15-2.837
			c0.033-0.665-0.052-1.335,0.021-1.999c0.134-1.227-0.483-2.06-1.4-2.73c-0.59-0.431-1.17-0.876-1.649-1.42
			c-0.532-0.604-1.207-0.909-1.954-1.07c-0.487-0.104-0.996-0.063-1.496-0.04c-0.325,0.016-0.651,0.037-0.978,0.056
			c-0.187-0.035-0.383-0.063-0.553,0.012c-0.385,0.17-0.792,0.141-1.193,0.168c-0.165,0.011-0.323,0.037-0.485,0.066
			c-0.622,0.111-1.244,0.3-1.859,0.352c-0.9,0.075-1.324,0.624-1.714,1.283c-0.139,0.235-0.214,0.497-0.217,0.781
			c-0.006,0.501-0.056,1.001-0.055,1.502c0.002,0.83-0.157,1.648-0.146,2.482c0.006,0.435,0.198,0.827,0.166,1.259
			c-0.068,0.903-0.104,1.807-0.104,2.715c0.001,1.034-0.114,2.068-0.154,3.104c-0.015,0.379,0.008,0.766,0.075,1.139
			c0.046,0.257,0.103,0.544,0.352,0.719c0.075,0.053,0.063,0.132,0.06,0.208c-0.016,0.318,0.152,0.525,0.389,0.714
			c0.358,0.286,0.781,0.251,1.189,0.272c0.595,0.033,1.199-0.014,1.787,0.066c0.71,0.098,1.416,0.045,2.123,0.051
			c0.711,0.005,1.41-0.146,2.123-0.156c0.738-0.012,1.475-0.117,2.213-0.173c0.488-0.037,0.98-0.101,1.467-0.071
			c0.318,0.02,0.586-0.02,0.824-0.215c0.094-0.078,0.169-0.114,0.29-0.069c0.247,0.092,0.443-0.015,0.622-0.183
			c0.321-0.299,0.338-0.695,0.347-1.09C29.149,26.622,28.935,25.622,28.948,24.606z M28.099,26.904
			c0.005,0.285-0.075,0.574-0.094,0.866c-0.017,0.241-0.142,0.342-0.444,0.325c-0.563-0.031-1.131,0.034-1.697,0.067
			c-1.566,0.092-3.132,0.184-4.697,0.285c-0.86,0.055-1.727-0.061-2.576,0.033c-0.658,0.073-1.146-0.281-1.712-0.43
			c-0.178-0.047-0.242-0.203-0.261-0.38c-0.052-0.5-0.113-0.998-0.13-1.501c-0.037-1.133-0.126-2.266-0.122-3.398
			c0.006-1.657-0.016-3.314,0.232-4.965c0.121-0.802,0.061-1.631,0.081-2.448c0.002-0.065-0.013-0.132-0.008-0.196
			c0.043-0.602-0.052-0.689,0.699-0.786c1.004-0.128,2-0.341,2.991-0.554c0.616-0.132,1.238-0.07,1.853-0.137
			c0.69-0.075,1.388,0.076,2.079-0.085c0.242-0.057,0.51,0.014,0.688,0.229c0.35,0.425,0.923,0.574,1.254,1.016
			c0.371,0.495,0.893,0.836,1.3,1.292l0,0c0.075,0.048,0.187,0.076,0.153,0.196c-0.008,0.03-0.072,0.012-0.1-0.027
			c-0.65-0.145-1.305-0.1-1.957-0.029c-0.427,0.046-0.427,0.04-0.46-0.376c-0.037-0.468-0.104-0.935-0.192-1.396
			c-0.042-0.217-0.131-0.518-0.414-0.456c-0.309,0.067-0.178,0.355-0.152,0.578c0.053,0.454,0.122,0.911,0.117,1.366
			c-0.009,0.9,0.436,1.405,1.335,1.344c0.653-0.044,1.31,0.049,1.99-0.077c0.009,0.483,0.022,0.983-0.036,1.454
			c-0.101,0.808,0.064,1.589,0.085,2.382c0.017,0.642,0.028,1.285,0.089,1.927c0.06,0.628-0.039,1.28,0.079,1.893
			C28.201,25.59,28.086,26.243,28.099,26.904z"/>
	</g>
	<path fill="#FFFFFF" d="M27.588,16.306c0.027,0.04,0.092,0.058,0.1,0.027c0.033-0.121-0.078-0.148-0.153-0.196
		C27.548,16.196,27.637,16.229,27.588,16.306z"/>
	<path fill="#FFFFFF" d="M25.098,21.584c-0.339,0.023-0.672-0.039-1.01-0.001c-0.52,0.058-1.043,0.077-1.588,0.114
		c-0.084-0.088-0.404,0.174-0.331-0.182c0.085-0.413,0.056-0.824,0.077-1.236c0.049-0.975-0.037-1.937-0.182-2.896
		c-0.029-0.195-0.102-0.38-0.206-0.549c-0.142-0.229-0.321-0.387-0.613-0.353c-0.289,0.034-0.456,0.221-0.521,0.479
		c-0.159,0.628-0.215,1.271-0.135,1.916c0.027,0.219,0.036,0.433,0.026,0.651c-0.041,0.903-0.121,1.803-0.196,2.703
		c-0.043,0.517,0.361,1.012,0.816,1.021c0.413,0.009,0.82,0.078,1.241,0.031c0.43-0.048,0.867-0.03,1.307-0.001
		c0.517,0.034,1.05,0.046,1.553-0.142c0.377-0.142,0.543-0.436,0.479-0.827C25.746,21.887,25.467,21.558,25.098,21.584z"/>
</g>
</svg>
