<?xml version="1.0" encoding="utf-8"?>
<!-- Generator: Adobe Illustrator 26.0.3, SVG Export Plug-In . SVG Version: 6.00 Build 0)  -->
<svg version="1.1" id="图层_1" xmlns="http://www.w3.org/2000/svg" xmlns:xlink="http://www.w3.org/1999/xlink" x="0px" y="0px"
	 viewBox="0 0 42.52 42.52" style="enable-background:new 0 0 42.52 42.52;" xml:space="preserve">
<style type="text/css">
	.st0{fill:#FFEBCA;}
	.st1{fill-rule:evenodd;clip-rule:evenodd;fill:#FFEBCA;}
</style>
<g>
	<path class="st0" d="M12.3,31.22c-0.05-0.5-0.05-1.01-0.06-1.51c-0.01-0.48-0.01-0.96-0.06-1.44c-0.02-0.18-0.03-0.37-0.05-0.55
		c-0.04-0.42-0.08-0.84-0.1-1.26c-0.02-0.69-0.02-1.38-0.03-2.07c0-0.69,0-1.38-0.02-2.07c-0.04-1.31-0.11-2.63-0.18-3.94
		c-0.02-0.44-0.05-0.88-0.07-1.32c-0.01-0.21-0.05-0.41-0.1-0.62c-0.01-0.04-0.01-0.07-0.02-0.11c-0.03-0.14-0.11-0.26-0.27-0.24
		c-0.15,0.01-0.24,0.12-0.27,0.26c0,0.02-0.01,0.03-0.01,0.05c-0.01,0.06-0.02,0.12-0.03,0.19c-0.03,0.99-0.05,1.97-0.07,2.96
		c-0.01,0.39,0,0.79,0,1.18c0,0.54,0,1.07-0.01,1.61c-0.01,0.16-0.01,0.32-0.02,0.48c-0.03,0.97-0.07,1.94-0.05,2.91
		c0.01,0.47,0.03,0.94,0.05,1.41c0.03,0.64,0.06,1.28,0.06,1.91c0,0.89,0.05,1.77,0.11,2.65c0.05,0.67,0.07,1.35,0.06,2.02
		c0,0.43,0.12,0.67,0.46,0.73c0.35,0.06,0.72-0.21,0.8-0.62c0-0.03,0.01-0.11,0.01-0.19c-0.01-0.22-0.02-0.44-0.03-0.66
		C12.37,32.39,12.35,31.81,12.3,31.22z M19.98,29.72c-0.3-0.06-0.61-0.09-0.92-0.12c-0.08-0.01-0.17-0.02-0.25-0.03
		c-0.2-0.02-0.29-0.11-0.3-0.32c-0.08-0.9-0.05-1.8,0.05-2.71c0.07-0.62,0.06-1.25,0.04-1.87c0-0.23,0.07-0.28,0.26-0.26
		c0.09,0.01,0.18,0.02,0.27,0.03c0.21,0.02,0.42,0.04,0.63,0.05c0.14,0.01,0.16,0.07,0.17,0.18c0.21,1.27,0.42,2.54,0.47,3.82
		c0,0.15,0.01,0.3,0.01,0.45c0,0.15,0.01,0.3,0.01,0.45C20.37,29.66,20.26,29.77,19.98,29.72z M21.32,25.53c0-0.03,0-0.06,0-0.08
		c0-0.02,0-0.04,0-0.07c-0.01-0.45-0.01-0.91-0.12-1.35c-0.08-0.31-0.26-0.49-0.57-0.54c-0.61-0.1-1.23-0.1-1.84,0.03
		c-1.03,0.22-1.22,0.26-1.45,1.42c-0.13,0.67-0.14,1.38-0.05,2.08c0.06,0.44,0.08,0.88,0.11,1.32c0.01,0.17,0.02,0.34,0.03,0.51
		c0.01,0.1,0.01,0.21,0,0.31c-0.01,0.29-0.01,0.59,0.18,0.86c0.29,0.42,0.68,0.64,1.2,0.71c0.22,0.09,0.46,0.07,0.7,0.04
		c0.14-0.01,0.29-0.03,0.43-0.02c0.63,0.04,1.26-0.39,1.42-0.99c0.18-0.67,0.15-1.35,0.11-2.03c0-0.01,0-0.02,0-0.03
		c-0.02-0.3-0.04-0.59-0.07-0.89C21.36,26.39,21.33,25.96,21.32,25.53z M18.45,19.65c0.09-0.49,0.44-0.63,1.22-0.48
		c0.32,0.06,0.53,0.45,0.46,0.81c-0.08,0.41-0.59,0.8-0.94,0.74C18.57,20.6,18.34,20.26,18.45,19.65z M19.83,21.74
		c0.69-0.36,1.11-0.93,1.26-1.69c0.09-0.43,0.06-0.55-0.01-0.79c-0.33-1.16-2.22-1.28-2.93-0.73c-0.57,0.45-0.9,1.58-0.64,2.26
		c0.08,0.21,0.22,0.35,0.37,0.49c0.05,0.05,0.1,0.1,0.15,0.15C18.4,21.85,19.33,22.01,19.83,21.74z"/>
	<path class="st1" d="M34.14,28.34c-0.02-0.66-0.08-1.32-0.15-1.98c-0.04-0.38-0.07-0.75-0.1-1.13c-0.02-0.27-0.05-0.53-0.08-0.8
		c-0.06-0.53-0.11-1.07-0.1-1.61c0.02-0.76,0-1.52-0.02-2.28c-0.01-0.19-0.01-0.38-0.02-0.57c-0.01-0.28-0.03-0.57-0.05-0.85
		c-0.04-0.43-0.07-0.86-0.05-1.29c0.03-0.54,0.04-1.07,0.04-1.6c0-0.17-0.01-0.34-0.03-0.5c-0.02-0.21-0.03-0.42-0.02-0.64
		c0.03-0.61,0-1.23-0.05-1.84c-0.01-0.18-0.04-0.36-0.07-0.54c-0.04-0.3-0.09-0.6-0.07-0.89c0.02-0.37-0.08-0.69-0.25-0.98
		c-0.36-0.59-0.91-1-1.46-1.41c-0.08-0.06-0.17-0.13-0.25-0.19c-0.58-0.44-1.24-0.78-1.89-1.12l-0.08-0.04
		c-0.35-0.19-0.77-0.3-1.17-0.17c-0.26,0.08-0.53,0.12-0.8,0.13c-0.28,0.02-0.56,0.03-0.84,0.05c-0.78,0.04-1.56,0.09-2.34,0.19
		c-0.14,0.02-0.19-0.03-0.19-0.19c0.03-0.91-0.26-1.72-0.76-2.46c-0.23-0.34-0.61-0.47-0.98-0.29c-0.76,0.35-1.52,0.71-2.24,1.15
		c-0.17,0.1-0.34,0.19-0.51,0.28C19.41,6.89,19.18,7,18.97,7.14c-0.37,0.24-0.77,0.44-1.16,0.64c-0.36,0.18-0.73,0.37-1.08,0.58
		c-0.07,0.04-0.14,0.09-0.2,0.14c-0.19,0.13-0.39,0.27-0.62,0.31C15.35,8.9,14.78,8.97,14.21,9L14.12,9
		c-0.57,0.03-1.13,0.07-1.64,0.38c-0.26,0.16-0.4,0.35-0.39,0.65c0,0.04,0,0.08,0,0.12c0.01,0.14,0.01,0.28,0.03,0.42
		c0.02,0.14-0.03,0.25-0.14,0.27c-0.34,0.07-0.62,0.26-0.9,0.44c-0.12,0.08-0.25,0.16-0.37,0.23c-0.16,0.09-0.32,0.16-0.48,0.24
		c-0.33,0.16-0.67,0.32-0.96,0.55l-0.03,0.02c-0.18,0.14-0.37,0.28-0.4,0.52c-0.01,0.09-0.02,0.19-0.04,0.28
		c-0.08,0.6-0.16,1.21-0.19,1.82c-0.01,0.27-0.03,0.54-0.04,0.81c-0.05,0.94-0.1,1.88-0.09,2.82c0.01,0.28,0,0.57-0.01,0.85
		c-0.01,0.38-0.02,0.75,0,1.12c0.04,0.92,0.02,1.84-0.05,2.75c-0.09,1.2-0.09,2.39-0.05,3.59c0.02,0.62,0.01,1.24,0,1.85
		c-0.01,0.54-0.02,1.07-0.01,1.61c0.03,1.58,0.12,3.15,0.4,4.71c0.18,1,0.7,1.7,1.67,2.04c0.2,0.04,0.41,0.08,0.61,0.12l0.12,0.02
		c0.23-0.02,0.46-0.01,0.7,0c0.27,0.01,0.54,0.02,0.82-0.01c0.36-0.04,0.72-0.07,1.07-0.1c0.46-0.04,0.91-0.08,1.36-0.14
		c0.38-0.05,0.76-0.06,1.14-0.08c0.36-0.01,0.71-0.03,1.07-0.07c0.54-0.07,1.09-0.1,1.63-0.13c0.41-0.02,0.83-0.05,1.24-0.09
		c0.67-0.06,1.35-0.07,2.03-0.08c0.66-0.01,1.33-0.02,1.99-0.08c1.23-0.1,2.46-0.06,3.68,0.16c0.53,0.09,0.89-0.23,0.94-0.76
		c0.05-0.57,0.06-1.14,0.03-1.71c-0.01-0.15,0.02-0.22,0.19-0.22c1.01,0,2.01-0.13,3.01-0.26c0.3-0.04,0.61-0.13,0.84-0.32
		c0.18-0.15,0.32-0.25,0.58-0.24c0.29,0.01,0.48-0.18,0.55-0.46c0.04-0.17,0.06-0.36,0.08-0.54c0.1-1.23,0.06-2.46,0.02-3.7
		L34.14,28.34z M23.62,35.37c1.16-0.15,2.32-0.23,3.48-0.11c0.19,0.02,0.21-0.05,0.24-0.21c0.08-0.44,0.04-0.87,0-1.31
		c-0.02-0.23-0.04-0.47-0.04-0.7c-0.01-0.3,0-0.6,0-0.91c0-0.49,0-0.98-0.02-1.47c-0.01-0.32,0-0.64,0-0.96
		c0.01-0.43,0.02-0.86-0.01-1.28c-0.07-1.01-0.04-2.03-0.01-3.04c0.01-0.37,0.02-0.75,0.03-1.12c0-0.3,0-0.61,0-0.91
		c0-0.43-0.01-0.86,0.01-1.3c0.04-0.91-0.03-1.84-0.09-2.75v0c-0.01-0.15-0.02-0.31-0.03-0.46c-0.08-1.33-0.26-2.64-0.44-3.95
		c-0.05-0.34-0.09-0.68-0.14-1.02c-0.02-0.19-0.09-0.3-0.3-0.32c-0.6-0.07-1.18,0.01-1.75,0.2c-0.32,0.1-0.64,0.2-0.99,0.19
		c-0.65-0.01-1.29,0.05-1.93,0.1c-0.24,0.02-0.47,0.04-0.71,0.06c-0.19,0.01-0.38,0.03-0.58,0.04c-0.66,0.05-1.31,0.1-1.97,0.1
		c-0.45,0-0.89-0.01-1.34-0.03c-0.85-0.02-1.7-0.05-2.56,0c-0.07,0-0.13,0-0.2-0.01c-0.12-0.01-0.24-0.03-0.36,0.03
		c-0.28,0.12-0.57,0.16-0.87,0.2c-0.13,0.02-0.25,0.03-0.38,0.06c-0.29,0.05-0.58,0.05-0.87,0.04c-0.28-0.01-0.56-0.01-0.84,0.04
		c-0.4,0.07-0.75,0.02-1.08-0.21c-0.01,0-0.01-0.01-0.02-0.01c-0.05-0.03-0.1-0.07-0.16-0.04c-0.08,0.04-0.06,0.11-0.05,0.17
		c0,0.01,0.01,0.03,0.01,0.04c0.1,0.51,0.05,1.02,0,1.53c-0.02,0.23-0.04,0.46-0.05,0.68c-0.04,1-0.06,1.99-0.05,2.98
		c0,0.26,0.01,0.52,0.02,0.78c0.01,0.5,0.03,1,0.01,1.5c-0.02,0.53-0.07,1.06-0.12,1.59c-0.09,0.95-0.17,1.9-0.12,2.86
		c0.04,0.78,0.03,1.56,0.01,2.35c-0.01,0.4-0.02,0.8-0.02,1.21c0,0.76,0.02,1.52,0.11,2.28c0.06,0.43,0.13,0.87,0.2,1.3
		c0.06,0.35,0.12,0.7,0.17,1.05c0.06,0.4,0.19,0.71,0.54,0.95c0.16,0.11,0.33,0.14,0.5,0.18c0.07,0.01,0.13,0.03,0.19,0.04
		c0.3,0.09,0.59,0.09,0.9,0.07c0.26-0.02,0.52-0.02,0.77-0.03c0.38-0.01,0.76-0.01,1.14-0.06c0.22-0.03,0.45-0.02,0.67-0.01
		c0.24,0.01,0.49,0.02,0.73-0.02c0.32-0.06,0.64-0.07,0.97-0.08c0.14,0,0.27-0.01,0.41-0.01c0.95-0.03,1.9-0.05,2.85-0.12l0.24-0.02
		c1.03-0.07,2.05-0.15,3.08-0.14c0.09,0,0.17,0,0.26,0.01C23.26,35.39,23.44,35.4,23.62,35.37z M12.23,29.71
		c-0.01-0.48-0.01-0.96-0.06-1.44c-0.02-0.18-0.03-0.37-0.05-0.55c-0.04-0.42-0.08-0.84-0.1-1.26c-0.02-0.69-0.02-1.38-0.03-2.07
		c0-0.69,0-1.38-0.02-2.07c-0.04-1.31-0.11-2.63-0.18-3.94c-0.02-0.44-0.05-0.88-0.07-1.32c-0.01-0.21-0.05-0.41-0.1-0.62
		c-0.01-0.04-0.01-0.07-0.02-0.11c-0.03-0.14-0.11-0.26-0.27-0.24c-0.15,0.01-0.24,0.12-0.27,0.26c0,0.02-0.01,0.03-0.01,0.05
		c-0.01,0.06-0.02,0.12-0.03,0.19c-0.03,0.99-0.05,1.97-0.07,2.96c-0.01,0.39,0,0.79,0,1.18c0,0.54,0,1.07-0.01,1.61
		c-0.01,0.16-0.01,0.32-0.02,0.48c-0.03,0.97-0.07,1.94-0.05,2.91c0.01,0.47,0.03,0.94,0.05,1.41c0.03,0.64,0.06,1.28,0.06,1.91
		c0,0.89,0.05,1.77,0.11,2.65c0.05,0.67,0.07,1.35,0.06,2.02c0,0.43,0.12,0.67,0.46,0.73c0.35,0.06,0.72-0.21,0.8-0.62
		c0-0.03,0.01-0.11,0.01-0.19c-0.01-0.22-0.02-0.44-0.03-0.66c-0.02-0.58-0.05-1.17-0.1-1.75C12.25,30.72,12.24,30.21,12.23,29.71z
		 M21.32,25.38c-0.01-0.45-0.01-0.91-0.12-1.35c-0.08-0.31-0.26-0.49-0.57-0.54c-0.61-0.1-1.23-0.1-1.84,0.03
		c-1.03,0.22-1.22,0.26-1.45,1.42c-0.13,0.67-0.14,1.38-0.05,2.08c0.06,0.44,0.08,0.88,0.11,1.32c0.01,0.17,0.02,0.34,0.03,0.51
		c0.01,0.1,0.01,0.21,0,0.31c-0.01,0.29-0.01,0.59,0.18,0.86c0.29,0.42,0.68,0.64,1.2,0.71c0.22,0.09,0.46,0.07,0.7,0.04
		c0.14-0.01,0.29-0.03,0.43-0.02c0.63,0.04,1.26-0.39,1.42-0.99c0.18-0.67,0.15-1.35,0.11-2.03l0-0.03
		c-0.02-0.3-0.04-0.59-0.07-0.89c-0.04-0.43-0.08-0.86-0.08-1.29l0-0.08L21.32,25.38z M19.83,21.74c0.69-0.36,1.11-0.93,1.26-1.69
		c0.09-0.43,0.06-0.55-0.01-0.79c-0.33-1.16-2.22-1.28-2.93-0.73c-0.57,0.45-0.9,1.58-0.64,2.26c0.08,0.21,0.22,0.35,0.37,0.49
		c0.05,0.05,0.1,0.1,0.15,0.15C18.4,21.85,19.33,22.01,19.83,21.74z M30.58,32.24c-0.48,0.05-0.96,0.09-1.44,0.11
		c-0.23,0.01-0.29-0.04-0.31-0.28c-0.04-0.69-0.02-1.38-0.01-2.07c0.01-0.48,0.02-0.95,0.01-1.43c0-0.27-0.02-0.54-0.04-0.81
		c-0.02-0.3-0.04-0.6-0.04-0.9c0-1.59-0.17-3.17-0.33-4.74l-0.01-0.08c-0.1-0.95-0.14-1.9-0.19-2.84c-0.02-0.5-0.05-1-0.08-1.51
		c-0.02-0.28-0.06-0.55-0.11-0.82c-0.05-0.32-0.11-0.65-0.11-0.98c-0.01-0.18-0.02-0.35-0.05-0.53c-0.03-0.22-0.05-0.45-0.05-0.67
		c0.01-0.28-0.05-0.55-0.11-0.81c-0.03-0.14-0.06-0.27-0.08-0.41c-0.09-0.57-0.38-0.74-0.95-0.85c-0.63-0.12-1.25-0.06-1.86,0.01
		c-0.14,0.02-0.29,0.03-0.43,0.05c-0.53,0.05-1.06,0.06-1.59,0.06c-0.14,0-0.28,0-0.42,0.01c-0.34,0.01-0.69,0.05-1.03,0.09
		c-0.15,0.02-0.29,0.03-0.44,0.05c-0.5,0.05-1,0.06-1.51,0.08c-0.28,0.01-0.56,0.02-0.84,0.03c-0.49,0.03-0.97,0.01-1.46,0
		c-0.49-0.01-0.97-0.03-1.46,0c-0.57,0.03-1.14,0.08-1.7,0.16c-0.22,0.03-0.31,0-0.32-0.23c-0.03-0.86-0.08-1.72-0.12-2.58
		c-0.01-0.19,0.12-0.19,0.23-0.19c0.02,0,0.03,0,0.05,0c0.26-0.01,0.53-0.01,0.79-0.02c0.33-0.01,0.66-0.01,0.99-0.03
		c0.65-0.02,1.29-0.06,1.94-0.09c0.6-0.03,1.2-0.08,1.81-0.13c0.94-0.07,1.88-0.15,2.83-0.17c0.62-0.02,1.25-0.07,1.87-0.11
		c0.49-0.04,0.99-0.07,1.48-0.1c0.11-0.01,0.22-0.02,0.33-0.02c0.28-0.03,0.56-0.05,0.85,0c0.2,0.04,0.4-0.04,0.59-0.11
		c0.26-0.09,0.51-0.13,0.79-0.12c0.53,0.03,0.55,0.03,0.56,0.55c0.01,0.42,0.08,0.83,0.15,1.25c0.06,0.34,0.11,0.67,0.14,1.01
		c0.02,0.23,0.19,0.29,0.39,0.28c0.73-0.03,1.45-0.02,2.18,0c0.15,0,0.29,0.01,0.43,0.01c0.46,0.01,0.46,0.01,0.46,0.43l0,0.05
		c-0.01,0.26,0.01,0.51,0.03,0.77c0.02,0.26,0.03,0.52,0.03,0.77c-0.02,0.6,0.05,1.18,0.11,1.77c0.06,0.58,0.12,1.16,0.11,1.75
		c0,0.14-0.01,0.28-0.01,0.42c-0.01,0.18-0.01,0.37-0.02,0.55c-0.01,0.75,0.01,1.51,0.04,2.26c0.03,0.89,0.06,1.79,0.03,2.68
		c-0.03,1.07-0.01,2.14,0.07,3.22c0.07,0.86,0.05,1.74,0.04,2.6c0,0.26,0,0.51,0.01,0.77c0.01,0.45,0.01,0.9-0.02,1.35
		c0,0.06-0.01,0.11-0.01,0.15c0,0.01,0,0.01-0.01,0.02l-0.01,0.03c-0.02,0.09-0.04,0.17-0.17,0.17
		C31.89,32.11,31.23,32.18,30.58,32.24z M22.14,6.47C21.1,7.02,20.08,7.6,19.06,8.2c-0.08,0.04-0.16,0.08-0.25,0.11
		c-0.18,0.07-0.36,0.14-0.52,0.33c0.92-0.05,1.82-0.1,2.72-0.16c0.64-0.04,1.29-0.07,1.93-0.11c-0.09-0.62-0.26-1.2-0.47-1.76
		C22.41,6.41,22.35,6.36,22.14,6.47z M10.05,12.93c0.43-0.15,0.84-0.36,1.24-0.58c0.26-0.13,0.51-0.27,0.77-0.39
		c0.08,0.27,0.07,0.54,0.06,0.8c-0.01,0.18-0.02,0.36,0,0.53c0.02,0.13-0.08,0.14-0.16,0.14l-0.02,0c-0.35,0.03-0.71,0.06-1.06,0.08
		c-0.31,0.02-0.53-0.15-0.75-0.32c-0.03-0.02-0.06-0.04-0.09-0.06C10,13.08,9.9,12.99,10.05,12.93z M31.16,11.25
		c0.23,0,0.47-0.01,0.72-0.08c-0.8-0.64-1.61-1.13-2.5-1.62c0.18,0.62,0.28,1.19,0.25,1.77c-0.01,0.21,0.12,0.16,0.21,0.12l0,0
		c0.14-0.05,0.28-0.06,0.42-0.08c0.11-0.01,0.23-0.03,0.33-0.06C30.79,11.26,30.97,11.26,31.16,11.25z M18.45,19.65
		c0.09-0.49,0.44-0.63,1.22-0.48c0.32,0.06,0.53,0.45,0.46,0.81c-0.08,0.41-0.59,0.8-0.94,0.74C18.57,20.6,18.34,20.26,18.45,19.65z
		 M19.06,29.6c0.31,0.03,0.61,0.06,0.92,0.12c0.29,0.05,0.4-0.06,0.45-0.32c0-0.15-0.01-0.3-0.01-0.45c0-0.15-0.01-0.3-0.01-0.45
		c-0.04-1.29-0.26-2.56-0.47-3.82c-0.02-0.11-0.03-0.17-0.17-0.18c-0.21-0.01-0.42-0.03-0.63-0.05c-0.09-0.01-0.18-0.02-0.27-0.03
		c-0.19-0.02-0.27,0.02-0.26,0.26c0.01,0.62,0.03,1.26-0.04,1.87c-0.1,0.91-0.12,1.81-0.05,2.71c0.02,0.21,0.11,0.3,0.3,0.32
		C18.89,29.59,18.97,29.6,19.06,29.6z"/>
</g>
</svg>
