<?xml version="1.0" encoding="utf-8"?>
<!-- Generator: Adobe Illustrator 16.0.0, SVG Export Plug-In . SVG Version: 6.00 Build 0)  -->
<!DOCTYPE svg PUBLIC "-//W3C//DTD SVG 1.1//EN" "http://www.w3.org/Graphics/SVG/1.1/DTD/svg11.dtd">
<svg version="1.1" id="圖層_1" xmlns="http://www.w3.org/2000/svg" xmlns:xlink="http://www.w3.org/1999/xlink" x="0px" y="0px"
	 width="42.52px" height="42.52px" viewBox="-1.417 -2.835 42.52 42.52" enable-background="new -1.417 -2.835 42.52 42.52"
	 xml:space="preserve">
<g>
	<path fill="#FFFFFF" d="M38.909,9.247c-0.053-0.061-0.102-0.125-0.152-0.188c-0.283-0.159-0.414-0.342-0.33-0.716
		c0.307-1.349,0.049-1.789-1.246-2.29c-0.654-0.253-1.207-0.015-1.51,0.621c-0.092,0.194-0.01,0.504-0.203,0.572
		c-0.191,0.067-0.445-0.037-0.672-0.067c-0.041-0.005-0.08-0.016-0.121-0.017c-0.666-0.015-0.9,0.23-0.887,0.916
		c0.002,0.076-0.031,0.155-0.055,0.232c-0.129,0.467-0.309,0.927-0.379,1.403c-0.15,0.996-0.555,1.915-0.82,2.875
		c-0.322,1.171-0.619,2.346-0.887,3.53c-0.313,1.38-0.621,2.76-0.941,4.14c-0.25,1.076-0.459,2.162-0.766,3.227
		c-0.209,0.726-0.375,1.463-0.541,2.199c-0.057,0.258-0.164,0.273-0.355,0.152c-0.217-0.14-0.438-0.262-0.695-0.324
		c-1.072-0.254-2.131-0.549-3.238-0.674c-1.357-0.154-2.701-0.465-4.084-0.262c-0.158,0.021-0.328,0.02-0.484-0.011
		c-1.14-0.213-2.279-0.1-3.417,0.013c-0.884,0.088-1.764,0.207-2.641,0.364c-1.245,0.226-2.5,0.406-3.639,1.002
		c-0.209,0.111-0.311,0.127-0.391-0.149c-0.199-0.688-0.306-1.398-0.53-2.08c-0.211-0.639-0.357-1.299-0.52-1.953
		c-0.283-1.152-0.56-2.305-0.834-3.459c-0.223-0.943-0.422-1.893-0.663-2.832c-0.149-0.585-0.229-1.192-0.493-1.747
		c-0.395-1.672-1.076-3.265-1.426-5.006c0.598,0.238,0.99-0.167,1.443-0.333c0.963-0.354,1.908-0.759,2.88-1.088
		c1.049-0.355,2.146-0.528,3.243-0.674c1.279-0.171,2.521-0.535,3.813-0.667c1.871-0.192,3.734-0.077,5.587,0.075
		c1.5,0.124,2.979,0.509,4.475,0.728c1.703,0.249,3.273,0.885,4.855,1.509c0.313,0.123,0.602,0.315,0.945,0.353
		c0.15,0.017,0.316,0.006,0.387-0.154c0.063-0.146-0.045-0.26-0.143-0.353c-0.178-0.165-0.379-0.295-0.594-0.416
		c-0.877-0.494-1.826-0.812-2.756-1.179c-0.438-0.133-0.869-0.286-1.313-0.395c-1.652-0.403-3.309-0.779-4.992-1.039
		c-1.074-0.166-2.152-0.227-3.229-0.26c-0.833-0.027-1.673,0.083-2.509,0.143c-0.856,0.062-1.724,0.079-2.569,0.219
		c-1.758,0.292-3.5,0.672-5.199,1.218c-1.505,0.483-3,0.995-4.289,1.956c-0.082-0.068-0.09-0.165-0.11-0.257
		c-0.135-0.614-0.456-0.83-1.08-0.731C4.687,7.395,4.533,7.394,4.394,7.44C4.157,7.517,4.073,7.464,4.029,7.203
		C3.935,6.642,3.515,6.189,3.068,6.185c-0.627-0.005-1.189,0.2-1.625,0.68C1.415,6.894,1.386,6.924,1.358,6.952
		c-0.111,0.05-0.146,0.15-0.175,0.257c-0.109,0.414-0.142,0.835-0.01,1.242C1.29,8.815,1.258,9.1,0.914,9.319
		c-0.1,0.064-0.188,0.16-0.253,0.261c-0.175,0.27-0.384,0.538-0.277,0.892c0.199,0.673,0.414,1.342,0.615,2.015
		c0.331,1.1,0.681,2.194,0.977,3.303c0.335,1.252,0.626,2.515,0.925,3.774c0.292,1.236,0.587,2.472,0.85,3.713
		c0.307,1.451,0.435,2.935,0.808,4.375c0.274,1.063,0.782,1.836,1.95,1.986c0.178,0.023,0.248,0.084,0.268,0.271
		c0.113,1.041,0.378,1.352,1.415,1.434c0.67,0.053,1.362-0.18,1.498-0.756c0.206-0.32,0.238-0.688,0.249-1.047
		c0.017-0.584,0.024-1.148,0.633-1.48c0.146-0.08,0.192-0.264,0.189-0.43c-0.004-0.188-0.023-0.377-0.055-0.563
		c-0.034-0.215-0.027-0.344,0.258-0.369c0.441-0.041,0.881-0.127,1.314-0.227c1.264-0.291,2.543-0.477,3.831-0.619
		c1.016-0.113,2.036-0.176,3.054-0.258c0.85-0.07,1.687,0.055,2.535,0.02c0.693-0.028,1.395,0.121,2.09,0.189
		c0.656,0.066,1.326,0.072,1.971,0.211c1.004,0.215,2.016,0.381,3.025,0.555c0.281,0.048,0.367,0.132,0.332,0.396
		c-0.088,0.66,0.176,1.182,0.654,1.617c0.18,0.164,0.236,0.356,0.215,0.614c-0.092,1.084,0.285,1.675,1.289,1.957
		c0.984,0.277,1.844-0.27,1.863-1.291c0.004-0.258,0.063-0.381,0.344-0.424c0.781-0.117,1.336-0.533,1.625-1.293
		c0.199-0.521,0.34-1.055,0.43-1.6c0.197-1.197,0.32-2.41,0.568-3.596c0.521-2.498,1.068-4.991,1.674-7.469
		c0.41-1.678,0.916-3.333,1.424-4.984C39.358,9.984,39.231,9.612,38.909,9.247z M1.778,7.721C1.85,7.469,2.115,7.394,2.261,7.211
		C2.262,7.21,2.264,7.21,2.266,7.209c0.085-0.033,0.182-0.053,0.251-0.106c0.174-0.138,0.346-0.273,0.579-0.147
		c0.263,0.142,0.279,0.443,0.409,0.673c0.039,0.07-0.047,0.104-0.106,0.138c-0.398,0.221-0.84,0.352-1.22,0.612
		c-0.118,0.08-0.223,0.043-0.26-0.126C1.882,8.083,1.816,7.921,1.763,7.756C1.765,7.742,1.774,7.734,1.778,7.721z M8.507,30.224
		c-0.059,0.029-0.114,0.062-0.182,0.074c-0.099,0.021-0.201,0.018-0.3,0.002c-0.137-0.023-0.275-0.027-0.403-0.092
		c-0.142-0.07-0.213-0.207-0.235-0.359c-0.019-0.119-0.041-0.244,0.103-0.25c0.422-0.012,0.781-0.285,1.211-0.27
		c0.131,0.004,0.193,0.012,0.224,0.149c0.029,0.135,0.04,0.285-0.017,0.416c-0.056,0.133-0.183,0.238-0.315,0.289
		C8.562,30.197,8.534,30.21,8.507,30.224z M9.451,27.431c-0.759,0.42-1.587,0.65-2.412,0.873c-0.41,0.111-0.856,0.066-1.289,0.033
		C5.717,28.3,5.697,28.259,5.667,28.22c-0.345-0.436-0.438-0.98-0.511-1.494c-0.386-2.699-1.006-5.35-1.608-8.006
		c-0.562-2.466-1.361-4.855-2.152-7.25c-0.103-0.305-0.25-0.597-0.393-0.887c-0.085-0.172-0.071-0.268,0.093-0.401
		C1.642,9.73,2.259,9.408,2.924,9.183c0.562-0.189,1.137-0.343,1.707-0.51c0.278-0.082,0.429,0.02,0.484,0.312
		c0.119,0.612,0.254,1.222,0.384,1.833c0.008,0.032,0.015,0.065,0.021,0.099c0.278,0.926,0.558,1.853,0.833,2.779
		c0.372,1.256,0.556,2.558,0.915,3.813c0.658,2.309,1.154,4.657,1.801,6.969c0.238,0.849,0.514,1.703,0.583,2.601
		C9.665,27.271,9.626,27.333,9.451,27.431z M36.198,7.214c0.125-0.245,0.199-0.5,0.574-0.539c0.332,0.229,0.799,0.346,1.029,0.739
		c0.125,0.213-0.029,0.521-0.158,0.712c-0.117,0.172-0.299-0.06-0.447-0.124c-0.283-0.123-0.557-0.267-0.844-0.381
		C36.141,7.534,36.077,7.451,36.198,7.214z M32.542,29.597c-0.059,0.189-0.078,0.418-0.303,0.494c-0.371,0.127-0.76,0.08-1.09-0.086
		c-0.264-0.131-0.17-0.457-0.15-0.703c0.02-0.23,0.207-0.08,0.406-0.113c0.299-0.006,0.623,0.258,1.008,0.244
		C32.495,29.429,32.573,29.499,32.542,29.597z M38.671,10.311c-0.957,2.5-1.746,5.045-2.305,7.669
		c-0.34,1.598-0.74,3.184-1.063,4.785c-0.24,1.201-0.373,2.426-0.568,3.639c-0.063,0.386-0.146,0.771-0.258,1.146
		c-0.178,0.596-0.273,0.641-1.035,0.639c-1.09-0.067-2.086-0.453-3.059-0.92c-0.16-0.078-0.16-0.205-0.145-0.34
		c0.045-0.348,0.074-0.699,0.156-1.039c0.293-1.207,0.652-2.397,0.902-3.613c0.344-1.682,0.838-3.324,1.207-4.999
		c0.361-1.646,0.688-3.304,1.15-4.926c0.197-0.686,0.461-1.352,0.592-2.056c0.098-0.517,0.207-1.031,0.273-1.55
		c0.033-0.257,0.146-0.342,0.369-0.286c1.293,0.323,2.604,0.604,3.676,1.486C38.712,10.064,38.733,10.145,38.671,10.311z"/>
	<path fill="#FFFFFF" d="M29.813,9.257c0.123-0.417-0.289-0.539-0.57-0.662c-0.779-0.341-1.598-0.611-2.43-0.749
		c-2.451-0.405-4.916-0.692-7.413-0.595c-1.174,0.046-2.337,0.151-3.498,0.308c-1.381,0.186-2.726,0.528-4.046,0.96
		c-0.808,0.266-1.643,0.448-2.417,0.813C9.284,9.403,9.083,9.485,9.134,9.703c0.058,0.242,0.28,0.228,0.469,0.198
		c1.186-0.184,2.378-0.362,3.516-0.743c1.062-0.355,2.16-0.49,3.247-0.659c1.584-0.247,3.191-0.313,4.842-0.291
		c1.082-0.078,2.189,0.151,3.303,0.249c0.928,0.08,1.846,0.21,2.73,0.526c0.559,0.2,1.121,0.396,1.699,0.522
		C29.237,9.572,29.682,9.702,29.813,9.257z"/>
	<path fill="#FFFFFF" d="M11.903,13.883c0.035-0.414-0.101-0.773-0.184-1.14c-0.096-0.424-0.298-0.585-0.627-0.523
		c-0.308,0.059-0.51,0.377-0.464,0.75c0.027,0.228,0.089,0.452,0.103,0.68c0.023,0.403,0.243,0.708,0.477,1.003
		c0.187,0.235,0.45,0.193,0.578-0.083C11.888,14.344,11.908,14.101,11.903,13.883z"/>
	<path fill="#FFFFFF" d="M17.116,13.051c0.227-0.354,0.137-0.758,0.168-1.139c0-0.135,0.018-0.272-0.006-0.403
		c-0.054-0.312-0.188-0.579-0.545-0.605c-0.277-0.02-0.509,0.287-0.529,0.656c-0.015,0.254-0.027,0.509-0.044,0.764
		c-0.015,0.248,0.029,0.485,0.135,0.707c0.086,0.183,0.243,0.302,0.438,0.324C16.942,13.382,17.022,13.198,17.116,13.051z"/>
	<path fill="#FFFFFF" d="M27.28,17.786c0.303,0.093,0.418-0.183,0.537-0.388c0.213-0.37,0.254-0.794,0.297-1.203
		c0.029-0.266-0.07-0.558-0.398-0.617c-0.338-0.062-0.514,0.156-0.641,0.438c-0.158,0.354-0.162,0.732-0.217,1.111
		C26.862,17.429,26.977,17.694,27.28,17.786z"/>
	<path fill="#FFFFFF" d="M22.796,11.279c-0.088-0.184-0.205-0.326-0.424-0.32c-0.23,0.006-0.361,0.155-0.443,0.356
		c-0.1,0.235-0.045,0.481-0.053,0.724c-0.053,0.331-0.008,0.644,0.148,0.943c0.141,0.27,0.293,0.326,0.529,0.092
		C22.884,12.744,23.022,11.768,22.796,11.279z"/>
	<path fill="#FFFFFF" d="M28.671,13.19c0.061-0.289,0.117-0.579,0.146-0.872c0.023-0.249-0.086-0.449-0.332-0.542
		c-0.26-0.098-0.434,0.042-0.584,0.237c-0.229,0.3-0.15,0.672-0.256,1.015c0.072,0.271,0.039,0.643,0.404,0.707
		C28.421,13.802,28.602,13.526,28.671,13.19z"/>
	<path fill="#FFFFFF" d="M17.028,21.124c0.121,0.25,0.255,0.555,0.607,0.496c0.347-0.062,0.38-0.355,0.403-0.658
		c0.026-0.332-0.066-0.642-0.132-0.955c-0.043-0.209-0.194-0.354-0.433-0.359c-0.228-0.006-0.337,0.138-0.405,0.33
		c-0.076,0.219-0.156,0.435-0.12,0.674C16.974,20.81,16.961,20.988,17.028,21.124z"/>
	<path fill="#FFFFFF" d="M26.696,20.601c-0.279-0.098-0.475,0.072-0.611,0.283c-0.115,0.178-0.205,0.381-0.271,0.584
		c-0.113,0.336,0.068,0.646,0.422,0.752c0.344,0.102,0.545-0.072,0.656-0.373c0.074-0.203,0.123-0.412,0.158-0.531
		C27.061,20.941,26.979,20.7,26.696,20.601z"/>
	<path fill="#FFFFFF" d="M13.263,22.142c0.204-0.119,0.304-0.315,0.257-0.551c-0.072-0.357-0.2-0.701-0.419-1
		c-0.195-0.266-0.491-0.238-0.653,0.051c-0.08,0.144-0.116,0.301-0.099,0.541c0.047,0.256,0.044,0.604,0.324,0.855
		C12.853,22.202,13.049,22.265,13.263,22.142z"/>
	<path fill="#FFFFFF" d="M17.396,17.28c0.123-0.252,0.261-0.51,0.205-0.78c0.029-0.252,0.009-0.464-0.132-0.648
		c-0.225-0.292-0.588-0.265-0.764,0.056c-0.228,0.417-0.13,1.095,0.205,1.438C17.102,17.541,17.281,17.515,17.396,17.28z"/>
	<path fill="#FFFFFF" d="M22.516,16.829c0.111-0.193,0.102-0.414,0.141-0.623c0.064-0.332,0.105-0.667-0.305-0.802
		c-0.305-0.101-0.596,0.177-0.691,0.625c-0.018,0.078-0.02,0.159-0.027,0.239c-0.012,0.211,0.066,0.396,0.158,0.576
		c0.076,0.15,0.182,0.273,0.367,0.27C22.346,17.111,22.434,16.973,22.516,16.829z"/>
	<path fill="#FFFFFF" d="M12.363,17.977c0.225-0.076,0.22-0.281,0.21-0.596c-0.02-0.119-0.051-0.358-0.1-0.594
		c-0.037-0.176-0.164-0.281-0.337-0.31c-0.185-0.029-0.306,0.076-0.392,0.228c-0.173,0.304-0.102,0.737,0.181,1.047
		C12.041,17.88,12.157,18.047,12.363,17.977z"/>
	<path fill="#FFFFFF" d="M21.458,20.579c0.014,0.28,0.092,0.551,0.434,0.596c0.295,0.039,0.441-0.217,0.459-0.83
		c-0.004-0.188-0.033-0.436-0.357-0.471C21.733,19.847,21.442,20.222,21.458,20.579z"/>
</g>
</svg>
