<?xml version="1.0" encoding="utf-8"?>
<!-- Generator: Adobe Illustrator 26.0.3, SVG Export Plug-In . SVG Version: 6.00 Build 0)  -->
<svg version="1.1" id="图层_1" xmlns="http://www.w3.org/2000/svg" xmlns:xlink="http://www.w3.org/1999/xlink" x="0px" y="0px"
	 viewBox="0 0 42.52 42.52" style="enable-background:new 0 0 42.52 42.52;" xml:space="preserve">
<style type="text/css">
	.st0{fill:#fff;}
	.st1{fill-rule:evenodd;clip-rule:evenodd;fill:#fff;}
</style>
<g>
	<path class="st0" d="M10.11,13.32c2.1-0.45,4.17-0.63,6.24-0.79c1.69-0.13,3.38-0.3,5.06-0.41c0.55-0.04,1.11-0.04,1.66-0.05
		c1.09-0.01,2.17-0.12,3.25-0.13c1.14-0.01,2.27-0.12,3.4-0.11c0.9,0,1.81-0.06,2.71,0.03c0.44,0.05,0.7,0.24,0.71,0.57
		c0.02,0.36-0.29,0.67-0.75,0.69c-0.78,0.02-1.56,0-2.33,0.02c-0.67,0.01-1.34,0.04-2.02,0.06c-1.7,0.07-3.39,0.19-5.09,0.19
		c-1.7,0-3.38,0.21-5.06,0.29c-1.1,0.05-2.19,0.15-3.29,0.24c-1.36,0.11-2.71,0.35-4.07,0.54c-1.01,0.14-2.02,0.3-3.03,0.44
		c-0.23,0.03-0.46,0.02-0.54-0.25c-0.07-0.26,0.11-0.4,0.31-0.47c0.6-0.19,1.17-0.48,1.8-0.59c0.44-0.07,0.43-0.1,0.18-0.44
		c-0.39-0.53-0.38-1.17-0.31-1.79c0.03-0.31,0.47-0.56,0.74-0.5c0.34,0.08,0.46,0.31,0.5,0.65C10.26,12.11,10.3,12.7,10.11,13.32z
		 M35.95,27.84c0-1.15-0.03-2.3-0.08-3.45c-0.09-1.74-0.1-3.48-0.24-5.22c-0.18-2.14-0.19-4.27-0.12-6.41
		c0.03-0.9,0.06-1.83,0.23-2.73c0.03-0.17,0.05-0.35,0.17-0.48c0.13-0.15,0.27-0.3,0.47-0.22c0.19,0.08,0.27,0.25,0.28,0.48
		c0.05,1.34,0.11,2.67,0.18,4.01c0.06,1.24,0.13,2.49,0.27,3.72c0.1,0.95,0.13,1.91,0.18,2.87c0.04,0.86,0.19,1.7,0.17,2.56
		c-0.02,1.36,0.17,2.71,0.17,4.08c0,0.97-0.11,1.94,0.04,2.91c0.02,0.13,0,0.27,0,0.39c-0.04,0.63-0.35,0.99-0.8,0.97
		c-0.49-0.03-0.9-0.49-0.91-1.05C35.95,29.47,35.95,28.65,35.95,27.84z M34.16,29.93c-1.82,0.17-3.55,0.22-5.27,0.4
		c-1.19,0.12-2.39,0.14-3.58,0.25c-0.74,0.07-1.47,0.15-2.21,0.17c-1.11,0.02-2.22,0.04-3.33,0.08c-0.93,0.03-1.86,0.1-2.79,0.14
		c-0.99,0.05-1.99,0.09-2.98,0.13c-0.63,0.03-1.26,0.08-1.89,0.1c-0.76,0.02-1.52,0.02-2.28,0.03c-0.1,0-0.2-0.04-0.3-0.08
		c-0.15-0.07-0.33-0.16-0.31-0.39c0.01-0.22,0.18-0.3,0.35-0.36c0.58-0.24,1.2-0.24,1.8-0.29c1.6-0.13,3.2-0.23,4.81-0.3
		c1.96-0.08,3.92-0.26,5.89-0.24c1.72,0.02,3.43-0.19,5.14-0.33c1.12-0.08,2.24-0.14,3.36-0.26c1.11-0.12,2.24-0.13,3.35-0.35
		c0.3-0.06,0.59,0.01,0.88,0.1c0.2,0.06,0.38,0.19,0.41,0.46c0.02,0.27-0.12,0.44-0.3,0.57C34.64,29.96,34.36,29.96,34.16,29.93z
		 M30.64,10.2c0.01-0.49,0.26-0.81,0.6-0.84c0.36-0.02,0.58,0.23,0.67,0.7c0.08,0.41,0.05,0.77-0.22,1.1
		c-0.28,0.34-0.47,0.34-0.74,0.01C30.7,10.87,30.7,10.5,30.64,10.2z"/>
	<path class="st0" d="M26.17,32.52c-1.7,0.14-3.31,0.27-4.92,0.4c-0.27-0.05-0.54-0.08-0.79,0.07c-0.55,0.08-1.1,0.25-1.65,0.23
		c-0.79-0.03-1.58,0.07-2.35,0.15c-1.74,0.19-3.48,0.19-5.27,0.25c0.3-0.54,0.15-1.08,0.02-1.6c-0.1-0.42-0.37-0.63-0.68-0.57
		c-0.31,0.06-0.49,0.34-0.51,0.76c-0.03,0.5,0.12,0.92,0.4,1.33l-0.07,0c-0.79,0.01-1.53,0.02-2.26-0.13
		c-0.21-0.04-0.33-0.13-0.37-0.36c-0.09-0.48-0.33-0.95-0.04-1.45c0.06-0.11,0.03-0.28,0.04-0.43c0.05-0.66-0.14-1.3-0.18-1.94
		c-0.05-1.06-0.17-2.11-0.26-3.16c-0.11-1.16-0.21-2.31-0.33-3.47c-0.11-1.16-0.17-2.34-0.26-3.51c-0.06-0.8-0.18-1.58-0.22-2.38
		c-0.03-0.6-0.09-1.19-0.14-1.78c-0.09-0.91-0.21-1.81-0.19-2.73c0-0.22,0.01-0.41,0.24-0.53c0.18-0.1,0.22-0.29,0.02-0.44
		c-0.36-0.28-1.01-0.1-1.19,0.35c-0.16,0.41-0.28,0.84-0.32,1.3c-0.08,1.01,0.07,2.02,0.06,3.04c-0.01,1.04,0.1,2.08,0.18,3.13
		c0.13,1.59,0.19,3.19,0.3,4.78l0,0.04c0.1,1.48,0.2,2.96,0.32,4.43c0.08,0.94,0.14,1.87,0.44,2.78c0.1,0.31,0.19,0.66,0.17,1.02
		c-0.03,0.54,0.1,1.06,0.23,1.57l0,0.02c0.23,0.94,0.57,1.24,1.42,1.34c1.47,0.18,2.94,0.22,4.41,0.21c0.84,0,1.68-0.04,2.52-0.1
		c1.13-0.09,2.26-0.29,3.39-0.32c1.13-0.03,2.24-0.23,3.36-0.32c0.99-0.08,1.98-0.23,2.97-0.29c1.02-0.06,2.05-0.1,3.07-0.14
		c1.14-0.04,2.3-0.11,3.45-0.14c0.92-0.02,1.82-0.17,2.74-0.16c0.36,0.01,0.72-0.11,1.07-0.21c0.25-0.07,0.48-0.21,0.65-0.45
		c0.22-0.32,0.2-0.5-0.1-0.71c-0.4-0.29-0.86-0.32-1.31-0.29c-1,0.07-1.99,0.28-2.99,0.27c-0.87-0.01-1.75,0.09-2.62,0.08
		c-0.48-0.01-0.95,0.15-1.43,0.08c-0.23-0.03-0.37-0.02-0.24-0.36c0.12-0.32,0.05-0.66-0.05-0.98c-0.08-0.27-0.23-0.48-0.51-0.45
		c-0.26,0.04-0.39,0.24-0.46,0.52C25.76,31.75,25.84,32.16,26.17,32.52z"/>
	<path class="st0" d="M25.9,7.34c-1.54-0.02-3.08,0.11-4.61,0.23c-1.21,0.1-2.43,0.18-3.62,0.41c-0.8,0.15-1.6,0.33-2.4,0.43
		c-0.97,0.12-1.91,0.37-2.86,0.56c-1.06,0.21-2.11,0.52-3.16,0.79C8.7,9.9,8.14,10.02,7.6,10.2c-0.26,0.09-0.7,0.14-0.57,0.54
		c0.12,0.39,0.53,0.22,0.82,0.17c0.93-0.18,1.88-0.31,2.81-0.52c0.9-0.2,1.82-0.26,2.72-0.4c0.51-0.08,1-0.29,1.51-0.29
		c0.56,0,1.11-0.12,1.65-0.21c1.16-0.18,2.32-0.26,3.48-0.38c1.28-0.12,2.58-0.08,3.86-0.15c1.18-0.07,2.36-0.05,3.54-0.06
		c0.83,0,1.67,0.06,2.48-0.02c0.81-0.08,1.62-0.04,2.43-0.11c0.52-0.05,1.05-0.05,1.58-0.07c0.32-0.02,0.82-0.35,0.8-0.57
		c-0.04-0.35-0.29-0.5-0.61-0.61c-0.96-0.33-1.95-0.27-2.93-0.21l-0.06,0c-0.49,0.03-0.99,0.09-1.47,0.06
		C28.39,7.31,27.15,7.36,25.9,7.34z"/>
	<path class="st0" d="M19.89,19.45c0.69-0.13,1.4,0.02,2.1-0.13c0.34-0.07,0.58,0.23,0.63,0.57c0.05,0.36,0.06,0.74,0.03,1.11
		c-0.02,0.25-0.12,0.52-0.44,0.5c-0.32-0.03-0.4-0.27-0.39-0.57c0.01-0.27,0-0.55,0-0.82c0-0.14,0.02-0.28-0.21-0.24
		c-0.17,0.03-0.23,0.09-0.17,0.27c0.18,0.59-0.19,0.9-0.73,0.82c-0.5-0.07-0.64-0.41-0.42-1.09c-0.67,0.15-0.66,0.15-0.5,0.77
		c0.08,0.32,0.28,0.61,0.31,0.95l0,0c0.01,0.12,0.02,0.23-0.1,0.29c-0.12,0.06-0.21-0.02-0.3-0.09c-0.34-0.33-0.45-0.77-0.57-1.2
		C18.9,19.71,18.98,19.62,19.89,19.45z"/>
	<path class="st0" d="M13.84,11.35c-0.03-0.22-0.04-0.45,0.07-0.67c0.11-0.19,0.26-0.32,0.49-0.32c0.24,0.01,0.37,0.16,0.45,0.36
		c0.19,0.46,0.13,0.94,0.02,1.4c-0.08,0.32-0.44,0.4-0.72,0.18C13.91,12.12,13.86,11.96,13.84,11.35z M26.11,10.33
		c0.06,0.27,0,0.53-0.11,0.76c-0.15,0.29-0.43,0.34-0.67,0.12c-0.33-0.29-0.5-1.16-0.31-1.57c0.19-0.42,0.61-0.46,0.89-0.1
		C26.1,9.77,26.16,10.04,26.11,10.33z M20.22,10.77c0,0.35,0.08,0.69-0.37,0.76c-0.34,0.05-0.62-0.19-0.71-0.61
		c-0.07-0.32-0.09-0.64,0-0.95c0.05-0.2,0.17-0.36,0.38-0.4c0.21-0.04,0.37,0.08,0.49,0.24C20.15,10.01,20.2,10.22,20.22,10.77z
		 M31.85,31.48c-0.01,0.07-0.03,0.21-0.06,0.35c-0.06,0.25-0.13,0.5-0.41,0.48c-0.27-0.02-0.44-0.22-0.51-0.52
		c-0.04-0.17-0.03-0.34,0-0.52c0.05-0.34,0.15-0.63,0.52-0.63C31.64,30.67,31.84,31.02,31.85,31.48z M20.62,32.81
		c-0.26-0.37-0.38-0.76-0.17-1.21c0.09-0.19,0.23-0.32,0.44-0.3c0.19,0.01,0.31,0.13,0.38,0.32c0.19,0.43,0.21,0.84-0.12,1.2
		C20.97,33,20.8,33.02,20.62,32.81z M15.93,32.52c0.02,0.31-0.03,0.57-0.32,0.63c-0.27,0.05-0.48-0.13-0.57-0.42
		c-0.08-0.26-0.08-0.54-0.04-0.82c0.04-0.23,0.15-0.4,0.38-0.42c0.21-0.02,0.33,0.12,0.4,0.33C15.87,32.06,15.94,32.29,15.93,32.52z
		 M24.57,20.53c-0.09,0.44-0.42,0.73-0.65,1.09c-0.11,0.18-0.24,0.36-0.38,0.51c-0.44,0.47-0.65,0.97-0.53,1.64
		c0.07,0.4-0.13,0.7-0.58,0.84c-0.57,0.19-1.12,0.42-1.73,0.3c-0.5-0.1-0.86-0.38-0.88-0.86c-0.02-0.64-0.44-0.97-0.87-1.31
		c-0.45-0.36-1.02-0.54-1.33-1.08c-0.52-0.9-0.79-1.78-0.27-2.79c0.69-1.35,1.62-1.98,3.52-2.13c0.58,0.02,1.42,0.05,2.19,0.52
		C23.9,17.76,24.83,19.31,24.57,20.53z M22.9,26.37c-0.41,0.45-0.99,0.31-1.47,0.46c-0.3-0.04-0.59-0.06-0.87-0.12
		c-0.22-0.05-0.36-0.22-0.41-0.45c-0.05-0.18-0.02-0.28,0.22-0.26c0.74,0.07,1.49,0.06,2.19-0.25c0.22-0.1,0.44-0.07,0.57,0.14
		C23.27,26.14,23.03,26.23,22.9,26.37z M24.32,16.81c-1.03-0.96-2.33-1.2-3.85-1.17c-1.12-0.04-2.2,0.51-3.1,1.3
		c-0.95,0.84-1.32,1.96-1.23,3.29c0.11,1.65,0.86,2.75,2.35,3.38c0.21,0.09,0.24,0.17,0.24,0.39c0,0.45-0.11,0.94,0.29,1.29
		c0.18,0.16,0.18,0.3,0.13,0.52c-0.22,0.95,0.59,1.95,1.57,1.93c0.41-0.01,0.83-0.05,1.23-0.08c0.76-0.06,1.42-0.33,1.91-0.95
		c0.33-0.42,0.34-0.98-0.01-1.38c-0.11-0.13-0.15-0.19-0.05-0.34c0.31-0.49,0.3-1.01,0.12-1.54c-0.04-0.13-0.12-0.25,0.04-0.36
		c1.05-0.8,1.43-1.93,1.55-3.19C25.64,18.66,25.2,17.62,24.32,16.81z"/>
</g>
</svg>
