<?xml version="1.0" encoding="utf-8"?>
<!-- Generator: Adobe Illustrator 26.0.3, SVG Export Plug-In . SVG Version: 6.00 Build 0)  -->
<svg version="1.1" id="圖層_1" xmlns="http://www.w3.org/2000/svg" xmlns:xlink="http://www.w3.org/1999/xlink" x="0px" y="0px"
	 viewBox="0 0 42.52 42.52" style="enable-background:new 0 0 42.52 42.52;" xml:space="preserve">
<style type="text/css">
	.st0{fill:#ffffff;}
	.st1{fill-rule:evenodd;clip-rule:evenodd;fill:#ffffff;}
</style>
<g>
	<path class="st0" d="M36.43,28.21l0.04,0.08c0.12,0.23,0.29,0.43,0.48,0.61c0.39,0.39,0.41,0.92,0.04,1.33
		c-0.42,0.46-0.93,0.8-1.45,1.12c-0.94,0.59-1.96,0.96-3.04,1.19c-0.26,0.06-0.53,0.09-0.79,0.16c-0.77,0.2-1.53,0.44-2.3,0.61
		c-0.81,0.18-1.64,0.29-2.46,0.43c-0.6,0.1-1.2,0.23-1.81,0.31c-0.73,0.1-1.48,0.12-2.21,0.24c-1.22,0.2-2.46,0.14-3.69,0.27
		c-0.86,0.09-1.73,0.12-2.6,0.16c-0.47,0.02-0.78-0.2-0.98-0.66c-0.21-0.49-0.55-0.93-0.79-1.41c-0.36-0.73-0.59-1.5-0.83-2.28
		c-0.19-0.63-0.26-1.28-0.42-1.92c-0.27-1.1-0.44-2.22-0.61-3.33c-0.1-0.69-0.21-1.37-0.31-2.06c-0.16-1.07-0.3-2.14-0.47-3.21
		c-0.13-0.82-0.33-1.64-0.44-2.46c-0.18-1.32-0.5-2.63-0.45-3.98c0.03-0.81-0.08-1.62-0.13-2.43c-0.01-0.18-0.03-0.39,0.18-0.45
		c0.26-0.07,0.32,0.17,0.37,0.34c0.29,0.89,0.4,1.81,0.59,2.72c0.16,0.71,0.22,1.43,0.46,2.13c0.26,0.74,0.32,1.55,0.49,2.31
		c0.26,1.17,0.37,2.37,0.6,3.54c0.18,0.9,0.26,1.81,0.39,2.72c0.11,0.84,0.29,1.67,0.43,2.5c0.2,1.22,0.49,2.42,0.78,3.62
		c0.15,0.63,0.47,1.2,0.84,1.74c0.06,0.09,0.16,0.17,0.18,0.26c0.09,0.39,0.36,0.37,0.66,0.33c0.77-0.1,1.55-0.05,2.32-0.07
		c0.84-0.01,1.69,0.09,2.53,0.09c0.86-0.01,1.72-0.01,2.57-0.16c0.65-0.11,1.3-0.2,1.95-0.31c0.7-0.13,1.42-0.24,2.12-0.37
		c0.79-0.16,1.59-0.3,2.32-0.69c0.45-0.23,0.93-0.37,1.44-0.44c0.35-0.04,0.64-0.33,0.99-0.45c0.63-0.22,1.15-0.64,1.72-0.96
		c0.19-0.11,0.21-0.21,0.09-0.4c-0.43-0.64-0.79-1.32-1.08-2.02c-0.13-0.31-0.37-0.54-0.53-0.83c-0.69-1.26-1.15-2.62-1.73-3.93
		c-0.43-0.99-0.78-2.02-1.07-3.06c-0.22-0.79-0.52-1.56-0.69-2.37c-0.23-1.15-0.48-2.29-0.64-3.46c-0.11-0.78-0.02-1.55-0.07-2.32
		c-0.04-0.59-0.53-1.03-1.11-0.99c-0.44,0.03-0.87-0.11-1.33-0.06c-2.28,0.24-4.57,0.05-6.85-0.02C19.06,9.9,18,9.94,16.94,9.95
		c-1.35,0-2.67-0.22-3.97-0.54c-0.32-0.08-0.64-0.15-0.96-0.24c-0.29-0.09-0.49-0.01-0.75,0.18c-1.22,0.86-2.39,1.79-3.69,2.54
		c-0.35,0.2-0.69,0.46-1.07,0.61c-0.17,0.07-0.14,0.18-0.12,0.31c0.1,1.07,0.19,2.15,0.3,3.23c0.18,1.67,0.14,3.36,0.14,5.03
		c0,0.76,0,1.53,0.04,2.29c0.04,0.97,0.21,1.94,0.31,2.91c0.09,0.84,0.25,1.66,0.33,2.51c0.09,0.92,0.07,1.88,0.48,2.76
		c0.19,0.4,0.18,0.87,0.26,1.31c0.07,0.39,0.19,0.54,0.52,0.42c0.58-0.2,1.14-0.13,1.7,0.03c0.41,0.11,0.79,0.01,1.17-0.11
		c0.41-0.12,0.82-0.24,1.24-0.06c0.14,0.06,0.3,0,0.46-0.01c0.41-0.03,0.71,0.17,0.77,0.52c0.05,0.34-0.19,0.71-0.56,0.79
		c-0.35,0.08-0.71,0.19-1.07,0c-0.15-0.08-0.3,0-0.43,0.06l-0.01,0c-0.8,0.38-1.58,0.24-2.33-0.13c-0.17-0.08-0.31-0.06-0.47,0
		c-0.4,0.16-0.75,0.44-1.22,0.45c-0.56,0.01-1.05-0.36-1.19-0.91c-0.22-0.87-0.32-1.76-0.46-2.64c-0.14-0.86-0.16-1.73-0.25-2.59
		c-0.07-0.64-0.16-1.28-0.26-1.92c-0.2-1.34-0.4-2.67-0.43-4.03C5.4,21.54,5.4,20.36,5.4,19.18c0-0.76,0.04-1.52,0.11-2.28
		c0.05-0.5,0-1.01-0.03-1.51c-0.06-0.87-0.15-1.73-0.22-2.6v-0.72c0.09-0.27,0.27-0.41,0.55-0.4c0.23,0,0.41-0.13,0.58-0.24
		l0.04-0.02c0.79-0.5,1.58-1,2.33-1.57c0.63-0.47,1.29-0.94,1.96-1.37c0.13-0.09,0.23-0.2,0.3-0.34c0.16-0.34,0.46-0.48,0.82-0.41
		c0.72,0.14,1.42,0.33,2.13,0.46c0.7,0.13,1.4,0.29,2.13,0.3c1.72,0.01,3.44,0.01,5.16,0.06c0.81,0.03,1.62,0.07,2.43,0.1
		c0.92,0.03,1.85,0.1,2.77-0.16c0.47-0.13,0.98,0.01,1.47,0.02c0.71,0,1.39,0.15,2.07,0.39c0.68,0.24,1.17,0.8,1.16,1.54
		c-0.02,0.65,0.02,1.3,0.1,1.93c0.07,0.59,0.17,1.19,0.29,1.77c0.24,1.16,0.46,2.32,0.81,3.46c0.32,1.06,0.51,2.15,0.9,3.19
		c0.68,1.8,1.29,3.64,2.12,5.39C35.71,26.86,36.07,27.54,36.43,28.21z"/>
	<path class="st1" d="M28.62,20.95c-0.05-0.22-0.01-0.45-0.06-0.69c-0.16-0.7-0.28-1.4-0.4-2.1c-0.13-0.77-0.22-1.56-0.36-2.33
		c-0.13-0.73-0.3-1.45-0.45-2.17c-0.21-1.06-0.6-1.47-1.56-1.49c-1.03-0.03-2.06-0.12-3.1-0.02c-0.91,0.09-1.81-0.08-2.72-0.05
		c-1.22,0.03-2.45,0.1-3.66,0.02c-0.62-0.04-1.19,0.15-1.78,0.15c-0.1,0-0.16,0.09-0.2,0.18c-0.07,0.16-0.12,0.33-0.11,0.51
		c0.02,0.73,0.1,1.45,0.16,2.17c0.1,1.12,0.3,2.23,0.51,3.34c0.14,0.73,0.24,1.46,0.47,2.17c0.15,0.47,0.28,0.95,0.51,1.38
		c0.19,0.35,0.48,0.59,0.89,0.69c0.4,0.1,0.8,0.03,1.19,0.1c1.32,0.25,2.65,0.11,3.97,0.03c1.19-0.08,2.39-0.11,3.58-0.33
		c0.76-0.14,1.53-0.22,2.28-0.39C28.51,21.95,28.66,21.7,28.62,20.95z M26.24,21.21c0.44,0.08,0.8-0.07,1.17-0.27
		c0.14-0.08,0.17-0.14,0.11-0.3c-0.36-0.93-0.47-1.94-0.78-2.89c-0.25-0.76-0.27-1.57-0.43-2.35c-0.13-0.67-0.41-1.31-0.38-2
		c0-0.1-0.04-0.19-0.14-0.23c-0.35-0.13-0.68-0.32-1.08-0.3c-1.5,0.08-3,0.27-4.5,0.31c-0.77,0.02-1.53,0.09-2.29,0.09
		c-0.9,0-1.79,0.02-2.68-0.1c-0.23-0.03-0.2,0.08-0.17,0.22c0.06,0.29,0.13,0.57,0.19,0.86c0.15,0.87,0.28,1.74,0.43,2.61
		c0.14,0.8,0.28,1.59,0.45,2.38c0.15,0.7,0.34,1.4,0.5,2.09c0.05,0.21,0.16,0.31,0.39,0.3c0.5-0.02,0.99,0.01,1.48,0.06
		c0.41,0.04,0.82,0.05,1.25,0.08c0.86-0.05,1.75-0.12,2.63-0.14c1.02-0.02,2.02-0.14,3.01-0.32C25.68,21.28,25.95,21.16,26.24,21.21
		z"/>
	<path class="st0" d="M8.41,22.99c0.08,0.82,0.25,1.62,0.35,2.44c0.14,1.09,0.33,2.18,0.51,3.27c0.05,0.28,0.18,0.54,0.16,0.82
		c-0.03,0.31,0.08,0.58,0.23,0.83c0.13,0.22,0.31,0.37,0.57,0.34c0.27-0.03,0.45-0.19,0.56-0.44c0.07-0.17,0.06-0.34,0.04-0.52
		c-0.13-1.07-0.39-2.12-0.56-3.19c-0.11-0.7-0.21-1.39-0.32-2.09c-0.07-0.48-0.16-0.97-0.19-1.46c-0.02-0.37-0.04-0.75-0.08-1.12
		c-0.07-0.6-0.19-1.21-0.18-1.82c0-0.47-0.04-0.94-0.11-1.4c-0.18-1.19-0.11-2.39-0.22-3.59c-0.04-0.47-0.06-0.93-0.15-1.4
		c-0.04-0.18-0.09-0.35-0.3-0.39c-0.2-0.04-0.29,0.13-0.39,0.26c-0.07,0.09-0.09,0.21-0.12,0.33c-0.21,1.02-0.2,2.06-0.18,3.09
		c0.03,1.75,0.24,3.49,0.36,5.24C8.41,22.45,8.38,22.71,8.41,22.99z"/>
	<path class="st0" d="M19.22,26.46c0.23-0.08,0.3-0.3,0.16-0.53c-0.11-0.19-0.27-0.34-0.5-0.36c-0.34-0.02-0.69-0.02-1.02,0.06
		c-0.25,0.06-0.38,0.23-0.37,0.49c0.01,0.25,0.14,0.43,0.39,0.48c0.15,0.04,0.3,0.03,0.53,0.05C18.67,26.74,18.94,26.56,19.22,26.46
		z"/>
	<path class="st0" d="M22.96,26.16c0.25-0.14,0.29-0.35,0.11-0.59c-0.23-0.31-0.53-0.33-0.88-0.26c-0.42,0.08-0.63,0.24-0.61,0.54
		c0.01,0.3,0.3,0.53,0.68,0.53C22.52,26.39,22.75,26.28,22.96,26.16z"/>
	<path class="st0" d="M22.64,29.79c0.34-0.01,0.61-0.25,0.61-0.55c-0.01-0.3-0.33-0.56-0.67-0.55c-0.32,0.01-0.55,0.24-0.55,0.56
		C22.04,29.59,22.27,29.8,22.64,29.79z"/>
	<path class="st0" d="M18.51,30.05c0.21,0.11,0.45,0.2,0.71,0.2c0.31-0.04,0.65-0.04,0.89-0.33c0.13-0.15,0.22-0.3,0.16-0.51
		c-0.06-0.2-0.22-0.31-0.41-0.33c-0.35-0.02-0.7-0.04-1.06-0.02c-0.28,0.02-0.47,0.2-0.54,0.48C18.21,29.77,18.32,29.95,18.51,30.05
		z"/>
	<path class="st0" d="M26.1,29.46c0.39,0.2,0.99,0.03,1.22-0.33c0.14-0.23,0.16-0.42-0.1-0.6c-0.23-0.16-0.46-0.28-0.71-0.25
		c-0.47-0.01-0.71,0.14-0.78,0.45C25.68,29.02,25.83,29.32,26.1,29.46z"/>
	<path class="st0" d="M26.96,26.13c0.25-0.11,0.51-0.27,0.46-0.59c-0.05-0.33-0.32-0.44-0.63-0.44c-0.33,0-0.64,0.14-0.96,0.2
		c-0.32,0.04-0.54,0.2-0.54,0.53c0,0.29,0.29,0.48,0.72,0.47C26.29,26.26,26.64,26.27,26.96,26.13z"/>
	<path class="st0" d="M29.96,24.64c-0.12,0.02-0.23,0.04-0.35,0.04c-0.32,0-0.56,0.11-0.62,0.44c-0.06,0.34,0.19,0.47,0.44,0.59
		c0.13,0.06,0.27,0.08,0.41,0.07c0.17,0,0.34-0.01,0.47-0.11c0.23-0.16,0.5-0.31,0.41-0.66C30.64,24.71,30.34,24.57,29.96,24.64z"/>
	<path class="st0" d="M29.88,28.37c0.03,0.28,0.33,0.48,0.81,0.48c0.29-0.01,0.63-0.2,0.9-0.49c0.21-0.22,0.14-0.5-0.13-0.64
		c-0.38-0.2-0.76-0.13-1.13,0.01C30.05,27.85,29.84,28.04,29.88,28.37z"/>
</g>
</svg>
