<?xml version="1.0" encoding="utf-8"?>
<!-- Generator: Adobe Illustrator 26.0.3, SVG Export Plug-In . SVG Version: 6.00 Build 0)  -->
<svg version="1.1" id="图层_1" xmlns="http://www.w3.org/2000/svg" xmlns:xlink="http://www.w3.org/1999/xlink" x="0px" y="0px"
	 viewBox="0 0 42.52 42.52" style="enable-background:new 0 0 42.52 42.52;" xml:space="preserve">
<style type="text/css">
	.st0{fill:#fff;}
	.st1{fill-rule:evenodd;clip-rule:evenodd;fill:#fff;}
</style>
<g>
	<path class="st0" d="M40.64,13.27c-0.98,2.57-1.79,5.18-2.37,7.88c-0.35,1.64-0.76,3.27-1.09,4.92c-0.25,1.24-0.38,2.49-0.58,3.74
		c-0.06,0.4-0.15,0.79-0.26,1.18c-0.18,0.61-0.29,0.66-1.06,0.66c-1.12-0.07-2.14-0.47-3.14-0.95c-0.17-0.08-0.17-0.21-0.15-0.35
		c0.04-0.35,0.08-0.72,0.16-1.07c0.3-1.24,0.67-2.47,0.93-3.71c0.35-1.73,0.86-3.42,1.24-5.14c0.37-1.69,0.71-3.4,1.18-5.06
		c0.2-0.71,0.47-1.39,0.61-2.12c0.1-0.53,0.21-1.06,0.28-1.59c0.04-0.26,0.15-0.35,0.38-0.29c1.33,0.33,2.68,0.62,3.78,1.53
		C40.69,13.01,40.71,13.1,40.64,13.27z M34.34,33.09c-0.06,0.19-0.08,0.43-0.31,0.51c-0.38,0.13-0.78,0.08-1.12-0.08
		c-0.27-0.14-0.17-0.47-0.15-0.72c0.02-0.24,0.21-0.08,0.42-0.12c0.31-0.01,0.64,0.26,1.04,0.25C34.3,32.92,34.38,32.99,34.34,33.09
		z M38.1,10.09c0.13-0.25,0.2-0.51,0.59-0.55c0.34,0.23,0.82,0.35,1.06,0.76c0.13,0.22-0.03,0.53-0.17,0.73
		c-0.12,0.18-0.3-0.06-0.46-0.12c-0.29-0.13-0.57-0.28-0.87-0.39C38.04,10.42,37.98,10.33,38.1,10.09z M10.61,30.86
		c-0.78,0.43-1.63,0.67-2.48,0.9c-0.43,0.12-0.88,0.07-1.32,0.03c-0.04-0.04-0.06-0.08-0.09-0.12c-0.35-0.45-0.45-1.01-0.53-1.54
		c-0.39-2.77-1.03-5.5-1.65-8.23c-0.58-2.53-1.4-4.99-2.21-7.45c-0.1-0.32-0.26-0.61-0.4-0.92c-0.09-0.18-0.07-0.27,0.1-0.41
		c0.56-0.47,1.2-0.8,1.88-1.03c0.58-0.2,1.17-0.35,1.75-0.53c0.29-0.08,0.44,0.02,0.5,0.32c0.12,0.63,0.26,1.26,0.39,1.88
		c0.01,0.04,0.02,0.07,0.02,0.1c0.28,0.96,0.57,1.91,0.85,2.86c0.38,1.29,0.57,2.63,0.94,3.92c0.67,2.37,1.19,4.79,1.85,7.16
		c0.24,0.87,0.53,1.75,0.6,2.67C10.83,30.7,10.79,30.76,10.61,30.86z M9.64,33.73c-0.06,0.03-0.12,0.06-0.19,0.08
		c-0.1,0.02-0.21,0.02-0.31,0C9,33.79,8.86,33.79,8.73,33.72c-0.14-0.08-0.22-0.21-0.24-0.37c-0.02-0.12-0.04-0.25,0.1-0.26
		c0.43-0.02,0.8-0.3,1.24-0.28c0.13,0.01,0.2,0.02,0.23,0.16c0.03,0.14,0.04,0.29-0.02,0.43c-0.06,0.14-0.19,0.25-0.32,0.3
		C9.7,33.71,9.66,33.72,9.64,33.73z M2.72,10.61c0.07-0.26,0.35-0.34,0.5-0.53h0c0.09-0.04,0.18-0.06,0.26-0.11
		c0.18-0.14,0.36-0.28,0.59-0.15c0.27,0.15,0.29,0.46,0.42,0.69c0.04,0.07-0.05,0.1-0.11,0.14c-0.41,0.22-0.86,0.36-1.25,0.63
		c-0.12,0.08-0.23,0.04-0.27-0.13c-0.04-0.18-0.1-0.34-0.16-0.51C2.71,10.63,2.72,10.62,2.72,10.61z M40.89,12.18
		c-0.05-0.06-0.1-0.13-0.15-0.19c-0.29-0.16-0.43-0.35-0.34-0.73c0.31-1.39,0.05-1.84-1.28-2.35c-0.67-0.26-1.24-0.02-1.55,0.64
		c-0.09,0.2-0.01,0.52-0.21,0.59c-0.2,0.07-0.46-0.04-0.69-0.07c-0.04,0-0.08-0.02-0.12-0.02c-0.69-0.02-0.93,0.24-0.91,0.94
		c0,0.08-0.03,0.16-0.06,0.24c-0.13,0.48-0.32,0.95-0.39,1.44c-0.16,1.02-0.57,1.97-0.84,2.95c-0.33,1.2-0.64,2.41-0.91,3.63
		c-0.32,1.42-0.64,2.84-0.97,4.25c-0.26,1.11-0.47,2.22-0.79,3.32c-0.21,0.75-0.39,1.51-0.55,2.26c-0.06,0.26-0.17,0.28-0.37,0.15
		c-0.22-0.14-0.45-0.27-0.71-0.33c-1.1-0.26-2.19-0.57-3.33-0.69c-1.4-0.16-2.77-0.48-4.2-0.27c-0.16,0.02-0.34,0.02-0.5-0.01
		c-1.17-0.22-2.34-0.1-3.52,0.02c-0.91,0.09-1.81,0.21-2.71,0.37c-1.28,0.23-2.57,0.42-3.74,1.03c-0.22,0.11-0.32,0.13-0.4-0.16
		c-0.21-0.71-0.31-1.44-0.54-2.14c-0.22-0.66-0.37-1.34-0.53-2.01c-0.29-1.18-0.57-2.37-0.86-3.56c-0.23-0.97-0.43-1.95-0.68-2.91
		c-0.16-0.6-0.24-1.22-0.51-1.79c-0.4-1.72-1.11-3.36-1.47-5.15c0.61,0.24,1.02-0.17,1.49-0.35c0.99-0.36,1.96-0.78,2.96-1.12
		c1.08-0.37,2.21-0.54,3.34-0.69c1.31-0.18,2.59-0.55,3.92-0.68c1.92-0.2,3.84-0.08,5.74,0.08c1.55,0.13,3.06,0.52,4.6,0.75
		c1.75,0.26,3.36,0.91,4.99,1.55c0.32,0.13,0.62,0.33,0.97,0.37c0.16,0.02,0.33,0,0.4-0.16c0.06-0.15-0.04-0.26-0.15-0.36
		c-0.18-0.17-0.39-0.3-0.61-0.43c-0.9-0.51-1.88-0.83-2.83-1.21c-0.45-0.14-0.89-0.3-1.35-0.41c-1.7-0.41-3.4-0.8-5.13-1.07
		c-1.1-0.17-2.21-0.23-3.32-0.27c-0.86-0.03-1.72,0.08-2.58,0.15C18.6,7.84,17.71,7.86,16.84,8c-1.81,0.3-3.6,0.69-5.34,1.25
		c-1.54,0.49-3.08,1.02-4.41,2.01C7,11.2,7,11.1,6.98,11c-0.14-0.63-0.47-0.85-1.11-0.75c-0.15,0.02-0.31,0.02-0.45,0.07
		c-0.24,0.08-0.33,0.02-0.38-0.24C4.94,9.5,4.51,9.03,4.05,9.03c-0.64,0-1.22,0.21-1.67,0.7C2.35,9.76,2.32,9.79,2.29,9.81
		c-0.11,0.05-0.15,0.16-0.18,0.27C2,10.5,1.96,10.94,2.1,11.36c0.12,0.38,0.09,0.67-0.26,0.9c-0.1,0.06-0.2,0.16-0.26,0.27
		c-0.18,0.27-0.39,0.55-0.28,0.92c0.2,0.69,0.43,1.38,0.63,2.07c0.34,1.13,0.7,2.25,1,3.39c0.35,1.29,0.64,2.59,0.95,3.88
		c0.3,1.27,0.6,2.54,0.87,3.81c0.32,1.49,0.45,3.02,0.83,4.5c0.28,1.09,0.8,1.89,2,2.04c0.18,0.02,0.26,0.08,0.28,0.28
		c0.12,1.07,0.39,1.39,1.45,1.47c0.69,0.05,1.4-0.18,1.54-0.77c0.21-0.33,0.24-0.71,0.25-1.08c0.02-0.6,0.02-1.18,0.65-1.52
		c0.15-0.08,0.2-0.27,0.2-0.44c0-0.19-0.02-0.39-0.06-0.58c-0.04-0.22-0.03-0.35,0.26-0.38c0.45-0.04,0.91-0.13,1.35-0.23
		c1.3-0.3,2.61-0.49,3.93-0.64c1.04-0.11,2.1-0.18,3.14-0.26c0.88-0.07,1.73,0.06,2.61,0.02c0.71-0.03,1.43,0.12,2.15,0.2
		c0.67,0.07,1.36,0.08,2.02,0.22c1.03,0.22,2.08,0.39,3.11,0.57c0.29,0.05,0.38,0.13,0.34,0.41c-0.09,0.68,0.18,1.22,0.67,1.67
		c0.18,0.17,0.24,0.37,0.22,0.63c-0.1,1.11,0.29,1.72,1.32,2.01c1.01,0.29,1.9-0.28,1.92-1.33c0-0.26,0.07-0.39,0.35-0.43
		c0.8-0.12,1.37-0.55,1.67-1.33c0.21-0.53,0.35-1.08,0.44-1.64c0.2-1.23,0.33-2.48,0.59-3.7c0.53-2.57,1.1-5.13,1.72-7.68
		c0.42-1.72,0.94-3.42,1.46-5.12C41.35,12.93,41.22,12.55,40.89,12.18z"/>
	<path class="st0" d="M31.54,12.19c0.13-0.43-0.3-0.55-0.59-0.68c-0.8-0.35-1.64-0.63-2.5-0.77c-2.52-0.41-5.05-0.71-7.62-0.61
		c-1.21,0.05-2.4,0.16-3.59,0.32c-1.42,0.19-2.8,0.54-4.16,0.99c-0.83,0.27-1.69,0.46-2.49,0.84c-0.16,0.07-0.37,0.16-0.31,0.38
		c0.06,0.25,0.29,0.23,0.48,0.2c1.22-0.19,2.44-0.37,3.61-0.77c1.09-0.37,2.22-0.5,3.34-0.67c1.63-0.26,3.28-0.33,4.98-0.3
		c1.12-0.08,2.25,0.16,3.4,0.26c0.95,0.08,1.89,0.22,2.81,0.54c0.57,0.2,1.15,0.41,1.75,0.54C30.95,12.51,31.41,12.64,31.54,12.19z
		 M13.13,16.94c0.04-0.43-0.1-0.79-0.19-1.17c-0.1-0.43-0.3-0.6-0.65-0.54c-0.32,0.06-0.52,0.39-0.48,0.77
		c0.03,0.23,0.09,0.47,0.11,0.7c0.02,0.42,0.25,0.73,0.49,1.03c0.19,0.24,0.46,0.2,0.59-0.08C13.11,17.41,13.13,17.17,13.13,16.94z
		 M18.49,16.09c0.23-0.37,0.14-0.78,0.17-1.17c0-0.14,0.02-0.28-0.01-0.41c-0.06-0.32-0.19-0.6-0.56-0.63
		c-0.28-0.02-0.52,0.3-0.54,0.68c-0.02,0.26-0.03,0.52-0.04,0.78c-0.02,0.25,0.03,0.5,0.14,0.73c0.09,0.18,0.25,0.31,0.45,0.33
		C18.31,16.43,18.39,16.24,18.49,16.09z M28.94,20.96c0.31,0.09,0.43-0.19,0.55-0.4c0.22-0.38,0.26-0.82,0.3-1.24
		c0.03-0.27-0.07-0.57-0.41-0.63c-0.35-0.06-0.53,0.16-0.66,0.45c-0.16,0.37-0.16,0.75-0.22,1.14
		C28.51,20.59,28.62,20.86,28.94,20.96z M24.33,14.27c-0.09-0.19-0.21-0.34-0.44-0.33c-0.24,0.01-0.37,0.16-0.45,0.37
		c-0.1,0.24-0.05,0.49-0.06,0.74c-0.05,0.34-0.01,0.66,0.15,0.97c0.14,0.28,0.3,0.34,0.55,0.1C24.42,15.77,24.56,14.77,24.33,14.27z
		 M30.37,16.23c0.06-0.3,0.12-0.59,0.15-0.9c0.02-0.26-0.09-0.47-0.34-0.56c-0.26-0.1-0.45,0.04-0.6,0.24
		c-0.24,0.31-0.16,0.69-0.26,1.04c0.08,0.28,0.04,0.66,0.42,0.73C30.11,16.86,30.29,16.58,30.37,16.23z M18.4,24.38
		c0.12,0.26,0.27,0.57,0.62,0.51c0.36-0.06,0.39-0.37,0.42-0.68c0.03-0.34-0.07-0.66-0.14-0.98c-0.04-0.21-0.2-0.37-0.45-0.37
		c-0.23,0-0.35,0.14-0.41,0.34c-0.08,0.22-0.16,0.45-0.12,0.69C18.34,24.06,18.33,24.24,18.4,24.38z M28.33,23.85
		c-0.29-0.1-0.49,0.07-0.63,0.29c-0.12,0.18-0.21,0.39-0.28,0.6c-0.12,0.35,0.07,0.67,0.43,0.77c0.35,0.1,0.56-0.07,0.67-0.38
		c0.08-0.21,0.13-0.43,0.17-0.55C28.71,24.2,28.63,23.95,28.33,23.85z M14.53,25.43c0.21-0.12,0.31-0.32,0.27-0.56
		c-0.07-0.37-0.21-0.72-0.43-1.03c-0.2-0.27-0.51-0.25-0.67,0.05c-0.08,0.14-0.12,0.31-0.1,0.55c0.05,0.26,0.05,0.62,0.33,0.88
		C14.11,25.49,14.31,25.56,14.53,25.43z M18.77,20.43c0.13-0.26,0.27-0.53,0.21-0.8c0.03-0.26,0.01-0.48-0.14-0.67
		c-0.23-0.3-0.61-0.27-0.78,0.06c-0.24,0.43-0.14,1.12,0.21,1.48C18.47,20.7,18.66,20.67,18.77,20.43z M24.04,19.97
		c0.12-0.2,0.1-0.43,0.14-0.64c0.07-0.34,0.11-0.69-0.31-0.82c-0.31-0.1-0.61,0.18-0.71,0.64c-0.02,0.08-0.02,0.16-0.03,0.24
		c-0.01,0.22,0.07,0.41,0.17,0.59c0.08,0.16,0.18,0.28,0.38,0.28C23.87,20.26,23.95,20.12,24.04,19.97z M13.6,21.15
		c0.23-0.08,0.22-0.29,0.21-0.61c-0.02-0.12-0.05-0.37-0.1-0.61c-0.04-0.18-0.17-0.29-0.35-0.32c-0.19-0.03-0.31,0.08-0.4,0.23
		c-0.18,0.31-0.11,0.76,0.18,1.08C13.27,21.05,13.39,21.22,13.6,21.15z M22.95,23.82c0.01,0.29,0.09,0.57,0.44,0.61
		c0.31,0.04,0.45-0.22,0.47-0.85c0-0.19-0.04-0.45-0.37-0.49C23.24,23.07,22.93,23.46,22.95,23.82z"/>
</g>
</svg>
