<?xml version="1.0" encoding="utf-8"?>
<!-- Generator: Adobe Illustrator 16.0.0, SVG Export Plug-In . SVG Version: 6.00 Build 0)  -->
<!DOCTYPE svg PUBLIC "-//W3C//DTD SVG 1.1//EN" "http://www.w3.org/Graphics/SVG/1.1/DTD/svg11.dtd">
<svg version="1.1" id="圖層_1" xmlns="http://www.w3.org/2000/svg" xmlns:xlink="http://www.w3.org/1999/xlink" x="0px" y="0px"
	 width="42.52px" height="42.52px" viewBox="-2.835 -2.835 42.52 42.52" enable-background="new -2.835 -2.835 42.52 42.52"
	 xml:space="preserve">
<g>
	<g>
		<path fill="#FFFFFF" d="M21.715,3.663c0.135,0.024,0.269,0.054,0.402,0.081c0.086,0.019,0.172,0.035,0.255,0.063
			c0.081,0.026,0.157,0.063,0.237,0.097c0.128,0.055,0.262,0.083,0.382,0.152c0.104,0.063,0.21,0.125,0.313,0.19
			c0.2,0.129,0.396,0.268,0.583,0.415c0.362,0.286,0.696,0.611,0.985,0.975c0.292,0.364,0.537,0.766,0.729,1.19
			c0.11,0.243,0.206,0.494,0.284,0.751c0.255,0.828,0.409,1.653,0.413,2.516c0.005,1.23-0.483,2.266-1.275,3.175
			c-0.288,0.331-0.76,0.354-1.104,0.08c-0.353-0.279-0.391-0.687-0.063-1.124c0.479-0.646,0.75-1.357,0.764-2.159
			c0.011-0.784-0.109-1.549-0.409-2.279C24.007,7.29,23.93,6.75,23.552,6.32c-0.863-0.982-1.889-1.595-3.231-1.64
			c-0.688-0.023-1.346,0.113-1.961,0.373c-0.564,0.237-1.061,0.618-1.457,1.109c-0.935,1.155-1.108,2.531-0.925,3.909
			c0.116,0.863,0.524,1.714,1.268,2.304c0.147,0.119,0.264,0.256,0.337,0.431c0.188,0.449-0.059,0.866-0.544,0.917
			c-0.43,0.044-0.813-0.063-1.142-0.348c-0.828-0.716-1.265-1.623-1.329-2.714c-0.021-0.396-0.1-0.789-0.087-1.182
			c0.032-1.049,0.216-2.108,0.735-2.998c0.429-0.734,0.997-1.427,1.751-1.945c0.559-0.385,1.164-0.599,1.77-0.843
			c0.371-0.148,0.766-0.163,1.16-0.171c0.055-0.001,0.101-0.013,0.149-0.018c0.072-0.007,0.146,0,0.221,0.002
			c0.146,0.004,0.294,0.011,0.44,0.021C21,3.549,21.292,3.585,21.581,3.636C21.625,3.646,21.67,3.655,21.715,3.663z"/>
		<path fill="#FFFFFF" d="M31.37,27.845c-0.514-0.087-0.941-0.154-1.37-0.23c-0.561-0.1-0.962-0.604-0.876-1.085
			c0.08-0.447,0.639-0.819,1.166-0.716c0.658,0.131,1.331,0.19,1.974,0.4c0.137,0.044,0.284,0.056,0.428,0.076
			c0.185,0.025,0.267-0.053,0.271-0.241c0.047-1.433,0.129-2.861-0.031-4.297c-0.079-0.716-0.021-1.446-0.063-2.169
			c-0.038-0.629-0.13-1.255-0.204-1.881c-0.029-0.243-0.146-0.331-0.41-0.244c-0.803,0.266-1.563,0.619-2.313,1.011
			c-0.428,0.224-0.874,0.414-1.315,0.607c-0.177,0.076-0.37,0.089-0.506-0.087c-0.145-0.183-0.107-0.382,0.023-0.549
			c0.427-0.534,0.892-1.021,1.524-1.328c0.73-0.354,1.442-0.743,2.244-0.943c1.244-0.311,2.186,0.305,2.357,1.572
			c0.123,0.896,0.199,1.803,0.359,2.692c0.291,1.62,0.273,3.254,0.287,4.886c0.004,0.586-0.033,1.193-0.298,1.742
			c-0.377,0.78-1.043,1.11-1.967,0.981C32.198,27.983,31.732,27.969,31.37,27.845z"/>
		<path fill="#FFFFFF" d="M8.819,6.894c1.125,0.034,2.148,0.683,3.048,1.485c1.105,0.992,1.673,2.253,1.545,3.797
			c-0.063,0.747-0.219,1.428-0.727,1.997c-0.078,0.089-0.144,0.202-0.241,0.255c-0.305,0.163-0.608,0.43-0.977,0.137
			c-0.248-0.197-0.338-0.918-0.139-1.309c0.188-0.368,0.32-0.748,0.396-1.152c0.191-1.038-0.123-1.967-0.825-2.683
			C10.179,8.69,9.253,8.26,8.173,8.296c-0.104,0.003-0.21-0.016-0.315-0.025c-1.479-0.166-2.61,0.423-3.437,1.625
			c-0.401,0.586-0.773,1.201-0.938,1.902c-0.231,1.005-0.018,1.959,0.398,2.878c0.279,0.615,0.285,0.79-0.014,0.962
			c-0.33,0.188-0.913-0.007-1.161-0.417c-0.316-0.522-0.57-1.085-0.66-1.688C1.773,11.713,2.15,10.047,3.38,8.64
			C4.272,7.619,5.385,6.938,6.747,6.74C7.394,6.65,8.037,6.726,8.819,6.894z"/>
		<path fill="#FFFFFF" d="M22.11,9.438c0.397,0.056,0.757,0.305,0.981,0.725c0.308,0.568-0.066,1.155-0.713,1.135
			c-0.56-0.019-1.249-0.615-1.353-1.167C20.939,9.648,21.419,9.31,22.11,9.438z"/>
		<path fill="#FFFFFF" d="M20.79,7.98c-0.063,0.358-0.229,0.632-0.616,0.672c-0.38,0.04-0.569-0.195-0.69-0.523
			c-0.111-0.311-0.232-0.62-0.264-0.948c-0.031-0.352,0.104-0.652,0.383-0.866c0.196-0.148,0.415-0.133,0.634-0.02
			c0.11,0.059,0.217,0.128,0.256,0.239C20.654,7.001,20.857,7.464,20.79,7.98z"/>
		<path fill="#FFFFFF" d="M17.961,10.78c0.101-0.415,0.422-0.752,0.872-0.953c0.331-0.147,0.761-0.01,0.924,0.243
			c0.166,0.26,0.09,0.758-0.19,1.063c-0.193,0.216-0.438,0.383-0.698,0.505c-0.244,0.113-0.493,0.081-0.704-0.095
			C17.95,11.369,17.897,11.131,17.961,10.78z"/>
		<path fill="#FFFFFF" d="M9.37,11.395c0.392,0.08,0.588,0.324,0.681,0.663c0.075,0.275,0.021,0.522-0.217,0.703
			c-0.286,0.215-0.584,0.202-0.879,0.017c-0.21-0.133-0.435-0.252-0.62-0.413c-0.243-0.208-0.223-0.535,0.049-0.697
			C8.69,11.481,9.035,11.399,9.37,11.395z"/>
		<path fill="#FFFFFF" d="M7.293,13.639c-0.068,0.437-0.818,0.996-1.225,0.913c-0.389-0.08-0.567-0.435-0.374-0.774
			c0.193-0.336,0.464-0.604,0.833-0.749C6.982,12.854,7.368,13.164,7.293,13.639z"/>
		<path fill="#FFFFFF" d="M7.253,11.289c-0.049,0.284-0.363,0.499-0.69,0.444C6.14,11.664,5.853,11.4,5.687,11.02
			c-0.093-0.214-0.062-0.444,0.103-0.628c0.163-0.186,0.378-0.223,0.61-0.165C6.834,10.332,7.315,10.931,7.253,11.289z"/>
		<path fill="#FFFFFF" d="M27.578,29.392c0.003-0.139,0.003-0.274,0.005-0.412c0.009-0.91,0.097-1.786,0-2.699
			c-0.066-0.615-0.176-1.226-0.256-1.839c-0.113-0.87-0.164-1.746-0.218-2.621c-0.06-1.015-0.117-2.03-0.179-3.045
			c-0.059-1.004-0.339-2.03-0.782-2.937c-0.255-0.521-0.609-0.947-1.174-1.178c-0.724-0.294-1.462-0.497-2.248-0.536
			c-0.854-0.042-1.714-0.114-2.556,0.067c-0.881,0.192-1.777,0.181-2.665,0.252c-1.836,0.148-3.667,0.343-5.501,0.502
			c-1.167,0.104-2.318,0.335-3.491,0.42c-1.266,0.091-2.543,0.113-3.771,0.529c-1.078,0.365-1.788,1.043-2.044,2.15
			c-0.177,0.759,0.011,1.537-0.079,2.308c-0.033,0.278-0.066,0.573-0.046,0.864c0.063,0.908,0.129,1.81,0.043,2.73
			c-0.095,1.004-0.044,2.024,0.065,3.035c0.05,0.457,0.108,0.917,0.099,1.374c-0.034,1.292,0.265,2.506,0.768,3.683
			c0.095,0.224,0.228,0.418,0.432,0.555c0.212,0.142,0.352,0.354,0.528,0.525c0.459,0.438,0.964,0.809,1.642,0.85
			c0.766,0.045,1.521-0.123,2.287-0.045c0.521,0.054,1.051,0.036,1.576,0.027c0.722-0.013,1.445-0.085,2.166-0.063
			c0.791,0.024,1.579-0.007,2.368-0.027c0.894-0.022,1.79-0.058,2.682-0.063c0.819-0.006,1.644-0.03,2.44-0.146
			c0.926-0.133,1.857-0.145,2.781-0.295c0.75-0.123,1.521-0.082,2.258-0.342c0.235-0.084,0.406-0.279,0.676-0.308
			c0.92-0.099,1.416-0.774,1.822-1.481C27.512,30.653,27.564,30.022,27.578,29.392z M26.115,29.656
			c-0.03,0.165-0.064,0.33-0.104,0.494c-0.028,0.121-0.061,0.244-0.138,0.343c-0.068,0.086-0.167,0.143-0.262,0.2
			c-0.224,0.146-0.426,0.325-0.598,0.53c-0.062,0.073-0.121,0.151-0.202,0.204c-0.069,0.044-0.152,0.063-0.234,0.084
			c-0.785,0.182-1.599,0.291-2.395,0.422c-1.141,0.188-2.283,0.373-3.436,0.454c-0.637,0.044-1.272,0.056-1.908,0.064
			c-2.995,0.049-5.993,0.094-8.986,0.108c-0.536,0.002-1.077,0.005-1.601-0.11s-1.035-0.361-1.374-0.776
			c-0.358-0.438-0.489-1.019-0.585-1.575c-0.352-2.046-0.369-4.134-0.389-6.209c-0.016-1.631-0.028-3.264-0.045-4.896
			c-0.002-0.242-0.003-0.494,0.099-0.716c0.088-0.196,0.249-0.352,0.405-0.5c0.45-0.423,1.01-0.699,1.602-0.866
			c0.625-0.177,1.271-0.137,1.896-0.273c1.448-0.322,2.897-0.499,4.388-0.637c0.841-0.078,1.681-0.154,2.521-0.231
			c2.821-0.26,5.667-0.521,8.481-0.198c0.39,0.046,0.805,0.112,1.092,0.379c0.277,0.256,0.419,0.634,0.656,0.924
			c0.348,0.424,0.666,1.147,0.796,1.68c0.182,0.747,0.166,1.524,0.185,2.289C26.053,23.788,26.647,26.775,26.115,29.656z"/>
		<path fill="#FFFFFF" d="M17.914,22.624c-0.595-0.383-1.187-0.771-1.787-1.146c-0.493-0.306-1.032-0.531-1.58-0.729
			c-0.257-0.095-0.519-0.187-0.779-0.256c-0.245-0.065-0.407-0.263-0.64-0.352c-0.093-0.036-0.192-0.051-0.291-0.063
			c-0.151-0.018-0.304-0.027-0.456-0.032c-0.117-0.003-0.239-0.001-0.34,0.052c-0.104,0.054-0.172,0.155-0.206,0.263
			c-0.033,0.107-0.036,0.222-0.039,0.333c-0.008,0.305-0.045,0.616,0.017,0.917c0.061,0.284-0.009,0.594,0.006,0.884
			c0.035,0.669,0.186,1.331,0.194,2.001c0.009,0.619,0.071,1.239,0.134,1.858c0.044,0.441,0.087,0.889,0.237,1.315
			c0.176,0.503,0.869,1.085,1.579,0.877c0.372-0.107,0.732-0.255,1.041-0.47c1.104-0.773,2.354-1.352,3.421-2.178
			c0.447-0.346,0.917-1.162,0.786-1.613C19.006,23.587,18.526,23.02,17.914,22.624z M17.956,24.244
			c-0.537,0.547-1.201,0.939-1.867,1.331c-0.555,0.325-1.088,0.679-1.581,1.083c-0.083,0.067-0.182,0.123-0.282,0.17
			c-0.313,0.146-0.515,0.056-0.559-0.276c-0.06-0.443-0.064-0.892-0.118-1.335c-0.147-1.203-0.189-2.413-0.382-3.613
			c-0.014-0.078-0.002-0.159-0.003-0.281c0.823,0.497,1.736,0.734,2.507,1.261c0.426,0.291,0.924,0.499,1.41,0.695
			c0.368,0.149,0.621,0.403,0.895,0.65C18.118,24.055,18.067,24.13,17.956,24.244z"/>
	</g>
</g>
</svg>
