<?xml version="1.0" encoding="utf-8"?>
<!-- Generator: Adobe Illustrator 16.0.0, SVG Export Plug-In . SVG Version: 6.00 Build 0)  -->
<!DOCTYPE svg PUBLIC "-//W3C//DTD SVG 1.1//EN" "http://www.w3.org/Graphics/SVG/1.1/DTD/svg11.dtd">
<svg version="1.1" id="圖層_1" xmlns="http://www.w3.org/2000/svg" xmlns:xlink="http://www.w3.org/1999/xlink" x="0px" y="0px"
	 width="42.52px" height="42.52px" viewBox="-2.835 -2.835 42.52 42.52" enable-background="new -2.835 -2.835 42.52 42.52"
	 xml:space="preserve">
<g>
	<g>
		<path fill="#FFFFFF" d="M18.409,29.708c1.592-0.133,3.182-0.264,4.855-0.4c-0.33-0.355-0.404-0.758-0.279-1.215
			c0.076-0.271,0.205-0.479,0.459-0.51c0.273-0.035,0.42,0.18,0.5,0.439c0.1,0.314,0.17,0.652,0.051,0.967
			c-0.125,0.332,0.014,0.326,0.238,0.355c0.479,0.063,0.939-0.088,1.414-0.08c0.861,0.016,1.727-0.088,2.584-0.076
			c0.998,0.014,1.971-0.195,2.955-0.262c0.449-0.029,0.895,0.002,1.293,0.281c0.299,0.209,0.318,0.375,0.1,0.691
			c-0.166,0.242-0.396,0.375-0.643,0.443c-0.344,0.1-0.701,0.211-1.053,0.205c-0.902-0.018-1.795,0.137-2.699,0.152
			c-1.131,0.023-2.266,0.098-3.398,0.139c-1.008,0.037-2.016,0.072-3.021,0.137c-0.979,0.061-1.953,0.209-2.929,0.291
			c-1.106,0.092-2.202,0.291-3.316,0.32c-1.116,0.027-2.228,0.227-3.343,0.313c-0.828,0.064-1.659,0.098-2.488,0.104
			c-1.452,0.008-2.903-0.029-4.349-0.209c-0.83-0.104-1.166-0.395-1.396-1.322c-0.125-0.508-0.254-1.023-0.227-1.563
			c0.017-0.354-0.073-0.697-0.174-1.01c-0.289-0.891-0.348-1.811-0.429-2.736c-0.128-1.469-0.224-2.938-0.319-4.408
			c-0.104-1.572-0.167-3.146-0.292-4.718c-0.082-1.026-0.186-2.058-0.178-3.083c0.01-1.003-0.138-1.999-0.062-3.002
			c0.034-0.451,0.146-0.875,0.312-1.28c0.179-0.439,0.815-0.619,1.172-0.349C3.947,8.477,3.912,8.66,3.731,8.759
			C3.509,8.879,3.502,9.07,3.498,9.287c-0.019,0.906,0.103,1.8,0.189,2.696c0.057,0.582,0.115,1.164,0.141,1.751
			c0.034,0.783,0.154,1.563,0.218,2.344c0.094,1.153,0.146,2.314,0.259,3.464c0.11,1.137,0.211,2.275,0.315,3.414
			c0.099,1.035,0.205,2.072,0.261,3.115c0.031,0.637,0.224,1.262,0.175,1.912C5.045,28.128,5.078,28.3,5.02,28.407
			c-0.282,0.496-0.045,0.959,0.041,1.432c0.042,0.229,0.161,0.313,0.369,0.354c0.741,0.154,1.487,0.141,2.29,0.127
			c-0.273-0.398-0.416-0.824-0.39-1.311c0.022-0.414,0.199-0.697,0.507-0.752c0.307-0.055,0.564,0.145,0.669,0.563
			c0.129,0.521,0.278,1.049-0.019,1.582c1.761-0.057,3.479-0.064,5.193-0.25c0.766-0.082,1.539-0.178,2.32-0.15
			c0.54,0.02,1.084-0.146,1.626-0.23C17.882,29.632,18.145,29.659,18.409,29.708z"/>
		<path fill="#FFFFFF" d="M18.453,4.717c1.515-0.121,3.026-0.249,4.548-0.229c1.225,0.016,2.449-0.033,3.678,0.029
			c0.48,0.025,0.969-0.027,1.453-0.061c0.992-0.064,1.98-0.132,2.951,0.199c0.313,0.106,0.57,0.255,0.604,0.604
			c0.021,0.219-0.473,0.551-0.789,0.563c-0.52,0.022-1.041,0.024-1.559,0.071c-0.795,0.07-1.594,0.031-2.393,0.108
			c-0.803,0.077-1.631,0.021-2.445,0.021c-1.162,0.003-2.324-0.015-3.488,0.055c-1.27,0.074-2.545,0.028-3.809,0.151
			c-1.141,0.111-2.285,0.192-3.423,0.371c-0.537,0.083-1.071,0.2-1.626,0.202c-0.511,0.001-0.987,0.214-1.495,0.291
			c-0.893,0.139-1.8,0.199-2.683,0.394C7.059,7.69,6.127,7.817,5.204,7.995C4.92,8.052,4.519,8.213,4.396,7.83
			C4.27,7.439,4.706,7.384,4.959,7.302c0.529-0.173,1.077-0.296,1.619-0.435c1.039-0.264,2.07-0.563,3.12-0.773
			c0.938-0.188,1.86-0.438,2.813-0.551c0.795-0.096,1.581-0.274,2.37-0.426C16.063,4.895,17.258,4.811,18.453,4.717z"/>
		<path fill="#FFFFFF" d="M7.429,10.384c2.065-0.447,4.108-0.621,6.155-0.777c1.665-0.127,3.325-0.292,4.991-0.408
			c0.543-0.038,1.096-0.042,1.643-0.047c1.066-0.011,2.137-0.121,3.205-0.131c1.121-0.013,2.238-0.12,3.354-0.115
			c0.893,0.005,1.783-0.06,2.674,0.033c0.438,0.045,0.689,0.233,0.703,0.562c0.018,0.356-0.289,0.664-0.734,0.677
			c-0.768,0.021-1.533,0.003-2.301,0.017c-0.662,0.011-1.324,0.038-1.988,0.063c-1.67,0.064-3.344,0.189-5.014,0.187
			c-1.674-0.005-3.33,0.208-4.996,0.289c-1.077,0.052-2.158,0.151-3.237,0.236c-1.346,0.106-2.68,0.348-4.018,0.534
			c-0.996,0.14-1.988,0.291-2.984,0.43c-0.225,0.032-0.458,0.025-0.534-0.245c-0.071-0.252,0.11-0.396,0.307-0.46
			c0.592-0.191,1.153-0.476,1.776-0.577c0.438-0.072,0.422-0.098,0.175-0.438C6.221,9.682,6.233,9.058,6.298,8.45
			C6.331,8.144,6.76,7.898,7.028,7.962c0.33,0.077,0.458,0.304,0.49,0.642C7.576,9.187,7.615,9.766,7.429,10.384z"/>
		<path fill="#FFFFFF" d="M32.904,24.691c0.006-1.135-0.023-2.268-0.082-3.398c-0.088-1.715-0.1-3.435-0.234-5.143
			c-0.172-2.104-0.186-4.211-0.123-6.315c0.025-0.894,0.057-1.804,0.223-2.688c0.031-0.167,0.057-0.343,0.168-0.475
			c0.127-0.147,0.262-0.296,0.465-0.215c0.189,0.076,0.266,0.247,0.273,0.472c0.057,1.315,0.109,2.634,0.178,3.949
			c0.064,1.228,0.125,2.452,0.264,3.675c0.105,0.938,0.133,1.887,0.18,2.83c0.043,0.844,0.186,1.678,0.17,2.525
			c-0.021,1.342,0.168,2.672,0.172,4.02c0.002,0.953-0.109,1.916,0.041,2.869c0.02,0.125,0.006,0.258-0.004,0.389
			c-0.039,0.615-0.338,0.977-0.789,0.949c-0.488-0.025-0.893-0.48-0.896-1.031C32.9,26.298,32.904,25.493,32.904,24.691z"/>
		<path fill="#FFFFFF" d="M31.14,26.757c-1.791,0.168-3.5,0.215-5.199,0.389c-1.176,0.121-2.355,0.146-3.533,0.254
			c-0.725,0.066-1.445,0.152-2.176,0.166c-1.094,0.021-2.188,0.039-3.281,0.078c-0.917,0.031-1.833,0.096-2.75,0.139
			c-0.979,0.049-1.959,0.088-2.938,0.135c-0.621,0.029-1.242,0.076-1.864,0.096c-0.75,0.021-1.5,0.023-2.25,0.025
			c-0.099,0-0.202-0.037-0.295-0.08c-0.155-0.07-0.327-0.154-0.312-0.383c0.014-0.217,0.181-0.295,0.341-0.359
			c0.571-0.232,1.18-0.236,1.771-0.285c1.577-0.125,3.156-0.229,4.736-0.297c1.936-0.084,3.866-0.256,5.806-0.236
			c1.693,0.016,3.381-0.189,5.068-0.32c1.104-0.084,2.209-0.141,3.309-0.26c1.104-0.119,2.211-0.127,3.305-0.348
			c0.297-0.061,0.588,0.01,0.871,0.102c0.197,0.063,0.381,0.188,0.402,0.459c0.023,0.264-0.115,0.436-0.291,0.566
			C31.615,26.781,31.333,26.784,31.14,26.757z"/>
		<path fill="#FFFFFF" d="M27.673,7.304c0.006-0.48,0.252-0.802,0.594-0.822c0.359-0.022,0.568,0.224,0.66,0.691
			c0.078,0.399,0.049,0.755-0.217,1.081c-0.277,0.336-0.461,0.336-0.732,0.007C27.732,7.962,27.73,7.602,27.673,7.304z"/>
		<path fill="#FFFFFF" d="M11.106,8.44c-0.028-0.218-0.041-0.444,0.075-0.658c0.104-0.191,0.251-0.319,0.479-0.314
			c0.235,0.005,0.365,0.153,0.446,0.355c0.188,0.458,0.132,0.925,0.02,1.381c-0.081,0.32-0.435,0.393-0.707,0.178
			C11.18,9.193,11.128,9.036,11.106,8.44z"/>
		<path fill="#FFFFFF" d="M23.208,7.43c0.055,0.271-0.002,0.52-0.117,0.75c-0.143,0.287-0.424,0.33-0.662,0.116
			c-0.32-0.287-0.49-1.146-0.307-1.545c0.188-0.412,0.596-0.456,0.879-0.102C23.189,6.884,23.253,7.146,23.208,7.43z"/>
		<path fill="#FFFFFF" d="M17.402,7.867c0.006,0.342,0.072,0.682-0.367,0.748c-0.336,0.052-0.607-0.186-0.705-0.604
			c-0.068-0.313-0.09-0.629-0.004-0.941c0.057-0.194,0.17-0.353,0.376-0.392c0.21-0.04,0.361,0.08,0.483,0.24
			C17.332,7.112,17.378,7.322,17.402,7.867z"/>
		<path fill="#FFFFFF" d="M28.859,28.284c-0.014,0.068-0.031,0.209-0.063,0.348c-0.059,0.242-0.129,0.494-0.406,0.477
			c-0.271-0.02-0.43-0.215-0.5-0.506c-0.041-0.172-0.027-0.338-0.004-0.51c0.051-0.334,0.146-0.627,0.51-0.615
			C28.657,27.486,28.857,27.823,28.859,28.284z"/>
		<path fill="#FFFFFF" d="M17.797,29.589c-0.254-0.363-0.369-0.754-0.167-1.195c0.087-0.189,0.229-0.313,0.431-0.297
			c0.184,0.014,0.302,0.135,0.379,0.314c0.179,0.428,0.203,0.828-0.123,1.188C18.14,29.777,17.967,29.798,17.797,29.589z"/>
		<path fill="#FFFFFF" d="M13.167,29.306c0.023,0.311-0.031,0.568-0.313,0.619c-0.269,0.047-0.471-0.127-0.561-0.41
			c-0.082-0.256-0.085-0.535-0.04-0.803c0.037-0.225,0.146-0.398,0.378-0.412c0.212-0.016,0.327,0.121,0.396,0.326
			C13.109,28.853,13.181,29.081,13.167,29.306z"/>
		<path fill="#FFFFFF" d="M21.441,13.817c-1.014-0.947-2.297-1.183-3.794-1.155c-1.103-0.041-2.163,0.5-3.049,1.283
			c-0.942,0.833-1.306,1.936-1.215,3.248c0.11,1.625,0.849,2.715,2.318,3.336c0.211,0.088,0.239,0.17,0.237,0.381
			c-0.003,0.439-0.112,0.93,0.284,1.271c0.182,0.158,0.182,0.299,0.131,0.512c-0.22,0.938,0.582,1.922,1.542,1.896
			c0.405-0.012,0.813-0.047,1.215-0.08c0.752-0.061,1.4-0.33,1.881-0.938c0.326-0.412,0.336-0.967-0.006-1.363
			c-0.104-0.123-0.143-0.191-0.049-0.34c0.303-0.48,0.299-0.998,0.117-1.521c-0.047-0.131-0.117-0.24,0.033-0.355
			c1.031-0.793,1.41-1.904,1.529-3.145C22.74,15.639,22.302,14.62,21.441,13.817z M20.036,23.241
			c-0.398,0.445-0.973,0.307-1.45,0.451c-0.294-0.037-0.58-0.055-0.854-0.119c-0.215-0.051-0.354-0.221-0.405-0.441
			c-0.042-0.18-0.017-0.273,0.222-0.254c0.733,0.066,1.465,0.059,2.162-0.242c0.213-0.092,0.436-0.068,0.559,0.143
			C20.407,23.017,20.161,23.105,20.036,23.241z M21.691,17.483c-0.092,0.439-0.42,0.72-0.639,1.072
			c-0.107,0.174-0.234,0.354-0.373,0.501c-0.438,0.465-0.645,0.963-0.525,1.619c0.072,0.393-0.125,0.688-0.574,0.834
			c-0.563,0.18-1.099,0.408-1.703,0.291c-0.486-0.092-0.848-0.375-0.863-0.848c-0.024-0.633-0.436-0.959-0.854-1.295
			c-0.439-0.35-1.005-0.529-1.314-1.064c-0.519-0.887-0.777-1.756-0.27-2.755c0.681-1.328,1.598-1.953,3.476-2.097
			c0.573,0.022,1.395,0.046,2.158,0.515C21.023,14.758,21.941,16.287,21.691,17.483z"/>
		<path fill="#FFFFFF" d="M19.14,16.301c-0.688,0.146-1.383,0-2.066,0.125c-0.899,0.165-0.976,0.253-0.734,1.13
			c0.113,0.422,0.226,0.856,0.562,1.18c0.081,0.078,0.175,0.154,0.292,0.094c0.115-0.061,0.104-0.174,0.095-0.291
			c-0.026-0.338-0.222-0.619-0.307-0.938c-0.161-0.607-0.167-0.606,0.487-0.758c-0.222,0.669-0.082,1.008,0.411,1.077
			c0.526,0.07,0.896-0.234,0.72-0.814c-0.055-0.176-0.005-0.235,0.168-0.266c0.224-0.04,0.203,0.099,0.203,0.237
			c0,0.27,0.016,0.539,0.002,0.809c-0.014,0.293,0.063,0.537,0.385,0.563c0.316,0.023,0.422-0.24,0.438-0.49
			c0.021-0.365,0.018-0.737-0.033-1.098C19.71,16.531,19.478,16.23,19.14,16.301z"/>
	</g>
</g>
</svg>
