<?xml version="1.0" encoding="utf-8"?>
<!-- Generator: Adobe Illustrator 16.0.0, SVG Export Plug-In . SVG Version: 6.00 Build 0)  -->
<!DOCTYPE svg PUBLIC "-//W3C//DTD SVG 1.1//EN" "http://www.w3.org/Graphics/SVG/1.1/DTD/svg11.dtd">
<svg version="1.1" id="圖層_1" xmlns="http://www.w3.org/2000/svg" xmlns:xlink="http://www.w3.org/1999/xlink" x="0px" y="0px"
	 width="42.52px" height="42.52px" viewBox="-2.835 -2.835 42.52 42.52" enable-background="new -2.835 -2.835 42.52 42.52"
	 xml:space="preserve">
<g>
	<g>
		<path fill="#FFFFFF" d="M31.732,24.538c-0.101-0.749-0.188-1.5-0.31-2.247c-0.103-0.628-0.186-1.267-0.132-1.891
			c0.093-1.113-0.053-2.21-0.189-3.299c-0.101-0.791-0.197-1.587-0.268-2.377c-0.093-1.041-0.197-2.084-0.25-3.131
			c-0.021-0.384,0.002-0.781-0.084-1.16c-0.139-0.606-0.035-1.255-0.318-1.836c-0.021-0.044-0.004-0.11-0.001-0.166
			c0.042-0.626-0.41-1.224-1.028-1.319c-0.729-0.112-1.47-0.148-2.2-0.055c-1.293,0.167-2.586,0.254-3.894,0.233
			c-1.092-0.018-2.188-0.013-3.276,0.1c-1.474,0.152-2.941,0.337-4.41,0.514c-0.74,0.09-1.481,0.177-2.218,0.294
			c-0.592,0.097-1.186,0.205-1.763,0.366c-0.806,0.227-1.628,0.371-2.444,0.54c-1.267,0.259-2.489,0.54-3.384,1.618
			c-0.352,0.424-0.55,0.84-0.6,1.367c-0.105,1.115,0.054,2.223,0.096,3.333C5.1,16.5,5.234,17.569,5.471,18.631
			c0.374,1.682,0.275,3.417,0.483,5.122c0.146,1.207,0.229,2.42,0.903,3.486c0.047,0.075,0.097,0.153,0.12,0.238
			c0.218,0.786,0.79,1.214,1.52,1.455c0.864,0.286,1.776,0.223,2.654,0.179c0.91-0.045,1.823-0.08,2.734-0.127
			c0.669-0.033,1.358,0.033,1.998-0.143c0.707-0.194,1.436-0.25,2.144-0.457c0.771-0.226,1.603-0.26,2.409-0.34
			c2.139-0.212,4.249-0.646,6.402-0.741c0.854-0.038,1.717,0.038,2.351-0.115c0.652,0.005,1.083-0.06,1.507-0.154
			c0.249-0.058,0.428-0.226,0.574-0.436c0.4-0.573,0.721-1.162,0.471-1.896C31.722,24.654,31.74,24.593,31.732,24.538z
			 M29.693,25.828c-1.032,0.09-2.063,0.206-3.085,0.394c-0.942,0.173-1.892,0.31-2.84,0.454c-0.884,0.135-1.771,0.181-2.662,0.228
			c-1.179,0.079-2.362,0.104-3.53,0.259c-0.883,0.116-1.771,0.193-2.652,0.294c-0.935,0.105-1.897-0.006-2.834,0.112
			c-0.945,0.12-1.897,0.031-2.832,0.144c-1.083,0.129-1.265-0.326-1.375-1.072c-0.173-1.167-0.401-2.327-0.517-3.505
			c-0.138-1.395-0.285-2.787-0.447-4.178C6.81,18.029,6.723,17.1,6.637,16.169c-0.128-1.383-0.259-2.766-0.347-4.152
			c-0.009-0.145-0.005-0.29,0-0.436c0.009-0.258,0.106-0.396,0.401-0.419c0.693-0.058,1.347-0.31,1.998-0.526
			c0.669-0.223,1.35-0.381,2.034-0.522c0.816-0.169,1.631-0.343,2.452-0.484c0.868-0.15,1.745-0.229,2.621-0.322
			c0.697-0.073,1.391-0.184,2.085-0.284c0.585-0.085,1.176-0.095,1.76-0.2c0.897-0.16,1.802-0.294,2.705-0.416
			c0.419-0.056,0.846-0.049,1.269-0.081c0.711-0.055,1.418-0.164,2.134-0.159c0.739,0.005,1.417,0.274,2.104,0.5
			c0.042,0.014,0.084,0.045,0.126,0.043c0.702-0.023,0.71,0.491,0.744,0.97c0.089,1.257,0.141,2.517,0.258,3.771
			c0.095,1.006,0.234,2.007,0.449,3c0.125,0.578,0.354,1.122,0.458,1.705c0.074,0.421,0.063,0.845,0.113,1.265
			c0.078,0.664,0.134,1.329,0.23,1.991c0.111,0.76,0.021,1.534,0.053,2.301c0.019,0.478-0.016,0.954,0.024,1.43
			C30.338,25.52,30.065,25.796,29.693,25.828z"/>
		<path fill="#FFFFFF" d="M26.778,9.267c-0.41,0.097-0.662,0.413-0.93,0.688c-0.946,0.978-1.798,2.037-2.63,3.113
			c-0.47,0.607-0.86,1.267-1.316,1.882c-0.291,0.392-0.455,0.878-0.809,1.22c-0.504,0.489-1.146,0.703-1.832,0.81
			c-0.998,0.156-1.945,0.044-2.861-0.412c-0.339-0.169-0.676-0.339-1.014-0.51c-0.875-0.438-1.762-0.853-2.638-1.29
			c-0.319-0.159-0.61-0.373-0.931-0.528c-0.952-0.459-1.909-0.908-2.872-1.349C8.6,12.733,8.233,12.634,7.85,12.6
			c-0.247-0.021-0.489-0.015-0.582,0.265c-0.09,0.27,0.035,0.486,0.252,0.64c0.638,0.447,1.28,0.892,1.979,1.233
			c0.851,0.417,1.664,0.904,2.517,1.313c1.003,0.482,1.961,1.055,2.991,1.478c0.555,0.229,1.107,0.471,1.726,0.507
			c0.757,0.044,1.515,0.057,2.271,0.029c0.541-0.005,1.049-0.187,1.571-0.294c0.604-0.125,1.144-0.373,1.604-0.775
			c0.523-0.458,0.883-1.058,1.31-1.597c0.24-0.303,0.376-0.689,0.62-0.989c0.772-0.953,1.551-1.903,2.373-2.812
			c0.441-0.486,0.718-1.042,0.945-1.634c0.088-0.227,0.061-0.467-0.119-0.658C27.147,9.134,26.963,9.223,26.778,9.267z"/>
	</g>
</g>
</svg>
