<?xml version="1.0" encoding="utf-8"?>
<!-- Generator: Adobe Illustrator 16.0.0, SVG Export Plug-In . SVG Version: 6.00 Build 0)  -->
<!DOCTYPE svg PUBLIC "-//W3C//DTD SVG 1.1//EN" "http://www.w3.org/Graphics/SVG/1.1/DTD/svg11.dtd">
<svg version="1.1" id="圖層_1" xmlns="http://www.w3.org/2000/svg" xmlns:xlink="http://www.w3.org/1999/xlink" x="0px" y="0px"
	 width="42.52px" height="42.52px" viewBox="-2.835 -2.836 42.52 42.52" enable-background="new -2.835 -2.836 42.52 42.52"
	 xml:space="preserve">
<g>
	<g>
		<path fill="#FFFFFF" d="M32.179,26.019c-0.036-1.089-0.178-2.174-0.26-3.263c-0.063-0.843-0.208-1.677-0.188-2.529
			c0.021-0.995-0.016-1.992-0.039-2.986c-0.018-0.751-0.151-1.495-0.105-2.251c0.035-0.562,0.043-1.122,0.041-1.686
			c-0.002-0.396-0.073-0.797-0.057-1.192c0.031-0.646-0.001-1.288-0.049-1.932c-0.038-0.505-0.17-1.009-0.146-1.509
			c0.018-0.391-0.079-0.725-0.264-1.025c-0.437-0.72-1.144-1.184-1.792-1.676c-0.633-0.479-1.354-0.851-2.063-1.223
			c-0.373-0.196-0.806-0.313-1.233-0.188c-0.274,0.082-0.553,0.121-0.834,0.142c-1.111,0.071-2.229,0.105-3.339,0.253
			c-0.144,0.019-0.197-0.034-0.189-0.202c0.027-0.951-0.275-1.806-0.804-2.584c-0.238-0.355-0.641-0.493-1.027-0.313
			c-0.798,0.374-1.601,0.751-2.354,1.205c-0.398,0.242-0.825,0.438-1.22,0.69c-0.751,0.482-1.59,0.813-2.35,1.286
			c-0.277,0.172-0.535,0.415-0.865,0.467c-0.591,0.092-1.188,0.166-1.785,0.199c-0.633,0.036-1.253,0.059-1.82,0.405
			C9.166,6.278,9.019,6.478,9.03,6.795c0.009,0.188,0.008,0.378,0.033,0.563c0.021,0.146-0.03,0.255-0.15,0.281
			C8.4,7.752,8.015,8.099,7.576,8.342C7.071,8.62,6.521,8.817,6.061,9.176C5.863,9.33,5.648,9.48,5.614,9.745
			c-0.094,0.732-0.203,1.469-0.239,2.207c-0.063,1.269-0.158,2.538-0.14,3.811c0.013,0.693-0.047,1.388-0.015,2.079
			c0.045,0.963,0.024,1.93-0.049,2.882c-0.097,1.259-0.09,2.516-0.056,3.77c0.031,1.213-0.027,2.424-0.009,3.636
			c0.028,1.66,0.122,3.31,0.418,4.948c0.191,1.055,0.733,1.789,1.761,2.143c0.256,0.052,0.513,0.104,0.769,0.155
			c0.529-0.037,1.058,0.043,1.588-0.017c0.854-0.092,1.712-0.14,2.564-0.248c0.771-0.099,1.553-0.064,2.317-0.155
			c1.005-0.118,2.018-0.13,3.022-0.222c1.396-0.125,2.813-0.048,4.219-0.168c1.293-0.109,2.586-0.063,3.87,0.16
			c0.553,0.099,0.934-0.233,0.982-0.798c0.052-0.599,0.06-1.196,0.033-1.795c-0.007-0.157,0.017-0.229,0.204-0.229
			c1.063-0.003,2.113-0.132,3.162-0.276c0.311-0.043,0.635-0.137,0.88-0.339c0.188-0.154,0.339-0.269,0.605-0.251
			c0.3,0.018,0.503-0.19,0.579-0.481c0.047-0.181,0.066-0.371,0.083-0.559C32.271,28.673,32.223,27.344,32.179,26.019z M29.82,7.987
			c-0.494,0.146-0.925,0.035-1.339,0.141c-0.258,0.063-0.535,0.063-0.795,0.146c-0.099,0.032-0.243,0.087-0.229-0.13
			c0.039-0.611-0.075-1.209-0.258-1.859C28.129,6.802,28.98,7.31,29.82,7.987z M16.352,4.865c1.063-0.623,2.135-1.233,3.228-1.813
			c0.222-0.118,0.284-0.063,0.361,0.142c0.225,0.597,0.4,1.2,0.492,1.854c-1.634,0.095-3.231,0.188-4.888,0.284
			C15.79,5.04,16.103,5.01,16.352,4.865z M6.891,9.836c0.742-0.259,1.4-0.694,2.117-1.019c0.148,0.479,0.005,0.94,0.063,1.396
			c0.021,0.146-0.096,0.145-0.184,0.152c-0.373,0.03-0.745,0.058-1.118,0.083c-0.36,0.022-0.61-0.207-0.873-0.402
			C6.827,9.993,6.731,9.891,6.891,9.836z M24.799,33.289c-1.224-0.128-2.443-0.035-3.66,0.116c-0.282,0.034-0.563,0.005-0.848,0.002
			c-1.164-0.013-2.324,0.076-3.486,0.159c-1.137,0.08-2.279,0.104-3.42,0.135c-0.343,0.008-0.681,0.021-1.019,0.084
			c-0.487,0.089-0.978-0.035-1.476,0.031c-0.66,0.093-1.337,0.05-2.006,0.095c-0.322,0.021-0.634,0.021-0.944-0.073
			c-0.245-0.064-0.495-0.071-0.729-0.232c-0.367-0.254-0.507-0.584-0.565-1.004c-0.114-0.82-0.279-1.637-0.388-2.463
			c-0.102-0.797-0.121-1.591-0.121-2.389c0-1.244,0.074-2.491,0.005-3.731c-0.089-1.57,0.187-3.111,0.254-4.67
			c0.035-0.798-0.02-1.599-0.025-2.397c-0.012-1.045,0.014-2.091,0.054-3.136c0.029-0.771,0.2-1.542,0.053-2.317
			c-0.014-0.075-0.055-0.173,0.041-0.226c0.07-0.037,0.135,0.019,0.192,0.059c0.346,0.248,0.714,0.297,1.138,0.222
			c0.591-0.104,1.2,0.028,1.795-0.085c0.438-0.083,0.895-0.088,1.311-0.273c0.196-0.088,0.396-0.006,0.594-0.016
			c1.364-0.07,2.727,0.022,4.091,0.03c0.89,0.005,1.781-0.083,2.671-0.148c0.926-0.065,1.851-0.176,2.778-0.168
			c0.356,0.003,0.701-0.093,1.034-0.203c0.6-0.196,1.205-0.287,1.835-0.213c0.222,0.026,0.297,0.146,0.321,0.34
			c0.229,1.735,0.501,3.466,0.609,5.219c0.069,1.126,0.162,2.259,0.117,3.379c-0.031,0.774,0.006,1.549-0.006,2.32
			c-0.022,1.456-0.117,2.912-0.021,4.371c0.055,0.782-0.018,1.571,0.009,2.354c0.027,0.834,0.013,1.668,0.021,2.501
			c0.01,0.702,0.168,1.4,0.043,2.106C25.025,33.236,25.001,33.309,24.799,33.289z M30.52,29.985
			c-1.202-0.016-2.39,0.197-3.588,0.247c-0.248,0.012-0.312-0.047-0.325-0.29c-0.067-1.225,0.019-2.445-0.001-3.67
			c-0.008-0.6-0.084-1.196-0.086-1.797c-0.006-1.697-0.184-3.383-0.357-5.063c-0.159-1.521-0.189-3.043-0.284-4.565
			c-0.04-0.638-0.218-1.249-0.233-1.886c-0.01-0.422-0.105-0.843-0.096-1.263c0.012-0.447-0.14-0.856-0.207-1.284
			c-0.094-0.603-0.396-0.775-0.998-0.896c-0.82-0.162-1.608-0.017-2.413,0.061c-0.698,0.064-1.404,0.058-2.105,0.066
			c-0.521,0.008-1.031,0.093-1.547,0.142c-0.818,0.075-1.641,0.082-2.461,0.124c-1.021,0.053-2.041-0.063-3.061-0.012
			c-0.598,0.03-1.196,0.088-1.79,0.165c-0.229,0.029-0.331,0.005-0.342-0.243c-0.037-0.902-0.083-1.807-0.129-2.71
			c-0.014-0.233,0.166-0.191,0.293-0.196c0.624-0.021,1.247-0.024,1.871-0.047c0.679-0.024,1.357-0.061,2.038-0.098
			c1.62-0.09,3.235-0.268,4.86-0.314c1.175-0.035,2.349-0.163,3.521-0.22c0.406-0.02,0.814-0.101,1.229-0.021
			c0.207,0.038,0.422-0.039,0.621-0.112c0.271-0.099,0.54-0.139,0.83-0.121c0.557,0.033,0.582,0.033,0.594,0.576
			c0.018,0.803,0.242,1.578,0.305,2.374c0.019,0.235,0.201,0.307,0.408,0.296c0.914-0.045,1.828-0.01,2.742,0.01
			c0.502,0.013,0.485,0.019,0.479,0.512c-0.012,0.54,0.068,1.081,0.057,1.621c-0.03,1.237,0.256,2.458,0.229,3.693
			c-0.009,0.34-0.028,0.683-0.033,1.021c-0.024,1.729,0.122,3.457,0.065,5.188c-0.035,1.122-0.01,2.249,0.075,3.378
			c0.068,0.9,0.061,1.823,0.047,2.736c-0.009,0.74,0.034,1.482-0.015,2.223c-0.004,0.061-0.006,0.117-0.007,0.154
			C30.68,29.885,30.682,29.987,30.52,29.985z"/>
		<path fill="#FFFFFF" d="M9.247,29.045c-0.099-1.032-0.034-2.067-0.124-3.102c-0.057-0.632-0.14-1.264-0.158-1.895
			c-0.047-1.452-0.005-2.907-0.052-4.359c-0.062-1.843-0.169-3.684-0.268-5.523c-0.014-0.257-0.07-0.515-0.125-0.769
			c-0.029-0.146-0.112-0.271-0.29-0.253c-0.16,0.019-0.248,0.124-0.276,0.279c-0.018,0.081-0.037,0.163-0.039,0.244
			c-0.026,1.035-0.06,2.067-0.073,3.104c-0.014,0.979,0.013,1.956-0.021,2.934c-0.038,1.188-0.09,2.375-0.065,3.563
			c0.021,1.166,0.111,2.33,0.113,3.495c0.001,0.932,0.051,1.858,0.114,2.787c0.051,0.703,0.07,1.411,0.064,2.116
			c-0.004,0.454,0.124,0.708,0.484,0.765c0.371,0.057,0.754-0.219,0.838-0.656c0.002-0.027,0.012-0.109,0.008-0.191
			C9.339,30.735,9.326,29.887,9.247,29.045z"/>
		<path fill="#FFFFFF" d="M18.721,23.067c-0.006-0.524,0.002-1.059-0.133-1.577c-0.084-0.324-0.275-0.519-0.602-0.568
			c-0.645-0.104-1.288-0.104-1.93,0.032c-1.081,0.229-1.283,0.275-1.525,1.495c-0.143,0.704-0.146,1.449-0.052,2.177
			c0.085,0.643,0.103,1.288,0.146,1.933c0.025,0.409-0.086,0.837,0.188,1.23c0.312,0.439,0.718,0.668,1.267,0.75
			c0.37,0.149,0.78-0.003,1.188,0.023c0.658,0.045,1.322-0.404,1.492-1.043c0.19-0.715,0.149-1.438,0.113-2.168
			C18.84,24.591,18.73,23.834,18.721,23.067z M17.309,27.466c-0.404-0.072-0.814-0.104-1.227-0.146
			c-0.208-0.021-0.299-0.115-0.317-0.336c-0.08-0.95-0.057-1.896,0.046-2.848c0.07-0.65,0.063-1.313,0.046-1.969
			c-0.005-0.246,0.077-0.289,0.276-0.271c0.316,0.028,0.633,0.066,0.95,0.078c0.147,0.005,0.163,0.075,0.184,0.193
			c0.225,1.331,0.445,2.662,0.489,4.014c0.011,0.316,0.015,0.632,0.021,0.948C17.728,27.401,17.608,27.52,17.309,27.466z"/>
		<path fill="#FFFFFF" d="M17.154,19.089c0.724-0.383,1.165-0.973,1.319-1.778c0.092-0.454,0.063-0.575-0.012-0.831
			c-0.35-1.22-2.329-1.348-3.074-0.761c-0.593,0.468-0.94,1.66-0.677,2.369c0.107,0.293,0.351,0.468,0.547,0.683
			C15.653,19.206,16.632,19.366,17.154,19.089z M15.71,16.887c0.096-0.52,0.46-0.662,1.28-0.502c0.33,0.065,0.563,0.47,0.483,0.856
			c-0.085,0.428-0.617,0.842-0.991,0.771C15.837,17.893,15.591,17.536,15.71,16.887z"/>
	</g>
</g>
</svg>
