<?xml version="1.0" encoding="utf-8"?>
<!-- Generator: Adobe Illustrator 26.0.3, SVG Export Plug-In . SVG Version: 6.00 Build 0)  -->
<svg version="1.1" id="图层_1" xmlns="http://www.w3.org/2000/svg" xmlns:xlink="http://www.w3.org/1999/xlink" x="0px" y="0px"
	 viewBox="0 0 42.52 42.52" style="enable-background:new 0 0 42.52 42.52;" xml:space="preserve">
<style type="text/css">
	.st0{fill:#fff;}
	.st1{fill-rule:evenodd;clip-rule:evenodd;fill:#fff;}
</style>
<g>
	<path class="st0" d="M22.79,18.4c-0.48,0.59-0.79,1.27-1.11,1.96c-0.04,0.1-0.09,0.19-0.13,0.29c-0.11,0.25-0.26,0.49-0.46,0.63
		c-0.32,0.23-0.58,0.52-0.84,0.81c-0.19,0.21-0.38,0.42-0.59,0.61c-0.24,0.21-0.41,0.47-0.58,0.74c-0.11,0.17-0.22,0.33-0.35,0.49
		c-0.21,0.26-0.15,0.59,0.09,0.84c0.77,0.81,0.7,1.8,0.64,2.79c0,0.04-0.01,0.08-0.01,0.13c-0.01,0.23-0.16,0.3-0.35,0.27
		c-0.63-0.12-1.26-0.09-1.89-0.05c-0.27,0.01-0.54,0.03-0.8,0.03c-0.36,0-0.72-0.01-1.08-0.03c-0.55-0.02-1.1-0.05-1.65-0.01
		c-0.59,0.04-1.21,0.04-1.81-0.08c-0.19-0.04-0.2-0.15-0.21-0.26c0-0.02,0-0.03,0-0.05c-0.06-0.63-0.12-1.26-0.16-1.89
		c-0.01-0.16-0.04-0.31-0.07-0.46c-0.01-0.03-0.01-0.06-0.02-0.09c-0.04-0.18-0.11-0.34-0.31-0.37c-0.21-0.03-0.37,0.08-0.46,0.25
		c-0.12,0.22-0.24,0.46-0.28,0.7c-0.11,0.7-0.19,1.41-0.25,2.12c-0.02,0.19-0.03,0.28-0.25,0.3c-0.29,0.02-0.59,0.07-0.88,0.11
		c-0.07,0.01-0.15,0.02-0.22,0.03c-0.25,0.04-0.33-0.06-0.31-0.31c0.01-0.13,0.01-0.25,0.01-0.38c0-0.06,0-0.11,0-0.17
		c-0.01-0.52,0.05-1.03,0.12-1.54c0.01-0.11,0.03-0.22,0.04-0.32c0.06-0.44,0.31-0.78,0.56-1.12c0.07-0.1,0.14-0.19,0.21-0.29
		c0.32-0.47,0.7-0.89,1.08-1.31c0.25-0.27,0.5-0.54,0.73-0.83c0.34-0.41,0.38-1,0.01-1.41c-0.36-0.4-0.54-0.85-0.59-1.36
		c0-0.04-0.01-0.08-0.01-0.11c-0.08-0.82-0.16-1.65,0.23-2.41c0.45-0.87,1.15-1.52,2.07-1.87c0.66-0.25,1.34-0.47,2.06-0.53l0,0
		c0.15-0.02,0.29-0.03,0.41,0.05c0.23,0.14,0.49,0.22,0.74,0.29c0.07,0.02,0.15,0.04,0.22,0.07c1,0.31,1.34,0.81,1.35,1.86
		c0,1.04-0.24,2.04-0.53,3.02c-0.1,0.34-0.14,0.68-0.11,1.02c0.04,0.46,0.3,0.57,0.75,0.52c0.52-0.06,0.77-0.39,1.03-0.74
		c0.08-0.1,0.16-0.21,0.24-0.31c0.27-0.31,0.51-0.63,0.76-0.96c0.37-0.5,0.74-1,1.2-1.41c0.03-0.03,0.06-0.05,0.08-0.08
		c0.06-0.06,0.11-0.12,0.18-0.15c0.05-0.03,0.1-0.06,0.15-0.09c0.27-0.16,0.56-0.32,0.88-0.17c0.27,0.13,0.34,0.39,0.41,0.66
		c0.03,0.11,0.06,0.22,0.11,0.32C22.9,18.23,22.85,18.33,22.79,18.4z M23.79,16.99c-0.48-0.9-1.65-1.24-2.51-0.98
		c-0.62,0.18-1.12,0.58-1.45,1.17c0,0.01-0.01,0.02-0.01,0.03c-0.09,0.16-0.18,0.32-0.43,0.42c0.06-0.45,0-0.86-0.06-1.26
		c-0.02-0.11-0.04-0.22-0.05-0.33c-0.07-0.52-0.28-0.98-0.68-1.35c-0.74-0.7-1.67-0.99-2.59-1.28c-0.25-0.08-0.51-0.16-0.76-0.24
		c-0.33-0.12-0.68-0.13-1.03-0.15C14,13,13.77,12.99,13.55,12.96c-0.73-0.13-1.46,0.04-2.09,0.44c-0.16,0.1-0.3,0.23-0.43,0.36
		c-0.12,0.12-0.25,0.23-0.39,0.33c-0.58,0.41-0.9,0.98-1.09,1.66c-0.32,1.15-0.3,2.31-0.21,3.47c0.05,0.67,0.21,1.34,0.73,1.87
		c-0.42,0.34-0.78,0.73-1.13,1.12c-0.02,0.03-0.05,0.05-0.07,0.08C8.37,22.83,8,23.43,7.85,24.22c-0.25,1.31-0.36,2.62-0.35,3.94
		c0.01,0.99,0.58,1.54,1.37,1.35c0.24-0.06,0.49-0.09,0.74-0.11c0.43-0.05,0.86-0.1,1.27-0.3c0.07-0.04,0.13,0,0.18,0.04
		c0.02,0.02,0.05,0.03,0.07,0.04c0.38,0.18,0.77,0.33,1.19,0.4c0.66,0.12,1.32,0.11,1.98,0.11c0.23,0,0.46,0,0.7,0
		c1.32,0.02,2.64,0.02,3.97,0.02c0.26,0,0.53,0,0.79,0c0.41,0,0.79-0.09,1.12-0.35c0.27-0.22,0.39-0.51,0.31-0.84
		c-0.06-0.23-0.07-0.45-0.06-0.67c0.04-1.12,0.03-2.23-0.65-3.19c-0.19-0.26-0.11-0.42,0.07-0.61c0.21-0.22,0.41-0.43,0.61-0.65
		c0.42-0.45,0.84-0.9,1.28-1.32c1.03-0.96,1.55-2.18,1.89-3.5c0.02-0.08,0.01-0.17,0.01-0.26c0-0.04-0.01-0.09-0.01-0.13
		c-0.01-0.34-0.18-0.62-0.35-0.89C23.9,17.19,23.84,17.09,23.79,16.99z M32.61,27.36c-0.29,0.06-0.57,0.03-0.85,0
		c-0.22-0.02-0.45-0.05-0.67-0.03c-0.08,0.01-0.17,0.02-0.26,0.03c-0.26,0.03-0.52,0.06-0.75,0.03c-0.57-0.07-1.1,0.02-1.64,0.11
		c-0.14,0.02-0.29,0.05-0.44,0.07c-0.39,0.06-0.56,0.4-0.42,0.76c0.15,0.41,0.5,0.65,0.98,0.67c0.23,0.01,0.46-0.01,0.69-0.03
		c0.34-0.03,0.67-0.06,0.97,0.02c0.19-0.01,0.37-0.03,0.55-0.04c0.56-0.04,1.09-0.08,1.62-0.13c0.17-0.02,0.34-0.08,0.48-0.17
		c0.31-0.2,0.4-0.52,0.33-0.87C33.14,27.48,32.87,27.3,32.61,27.36z M32.62,24.16c-0.54-0.13-1.08-0.09-1.61-0.05
		c-0.13,0.01-0.27,0.02-0.4,0.03c-0.27,0.01-0.55,0.06-0.81,0.11c-0.48,0.09-0.94,0.17-1.38,0.05c-0.27,0-0.46,0-0.63,0.08
		c-0.32,0.12-0.56,0.33-0.51,0.71c0.04,0.36,0.3,0.55,0.65,0.59c0.16,0.02,0.32,0.02,0.48,0.01c0.13-0.01,0.25-0.02,0.38-0.04
		c0.2-0.02,0.41-0.05,0.61-0.04c0.98,0.05,1.93-0.08,2.9-0.21c0.13-0.02,0.25-0.03,0.38-0.05c0.34-0.04,0.61-0.2,0.59-0.57
		C33.23,24.42,32.96,24.24,32.62,24.16z M28.47,14.13c0.01,0,0.03,0,0.05,0c0.06,0,0.15,0,0.24,0c0.51-0.03,0.82-0.28,0.83-0.67
		c0.01-0.37-0.41-0.82-0.83-0.82c-0.01,0-0.03,0-0.04,0c-0.41,0.01-0.83,0.02-1.21,0.15c-0.31,0.11-0.52,0.35-0.51,0.69
		c0.02,0.33,0.26,0.5,0.57,0.57C27.85,14.12,28.12,14.17,28.47,14.13z M32.5,12.69c-0.27-0.02-0.54,0.09-0.79,0.24
		c-0.2,0.13-0.32,0.32-0.28,0.57c0.04,0.25,0.21,0.4,0.44,0.46c0.2,0.05,0.41,0.08,0.62,0.1c0.49,0.03,0.85-0.25,0.87-0.66
		C33.38,12.98,33.03,12.69,32.5,12.69z"/>
	<path class="st1" d="M39.16,13.63c0.04,0.79,0.04,1.58,0.03,2.38c0,0.55-0.01,1.11,0.01,1.66c0.03,1.45-0.02,2.89-0.06,4.34
		l-0.01,0.4c-0.01,0.25-0.02,0.5-0.03,0.75c-0.04,1.11-0.08,2.22-0.01,3.33c0.08,1.18,0.01,2.35-0.05,3.52
		c-0.02,0.37-0.04,0.74-0.06,1.11c-0.01,0.3-0.05,0.61-0.08,0.91c-0.04,0.36-0.08,0.72-0.09,1.08c-0.01,0.46-0.47,0.82-0.95,0.93
		c-0.4,0.1-0.79,0.05-1.19,0C36.45,34.03,36.23,34,36.01,34c-0.9,0-1.8,0.07-2.71,0.16c-0.84,0.08-1.68,0.1-2.51,0.11l-0.25,0
		c-0.23,0.01-0.46,0.01-0.7,0.01c-0.61,0.01-1.23,0.01-1.84,0.08c-0.5,0.06-1.02,0.05-1.53,0.05c-0.23,0-0.46,0-0.69,0
		c-0.38,0.01-0.76,0.05-1.14,0.08c-0.47,0.05-0.95,0.1-1.42,0.08c-0.72-0.01-1.43-0.01-2.15,0c-0.67,0-1.35,0.01-2.02,0
		c-0.2,0-0.4-0.03-0.61-0.06c-0.24-0.03-0.48-0.07-0.73-0.06c-0.49,0.01-0.97,0.02-1.46,0.02c-0.82,0.01-1.64,0.01-2.46,0.06
		c-0.66,0.04-1.31,0.1-1.97,0.16c-0.89,0.08-1.79,0.16-2.69,0.19c-1.26,0.05-2.47-0.16-3.69-0.36c-0.73-0.13-1.37-0.9-1.56-1.6
		c-0.23-0.87-0.22-1.75-0.21-2.62c0.01-0.46,0.02-0.93-0.01-1.39c-0.08-1.3-0.14-2.6-0.19-3.91c-0.01-0.47-0.04-0.93-0.07-1.4
		c-0.04-0.76-0.09-1.51-0.08-2.27c0-0.36,0.02-0.72,0.04-1.08c0.02-0.54,0.05-1.08,0.04-1.61c-0.01-0.49-0.01-0.97,0-1.46
		c0-0.72,0.01-1.43-0.03-2.15c-0.06-1.33-0.03-2.66,0.09-3.99c0.02-0.26,0.03-0.52,0.03-0.77c0-0.1,0-0.19,0-0.29
		c0.02-0.8,0.36-1.04,1.21-1.3c0.8-0.24,1.62-0.29,2.39-0.33c0.39-0.02,0.76-0.04,1.1-0.08c1.15-0.02,2.26-0.11,3.33-0.2
		c1.11-0.09,2.18-0.18,3.27-0.19c0.58,0,1.17,0.01,1.75,0.03c0.49,0.02,0.97,0.03,1.46,0.03c0.65,0.01,1.3-0.03,1.95-0.06
		c0.39-0.02,0.78-0.04,1.18-0.05c0.21-0.01,0.41-0.02,0.62-0.04c0.63-0.04,1.27-0.09,1.9,0.1c0.31,0.09,0.64,0.05,0.96,0.01
		c0.12-0.01,0.23-0.03,0.35-0.03c1.06-0.07,2.12-0.02,3.18,0.03c0.54,0.03,1.07,0.05,1.61,0.06l0.07,0c0.82,0.02,1.67,0.03,2.49-0.2
		c0.51-0.14,1.04-0.15,1.57-0.05c0.01,0,0.02,0,0.04,0.01c0.07,0.01,0.13,0.02,0.2,0.01c0.75-0.2,1.49-0.1,2.23,0
		c0.27,0.03,0.54,0.07,0.8,0.09c0.5,0.04,0.95,0.47,1.34,0.85c0.33,0.32,0.45,0.72,0.46,1.19c0.01,0.26,0.03,0.52,0.05,0.78
		c0.03,0.34,0.06,0.67,0.05,1c-0.02,0.43,0.02,0.86,0.06,1.29C39.13,13.16,39.15,13.4,39.16,13.63z M37.53,28.6
		c-0.03,0.45-0.03,0.9-0.03,1.35c0,0.51,0,1.03-0.04,1.54c-0.02,0.2-0.06,0.4-0.1,0.6c-0.04,0.19-0.08,0.38-0.1,0.56
		c-0.02,0.13-0.12,0.16-0.23,0.18c-0.01,0-0.03,0.01-0.04,0.01c-0.35,0.08-0.7,0.15-1.06,0.14c-0.95-0.12-1.89-0.02-2.84,0.08
		c-0.54,0.06-1.09,0.11-1.63,0.13c-0.36,0.01-0.71,0.01-1.07,0.02c-0.71,0.01-1.43,0.02-2.14,0.06c-1.31,0.07-2.61,0.07-3.92,0.06
		c-1.98-0.01-3.96,0.01-5.95,0.03c-0.33,0-0.66,0.01-0.99,0.01c-1.7,0.02-3.4,0.01-5.1-0.02c-1.61-0.03-3.22-0.12-4.82-0.22
		c-0.67-0.05-1.34-0.11-1.98-0.37c-0.24-0.09-0.35-0.23-0.36-0.5c0-0.15-0.01-0.29-0.01-0.44c-0.02-1.16-0.05-2.32-0.15-3.48
		c-0.02-0.28-0.02-0.56-0.01-0.85c0.01-0.33,0.01-0.67-0.02-1c-0.06-0.56-0.07-1.12-0.08-1.68c-0.01-0.34-0.01-0.67-0.03-1.01
		c-0.05-0.92,0.02-1.84,0.08-2.76c0.02-0.25,0.04-0.51,0.05-0.76c0.03-0.39,0.03-0.77,0.04-1.16c0.01-0.41,0.02-0.82,0.04-1.22
		c0.06-0.82,0.05-1.63,0.04-2.45c0-0.12,0-0.24,0-0.35c-0.01-0.74,0.01-1.47,0.02-2.21c0.02-0.94,0.04-1.88,0.01-2.82
		C5.12,9.69,5.27,9.53,5.65,9.61c0.44,0.1,0.88,0.06,1.31,0.02C7.17,9.62,7.38,9.6,7.59,9.6C8.19,9.6,8.8,9.58,9.4,9.57
		c0.2,0,0.39-0.01,0.59-0.01c0.39,0,0.8-0.03,1.18-0.09c0.71-0.12,1.42-0.15,2.13-0.18c1.13-0.05,2.26-0.09,3.4-0.08
		c0.35,0,0.7-0.01,1.06-0.02c0.65-0.02,1.29-0.04,1.94,0.02c0.27,0.03,0.55,0.04,0.82,0.05c0.39,0.02,0.77,0.04,1.16,0.09
		c0.65,0.09,1.3-0.02,1.93-0.14c0.59-0.11,1.18-0.12,1.77-0.13c0.12,0,0.24,0,0.36-0.01c1.56-0.04,3.12-0.04,4.68-0.04
		c0.87,0,1.74,0.08,2.6,0.19c0.63,0.07,1.26,0.03,1.9-0.01c0.31-0.02,0.61-0.04,0.92-0.05c0.35-0.01,0.68,0.03,1.02,0.06
		c0.24,0.03,0.36,0.21,0.36,0.45c0,0.96,0.05,1.92,0.11,2.89c0.04,0.71,0.08,1.43,0.09,2.14c0.02,0.6,0.01,1.19,0,1.79
		c-0.01,0.32-0.01,0.63-0.01,0.95c0,0.26-0.01,0.53-0.01,0.8c-0.01,0.64-0.02,1.29,0.03,1.92c0.07,0.86,0.06,1.72,0.05,2.57
		c-0.01,0.82-0.02,1.64,0.04,2.46C37.59,26.33,37.61,27.47,37.53,28.6z M21.27,16c0.86-0.26,2.04,0.09,2.51,0.98
		c0.05,0.1,0.11,0.2,0.18,0.3c0.17,0.27,0.34,0.55,0.35,0.89c0,0.04,0,0.09,0.01,0.13c0.01,0.09,0.01,0.17-0.01,0.26
		c-0.34,1.33-0.86,2.54-1.89,3.5c-0.45,0.42-0.86,0.87-1.28,1.32c-0.2,0.22-0.41,0.44-0.61,0.65c-0.18,0.19-0.26,0.35-0.07,0.61
		c0.69,0.96,0.69,2.07,0.65,3.19c-0.01,0.22,0,0.44,0.06,0.67c0.08,0.33-0.03,0.62-0.31,0.84c-0.33,0.26-0.71,0.35-1.12,0.35
		c-0.26,0-0.53,0-0.79,0c-1.32,0-2.64,0.01-3.97-0.02c-0.23,0-0.46,0-0.7,0c-0.66,0.01-1.32,0.01-1.98-0.11
		c-0.42-0.08-0.81-0.22-1.19-0.4c-0.02-0.01-0.05-0.03-0.07-0.04c-0.05-0.04-0.11-0.07-0.18-0.04c-0.4,0.2-0.83,0.25-1.27,0.3
		c-0.25,0.03-0.5,0.06-0.74,0.11c-0.79,0.19-1.36-0.36-1.37-1.35c-0.01-1.32,0.1-2.63,0.35-3.94c0.16-0.79,0.53-1.39,1.04-1.95
		l0.07-0.08c0.35-0.38,0.71-0.77,1.13-1.12c-0.53-0.54-0.68-1.2-0.73-1.87c-0.09-1.16-0.11-2.32,0.21-3.47
		c0.19-0.67,0.5-1.24,1.09-1.66c0.14-0.1,0.26-0.21,0.39-0.33c0.14-0.13,0.28-0.26,0.43-0.36c0.63-0.4,1.36-0.57,2.09-0.44
		c0.22,0.04,0.44,0.05,0.66,0.06c0.35,0.02,0.69,0.03,1.03,0.15c0.25,0.09,0.5,0.17,0.76,0.24c0.93,0.29,1.85,0.57,2.59,1.28
		c0.4,0.38,0.61,0.83,0.68,1.35c0.01,0.11,0.03,0.22,0.05,0.33c0.06,0.4,0.13,0.81,0.06,1.26c0.25-0.1,0.34-0.26,0.43-0.42
		l0.01-0.03C20.15,16.59,20.66,16.18,21.27,16z M31.75,27.36c0.28,0.03,0.57,0.06,0.85,0c0.27-0.06,0.53,0.12,0.59,0.42
		c0.07,0.35-0.02,0.67-0.33,0.87c-0.14,0.09-0.32,0.16-0.48,0.17c-0.53,0.05-1.06,0.09-1.62,0.13c-0.18,0.01-0.36,0.03-0.55,0.04
		c-0.3-0.08-0.63-0.05-0.97-0.02c-0.23,0.02-0.46,0.04-0.69,0.03c-0.49-0.03-0.84-0.26-0.98-0.67c-0.13-0.36,0.03-0.71,0.42-0.76
		c0.15-0.02,0.29-0.05,0.44-0.07c0.54-0.09,1.07-0.18,1.64-0.11c0.24,0.03,0.5,0,0.75-0.03c0.09-0.01,0.18-0.02,0.26-0.03
		C31.31,27.31,31.53,27.34,31.75,27.36z M31.01,24.11c0.54-0.04,1.07-0.08,1.61,0.05c0.34,0.08,0.6,0.26,0.62,0.62
		c0.02,0.37-0.25,0.53-0.59,0.57c-0.13,0.02-0.25,0.03-0.38,0.05c-0.96,0.13-1.92,0.26-2.9,0.21c-0.2-0.01-0.41,0.01-0.61,0.04
		c-0.13,0.01-0.25,0.03-0.38,0.04c-0.16,0.01-0.32,0.01-0.48-0.01c-0.35-0.04-0.6-0.23-0.65-0.59c-0.05-0.38,0.2-0.58,0.51-0.71
		c0.18-0.07,0.36-0.08,0.63-0.08c0.44,0.12,0.91,0.04,1.38-0.05c0.27-0.05,0.54-0.1,0.81-0.11C30.75,24.13,30.88,24.12,31.01,24.11z
		 M28.52,14.13c-0.02,0-0.04,0-0.05,0c-0.35,0.04-0.62-0.01-0.89-0.08c-0.32-0.07-0.56-0.24-0.57-0.57
		c-0.02-0.34,0.19-0.57,0.51-0.69c0.39-0.13,0.81-0.14,1.21-0.15l0.04,0c0.42,0,0.84,0.45,0.83,0.82c-0.01,0.39-0.33,0.65-0.83,0.67
		C28.67,14.14,28.58,14.13,28.52,14.13z M31.7,12.93c0.25-0.15,0.52-0.26,0.79-0.24c0.53,0,0.88,0.29,0.86,0.7
		c-0.02,0.41-0.38,0.7-0.87,0.66c-0.21-0.01-0.42-0.04-0.62-0.1c-0.23-0.06-0.4-0.21-0.44-0.46C31.38,13.25,31.5,13.06,31.7,12.93z
		 M21.69,20.36c0.31-0.68,0.62-1.37,1.11-1.96c0.06-0.08,0.11-0.18,0.07-0.26c-0.05-0.1-0.08-0.21-0.11-0.32
		c-0.07-0.26-0.14-0.53-0.41-0.66c-0.32-0.15-0.6,0.01-0.88,0.17c-0.05,0.03-0.1,0.06-0.15,0.09c-0.07,0.04-0.13,0.1-0.18,0.15
		c-0.03,0.03-0.05,0.06-0.08,0.08c-0.46,0.42-0.83,0.92-1.2,1.41c-0.24,0.33-0.49,0.66-0.76,0.96c-0.09,0.1-0.17,0.21-0.24,0.31
		c-0.26,0.35-0.51,0.68-1.03,0.74c-0.45,0.05-0.71-0.06-0.75-0.52c-0.03-0.35,0.01-0.68,0.11-1.02c0.3-0.98,0.54-1.98,0.53-3.02
		c0-1.05-0.35-1.55-1.35-1.86c-0.07-0.02-0.15-0.04-0.22-0.07c-0.26-0.07-0.51-0.15-0.74-0.29c-0.13-0.08-0.27-0.07-0.41-0.05l0,0
		c-0.72,0.06-1.4,0.27-2.06,0.53c-0.92,0.36-1.62,1-2.07,1.87c-0.39,0.76-0.31,1.6-0.23,2.41c0,0.04,0.01,0.08,0.01,0.11
		c0.05,0.51,0.23,0.95,0.59,1.36c0.37,0.41,0.33,0.99-0.01,1.41c-0.23,0.29-0.48,0.56-0.73,0.83c-0.38,0.42-0.76,0.84-1.08,1.31
		c-0.07,0.1-0.14,0.19-0.21,0.29c-0.25,0.34-0.51,0.68-0.56,1.12c-0.01,0.11-0.03,0.22-0.04,0.32c-0.07,0.51-0.13,1.02-0.12,1.54
		c0,0.06,0,0.11,0,0.17c0,0.13,0.01,0.26-0.01,0.38c-0.03,0.25,0.06,0.35,0.31,0.31c0.07-0.01,0.15-0.02,0.22-0.03
		c0.29-0.05,0.59-0.09,0.88-0.11c0.22-0.01,0.24-0.11,0.25-0.3c0.06-0.71,0.14-1.42,0.25-2.12c0.03-0.24,0.16-0.48,0.28-0.7
		c0.09-0.16,0.26-0.28,0.46-0.25c0.2,0.03,0.27,0.19,0.31,0.37c0.01,0.03,0.01,0.06,0.02,0.09c0.03,0.15,0.06,0.3,0.07,0.46
		c0.04,0.63,0.1,1.26,0.16,1.89c0,0.02,0,0.03,0,0.05c0.01,0.11,0.01,0.22,0.21,0.26c0.6,0.12,1.23,0.12,1.81,0.08
		c0.55-0.04,1.1-0.01,1.65,0.01c0.36,0.02,0.72,0.03,1.08,0.03c0.27,0,0.53-0.02,0.8-0.03c0.63-0.03,1.26-0.07,1.89,0.05
		c0.19,0.03,0.34-0.04,0.35-0.27c0-0.04,0.01-0.08,0.01-0.13c0.06-0.99,0.12-1.98-0.64-2.79c-0.23-0.25-0.3-0.58-0.09-0.84
		c0.13-0.15,0.24-0.32,0.35-0.49c0.17-0.26,0.35-0.53,0.58-0.74c0.21-0.19,0.4-0.4,0.59-0.61c0.26-0.29,0.52-0.58,0.84-0.81
		c0.2-0.15,0.35-0.39,0.46-0.63C21.6,20.56,21.64,20.46,21.69,20.36z"/>
</g>
</svg>
