<svg width="32" height="32" viewBox="0 0 32 32" fill="none" xmlns="http://www.w3.org/2000/svg">
<path d="M28.195 6.32541C28.2211 7.60145 27.7992 8.60145 26.9086 9.36187C26.07 10.0806 25.3044 10.8723 24.4086 11.5337C23.8825 11.9244 23.4554 12.4504 22.8408 12.7317C22.7367 12.7785 22.6638 12.9087 22.5961 13.0129C22.2419 13.5494 21.794 13.9764 21.2211 14.2837C20.7158 14.5598 20.7315 14.7212 21.0804 15.1796C21.6169 15.8723 22.3096 16.4087 22.8721 17.0702C23.971 18.3671 25.0335 19.7004 26.1221 21.0077C26.669 21.6639 27.2263 22.3098 27.8096 22.9296C28.8877 24.0754 29.1898 25.3723 28.6742 26.8619C28.6325 26.9817 28.5856 27.0962 28.544 27.216C27.6429 29.6692 24.9971 30.5181 22.8096 29.0598C21.9919 28.5129 21.3409 27.8046 20.6638 27.0962C19.7471 26.1483 19.0283 25.0598 18.1586 24.091C17.7783 23.6692 17.419 23.2264 17.0908 22.7629C16.5388 21.9764 15.9711 21.2004 15.4138 20.4139C15.2575 20.19 15.1325 20.1067 14.8565 20.315C14.1742 20.8254 13.7888 21.591 13.1846 22.1692C12.0544 23.2473 11.2106 24.591 9.99709 25.6014C9.66375 25.8827 9.35646 26.2108 9.09084 26.565C8.54917 27.2889 7.75752 27.7108 7.06481 28.2525C6.23147 28.8931 4.90855 28.8827 3.93459 28.2785C3.11167 27.7733 2.60648 26.6171 2.8044 25.6014C3.01273 24.4921 3.50751 23.5077 4.26271 22.6692C4.60646 22.2889 4.84086 21.841 5.1169 21.4244C6.25753 19.7108 7.695 18.2369 8.95021 16.6171C9.3148 16.1483 9.84084 15.8254 10.1221 15.2629C10.2263 15.0494 10.2211 14.9504 10.0648 14.7837C8.94502 13.5858 7.88772 12.3306 6.87731 11.0389C6.15856 10.1171 5.42418 9.21082 4.67418 8.3202C4.11689 7.65353 3.79396 6.85145 3.55959 6.03374C3.13771 4.58061 4.76272 2.97124 6.31481 3.3202C7.29918 3.54416 8.24189 3.89311 9.06481 4.53374C9.50231 4.8827 10.0596 5.07541 10.5492 5.36186C10.8617 5.54416 11.195 5.72645 11.4398 5.98166C12.1065 6.66916 12.919 7.16395 13.6273 7.78895C14.2263 8.30978 14.6481 8.98687 15.2419 9.51291C15.4398 9.68999 15.544 9.74728 15.7106 9.50249C16.1273 8.87749 16.6742 8.39311 17.3044 7.98166C17.6846 7.73687 18.0231 7.40874 18.2783 7.01811C18.6325 6.47124 19.2158 6.17957 19.6846 5.76291C20.8825 4.70561 22.1429 3.81499 23.6846 3.21603C25.8877 2.36707 28.294 4.14832 28.195 6.32541Z" fill="white"/>
</svg>
