<svg width="120" height="120" viewBox="0 0 120 120" fill="none" xmlns="http://www.w3.org/2000/svg">
<circle cx="60" cy="60" r="60" fill="#26A8A8"/>
<path d="M85.6249 34.375C84.1204 32.8604 82.3311 31.6584 80.3601 30.8381C78.3891 30.0179 76.2754 29.5956 74.1405 29.5956C72.0057 29.5956 69.8919 30.0179 67.9209 30.8381C65.9499 31.6584 64.1607 32.8604 62.6562 34.375L56.4686 40.5625C56.0378 41.0381 55.8062 41.6611 55.822 42.3027C55.8378 42.9442 56.0997 43.5551 56.5535 44.0089C57.0073 44.4627 57.6182 44.7246 58.2597 44.7404C58.9013 44.7562 59.5243 44.5246 59.9999 44.0938L66.1874 37.9063C68.3011 35.8052 71.1603 34.6259 74.1405 34.6259C77.1208 34.6259 79.98 35.8052 82.0937 37.9063C83.1415 38.9487 83.973 40.188 84.5404 41.5529C85.1078 42.9177 85.3999 44.3813 85.3999 45.8594C85.3999 47.3375 85.1078 48.801 84.5404 50.1659C83.973 51.5307 83.1415 52.77 82.0937 53.8125L73.2499 62.6562C71.1362 64.7573 68.277 65.9366 65.2968 65.9366C62.3165 65.9366 59.4573 64.7573 57.3437 62.6562C57.1163 62.4053 56.8402 62.2031 56.5323 62.0621C56.2245 61.921 55.8911 61.844 55.5526 61.8356C55.214 61.8273 54.8773 61.8878 54.5628 62.0136C54.2484 62.1393 53.9627 62.3276 53.7233 62.5671C53.4838 62.8066 53.2955 63.0922 53.1697 63.4067C53.044 63.7211 52.9834 64.0579 52.9918 64.3964C53.0001 64.735 53.0772 65.0683 53.2182 65.3762C53.3593 65.6841 53.5614 65.9601 53.8124 66.1875C56.8594 69.2312 60.99 70.9409 65.2968 70.9409C69.6035 70.9409 73.7342 69.2312 76.7812 66.1875L85.6249 57.3438C87.1395 55.8392 88.3415 54.05 89.1618 52.079C89.982 50.108 90.4043 47.9942 90.4043 45.8594C90.4043 43.7245 89.982 41.6108 89.1618 39.6398C88.3415 37.6688 87.1395 35.8795 85.6249 34.375Z" fill="white"/>
<path d="M59.9999 75.9062L53.8124 82.0937C51.6881 84.129 48.851 85.251 45.9092 85.2195C42.9674 85.188 40.1551 84.0054 38.0748 81.9251C35.9945 79.8449 34.8119 77.0325 34.7804 74.0907C34.7489 71.1489 35.871 68.3119 37.9062 66.1875L46.7499 57.3437C48.8636 55.2427 51.7228 54.0634 54.703 54.0634C57.6833 54.0634 60.5425 55.2427 62.6562 57.3437C63.1317 57.7746 63.7548 58.0062 64.3963 57.9904C65.0379 57.9746 65.6488 57.7127 66.1026 57.2589C66.5563 56.8051 66.8182 56.1942 66.834 55.5527C66.8498 54.9111 66.6183 54.288 66.1874 53.8125C63.1405 50.7688 59.0098 49.0591 54.703 49.0591C50.3963 49.0591 46.2656 50.7688 43.2187 53.8125L34.3749 62.6562C32.785 64.1457 31.5108 65.9396 30.6282 67.9314C29.7455 69.9231 29.2723 72.072 29.2368 74.2503C29.2013 76.4286 29.6041 78.5918 30.4214 80.6113C31.2386 82.6308 32.4536 84.4653 33.9941 86.0058C35.5346 87.5463 37.3691 88.7613 39.3886 89.5785C41.4081 90.3958 43.5713 90.7987 45.7496 90.7631C47.9279 90.7276 50.0768 90.2544 52.0685 89.3718C54.0603 88.4891 55.8542 87.2149 57.3437 85.625L63.5312 79.4375C63.9621 78.9619 64.1936 78.3389 64.1778 77.6973C64.162 77.0558 63.9001 76.4449 63.4463 75.9911C62.9925 75.5373 62.3816 75.2754 61.7401 75.2596C61.0985 75.2438 60.4755 75.4753 59.9999 75.9062Z" fill="white"/>
<path d="M85.6249 34.375C84.1204 32.8604 82.3311 31.6584 80.3601 30.8381C78.3891 30.0179 76.2754 29.5956 74.1405 29.5956C72.0057 29.5956 69.8919 30.0179 67.9209 30.8381C65.9499 31.6584 64.1607 32.8604 62.6562 34.375L56.4686 40.5625C56.0378 41.0381 55.8062 41.6611 55.822 42.3027C55.8378 42.9442 56.0997 43.5551 56.5535 44.0089C57.0073 44.4627 57.6182 44.7246 58.2597 44.7404C58.9013 44.7562 59.5243 44.5246 59.9999 44.0938L66.1874 37.9063C68.3011 35.8052 71.1603 34.6259 74.1405 34.6259C77.1208 34.6259 79.98 35.8052 82.0937 37.9063C83.1415 38.9487 83.973 40.188 84.5404 41.5529C85.1078 42.9177 85.3999 44.3813 85.3999 45.8594C85.3999 47.3375 85.1078 48.801 84.5404 50.1659C83.973 51.5307 83.1415 52.77 82.0937 53.8125L73.2499 62.6562C71.1362 64.7573 68.277 65.9366 65.2968 65.9366C62.3165 65.9366 59.4573 64.7573 57.3437 62.6562C57.1163 62.4053 56.8402 62.2031 56.5323 62.0621C56.2245 61.921 55.8911 61.844 55.5526 61.8356C55.214 61.8273 54.8773 61.8878 54.5628 62.0136C54.2484 62.1393 53.9627 62.3276 53.7233 62.5671C53.4838 62.8066 53.2955 63.0922 53.1697 63.4067C53.044 63.7211 52.9834 64.0579 52.9918 64.3964C53.0001 64.735 53.0772 65.0683 53.2182 65.3762C53.3593 65.6841 53.5614 65.9601 53.8124 66.1875C56.8594 69.2312 60.99 70.9409 65.2968 70.9409C69.6035 70.9409 73.7342 69.2312 76.7812 66.1875L85.6249 57.3438C87.1395 55.8392 88.3415 54.05 89.1618 52.079C89.982 50.108 90.4043 47.9942 90.4043 45.8594C90.4043 43.7245 89.982 41.6108 89.1618 39.6398C88.3415 37.6688 87.1395 35.8795 85.6249 34.375Z" stroke="white" stroke-width="2"/>
<path d="M59.9999 75.9062L53.8124 82.0937C51.6881 84.129 48.851 85.251 45.9092 85.2195C42.9674 85.188 40.1551 84.0054 38.0748 81.9251C35.9945 79.8449 34.8119 77.0325 34.7804 74.0907C34.7489 71.1489 35.871 68.3119 37.9062 66.1875L46.7499 57.3437C48.8636 55.2427 51.7228 54.0634 54.703 54.0634C57.6833 54.0634 60.5425 55.2427 62.6562 57.3437C63.1317 57.7746 63.7548 58.0062 64.3963 57.9904C65.0379 57.9746 65.6488 57.7127 66.1026 57.2589C66.5563 56.8051 66.8182 56.1942 66.834 55.5527C66.8498 54.9111 66.6183 54.288 66.1874 53.8125C63.1405 50.7688 59.0098 49.0591 54.703 49.0591C50.3963 49.0591 46.2656 50.7688 43.2187 53.8125L34.3749 62.6562C32.785 64.1457 31.5108 65.9396 30.6282 67.9314C29.7455 69.9231 29.2723 72.072 29.2368 74.2503C29.2013 76.4286 29.6041 78.5918 30.4214 80.6113C31.2386 82.6308 32.4536 84.4653 33.9941 86.0058C35.5346 87.5463 37.3691 88.7613 39.3886 89.5785C41.4081 90.3958 43.5713 90.7987 45.7496 90.7631C47.9279 90.7276 50.0768 90.2544 52.0685 89.3718C54.0603 88.4891 55.8542 87.2149 57.3437 85.625L63.5312 79.4375C63.9621 78.9619 64.1936 78.3389 64.1778 77.6973C64.162 77.0558 63.9001 76.4449 63.4463 75.9911C62.9925 75.5373 62.3816 75.2754 61.7401 75.2596C61.0985 75.2438 60.4755 75.4753 59.9999 75.9062Z" stroke="white" stroke-width="2"/>
</svg>
