<svg width="120" height="120" viewBox="0 0 120 120" fill="none" xmlns="http://www.w3.org/2000/svg">
<circle cx="60" cy="60" r="60" fill="#26A8A8"/>
<path fill-rule="evenodd" clip-rule="evenodd" d="M96 54.9886C96 38.9787 79.8822 26 59.9999 26C40.1175 26 23.9995 38.9787 24 54.9886C24 69.2592 36.8062 81.1209 53.6697 83.5301L53.6772 83.5311C54.0733 83.5875 54.4728 83.6372 54.8734 83.6834C58.4578 84.4342 57.8649 87.5327 57.3709 90.1144C57.0736 91.6681 56.8121 93.0347 57.5184 93.5897C59.6812 95.2894 76.0675 84.2727 86.0228 75.0194C87.4637 73.8061 88.7742 72.4917 89.9379 71.0916L89.9589 71.0686C90.2366 70.7609 90.4568 70.4825 90.6254 70.2304C94.0321 65.8021 96 60.5808 96 54.9886ZM46.3743 64.2336H39.1136C38.0809 64.2336 37.2361 63.3839 37.2361 62.345V48.3419C37.2361 47.3034 38.0809 46.4539 39.1136 46.4539H39.2703C40.3031 46.4539 41.1478 47.3034 41.1478 48.3419V60.2998H46.3743C47.4071 60.2998 48.2518 61.1492 48.2518 62.1878V62.3453C48.2518 63.3839 47.4071 64.2336 46.3743 64.2336ZM84.1044 55.2987V55.4562C84.1044 56.4945 83.2594 57.3442 82.2266 57.3437H77.0004V60.3332H82.2266C83.2594 60.3332 84.1044 61.1827 84.1044 62.2212V62.3787C84.1044 63.4173 83.2594 64.267 82.2266 64.267H74.966C73.9332 64.267 73.0885 63.4173 73.0885 62.3787V48.3756C73.0885 47.337 73.9332 46.4876 74.966 46.4876H82.2266C83.2594 46.4876 84.1044 47.337 84.1044 48.3756V48.5331C84.1044 49.5717 83.2594 50.4211 82.2266 50.4211H77.0004V53.4107H82.2266C83.2594 53.4107 84.1044 54.2601 84.1044 55.2987ZM70.1413 63.6707C70.0299 63.8073 69.8717 63.9232 69.6839 64.0131C69.414 64.158 69.1127 64.2337 68.8067 64.2336H68.6501C68.3983 64.2336 68.1578 64.1829 67.9378 64.0915C67.6516 63.9836 67.3947 63.807 67.2069 63.5495C67.1572 63.4894 67.111 63.4256 67.0689 63.3598L60.2338 53.9717V62.3456C60.2338 63.3841 59.389 64.2338 58.3562 64.2338H58.1996C57.1666 64.2338 56.3219 63.3841 56.3219 62.3456V48.3424C56.3219 47.3039 57.1668 46.4544 58.1996 46.4544H58.3562C59.0519 46.4544 59.6623 46.84 59.9865 47.4091L66.7728 56.5624V48.3424C66.7728 47.3039 67.6175 46.4544 68.6503 46.4544H68.8069C69.84 46.4544 70.6847 47.3039 70.6847 48.3424V62.3456C70.6844 62.8417 70.4887 63.3184 70.1413 63.6707ZM51.8013 64.2336H51.6447C50.6119 64.2336 49.767 63.3839 49.767 62.3453V48.3422C49.767 47.3036 50.6119 46.4542 51.6447 46.4542H51.8013C52.8341 46.4542 53.6789 47.3036 53.6789 48.3422V62.3453C53.6789 63.3839 52.8341 64.2336 51.8013 64.2336Z" fill="white"/>
</svg>
