<?xml version="1.0" encoding="utf-8"?>
<!-- Generator: Adobe Illustrator 16.0.0, SVG Export Plug-In . SVG Version: 6.00 Build 0)  -->
<!DOCTYPE svg PUBLIC "-//W3C//DTD SVG 1.1//EN" "http://www.w3.org/Graphics/SVG/1.1/DTD/svg11.dtd">
<svg version="1.1" id="圖層_1" xmlns="http://www.w3.org/2000/svg" xmlns:xlink="http://www.w3.org/1999/xlink" x="0px" y="0px"
	 width="65.197px" height="42.52px" viewBox="0 0 65.197 42.52" enable-background="new 0 0 65.197 42.52" xml:space="preserve">
<g>
	<g>
		<g>
			<path fill="#FFFFFF" d="M21.322,8.137c1.846,0,3.326,0.766,4.73,2.273c0.754,0.813,2.764,3.145,2.783,3.168l0.086,0.1
				l7.945-10.896h-5.445c0,0-2.256,2.83-2.393,3.02c-0.5-0.502-2.93-3.074-6.408-3.074c-4.6,0-7.336,2.982-9.273,6.209
				C12.01,11.158,2.113,27.533,2.113,27.533h4.002h0.031c0.09-0.15,9.049-15.127,9.785-16.283
				C17.381,8.971,19.262,8.137,21.322,8.137z"/>
			<path fill="#FFFFFF" d="M51.264,7.229c-1.746-2.973-4.086-4.416-7.148-4.416c-2.715,0-4.764,1.377-7.307,4.912
				c-1.027,1.424-6.65,9.119-7.414,10.162c-0.266-0.371-1.164-1.602-2.479-3.213c-2.025-2.48-3.518-3.402-5.508-3.402
				c-2.623,0-3.984,1.434-5.584,4.076c-0.477,0.789-7.113,12.072-7.18,12.186H8.551h4.328l5.197-8.813
				c1.346-2.24,2.281-2.24,3.035-2.24c0.85,0,1.689,0.381,3.023,2.238c1.564,2.178,5.064,7.219,5.064,7.219
				S39.715,11.531,40.346,10.66C41.93,8.471,43.053,8.1,44.281,8.1c0.803,0,2.318,0.139,3.717,2.459l10.025,16.975h5.256
				L51.264,7.229z"/>
			<path fill="#FFFFFF" d="M47.898,14.617c-1.336-2.297-2.18-3.344-3.877-3.344c-1.432,0-2.689,1.467-4.154,3.498l-9.311,12.762
				l5.057-0.002l5.516-7.592c1.615-2.127,1.85-2.6,2.684-2.6c0.891,0,1.178,0.697,2.387,2.604l4.439,7.588l4.898,0.002
				L47.898,14.617z"/>
		</g>
		<g>
			<g>
				<g>
					<g>
						<path fill="#FFFFFF" d="M17.887,39.391h-2.602l-6.732-6.486v6.486h-2.6v-9.629h2.607l6.717,6.443l0.008-6.443h2.602V39.391z"
							/>
						<path fill="#FFFFFF" d="M31.275,39.391h-8.648c-1.014,0-1.877-0.291-2.588-0.869c-0.709-0.58-1.064-1.307-1.064-2.18v-3.533
							c0-0.873,0.355-1.598,1.064-2.178c0.711-0.58,1.574-0.869,2.588-0.869h8.648v2.242h-8.656c-0.695,0-1.043,0.268-1.043,0.805
							v3.535c0,0.537,0.348,0.805,1.043,0.805h8.656V39.391z"/>
						<path fill="#FFFFFF" d="M45.381,36.342c0,0.873-0.352,1.6-1.055,2.18c-0.703,0.578-1.561,0.869-2.574,0.869h-9.391v-6.072
							h2.602v3.83h6.793c0.668,0,1.002-0.268,1.002-0.805v-3.535c0-0.537-0.334-0.805-1.002-0.805h-9.395v-2.242h9.391
							c1.014,0,1.871,0.289,2.574,0.869s1.055,1.305,1.055,2.178V36.342z"/>
						<path fill="#FFFFFF" d="M59.598,39.391h-3.566L50.445,34h6.732c0.48,0,0.721-0.332,0.721-0.998
							c0-0.664-0.24-0.998-0.721-0.998h-8.109v7.387h-2.602v-9.629h10.855c0.998,0,1.791,0.338,2.371,1.012
							c0.537,0.611,0.805,1.354,0.805,2.229s-0.268,1.617-0.805,2.23c-0.582,0.674-1.375,1.012-2.377,1.012h-1.002L59.598,39.391z"
							/>
					</g>
				</g>
			</g>
		</g>
	</g>
</g>
</svg>
