<?xml version="1.0" encoding="utf-8"?>
<!-- Generator: Adobe Illustrator 16.0.0, SVG Export Plug-In . SVG Version: 6.00 Build 0)  -->
<!DOCTYPE svg PUBLIC "-//W3C//DTD SVG 1.1//EN" "http://www.w3.org/Graphics/SVG/1.1/DTD/svg11.dtd">
<svg version="1.1" id="圖層_1" xmlns="http://www.w3.org/2000/svg" xmlns:xlink="http://www.w3.org/1999/xlink" x="0px" y="0px"
	 width="130.375px" height="42.52px" viewBox="0 0 130.375 42.52" enable-background="new 0 0 130.375 42.52" xml:space="preserve">
<g>
	<path fill="#FFFFFF" d="M122.685,26.362c0.822,0.084,1.693-0.255,2.479,0.286c0.629,0.435,0.912,0.979,0.701,1.571
		c-0.202,0.568-0.914,1.008-1.57,0.874c-1.063-0.216-2.123-0.038-3.184-0.079c-0.184-0.007-0.408,0.004-0.398,0.256
		c0.021,0.661-0.221,1.289-0.125,1.977c0.168,1.217,0.104,2.453-0.044,3.674c-0.101,0.832-0.942,1.456-1.784,1.408
		c-0.779-0.043-1.323-0.625-1.27-1.397c0.123-1.782,0.251-3.563,0.408-5.343c0.033-0.381-0.084-0.535-0.437-0.525
		c-1.163,0.033-2.327,0.041-3.485,0.131c-0.474,0.037-0.925-0.044-1.387-0.05c-1.034-0.013-2.055,0.087-3.049,0.386
		c-0.26,0.078-0.513,0.1-0.771,0.006c-0.307-0.111-0.545-0.294-0.575-0.634c-0.03-0.344,0.175-0.565,0.471-0.705
		c0.476-0.226,0.968-0.407,1.491-0.487c0.677-0.104,1.34-0.246,1.965-0.542c0.637-0.302,1.346-0.241,2.02-0.325
		c1.196-0.151,2.406-0.191,3.604-0.344c0.276-0.035,0.325-0.138,0.338-0.372c0.045-0.779,0.091-1.558,0.168-2.334
		c0.091-0.918,0.222-1.833,0.318-2.749c0.029-0.278-0.015-0.563,0.008-0.842c0.028-0.357,0.141-0.689,0.548-0.774
		c0.406-0.086,0.639,0.16,0.814,0.483c0.207,0.379,0.283,0.791,0.328,1.215c0.17,1.616,0.361,3.229,0.379,4.856
		c0.003,0.328,0.169,0.396,0.463,0.386C121.634,26.348,122.159,26.362,122.685,26.362z"/>
	<path fill="#FFFFFF" d="M68.884,19.038c0.076,0.791-0.082,1.564-0.148,2.346c-0.023,0.276,0.063,0.56,0.068,0.84
		c0.008,0.326,0.179,0.409,0.468,0.384c0.161-0.015,0.323-0.003,0.485-0.001c0.785,0.008,1.211,0.308,1.289,0.905
		c0.086,0.67-0.381,1.33-1.057,1.492c-0.039,0.009-0.08,0.012-0.119,0.019c-1.166,0.203-1.338,0.447-1.199,1.666
		c0.092,0.804,0.071,1.607-0.034,2.409c-0.052,0.392-0.228,0.727-0.47,1.032c-0.402,0.506-0.919,0.725-1.555,0.562
		c-0.628-0.161-0.961-0.645-1.004-1.233c-0.074-1.02-0.077-2.047-0.055-3.068c0.012-0.527-0.07-0.647-0.602-0.48
		c-0.48,0.15-0.932,0.375-1.432,0.482c-0.862,0.185-1.408,0.011-1.582-0.56c-0.17-0.558,0.238-1.241,0.951-1.49
		c0.854-0.299,1.631-0.795,2.535-0.963c0.313-0.058,0.406-0.253,0.412-0.563c0.039-1.905,0.207-3.801,0.51-5.683
		c0.046-0.291-0.019-0.365-0.31-0.287c-0.318,0.084-0.649,0.072-0.947-0.082c-0.622-0.322-0.629-1.213-0.003-1.6
		c0.236-0.146,0.518-0.303,0.781-0.308c1.049-0.017,1.209-0.798,1.42-1.548c0.109-0.386,0.1-0.803,0.305-1.163
		c0.187-0.329,0.416-0.633,0.852-0.53c0.4,0.093,0.502,0.432,0.522,0.795c0.024,0.422,0.04,0.844,0.055,1.267
		c0.011,0.296,0.079,0.432,0.433,0.304c0.317-0.115,0.673-0.127,1.012-0.176c0.736-0.105,1.342,0.303,1.436,0.961
		c0.088,0.638-0.411,1.199-1.15,1.305c-0.439,0.063-0.88-0.077-1.326,0.049c-0.322,0.09-0.476,0.208-0.466,0.564
		C68.981,17.47,68.818,18.251,68.884,19.038z"/>
	<path fill="#FFFFFF" d="M82.64,19.231c-0.133-0.51-0.021-0.981,0.273-1.425c0.211-0.317,0.493-0.472,0.871-0.421
		c0.375,0.049,0.637,0.254,0.74,0.621c0.104,0.365,0.271,0.719,0.238,1.115c-0.033,0.403,0.174,0.533,0.554,0.498
		c0.401-0.038,0.806-0.061,1.209-0.073c0.914-0.029,1.592,0.437,1.678,1.143c0.082,0.674-0.508,1.368-1.349,1.541
		c-0.414,0.085-0.841,0.112-1.263,0.153c-0.359,0.035-0.486,0.21-0.43,0.568c0.181,1.14,0.048,2.28-0.03,3.419
		c-0.059,0.861,0.033,1.727-0.111,2.587c-0.213,1.258-0.158,2.559-0.689,3.766c-0.32,0.725-0.838,1.229-1.518,1.58
		c-0.74,0.381-1.719,0.158-2.201-0.463c-0.447-0.576-0.375-1.369,0.189-2.049c0.063-0.078,0.127-0.16,0.207-0.221
		c0.809-0.611,1.192-1.398,1.394-2.418c0.397-2.011,0.53-4.013,0.379-6.046c-0.026-0.356-0.122-0.472-0.517-0.421
		c-1,0.13-2.008,0.281-3.008,0.314c-1.263,0.043-2.527,0.217-3.796,0.08c-0.588-0.063-0.876-0.516-0.677-1.08
		c0.168-0.473,0.543-0.668,0.997-0.783c1.791-0.455,3.552-1.053,5.422-1.136c0.24-0.011,0.481-0.126,0.716-0.106
		C82.481,20.02,82.698,19.779,82.64,19.231z"/>
	<path fill="#FFFFFF" d="M82.652,15.905c-0.786-0.001-1.572,0.052-2.355-0.077c-0.374-0.062-0.677-0.191-0.749-0.583
		c-0.078-0.412,0.141-0.722,0.502-0.872c0.369-0.153,0.767-0.246,1.158-0.333c0.282-0.062,0.369-0.16,0.26-0.451
		c-0.182-0.482-0.113-1-0.104-1.498c0.009-0.436-0.156-0.479-0.538-0.456c-1.702,0.105-3.321,0.616-4.972,0.972
		c-0.309,0.066-0.598,0.121-0.881-0.032c-0.377-0.204-0.521-0.501-0.271-0.896c0.415-0.658,0.999-1.103,1.756-1.297
		c1.09-0.279,2.191-0.521,3.275-0.82c0.528-0.146,1.09-0.019,1.604-0.265c0.236-0.115,0.374-0.232,0.433-0.508
		c0.104-0.49,0.276-0.965,0.419-1.445c0.095-0.318,0.301-0.539,0.625-0.59c0.338-0.055,0.494,0.222,0.648,0.457
		c0.267,0.408,0.194,0.896,0.278,1.346c0.057,0.302,0.146,0.4,0.459,0.391c0.706-0.025,1.415-0.023,2.12,0
		c0.762,0.025,1.239,0.55,1.219,1.291c-0.018,0.678-0.482,1.12-1.237,1.117c-0.624-0.002-1.247-0.064-1.87-0.092
		c-0.441-0.019-0.607,0.187-0.561,0.635c0.047,0.459,0.057,0.926,0.029,1.386c-0.02,0.326,0.11,0.438,0.4,0.45
		c0.041,0.002,0.082,0.006,0.121,0.012c0.783,0.098,1.198,0.473,1.16,1.047c-0.043,0.656-0.686,1.149-1.418,1.118
		C83.66,15.889,83.155,15.905,82.652,15.905z"/>
	<path fill="#FFFFFF" d="M9.139,17.636c0,1.726,0.053,3.394-0.016,5.057c-0.057,1.361-0.091,2.727-0.187,4.089
		c-0.077,1.097-0.071,2.208-0.131,3.312c-0.015,0.26-0.019,0.527-0.087,0.774c-0.172,0.616-0.752,1.098-1.345,1.156
		c-0.575,0.058-1.116-0.293-1.425-0.929c-0.305-0.623-0.277-1.273-0.218-1.947c0.151-1.714,0.19-3.439,0.396-5.146
		c0.185-1.527,0.233-3.08,0.675-4.57c0.204-0.689,0.447-1.368,0.674-2.053c0.006-0.019,0.015-0.037,0.024-0.055
		c0.228-0.43,0.521-0.83,1.064-0.723C9.148,16.716,9.208,17.192,9.139,17.636z"/>
	<path fill="#FFFFFF" d="M14.33,14.817c1.377,0.125,2.284,0.917,2.43,2.02c0.064,0.495-0.162,0.91-0.336,1.328
		c-0.311,0.744-0.707,1.446-1.369,1.95c-0.692,0.528-1.324,0.542-1.803,0.054c-0.57-0.58-0.579-1.434-0.025-2.08
		c0.261-0.304,0.608-0.512,0.838-0.863c0.285-0.437,0.096-0.578-0.299-0.637c-0.257-0.039-0.523-0.02-0.785-0.036
		c-0.62-0.04-1.232-0.128-1.515-0.788c-0.286-0.67,0.112-1.152,0.512-1.621c0.091-0.107,0.223-0.191,0.28-0.313
		c0.287-0.603,0.892-0.975,1.215-1.629c-1.004,0.012-1.855,0.404-2.75,0.594c-0.412,0.088-0.795,0.294-1.235,0.27
		c-0.421-0.023-0.756-0.18-0.917-0.573c-0.158-0.386-0.057-0.745,0.206-1.068c0.367-0.452,0.905-0.632,1.417-0.758
		c1.064-0.261,2.106-0.634,3.238-0.612c1.334,0.025,2.614,0.908,2.392,2.59c-0.101,0.752-0.839,1.152-1.167,1.793
		C14.596,14.556,14.48,14.646,14.33,14.817z"/>
	<path fill="#FFFFFF" d="M38.893,32.656c-1.08-0.017-1.598-0.788-1.293-1.701c0.239-0.716,0.666-1.33,1.114-1.93
		c1.647-2.21,3.282-4.431,4.952-6.626c0.572-0.752,1.229-1.44,1.85-2.156c0.052-0.06,0.121-0.106,0.187-0.153
		c0.353-0.252,0.745-0.53,1.147-0.2c0.365,0.301,0.156,0.728-0.006,1.063c-0.243,0.504-0.494,1.013-0.883,1.436
		c-0.297,0.323-0.275,0.785-0.488,1.156c-1.291,2.25-2.383,4.617-3.951,6.702c-0.337,0.448-0.688,0.878-0.994,1.354
		C40.123,32.228,39.53,32.655,38.893,32.656z"/>
	<path fill="#FFFFFF" d="M53.108,32.505c-0.794,0.008-1.413-0.246-1.907-0.566c-0.859-0.558-1.83-0.899-2.651-1.548
		c-0.979-0.774-1.85-1.611-2.502-2.667c-0.216-0.35-0.265-0.76-0.276-1.164c-0.012-0.416,0.157-0.748,0.551-0.928
		c0.395-0.179,0.803-0.111,1.068,0.186c1.025,1.145,2.33,1.809,3.737,2.352c1.032,0.396,2.032,0.879,3.044,1.329
		c0.612,0.274,0.963,0.837,0.908,1.433c-0.061,0.644-0.566,1.259-1.219,1.441C53.572,32.452,53.268,32.478,53.108,32.505z"/>
	<path fill="#FFFFFF" d="M30.268,25.703c-0.072,0.787-0.286,1.726-0.548,2.653c-0.307,1.086-0.771,2.104-1.37,3.066
		c-0.487,0.779-1.419,1.096-2.26,0.717c-0.801-0.358-1.098-1.172-0.752-2.082c0.07-0.188,0.143-0.394,0.274-0.533
		c0.649-0.689,0.911-1.596,1.386-2.381c0.4-0.662,0.311-1.445,0.561-2.146c0.085-0.237-0.168-0.394-0.348-0.517
		c-0.267-0.184-0.579-0.262-0.891-0.353c-0.321-0.094-0.584-0.308-0.553-0.697c0.031-0.38,0.285-0.601,0.64-0.604
		c1.15-0.012,2.325-0.194,3.231,0.868C30.119,24.259,30.228,24.856,30.268,25.703z"/>
	<path fill="#FFFFFF" d="M19.75,29.978c-1.188,0.02-1.941-1.262-1.37-2.331c0.749-1.401,1.575-2.755,2.54-4.024
		c0.686-0.902,1.099-1.962,1.581-2.978c0.125-0.264,0.271-0.493,0.479-0.684c0.407-0.371,0.883-0.423,1.343-0.157
		c0.458,0.264,0.604,0.729,0.427,1.209c-0.3,0.809-0.662,1.595-1.001,2.389c-0.702,1.644-1.315,3.325-2.171,4.904
		c-0.273,0.508-0.6,0.953-1.002,1.352C20.352,29.88,20.068,29.98,19.75,29.978z"/>
	<path fill="#FFFFFF" d="M114.563,14.849c1.32-0.145,2.949-0.154,4.58-0.098c0.763,0.027,1.529,0.037,2.278,0.223
		c0.693,0.172,1.161,0.771,1.119,1.445c-0.038,0.612-0.452,0.9-1.267,1.023c-0.661,0.1-1.281-0.103-1.914-0.164
		c-1.801-0.177-3.6,0.02-5.4-0.074c-0.914-0.047-1.846,0.105-2.775,0.087c-0.424-0.008-0.783-0.114-0.924-0.526
		c-0.149-0.438,0.176-0.705,0.514-0.84C111.905,15.476,112.979,14.827,114.563,14.849z"/>
	<path fill="#FFFFFF" d="M28.938,14.478c0.369,0.002,0.732,0.033,1.074,0.176c0.554,0.23,0.924,0.783,0.881,1.323
		c-0.049,0.607-0.429,0.956-0.986,1.077c-1.021,0.222-2.049,0.422-3.082,0.583c-0.797,0.124-1.578,0.312-2.371,0.444
		c-1.049,0.176-2.109,0.294-3.166,0.424c-0.264,0.032-0.521-0.043-0.767-0.148c-0.387-0.166-0.638-0.451-0.649-0.87
		c-0.011-0.446,0.239-0.765,0.652-0.929c0.75-0.299,1.511-0.595,2.307-0.721c0.84-0.133,1.623-0.455,2.451-0.623
		c0.943-0.191,1.874-0.445,2.814-0.653C28.369,14.499,28.656,14.503,28.938,14.478z"/>
	<path fill="#FFFFFF" d="M43.77,13.354c-0.116-0.694,0.268-1.324,0.684-1.919c0.692-0.988,1.427-1.947,2.148-2.915
		c0.229-0.307,0.545-0.461,0.897-0.27c0.339,0.184,0.437,0.526,0.317,0.891c-0.139,0.419-0.319,0.814-0.535,1.207
		c-0.363,0.661-0.623,1.379-0.924,2.074c-0.088,0.205,0.063,0.346,0.162,0.489c0.445,0.647,0.971,1.23,1.482,1.823
		c0.514,0.595,0.57,1.256,0.202,1.838c-0.386,0.609-0.998,0.811-1.803,0.58c-0.192-0.055-0.388-0.121-0.562-0.219
		C44.733,16.321,43.781,14.708,43.77,13.354z"/>
	<path fill="#FFFFFF" d="M119.058,10.136c0,0.298,0.036,0.624-0.006,0.939c-0.105,0.781-0.679,1.172-1.463,1.063
		c-0.499-0.07-1-0.026-1.496,0.049c-0.26,0.039-0.516,0.104-0.776,0.127c-0.661,0.06-1.114-0.226-1.208-0.739
		c-0.101-0.547,0.217-1.068,0.808-1.251c0.479-0.148,0.968-0.305,1.464-0.354c0.391-0.039,0.449-0.223,0.379-0.506
		c-0.086-0.34-0.108-0.684-0.063-1.019c0.081-0.603-0.254-0.794-0.757-0.841c-0.343-0.03-0.677,0.021-1.017,0.103
		c-0.42,0.101-0.896,0.136-1.085-0.375c-0.177-0.476,0.218-0.661,0.558-0.86c1.109-0.653,2.672-0.586,3.635,0.145
		c0.48,0.363,0.773,0.813,0.811,1.416C118.886,8.73,119.29,9.386,119.058,10.136z"/>
	<path fill="#FFFFFF" d="M37.043,13.958c0.029-0.838,0.817-1.721,1.746-2.487c0.344-0.284,0.695-0.536,0.936-0.919
		c0.152-0.242,0.353-0.44,0.611-0.57c0.27-0.135,0.545-0.172,0.793,0.037c0.236,0.199,0.211,0.455,0.131,0.721
		c-0.152,0.507-0.376,0.991-0.696,1.396c-0.362,0.459-0.479,1.016-0.719,1.518c-0.181,0.381,0.105,0.781,0.364,1.086
		c0.24,0.284,0.409,0.592,0.531,0.937c0.18,0.505,0.102,0.957-0.297,1.323c-0.4,0.371-0.872,0.492-1.398,0.303
		C37.824,16.862,37.061,15.762,37.043,13.958z"/>
	<path fill="#FFFFFF" d="M52.591,15.472c-0.658-0.038-1.108-0.31-1.489-0.834c-0.857-1.18-0.836-2.301-0.066-3.52
		c0.346-0.545,0.644-1.113,1.106-1.569c0.37-0.364,0.815-0.599,1.302-0.279c0.488,0.321,0.436,0.815,0.25,1.304
		c-0.07,0.188-0.116,0.389-0.212,0.563c-0.376,0.682-0.216,1.233,0.347,1.734c0.534,0.477,0.611,1.063,0.313,1.703
		C53.826,15.245,53.256,15.47,52.591,15.472z"/>
	<path fill="#FFFFFF" d="M113.858,21.034c0.095,1.139-0.006,2.281,0.087,3.418c0.023,0.289-0.011,0.562-0.08,0.834
		c-0.146,0.568-0.437,1.004-1.083,1.049c-0.531,0.037-1.1-0.417-1.264-1.031c-0.215-0.806-0.172-1.629-0.055-2.443
		c0.126-0.869,0.059-1.765,0.369-2.607c0.035-0.094,0.027-0.205,0.07-0.292c0.223-0.442,0.389-1.015,1.02-0.949
		c0.582,0.06,0.719,0.573,0.797,1.07C113.771,20.398,113.813,20.717,113.858,21.034z"/>
	<path fill="#FFFFFF" d="M93.753,21.622c0.01-1.324,0.35-2.58,0.804-3.812c0.098-0.266,0.255-0.505,0.474-0.692
		c0.461-0.392,1.076-0.23,1.152,0.365c0.137,1.051,0.357,2.108,0.129,3.177c-0.053,0.243-0.031,0.483,0.025,0.718
		c0.104,0.426,0.053,0.844-0.047,1.256c-0.16,0.672-0.748,1.037-1.479,0.938c-0.674-0.092-1.094-0.557-1.096-1.227
		C93.715,22.104,93.739,21.862,93.753,21.622z"/>
	<path fill="#FFFFFF" d="M63.98,14.687c-0.123,1.01-0.197,1.952-0.462,2.863c-0.107,0.375-0.277,0.711-0.58,0.969
		c-0.713,0.603-1.511,0.392-1.815-0.48c-0.539-1.537,0.074-2.876,0.793-4.162c0.261-0.465,0.812-0.595,1.345-0.396
		C63.845,13.699,63.938,14.223,63.98,14.687z"/>
	<path fill="#FFFFFF" d="M112.792,10.289c0,0.361,0.029,0.725-0.007,1.082c-0.07,0.7-0.581,1.183-1.167,1.145
		c-0.619-0.04-1.17-0.605-1.122-1.273c0.093-1.297,0.272-2.587,0.646-3.838c0.104-0.349,0.33-0.626,0.722-0.63
		c0.379-0.004,0.556,0.274,0.653,0.606C112.8,8.333,112.755,9.314,112.792,10.289z"/>
	<path fill="#FFFFFF" d="M24.787,9.188c0.734,0.146,1.533,0.268,2.268,0.609c0.629,0.292,0.904,0.953,0.687,1.548
		c-0.222,0.608-0.915,0.948-1.583,0.744c-0.592-0.182-1.18-0.385-1.755-0.613c-0.601-0.238-0.935-0.886-0.796-1.461
		C23.724,9.532,24.211,9.174,24.787,9.188z"/>
	<path fill="#FFFFFF" d="M50.547,23.003c0.131-0.613,0.391-1.38,0.857-2.037c0.409-0.576,1.129-0.707,1.608-0.402
		c0.474,0.299,0.554,0.805,0.302,1.508c-0.238,0.664-0.42,1.352-0.982,1.837c-0.357,0.308-0.763,0.473-1.228,0.26
		C50.693,23.979,50.518,23.636,50.547,23.003z"/>
	<path fill="#FFFFFF" d="M40.238,22.673c0.077,0.578,0.023,1.135-0.371,1.596c-0.305,0.356-0.698,0.568-1.182,0.447
		c-0.49-0.124-0.701-0.496-0.774-0.976c-0.067-0.438-0.101-0.876-0.07-1.321c0.054-0.773,0.614-1.374,1.319-1.395
		c0.643-0.018,1,0.436,1.062,1.348C40.229,22.472,40.232,22.573,40.238,22.673z"/>
	<path fill="#FFFFFF" d="M77.21,26.089c0.697,0.021,1.557,0.725,1.703,1.409c0.083,0.394,0.048,0.768-0.29,1.047
		c-0.405,0.335-0.868,0.31-1.313,0.127c-0.563-0.231-0.956-0.686-1.217-1.212C75.737,26.741,76.312,26.063,77.21,26.089z"/>
	<path fill="#FFFFFF" d="M116.562,25.519c-0.717-0.006-1.273-0.488-1.274-1.1c0-0.644,0.56-1.119,1.32-1.119
		c0.678-0.001,1.369,0.521,1.372,1.035C117.985,24.994,117.347,25.526,116.562,25.519z"/>
	<path fill="#FFFFFF" d="M116.669,20.045c0.605-0.003,1.047,0.384,1.063,0.93c0.016,0.536-0.777,1.263-1.361,1.245
		c-0.527-0.016-1.028-0.502-1.033-1.004C115.332,20.655,116.022,20.049,116.669,20.045z"/>
	<path fill="#FFFFFF" d="M104.434,24.54c-1.007,0.023-2.015,0.064-3.021,0.115c-0.769,0.04-0.771,0.053-0.823-0.732
		c-0.007-0.098-0.002-0.199,0.012-0.298c0.061-0.437,0.2-0.698,0.757-0.698c0.633,0,1.362,0.188,1.856-0.461
		c0.035-0.046,0.146-0.042,0.223-0.047c1.186-0.073,1.908-0.83,1.924-2.018c0.003-0.262,0-0.523,0-0.786
		c0.001-0.241,0.009-0.483,0-0.726c-0.045-1.225-0.52-2.205-1.588-2.881c-0.727-0.457-1.517-0.525-2.33-0.453
		c-0.438,0.038-0.595-0.112-0.51-0.529c0.092-0.459,0.055-0.921,0.047-1.382c-0.008-0.415,0.077-0.642,0.607-0.612
		c0.699,0.039,1.313-0.555,1.344-1.15c0.03-0.609-0.395-1.029-1.171-1.126c-0.443-0.056-0.8-0.102-0.767-0.726
		c0.022-0.406-0.255-0.786-0.721-0.846c-0.432-0.054-0.76,0.24-0.76,0.619c0.002,1.134-0.69,1.529-1.643,1.714
		c-0.059,0.011-0.113,0.043-0.172,0.06c-0.518,0.154-0.873,0.452-0.81,1.036c0.046,0.429,0.548,0.694,1.152,0.668
		c0.331-0.015,0.712-0.339,0.973-0.051c0.243,0.269-0.021,0.697,0.063,1.052c0.009,0.037,0.01,0.083-0.002,0.119
		c-0.228,0.736,0.208,1.686-0.846,2.168c-0.413,0.189-0.201,0.955,0.216,0.89c0.711-0.11,0.559,0.316,0.588,0.697
		c0.025,0.331-0.012,0.564-0.396,0.683c-0.215,0.066-0.389,0.279-0.565,0.443c-0.235,0.219-0.371,0.48-0.233,0.812
		c0.133,0.313,0.389,0.512,0.709,0.462c0.512-0.08,0.479,0.195,0.505,0.552c0.034,0.466-0.298,0.507-0.587,0.627
		c-0.314,0.131-0.599,0.32-0.584,0.692c0.018,0.398,0.333,0.528,0.682,0.543c0.452,0.02,0.445,0.388,0.458,0.654
		c0.022,0.44,0.19,0.908-0.104,1.325c-0.027,0.039-0.111,0.05-0.17,0.054c-0.734,0.05-1.4,0.371-2.113,0.516
		c-0.81,0.164-1.611,0.363-2.43,0.494c-0.629,0.1-1.051,0.662-0.965,1.193c0.084,0.52,0.591,0.795,1.287,0.695
		c0.079-0.012,0.156-0.039,0.235-0.053c1.149-0.207,2.281-0.515,3.462-0.551c0.435-0.013,0.615,0.015,0.557,0.534
		c-0.098,0.878-0.157,1.761-0.3,2.636c-0.117,0.721,0.286,1.313,0.946,1.477c0.664,0.164,1.207-0.184,1.469-0.93
		c0.107-0.309,0.135-0.622,0.141-0.948c0.016-0.812-0.119-1.603-0.266-2.394c-0.072-0.387-0.003-0.603,0.469-0.597
		c1.045,0.013,2.088-0.002,3.133-0.126c0.803-0.094,1.578-0.651,1.574-1.312C105.938,24.925,105.397,24.517,104.434,24.54z
		 M100.876,20.44c-0.033-0.281,0.233-0.287,0.404-0.363c0.287-0.128,0.545-0.279,0.584-0.626c0.045-0.383-0.224-0.582-0.49-0.769
		c-0.246-0.171-0.582-1.285-0.428-1.525c0.148-0.229,0.408-0.089,0.59-0.133c0.658,0.013,0.986,0.277,1.131,0.959
		c0.205,0.969-0.12,1.892-0.434,2.766c-0.126,0.354-0.793,0.257-1.209,0.244C100.729,20.983,100.899,20.636,100.876,20.44z"/>
</g>
</svg>
