<svg width="151" height="99" viewBox="0 0 151 99" fill="none" xmlns="http://www.w3.org/2000/svg">
<g clip-path="url(#clip0_994_985)">
<path d="M148.893 64.3468C147.703 63.7662 147.996 63.225 148.553 62.5232C149.855 60.88 150.169 59.1025 149.466 57.1157C149.04 55.9123 148.249 55.429 147.038 55.8096C145.869 56.1769 144.747 56.6628 143.679 57.2697C142.56 57.9083 141.391 57.9044 140.131 57.7582C138.231 57.5397 137.183 55.9597 135.655 55.2276C132.755 53.8385 130.287 51.7305 127.142 50.7035C121.942 49.0077 116.79 47.3618 111.23 47.45C108.531 47.4922 105.771 47.6172 103.143 47.138C99.9406 46.556 97.302 44.7456 95.6773 41.7726C95.3204 41.1169 94.5331 40.5876 95.3046 39.6014C97.0334 37.3933 97.7602 34.7244 98.4804 32.0674C100.234 25.5973 99.4811 19.5433 95.4995 14.0225C95.3428 13.8052 95.1361 13.6104 95.3191 13.3312C96.1473 12.0791 96.1394 10.615 96.3909 9.21533C96.6845 7.57872 95.8142 6.78608 94.2434 7.27852C93.9893 7.35752 93.7773 7.70117 93.4007 7.41677C93.7878 6.50563 94.5489 5.75645 94.6463 4.72287C94.7134 4.02108 94.8214 3.28375 94.0156 2.88875C93.2414 2.51086 92.6858 2.92693 92.1617 3.44175C91.9445 3.65505 91.8813 4.133 91.3415 3.91443C91.7944 3.08625 91.8958 2.18565 91.8221 1.29031C91.7523 0.445014 91.1993 -0.267303 90.3513 0.0947806C89.2387 0.568781 87.9827 0.754431 87.0136 1.52073C85.2966 2.87822 83.3651 3.90258 81.5613 5.12577C80.9872 5.5155 80.4289 5.62347 79.7179 5.51418C78.2604 5.28772 76.8173 4.91773 75.3045 5.07442C72.7054 5.34433 70.1339 5.7683 67.569 6.25678C66.8436 6.39503 66.0996 6.38582 65.4057 6.72683C61.8126 8.50302 58.5169 10.5478 56.4248 14.2029C55.1858 16.3635 54.0758 18.5518 53.1107 20.8441C52.1535 23.1167 52.2141 25.5354 51.7611 27.8765C51.0528 31.5289 51.2582 34.9957 53.5571 38.0767C54.0679 38.7627 53.9152 38.9931 53.3306 39.4644C46.7973 44.7311 40.3614 50.115 34.052 55.6476C33.4055 56.2138 32.7656 56.2783 32.0032 55.9386C30.655 55.3369 29.3093 54.7141 27.9703 54.1071C26.5641 53.4672 25.545 53.8267 24.4653 54.5232C23.8096 54.9471 23.1881 55.4448 22.6193 55.9807C19.1973 59.221 15.5133 62.1598 12.111 65.4397C8.49281 68.9262 5.29068 72.7906 1.65009 76.2469C-0.0339274 77.8466 0.151723 78.7512 2.03324 80.1679C6.09516 83.2252 10.402 85.877 15.1354 87.7848C16.4692 88.3207 17.9702 88.4971 19.1749 89.2898C23.2237 91.9534 27.8096 93.4557 32.1862 95.4057C36.3732 97.2674 38.7722 96.38 42.3825 92.8935C44.7301 90.6236 47.1396 88.426 49.6071 86.2917C52.064 84.1706 54.7737 82.3878 56.2812 79.2436C57.22 77.2857 59.3557 76.0717 60.7276 74.2995C61.7823 72.9368 61.881 71.915 60.8488 70.5325C59.515 68.7458 57.5755 67.703 55.6545 66.8906C52.0416 65.3633 48.7288 63.0104 44.4418 62.7023C47.2002 60.9683 49.7782 59.3764 52.3233 57.7332C54.1864 56.5298 56.0732 55.3474 57.8191 53.9886C59.1292 52.9708 60.5683 52.1532 61.86 51.1209C62.1312 50.905 62.413 51.0406 62.7184 51.1538C65.3373 52.1334 67.2162 54.7536 66.8488 57.4462C66.7962 57.828 66.8659 58.2322 66.9094 58.622C67.1885 61.1328 67.0384 63.6595 67.2254 66.177C67.4097 68.6484 67.5295 71.1224 67.8416 73.5806C68.1984 76.3943 69.3492 78.9908 70.5394 81.4911C71.6112 83.7413 72.7238 86.1126 74.7159 87.7756C76.579 89.3319 78.0695 91.2476 80.1735 92.613C82.3236 94.0113 84.633 94.9198 86.924 95.9376C88.849 96.7908 90.9043 97.3622 93.011 97.4939C95.119 97.6256 97.144 98.2089 99.302 98.276C103.984 98.4222 108.804 98.5617 113.339 97.1937C118.205 95.7256 123.019 93.8296 127.803 92.0943C130.658 91.0594 133.05 89.2858 135.418 87.5228C137.447 86.0126 139.085 84.0297 140.142 81.661C140.331 81.2423 140.644 80.975 140.975 80.6788C143.11 78.7604 145.998 77.5451 146.847 74.4141C146.896 74.231 147.112 74.0546 147.295 73.9506C149.138 72.9038 149.755 71.0579 150.324 69.2211C150.842 67.5634 150.168 64.9683 148.893 64.3468ZM61.4426 22.411C62.4814 22.4268 63.2135 23.2681 63.1872 24.4163C63.1621 25.4867 62.226 26.4426 61.199 26.4479C60.0693 26.4531 59.249 25.3774 59.2885 23.9462C59.3109 23.1918 60.4261 22.3952 61.4426 22.411ZM25.7122 57.3698C26.2152 57.1354 26.5193 57.5291 26.805 57.8583C27.6095 58.7879 27.5081 59.9702 27.595 61.0683C27.6253 61.4633 27.308 62.0124 26.7063 62.0348C26.0993 62.0585 25.703 61.7425 25.591 61.1513C25.4199 60.2546 25.2895 59.3527 25.1368 58.4218C25.1105 57.9742 25.2829 57.5686 25.7122 57.3698ZM22.9208 70.7116C22.385 70.7616 21.9162 70.597 21.699 70.1178C21.4567 69.5832 21.4712 69.0302 21.911 68.5338C24.0742 66.1006 26.5957 64.0453 28.9301 61.7964C31.6161 59.2105 34.9157 57.4936 37.6846 55.0419C39.4292 53.4949 41.6254 52.5258 43.3753 50.9102C45.9085 48.5758 48.588 46.398 51.2002 44.1491C52.2259 43.267 53.3095 42.4388 54.2444 41.4697C55.5663 40.0938 56.7408 38.5796 58.0416 37.1827C59.0476 36.1056 60.2773 35.4104 61.8323 35.5105C63.4215 35.6145 65.0081 35.3011 66.6013 35.9608C67.8074 36.4598 68.1958 37.0326 67.0661 38.3189C65.0858 40.5731 62.621 42.2479 60.0588 43.7989C59.0647 44.4006 58.2536 45.2986 57.324 46.0162C53.7677 48.7601 49.8546 51.0024 46.2746 53.6884C44.5116 55.0117 42.8328 56.5851 41.2252 58.1703C40.2548 59.1289 39.1725 60.0282 37.8677 60.5443C37.3054 60.7668 37.0145 61.2685 36.5642 61.6055C33.1593 64.1533 29.7846 66.7432 26.3797 69.2909C25.3593 70.0546 24.2072 70.572 22.9208 70.7116ZM44.8039 72.9842C47.0593 72.7893 49.3095 72.7472 51.5663 72.7011C52.7565 72.6761 53.9205 72.8117 55.0344 73.2409C55.5663 73.445 56.1864 73.6662 55.9073 74.4285C55.6571 75.1145 55.0976 75.5622 54.3708 75.3265C51.8454 74.5062 49.2634 74.9644 46.7196 74.9842C41.8572 75.0237 37.0079 75.6346 32.1323 75.445C30.4272 75.3779 29.5516 74.6945 29.2527 73.0329C29.1447 72.4351 29.1105 71.8215 29.0723 71.2106C28.9644 69.5332 29.2488 69.1922 31.0302 68.8406C31.1474 69.6122 31.2606 70.3837 31.3831 71.1553C31.6806 73.0487 32.6984 73.657 34.6761 73.5108C38.0467 73.262 41.4371 73.2725 44.8039 72.9842ZM68.2971 42.5836C68.0654 43.4263 67.5914 44.2466 66.9225 44.7759C65.5598 45.8569 64.2458 46.9971 62.7513 47.9333C61.3241 48.8273 60.1075 50.0452 58.6447 50.9379C55.5255 52.8471 52.4669 54.8537 49.3806 56.8181C47.0264 58.3152 44.7617 59.9505 42.2008 61.1184C41.3924 61.4883 40.8038 61.4449 39.9809 60.7431C41.9901 59.3132 43.9507 57.9373 45.8901 56.5324C49.8783 53.6436 54.1838 51.2157 58.0443 48.1466C58.8211 47.5304 59.4544 46.7351 60.1759 46.0438C62.3234 43.9872 64.7461 42.2861 67.2083 40.6389C67.444 40.4822 67.7652 40.3848 67.9219 40.6152C68.3209 41.2038 68.4802 41.9213 68.2971 42.5836ZM77.2044 31.363C76.0326 31.4143 74.6211 29.9818 74.6 28.7218C74.5816 27.5117 75.8614 26.3939 77.261 26.3992C78.529 26.4044 79.4836 27.4854 79.4941 28.9298C79.5033 29.9976 78.2604 31.3169 77.2044 31.363ZM118.342 76.5918C118.208 77.3015 117.281 77.5043 116.582 77.7334C115.411 78.1165 114.266 77.6294 113.111 77.6412C112.028 77.6544 110.985 77.6597 109.901 77.3779C106.711 76.5497 103.967 75.0619 101.513 72.8143C97.6865 69.3159 95.6615 65.0302 95.1177 59.9821C95.1809 59.5476 94.9505 58.9919 95.535 58.8537C96.0907 58.7194 96.2329 59.2368 96.4356 59.62C98.2829 63.1434 100.557 66.3811 103.185 69.3567C105.227 71.6701 108.075 72.6458 110.902 73.5516C112.407 74.0349 113.842 74.8196 115.514 74.7445C115.962 74.7261 116.471 74.9499 116.865 75.1975C117.454 75.5648 118.507 75.7189 118.342 76.5918ZM128.221 70.1388C127.571 70.3074 126.866 70.2784 126.184 70.335C122.556 70.8749 119.629 69.3449 116.881 67.2409C116.382 66.859 115.926 66.4693 116.284 65.861C116.685 65.1829 117.339 65.4699 117.922 65.6819C120.161 66.4983 122.388 67.3607 124.824 67.3817C125.945 67.3896 127.022 67.0065 128.179 67.1842C129.06 67.3185 130.204 67.2632 130.188 68.2955C130.177 69.2172 129.188 69.8874 128.221 70.1388ZM131.4 62.7668C131.173 62.8643 130.889 62.8261 130.835 62.8313C129.929 62.8103 129.261 62.6602 128.612 62.3942C128.137 62.1967 127.962 61.8294 128.04 61.354C128.116 60.8906 128.394 60.4969 128.869 60.4837C129.721 60.4613 130.593 60.4706 131.426 60.622C131.932 60.7141 132.587 60.9103 132.614 61.6226C132.645 62.4126 131.936 62.5404 131.4 62.7668Z" fill="#FFEBCA"/>
</g>
<defs>
<clipPath id="clip0_994_985">
<rect width="150" height="98.3682" fill="white" transform="translate(0.5)"/>
</clipPath>
</defs>
</svg>
