<?xml version="1.0" encoding="utf-8"?>
<!-- Generator: Adobe Illustrator 16.0.0, SVG Export Plug-In . SVG Version: 6.00 Build 0)  -->
<!DOCTYPE svg PUBLIC "-//W3C//DTD SVG 1.1//EN" "http://www.w3.org/Graphics/SVG/1.1/DTD/svg11.dtd">
<svg version="1.1" id="圖層_1" xmlns="http://www.w3.org/2000/svg" xmlns:xlink="http://www.w3.org/1999/xlink" x="0px" y="0px"
	 width="303.334px" height="45.514px" viewBox="0 0 303.334 45.514" enable-background="new 0 0 303.334 45.514"
	 xml:space="preserve">
<g>
	<g>
		<g>
			<path fill="#FFFFFF" d="M23.844,6.716c2.292,0,4.129,0.949,5.873,2.823c0.937,1.007,3.432,3.903,3.457,3.933l0.106,0.123
				l9.864-13.525h-6.76c0,0-2.801,3.514-2.971,3.746C32.793,3.194,29.775,0,25.458,0c-5.71,0-9.105,3.704-11.512,7.707
				C12.287,10.466,0,30.794,0,30.794h4.969h0.039c0.112-0.188,11.234-18.779,12.147-20.215C18.954,7.751,21.288,6.716,23.844,6.716z
				"/>
			<path fill="#FFFFFF" d="M61.017,5.589c-2.169-3.688-5.073-5.481-8.876-5.481c-3.37,0-5.914,1.709-9.07,6.097
				c-1.274,1.769-8.255,11.319-9.204,12.615c-0.331-0.461-1.444-1.988-3.077-3.988c-2.515-3.078-4.368-4.223-6.838-4.223
				c-3.255,0-4.946,1.777-6.931,5.058c-0.593,0.979-8.83,14.988-8.913,15.128H7.991h5.374l6.451-10.94
				c1.671-2.78,2.833-2.78,3.767-2.78c1.055,0,2.097,0.473,3.753,2.777c1.943,2.705,6.29,8.963,6.29,8.963S46.68,10.93,47.462,9.848
				c1.967-2.718,3.36-3.177,4.886-3.177c0.998,0,2.879,0.171,4.615,3.053l12.444,21.07h6.525L61.017,5.589z"/>
			<path fill="#FFFFFF" d="M56.839,14.76c-1.659-2.851-2.707-4.151-4.813-4.151c-1.777,0-3.337,1.821-5.157,4.342L35.311,30.794
				l6.278-0.004l6.846-9.422c2.006-2.641,2.297-3.227,3.331-3.227c1.106,0,1.463,0.863,2.964,3.231l5.51,9.417l6.082,0.004
				L56.839,14.76z"/>
		</g>
		<g>
			<g>
				<g>
					<g>
						<path fill="#FFFFFF" d="M19.58,45.514h-3.227l-8.358-8.052v8.052H4.768V33.562h3.237l8.339,7.996l0.01-7.996h3.227V45.514z"/>
						<path fill="#FFFFFF" d="M36.203,45.514H25.465c-1.259,0-2.33-0.36-3.212-1.079c-0.881-0.72-1.322-1.621-1.322-2.705v-4.386
							c0-1.085,0.441-1.984,1.322-2.704c0.882-0.719,1.953-1.078,3.212-1.078h10.738v2.783H25.455c-0.864,0-1.295,0.332-1.295,0.997
							v4.389c0,0.666,0.431,0.999,1.295,0.999h10.748V45.514z"/>
						<path fill="#FFFFFF" d="M53.714,41.729c0,1.084-0.438,1.985-1.31,2.705c-0.873,0.719-1.938,1.079-3.196,1.079H37.552v-7.54
							h3.229v4.756h8.431c0.831,0,1.244-0.333,1.244-0.999v-4.389c0-0.665-0.414-0.997-1.243-0.997H37.552v-2.783h11.656
							c1.259,0,2.324,0.359,3.196,1.078c0.873,0.72,1.31,1.619,1.31,2.704V41.729z"/>
						<path fill="#FFFFFF" d="M71.36,45.514h-4.425L60,38.822h8.357c0.597,0,0.894-0.413,0.894-1.239
							c0-0.824-0.297-1.238-0.894-1.238H58.291v9.169h-3.229V33.562h13.475c1.24,0,2.224,0.418,2.943,1.256
							c0.666,0.758,1.001,1.68,1.001,2.766c0,1.085-0.335,2.008-1.001,2.769c-0.723,0.835-1.706,1.255-2.95,1.255h-1.243
							L71.36,45.514z"/>
					</g>
				</g>
			</g>
		</g>
	</g>
	<g>
		<path fill="#FFFFFF" d="M98.063,32.276h-1.082l-4.403-5.102v5.102h-1.308V24.95h1.096l4.378,5.102V24.95h1.319V32.276z"/>
		<path fill="#FFFFFF" d="M102.602,30.706c-0.07,0.203-0.206,0.378-0.409,0.526c-0.232,0.163-0.488,0.244-0.766,0.244
			c-0.226,0-0.415-0.073-0.566-0.222c-0.151-0.148-0.226-0.33-0.226-0.549c0-0.536,0.495-0.913,1.487-1.131
			c0.288-0.063,0.495-0.104,0.619-0.129v0.502C102.75,30.183,102.702,30.435,102.602,30.706z M104.231,30.612v-1.396
			c0-0.457-0.028-0.795-0.082-1.012c-0.055-0.201-0.155-0.393-0.302-0.57c-0.388-0.473-1.04-0.709-1.955-0.709
			c-0.861,0-1.629,0.234-2.304,0.707l0.502,0.65c0.497-0.373,0.987-0.559,1.472-0.559c0.629,0,1.022,0.313,1.178,0.941
			c-0.388,0.078-0.711,0.145-0.968,0.197c-0.631,0.133-1.149,0.307-1.553,0.524c-0.708,0.38-1.062,0.884-1.062,1.511
			c0,0.436,0.163,0.795,0.489,1.082s0.723,0.43,1.188,0.43c0.73,0,1.352-0.276,1.864-0.832c0.008,0.258,0.054,0.49,0.139,0.699
			h1.631C104.309,31.903,104.231,31.351,104.231,30.612z"/>
		<path fill="#FFFFFF" d="M109.226,32.082c-0.538,0.218-1.062,0.327-1.575,0.327c-0.685,0-1.182-0.201-1.492-0.605
			c-0.194-0.248-0.292-0.699-0.292-1.352v-2.691h-0.812v-0.716h0.812v-1.271l1.526-0.304v1.574h1.542v0.716h-1.542v2.413
			c0,0.522,0.06,0.886,0.181,1.091c0.122,0.207,0.335,0.309,0.64,0.309c0.251,0,0.498-0.057,0.741-0.17L109.226,32.082z"/>
		<path fill="#FFFFFF" d="M111.611,25.429c0,0.217-0.085,0.404-0.256,0.561c-0.17,0.154-0.376,0.232-0.616,0.232
			s-0.447-0.074-0.623-0.221c-0.174-0.148-0.261-0.328-0.261-0.537c0-0.249,0.081-0.449,0.244-0.6
			c0.163-0.152,0.38-0.229,0.651-0.229c0.249,0,0.454,0.076,0.617,0.229C111.529,25.015,111.611,25.204,111.611,25.429z
			 M111.513,32.276h-1.524v-5.231h1.524V32.276z"/>
		<path fill="#FFFFFF" d="M116.785,31.112c-0.252,0.355-0.602,0.534-1.051,0.534c-0.457,0-0.814-0.179-1.069-0.534
			c-0.256-0.355-0.383-0.848-0.383-1.475c0-0.596,0.129-1.07,0.388-1.422c0.26-0.353,0.607-0.528,1.041-0.528
			c0.457,0,0.813,0.171,1.069,0.517c0.256,0.344,0.384,0.822,0.384,1.434C117.162,30.265,117.036,30.757,116.785,31.112z
			 M117.904,27.698c-0.569-0.515-1.287-0.773-2.148-0.773c-0.9,0-1.638,0.252-2.213,0.757c-0.573,0.505-0.861,1.155-0.861,1.956
			c0,0.814,0.285,1.48,0.856,1.996c0.57,0.518,1.303,0.775,2.195,0.775c0.884,0,1.61-0.262,2.177-0.785
			c0.567-0.524,0.851-1.189,0.851-1.998C118.761,28.856,118.476,28.216,117.904,27.698z"/>
		<path fill="#FFFFFF" d="M125.407,32.276h-1.526v-2.988c0-0.451-0.063-0.775-0.188-0.977c-0.188-0.296-0.504-0.442-0.948-0.442
			c-0.64,0-1.055,0.239-1.241,0.722c-0.07,0.177-0.105,0.468-0.105,0.871v2.814h-1.549v-5.231h1.549v0.701
			c0.56-0.548,1.224-0.821,1.992-0.821c0.932,0,1.546,0.326,1.841,0.977c0.117,0.272,0.176,0.74,0.176,1.408V32.276z"/>
		<path fill="#FFFFFF" d="M129.854,30.706c-0.069,0.203-0.204,0.378-0.407,0.526c-0.233,0.163-0.489,0.244-0.768,0.244
			c-0.224,0-0.413-0.073-0.565-0.222c-0.151-0.148-0.227-0.33-0.227-0.549c0-0.536,0.496-0.913,1.487-1.131
			c0.289-0.063,0.496-0.104,0.621-0.129v0.502C130.003,30.183,129.956,30.435,129.854,30.706z M131.484,30.612v-1.396
			c0-0.457-0.028-0.795-0.081-1.012c-0.055-0.201-0.156-0.393-0.302-0.57c-0.39-0.473-1.041-0.709-1.955-0.709
			c-0.862,0-1.63,0.234-2.305,0.707l0.503,0.65c0.497-0.373,0.987-0.559,1.471-0.559c0.63,0,1.023,0.313,1.18,0.941
			c-0.39,0.078-0.713,0.145-0.969,0.197c-0.631,0.133-1.149,0.307-1.553,0.524c-0.709,0.38-1.062,0.884-1.062,1.511
			c0,0.436,0.161,0.795,0.488,1.082c0.325,0.287,0.722,0.43,1.188,0.43c0.729,0,1.351-0.276,1.863-0.832
			c0.008,0.258,0.055,0.49,0.14,0.699h1.631C131.563,31.903,131.484,31.351,131.484,30.612z"/>
		<path fill="#FFFFFF" d="M134.465,32.276h-1.525v-7.688h1.525V32.276z"/>
		<path fill="#FFFFFF" d="M144.065,30.358c0,0.598-0.263,1.09-0.792,1.475c-0.528,0.384-1.212,0.576-2.051,0.576
			c-0.886,0-1.694-0.229-2.424-0.689l0.617-0.888c0.573,0.398,1.132,0.597,1.675,0.597c0.38,0,0.691-0.09,0.931-0.268
			c0.241-0.18,0.361-0.416,0.361-0.711c0-0.35-0.298-0.766-0.896-1.248c-0.278-0.226-0.714-0.553-1.302-0.98
			c-0.675-0.481-1.012-1.011-1.012-1.584c0-0.537,0.247-0.975,0.739-1.313c0.494-0.338,1.123-0.508,1.892-0.508
			c0.744,0,1.436,0.199,2.073,0.596l-0.631,0.807c-0.458-0.281-0.897-0.422-1.317-0.422c-0.318,0-0.573,0.07-0.763,0.211
			c-0.191,0.139-0.286,0.326-0.286,0.56c0,0.28,0.249,0.61,0.746,0.99c0.179,0.134,0.6,0.448,1.261,0.944
			C143.673,29.071,144.065,29.689,144.065,30.358z"/>
		<path fill="#FFFFFF" d="M149.971,31.907c-0.605,0.334-1.278,0.502-2.015,0.502c-0.885,0-1.619-0.252-2.202-0.757
			c-0.581-0.504-0.872-1.16-0.872-1.968c0-0.793,0.304-1.45,0.913-1.975c0.611-0.523,1.385-0.785,2.324-0.785
			c0.661,0,1.25,0.143,1.771,0.429l-0.454,0.729c-0.38-0.158-0.752-0.238-1.117-0.238c-0.542,0-0.979,0.163-1.308,0.488
			c-0.331,0.326-0.495,0.758-0.495,1.293c0,0.559,0.166,1.01,0.501,1.352c0.333,0.342,0.771,0.512,1.315,0.512
			c0.372,0,0.779-0.109,1.221-0.33L149.971,31.907z"/>
		<path fill="#FFFFFF" d="M152.534,25.429c0,0.217-0.086,0.404-0.256,0.561c-0.17,0.154-0.376,0.232-0.616,0.232
			s-0.449-0.074-0.622-0.221c-0.175-0.148-0.262-0.328-0.262-0.537c0-0.249,0.081-0.449,0.244-0.6
			c0.163-0.152,0.379-0.229,0.651-0.229c0.248,0,0.453,0.076,0.616,0.229C152.452,25.015,152.534,25.204,152.534,25.429z
			 M152.438,32.276h-1.527v-5.231h1.527V32.276z"/>
		<path fill="#FFFFFF" d="M155.228,29.092c0.046-0.944,0.476-1.416,1.286-1.416c0.687,0,1.062,0.388,1.124,1.163
			c0.008,0.107,0.013,0.191,0.013,0.253H155.228z M158.704,28.073c-0.39-0.766-1.11-1.148-2.165-1.148
			c-0.839,0-1.53,0.236-2.073,0.709c-0.574,0.506-0.861,1.154-0.861,1.945c0,0.871,0.323,1.576,0.967,2.121
			c0.56,0.474,1.266,0.709,2.12,0.709c0.744,0,1.502-0.193,2.271-0.584l-0.432-0.725c-0.512,0.283-1.016,0.426-1.512,0.426
			c-0.528,0-0.956-0.154-1.285-0.463c-0.33-0.308-0.499-0.731-0.507-1.27h3.5c0-0.016,0.05-0.045,0.151-0.087
			c0.1-0.043,0.15-0.07,0.15-0.087C159.021,29,158.912,28.485,158.704,28.073z"/>
		<path fill="#FFFFFF" d="M165.676,32.276h-1.524v-2.988c0-0.451-0.064-0.775-0.188-0.977c-0.188-0.296-0.503-0.442-0.948-0.442
			c-0.641,0-1.055,0.239-1.241,0.722c-0.07,0.177-0.106,0.468-0.106,0.871v2.814h-1.549v-5.231h1.549v0.701
			c0.56-0.548,1.224-0.821,1.993-0.821c0.933,0,1.546,0.326,1.84,0.977c0.118,0.272,0.175,0.74,0.175,1.408V32.276z"/>
		<path fill="#FFFFFF" d="M171.844,31.907c-0.606,0.334-1.277,0.502-2.014,0.502c-0.887,0-1.621-0.252-2.203-0.757
			c-0.581-0.504-0.874-1.16-0.874-1.968c0-0.793,0.306-1.45,0.915-1.975c0.61-0.523,1.385-0.785,2.324-0.785
			c0.659,0,1.25,0.143,1.771,0.429l-0.454,0.729c-0.38-0.158-0.752-0.238-1.116-0.238c-0.544,0-0.979,0.163-1.309,0.488
			c-0.331,0.326-0.495,0.758-0.495,1.293c0,0.559,0.166,1.01,0.5,1.352c0.333,0.342,0.771,0.512,1.315,0.512
			c0.372,0,0.779-0.109,1.221-0.33L171.844,31.907z"/>
		<path fill="#FFFFFF" d="M173.874,29.092c0.047-0.944,0.477-1.416,1.286-1.416c0.688,0,1.062,0.388,1.125,1.163
			c0.007,0.107,0.012,0.191,0.012,0.253H173.874z M177.35,28.073c-0.388-0.766-1.109-1.148-2.164-1.148
			c-0.839,0-1.529,0.236-2.073,0.709c-0.573,0.506-0.86,1.154-0.86,1.945c0,0.871,0.322,1.576,0.965,2.121
			c0.561,0.474,1.268,0.709,2.121,0.709c0.746,0,1.503-0.193,2.271-0.584l-0.43-0.725c-0.512,0.283-1.017,0.426-1.513,0.426
			c-0.528,0-0.956-0.154-1.285-0.463c-0.331-0.308-0.499-0.731-0.507-1.27h3.499c0-0.016,0.052-0.045,0.152-0.087
			c0.102-0.043,0.15-0.07,0.15-0.087C177.668,29,177.561,28.485,177.35,28.073z"/>
		<path fill="#FFFFFF" d="M185.298,30.706c-0.071,0.203-0.206,0.378-0.408,0.526c-0.232,0.163-0.488,0.244-0.769,0.244
			c-0.225,0-0.412-0.073-0.564-0.222c-0.151-0.148-0.227-0.33-0.227-0.549c0-0.536,0.495-0.913,1.486-1.131
			c0.288-0.063,0.496-0.104,0.62-0.129v0.502C185.445,30.183,185.397,30.435,185.298,30.706z M186.927,30.612v-1.396
			c0-0.457-0.028-0.795-0.082-1.012c-0.055-0.201-0.155-0.393-0.302-0.57c-0.389-0.473-1.041-0.709-1.956-0.709
			c-0.861,0-1.63,0.234-2.304,0.707l0.503,0.65c0.499-0.373,0.987-0.559,1.472-0.559c0.63,0,1.022,0.313,1.179,0.941
			c-0.389,0.078-0.712,0.145-0.97,0.197c-0.629,0.133-1.146,0.307-1.552,0.524c-0.709,0.38-1.062,0.884-1.062,1.511
			c0,0.436,0.162,0.795,0.488,1.082s0.722,0.43,1.188,0.43c0.729,0,1.351-0.276,1.863-0.832c0.008,0.258,0.054,0.49,0.14,0.699
			h1.631C187.005,31.903,186.927,31.351,186.927,30.612z"/>
		<path fill="#FFFFFF" d="M193.939,32.276h-1.525v-2.988c0-0.451-0.063-0.775-0.188-0.977c-0.188-0.296-0.505-0.442-0.948-0.442
			c-0.641,0-1.054,0.239-1.241,0.722c-0.071,0.177-0.105,0.468-0.105,0.871v2.814h-1.551v-5.231h1.551v0.701
			c0.559-0.548,1.223-0.821,1.992-0.821c0.933,0,1.545,0.326,1.841,0.977c0.116,0.272,0.175,0.74,0.175,1.408V32.276z"/>
		<path fill="#FFFFFF" d="M199.194,31.05c-0.275,0.366-0.635,0.549-1.083,0.549c-0.433,0-0.782-0.183-1.048-0.549
			c-0.268-0.365-0.4-0.852-0.4-1.459c0-0.575,0.129-1.026,0.389-1.354c0.258-0.326,0.607-0.49,1.049-0.49
			c0.455,0,0.818,0.168,1.094,0.503c0.274,0.333,0.411,0.786,0.411,1.354C199.605,30.202,199.469,30.685,199.194,31.05z
			 M201.095,24.588h-1.489v3.134c-0.466-0.531-1.074-0.797-1.828-0.797c-0.792,0-1.449,0.259-1.969,0.779s-0.78,1.177-0.78,1.969
			c0,0.762,0.222,1.394,0.664,1.898c0.482,0.559,1.13,0.838,1.944,0.838c0.73,0,1.387-0.299,1.969-0.901v0.769h1.489V24.588z"/>
		<path fill="#FFFFFF" d="M210.867,25.932h-2.509v6.345h-1.646v-6.345h-2.507V24.95h6.662V25.932z"/>
		<path fill="#FFFFFF" d="M211.719,29.092c0.047-0.944,0.475-1.416,1.287-1.416c0.687,0,1.061,0.388,1.123,1.163
			c0.009,0.107,0.012,0.191,0.012,0.253H211.719z M215.195,28.073c-0.387-0.766-1.11-1.148-2.165-1.148
			c-0.839,0-1.529,0.236-2.073,0.709c-0.573,0.506-0.859,1.154-0.859,1.945c0,0.871,0.321,1.576,0.966,2.121
			c0.56,0.474,1.265,0.709,2.119,0.709c0.746,0,1.503-0.193,2.271-0.584l-0.43-0.725c-0.512,0.283-1.016,0.426-1.512,0.426
			c-0.529,0-0.957-0.154-1.286-0.463c-0.33-0.308-0.499-0.731-0.507-1.27h3.5c0-0.016,0.051-0.045,0.152-0.087
			c0.101-0.043,0.15-0.07,0.15-0.087C215.514,29,215.404,28.485,215.195,28.073z"/>
		<path fill="#FFFFFF" d="M221.301,31.907c-0.604,0.334-1.278,0.502-2.016,0.502c-0.885,0-1.617-0.252-2.2-0.757
			c-0.583-0.504-0.873-1.16-0.873-1.968c0-0.793,0.305-1.45,0.913-1.975c0.61-0.523,1.385-0.785,2.324-0.785
			c0.66,0,1.25,0.143,1.771,0.429l-0.454,0.729c-0.38-0.158-0.753-0.238-1.117-0.238c-0.543,0-0.979,0.163-1.309,0.488
			c-0.33,0.326-0.493,0.758-0.493,1.293c0,0.559,0.166,1.01,0.499,1.352c0.334,0.342,0.771,0.512,1.314,0.512
			c0.373,0,0.78-0.109,1.222-0.33L221.301,31.907z"/>
		<path fill="#FFFFFF" d="M227.666,32.276h-1.525v-2.988c0-0.451-0.063-0.775-0.188-0.977c-0.188-0.296-0.504-0.442-0.949-0.442
			c-0.601,0-1.002,0.213-1.205,0.64c-0.094,0.194-0.141,0.512-0.141,0.953v2.814h-1.551v-7.688h1.551v3.134
			c0.566-0.531,1.227-0.797,1.98-0.797c0.947,0,1.565,0.326,1.853,0.977c0.116,0.272,0.175,0.74,0.175,1.408V32.276z"/>
		<path fill="#FFFFFF" d="M234.701,32.276h-1.526v-2.988c0-0.451-0.062-0.775-0.188-0.977c-0.187-0.296-0.503-0.442-0.948-0.442
			c-0.641,0-1.054,0.239-1.241,0.722c-0.069,0.177-0.105,0.468-0.105,0.871v2.814h-1.55v-5.231h1.55v0.701
			c0.56-0.548,1.224-0.821,1.993-0.821c0.932,0,1.545,0.326,1.841,0.977c0.116,0.272,0.175,0.74,0.175,1.408V32.276z"/>
		<path fill="#FFFFFF" d="M239.88,31.112c-0.251,0.355-0.602,0.534-1.052,0.534c-0.456,0-0.813-0.179-1.067-0.534
			c-0.257-0.355-0.385-0.848-0.385-1.475c0-0.596,0.129-1.07,0.39-1.422c0.26-0.353,0.606-0.528,1.04-0.528
			c0.457,0,0.813,0.171,1.069,0.517c0.256,0.344,0.383,0.822,0.383,1.434C240.258,30.265,240.133,30.756,239.88,31.112z M241,27.698
			c-0.569-0.515-1.285-0.773-2.148-0.773c-0.899,0-1.637,0.252-2.211,0.757c-0.575,0.505-0.862,1.155-0.862,1.956
			c0,0.814,0.284,1.48,0.856,1.996c0.569,0.518,1.302,0.775,2.193,0.775c0.887,0,1.611-0.262,2.178-0.785
			c0.567-0.524,0.852-1.189,0.852-1.998C241.857,28.856,241.57,28.216,241,27.698z"/>
		<path fill="#FFFFFF" d="M244.47,32.276h-1.525v-7.688h1.525V32.276z"/>
		<path fill="#FFFFFF" d="M249.664,31.112c-0.252,0.355-0.603,0.534-1.052,0.534c-0.457,0-0.813-0.179-1.069-0.534
			c-0.255-0.355-0.383-0.848-0.383-1.475c0-0.596,0.13-1.07,0.39-1.422c0.259-0.353,0.605-0.528,1.04-0.528
			c0.456,0,0.813,0.171,1.068,0.517c0.255,0.344,0.385,0.822,0.385,1.434C250.043,30.265,249.916,30.757,249.664,31.112z
			 M250.785,27.698c-0.572-0.515-1.287-0.773-2.149-0.773c-0.9,0-1.638,0.252-2.212,0.757s-0.862,1.155-0.862,1.956
			c0,0.814,0.286,1.48,0.855,1.996c0.571,0.518,1.303,0.775,2.195,0.775c0.886,0,1.61-0.262,2.177-0.785
			c0.568-0.524,0.851-1.189,0.851-1.998C251.64,28.856,251.354,28.216,250.785,27.698z"/>
		<path fill="#FFFFFF" d="M256.443,31.05c-0.267,0.366-0.617,0.549-1.051,0.549c-0.426,0-0.769-0.183-1.029-0.549
			c-0.259-0.365-0.389-0.852-0.389-1.459c0-0.575,0.122-1.026,0.367-1.354c0.244-0.326,0.582-0.49,1.016-0.49
			c0.465,0,0.828,0.164,1.093,0.49c0.263,0.327,0.395,0.782,0.395,1.366C256.845,30.202,256.711,30.685,256.443,31.05z
			 M258.371,27.045h-1.526v0.713c-0.419-0.556-1.012-0.833-1.781-0.833c-0.775,0-1.423,0.264-1.943,0.791
			c-0.52,0.529-0.78,1.185-0.78,1.969c0,0.761,0.217,1.395,0.651,1.898c0.481,0.551,1.13,0.826,1.944,0.826
			c0.714,0,1.352-0.299,1.909-0.901v0.407c0,0.496-0.043,0.856-0.128,1.082c-0.257,0.674-0.866,1.01-1.828,1.01
			c-0.597,0-1.229-0.156-1.896-0.473l-0.303,0.857c0.76,0.334,1.58,0.5,2.456,0.5c1.708,0,2.744-0.689,3.109-2.072
			c0.077-0.294,0.116-0.834,0.116-1.617V27.045z"/>
		<path fill="#FFFFFF" d="M264.91,27.157l-2.83,5.778c-0.363,0.746-0.709,1.242-1.036,1.491c-0.42,0.31-1.025,0.465-1.817,0.465
			h-0.361V33.96h0.303c0.357,0,0.637-0.043,0.839-0.129c0.202-0.085,0.391-0.248,0.565-0.488c0.174-0.241,0.42-0.711,0.739-1.41
			l-2.26-4.729l1.514-0.268l1.491,3.698l1.643-3.698L264.91,27.157z"/>
		<path fill="#FFFFFF" d="M275.055,25.402l-0.525,0.911c-0.598-0.303-1.185-0.455-1.76-0.455c-0.878,0-1.588,0.252-2.133,0.752
			c-0.544,0.5-0.815,1.164-0.815,1.986c0,0.8,0.274,1.462,0.821,1.986c0.547,0.523,1.276,0.785,2.186,0.785
			c0.605,0,1.181-0.133,1.725-0.396l0.432,0.9c-0.723,0.358-1.522,0.537-2.4,0.537c-1.313,0-2.392-0.35-3.236-1.049
			c-0.848-0.7-1.27-1.602-1.27-2.706s0.431-2.02,1.292-2.746s1.949-1.091,3.261-1.091C273.477,24.817,274.285,25.013,275.055,25.402
			z"/>
		<path fill="#FFFFFF" d="M277.221,29.092c0.047-0.944,0.477-1.416,1.288-1.416c0.686,0,1.06,0.388,1.123,1.163
			c0.007,0.107,0.011,0.191,0.011,0.253H277.221z M280.697,28.073c-0.388-0.766-1.11-1.148-2.166-1.148
			c-0.836,0-1.527,0.236-2.071,0.709c-0.573,0.506-0.861,1.154-0.861,1.945c0,0.871,0.322,1.576,0.968,2.121
			c0.558,0.474,1.264,0.709,2.118,0.709c0.745,0,1.502-0.193,2.272-0.584l-0.432-0.725c-0.512,0.283-1.016,0.426-1.512,0.426
			c-0.528,0-0.957-0.154-1.286-0.463c-0.33-0.308-0.499-0.731-0.507-1.27h3.499c0-0.016,0.052-0.045,0.153-0.087
			c0.1-0.043,0.15-0.07,0.15-0.087C281.016,29,280.906,28.485,280.697,28.073z"/>
		<path fill="#FFFFFF" d="M287.671,32.276h-1.525v-2.988c0-0.451-0.063-0.775-0.188-0.977c-0.188-0.296-0.502-0.442-0.948-0.442
			c-0.641,0-1.054,0.239-1.24,0.722c-0.07,0.177-0.106,0.468-0.106,0.871v2.814h-1.549v-5.231h1.549v0.701
			c0.561-0.548,1.225-0.821,1.992-0.821c0.934,0,1.546,0.326,1.842,0.977c0.116,0.272,0.175,0.74,0.175,1.408V32.276z"/>
		<path fill="#FFFFFF" d="M292.688,32.082c-0.537,0.218-1.062,0.327-1.573,0.327c-0.685,0-1.183-0.201-1.493-0.605
			c-0.193-0.248-0.292-0.699-0.292-1.352v-2.691h-0.811v-0.716h0.811v-1.271l1.526-0.304v1.574h1.541v0.716h-1.541v2.413
			c0,0.522,0.06,0.886,0.183,1.091c0.121,0.207,0.335,0.309,0.64,0.309c0.249,0,0.497-0.057,0.738-0.17L292.688,32.082z"/>
		<path fill="#FFFFFF" d="M294.541,29.092c0.046-0.944,0.475-1.416,1.286-1.416c0.687,0,1.061,0.388,1.123,1.163
			c0.008,0.107,0.012,0.191,0.012,0.253H294.541z M298.017,28.073c-0.388-0.766-1.11-1.148-2.166-1.148
			c-0.837,0-1.528,0.236-2.071,0.709c-0.575,0.506-0.862,1.154-0.862,1.945c0,0.871,0.323,1.576,0.968,2.121
			c0.559,0.474,1.265,0.709,2.119,0.709c0.745,0,1.503-0.193,2.271-0.584l-0.431-0.725c-0.511,0.283-1.016,0.426-1.513,0.426
			c-0.527,0-0.956-0.154-1.286-0.463c-0.329-0.308-0.499-0.731-0.505-1.27h3.498c0-0.016,0.051-0.045,0.152-0.087
			c0.101-0.043,0.15-0.07,0.15-0.087C298.334,29,298.226,28.485,298.017,28.073z"/>
		<path fill="#FFFFFF" d="M303.334,27.4l-0.574,0.998c-0.343-0.144-0.588-0.215-0.737-0.215c-0.437,0-0.741,0.209-0.913,0.628
			c-0.102,0.248-0.151,0.663-0.151,1.244v2.221h-1.526v-5.231h1.526v0.923l0.222-0.337c0.313-0.472,0.668-0.706,1.065-0.706
			C302.582,26.925,302.943,27.083,303.334,27.4z"/>
	</g>
	<g>
		<path fill="#FFFFFF" d="M95.417,37.608l-0.268,0.678c-0.21-0.066-0.412-0.1-0.605-0.1c-0.396,0-0.644,0.155-0.745,0.467
			c-0.04,0.092-0.058,0.276-0.058,0.549v0.631h1.396v0.714h-1.396v4.517h-1.526v-4.517h-0.944v-0.714h0.944v-0.514
			c0-0.598,0.155-1.052,0.467-1.363c0.396-0.388,0.919-0.581,1.571-0.581C94.647,37.375,95.037,37.453,95.417,37.608z"/>
		<path fill="#FFFFFF" d="M99.418,43.899c-0.251,0.356-0.601,0.535-1.051,0.535c-0.457,0-0.813-0.179-1.069-0.535
			c-0.255-0.355-0.383-0.847-0.383-1.475c0-0.596,0.13-1.07,0.39-1.422c0.26-0.354,0.605-0.528,1.039-0.528
			c0.458,0,0.814,0.172,1.069,0.517c0.256,0.344,0.383,0.821,0.383,1.434C99.796,43.053,99.67,43.544,99.418,43.899z M100.54,40.486
			c-0.572-0.517-1.288-0.774-2.15-0.774c-0.9,0-1.638,0.252-2.211,0.756c-0.575,0.506-0.863,1.158-0.863,1.957
			c0,0.815,0.287,1.482,0.855,1.998c0.572,0.516,1.304,0.773,2.197,0.773c0.884,0,1.61-0.262,2.177-0.785
			c0.566-0.524,0.85-1.19,0.85-1.998C101.395,41.645,101.109,41.002,100.54,40.486z"/>
		<path fill="#FFFFFF" d="M106.384,40.187l-0.572,0.998c-0.344-0.143-0.59-0.213-0.738-0.213c-0.437,0-0.742,0.209-0.913,0.627
			c-0.103,0.248-0.152,0.664-0.152,1.244v2.221h-1.527v-5.23h1.527v0.921l0.223-0.335c0.312-0.471,0.667-0.707,1.064-0.707
			C105.631,39.712,105.994,39.87,106.384,40.187z"/>
		<path fill="#FFFFFF" d="M114.356,43.536c-0.271,0.201-0.574,0.344-0.908,0.425c-0.334,0.081-0.803,0.122-1.409,0.122h-0.664V38.72
			h0.711c0.885,0,1.536,0.096,1.956,0.29c0.83,0.396,1.246,1.151,1.246,2.269C115.288,42.31,114.979,43.063,114.356,43.536z
			 M114.935,38.227c-0.402-0.187-0.78-0.31-1.128-0.372c-0.443-0.078-1.048-0.117-1.818-0.117h-2.246v7.326h2.246
			c1.298,0,2.313-0.183,3.052-0.547c1.327-0.675,1.991-1.782,1.991-3.32C117.031,39.839,116.333,38.849,114.935,38.227z"/>
		<path fill="#FFFFFF" d="M119.938,38.216c0,0.218-0.084,0.405-0.254,0.561c-0.172,0.155-0.376,0.233-0.618,0.233
			c-0.24,0-0.447-0.074-0.621-0.222c-0.174-0.147-0.263-0.328-0.263-0.537c0-0.249,0.082-0.449,0.245-0.601
			c0.162-0.151,0.379-0.228,0.651-0.228c0.248,0,0.453,0.076,0.616,0.228C119.856,37.802,119.938,37.99,119.938,38.216z
			 M119.842,45.063h-1.526v-5.23h1.526V45.063z"/>
		<path fill="#FFFFFF" d="M125.042,43.628c0,0.465-0.207,0.842-0.619,1.133c-0.411,0.29-0.937,0.436-1.575,0.436
			c-0.715,0-1.361-0.202-1.936-0.607l0.501-0.736c0.459,0.355,0.875,0.533,1.25,0.533c0.248,0,0.449-0.059,0.601-0.175
			c0.151-0.117,0.227-0.272,0.227-0.466c0-0.164-0.062-0.313-0.186-0.449c-0.125-0.136-0.397-0.34-0.817-0.611
			c-0.42-0.273-0.704-0.483-0.851-0.63c-0.266-0.272-0.397-0.571-0.397-0.897c0-0.428,0.186-0.775,0.559-1.043
			c0.372-0.268,0.849-0.402,1.432-0.402c0.604,0,1.16,0.143,1.665,0.428l-0.455,0.65c-0.31-0.188-0.636-0.279-0.978-0.279
			c-0.21,0-0.382,0.049-0.517,0.146c-0.137,0.097-0.205,0.219-0.205,0.366c0,0.209,0.269,0.492,0.806,0.85
			c0.601,0.395,0.999,0.707,1.198,0.935C124.942,43.036,125.042,43.309,125.042,43.628z"/>
		<path fill="#FFFFFF" d="M129.098,43.494c-0.07,0.202-0.206,0.377-0.408,0.525c-0.234,0.164-0.489,0.245-0.768,0.245
			c-0.225,0-0.413-0.074-0.564-0.223c-0.152-0.146-0.228-0.33-0.228-0.548c0-0.537,0.495-0.914,1.487-1.132
			c0.288-0.063,0.494-0.105,0.62-0.129v0.502C129.245,42.97,129.198,43.222,129.098,43.494z M130.728,43.399v-1.396
			c0-0.457-0.028-0.795-0.082-1.012c-0.054-0.201-0.155-0.391-0.302-0.57c-0.389-0.473-1.039-0.709-1.954-0.709
			c-0.863,0-1.63,0.236-2.304,0.707l0.502,0.65c0.498-0.372,0.988-0.559,1.471-0.559c0.631,0,1.023,0.314,1.18,0.941
			c-0.39,0.078-0.713,0.145-0.97,0.197c-0.63,0.133-1.148,0.307-1.552,0.524c-0.708,0.38-1.063,0.884-1.063,1.512
			c0,0.435,0.164,0.794,0.491,1.082c0.325,0.285,0.722,0.429,1.188,0.429c0.729,0,1.351-0.276,1.863-0.832
			c0.007,0.258,0.055,0.489,0.139,0.699h1.631C130.807,44.69,130.728,44.137,130.728,43.399z"/>
		<path fill="#FFFFFF" d="M135.814,43.628c0,0.465-0.206,0.842-0.619,1.133c-0.411,0.29-0.937,0.436-1.573,0.436
			c-0.715,0-1.361-0.202-1.937-0.607l0.502-0.736c0.459,0.355,0.875,0.533,1.248,0.533c0.25,0,0.451-0.059,0.602-0.175
			c0.151-0.117,0.227-0.272,0.227-0.466c0-0.164-0.063-0.313-0.186-0.449c-0.124-0.136-0.397-0.34-0.816-0.611
			c-0.42-0.273-0.705-0.483-0.853-0.63c-0.264-0.272-0.396-0.571-0.396-0.897c0-0.428,0.187-0.775,0.559-1.043
			c0.373-0.268,0.85-0.402,1.433-0.402c0.605,0,1.161,0.143,1.664,0.428l-0.454,0.65c-0.31-0.188-0.635-0.279-0.979-0.279
			c-0.209,0-0.382,0.049-0.518,0.146c-0.135,0.097-0.204,0.219-0.204,0.366c0,0.209,0.268,0.492,0.805,0.85
			c0.6,0.395,0.999,0.707,1.198,0.935C135.715,43.036,135.814,43.309,135.814,43.628z"/>
		<path fill="#FFFFFF" d="M140.438,44.868c-0.537,0.219-1.062,0.328-1.574,0.328c-0.685,0-1.182-0.201-1.493-0.604
			c-0.194-0.249-0.292-0.7-0.292-1.353v-2.692h-0.81v-0.714h0.81v-1.271l1.526-0.304v1.575h1.542v0.714h-1.542v2.415
			c0,0.521,0.061,0.885,0.181,1.09c0.122,0.207,0.335,0.309,0.642,0.309c0.25,0,0.497-0.057,0.74-0.17L140.438,44.868z"/>
		<path fill="#FFFFFF" d="M142.291,41.88c0.047-0.945,0.477-1.418,1.288-1.418c0.686,0,1.06,0.389,1.123,1.164
			c0.008,0.107,0.012,0.191,0.012,0.254H142.291z M145.768,40.861c-0.388-0.767-1.109-1.149-2.166-1.149
			c-0.837,0-1.528,0.237-2.071,0.71c-0.575,0.504-0.861,1.153-0.861,1.944c0,0.87,0.321,1.577,0.966,2.12
			c0.56,0.475,1.265,0.71,2.12,0.71c0.745,0,1.502-0.194,2.271-0.584l-0.43-0.725c-0.512,0.283-1.017,0.425-1.513,0.425
			c-0.527,0-0.956-0.153-1.286-0.462c-0.33-0.308-0.499-0.73-0.507-1.27h3.5c0-0.016,0.051-0.044,0.152-0.086
			c0.1-0.043,0.15-0.073,0.15-0.088C146.086,41.788,145.978,41.272,145.768,40.861z"/>
		<path fill="#FFFFFF" d="M151.084,40.187l-0.572,0.998c-0.344-0.143-0.589-0.213-0.738-0.213c-0.437,0-0.741,0.209-0.913,0.627
			c-0.102,0.248-0.152,0.664-0.152,1.244v2.221h-1.526v-5.23h1.526v0.921l0.223-0.335c0.312-0.471,0.667-0.707,1.065-0.707
			C150.332,39.712,150.695,39.87,151.084,40.187z"/>
		<path fill="#FFFFFF" d="M157.832,40.827c-0.258,0.242-0.681,0.361-1.268,0.361h-0.487v-2.507h0.626
			c0.502,0,0.857,0.067,1.065,0.198c0.302,0.188,0.452,0.502,0.452,0.945C158.221,40.253,158.091,40.587,157.832,40.827z
			 M158.438,41.794c0.945-0.497,1.418-1.189,1.418-2.074c0-0.691-0.275-1.217-0.826-1.573c-0.279-0.188-0.633-0.308-1.06-0.362
			c-0.241-0.031-0.62-0.047-1.141-0.047h-2.386v7.326h1.634v-2.967h0.978l1.676,3.1l1.699-0.279L158.438,41.794z"/>
		<path fill="#FFFFFF" d="M162.429,41.88c0.048-0.945,0.476-1.418,1.287-1.418c0.686,0,1.062,0.389,1.123,1.164
			c0.008,0.107,0.012,0.191,0.012,0.254H162.429z M165.906,40.861c-0.39-0.767-1.111-1.149-2.166-1.149
			c-0.838,0-1.529,0.237-2.072,0.71c-0.575,0.504-0.861,1.153-0.861,1.944c0,0.87,0.321,1.577,0.967,2.12
			c0.559,0.475,1.266,0.71,2.119,0.71c0.746,0,1.502-0.194,2.271-0.584l-0.431-0.725c-0.512,0.283-1.015,0.425-1.513,0.425
			c-0.527,0-0.957-0.153-1.286-0.462c-0.328-0.308-0.499-0.73-0.506-1.27h3.5c0-0.016,0.05-0.044,0.151-0.086
			c0.101-0.043,0.15-0.073,0.15-0.088C166.224,41.788,166.115,41.272,165.906,40.861z"/>
		<path fill="#FFFFFF" d="M171.1,43.837c-0.275,0.365-0.636,0.549-1.084,0.549c-0.434,0-0.782-0.184-1.049-0.549
			c-0.266-0.365-0.4-0.852-0.4-1.459c0-0.574,0.131-1.025,0.389-1.354c0.26-0.326,0.608-0.49,1.049-0.49
			c0.455,0,0.82,0.168,1.096,0.502c0.273,0.336,0.41,0.787,0.41,1.354C171.51,42.99,171.373,43.472,171.1,43.837z M172.999,37.375
			h-1.489v3.135c-0.465-0.532-1.074-0.798-1.828-0.798c-0.792,0-1.448,0.26-1.968,0.779c-0.521,0.521-0.78,1.177-0.78,1.969
			c0,0.761,0.221,1.394,0.664,1.898c0.48,0.559,1.129,0.838,1.944,0.838c0.729,0,1.386-0.3,1.968-0.901v0.769h1.489V37.375z"/>
		<path fill="#FFFFFF" d="M179.957,45.063h-1.526v-0.699c-0.562,0.556-1.227,0.832-1.997,0.832c-0.943,0-1.559-0.322-1.847-0.967
			c-0.118-0.273-0.175-0.746-0.175-1.423v-2.974h1.525v2.996c0,0.451,0.062,0.782,0.188,0.99c0.188,0.289,0.506,0.434,0.953,0.434
			c0.588,0,0.989-0.215,1.2-0.642c0.102-0.21,0.152-0.529,0.152-0.956v-2.822h1.526V45.063z"/>
		<path fill="#FFFFFF" d="M186.115,44.694c-0.605,0.336-1.277,0.502-2.015,0.502c-0.886,0-1.619-0.252-2.202-0.757
			c-0.582-0.504-0.873-1.16-0.873-1.968c0-0.791,0.305-1.449,0.914-1.974s1.384-0.786,2.324-0.786c0.658,0,1.25,0.143,1.77,0.428
			l-0.454,0.73c-0.38-0.159-0.751-0.238-1.115-0.238c-0.545,0-0.98,0.163-1.31,0.488c-0.329,0.328-0.494,0.758-0.494,1.293
			c0,0.559,0.166,1.01,0.5,1.352c0.333,0.341,0.771,0.512,1.314,0.512c0.372,0,0.779-0.11,1.223-0.331L186.115,44.694z"/>
		<path fill="#FFFFFF" d="M190.462,44.868c-0.536,0.219-1.061,0.328-1.572,0.328c-0.686,0-1.183-0.201-1.494-0.604
			c-0.194-0.249-0.291-0.7-0.291-1.353v-2.692h-0.812v-0.714h0.812v-1.271l1.524-0.304v1.575h1.542v0.714h-1.542v2.415
			c0,0.521,0.063,0.885,0.183,1.09c0.121,0.207,0.335,0.309,0.64,0.309c0.252,0,0.498-0.057,0.741-0.17L190.462,44.868z"/>
		<path fill="#FFFFFF" d="M192.848,38.216c0,0.218-0.085,0.405-0.256,0.561s-0.376,0.233-0.616,0.233
			c-0.241,0-0.448-0.074-0.622-0.222c-0.175-0.147-0.263-0.328-0.263-0.537c0-0.249,0.083-0.449,0.245-0.601
			c0.163-0.151,0.379-0.228,0.65-0.228c0.249,0,0.454,0.076,0.616,0.228C192.766,37.802,192.848,37.99,192.848,38.216z
			 M192.752,45.063h-1.527v-5.23h1.527V45.063z"/>
		<path fill="#FFFFFF" d="M198.021,43.899c-0.253,0.356-0.603,0.535-1.052,0.535c-0.458,0-0.813-0.179-1.069-0.535
			c-0.255-0.355-0.384-0.847-0.384-1.475c0-0.596,0.13-1.07,0.389-1.422c0.259-0.354,0.606-0.528,1.042-0.528
			c0.456,0,0.813,0.172,1.067,0.517c0.257,0.344,0.384,0.821,0.384,1.434C198.398,43.053,198.272,43.544,198.021,43.899z
			 M199.141,40.486c-0.569-0.517-1.287-0.774-2.147-0.774c-0.9,0-1.639,0.252-2.214,0.756c-0.573,0.506-0.861,1.158-0.861,1.957
			c0,0.815,0.285,1.482,0.856,1.998c0.57,0.516,1.302,0.773,2.196,0.773c0.883,0,1.609-0.262,2.176-0.785
			c0.566-0.524,0.851-1.19,0.851-1.998C199.997,41.645,199.713,41.002,199.141,40.486z"/>
		<path fill="#FFFFFF" d="M206.643,45.063h-1.525v-2.988c0-0.45-0.063-0.775-0.188-0.977c-0.188-0.295-0.503-0.442-0.949-0.442
			c-0.639,0-1.053,0.239-1.24,0.721c-0.071,0.179-0.105,0.47-0.105,0.872v2.814h-1.549v-5.23h1.549v0.7
			c0.56-0.548,1.224-0.821,1.992-0.821c0.932,0,1.546,0.325,1.841,0.977c0.116,0.271,0.175,0.742,0.175,1.408V45.063z"/>
	</g>
	<g>
		<rect x="91.271" y="0.333" fill="#FFFFFF" width="152.847" height="19.363"/>
		<path fill="#55A9B6" d="M105.35,11.27c-0.009,0.091-0.058,0.136-0.149,0.136h-4.217c-0.091-0.01-0.136-0.055-0.136-0.136V8.249
			c0-0.082,0.045-0.122,0.136-0.122h4.217c0.1,0,0.149,0.04,0.149,0.122V11.27z M104.222,8.957h-2.259
			c-0.036,0-0.049,0.009-0.04,0.026v1.551c-0.009,0.027,0.004,0.041,0.04,0.041h2.259c0.035,0,0.054-0.014,0.054-0.041V8.983
			C104.275,8.966,104.257,8.957,104.222,8.957z M105.364,11.596l0.299,0.925c-1.143,0.326-2.68,0.58-4.611,0.761l-0.272-0.938
			C102.694,12.145,104.222,11.895,105.364,11.596z M111.009,14.888c0,0.172-0.1,0.258-0.299,0.258H99.284
			c-0.19,0-0.286-0.086-0.286-0.258V5.095c0-0.164,0.096-0.246,0.286-0.246h11.426c0.199,0,0.299,0.082,0.299,0.246V14.888z
			 M107.622,6.563c-0.118-0.318-0.236-0.586-0.354-0.803h-0.79c0.019,0.254,0.046,0.521,0.082,0.803H107.622z M108.452,5.761
			c0.1,0.244,0.204,0.512,0.313,0.803h0.612v0.91h-2.693c0.136,0.988,0.339,1.973,0.612,2.952c0.354-0.608,0.666-1.41,0.938-2.407
			l1.048,0.23c-0.409,1.306-0.902,2.389-1.482,3.251c-0.028,0.028-0.054,0.064-0.082,0.108c0.136,0.338,0.277,0.648,0.422,0.938
			c0.145,0.272,0.236,0.403,0.272,0.396c0.073-0.02,0.113-0.1,0.122-0.244c0.028-0.336,0.014-0.744-0.04-1.227l1.06,0.205
			c-0.045,0.961-0.154,1.646-0.326,2.055c-0.126,0.181-0.25,0.286-0.367,0.312c-0.118,0.047-0.245,0.068-0.381,0.068
			c-0.272-0.036-0.534-0.181-0.789-0.435c-0.226-0.3-0.448-0.686-0.667-1.156c-0.516,0.599-1.025,1.115-1.522,1.551l-0.913-0.572
			c0.871-0.707,1.543-1.373,2.014-1.999c-0.435-1.134-0.767-2.476-0.993-4.026h-4.787v-0.91h4.665
			c-0.046-0.281-0.072-0.549-0.082-0.803h-5.101c-0.081,0-0.122,0.036-0.122,0.108v8.257c0,0.072,0.041,0.107,0.122,0.107h9.399
			c0.082,0,0.123-0.035,0.123-0.107V5.869c0-0.072-0.041-0.108-0.123-0.108H108.452z"/>
		<path fill="#55A9B6" d="M118.353,5.317V4.448h1.184v0.869h4.923l1.034,0.45c-0.137,0.681-0.421,1.509-0.857,2.489l-1.048-0.367
			c0.309-0.754,0.494-1.238,0.558-1.456c0.01-0.1-0.04-0.149-0.149-0.149h-9.984c-0.073,0.01-0.109,0.041-0.109,0.096v1.617h-1.128
			V5.509c0-0.127,0.071-0.191,0.216-0.191H118.353z M123.209,8.284l0.802,0.693c-0.571,0.58-1.337,1.192-2.299,1.836l-0.762-0.722
			C121.958,9.403,122.71,8.802,123.209,8.284z M119.211,10.092c-2.041,1.343-3.932,2.208-5.673,2.599l-0.558-0.91
			c2.167-0.527,4.084-1.384,5.754-2.571c-0.118-0.146-0.25-0.286-0.396-0.423c-1.813,0.971-3.441,1.57-4.883,1.797l-0.489-0.898
			c1.76-0.335,3.361-0.885,4.802-1.646h-3.087V7.087h8.391v0.951h-3.481c-0.108,0.072-0.208,0.137-0.299,0.191
			c0.389,0.408,0.708,0.857,0.951,1.346c0.381,0.763,0.735,1.356,1.062,1.781c0.889,1.18,2.275,2.236,4.162,3.17l-0.965,0.775
			c-1.587-0.898-2.829-1.881-3.727-2.951c-0.01,0.762-0.15,1.414-0.422,1.958c-0.245,0.536-0.617,0.897-1.115,1.089
			c-0.282,0.1-0.59,0.137-0.925,0.108c-0.371-0.017-1.024-0.172-1.958-0.462l0.068-1.048c1.152,0.336,1.923,0.454,2.313,0.354
			c0.271-0.1,0.48-0.349,0.625-0.747c0.208-0.48,0.308-1.024,0.299-1.633c-2.285,1.479-4.435,2.426-6.447,2.844l-0.558-0.912
			c2.621-0.617,4.91-1.633,6.869-3.047C119.45,10.583,119.347,10.327,119.211,10.092z"/>
		<path fill="#55A9B6" d="M138.066,9.106l0.842,0.707c-0.725,0.734-1.703,1.51-2.938,2.326l-0.789-0.762
			C136.469,10.507,137.43,9.749,138.066,9.106z M126.762,9.868l0.912-0.707c1.179,0.941,2.098,1.763,2.761,2.461l-0.953,0.641
			C128.512,11.292,127.604,10.493,126.762,9.868z M128.218,4.441l1.06,0.543c-0.425,0.645-0.883,1.216-1.373,1.714
			c-0.027,0.019-0.027,0.046,0,0.082c0.336,0.217,0.857,0.717,1.564,1.496l-0.952,0.693c-0.581-0.814-1.202-1.482-1.863-1.998
			c-0.118-0.191-0.109-0.346,0.027-0.465C127.27,5.983,127.781,5.294,128.218,4.441z M132.91,4.399l1.048,0.545
			c-0.48,0.697-0.958,1.269-1.427,1.714c-0.011,0.009-0.011,0.026,0,0.054c0.298,0.182,0.765,0.59,1.4,1.225l-0.925,0.707
			c-0.599-0.762-1.169-1.328-1.714-1.699c-0.137-0.209-0.131-0.372,0.014-0.49C131.912,5.938,132.448,5.253,132.91,4.399z
			 M137.194,4.441l1.063,0.543c-0.445,0.645-0.886,1.171-1.319,1.579c-0.011,0.009-0.011,0.031,0,0.066
			c0.406,0.291,0.911,0.763,1.508,1.415l-0.938,0.693c-0.635-0.86-1.242-1.49-1.822-1.89c-0.119-0.208-0.11-0.372,0.026-0.49
			C136.293,5.869,136.786,5.229,137.194,4.441z M133.414,9.351h0.027c0.063,0.808,0.154,1.396,0.272,1.768
			c0.543,1.442,2.425,2.582,5.645,3.416l-0.844,0.883c-0.217-0.063-0.412-0.122-0.584-0.177c-2.893-0.996-4.638-2.13-5.237-3.4
			c-0.2,0.31-0.399,0.595-0.599,0.858c-1.016,1.143-2.711,2.048-5.087,2.719l-0.584-1.006c1.378-0.398,2.399-0.762,3.059-1.088
			c1.814-0.926,2.721-2.295,2.721-4.109l1.225,0.029C133.427,9.288,133.422,9.323,133.414,9.351z"/>
		<path fill="#55A9B6" d="M146.212,5.284V4.496h1.185v0.788h4.814l1.035,0.436c-0.055,0.645-0.25,1.406-0.585,2.285l-1.075-0.285
			c0.218-0.716,0.322-1.156,0.313-1.319c0.008-0.101-0.042-0.149-0.149-0.149h-9.875c-0.074,0-0.109,0.027-0.109,0.082v1.713h-1.129
			v-2.57c0-0.127,0.073-0.191,0.218-0.191H146.212z M147.396,10.468h5.658v0.952h-12.528v-0.952h5.686V9.76h-4.325V8.794h4.325
			V8.142h-3.944V7.175h3.944V6.481h1.185v0.693h3.916v0.967h-3.916v0.652h4.297V9.76h-4.297V10.468z M151.749,15.119
			c0,0.1-0.06,0.149-0.178,0.149h-9.548c-0.108,0-0.164-0.05-0.164-0.149v-2.992c0-0.091,0.056-0.136,0.164-0.136h9.548
			c0.118,0,0.178,0.045,0.178,0.136V15.119z M150.511,12.956h-7.428c-0.036,0-0.05,0.014-0.04,0.041v1.252
			c-0.01,0.025,0.003,0.045,0.04,0.054h7.428c0.036-0.009,0.054-0.028,0.054-0.054v-1.252
			C150.565,12.97,150.547,12.956,150.511,12.956z"/>
		<path fill="#55A9B6" d="M155.896,12.889v2.53h-1.186V4.944c0-0.054,0.015-0.094,0.041-0.122c0.027-0.018,0.068-0.028,0.123-0.028
			h3.346l0.79,0.465l-1.171,2.896c-0.081,0.137-0.068,0.249,0.041,0.34c0.518,0.553,0.875,1.083,1.074,1.592
			c0.291,0.852,0.254,1.568-0.108,2.148c-0.245,0.318-0.531,0.525-0.857,0.626C157.436,13.025,156.738,13.034,155.896,12.889z
			 M157.404,5.72h-1.414c-0.035,0-0.059,0.006-0.068,0.014c-0.018,0.019-0.025,0.037-0.025,0.055v6.066
			c0.542,0.182,1.032,0.223,1.468,0.123c0.208-0.047,0.357-0.15,0.449-0.314c0.098-0.172,0.153-0.38,0.163-0.624
			c0.01-0.536-0.454-1.374-1.387-2.517c0.008-0.063,0.017-0.118,0.025-0.163l0.993-2.435C157.663,5.78,157.595,5.712,157.404,5.72z
			 M161.636,9.366c-0.009,0.026-0.009,0.053,0,0.081c-0.2,2.675-1.256,4.671-3.171,5.984l-1.032-0.706
			c1.976-1.135,2.992-3.088,3.046-5.863V7.106h-1.441V6.102h3.291V4.496h1.185v1.605h3.535v1.005h-5.386v1.253l4.665-0.015
			c0.091,0,0.167,0.02,0.231,0.055c0.063,0.028,0.113,0.078,0.15,0.15c0.018,0.026,0.027,0.779,0.027,2.258
			c-0.055,1.949-0.218,3.146-0.49,3.59c-0.229,0.409-0.535,0.693-0.925,0.857c-0.689,0.318-1.904,0.209-3.646-0.325l0.068-1.185
			c1.441,0.554,2.407,0.726,2.896,0.518c0.219-0.1,0.423-0.301,0.611-0.6c0.165-0.307,0.259-0.82,0.287-1.536
			c0.072-1.696,0.068-2.589-0.014-2.68c-0.037-0.055-0.088-0.081-0.15-0.081H161.636z"/>
		<path fill="#55A9B6" d="M168.521,8.175l0.965-0.381c0.581,0.916,0.958,1.568,1.129,1.959l-0.992,0.313
			C169.323,9.431,168.956,8.802,168.521,8.175z M171.16,10.663V7.236h-2.775V6.325h2.775V4.583h1.129v1.742h2.748v0.911h-2.748
			v7.046c-0.019,0.443-0.218,0.77-0.598,0.979c-0.464,0.236-1.271,0.191-2.422-0.135l0.054-0.994
			c0.391,0.129,0.666,0.205,0.83,0.231c0.443,0.091,0.739,0.087,0.884-0.014c0.082-0.054,0.123-0.158,0.123-0.313v-2.08
			c-0.046,0.019-0.073,0.041-0.082,0.067c-0.652,0.5-1.364,0.985-2.135,1.456l-0.816-0.68
			C169.387,12.073,170.398,11.362,171.16,10.663z M173.812,7.753l0.993,0.381c-0.244,0.59-0.63,1.252-1.155,1.986l-0.952-0.436
			C173.241,8.913,173.612,8.27,173.812,7.753z M172.548,11.153l0.83-0.585c0.679,0.581,1.377,1.352,2.093,2.312l-0.884,0.531
			C173.826,12.414,173.146,11.661,172.548,11.153z M173.051,5.101l0.761-0.652c0.392,0.262,0.794,0.617,1.212,1.061l-0.803,0.626
			C173.768,5.663,173.377,5.317,173.051,5.101z M177.376,12.202c-0.489-0.789-0.847-1.77-1.075-2.939
			c-0.045-0.154-0.072-0.299-0.081-0.436c-0.228,0.391-0.44,0.689-0.639,0.898l-1.048-0.272c1.098-1.288,1.632-2.708,1.604-4.257
			V4.544h1.074v0.652c-0.019,0.127-0.032,0.262-0.04,0.407h3.903v0.952h-0.68v0.258c0,1.978-0.584,3.809-1.755,5.496
			c0.58,0.734,1.434,1.555,2.557,2.462l-1.101,0.557c-0.898-0.823-1.605-1.563-2.122-2.216c-0.781,0.871-1.891,1.674-3.333,2.408
			l-0.882-0.804C175.218,14.11,176.424,13.271,177.376,12.202z M179.267,6.813V6.556h-2.067c-0.118,1.779,0.163,3.36,0.844,4.748
			C178.805,10.069,179.212,8.573,179.267,6.813z"/>
		<path fill="#55A9B6" d="M185.705,10.24v5.224h-1.185v-4.952c-0.454,0.835-0.929,1.542-1.427,2.123l-1.104-0.382
			c1.034-1.088,1.811-2.285,2.328-3.592h-2.055V7.655h2.257V5.941c-0.571,0.063-1.173,0.114-1.809,0.149l-0.163-1.02
			c1.994-0.145,3.568-0.357,4.721-0.64l0.216,0.993c-0.554,0.137-1.146,0.259-1.78,0.367v1.863h1.958v1.006h-1.958v0.15
			c0.807,0.78,1.567,1.596,2.285,2.449l-0.926,0.611C186.674,11.364,186.221,10.821,185.705,10.24z M188.602,5.751l0.911-0.64
			c1.397,1.333,2.209,2.141,2.435,2.423l-0.953,0.57C190.225,7.18,189.426,6.396,188.602,5.751z M188.017,8.636l0.87-0.666
			c1.135,0.969,1.918,1.682,2.354,2.133l-0.925,0.613C189.708,10.046,188.941,9.352,188.017,8.636z M192.465,12.524l-5.224,0.75
			l-0.285-0.98l5.509-0.775V4.54h1.184v6.815l1.278-0.19l0.189,0.979l-1.468,0.218v3.047h-1.184V12.524z"/>
		<path fill="#55A9B6" d="M197.842,10.433V7.741h-1.604V6.733h1.604V4.585h1.185v2.148h1.306v1.008h-1.306v2.121
			c0.334-0.199,0.63-0.371,0.882-0.518l0.723,0.79c-0.436,0.263-0.93,0.524-1.482,0.788c-0.047,0.018-0.087,0.037-0.122,0.055v3.332
			c-0.011,0.445-0.219,0.785-0.626,1.02c-0.327,0.191-0.998,0.146-2.014-0.135l0.081-1.034c0.454,0.164,0.789,0.255,1.007,0.272
			c0.101,0.018,0.182,0,0.244-0.055c0.082-0.063,0.123-0.176,0.123-0.34v-2.543c-0.407,0.163-0.821,0.326-1.237,0.489l-0.653-0.856
			C196.687,10.874,197.315,10.642,197.842,10.433z M204.385,13.535c-1.45,0.915-2.938,1.536-4.463,1.862l-0.734-0.91
			c1.796-0.408,3.237-0.943,4.326-1.605c-0.852-0.68-1.719-1.555-2.597-2.625l0.965-0.585c0.871,1.106,1.69,1.968,2.461,2.584
			c1.016-0.933,1.782-1.876,2.3-2.829c0.091-0.172,0.041-0.254-0.149-0.245h-5.523V8.175h2.585V6.639h-3.128V5.632h3.128V4.544
			h1.184v1.088h3.809v1.007h-3.809v1.536h3.047l0.488,0.341c-0.018,0.027-0.031,0.063-0.039,0.108
			c-0.58,1.615-1.582,3.039-3.007,4.271c0.979,0.607,2.248,1.161,3.81,1.66l-0.803,0.91
			C206.846,14.95,205.563,14.306,204.385,13.535z"/>
		<path fill="#55A9B6" d="M222.503,12.298c0,0.181-0.11,0.271-0.327,0.271h-5.114v2.843h-1.237v-2.843h-5.184
			c-0.209,0-0.313-0.091-0.313-0.271V6.381c0.01-0.182,0.113-0.273,0.313-0.273h5.184V4.544h1.237v1.563h5.114
			c0.217,0.01,0.327,0.101,0.327,0.273V12.298z M221.128,7.169h-4.066v4.352h4.066c0.091,0,0.136-0.035,0.136-0.107V7.278
			C221.264,7.206,221.219,7.169,221.128,7.169z M215.824,7.169h-4.122c-0.091,0-0.136,0.037-0.136,0.109v4.135
			c0,0.072,0.045,0.107,0.136,0.107h4.122V7.169z"/>
		<path fill="#55A9B6" d="M224.84,6.347l1.197,0.067c0.045,2.158-0.276,4.706-0.965,7.644l-1.185-0.121
			C224.559,10.808,224.876,8.278,224.84,6.347z M227.262,5.299h1.236v8.271c0,0.254,0.033,0.416,0.096,0.488
			c0.128,0.137,0.353,0.205,0.681,0.205h2.993c0.396-0.008,0.669-0.109,0.815-0.301c0.091-0.107,0.154-0.258,0.19-0.449
			c0.035-0.217,0.035-0.914,0-2.093l1.238,0.163c0.072,1.278,0.063,2.148-0.028,2.611c-0.063,0.28-0.177,0.502-0.339,0.667
			c-0.218,0.208-0.413,0.335-0.586,0.38c-0.19,0.045-0.489,0.068-0.896,0.068h-3.918c-0.354-0.009-0.645-0.072-0.871-0.19
			c-0.435-0.271-0.639-0.735-0.611-1.388V5.299z M229.642,4.714l1.17-0.218c0.707,1.896,1.201,4.222,1.481,6.978l-1.183,0.164
			C230.757,8.718,230.268,6.41,229.642,4.714z M233.939,6.102l1.156-0.219c0.807,2.104,1.38,4.706,1.714,7.808l-1.184,0.164
			C235.219,10.589,234.655,8.005,233.939,6.102z"/>
	</g>
</g>
</svg>
