<svg width="250" height="92" viewBox="0 0 250 92" fill="none" xmlns="http://www.w3.org/2000/svg">
<path d="M86.3736 75.1863V71.9673C85.7021 72.0973 84.7216 72.2835 83.4309 72.519C82.8516 72.6254 82.4299 72.7042 82.1668 72.7554L81.7134 70.1095C81.9242 70.084 82.2661 70.0379 82.74 69.9693C82.8188 69.957 82.8853 69.9509 82.9375 69.9509V59.6653H82.1279V57.1188H89.6121V59.6653H88.7431V75.1863H86.3736ZM85.2681 61.3634H86.3736V59.6653H85.2681V61.3634ZM85.2681 65.3531H86.3736V63.6735H85.2681V65.3531ZM85.2681 69.6193L86.3736 69.4401V67.6643H85.2681V69.6193ZM99.0112 66.6367C99.0112 66.4125 98.9785 66.1228 98.913 65.7667C98.3203 65.8455 97.4442 65.9447 96.2866 66.0635C95.6806 66.1423 95.2395 66.1945 94.9631 66.2201L94.8843 65.7667L93.4626 66.2027C93.4626 66.0451 93.4554 65.9192 93.4432 65.827C93.3367 65.8414 93.1863 65.8526 92.9887 65.867C91.2118 66.0635 89.9406 66.1945 89.177 66.261L88.9212 64.3255L90.1259 64.2477C90.3889 63.8659 90.7246 63.3316 91.133 62.6479C90.6458 62.0164 89.9877 61.3316 89.1586 60.5937L90.2845 58.9355L90.5609 59.1525C90.9426 58.1791 91.2385 57.2702 91.4493 56.4279L93.74 57.0983C93.5424 57.4268 93.2466 57.9407 92.8516 58.6387C92.391 59.4555 92.0624 60.0277 91.8649 60.3572C91.9437 60.436 92.0491 60.5548 92.1811 60.7145C92.4575 60.175 92.7144 59.6264 92.9508 59.0737L94.8864 59.7452L95.4595 58.8168L95.8147 59.0737C96.1832 58.218 96.4933 57.3378 96.7431 56.4279L99.0931 57.1198C98.9222 57.4084 98.6591 57.8578 98.3029 58.4637C97.7901 59.3327 97.4206 59.9509 97.1975 60.3194C97.3162 60.4258 97.4278 60.5374 97.5332 60.6541C97.7963 60.1157 98.046 59.5619 98.2825 58.9959L100.455 59.7656C99.652 61.043 98.9017 62.1945 98.2047 63.2221L99.8833 62.7083C100.462 63.9458 100.772 65.0594 100.811 66.0471L99.0112 66.6367ZM91.133 75.304C91.0143 75.0277 90.8137 74.6981 90.5312 74.3163C90.2477 73.9345 89.9949 73.6459 89.7707 73.4463C90.9027 73.0266 91.6069 72.3951 91.8833 71.5507H91.4094V72.1628H89.3756V66.91H91.4094V69.6735H92.0808V66.3972H94.351V70.0901C94.351 71.3798 94.1596 72.3931 93.7789 73.131C93.2917 74.0932 92.4094 74.8189 91.133 75.304ZM94.9437 64.2477L95.4964 64.2078C95.9038 63.5896 96.2272 63.0696 96.4636 62.6479C95.9365 61.9376 95.2722 61.2651 94.4688 60.6336C93.5998 62.0287 92.8229 63.1863 92.1381 64.1095L93.087 64.0307C93.0337 63.8332 92.9416 63.5497 92.8096 63.1812L94.4288 62.7288C94.6673 63.3061 94.8383 63.8117 94.9437 64.2477ZM94.9242 75.1863V66.3798H97.2149V69.6776H97.9252V66.913H100.038V72.1658H97.9252V71.5538H97.2149V75.1873L94.9242 75.1863ZM97.61 64.0696L98.479 63.9898C98.4258 63.8199 98.3336 63.5619 98.2026 63.2201C98.0696 63.4166 97.873 63.6991 97.61 64.0696Z" fill="#FFEBCA"/>
<path d="M106.437 75.1863V69.4187C106.213 71.2242 105.871 72.6848 105.41 73.8025C104.831 73.435 104.113 73.0932 103.258 72.7769C103.718 71.7493 104.021 70.2283 104.167 68.215L106.438 68.609V67.347L103.693 67.5261L103.456 65.0574L104.957 64.997C105.193 64.694 105.431 64.3787 105.667 64.0481C105.088 63.1669 104.351 62.2897 103.455 61.4228L104.798 59.4473L105.153 59.783C105.719 58.5855 106.154 57.4719 106.456 56.4443L108.925 57.3552C108.873 57.4473 108.799 57.5896 108.708 57.7892C107.787 59.5139 107.122 60.7053 106.714 61.3634C106.833 61.4954 106.964 61.6592 107.109 61.8557C107.781 60.7503 108.326 59.7442 108.749 58.8352L111.059 59.8803C110.23 61.1433 109.4 62.3419 108.571 63.475L110.091 62.8434C110.578 63.7134 111 64.6408 111.355 65.6285C112.527 65.1679 113.613 64.5947 114.613 63.9089C114.166 63.4617 113.744 63.0011 113.349 62.5261C112.823 63.0266 112.362 63.4289 111.967 63.7308C111.756 63.4146 111.467 63.0727 111.098 62.7053C110.703 62.3091 110.361 62.0195 110.072 61.8352C112.059 60.4514 113.481 58.651 114.337 56.4248L117.101 56.8987C116.865 57.4258 116.68 57.8209 116.547 58.0829H119.411L119.865 57.9826L121.622 58.9499C120.951 60.7155 119.957 62.3286 118.641 63.7902C119.877 64.5671 121.208 65.1853 122.629 65.6459C122.169 66.042 121.674 66.6275 121.148 67.4033V75.086H118.344V74.4545H114.75V75.1638H112.085V68.2334L111.966 68.2723C111.821 67.9959 111.623 67.6735 111.373 67.3051L109.774 68.0154C109.734 67.6981 109.668 67.4023 109.576 67.127L108.924 67.1669V68.5886L110.603 68.0369C111.181 69.4985 111.583 70.696 111.807 71.6316L109.714 72.3798C109.583 71.7615 109.319 70.8332 108.925 69.5957V75.1843L106.437 75.1863ZM107.464 64.9182L108.806 64.8578C108.767 64.7789 108.714 64.6612 108.649 64.5026C108.503 64.173 108.398 63.9355 108.333 63.7923C108.174 64.0031 107.944 64.2989 107.642 64.6807C107.562 64.7861 107.502 64.8649 107.464 64.9182ZM113.921 67.4054H119.569C118.529 66.8915 117.561 66.3061 116.666 65.6479C115.757 66.346 114.842 66.9325 113.921 67.4054ZM114.75 72.0082H118.344V69.8352H114.75V72.0082ZM116.527 62.2713C117.066 61.7186 117.527 61.1331 117.91 60.5139H115.086L114.987 60.652C115.342 61.1137 115.856 61.652 116.527 62.2713Z" fill="#FFEBCA"/>
<path d="M140.972 75.2652C139.683 75.2652 138.59 74.3307 137.696 72.4607C136.683 73.2396 135.563 73.955 134.339 74.6142C133.865 73.7831 133.226 73.0083 132.424 72.2846C133.964 71.5999 135.398 70.736 136.729 69.6992C136.321 68.1966 136.005 66.5067 135.781 64.6234H132.069V66.3808L134.911 65.9274L135.108 68.5344C134.779 68.5999 134.275 68.6992 133.595 68.8302C132.917 68.9622 132.407 69.0625 132.066 69.127V71.9305C132.066 72.6797 131.98 73.2539 131.808 73.649C131.638 74.0697 131.334 74.3941 130.9 74.6152C130.176 74.9827 128.93 75.169 127.168 75.169C127.115 74.7729 126.983 74.2887 126.771 73.7073C126.575 73.1536 126.37 72.6725 126.159 72.2662C127.212 72.3307 128.056 72.344 128.688 72.3041C128.873 72.3041 128.997 72.2764 129.061 72.216C129.127 72.1557 129.162 72.0482 129.162 71.8906V69.6797L125.942 70.2713L125.27 67.3685C126.864 67.1587 128.16 66.9724 129.161 66.8148V64.6234H125.685V61.9182H129.161V60.1587C128.069 60.3163 127.105 60.43 126.278 60.4944C126.146 59.691 125.876 58.8895 125.469 58.085C128.575 57.7186 131.208 57.1833 133.368 56.4852L135.303 58.9356C134.474 59.172 133.396 59.4228 132.067 59.6838V61.9182H135.521C135.377 60.0625 135.303 58.2826 135.303 56.5855H138.306C138.266 58.3112 138.32 60.0871 138.464 61.9182H143.657V64.6224H138.739C138.91 65.8076 139.061 66.7032 139.192 67.3082C139.797 66.5855 140.29 65.8619 140.674 65.1362L143.202 66.2242C142.358 67.7114 141.286 69.1188 139.982 70.4504C140.43 71.7135 140.856 72.346 141.265 72.346C141.607 72.346 141.825 71.2928 141.918 69.1864C142.589 69.9254 143.364 70.477 144.246 70.8455C144.036 72.5958 143.68 73.7872 143.18 74.4187C142.738 74.9817 142 75.2652 140.972 75.2652ZM141.369 61.6807C141.159 61.2314 140.783 60.692 140.243 60.0615C139.754 59.4822 139.241 58.9417 138.703 58.4422L140.855 56.9796C142.224 58.1649 143.166 59.1976 143.68 60.0789L141.369 61.6807Z" fill="#FFEBCA"/>
<path d="M148.833 75.1669V65.9263C148.557 66.2948 148.28 66.651 148.003 66.9929C147.885 66.6111 147.686 66.0911 147.411 65.434C147.122 64.7349 146.872 64.2027 146.661 63.8332C147.411 62.9396 148.12 61.8332 148.783 60.5169C149.447 59.2007 149.985 57.8383 150.392 56.4299L153.039 57.2191L152.959 57.4371H158.431V65.2181H155.31V75.1321H152.663V58.3214C152.243 59.4668 151.874 60.3747 151.558 61.0461V75.1658H148.833V75.1669ZM155.31 60.3173H156.298V59.5681H155.31V60.3173ZM155.31 63.0809H156.298V62.3112H155.31V63.0809ZM160.01 75.1259C159.956 74.7442 159.838 74.2764 159.654 73.7247C159.482 73.1966 159.297 72.7503 159.1 72.3808C160.22 72.4596 161.181 72.4801 161.984 72.4422C162.169 72.4422 162.301 72.4064 162.379 72.3337C162.458 72.2631 162.496 72.1331 162.496 71.9489V65.215H159.14V57.433H165.222V71.9878C165.222 72.738 165.136 73.3051 164.964 73.6858C164.794 74.0932 164.49 74.4033 164.056 74.6131C163.635 74.823 163.082 74.9693 162.397 75.0492C161.86 75.1003 161.063 75.1259 160.01 75.1259ZM161.372 60.3173H162.499V59.5681H161.372V60.3173ZM161.372 63.0809H162.499V62.3112H161.372V63.0809Z" fill="#FFEBCA"/>
<path d="M35.7778 42.5281C35.7778 42.4821 35.7778 42.434 35.7789 42.3869C35.83 42.3439 35.874 42.2804 35.9426 42.2743C37.0849 42.1781 38.2251 42.0696 39.3684 41.9826C39.4564 41.9754 39.5363 42.0409 39.6028 42.1023C39.178 42.5077 38.5598 42.2385 38.1033 42.5281C37.3285 42.5281 36.5537 42.5281 35.7778 42.5281Z" fill="#FFEBCA"/>
<path d="M224.466 21.2794C224.413 21.2774 224.36 21.2753 224.308 21.2723C224.094 20.7533 223.838 20.2416 224.031 19.6541C224.39 19.8096 224.225 20.2436 224.468 20.4616C224.466 20.7359 224.466 21.0072 224.466 21.2794Z" fill="#FFEBCA"/>
<path d="M204.669 18.1853C204.804 20.0983 204.625 22.0143 204.731 23.9304C204.806 25.3275 204.588 26.739 204.62 28.1402C204.653 29.7359 204.552 31.3173 204.202 32.8618C203.565 35.6827 202.602 38.3838 200.126 40.173C197.991 41.7144 195.602 42.6796 192.917 42.7462C191.719 42.7758 190.514 42.9887 189.322 42.6274C187.728 42.1423 186.201 41.5711 184.878 40.4852C183.617 39.4504 182.526 38.2968 182.011 36.7564C181.515 35.2671 180.95 33.8035 180.896 32.1679C180.812 29.5425 180.867 26.9335 181.235 24.3367C181.351 23.5087 181.543 22.697 181.513 21.8516C181.488 21.1525 181.883 20.5507 182.056 19.8956C182.315 18.9109 182.425 17.8956 182.736 16.9212C182.918 16.349 183.154 15.8209 183.525 15.3511C184.101 14.6192 184.954 14.3398 185.773 14.6049C186.441 14.8229 186.935 15.5476 186.976 16.4268C187.038 17.7349 187.036 19.0481 187.139 20.3521C187.293 22.2937 187.362 24.2344 187.401 26.1822C187.44 28.0757 187.312 29.9877 187.533 31.8577C187.799 34.1238 188.831 36.1167 191.323 36.8229C192.328 37.1064 193.337 37.393 194.341 37.6806C195.258 37.9447 196.042 37.6888 196.718 37.0594C197.083 36.7175 197.43 36.3572 197.848 36.0747C198.016 35.9621 198.169 35.8199 198.209 35.5977C198.509 33.913 198.904 32.2436 198.519 30.5066C198.369 29.8301 198.535 29.1167 198.526 28.4166C198.505 26.8086 198.209 25.2293 198.164 23.6182C198.108 21.6448 197.926 19.6592 197.474 17.7052C197.022 15.7523 198.455 13.7574 200.402 13.4033C201.731 13.1627 203.648 14.2948 204.191 15.6663C204.358 16.086 204.496 16.524 204.582 16.9662C204.656 17.3634 204.645 17.7789 204.669 18.1853Z" fill="#FFEBCA"/>
<path d="M39.6038 42.1024C38.3377 42.3122 37.0644 42.4299 35.7789 42.3869C35.1043 42.2927 34.4227 42.2283 33.7553 42.0983C31.83 41.7236 30.3275 40.7902 29.175 39.1249C28.1565 37.654 27.0296 36.2579 26.1586 34.6868C25.6427 33.7554 25.4063 32.7451 25.3725 31.6919C25.3408 30.653 25.0951 29.6438 25.0972 28.5906C25.1064 25.741 26.0225 23.2334 27.5956 20.8976C28.4196 19.6745 29.1729 18.4084 30.2947 17.4176C30.8106 16.9621 31.3572 16.5701 32.0266 16.3654C32.176 16.3204 32.3746 16.2794 32.4513 16.1689C33.3541 14.8536 34.7686 14.2119 36.1903 13.9836C38.7164 13.5793 41.351 13.044 43.697 14.737C45.3336 15.9181 46.306 17.5466 46.5127 19.5189C46.6325 20.6602 46.177 21.7421 44.9222 22.1658C43.9037 22.5118 42.6253 21.998 42.0081 21.0471C41.6253 20.4575 41.2128 19.8864 40.8085 19.3132C40.5803 18.9877 40.2773 18.7267 39.8945 18.6315C38.8403 18.3695 37.7881 18.0655 36.699 18.5353C36.0276 18.825 35.3152 18.9509 34.5742 18.9816C33.5578 19.0205 32.0501 20.4565 31.874 21.6428C31.7543 22.4524 31.5967 23.2682 31.351 24.0215C30.9866 25.1372 31.0614 26.1914 31.2415 27.2948C31.4544 28.6029 31.2957 29.9591 31.8004 31.2385C32.0245 31.8055 32.2026 32.392 32.4728 32.9417C32.7533 33.5138 33.0808 34.0829 33.175 34.7073C33.4268 36.3767 34.392 37.2037 36.047 37.1279C37.0399 37.0829 38.1033 37.1024 38.8331 36.174C39.2231 35.6786 39.6908 35.2569 40.0358 34.7062C40.654 33.7247 41.6243 33.3818 42.7584 33.5537C43.8761 33.7226 44.7011 34.2927 45.089 35.3941C45.6366 36.9509 45.0317 38.2088 44.0869 39.4043C42.9283 40.871 41.262 41.4739 39.6038 42.1024Z" fill="#FFEBCA"/>
<path d="M153.227 25.6397C153.091 25.6397 152.951 25.6213 152.818 25.6438C151.884 25.7994 151.173 25.1678 151.02 24.4401C150.874 23.7379 151.368 22.9007 152.16 22.5291C152.779 22.2374 153.439 22.0593 154.106 21.9191C154.768 21.7799 155.046 21.4319 154.989 20.7257C154.916 19.7942 155.124 18.8782 155.388 17.9836C155.445 17.7901 155.524 17.5946 155.628 17.4227C156.181 16.5291 156.738 16.1852 157.435 16.3858C158.45 16.6786 158.861 17.5445 158.992 18.4442C159.105 19.2221 159.447 19.9693 159.342 20.785C159.288 21.1873 159.598 21.1207 159.854 21.0839C160.777 20.9508 161.708 20.9027 162.641 20.9856C164.027 21.1085 165.057 22.1371 165.063 23.393C165.07 24.5598 163.794 25.8393 162.524 25.9171C161.641 25.9713 160.754 25.9928 159.868 26.0317C159.623 26.043 159.339 26.001 159.348 26.391C159.407 29.0307 159.386 31.6724 160.21 34.2354C160.661 35.6376 160.927 35.5025 162.249 35.4104C164.094 35.2814 165.037 36.3203 164.598 38.1668C164.099 40.2681 162.007 41.4698 159.736 41.0163C157.099 40.4892 155.625 38.7912 154.81 36.3644C154.593 35.7195 154.408 35.0737 154.259 34.4084C154.025 33.3797 154.288 32.3736 154.332 31.3644C154.374 30.3899 154.393 29.4155 154.396 28.4432C154.398 27.7799 154.522 27.1381 154.584 26.4862C154.645 25.8526 154.475 25.5302 153.776 25.6591C153.599 25.6919 153.414 25.6643 153.229 25.6643C153.227 25.6571 153.227 25.6489 153.227 25.6397Z" fill="#FFEBCA"/>
<path d="M72.8966 36.5527C73.2671 34.1422 73.3592 31.6888 73.914 29.306C74.0808 28.5926 74.131 27.9048 74.1013 27.1709C74.0726 26.4687 74.4165 25.7932 74.9211 25.2835C75.9048 24.2876 77.1637 24.7236 77.5598 26.2149C77.7031 26.7543 77.7881 26.7308 78.2845 26.4984C81.0276 25.2128 83.8618 24.9109 86.5956 26.4206C87.74 27.0522 88.5394 28.2262 89.1095 29.4104C89.7758 30.7952 90.3275 32.2722 90.3684 33.8249C90.3981 34.9324 90.5076 36.0276 90.5823 37.1299C90.7512 39.6305 88.1514 41.3306 85.87 40.2343C84.4636 39.5588 84.2466 38.305 84.3121 36.958C84.4186 34.743 84.4831 32.5281 84.3971 30.3121C84.348 29.0481 83.9744 28.8219 82.9037 28.8413C81.2364 28.87 79.8812 29.4708 78.6141 30.4657C78.1586 30.8229 78.0255 31.2139 78.0522 31.7523C78.1576 33.8679 78.1678 35.9877 78.0614 38.1023C77.9887 39.5322 76.6847 40.5332 75.1381 40.4339C73.8178 40.35 72.7205 39.0235 72.7799 37.5649C72.7922 37.2282 72.8556 36.8904 72.8966 36.5527Z" fill="#FFEBCA"/>
<path d="M96.5445 28.1761C96.5363 27.6223 96.3244 26.9325 96.524 26.2283C96.6295 25.8588 96.3899 25.695 96.0389 25.6592C95.61 25.6131 95.1729 25.5947 94.7553 25.4975C93.9928 25.3214 93.4442 24.6796 93.3899 23.9785C93.3357 23.2784 93.782 22.5875 94.5414 22.2989C95.1566 22.0665 95.7922 21.8874 96.4247 21.7104C96.7738 21.6121 96.9938 21.433 96.9897 21.0573C96.9816 20.1914 97.3398 19.3798 97.3398 18.5108C97.3398 17.7441 97.9048 17.0625 98.6243 16.827C99.3582 16.5875 100.097 17.001 100.315 17.782C100.536 18.5712 100.681 19.3736 100.623 20.1965C100.593 20.6397 100.749 20.8291 101.214 20.7431C102.089 20.5824 102.98 20.6244 103.862 20.609C105.156 20.5875 106.08 21.347 106.315 22.5323C106.5 23.4627 105.94 24.5671 105.07 24.9632C104.313 25.3061 103.5 25.4146 102.684 25.5026C102.413 25.5302 102.146 25.5886 101.875 25.61C101.427 25.6479 101.401 25.8496 101.415 26.2846C101.479 28.3931 101.436 30.5046 101.489 32.6141C101.513 33.5497 101.456 34.5384 102.298 35.2559C102.664 35.5681 102.993 35.7237 103.521 35.6356C104.584 35.4596 105.559 35.8189 106.158 36.7052C106.648 37.432 106.681 38.3429 106.161 39.0921C105.419 40.1597 104.398 40.8711 103.03 40.8946C100.932 40.9304 99.3695 40.0358 98.1402 38.3265C96.7461 36.3869 96.4534 34.2457 96.4595 31.9611C96.4606 30.7472 96.4575 29.5333 96.5445 28.1761Z" fill="#FFEBCA"/>
<path d="M132.817 33.2241C132.71 30.3664 133.746 27.872 135.535 25.7318C136.387 24.7134 137.401 23.6632 138.748 23.307C140.453 22.8557 142.096 22.8997 143.612 24.1965C144.785 25.2016 145.447 26.2825 145.411 27.8024C145.39 28.7564 144.669 29.5916 143.727 29.7513C142.707 29.9232 141.979 29.4974 141.657 28.4401C141.479 27.8608 140.935 27.6489 140.612 27.219C140.478 27.0409 140.275 27.2743 140.165 27.3971C139.334 28.3316 138.617 29.3367 138.275 30.5599C138.233 30.7113 138.239 30.8812 138.174 31.0225C137.529 32.4278 137.831 33.7994 138.282 35.1791C138.882 37.0071 139.858 37.4698 141.539 36.5292C142.63 35.9171 143.608 36.0123 144.646 36.5332C145.477 36.9519 145.827 37.7298 145.579 38.6325C144.969 40.8557 143.595 41.7676 141.283 42.1771C137.297 42.8833 134.031 39.6898 133.217 36.2395C133.077 35.6458 132.915 35.0522 132.825 34.4483C132.767 34.0491 132.817 33.6325 132.817 33.2241Z" fill="#FFEBCA"/>
<path d="M223.578 31.2968C222.782 29.3101 221.34 28.0788 219.207 27.7461C218.394 27.6202 217.618 27.3643 216.815 27.2077C216.189 27.0849 215.746 26.5916 215.552 25.9713C215.149 24.6898 215.073 23.392 215.501 22.0952C215.889 20.9232 217.397 20.0716 218.604 20.3295C218.958 20.4053 219.225 20.5834 219.418 20.8935C219.646 21.2589 219.885 21.6172 220.154 21.957C221.004 23.0307 223.224 23.4524 223.968 21.5813C224.027 21.4329 224.105 21.2917 224.266 21.2251C224.282 21.2221 224.294 21.2262 224.308 21.2262C224.354 20.6796 224.117 20.1801 224.031 19.654C223.572 18.7727 223.043 17.8874 222.013 17.6653C221.212 17.4923 220.442 17.219 219.644 17.047C218.829 16.873 218.008 16.8311 217.212 17.0429C215.413 17.523 213.806 18.2763 212.485 19.7062C211.514 20.7594 210.896 21.8577 210.914 23.2528C210.927 24.2384 210.859 25.218 211.022 26.221C211.29 27.8556 211.889 29.2671 213.121 30.3623C214.022 31.1637 215 31.9119 216.304 31.8863C217.21 31.8679 218.029 32.2661 218.911 32.3623C219.174 32.392 219.504 32.5701 219.303 32.9856C218.701 34.2221 217.047 34.7471 215.843 34.0921C215.552 33.9334 215.375 33.6663 215.146 33.4493C214.14 32.4974 212.344 32.1995 211.207 32.8034C209.897 33.4984 209.349 34.7001 209.667 36.3193C209.994 37.9774 210.913 39.1033 212.501 39.8792C215.033 41.1146 217.539 41.0818 220.011 40.0102C221.598 39.3234 222.885 38.2415 223.533 36.4432C224.079 34.9293 224.494 33.4943 224.023 31.913C223.671 31.8526 223.675 31.5383 223.578 31.2968Z" fill="#FFEBCA"/>
<path d="M223.839 31.5528C223.266 29.5896 221.937 28.3532 220.031 27.736C219.153 27.4524 218.227 27.2907 217.314 27.1423C216.431 26.998 215.907 26.5425 215.639 25.696C215.395 24.9212 215.418 24.1239 215.399 23.3439C215.364 21.9448 216.302 20.8271 217.625 20.4954C218.51 20.2733 218.956 20.4893 219.657 21.6152C220.315 22.6674 221.24 23.1659 222.461 23.0492C223.522 22.9478 223.967 22.1485 224.307 21.2733C224.309 21.2559 224.305 21.2416 224.307 21.2262C224.292 21.2262 224.28 21.2221 224.265 21.2252C224.103 21.2907 224.025 21.433 223.965 21.5814C223.222 23.4524 221.002 23.0307 220.152 21.9571C219.883 21.6172 219.644 21.259 219.416 20.8936C219.224 20.5835 218.956 20.4054 218.602 20.3296C217.393 20.0717 215.887 20.9233 215.499 22.0952C215.07 23.3931 215.147 24.6899 215.549 25.9714C215.744 26.5916 216.187 27.085 216.813 27.2078C217.615 27.3644 218.392 27.6203 219.205 27.7462C221.338 28.0789 222.777 29.3091 223.576 31.2969C223.674 31.5384 223.67 31.8527 224.022 31.913C223.962 31.7933 223.878 31.6797 223.839 31.5528Z" fill="#FFEBCA"/>
<path d="M128.091 35.7861C127.817 35.4136 127.667 35.0052 127.554 34.5548C127.217 33.2447 126.825 31.9427 126.421 30.6551C126.013 29.3593 125.611 28.0645 125.313 26.7411C124.952 25.1403 123.75 24.4801 122.201 24.9888C121.273 25.2938 120.336 25.4893 119.297 25.128C118.316 24.7841 117.226 24.8076 116.232 25.2836C114.823 25.9591 113.81 27.0052 112.994 28.3593C111.524 30.8015 111.008 33.4453 111.045 36.217C111.072 38.2385 112.125 39.7206 113.87 40.7155C115.355 41.563 116.902 41.7759 118.599 41.3654C120.311 40.9499 121.976 40.5517 123.014 38.825C123.174 39.1024 123.257 39.2631 123.352 39.4125C124.138 40.6561 125.443 41.2017 126.679 40.8076C128.188 40.3255 128.95 39.216 128.826 37.6653C128.769 36.9663 128.499 36.346 128.091 35.7861ZM121.531 35.128C121.399 35.5384 120.849 35.2774 120.499 35.435C119.874 35.7206 119.303 36.0789 118.739 36.4647C117.907 37.0307 116.996 36.953 116.134 36.609C115.448 36.3358 115.304 35.6991 115.39 35.2866C115.464 33.1362 116.009 31.3931 116.894 29.7657C117.319 28.9837 118.228 28.9243 118.997 28.8342C120.899 28.6101 120.821 28.4739 120.744 30.344C120.696 31.5169 121.234 32.5456 121.356 33.6664C121.365 33.7564 121.404 33.8424 121.417 33.9315C121.47 34.3337 121.645 34.7779 121.531 35.128Z" fill="#FFEBCA"/>
<path d="M66.912 29.5077C66.3173 28.0041 65.3542 26.8137 63.8557 26.1054C63.5077 25.9406 63.1351 25.7932 62.8373 25.5599C61.9949 24.8997 61.0532 24.6868 59.9529 24.8342C58.9407 24.7277 57.955 25.1095 56.9325 25.3183C55.7216 25.566 54.6039 25.8485 53.5742 26.6274C52.0635 27.7707 51.5138 29.3204 51.304 31.0614C51.2641 31.3889 51.262 31.7226 51.1771 32.0512C50.7104 33.8444 50.8854 35.5159 51.9693 37.0962C52.4494 37.7953 53.131 38.2262 53.6848 38.8035C54.7104 39.8741 56.0993 40.0993 57.3542 40.6418C57.695 40.7891 58.0686 40.7083 58.4309 40.7154C59.0747 40.7308 59.7206 40.5199 60.3664 40.8045C61.7513 41.4155 63.0839 41.2671 64.2968 40.3674C64.9345 39.8956 65.4985 39.3255 66.1239 38.8362C67.4064 37.8311 68.0358 36.4309 68.1832 34.9089C68.3316 33.3797 68.0082 31.8475 67.3603 30.4196C67.2221 30.1116 67.0389 29.828 66.912 29.5077ZM59.4105 35.5834C58.0399 35.609 56.8608 35.0082 55.7533 34.1535C54.8629 33.4657 54.9192 32.4831 55.0164 31.6192C55.1423 30.5036 55.522 29.3204 56.65 28.7922C57.5609 28.3654 58.5435 27.9161 59.6274 28.1842C59.8721 28.2456 60.085 28.3859 60.2549 28.5762C61.0891 29.5138 61.8025 30.5189 62.1648 31.7421C62.7165 33.5957 61.1658 35.6254 59.4105 35.5834Z" fill="#FFEBCA"/>
</svg>
