<svg width="313" height="48" viewBox="0 0 313 48" fill="none" xmlns="http://www.w3.org/2000/svg">
<g clip-path="url(#clip0_994_993)">
<path d="M25.0252 7.27603C27.3827 7.27603 29.2722 8.25214 31.066 10.1797C32.0298 11.2155 34.596 14.1942 34.6217 14.225L34.7308 14.3516L44.8766 0.440164H37.9235C37.9235 0.440164 35.0424 4.05456 34.8676 4.29318C34.2299 3.65341 31.1256 0.368164 26.6853 0.368164C20.8122 0.368164 17.3202 4.17798 14.8444 8.29534C13.138 11.1332 0.5 32.0419 0.5 32.0419H5.61096H5.65107C5.76627 31.8485 17.206 12.7264 18.1451 11.2494C19.9955 8.3406 22.3962 7.27603 25.0252 7.27603Z" fill="#FFEBCA"/>
<path d="M63.2597 6.11684C61.0287 2.32347 58.0417 0.479248 54.1301 0.479248C50.6638 0.479248 48.0471 2.23707 44.801 6.75043C43.4906 8.56997 36.3101 18.3928 35.334 19.7258C34.9935 19.2517 33.8487 17.681 32.1691 15.6239C29.5822 12.458 27.6763 11.2803 25.1357 11.2803C21.7877 11.2803 20.0484 13.108 18.0067 16.4828C17.3968 17.4897 8.92446 31.8989 8.83909 32.0429H8.71875H14.2463L20.8816 20.7904C22.6003 17.931 23.7955 17.931 24.7562 17.931C25.8413 17.931 26.9131 18.4175 28.6164 20.7873C30.6149 23.5696 35.0861 30.0064 35.0861 30.0064C35.0861 30.0064 48.5131 11.6104 49.3174 10.4975C51.3406 7.70186 52.7734 7.22975 54.343 7.22975C55.3695 7.22975 57.3042 7.40563 59.0898 10.37L71.8893 32.0419H78.6008L63.2597 6.11684Z" fill="#FFEBCA"/>
<path d="M58.9633 15.5499C57.257 12.6174 56.179 11.2803 54.0128 11.2803C52.1851 11.2803 50.5805 13.1533 48.7085 15.7463L36.8203 32.0419L43.2777 32.0378L50.3193 22.3466C52.3826 19.6302 52.6819 19.0275 53.7454 19.0275C54.883 19.0275 55.2502 19.9151 56.7941 22.3508L62.4615 32.0368L68.7173 32.0409L58.9633 15.5499Z" fill="#FFEBCA"/>
<path d="M20.6395 47.1824H17.3203L8.72349 38.9003V47.1824H5.4043V34.8889H8.73378L17.311 43.1134L17.3213 34.8889H20.6405L20.6395 47.1824Z" fill="#FFEBCA"/>
<path d="M37.7376 47.1824H26.6928C25.3979 47.1824 24.2963 46.8121 23.3891 46.0725C22.4829 45.332 22.0293 44.4052 22.0293 43.2903V38.779C22.0293 37.663 22.4829 36.7383 23.3891 35.9977C24.2963 35.2582 25.3979 34.8889 26.6928 34.8889H37.7376V37.7514H26.6825C25.7939 37.7514 25.3505 38.0929 25.3505 38.7769V43.2913C25.3505 43.9763 25.7939 44.3188 26.6825 44.3188H37.7376V47.1824Z" fill="#FFEBCA"/>
<path d="M55.7487 43.2893C55.7487 44.4043 55.2982 45.331 54.4013 46.0716C53.5034 46.8111 52.4079 47.1814 51.114 47.1814H39.125V39.426H42.4462V44.3179H51.1181C51.9729 44.3179 52.3977 43.9753 52.3977 43.2903V38.7759C52.3977 38.0919 51.9718 37.7504 51.1191 37.7504H39.125V34.8879H51.114C52.409 34.8879 53.5044 35.2572 54.4013 35.9967C55.2992 36.7373 55.7487 37.662 55.7487 38.778V43.2893Z" fill="#FFEBCA"/>
<path d="M73.8984 47.1824H69.347L62.2138 40.2992H70.8096C71.4237 40.2992 71.7291 39.8744 71.7291 39.0248C71.7291 38.1773 71.4237 37.7514 70.8096 37.7514H60.456V47.1824H57.1348V34.8889H70.9947C72.2702 34.8889 73.2823 35.3189 74.0218 36.1808C74.7068 36.9605 75.0514 37.9088 75.0514 39.0258C75.0514 40.1418 74.7068 41.0912 74.0218 41.8739C73.2782 42.7328 72.2671 43.1648 70.9875 43.1648H69.709L73.8984 47.1824Z" fill="#FFEBCA"/>
<path d="M101.364 33.5662H100.251L95.7223 28.3184V33.5662H94.377V26.0309H95.5043L100.007 31.2786V26.0309H101.364V33.5662Z" fill="#FFEBCA"/>
<path d="M106.034 31.9514C105.962 32.1602 105.822 32.3402 105.613 32.4924C105.374 32.6601 105.111 32.7434 104.825 32.7434C104.593 32.7434 104.398 32.6683 104.243 32.5151C104.088 32.3628 104.01 32.1756 104.01 31.9504C104.01 31.3991 104.52 31.0113 105.54 30.7871C105.836 30.7223 106.049 30.6801 106.177 30.6544V31.1707C106.186 31.4135 106.137 31.6727 106.034 31.9514ZM107.709 31.8547V30.4188C107.709 29.9488 107.68 29.6011 107.625 29.3779C107.568 29.1712 107.465 28.9737 107.314 28.7916C106.915 28.3051 106.245 28.0624 105.303 28.0624C104.418 28.0624 103.628 28.3031 102.934 28.7896L103.45 29.4581C103.961 29.0745 104.465 28.8832 104.964 28.8832C105.611 28.8832 106.015 29.2051 106.176 29.8511C105.777 29.9313 105.444 30.0002 105.18 30.0537C104.531 30.1905 103.998 30.3695 103.583 30.5927C102.854 30.9835 102.49 31.5019 102.49 32.1468C102.49 32.5953 102.658 32.9645 102.993 33.2597C103.329 33.5549 103.737 33.702 104.215 33.702C104.966 33.702 105.606 33.4181 106.132 32.8463C106.141 33.1116 106.188 33.3503 106.275 33.5652H107.953C107.789 33.1826 107.709 32.6148 107.709 31.8547Z" fill="#FFEBCA"/>
<path d="M112.847 33.3667C112.293 33.5909 111.754 33.703 111.227 33.703C110.522 33.703 110.011 33.4963 109.692 33.0808C109.493 32.8257 109.392 32.3618 109.392 31.6901V28.9222H108.557V28.1858H109.392V26.8785L110.961 26.5658V28.1848H112.547V28.9212H110.961V31.4032C110.961 31.9401 111.023 32.3145 111.148 32.5253C111.273 32.7382 111.492 32.8432 111.806 32.8432C112.064 32.8432 112.318 32.7845 112.568 32.6683L112.847 33.3667Z" fill="#FFEBCA"/>
<path d="M115.298 26.5236C115.298 26.7468 115.211 26.9391 115.035 27.1006C114.86 27.259 114.648 27.3392 114.401 27.3392C114.155 27.3392 113.942 27.2631 113.761 27.1119C113.582 26.9597 113.492 26.7746 113.492 26.5596C113.492 26.3035 113.575 26.0978 113.743 25.9425C113.911 25.7861 114.134 25.7069 114.413 25.7069C114.669 25.7069 114.88 25.7851 115.047 25.9425C115.214 26.0978 115.298 26.2922 115.298 26.5236ZM115.198 33.5662H113.63V28.1858H115.198V33.5662Z" fill="#FFEBCA"/>
<path d="M120.621 32.369C120.361 32.7341 120.001 32.9183 119.54 32.9183C119.07 32.9183 118.702 32.7341 118.44 32.369C118.177 32.0039 118.046 31.4968 118.046 30.8519C118.046 30.2388 118.179 29.7513 118.445 29.3892C118.713 29.0261 119.07 28.8461 119.516 28.8461C119.986 28.8461 120.352 29.022 120.615 29.3779C120.879 29.7317 121.01 30.2234 121.01 30.8529C121.008 31.4978 120.879 32.0039 120.621 32.369ZM121.772 28.8575C121.186 28.3277 120.448 28.0624 119.562 28.0624C118.636 28.0624 117.877 28.3216 117.286 28.841C116.697 29.3604 116.4 30.029 116.4 30.8529C116.4 31.6901 116.694 32.3752 117.281 32.9059C117.867 33.4387 118.621 33.7031 119.539 33.7031C120.448 33.7031 121.195 33.4336 121.778 32.8956C122.361 32.3567 122.653 31.6727 122.653 30.8405C122.653 30.0485 122.36 29.3903 121.772 28.8575Z" fill="#FFEBCA"/>
<path d="M129.489 33.5663H127.92V30.4929C127.92 30.029 127.855 29.6957 127.726 29.488C127.533 29.1835 127.208 29.0333 126.751 29.0333C126.093 29.0333 125.666 29.2792 125.475 29.776C125.403 29.958 125.367 30.2573 125.367 30.6719V33.5663H123.773V28.1858H125.367V28.9068C125.943 28.3432 126.626 28.0624 127.416 28.0624C128.374 28.0624 129.006 28.3977 129.309 29.0673C129.43 29.3471 129.49 29.8284 129.49 30.5155L129.489 33.5663Z" fill="#FFEBCA"/>
<path d="M134.063 31.9514C133.992 32.1602 133.853 32.3402 133.644 32.4924C133.405 32.6601 133.141 32.7434 132.854 32.7434C132.624 32.7434 132.429 32.6683 132.273 32.5151C132.118 32.3628 132.04 32.1756 132.04 31.9504C132.04 31.3991 132.55 31.0113 133.569 30.7871C133.866 30.7223 134.079 30.6801 134.208 30.6544V31.1707C134.216 31.4135 134.168 31.6727 134.063 31.9514ZM135.739 31.8547V30.4188C135.739 29.9488 135.711 29.6011 135.656 29.3779C135.6 29.1712 135.496 28.9737 135.345 28.7916C134.944 28.3051 134.275 28.0624 133.335 28.0624C132.448 28.0624 131.658 28.3031 130.964 28.7896L131.481 29.4581C131.992 29.0745 132.496 28.8832 132.994 28.8832C133.642 28.8832 134.046 29.2051 134.208 29.8511C133.807 29.9313 133.475 30.0002 133.211 30.0537C132.562 30.1905 132.029 30.3695 131.614 30.5927C130.885 30.9835 130.521 31.5019 130.521 32.1468C130.521 32.5953 130.687 32.9645 131.023 33.2597C131.358 33.5549 131.766 33.702 132.245 33.702C132.995 33.702 133.635 33.4181 134.162 32.8463C134.17 33.1116 134.218 33.3503 134.306 33.5652H135.983C135.821 33.1826 135.739 32.6148 135.739 31.8547Z" fill="#FFEBCA"/>
<path d="M138.807 33.5662H137.238V25.6586H138.807V33.5662Z" fill="#FFEBCA"/>
<path d="M148.681 31.5935C148.681 32.2086 148.411 32.7146 147.867 33.1106C147.323 33.5056 146.62 33.7031 145.757 33.7031C144.846 33.7031 144.015 33.4675 143.264 32.9944L143.898 32.081C144.488 32.4904 145.063 32.6951 145.621 32.6951C146.012 32.6951 146.332 32.6025 146.579 32.4194C146.827 32.2343 146.95 31.9915 146.95 31.6881C146.95 31.3281 146.644 30.9002 146.028 30.4044C145.743 30.172 145.294 29.8356 144.689 29.3964C143.995 28.9017 143.648 28.3566 143.648 27.7672C143.648 27.2148 143.902 26.7643 144.408 26.4167C144.917 26.069 145.564 25.8942 146.355 25.8942C147.12 25.8942 147.832 26.0989 148.487 26.5072L147.838 27.3372C147.367 27.0482 146.915 26.9032 146.483 26.9032C146.156 26.9032 145.894 26.9752 145.698 27.1202C145.502 27.2632 145.404 27.4555 145.404 27.6962C145.404 27.9842 145.66 28.3236 146.171 28.7145C146.356 28.8523 146.789 29.1753 147.468 29.6855C148.278 30.2697 148.681 30.9054 148.681 31.5935Z" fill="#FFEBCA"/>
<path d="M154.756 33.1866C154.134 33.5302 153.441 33.703 152.683 33.703C151.773 33.703 151.018 33.4438 150.418 32.9244C149.821 32.406 149.521 31.7312 149.521 30.9001C149.521 30.0845 149.834 29.4087 150.461 28.8687C151.089 28.3308 151.885 28.0613 152.851 28.0613C153.531 28.0613 154.137 28.2084 154.673 28.5025L154.206 29.2524C153.815 29.0898 153.432 29.0076 153.057 29.0076C152.499 29.0076 152.05 29.1752 151.711 29.5095C151.371 29.8448 151.202 30.2892 151.202 30.8394C151.202 31.4144 151.373 31.8783 151.717 32.2301C152.06 32.5818 152.511 32.7567 153.07 32.7567C153.453 32.7567 153.871 32.6446 154.326 32.4173L154.756 33.1866Z" fill="#FFEBCA"/>
<path d="M157.392 26.5236C157.392 26.7468 157.304 26.9391 157.129 27.1006C156.954 27.259 156.742 27.3392 156.495 27.3392C156.248 27.3392 156.033 27.2631 155.855 27.1119C155.675 26.9597 155.586 26.7746 155.586 26.5596C155.586 26.3035 155.669 26.0978 155.837 25.9425C156.005 25.7861 156.227 25.7069 156.507 25.7069C156.762 25.7069 156.972 25.7851 157.14 25.9425C157.308 26.0978 157.392 26.2922 157.392 26.5236ZM157.293 33.5662H155.723V28.1858H157.293V33.5662Z" fill="#FFEBCA"/>
<path d="M160.162 30.2913C160.209 29.3203 160.651 28.8348 161.484 28.8348C162.191 28.8348 162.577 29.2339 162.64 30.0311C162.649 30.1411 162.654 30.2275 162.654 30.2913H160.162ZM163.737 29.2432C163.336 28.4553 162.595 28.0624 161.51 28.0624C160.647 28.0624 159.936 28.3051 159.378 28.7916C158.787 29.3121 158.492 29.9786 158.492 30.7922C158.492 31.6881 158.824 32.4132 159.487 32.9738C160.063 33.4613 160.789 33.7031 161.667 33.7031C162.433 33.7031 163.212 33.5045 164.003 33.1024L163.559 32.3567C163.032 32.6477 162.514 32.7948 162.004 32.7948C161.461 32.7948 161.02 32.6364 160.682 32.3186C160.343 32.0018 160.169 31.5667 160.161 31.0123H163.761C163.761 30.9959 163.812 30.966 163.916 30.9228C164.019 30.8786 164.07 30.8508 164.07 30.8333C164.063 30.1967 163.951 29.6669 163.737 29.2432Z" fill="#FFEBCA"/>
<path d="M170.908 33.5663H169.341V30.4929C169.341 30.029 169.275 29.6957 169.147 29.488C168.954 29.1835 168.63 29.0333 168.172 29.0333C167.513 29.0333 167.087 29.2792 166.896 29.776C166.824 29.958 166.787 30.2573 166.787 30.6719V33.5663H165.193V28.1858H166.787V28.9068C167.363 28.3432 168.046 28.0624 168.837 28.0624C169.796 28.0624 170.427 28.3977 170.729 29.0673C170.85 29.3471 170.909 29.8284 170.909 30.5155V33.5663H170.908Z" fill="#FFEBCA"/>
<path d="M177.252 33.1866C176.629 33.5302 175.939 33.703 175.181 33.703C174.268 33.703 173.513 33.4438 172.915 32.9244C172.317 32.406 172.016 31.7312 172.016 30.9001C172.016 30.0845 172.33 29.4087 172.957 28.8687C173.584 28.3308 174.381 28.0613 175.347 28.0613C176.025 28.0613 176.633 28.2084 177.169 28.5025L176.702 29.2524C176.311 29.0898 175.928 29.0076 175.554 29.0076C174.994 29.0076 174.547 29.1752 174.208 29.5095C173.867 29.8448 173.698 30.2892 173.698 30.8394C173.698 31.4144 173.869 31.8783 174.213 32.2301C174.555 32.5818 175.006 32.7567 175.565 32.7567C175.948 32.7567 176.366 32.6446 176.821 32.4173L177.252 33.1866Z" fill="#FFEBCA"/>
<path d="M179.341 30.2913C179.389 29.3203 179.832 28.8348 180.664 28.8348C181.372 28.8348 181.756 29.2339 181.821 30.0311C181.828 30.1411 181.833 30.2275 181.833 30.2913H179.341ZM182.916 29.2432C182.517 28.4553 181.776 28.0624 180.691 28.0624C179.828 28.0624 179.118 28.3051 178.558 28.7916C177.969 29.3121 177.674 29.9786 177.674 30.7922C177.674 31.6881 178.005 32.4132 178.666 32.9738C179.243 33.4613 179.971 33.7031 180.848 33.7031C181.615 33.7031 182.394 33.5045 183.184 33.1024L182.742 32.3567C182.215 32.6477 181.696 32.7948 181.185 32.7948C180.642 32.7948 180.202 32.6364 179.864 32.3186C179.523 32.0018 179.35 31.5667 179.342 31.0123H182.941C182.941 30.9959 182.995 30.966 183.097 30.9228C183.202 30.8786 183.252 30.8508 183.252 30.8333C183.244 30.1967 183.133 29.6669 182.916 29.2432Z" fill="#FFEBCA"/>
<path d="M191.09 31.9514C191.017 32.1602 190.878 32.3402 190.671 32.4924C190.432 32.6601 190.169 32.7434 189.88 32.7434C189.648 32.7434 189.456 32.6683 189.3 32.5151C189.144 32.3628 189.066 32.1756 189.066 31.9504C189.066 31.3991 189.575 31.0113 190.595 30.7871C190.891 30.7223 191.105 30.6801 191.232 30.6544V31.1707C191.242 31.4135 191.192 31.6727 191.09 31.9514ZM192.766 31.8547V30.4188C192.766 29.9488 192.737 29.6011 192.681 29.3779C192.625 29.1712 192.522 28.9737 192.371 28.7916C191.971 28.3051 191.3 28.0624 190.359 28.0624C189.473 28.0624 188.682 28.3031 187.989 28.7896L188.507 29.4581C189.02 29.0745 189.522 28.8832 190.021 28.8832C190.669 28.8832 191.072 29.2051 191.233 29.8511C190.833 29.9313 190.501 30.0002 190.236 30.0537C189.589 30.1905 189.057 30.3695 188.639 30.5927C187.91 30.9835 187.547 31.5019 187.547 32.1468C187.547 32.5953 187.714 32.9645 188.049 33.2597C188.384 33.5549 188.791 33.702 189.271 33.702C190.021 33.702 190.66 33.4181 191.187 32.8463C191.195 33.1116 191.243 33.3503 191.331 33.5652H193.009C192.846 33.1826 192.766 32.6148 192.766 31.8547Z" fill="#FFEBCA"/>
<path d="M199.979 33.5663H198.41V30.4929C198.41 30.029 198.345 29.6957 198.217 29.488C198.023 29.1835 197.697 29.0333 197.241 29.0333C196.582 29.0333 196.157 29.2792 195.965 29.776C195.892 29.958 195.857 30.2573 195.857 30.6719V33.5663H194.262V28.1858H195.857V28.9068C196.432 28.3432 197.115 28.0624 197.906 28.0624C198.866 28.0624 199.495 28.3977 199.8 29.0673C199.919 29.3471 199.98 29.8284 199.98 30.5155V33.5663H199.979Z" fill="#FFEBCA"/>
<path d="M205.384 32.3052C205.101 32.6816 204.73 32.8699 204.27 32.8699C203.824 32.8699 203.465 32.6816 203.192 32.3052C202.916 31.9298 202.78 31.4288 202.78 30.8045C202.78 30.2131 202.913 29.7492 203.18 29.4118C203.446 29.0765 203.805 28.9078 204.259 28.9078C204.727 28.9078 205.101 29.0806 205.385 29.4252C205.666 29.7677 205.807 30.2336 205.807 30.8179C205.806 31.433 205.666 31.9298 205.384 32.3052ZM207.339 25.6586H205.807V28.8821C205.328 28.3359 204.703 28.0623 203.927 28.0623C203.113 28.0623 202.437 28.3287 201.902 28.8636C201.367 29.3984 201.1 30.0742 201.1 30.8888C201.1 31.6726 201.328 32.3227 201.783 32.8411C202.278 33.416 202.945 33.703 203.782 33.703C204.533 33.703 205.209 33.3955 205.807 32.7763V33.5672H207.339V25.6586Z" fill="#FFEBCA"/>
<path d="M217.391 27.0409H214.811V33.5672H213.118V27.0409H210.539V26.0309H217.391V27.0409Z" fill="#FFEBCA"/>
<path d="M218.267 30.2913C218.315 29.3203 218.755 28.8348 219.591 28.8348C220.297 28.8348 220.682 29.2339 220.746 30.0311C220.755 30.1411 220.758 30.2275 220.758 30.2913H218.267ZM221.842 29.2432C221.444 28.4553 220.701 28.0624 219.615 28.0624C218.752 28.0624 218.043 28.3051 217.483 28.7916C216.894 29.3121 216.6 29.9786 216.6 30.7922C216.6 31.6881 216.93 32.4132 217.593 32.9738C218.169 33.4613 218.894 33.7031 219.773 33.7031C220.54 33.7031 221.319 33.5045 222.109 33.1024L221.666 32.3567C221.14 32.6477 220.621 32.7948 220.111 32.7948C219.567 32.7948 219.127 32.6364 218.788 32.3186C218.449 32.0018 218.275 31.5667 218.267 31.0123H221.867C221.867 30.9959 221.919 30.966 222.023 30.9228C222.127 30.8786 222.178 30.8508 222.178 30.8333C222.17 30.1967 222.057 29.6669 221.842 29.2432Z" fill="#FFEBCA"/>
<path d="M228.123 33.1866C227.502 33.5302 226.809 33.703 226.049 33.703C225.139 33.703 224.386 33.4438 223.787 32.9244C223.187 32.406 222.889 31.7312 222.889 30.9001C222.889 30.0845 223.202 29.4087 223.828 28.8687C224.455 28.3308 225.252 28.0613 226.218 28.0613C226.897 28.0613 227.504 28.2084 228.04 28.5025L227.573 29.2524C227.182 29.0898 226.798 29.0076 226.424 29.0076C225.865 29.0076 225.417 29.1752 225.077 29.5095C224.738 29.8448 224.57 30.2892 224.57 30.8394C224.57 31.4144 224.741 31.8783 225.084 32.2301C225.427 32.5818 225.877 32.7567 226.435 32.7567C226.819 32.7567 227.237 32.6446 227.692 32.4173L228.123 33.1866Z" fill="#FFEBCA"/>
<path d="M234.669 33.5662H233.1V30.4928C233.1 30.029 233.036 29.6957 232.907 29.4879C232.714 29.1835 232.389 29.0333 231.931 29.0333C231.313 29.0333 230.9 29.2524 230.692 29.6916C230.595 29.8911 230.546 30.2182 230.546 30.6718V33.5662H228.951V25.6586H230.546V28.8821C231.129 28.3359 231.809 28.0623 232.583 28.0623C233.557 28.0623 234.193 28.3977 234.489 29.0672C234.608 29.347 234.669 29.8284 234.669 30.5155V33.5662Z" fill="#FFEBCA"/>
<path d="M241.906 33.5663H240.337V30.4929C240.337 30.029 240.273 29.6957 240.143 29.488C239.951 29.1835 239.626 29.0333 239.168 29.0333C238.509 29.0333 238.084 29.2792 237.892 29.776C237.821 29.958 237.784 30.2573 237.784 30.6719V33.5663H236.189V28.1858H237.784V28.9068C238.36 28.3432 239.043 28.0624 239.834 28.0624C240.792 28.0624 241.423 28.3977 241.727 29.0673C241.847 29.3471 241.907 29.8284 241.907 30.5155L241.906 33.5663Z" fill="#FFEBCA"/>
<path d="M247.232 32.369C246.974 32.7341 246.613 32.9183 246.15 32.9183C245.681 32.9183 245.314 32.7341 245.052 32.369C244.788 32.0039 244.656 31.4968 244.656 30.8519C244.656 30.2388 244.789 29.7513 245.057 29.3892C245.325 29.0261 245.681 28.8461 246.127 28.8461C246.597 28.8461 246.963 29.022 247.227 29.3779C247.49 29.7317 247.621 30.2234 247.621 30.8529C247.621 31.4978 247.492 32.0028 247.232 32.369ZM248.384 28.8575C247.799 28.3277 247.062 28.0624 246.174 28.0624C245.25 28.0624 244.491 28.3216 243.9 28.841C243.309 29.3604 243.014 30.029 243.014 30.8529C243.014 31.6901 243.306 32.3752 243.894 32.9059C244.479 33.4387 245.233 33.7031 246.15 33.7031C247.062 33.7031 247.807 33.4336 248.39 32.8956C248.973 32.3567 249.266 31.6727 249.266 30.8405C249.265 30.0485 248.97 29.3903 248.384 28.8575Z" fill="#FFEBCA"/>
<path d="M251.953 33.5662H250.385V25.6586H251.953V33.5662Z" fill="#FFEBCA"/>
<path d="M257.295 32.369C257.036 32.7341 256.675 32.9183 256.213 32.9183C255.743 32.9183 255.377 32.7341 255.114 32.369C254.851 32.0039 254.72 31.4968 254.72 30.8519C254.72 30.2388 254.854 29.7513 255.121 29.3892C255.387 29.0261 255.743 28.8461 256.191 28.8461C256.66 28.8461 257.027 29.022 257.289 29.3779C257.551 29.7317 257.685 30.2234 257.685 30.8529C257.685 31.4978 257.555 32.0039 257.295 32.369ZM258.448 28.8575C257.86 28.3277 257.125 28.0624 256.238 28.0624C255.312 28.0624 254.553 28.3216 253.963 28.841C253.372 29.3604 253.076 30.029 253.076 30.8529C253.076 31.6901 253.37 32.3752 253.956 32.9059C254.543 33.4387 255.296 33.7031 256.213 33.7031C257.125 33.7031 257.869 33.4336 258.453 32.8956C259.037 32.3567 259.328 31.6727 259.328 30.8405C259.328 30.0485 259.034 29.3903 258.448 28.8575Z" fill="#FFEBCA"/>
<path d="M264.268 32.3052C263.993 32.6817 263.633 32.8699 263.187 32.8699C262.749 32.8699 262.396 32.6817 262.129 32.3052C261.862 31.9298 261.728 31.4289 261.728 30.8045C261.728 30.2131 261.854 29.7492 262.106 29.4119C262.357 29.0765 262.705 28.9079 263.151 28.9079C263.629 28.9079 264.003 29.0765 264.275 29.4119C264.546 29.7482 264.682 30.2162 264.682 30.8169C264.682 31.433 264.544 31.9298 264.268 32.3052ZM266.251 28.1858H264.682V28.9192C264.251 28.3473 263.641 28.0624 262.85 28.0624C262.052 28.0624 261.386 28.3339 260.851 28.876C260.316 29.4201 260.049 30.0948 260.049 30.9012C260.049 31.684 260.272 32.3361 260.718 32.8535C261.213 33.4202 261.881 33.7031 262.718 33.7031C263.452 33.7031 264.109 33.3955 264.682 32.7763V33.1949C264.682 33.7051 264.637 34.0754 264.55 34.3079C264.286 35.0011 263.659 35.3467 262.67 35.3467C262.056 35.3467 261.406 35.1862 260.719 34.8602L260.408 35.7417C261.19 36.0852 262.033 36.256 262.934 36.256C264.691 36.256 265.756 35.5473 266.132 34.1248C266.211 33.8224 266.251 33.2669 266.251 32.4616V28.1858Z" fill="#FFEBCA"/>
<path d="M272.978 28.3009L270.068 34.244C269.694 35.0113 269.338 35.5215 269.002 35.7776C268.57 36.0964 267.948 36.2559 267.133 36.2559H266.762V35.2983H267.073C267.441 35.2983 267.729 35.254 267.936 35.1656C268.144 35.0782 268.339 34.9105 268.517 34.6636C268.696 34.4158 268.95 33.9323 269.278 33.2134L266.953 28.3493L268.51 28.0736L270.044 31.8773L271.734 28.0736L272.978 28.3009Z" fill="#FFEBCA"/>
<path d="M283.413 26.4958L282.873 27.4328C282.257 27.1212 281.654 26.9648 281.062 26.9648C280.159 26.9648 279.429 27.224 278.868 27.7383C278.309 28.2526 278.03 28.9356 278.03 29.7811C278.03 30.6039 278.312 31.2848 278.875 31.8238C279.437 32.3617 280.187 32.6312 281.123 32.6312C281.745 32.6312 282.338 32.4944 282.897 32.2239L283.342 33.1496C282.598 33.5178 281.776 33.702 280.873 33.702C279.523 33.702 278.413 33.342 277.545 32.623C276.672 31.903 276.238 30.9752 276.238 29.8397C276.238 28.7041 276.682 27.762 277.567 27.0152C278.453 26.2685 279.572 25.8931 280.921 25.8931C281.789 25.8941 282.621 26.0957 283.413 26.4958Z" fill="#FFEBCA"/>
<path d="M285.641 30.2913C285.689 29.3203 286.132 28.8348 286.966 28.8348C287.671 28.8348 288.056 29.2339 288.121 30.0311C288.128 30.1411 288.132 30.2275 288.132 30.2913H285.641ZM289.216 29.2432C288.817 28.4553 288.075 28.0624 286.988 28.0624C286.129 28.0624 285.418 28.3051 284.858 28.7916C284.269 29.3121 283.973 29.9786 283.973 30.7922C283.973 31.6881 284.304 32.4132 284.968 32.9738C285.542 33.4613 286.268 33.7031 287.147 33.7031C287.913 33.7031 288.692 33.5045 289.484 33.1024L289.039 32.3567C288.513 32.6477 287.994 32.7948 287.484 32.7948C286.941 32.7948 286.5 32.6364 286.161 32.3186C285.822 32.0018 285.648 31.5667 285.64 31.0123H289.239C289.239 30.9959 289.292 30.966 289.396 30.9228C289.499 30.8786 289.551 30.8508 289.551 30.8333C289.544 30.1967 289.431 29.6669 289.216 29.2432Z" fill="#FFEBCA"/>
<path d="M296.389 33.5663H294.82V30.4929C294.82 30.029 294.755 29.6957 294.627 29.488C294.433 29.1835 294.11 29.0333 293.652 29.0333C292.992 29.0333 292.567 29.2792 292.376 29.776C292.304 29.958 292.267 30.2573 292.267 30.6719V33.5663H290.674V28.1858H292.267V28.9068C292.844 28.3432 293.527 28.0624 294.316 28.0624C295.277 28.0624 295.906 28.3977 296.211 29.0673C296.33 29.3471 296.391 29.8284 296.391 30.5155V33.5663H296.389Z" fill="#FFEBCA"/>
<path d="M301.55 33.3667C300.997 33.5909 300.457 33.703 299.932 33.703C299.227 33.703 298.715 33.4963 298.396 33.0808C298.198 32.8257 298.096 32.3618 298.096 31.6901V28.9222H297.262V28.1858H298.096V26.8785L299.665 26.5658V28.1848H301.251V28.9212H299.665V31.4032C299.665 31.9401 299.727 32.3145 299.854 32.5253C299.978 32.7382 300.198 32.8432 300.512 32.8432C300.768 32.8432 301.023 32.7845 301.271 32.6683L301.55 33.3667Z" fill="#FFEBCA"/>
<path d="M303.455 30.2913C303.502 29.3203 303.943 28.8348 304.777 28.8348C305.484 28.8348 305.869 29.2339 305.932 30.0311C305.941 30.1411 305.945 30.2275 305.945 30.2913H303.455ZM307.03 29.2432C306.631 28.4553 305.888 28.0624 304.802 28.0624C303.941 28.0624 303.23 28.3051 302.672 28.7916C302.08 29.3121 301.785 29.9786 301.785 30.7922C301.785 31.6881 302.117 32.4132 302.781 32.9738C303.356 33.4613 304.082 33.7031 304.96 33.7031C305.727 33.7031 306.506 33.5045 307.296 33.1024L306.853 32.3567C306.327 32.6477 305.808 32.7948 305.297 32.7948C304.755 32.7948 304.313 32.6364 303.974 32.3186C303.636 32.0018 303.461 31.5667 303.455 31.0123H307.052C307.052 30.9959 307.105 30.966 307.209 30.9228C307.313 30.8786 307.363 30.8508 307.363 30.8333C307.356 30.1967 307.245 29.6669 307.03 29.2432Z" fill="#FFEBCA"/>
<path d="M312.499 28.5509L311.908 29.5775C311.556 29.4293 311.304 29.3563 311.15 29.3563C310.701 29.3563 310.388 29.5713 310.211 30.0023C310.106 30.2573 310.056 30.6842 310.056 31.2818V33.5663H308.486V28.1858H310.056V29.1352L310.284 28.7885C310.606 28.3031 310.971 28.0624 311.38 28.0624C311.725 28.0624 312.097 28.2249 312.499 28.5509Z" fill="#FFEBCA"/>
<path d="M98.6433 39.0506L98.3677 39.7479C98.1517 39.6801 97.9439 39.6451 97.7454 39.6451C97.3381 39.6451 97.083 39.8045 96.9791 40.1254C96.938 40.2201 96.9195 40.4093 96.9195 40.6901V41.3391H98.3554V42.0735H96.9195V46.7196H95.3499V42.0735H94.3789V41.3391H95.3499V40.8105C95.3499 40.1954 95.5093 39.7284 95.8302 39.4085C96.2375 39.0094 96.7755 38.8109 97.4461 38.8109C97.8514 38.8109 98.2525 38.8911 98.6433 39.0506Z" fill="#FFEBCA"/>
<path d="M102.758 45.5213C102.5 45.8875 102.14 46.0716 101.677 46.0716C101.207 46.0716 100.841 45.8875 100.578 45.5213C100.315 45.1562 100.184 44.6501 100.184 44.0042C100.184 43.3912 100.317 42.9036 100.585 42.5416C100.852 42.1775 101.207 41.9985 101.654 41.9985C102.125 41.9985 102.491 42.1754 102.753 42.5303C103.016 42.8841 103.147 43.3747 103.147 44.0052C103.147 44.6512 103.017 45.1562 102.758 45.5213ZM103.912 42.0108C103.324 41.4791 102.588 41.2147 101.701 41.2147C100.775 41.2147 100.016 41.4739 99.4267 41.9923C98.8353 42.5128 98.5391 43.1834 98.5391 44.0052C98.5391 44.8435 98.8343 45.5296 99.4185 46.0603C100.007 46.5911 100.76 46.8554 101.678 46.8554C102.588 46.8554 103.334 46.5859 103.917 46.048C104.5 45.509 104.792 44.824 104.792 43.9929C104.792 43.2029 104.498 42.5416 103.912 42.0108Z" fill="#FFEBCA"/>
<path d="M109.924 41.7032L109.335 42.7298C108.981 42.5827 108.728 42.5107 108.576 42.5107C108.127 42.5107 107.813 42.7256 107.637 43.1556C107.531 43.4107 107.481 43.8386 107.481 44.4351V46.7196H105.91V41.3402H107.481V42.2875L107.71 41.9429C108.031 41.4584 108.396 41.2157 108.805 41.2157C109.149 41.2147 109.522 41.3772 109.924 41.7032Z" fill="#FFEBCA"/>
<path d="M118.124 45.148C117.845 45.3547 117.533 45.5018 117.19 45.5851C116.846 45.6684 116.364 45.7106 115.741 45.7106H115.058V40.1944H115.789C116.699 40.1944 117.369 40.2931 117.801 40.4927C118.654 40.9 119.082 41.6765 119.082 42.8265C119.082 43.8869 118.765 44.6615 118.124 45.148ZM118.719 39.6873C118.306 39.495 117.917 39.3684 117.559 39.3047C117.103 39.2244 116.481 39.1843 115.689 39.1843H113.379V46.7196H115.689C117.024 46.7196 118.068 46.5314 118.828 46.157C120.193 45.4627 120.876 44.3241 120.876 42.7421C120.875 41.3453 120.157 40.3271 118.719 39.6873Z" fill="#FFEBCA"/>
<path d="M123.865 39.6759C123.865 39.9002 123.778 40.0925 123.604 40.253C123.427 40.4124 123.217 40.4926 122.968 40.4926C122.721 40.4926 122.508 40.4165 122.329 40.2643C122.15 40.1131 122.059 39.9269 122.059 39.7119C122.059 39.4558 122.143 39.2501 122.311 39.0938C122.477 38.9385 122.7 38.8593 122.98 38.8593C123.235 38.8593 123.446 38.9374 123.614 39.0938C123.78 39.2501 123.865 39.4435 123.865 39.6759ZM123.766 46.7185H122.196V41.3391H123.766V46.7185Z" fill="#FFEBCA"/>
<path d="M129.115 45.2426C129.115 45.7209 128.902 46.1087 128.478 46.408C128.056 46.7063 127.515 46.8564 126.858 46.8564C126.123 46.8564 125.459 46.6487 124.867 46.2321L125.383 45.4751C125.855 45.8402 126.282 46.0233 126.668 46.0233C126.923 46.0233 127.13 45.9626 127.286 45.8433C127.442 45.723 127.52 45.5635 127.52 45.364C127.52 45.1953 127.456 45.042 127.329 44.9022C127.2 44.7623 126.92 44.5524 126.488 44.2737C126.056 43.9929 125.764 43.7769 125.613 43.6257C125.339 43.3459 125.205 43.0384 125.205 42.7031C125.205 42.2629 125.396 41.9059 125.78 41.6303C126.162 41.3546 126.653 41.2168 127.252 41.2168C127.874 41.2168 128.446 41.3639 128.965 41.657L128.497 42.3256C128.178 42.1322 127.843 42.0386 127.491 42.0386C127.275 42.0386 127.098 42.089 126.959 42.1888C126.818 42.2886 126.748 42.4141 126.748 42.5653C126.748 42.7802 127.025 43.0713 127.577 43.4395C128.196 43.8458 128.605 44.1667 128.81 44.4012C129.012 44.6337 129.115 44.9145 129.115 45.2426Z" fill="#FFEBCA"/>
<path d="M133.287 45.1048C133.215 45.3125 133.075 45.4925 132.867 45.6448C132.626 45.8135 132.364 45.8968 132.077 45.8968C131.846 45.8968 131.652 45.8207 131.497 45.6674C131.34 45.5172 131.262 45.328 131.262 45.1037C131.262 44.5514 131.771 44.1636 132.792 43.9394C133.088 43.8746 133.3 43.8314 133.43 43.8067V44.3231C133.438 44.5658 133.389 44.825 133.287 45.1048ZM134.963 45.0071V43.5712C134.963 43.1011 134.934 42.7535 134.879 42.5303C134.823 42.3235 134.719 42.1281 134.568 41.944C134.168 41.4575 133.499 41.2147 132.558 41.2147C131.671 41.2147 130.882 41.4575 130.188 41.9419L130.705 42.6105C131.217 42.2279 131.721 42.0355 132.218 42.0355C132.867 42.0355 133.27 42.3585 133.432 43.0034C133.03 43.0836 132.698 43.1525 132.434 43.206C131.786 43.3428 131.253 43.5218 130.838 43.745C130.109 44.1359 129.744 44.6543 129.744 45.3002C129.744 45.7476 129.913 46.1169 130.249 46.4131C130.583 46.7062 130.992 46.8544 131.471 46.8544C132.221 46.8544 132.861 46.5705 133.387 45.9986C133.395 46.264 133.444 46.5016 133.53 46.7176H135.208C135.044 46.3349 134.963 45.7661 134.963 45.0071Z" fill="#FFEBCA"/>
<path d="M140.194 45.2426C140.194 45.7209 139.982 46.1087 139.558 46.408C139.135 46.7063 138.594 46.8564 137.94 46.8564C137.204 46.8564 136.54 46.6487 135.947 46.2321L136.464 45.4751C136.936 45.8402 137.364 46.0233 137.747 46.0233C138.004 46.0233 138.211 45.9626 138.366 45.8433C138.522 45.723 138.6 45.5635 138.6 45.364C138.6 45.1953 138.535 45.042 138.409 44.9022C138.281 44.7623 138 44.5524 137.569 44.2737C137.137 43.9929 136.844 43.7769 136.692 43.6257C136.42 43.3459 136.285 43.0384 136.285 42.7031C136.285 42.2629 136.477 41.9059 136.86 41.6303C137.243 41.3546 137.734 41.2168 138.334 41.2168C138.956 41.2168 139.528 41.3639 140.045 41.657L139.578 42.3256C139.259 42.1322 138.925 42.0386 138.571 42.0386C138.356 42.0386 138.178 42.089 138.038 42.1888C137.899 42.2886 137.829 42.4141 137.829 42.5653C137.829 42.7802 138.104 43.0713 138.657 43.4395C139.274 43.8458 139.684 44.1667 139.889 44.4012C140.092 44.6337 140.194 44.9145 140.194 45.2426Z" fill="#FFEBCA"/>
<path d="M144.95 46.518C144.398 46.7432 143.858 46.8553 143.331 46.8553C142.627 46.8553 142.115 46.6486 141.796 46.2341C141.596 45.978 141.495 45.5141 141.495 44.8424V42.0735H140.662V41.3391H141.495V40.0318L143.065 39.7191V41.3391H144.651V42.0735H143.065V44.5575C143.065 45.0934 143.128 45.4678 143.251 45.6786C143.377 45.8916 143.596 45.9965 143.911 45.9965C144.168 45.9965 144.423 45.9378 144.673 45.8216L144.95 46.518Z" fill="#FFEBCA"/>
<path d="M146.857 43.4447C146.905 42.4727 147.347 41.9861 148.182 41.9861C148.887 41.9861 149.272 42.3863 149.337 43.1834C149.345 43.2935 149.349 43.3799 149.349 43.4447H146.857ZM150.433 42.3965C150.034 41.6076 149.292 41.2147 148.205 41.2147C147.344 41.2147 146.634 41.4585 146.075 41.945C145.484 42.4634 145.189 43.1309 145.189 43.9445C145.189 44.8394 145.52 45.5666 146.183 46.1251C146.759 46.6137 147.484 46.8554 148.364 46.8554C149.13 46.8554 149.909 46.6558 150.699 46.2547L150.257 45.509C149.731 45.8001 149.211 45.9461 148.701 45.9461C148.159 45.9461 147.718 45.7888 147.378 45.4709C147.039 45.1541 146.865 44.7201 146.857 44.1647H150.457C150.457 44.1482 150.509 44.1194 150.613 44.0762C150.716 44.032 150.767 44.0011 150.767 43.9857C150.76 43.35 150.649 42.8193 150.433 42.3965Z" fill="#FFEBCA"/>
<path d="M155.901 41.7032L155.313 42.7298C154.959 42.5827 154.707 42.5107 154.554 42.5107C154.104 42.5107 153.792 42.7256 153.615 43.1556C153.51 43.4107 153.458 43.8386 153.458 44.4351V46.7196H151.889V41.3402H153.458V42.2875L153.688 41.9429C154.009 41.4584 154.374 41.2157 154.783 41.2157C155.128 41.2147 155.501 41.3772 155.901 41.7032Z" fill="#FFEBCA"/>
<path d="M162.841 42.3616C162.576 42.6105 162.141 42.7329 161.537 42.7329H161.036V40.1543H161.68C162.196 40.1543 162.562 40.2232 162.775 40.3579C163.086 40.5513 163.24 40.8743 163.24 41.3299C163.241 41.7712 163.108 42.1147 162.841 42.3616ZM163.465 43.3562C164.437 42.845 164.923 42.1332 164.923 41.223C164.923 40.5122 164.64 39.9712 164.074 39.605C163.787 39.4116 163.422 39.2882 162.983 39.2327C162.735 39.2008 162.346 39.1843 161.81 39.1843H159.355V46.7196H161.036V43.6679H162.042L163.766 46.8564L165.514 46.5695L163.465 43.3562Z" fill="#FFEBCA"/>
<path d="M167.571 43.4447C167.62 42.4727 168.06 41.9861 168.894 41.9861C169.6 41.9861 169.987 42.3863 170.05 43.1834C170.058 43.2935 170.062 43.3799 170.062 43.4447H167.571ZM171.147 42.3965C170.746 41.6076 170.004 41.2147 168.919 41.2147C168.057 41.2147 167.346 41.4585 166.788 41.945C166.197 42.4634 165.902 43.1309 165.902 43.9445C165.902 44.8394 166.233 45.5666 166.897 46.1251C167.472 46.6137 168.199 46.8554 169.077 46.8554C169.844 46.8554 170.621 46.6558 171.412 46.2547L170.969 45.509C170.442 45.8001 169.925 45.9461 169.413 45.9461C168.871 45.9461 168.429 45.7888 168.09 45.4709C167.753 45.1541 167.577 44.7201 167.57 44.1647H171.17C171.17 44.1482 171.221 44.1194 171.325 44.0762C171.429 44.032 171.479 44.0011 171.479 43.9857C171.474 43.35 171.362 42.8193 171.147 42.3965Z" fill="#FFEBCA"/>
<path d="M176.488 45.4575C176.205 45.833 175.834 46.0222 175.373 46.0222C174.927 46.0222 174.569 45.833 174.294 45.4575C174.021 45.0821 173.883 44.5812 173.883 43.9568C173.883 43.3664 174.018 42.9026 174.283 42.5642C174.55 42.2288 174.908 42.0602 175.362 42.0602C175.83 42.0602 176.205 42.233 176.489 42.5765C176.77 42.9221 176.911 43.386 176.911 43.9692C176.91 44.5863 176.769 45.0821 176.488 45.4575ZM178.441 38.8109H176.91V42.0355C176.432 41.4883 175.805 41.2147 175.03 41.2147C174.215 41.2147 173.54 41.4821 173.005 42.0159C172.47 42.5518 172.203 43.2266 172.203 44.0412C172.203 44.8239 172.43 45.475 172.886 45.9934C173.38 46.5684 174.047 46.8554 174.886 46.8554C175.635 46.8554 176.311 46.5468 176.91 45.9286V46.7196H178.441V38.8109Z" fill="#FFEBCA"/>
<path d="M185.598 46.7186H184.028V45.9996C183.45 46.5715 182.766 46.8554 181.974 46.8554C181.004 46.8554 180.371 46.5242 180.075 45.8608C179.953 45.58 179.895 45.0934 179.895 44.3971V41.3381H181.463V44.4197C181.463 44.8836 181.527 45.2241 181.656 45.438C181.85 45.7353 182.177 45.8844 182.637 45.8844C183.241 45.8844 183.654 45.6633 183.871 45.2241C183.976 45.0081 184.027 44.68 184.027 44.2408V41.3381H185.597V46.7186H185.598Z" fill="#FFEBCA"/>
<path d="M191.933 46.339C191.31 46.6846 190.619 46.8553 189.86 46.8553C188.949 46.8553 188.195 46.5961 187.595 46.0767C186.997 45.5583 186.697 44.8836 186.697 44.0525C186.697 43.2389 187.011 42.5621 187.637 42.0221C188.264 41.4821 189.061 41.2136 190.028 41.2136C190.705 41.2136 191.313 41.3607 191.848 41.6539L191.381 42.4047C190.991 42.2412 190.609 42.1599 190.235 42.1599C189.674 42.1599 189.227 42.3276 188.887 42.6618C188.549 42.9992 188.379 43.4415 188.379 43.9918C188.379 44.5668 188.55 45.0306 188.893 45.3824C189.236 45.7332 189.686 45.909 190.245 45.909C190.627 45.909 191.046 45.7959 191.503 45.5686L191.933 46.339Z" fill="#FFEBCA"/>
<path d="M196.403 46.518C195.852 46.7432 195.312 46.8553 194.786 46.8553C194.081 46.8553 193.57 46.6486 193.25 46.2341C193.05 45.978 192.95 45.5141 192.95 44.8424V42.0735H192.115V41.3391H192.95V40.0318L194.518 39.7191V41.3391H196.104V42.0735H194.518V44.5575C194.518 45.0934 194.583 45.4678 194.706 45.6786C194.831 45.8916 195.051 45.9965 195.364 45.9965C195.624 45.9965 195.877 45.9378 196.127 45.8216L196.403 46.518Z" fill="#FFEBCA"/>
<path d="M198.858 39.6759C198.858 39.9002 198.771 40.0925 198.595 40.253C198.419 40.4134 198.208 40.4926 197.961 40.4926C197.713 40.4926 197.5 40.4165 197.321 40.2643C197.141 40.1131 197.051 39.9269 197.051 39.7119C197.051 39.4558 197.136 39.2501 197.303 39.0938C197.47 38.9385 197.693 38.8593 197.971 38.8593C198.227 38.8593 198.438 38.9374 198.605 39.0938C198.774 39.2501 198.858 39.4435 198.858 39.6759ZM198.759 46.7185H197.189V41.3391H198.759V46.7185Z" fill="#FFEBCA"/>
<path d="M204.178 45.5213C203.918 45.8875 203.558 46.0716 203.096 46.0716C202.625 46.0716 202.26 45.8875 201.997 45.5213C201.734 45.1562 201.602 44.6501 201.602 44.0042C201.602 43.3912 201.735 42.9036 202.002 42.5416C202.268 42.1775 202.625 41.9985 203.073 41.9985C203.543 41.9985 203.91 42.1754 204.171 42.5303C204.435 42.8841 204.566 43.3747 204.566 44.0052C204.566 44.6512 204.436 45.1562 204.178 45.5213ZM205.33 42.0108C204.745 41.4791 204.006 41.2147 203.122 41.2147C202.196 41.2147 201.436 41.4739 200.845 41.9923C200.255 42.5128 199.959 43.1834 199.959 44.0052C199.959 44.8435 200.252 45.5296 200.839 46.0603C201.426 46.5911 202.179 46.8554 203.098 46.8554C204.006 46.8554 204.753 46.5859 205.336 46.048C205.919 45.509 206.212 44.824 206.212 43.9929C206.211 43.2029 205.919 42.5416 205.33 42.0108Z" fill="#FFEBCA"/>
<path d="M213.047 46.7186H211.478V43.6452C211.478 43.1824 211.413 42.8481 211.285 42.6403C211.091 42.3369 210.767 42.1857 210.309 42.1857C209.651 42.1857 209.226 42.4315 209.033 42.9273C208.96 43.1114 208.925 43.4107 208.925 43.8242V46.7186H207.332V41.3392H208.925V42.0592C209.501 41.4955 210.184 41.2147 210.974 41.2147C211.933 41.2147 212.564 41.549 212.868 42.2196C212.987 42.4984 213.048 42.9828 213.048 43.6679L213.047 46.7186Z" fill="#FFEBCA"/>
<path d="M251.593 0.710693H94.3789V20.6269H251.593V0.710693Z" fill="#FFEBCA"/>
<path d="M108.86 11.9602C108.85 12.0538 108.8 12.1 108.706 12.1H104.369C104.275 12.0898 104.229 12.0435 104.229 11.9602V8.85285C104.229 8.7685 104.275 8.72736 104.369 8.72736H108.706C108.809 8.72736 108.86 8.7685 108.86 8.85285V11.9602ZM107.699 9.58107H105.376C105.339 9.58107 105.325 9.59033 105.335 9.60782V11.2031C105.325 11.2309 105.339 11.2453 105.376 11.2453H107.699C107.735 11.2453 107.755 11.2309 107.755 11.2031V9.60782C107.754 9.59033 107.735 9.58107 107.699 9.58107ZM108.874 12.2955L109.182 13.2469C108.006 13.5822 106.425 13.8435 104.439 14.0296L104.159 13.0648C106.128 12.8602 107.699 12.603 108.874 12.2955ZM114.68 15.6815C114.68 15.8584 114.577 15.9469 114.373 15.9469H102.62C102.425 15.9469 102.326 15.8584 102.326 15.6815V5.60874C102.326 5.44006 102.425 5.35571 102.62 5.35571H114.373C114.577 5.35571 114.68 5.44006 114.68 5.60874V15.6815ZM111.197 7.11868C111.075 6.7916 110.954 6.51594 110.832 6.29274H110.02C110.039 6.554 110.067 6.82862 110.104 7.11868H111.197ZM112.05 6.29377C112.153 6.54474 112.26 6.8204 112.372 7.11971H113.002V8.05571H110.232C110.372 9.07193 110.58 10.0851 110.861 11.092C111.225 10.4667 111.546 9.64176 111.826 8.61628L112.904 8.85285C112.483 10.1962 111.976 11.3101 111.38 12.1967C111.351 12.2255 111.324 12.2626 111.295 12.3078C111.435 12.6555 111.58 12.9743 111.729 13.2726C111.878 13.5524 111.972 13.6871 112.009 13.6799C112.084 13.6594 112.125 13.5771 112.135 13.429C112.163 13.0834 112.149 12.6637 112.093 12.1669L113.184 12.3778C113.137 13.3662 113.025 14.0708 112.848 14.4915C112.719 14.6776 112.591 14.7856 112.471 14.8124C112.35 14.8607 112.219 14.8823 112.079 14.8823C111.799 14.8453 111.53 14.6961 111.268 14.4349C111.035 14.1263 110.807 13.7293 110.581 13.2459C110.051 13.862 109.527 14.3927 109.016 14.8412L108.077 14.2528C108.973 13.5256 109.664 12.8406 110.148 12.1967C109.701 11.0303 109.36 9.64999 109.127 8.05571H104.203V7.11971H109.002C108.954 6.83068 108.928 6.55502 108.917 6.29377H103.671C103.587 6.29377 103.545 6.3308 103.545 6.40485V14.8977C103.545 14.9718 103.587 15.0078 103.671 15.0078H113.338C113.422 15.0078 113.465 14.9718 113.465 14.8977V6.40485C113.465 6.3308 113.422 6.29377 113.338 6.29377H112.05Z" fill="#A06C58"/>
<path d="M122.234 5.83706V4.94324H123.452V5.83706H128.515L129.579 6.29992C129.438 7.00038 129.146 7.85203 128.697 8.86003L127.619 8.48254C127.937 7.707 128.128 7.20918 128.193 6.98495C128.204 6.88209 128.152 6.83169 128.04 6.83169H117.771C117.696 6.84198 117.659 6.87386 117.659 6.93043V8.59363H116.499V6.03455C116.499 5.90392 116.572 5.83809 116.721 5.83809L122.234 5.83706ZM127.229 8.88883L128.053 9.60163C127.466 10.1982 126.678 10.8277 125.689 11.4901L124.905 10.7475C125.942 10.0398 126.715 9.42163 127.229 8.88883ZM123.116 10.7485C121.017 12.1298 119.072 13.0196 117.281 13.4217L116.707 12.4857C118.936 11.9437 120.908 11.0622 122.626 9.84128C122.504 9.69111 122.369 9.54711 122.218 9.4062C120.354 10.4049 118.679 11.0211 117.196 11.2545L116.693 10.3309C118.503 9.98631 120.15 9.4206 121.632 8.63786H118.457V7.65763H127.088V8.6358H123.507C123.396 8.70986 123.293 8.77671 123.2 8.83226C123.6 9.25191 123.928 9.71374 124.178 10.2167C124.57 11.0015 124.934 11.6115 125.27 12.0486C126.185 13.2623 127.61 14.3485 129.551 15.3092L128.559 16.1063C126.926 15.1826 125.649 14.1716 124.725 13.071C124.715 13.8548 124.571 14.5254 124.291 15.0849C124.039 15.6362 123.656 16.0076 123.144 16.205C122.854 16.3079 122.537 16.346 122.193 16.3161C121.811 16.2986 121.139 16.1392 120.179 15.8409L120.249 14.763C121.434 15.1086 122.227 15.23 122.628 15.1271C122.907 15.0242 123.121 14.7681 123.271 14.3588C123.485 13.865 123.587 13.3055 123.578 12.6791C121.228 14.2004 119.016 15.1744 116.947 15.6044L116.373 14.6663C119.069 14.0317 121.423 12.9866 123.438 11.5323C123.362 11.2535 123.256 10.9902 123.116 10.7485Z" fill="#A06C58"/>
<path d="M142.511 9.7343L143.377 10.4615C142.631 11.2165 141.625 12.0146 140.355 12.8539L139.543 12.0702C140.868 11.1753 141.857 10.3957 142.511 9.7343ZM130.884 10.5181L131.822 9.79087C133.035 10.7588 133.98 11.6042 134.662 12.3222L133.682 12.9815C132.684 11.9827 131.75 11.1609 130.884 10.5181ZM132.381 4.93602L133.472 5.49454C133.035 6.15796 132.563 6.74527 132.059 7.2575C132.032 7.27705 132.032 7.30482 132.059 7.34185C132.405 7.56504 132.941 8.07933 133.668 8.88058L132.689 9.59338C132.091 8.75613 131.453 8.06904 130.773 7.5383C130.651 7.34185 130.661 7.18242 130.801 7.06002C131.406 6.52208 131.932 5.81339 132.381 4.93602ZM137.207 4.89282L138.285 5.45339C137.792 6.1703 137.3 6.75865 136.818 7.21636C136.806 7.22562 136.806 7.2431 136.818 7.2719C137.124 7.4591 137.605 7.87876 138.258 8.5319L137.306 9.2591C136.69 8.47533 136.104 7.89316 135.543 7.51156C135.402 7.29659 135.409 7.12893 135.558 7.00756C136.181 6.47579 136.732 5.77122 137.207 4.89282ZM141.614 4.93602L142.707 5.49454C142.25 6.15796 141.796 6.69899 141.351 7.11865C141.339 7.1279 141.339 7.15053 141.351 7.18653C141.768 7.48584 142.288 7.97133 142.902 8.64196L141.937 9.35475C141.284 8.47019 140.659 7.82219 140.063 7.41076C139.94 7.19682 139.95 7.02813 140.09 6.90676C140.687 6.40482 141.194 5.74653 141.614 4.93602ZM137.726 9.9863H137.754C137.818 10.8174 137.912 11.4222 138.033 11.8048C138.592 13.288 140.528 14.4606 143.84 15.3184L142.972 16.2266C142.748 16.1618 142.548 16.1011 142.371 16.0446C139.395 15.0201 137.6 13.8537 136.984 12.5474C136.779 12.8663 136.574 13.1594 136.368 13.4299C135.323 14.6056 133.58 15.5365 131.136 16.2266L130.535 15.1919C131.953 14.7825 133.003 14.4081 133.682 14.0728C135.547 13.1203 136.48 11.7122 136.48 9.84641L137.74 9.87624C137.739 9.9215 137.734 9.9575 137.726 9.9863Z" fill="#A06C58"/>
<path d="M150.889 5.80319V4.99268H152.108V5.80319H157.06L158.124 6.25164C158.068 6.91507 157.867 7.69781 157.523 8.60193L156.417 8.30878C156.641 7.57233 156.748 7.11976 156.739 6.9521C156.747 6.84821 156.696 6.79884 156.586 6.79884H146.429C146.352 6.79884 146.316 6.82661 146.316 6.88319V8.64512H145.155V6.0017C145.155 5.87107 145.23 5.80525 145.379 5.80525H150.889V5.80319ZM152.107 11.1353H157.927V12.1145H145.041V11.1353H150.889V10.4071H146.441V9.41347H150.889V8.74284H146.833V7.74821H150.889V7.03439H152.108V7.74718H156.136V8.74181H152.108V9.41244H156.528V10.4071H152.108V11.1353H152.107ZM156.585 15.9192C156.585 16.022 156.523 16.0724 156.402 16.0724H146.581C146.47 16.0724 146.412 16.021 146.412 15.9192V12.8417C146.412 12.7481 146.47 12.7018 146.581 12.7018H156.402C156.523 12.7018 156.585 12.7481 156.585 12.8417V15.9192ZM155.311 13.6944H147.671C147.634 13.6944 147.62 13.7088 147.63 13.7365V15.0243C147.62 15.05 147.633 15.0706 147.671 15.0799H155.311C155.348 15.0706 155.367 15.0511 155.367 15.0243V13.7365C155.367 13.7088 155.348 13.6944 155.311 13.6944Z" fill="#A06C58"/>
<path d="M160.851 13.6255V16.2277H159.631V5.45347C159.631 5.39793 159.646 5.35679 159.673 5.32799C159.701 5.30948 159.743 5.29919 159.8 5.29919H163.241L164.054 5.77747L162.849 8.75621C162.766 8.89712 162.779 9.01232 162.891 9.10592C163.424 9.67472 163.791 10.2199 163.996 10.7434C164.295 11.6197 164.257 12.3562 163.885 12.9528C163.633 13.2799 163.339 13.4928 163.004 13.5967C162.435 13.7653 161.717 13.7746 160.851 13.6255ZM162.402 6.25164H160.947C160.911 6.25164 160.887 6.25782 160.877 6.26604C160.859 6.28559 160.852 6.3041 160.852 6.32262V12.5619C161.409 12.7491 161.913 12.7913 162.362 12.6884C162.576 12.6401 162.729 12.5341 162.824 12.3655C162.924 12.1885 162.981 11.9746 162.991 11.7236C163.001 11.1723 162.524 10.3104 161.565 9.13472C161.573 9.06992 161.582 9.01335 161.59 8.96707L162.612 6.4625C162.668 6.31336 162.598 6.24342 162.402 6.25164ZM166.755 10.0018C166.745 10.0286 166.745 10.0563 166.755 10.0851C166.549 12.8365 165.463 14.8896 163.493 16.2401L162.432 15.5139C164.464 14.3465 165.509 12.3377 165.565 9.48341V7.67724H164.082V6.64456H167.468V4.99268H168.686V6.64353H172.322V7.67724H166.782V8.96604L171.581 8.95061C171.674 8.95061 171.753 8.97118 171.818 9.00718C171.883 9.03598 171.935 9.08741 171.973 9.16147C171.991 9.18821 172 9.96272 172 11.484C171.944 13.4887 171.776 14.7199 171.496 15.1765C171.261 15.5972 170.946 15.8893 170.545 16.058C169.836 16.3851 168.587 16.273 166.795 15.7237L166.865 14.5049C168.347 15.0747 169.341 15.2516 169.844 15.0377C170.069 14.9348 170.279 14.7281 170.472 14.4205C170.642 14.1048 170.738 13.5771 170.767 12.8407C170.841 11.0962 170.837 10.1777 170.753 10.0841C170.715 10.0275 170.662 10.0008 170.598 10.0008H166.755V10.0018Z" fill="#A06C58"/>
<path d="M173.835 8.77678L174.828 8.3849C175.425 9.32707 175.813 9.9977 175.989 10.3999L174.968 10.7218C174.66 10.0687 174.282 9.4217 173.835 8.77678ZM176.549 11.3359V7.81096H173.695V6.87393H176.549V5.08216H177.711V6.87393H180.537V7.81096H177.711V15.0583C177.691 15.5139 177.486 15.8503 177.096 16.0652C176.618 16.308 175.788 16.2617 174.604 15.9264L174.66 14.904C175.062 15.0367 175.345 15.1148 175.514 15.1416C175.969 15.2352 176.274 15.2311 176.423 15.1272C176.507 15.0716 176.549 14.9647 176.549 14.8052V12.6658C176.502 12.6853 176.474 12.708 176.465 12.7347C175.794 13.249 175.062 13.7479 174.269 14.2323L173.43 13.5329C174.726 12.7861 175.766 12.0548 176.549 11.3359ZM179.277 8.34273L180.298 8.73461C180.047 9.34147 179.65 10.0224 179.11 10.7774L178.131 10.3289C178.69 9.53587 179.071 8.8745 179.277 8.34273ZM177.977 11.8399L178.831 11.2382C179.529 11.8357 180.247 12.6288 180.983 13.6162L180.074 14.1624C179.292 13.1369 178.592 12.3624 177.977 11.8399ZM178.494 5.61496L179.277 4.94434C179.68 5.21382 180.094 5.57896 180.524 6.03565L179.698 6.67953C179.232 6.19302 178.83 5.83713 178.494 5.61496ZM182.943 12.9188C182.44 12.1073 182.072 11.0983 181.837 9.89587C181.791 9.73747 181.763 9.58833 181.754 9.44741C181.519 9.84958 181.301 10.1561 181.097 10.3711L180.019 10.0913C181.148 8.7665 181.697 7.30593 181.669 5.71268V5.04205H182.773V5.71268C182.754 5.84331 182.74 5.98216 182.732 6.1313H186.747V7.1105H186.047V7.37587C186.047 9.41038 185.446 11.2937 184.242 13.0289C184.839 13.7839 185.717 14.6283 186.872 15.5612L185.74 16.1341C184.816 15.2876 184.089 14.5265 183.557 13.8548C182.754 14.7507 181.612 15.5767 180.129 16.3316L179.222 15.5047C180.723 14.8813 181.964 14.0184 182.943 12.9188ZM184.888 7.37587V7.11153H182.762C182.641 8.94136 182.93 10.5675 183.63 11.9952C184.413 10.7249 184.831 9.18616 184.888 7.37587Z" fill="#A06C58"/>
<path d="M191.512 10.9007V16.2739H190.293V11.1804C189.826 12.0393 189.337 12.7665 188.825 13.3641L187.689 12.9712C188.753 11.8521 189.552 10.6209 190.084 9.27656H187.97V8.24182H190.292V6.47885C189.704 6.54365 189.085 6.59611 188.431 6.63211L188.263 5.58297C190.314 5.43382 191.933 5.21577 193.119 4.92468L193.341 5.94605C192.772 6.08697 192.163 6.21245 191.511 6.32354V8.23976H193.525V9.2745H191.511V9.42879C192.341 10.2311 193.122 11.0704 193.861 11.9478L192.908 12.5762C192.508 12.0568 192.042 11.4983 191.512 10.9007ZM194.491 6.28342L195.428 5.62514C196.865 6.99622 197.701 7.8273 197.933 8.11736L196.953 8.70365C196.161 7.75325 195.339 6.94685 194.491 6.28342ZM193.89 9.25084L194.785 8.56582C195.952 9.5625 196.757 10.2959 197.206 10.7598L196.254 11.3903C195.629 10.7011 194.84 9.9873 193.89 9.25084ZM198.465 13.2499L193.091 14.0213L192.798 13.0133L198.465 12.2162V5.03783H199.683V12.0475L200.997 11.8521L201.191 12.8591L199.682 13.0833V16.2173H198.464L198.465 13.2499Z" fill="#A06C58"/>
<path d="M203.994 11.0992V8.33033H202.344V7.29353H203.994V5.08416H205.213V7.29353H206.556V8.33033H205.213V10.5119C205.556 10.3072 205.861 10.1303 206.12 9.97912L206.863 10.7917C206.415 11.0622 205.907 11.3307 205.339 11.6022C205.291 11.6207 205.25 11.6403 205.214 11.6588V15.086C205.202 15.5437 204.988 15.8934 204.57 16.1351C204.233 16.3316 203.543 16.2853 202.498 15.9963L202.582 14.9327C203.048 15.1014 203.393 15.195 203.617 15.2125C203.721 15.231 203.804 15.2125 203.868 15.1559C203.953 15.0911 203.995 14.9749 203.995 14.8062V12.1905C203.576 12.3582 203.15 12.5259 202.722 12.6935L202.051 11.8131C202.806 11.5528 203.452 11.3142 203.994 11.0992ZM210.724 14.2899C209.232 15.231 207.702 15.8697 206.133 16.2051L205.378 15.2691C207.226 14.8494 208.708 14.2991 209.828 13.6182C208.951 12.9188 208.06 12.0188 207.157 10.9182L208.149 10.3165C209.045 11.4541 209.887 12.3407 210.68 12.9743C211.726 12.0147 212.513 11.0447 213.046 10.0645C213.14 9.88758 213.088 9.80324 212.893 9.8125H207.212V8.77673H209.871V7.19684H206.654V6.16108H209.871V5.04199H211.089V6.16108H215.007V7.19684H211.089V8.77673H214.223L214.725 9.12747C214.706 9.15524 214.693 9.19227 214.685 9.23855C214.088 10.8997 213.057 12.3644 211.592 13.6316C212.599 14.2559 213.904 14.8257 215.511 15.339L214.685 16.275C213.255 15.7453 211.935 15.0829 210.724 14.2899Z" fill="#A06C58"/>
<path d="M229.361 13.0175C229.361 13.2037 229.248 13.2963 229.024 13.2963H223.764V16.2205H222.492V13.2963H217.16C216.945 13.2963 216.838 13.2027 216.838 13.0175V6.93147C216.848 6.74427 216.954 6.65067 217.16 6.65067H222.492V5.04199H223.764V6.64965H229.024C229.248 6.65993 229.361 6.75353 229.361 6.93045V13.0175ZM227.946 7.74199H223.764V12.2183H227.946C228.04 12.2183 228.086 12.1823 228.086 12.1083V7.8541C228.086 7.78004 228.04 7.74199 227.946 7.74199ZM222.491 7.74199H218.251C218.158 7.74199 218.111 7.78004 218.111 7.8541V12.1072C218.111 12.1813 218.158 12.2173 218.251 12.2173H222.491V7.74199Z" fill="#A06C58"/>
<path d="M231.763 6.89656L232.995 6.96547C233.041 9.18512 232.711 11.8059 232.002 14.8279L230.783 14.7034C231.474 11.485 231.8 8.88272 231.763 6.89656ZM234.255 5.81862H235.526V14.3259C235.526 14.5872 235.56 14.7538 235.625 14.8279C235.756 14.9688 235.988 15.0387 236.325 15.0387H239.404C239.811 15.0305 240.092 14.9266 240.242 14.7291C240.336 14.6191 240.4 14.4637 240.437 14.2673C240.473 14.0441 240.473 13.3272 240.437 12.1145L241.711 12.2821C241.785 13.5967 241.776 14.4915 241.682 14.9677C241.617 15.2557 241.5 15.4841 241.333 15.6538C241.109 15.8677 240.908 15.9984 240.731 16.0447C240.535 16.0909 240.228 16.1146 239.809 16.1146H235.779C235.415 16.1053 235.116 16.0405 234.883 15.9192C234.436 15.6404 234.226 15.1632 234.255 14.4915V5.81862ZM236.703 5.2169L237.906 4.99268C238.633 6.94284 239.141 9.33529 239.429 12.17L238.213 12.3387C237.849 9.33529 237.347 6.96136 236.703 5.2169ZM241.122 6.64456L242.311 6.4193C243.141 8.58341 243.731 11.2597 244.074 14.4504L242.857 14.6191C242.439 11.2597 241.859 8.60192 241.122 6.64456Z" fill="#A06C58"/>
</g>
<defs>
<clipPath id="clip0_994_993">
<rect width="312" height="46.8143" fill="white" transform="translate(0.5 0.368164)"/>
</clipPath>
</defs>
</svg>
