<svg width="250" height="92" viewBox="0 0 250 92" fill="none" xmlns="http://www.w3.org/2000/svg">
<path d="M90.3207 69.1805V66.2743C89.7145 66.3916 88.8292 66.5598 87.6639 66.7723C87.1409 66.8684 86.7601 66.9396 86.5227 66.9858L86.1133 64.597C86.3036 64.5739 86.6123 64.5323 87.0401 64.4704C87.1113 64.4593 87.1714 64.4538 87.2185 64.4538V55.1675H86.4875V52.8684H93.2445V55.1675H92.46V69.1805H90.3207ZM89.3227 56.7006H90.3207V55.1675H89.3227V56.7006ZM89.3227 60.3027H90.3207V58.7863H89.3227V60.3027ZM89.3227 64.1544L90.3207 63.9927V62.3894H89.3227V64.1544ZM101.731 61.4616C101.731 61.2592 101.701 60.9977 101.642 60.6761C101.107 60.7472 100.316 60.8369 99.2706 60.9441C98.7235 61.0152 98.3252 61.0624 98.0757 61.0855L98.0045 60.6761L96.721 61.0697C96.721 60.9274 96.7145 60.8138 96.7034 60.7306C96.6073 60.7435 96.4715 60.7537 96.2931 60.7666C94.6889 60.9441 93.5412 61.0624 92.8518 61.1224L92.6208 59.375L93.7084 59.3047C93.9459 58.96 94.249 58.4777 94.6177 57.8604C94.1779 57.2902 93.5837 56.672 92.8352 56.0057L93.8517 54.5087L94.1012 54.7046C94.4459 53.8258 94.7129 53.0052 94.9033 52.2446L96.9714 52.8499C96.7931 53.1466 96.526 53.6104 96.1693 54.2407C95.7535 54.9781 95.4568 55.4947 95.2785 55.7922C95.3496 55.8634 95.4448 55.9706 95.564 56.1147C95.8135 55.6277 96.0455 55.1324 96.2589 54.6334L98.0064 55.2396L98.5239 54.4015L98.8445 54.6334C99.1772 53.8609 99.4572 53.0662 99.6827 52.2446L101.804 52.8693C101.65 53.1299 101.413 53.5356 101.091 54.0827C100.628 54.8672 100.294 55.4254 100.093 55.758C100.2 55.8541 100.301 55.9549 100.396 56.0602C100.634 55.5742 100.859 55.0742 101.073 54.5632L103.034 55.2581C102.309 56.4114 101.632 57.451 101.002 58.3788L102.518 57.9149C103.04 59.0321 103.32 60.0375 103.355 60.9293L101.731 61.4616ZM94.6177 69.2868C94.5105 69.0373 94.3294 68.7397 94.0744 68.3951C93.8184 68.0504 93.5901 67.7898 93.3878 67.6096C94.4098 67.2307 95.0456 66.6605 95.2951 65.8981H94.8672V66.4508H93.0311V61.7083H94.8672V64.2034H95.4734V61.2453H97.5231V64.5795C97.5231 65.7438 97.3503 66.6587 97.0065 67.3249C96.5667 68.1936 95.7701 68.8488 94.6177 69.2868ZM98.0581 59.3047L98.5572 59.2687C98.9249 58.7105 99.217 58.2411 99.4304 57.8604C98.9545 57.219 98.3548 56.6119 97.6294 56.0417C96.8448 57.3013 96.1434 58.3464 95.5252 59.18L96.3818 59.1088C96.3338 58.9305 96.2506 58.6745 96.1314 58.3418L97.5933 57.9334C97.8086 58.4546 97.963 58.9111 98.0581 59.3047ZM98.0406 69.1805V61.2296H100.109V64.207H100.75V61.7111H102.657V66.4535H100.75V65.9009H100.109V69.1815L98.0406 69.1805ZM100.465 59.1439L101.25 59.0718C101.202 58.9184 101.119 58.6856 101 58.3769C100.88 58.5544 100.703 58.8094 100.465 59.1439Z" fill="white"/>
<path d="M108.433 69.1806V63.9733C108.23 65.6034 107.922 66.9221 107.506 67.9312C106.983 67.5995 106.335 67.2908 105.562 67.0053C105.978 66.0775 106.252 64.7043 106.383 62.8866L108.434 63.2424V62.103L105.955 62.2647L105.742 60.0358L107.096 59.9812C107.31 59.7077 107.524 59.4231 107.738 59.1246C107.215 58.329 106.549 57.537 105.741 56.7543L106.953 54.9708L107.274 55.2739C107.785 54.1927 108.178 53.1873 108.45 52.2595L110.679 53.082C110.632 53.1651 110.566 53.2936 110.483 53.4738C109.652 55.0309 109.051 56.1065 108.683 56.7007C108.79 56.8199 108.909 56.9678 109.04 57.1452C109.646 56.1472 110.139 55.2388 110.52 54.4182L112.606 55.3617C111.857 56.502 111.108 57.5841 110.359 58.6071L111.732 58.037C112.172 58.8224 112.552 59.6597 112.873 60.5514C113.931 60.1356 114.912 59.6181 115.814 58.9989C115.411 58.5951 115.03 58.1793 114.673 57.7505C114.198 58.2024 113.782 58.5655 113.426 58.8381C113.235 58.5526 112.974 58.2439 112.641 57.9122C112.284 57.5546 111.976 57.2931 111.714 57.1267C113.509 55.8773 114.792 54.2519 115.565 52.2419L118.061 52.6698C117.847 53.1457 117.68 53.5024 117.561 53.739H120.147L120.556 53.6484L122.143 54.5217C121.536 56.1158 120.639 57.5721 119.451 58.8917C120.567 59.5931 121.768 60.1513 123.052 60.5671C122.636 60.9247 122.19 61.4533 121.715 62.1538V69.0901H119.183V68.5199H115.938V69.1603H113.532V62.9032L113.425 62.9384C113.293 62.6889 113.115 62.3978 112.89 62.0651L111.445 62.7064C111.409 62.4199 111.35 62.1529 111.267 61.9043L110.678 61.9403V63.2239L112.194 62.7258C112.716 64.0454 113.079 65.1266 113.281 65.9712L111.392 66.6467C111.273 66.0886 111.035 65.2504 110.679 64.1332V69.1788L108.433 69.1806ZM109.36 59.9101L110.572 59.8556C110.536 59.7844 110.489 59.6781 110.43 59.5349C110.298 59.2373 110.203 59.023 110.144 58.8936C110.001 59.0839 109.793 59.351 109.52 59.6957C109.448 59.7909 109.395 59.862 109.36 59.9101ZM115.19 62.1556H120.289C119.35 61.6918 118.476 61.1632 117.668 60.569C116.848 61.1992 116.021 61.7287 115.19 62.1556ZM115.938 66.3113H119.183V64.3494H115.938V66.3113ZM117.542 57.5204C118.029 57.0214 118.445 56.4928 118.791 55.9337H116.241L116.152 56.0585C116.472 56.4752 116.936 56.9613 117.542 57.5204Z" fill="white"/>
<path d="M139.616 69.2519C138.452 69.2519 137.465 68.4082 136.658 66.7199C135.743 67.4232 134.732 68.0691 133.627 68.6642C133.199 67.9139 132.622 67.2143 131.898 66.561C133.289 65.9428 134.583 65.1628 135.785 64.2267C135.417 62.8701 135.131 61.3445 134.929 59.6441H131.577V61.2308L134.144 60.8214L134.321 63.1751C134.024 63.2342 133.57 63.3239 132.955 63.4422C132.343 63.5614 131.883 63.6519 131.575 63.7101V66.2412C131.575 66.9177 131.497 67.4361 131.342 67.7928C131.188 68.1726 130.914 68.4655 130.522 68.6651C129.869 68.9969 128.744 69.1651 127.153 69.1651C127.105 68.8075 126.985 68.3704 126.794 67.8455C126.618 67.3455 126.432 66.9112 126.242 66.5443C127.192 66.6026 127.955 66.6146 128.525 66.5785C128.692 66.5785 128.804 66.5536 128.862 66.4991C128.921 66.4445 128.953 66.3475 128.953 66.2052V64.2092L126.046 64.7433L125.439 62.1225C126.878 61.9331 128.048 61.7649 128.952 61.6226V59.6441H125.814V57.2017H128.952V55.6132C127.966 55.7555 127.096 55.8581 126.35 55.9163C126.23 55.1909 125.987 54.4673 125.619 53.741C128.423 53.4102 130.8 52.9269 132.75 52.2966L134.497 54.5089C133.749 54.7224 132.776 54.9488 131.575 55.1844V57.2017H134.694C134.564 55.5264 134.497 53.9193 134.497 52.3872H137.209C137.173 53.9452 137.222 55.5485 137.351 57.2017H142.04V59.6432H137.6C137.754 60.7133 137.891 61.5219 138.009 62.068C138.555 61.4156 139 60.7623 139.346 60.1071L141.629 61.0894C140.867 62.4321 139.899 63.7027 138.721 64.905C139.126 66.0453 139.511 66.6164 139.88 66.6164C140.189 66.6164 140.386 65.6655 140.47 63.7637C141.075 64.4309 141.776 64.929 142.571 65.2617C142.382 66.8419 142.06 67.9175 141.609 68.4877C141.21 68.996 140.544 69.2519 139.616 69.2519ZM139.974 56.9873C139.784 56.5817 139.445 56.0947 138.957 55.5254C138.516 55.0024 138.052 54.5145 137.567 54.0635L139.51 52.743C140.746 53.8131 141.596 54.7455 142.06 55.5411L139.974 56.9873Z" fill="white"/>
<path d="M146.713 69.1628V60.8201C146.463 61.1528 146.214 61.4744 145.963 61.783C145.857 61.4383 145.677 60.9689 145.429 60.3756C145.168 59.7444 144.942 59.2639 144.752 58.9303C145.429 58.1236 146.069 57.1246 146.668 55.9362C147.267 54.7479 147.752 53.5179 148.12 52.2463L150.51 52.9588L150.438 53.1556H155.378V60.1806H152.561V69.1314H150.171V53.9541C149.791 54.9881 149.458 55.8078 149.173 56.414V69.1619H146.713V69.1628ZM152.561 55.7561H153.452V55.0796H152.561V55.7561ZM152.561 58.2511H153.452V57.5562H152.561V58.2511ZM156.804 69.1259C156.755 68.7812 156.649 68.3589 156.482 67.8608C156.327 67.3839 156.16 66.981 155.982 66.6474C156.993 66.7186 157.861 66.7371 158.586 66.7029C158.753 66.7029 158.872 66.6705 158.942 66.6049C159.014 66.5412 159.049 66.4238 159.049 66.2575V60.1778H156.019V53.1519H161.51V66.2926C161.51 66.97 161.432 67.4819 161.277 67.8257C161.123 68.1935 160.849 68.4735 160.457 68.6629C160.076 68.8523 159.577 68.9845 158.959 69.0566C158.474 69.1028 157.755 69.1259 156.804 69.1259ZM158.034 55.7561H159.051V55.0796H158.034V55.7561ZM158.034 58.2511H159.051V57.5562H158.034V58.2511Z" fill="white"/>
<path d="M44.6426 39.6957C44.6426 39.6541 44.6426 39.6107 44.6435 39.5681C44.6897 39.5293 44.7294 39.472 44.7914 39.4665C45.8226 39.3796 46.8521 39.2817 47.8843 39.2031C47.9638 39.1967 48.0359 39.2558 48.0959 39.3112C47.7124 39.6772 47.1543 39.4342 46.7421 39.6957C46.0426 39.6957 45.343 39.6957 44.6426 39.6957Z" fill="#FFF"/>
<path d="M214.999 20.5113C214.952 20.5094 214.904 20.5076 214.857 20.5048C214.664 20.0363 214.433 19.5743 214.606 19.0438C214.931 19.1843 214.782 19.5761 215.001 19.7729C214.999 20.0206 214.999 20.2655 214.999 20.5113Z" fill="#FFF"/>
<path d="M197.126 17.7177C197.248 19.4449 197.086 21.1748 197.181 22.9047C197.25 24.1661 197.053 25.4404 197.081 26.7055C197.111 28.1462 197.019 29.5739 196.703 30.9683C196.129 33.5152 195.259 35.9538 193.024 37.5692C191.096 38.9609 188.939 39.8323 186.515 39.8923C185.434 39.9191 184.345 40.1114 183.27 39.7851C181.83 39.3471 180.451 38.8315 179.257 37.851C178.119 36.9168 177.134 35.8753 176.669 34.4845C176.221 33.14 175.711 31.8185 175.662 30.3418C175.586 27.9715 175.636 25.616 175.969 23.2716C176.073 22.524 176.247 21.7912 176.219 21.0278C176.197 20.3967 176.553 19.8533 176.71 19.2619C176.943 18.3729 177.042 17.4562 177.323 16.5765C177.488 16.0599 177.701 15.5831 178.036 15.1589C178.556 14.4982 179.326 14.2459 180.065 14.4853C180.668 14.6821 181.115 15.3363 181.152 16.1301C181.207 17.3111 181.205 18.4968 181.299 19.674C181.437 21.4271 181.5 23.1791 181.535 24.9377C181.57 26.6473 181.455 28.3735 181.654 30.0618C181.895 32.1078 182.826 33.907 185.076 34.5446C185.984 34.8006 186.894 35.0593 187.801 35.319C188.629 35.5574 189.336 35.3264 189.947 34.7581C190.276 34.4494 190.59 34.1241 190.968 33.8691C191.119 33.7674 191.257 33.639 191.293 33.4385C191.564 31.9174 191.92 30.4102 191.573 28.842C191.438 28.2312 191.588 27.5871 191.579 26.955C191.56 25.5032 191.293 24.0774 191.252 22.6228C191.202 20.8412 191.038 19.0484 190.629 17.2843C190.222 15.5212 191.516 13.7201 193.273 13.4004C194.473 13.1832 196.203 14.2053 196.694 15.4435C196.845 15.8224 196.97 16.2179 197.047 16.6171C197.114 16.9757 197.104 17.3509 197.126 17.7177Z" fill="#FFF"/>
<path d="M48.0972 39.3109C46.9541 39.5004 45.8045 39.6067 44.6439 39.5679C44.0349 39.4828 43.4194 39.4246 42.8169 39.3073C41.0787 38.969 39.7221 38.1263 38.6816 36.6228C37.7621 35.2948 36.7447 34.0344 35.9583 32.6159C35.4926 31.7749 35.2791 30.8629 35.2486 29.912C35.2199 28.974 34.9982 28.0629 35 27.112C35.0083 24.5393 35.8354 22.2752 37.2557 20.1665C37.9996 19.0622 38.6798 17.9191 39.6926 17.0245C40.1583 16.6133 40.6518 16.2594 41.2561 16.0746C41.3911 16.0339 41.5703 15.9969 41.6396 15.8971C42.4547 14.7097 43.7318 14.1303 45.0154 13.9242C47.296 13.5592 49.6747 13.0759 51.7927 14.6043C53.2703 15.6707 54.1482 17.141 54.3349 18.9217C54.443 19.9521 54.0318 20.9288 52.8988 21.3114C51.9793 21.6238 50.8252 21.1599 50.2679 20.3014C49.9223 19.7691 49.5499 19.2534 49.1849 18.736C48.9788 18.4421 48.7053 18.2064 48.3597 18.1205C47.4078 17.8839 46.4579 17.6095 45.4746 18.0336C44.8684 18.2952 44.2253 18.4088 43.5562 18.4365C42.6386 18.4717 41.2774 19.7682 41.1184 20.8392C41.0103 21.5702 40.868 22.3067 40.6462 22.9868C40.3173 23.9941 40.3847 24.9459 40.5474 25.9421C40.7396 27.123 40.5963 28.3475 41.0519 29.5026C41.2543 30.0145 41.4151 30.5441 41.659 31.0403C41.9122 31.5569 42.208 32.0707 42.293 32.6344C42.5203 34.1416 43.3917 34.8882 44.886 34.8198C45.7824 34.7792 46.7425 34.7967 47.4014 33.9586C47.7535 33.5113 48.1758 33.1306 48.4872 32.6334C49.0453 31.7472 49.9214 31.4377 50.9453 31.5929C51.9544 31.7454 52.6992 32.2601 53.0494 33.2544C53.5438 34.66 52.9977 35.7957 52.1448 36.875C51.0987 38.1993 49.5943 38.7436 48.0972 39.3109Z" fill="#FFF"/>
<path d="M150.681 24.4477C150.559 24.4477 150.432 24.4311 150.312 24.4514C149.469 24.5919 148.827 24.0217 148.689 23.3647C148.557 22.7308 149.003 21.9749 149.718 21.6394C150.277 21.376 150.873 21.2153 151.475 21.0887C152.072 20.963 152.324 20.6488 152.272 20.0112C152.206 19.1702 152.394 18.3432 152.632 17.5355C152.684 17.3608 152.755 17.1843 152.849 17.0291C153.348 16.2224 153.851 15.9119 154.48 16.093C155.397 16.3573 155.768 17.1391 155.886 17.9513C155.989 18.6537 156.297 19.3282 156.202 20.0648C156.153 20.4279 156.433 20.3679 156.664 20.3346C157.498 20.2145 158.339 20.171 159.18 20.2459C160.432 20.3568 161.362 21.2855 161.368 22.4193C161.373 23.4728 160.222 24.6279 159.075 24.6982C158.278 24.7471 157.477 24.7665 156.677 24.8017C156.456 24.8118 156.199 24.7739 156.208 25.126C156.261 27.5093 156.242 29.8944 156.986 32.2083C157.393 33.4743 157.633 33.3523 158.826 33.2692C160.493 33.1527 161.344 34.0907 160.947 35.7577C160.497 37.6549 158.608 38.7398 156.558 38.3304C154.177 37.8545 152.847 36.3214 152.11 34.1304C151.914 33.5482 151.748 32.9651 151.613 32.3645C151.401 31.4358 151.639 30.5274 151.679 29.6162C151.716 28.7365 151.734 27.8567 151.737 26.9788C151.739 26.38 151.85 25.8006 151.907 25.212C151.961 24.6399 151.808 24.3489 151.177 24.4653C151.017 24.4949 150.85 24.4699 150.683 24.4699C150.681 24.4634 150.681 24.4561 150.681 24.4477Z" fill="#FFF"/>
<path d="M78.1543 34.3005C78.4888 32.1243 78.572 29.9092 79.0728 27.7579C79.2235 27.1138 79.2688 26.4929 79.242 25.8303C79.2161 25.1963 79.5266 24.5864 79.9822 24.1262C80.8702 23.2271 82.0069 23.6208 82.3645 24.9672C82.4939 25.4542 82.5706 25.4329 83.0187 25.2231C85.4953 24.0625 88.0541 23.7899 90.5224 25.1529C91.5555 25.7231 92.2772 26.783 92.792 27.8522C93.3936 29.1025 93.8916 30.436 93.9286 31.8378C93.9554 32.8377 94.0543 33.8265 94.1217 34.8217C94.2742 37.0793 91.927 38.6142 89.8672 37.6245C88.5975 37.0146 88.4016 35.8826 88.4607 34.6665C88.5568 32.6667 88.6151 30.667 88.5374 28.6663C88.4931 27.5251 88.1558 27.3208 87.1892 27.3384C85.6838 27.3643 84.4603 27.9067 83.3163 28.8049C82.9051 29.1274 82.7849 29.4805 82.809 29.9665C82.9042 31.8766 82.9134 33.7904 82.8173 35.6996C82.7517 36.9906 81.5744 37.8943 80.1781 37.8047C78.986 37.7289 77.9954 36.5313 78.049 35.2145C78.06 34.9104 78.1173 34.6055 78.1543 34.3005Z" fill="#FFF"/>
<path d="M99.5064 26.7376C99.499 26.2377 99.3077 25.6148 99.4879 24.9791C99.5831 24.6455 99.3668 24.4976 99.0499 24.4653C98.6627 24.4237 98.2681 24.407 97.891 24.3192C97.2026 24.1603 96.7073 23.5809 96.6583 22.9479C96.6093 22.3158 97.0122 21.692 97.6979 21.4314C98.2533 21.2217 98.8272 21.06 99.3983 20.9001C99.7134 20.8114 99.9121 20.6497 99.9084 20.3105C99.901 19.5287 100.224 18.7959 100.224 18.0114C100.224 17.3192 100.734 16.7038 101.384 16.4912C102.047 16.275 102.714 16.6483 102.911 17.3534C103.11 18.0659 103.241 18.7904 103.189 19.5334C103.161 19.9335 103.303 20.1044 103.722 20.0268C104.512 19.8817 105.316 19.9196 106.113 19.9058C107.281 19.8864 108.115 20.572 108.328 21.6421C108.495 22.4821 107.989 23.4792 107.203 23.8369C106.52 24.1464 105.787 24.2444 105.049 24.3239C104.805 24.3488 104.564 24.4015 104.319 24.4209C103.914 24.4551 103.891 24.6371 103.903 25.0299C103.961 26.9335 103.923 28.8399 103.971 30.7445C103.992 31.5891 103.941 32.4818 104.701 33.1296C105.032 33.4114 105.328 33.5519 105.805 33.4724C106.765 33.3135 107.645 33.6378 108.185 34.4381C108.628 35.0942 108.658 35.9167 108.188 36.5931C107.518 37.5569 106.597 38.1992 105.361 38.2204C103.468 38.2528 102.057 37.4451 100.947 35.9019C99.6884 34.1507 99.4241 32.2175 99.4297 30.1549C99.4306 29.0589 99.4278 27.963 99.5064 26.7376Z" fill="#FFF"/>
<path d="M132.252 31.2956C132.156 28.7155 133.092 26.4635 134.707 24.5312C135.476 23.6117 136.392 22.6636 137.608 22.342C139.147 21.9345 140.63 21.9742 141.999 23.145C143.058 24.0525 143.656 25.0283 143.623 26.4006C143.604 27.2619 142.954 28.016 142.102 28.1601C141.182 28.3154 140.525 27.9309 140.234 26.9763C140.073 26.4533 139.582 26.262 139.29 25.8739C139.169 25.7131 138.986 25.9238 138.887 26.0347C138.136 26.8784 137.489 27.7859 137.181 28.8901C137.143 29.0269 137.148 29.1803 137.089 29.3078C136.507 30.5766 136.78 31.8149 137.187 33.0606C137.729 34.711 138.609 35.1287 140.128 34.2795C141.113 33.7269 141.995 33.8128 142.932 34.2832C143.683 34.6611 143.999 35.3634 143.775 36.1785C143.224 38.1856 141.983 39.009 139.897 39.3786C136.297 40.0163 133.348 37.1331 132.614 34.018C132.487 33.482 132.341 32.946 132.26 32.4008C132.207 32.0404 132.252 31.6643 132.252 31.2956Z" fill="#FFF"/>
<path d="M214.196 29.5552C213.477 27.7616 212.175 26.6499 210.249 26.3495C209.515 26.2359 208.815 26.0048 208.089 25.8635C207.525 25.7526 207.125 25.3072 206.949 24.7472C206.586 23.5902 206.517 22.4184 206.904 21.2476C207.254 20.1895 208.615 19.4207 209.705 19.6535C210.024 19.7219 210.266 19.8827 210.44 20.1627C210.645 20.4926 210.862 20.816 211.105 21.1228C211.872 22.0922 213.876 22.473 214.548 20.7837C214.601 20.6497 214.672 20.5222 214.817 20.4621C214.832 20.4593 214.842 20.463 214.855 20.463C214.896 19.9696 214.682 19.5186 214.604 19.0436C214.19 18.248 213.712 17.4486 212.783 17.2481C212.059 17.0919 211.364 16.8452 210.644 16.69C209.908 16.5329 209.167 16.495 208.448 16.6863C206.824 17.1197 205.373 17.7998 204.18 19.0908C203.303 20.0417 202.746 21.0332 202.762 22.2928C202.774 23.1827 202.712 24.067 202.86 24.9726C203.101 26.4484 203.643 27.7227 204.754 28.7115C205.568 29.4351 206.451 30.1106 207.628 30.0875C208.446 30.0709 209.185 30.4303 209.982 30.5172C210.219 30.544 210.518 30.7048 210.336 31.08C209.792 32.1963 208.299 32.6703 207.212 32.0789C206.949 31.9357 206.79 31.6945 206.583 31.4986C205.675 30.6392 204.053 30.3703 203.026 30.9155C201.844 31.543 201.349 32.6278 201.636 34.0898C201.931 35.5868 202.761 36.6033 204.195 37.3038C206.48 38.4192 208.744 38.3896 210.975 37.4221C212.408 36.802 213.57 35.8252 214.155 34.2016C214.648 32.8348 215.023 31.5393 214.598 30.1115C214.28 30.057 214.284 29.7733 214.196 29.5552Z" fill="#FFF"/>
<path d="M214.432 29.7866C213.915 28.0142 212.716 26.8978 210.994 26.3406C210.202 26.0846 209.366 25.9386 208.541 25.8046C207.744 25.6743 207.271 25.2631 207.029 24.4989C206.809 23.7994 206.83 23.0795 206.812 22.3753C206.781 21.1121 207.627 20.103 208.822 19.8036C209.621 19.603 210.024 19.798 210.657 20.8145C211.251 21.7645 212.086 22.2145 213.189 22.1092C214.146 22.0177 214.548 21.296 214.855 20.5059C214.857 20.4902 214.853 20.4772 214.855 20.4634C214.841 20.4634 214.831 20.4597 214.817 20.4624C214.671 20.5216 214.601 20.65 214.546 20.784C213.875 22.4733 211.871 22.0925 211.104 21.1232C210.861 20.8164 210.645 20.4929 210.439 20.163C210.266 19.883 210.024 19.7222 209.704 19.6539C208.613 19.421 207.253 20.1898 206.903 21.2479C206.516 22.4197 206.585 23.5905 206.948 24.7475C207.124 25.3075 207.524 25.7529 208.089 25.8638C208.813 26.0052 209.514 26.2362 210.248 26.3499C212.174 26.6502 213.473 27.761 214.195 29.5555C214.284 29.7736 214.28 30.0573 214.598 30.1119C214.543 30.0037 214.468 29.9012 214.432 29.7866Z" fill="#FFF"/>
<path d="M127.987 33.6083C127.74 33.2719 127.605 32.9032 127.502 32.4966C127.198 31.3137 126.844 30.1383 126.479 28.9758C126.111 27.8059 125.748 26.6369 125.479 25.442C125.153 23.9968 124.068 23.4007 122.669 23.86C121.832 24.1354 120.985 24.3119 120.047 23.9857C119.162 23.6752 118.178 23.6964 117.281 24.1261C116.008 24.736 115.093 25.6805 114.357 26.903C113.03 29.1079 112.564 31.4949 112.597 33.9973C112.621 35.8224 113.572 37.1605 115.148 38.0587C116.489 38.8239 117.885 39.0161 119.417 38.6455C120.963 38.2703 122.467 37.9109 123.404 36.3519C123.548 36.6023 123.623 36.7474 123.709 36.8823C124.418 38.0051 125.597 38.4977 126.712 38.1419C128.075 37.7066 128.763 36.7049 128.651 35.3049C128.599 34.6738 128.356 34.1138 127.987 33.6083ZM122.065 33.0141C121.946 33.3846 121.448 33.149 121.133 33.2913C120.569 33.5491 120.053 33.8726 119.544 34.2209C118.792 34.732 117.97 34.6617 117.192 34.3512C116.573 34.1045 116.443 33.5297 116.52 33.1573C116.587 31.2158 117.079 29.6421 117.878 28.1727C118.262 27.4667 119.083 27.4131 119.777 27.3318C121.494 27.1294 121.423 27.0065 121.354 28.6949C121.311 29.7539 121.797 30.6826 121.907 31.6945C121.915 31.7758 121.95 31.8534 121.961 31.9338C122.009 32.297 122.167 32.698 122.065 33.0141Z" fill="#FFF"/>
<path d="M72.7517 27.9401C72.2148 26.5826 71.3452 25.5079 69.9923 24.8684C69.6782 24.7197 69.3418 24.5866 69.0729 24.3759C68.3123 23.7799 67.4622 23.5877 66.4688 23.7207C65.5548 23.6246 64.6649 23.9693 63.7418 24.1578C62.6486 24.3814 61.6394 24.6365 60.7098 25.3397C59.3458 26.372 58.8496 27.771 58.6602 29.3429C58.6241 29.6386 58.6223 29.9399 58.5456 30.2365C58.1242 31.8555 58.2822 33.3646 59.2608 34.7914C59.6942 35.4225 60.3097 35.8116 60.8096 36.3328C61.7355 37.2994 62.9895 37.5027 64.1225 37.9925C64.4302 38.1255 64.7675 38.0525 65.0946 38.059C65.6759 38.0729 66.259 37.8825 66.8421 38.1394C68.0924 38.6911 69.2956 38.5571 70.3906 37.7448C70.9663 37.3188 71.4755 36.8041 72.0401 36.3624C73.198 35.4549 73.7663 34.1907 73.8994 32.8166C74.0334 31.436 73.7414 30.0526 73.1564 28.7635C73.0317 28.4854 72.8663 28.2294 72.7517 27.9401ZM65.979 33.4256C64.7416 33.4487 63.6771 32.9062 62.6772 32.1346C61.8732 31.5136 61.9241 30.6265 62.0119 29.8466C62.1255 28.8393 62.4684 27.771 63.4867 27.2942C64.3092 26.9089 65.1963 26.5032 66.1749 26.7453C66.3958 26.8007 66.588 26.9273 66.7414 27.0992C67.4945 27.9457 68.1386 28.8532 68.4657 29.9574C68.9638 31.631 67.5638 33.4635 65.979 33.4256Z" fill="#FFF"/>
</svg>
