<?xml version="1.0" encoding="utf-8"?>
<!-- Generator: Adobe Illustrator 16.0.0, SVG Export Plug-In . SVG Version: 6.00 Build 0)  -->
<!DOCTYPE svg PUBLIC "-//W3C//DTD SVG 1.1//EN" "http://www.w3.org/Graphics/SVG/1.1/DTD/svg11.dtd">
<svg version="1.1" id="圖層_1" xmlns="http://www.w3.org/2000/svg" xmlns:xlink="http://www.w3.org/1999/xlink" x="0px" y="0px"
	 width="42.52px" height="42.52px" viewBox="-2.835 -2.835 42.52 42.52" enable-background="new -2.835 -2.835 42.52 42.52"
	 xml:space="preserve">
<g>
	<g>
		<path fill="#FFFFFF" d="M35.168,15.284c-0.026-1.244,0.027-2.487-0.035-3.732c-0.031-0.614-0.133-1.223-0.11-1.85
			c0.02-0.534-0.086-1.094-0.095-1.641c-0.009-0.432-0.122-0.801-0.423-1.097c-0.355-0.352-0.777-0.752-1.236-0.787
			c-0.931-0.07-1.867-0.323-2.811-0.08c-0.065,0.019-0.146-0.001-0.216-0.015c-0.489-0.089-0.979-0.085-1.455,0.048
			c-0.779,0.22-1.582,0.195-2.366,0.181c-1.478-0.025-2.949-0.184-4.431-0.087c-0.401,0.026-0.819,0.133-1.205,0.021
			c-0.777-0.231-1.563-0.081-2.332-0.061c-0.963,0.027-1.93,0.11-2.896,0.104c-0.988-0.006-1.978-0.068-2.966-0.062
			c-1.977,0.021-3.938,0.323-6.1,0.365C5.536,6.716,4.365,6.635,3.259,6.974c-0.792,0.243-1.104,0.465-1.12,1.201
			C2.131,8.502,2.137,8.833,2.108,9.161c-0.105,1.227-0.143,2.457-0.08,3.687c0.057,1.111,0.007,2.224,0.031,3.334
			c0.02,0.822-0.055,1.654-0.066,2.484c-0.019,1.137,0.1,2.263,0.135,3.394c0.039,1.205,0.098,2.41,0.173,3.614
			c0.078,1.232-0.13,2.477,0.202,3.705c0.174,0.646,0.768,1.365,1.439,1.479c1.13,0.193,2.248,0.38,3.416,0.336
			c1.442-0.052,2.871-0.234,4.31-0.319c1.209-0.071,2.418-0.042,3.626-0.073c0.42-0.012,0.826,0.107,1.236,0.113
			c1.284,0.021,2.569-0.021,3.854,0.006c0.799,0.016,1.579-0.144,2.371-0.156c0.687-0.014,1.377,0.029,2.055-0.048
			c0.781-0.089,1.564-0.068,2.345-0.085c0.854-0.02,1.709-0.024,2.563-0.11c0.833-0.083,1.667-0.146,2.505-0.144
			c0.568,0.003,1.126,0.191,1.709,0.055c0.441-0.105,0.864-0.438,0.874-0.858c0.013-0.62,0.135-1.233,0.16-1.845
			c0.063-1.427,0.198-2.854,0.104-4.286c-0.083-1.259-0.008-2.518,0.031-3.774C35.145,18.208,35.201,16.745,35.168,15.284z
			 M33.628,25.388c-0.059,0.893,0.016,1.782-0.063,2.667c-0.03,0.356-0.143,0.713-0.18,1.075c-0.017,0.144-0.146,0.155-0.247,0.18
			c-0.321,0.079-0.646,0.142-0.979,0.133c-1.39-0.165-2.755,0.153-4.134,0.19c-0.989,0.027-1.98,0.021-2.97,0.073
			c-1.206,0.063-2.411,0.062-3.618,0.054c-2.142-0.015-4.28,0.016-6.421,0.041c-1.571,0.019-3.142,0.011-4.71-0.016
			C8.82,29.76,7.332,29.676,5.85,29.576c-0.616-0.042-1.241-0.103-1.829-0.339c-0.22-0.089-0.325-0.213-0.331-0.463
			c-0.027-1.207-0.044-2.412-0.151-3.619c-0.051-0.559,0.027-1.145-0.035-1.713c-0.093-0.824-0.063-1.654-0.106-2.48
			c-0.057-1.08,0.06-2.17,0.125-3.254c0.045-0.732,0.027-1.467,0.079-2.197c0.061-0.866,0.042-1.728,0.032-2.593
			c-0.015-1.551,0.084-3.103,0.038-4.652C3.66,7.902,3.8,7.758,4.155,7.836c0.602,0.131,1.193-0.005,1.788-0.013
			c0.741-0.009,1.481-0.028,2.225-0.042c0.361-0.008,0.733-0.029,1.088-0.09c0.653-0.106,1.315-0.138,1.967-0.164
			c1.043-0.04,2.09-0.084,3.138-0.072c0.925,0.009,1.851-0.079,2.776,0.008c0.607,0.057,1.22,0.05,1.826,0.136
			c0.601,0.084,1.197-0.019,1.784-0.13c0.652-0.124,1.313-0.11,1.97-0.127c1.442-0.038,2.886-0.039,4.327-0.036
			c0.806,0.001,1.605,0.077,2.405,0.172c0.868,0.104,1.734-0.027,2.602-0.05c0.322-0.008,0.636,0.023,0.949,0.058
			c0.224,0.025,0.331,0.193,0.332,0.415c0.006,1.553,0.146,3.098,0.188,4.646c0.021,0.842-0.015,1.686-0.018,2.529
			c-0.003,0.839-0.049,1.682,0.018,2.515c0.122,1.55-0.027,3.103,0.08,4.648C33.676,23.291,33.697,24.343,33.628,25.388z"/>
		<path fill="#FFFFFF" d="M20.921,14.654c-0.441-0.83-1.524-1.147-2.324-0.914c-0.568,0.167-1.038,0.542-1.336,1.088
			c-0.085,0.151-0.165,0.316-0.402,0.412c0.071-0.532-0.045-1-0.106-1.471c-0.063-0.482-0.259-0.898-0.628-1.25
			c-0.876-0.829-2.023-1.029-3.101-1.404c-0.508-0.178-1.042-0.103-1.562-0.188c-0.683-0.114-1.349,0.037-1.936,0.409
			c-0.274,0.175-0.488,0.442-0.757,0.633c-0.54,0.381-0.83,0.906-1.003,1.529c-0.294,1.057-0.28,2.133-0.197,3.205
			c0.049,0.617,0.192,1.234,0.679,1.732c-0.416,0.338-0.761,0.724-1.105,1.103c-0.473,0.517-0.814,1.071-0.958,1.805
			c-0.234,1.21-0.337,2.42-0.323,3.644c0.012,0.913,0.527,1.429,1.265,1.252c0.615-0.146,1.271-0.093,1.854-0.383
			c0.099-0.049,0.155,0.039,0.229,0.074c0.354,0.165,0.713,0.299,1.104,0.369c0.822,0.149,1.648,0.087,2.475,0.1
			c1.466,0.023,2.934,0.016,4.399,0.014c0.375,0,0.729-0.086,1.03-0.324c0.257-0.203,0.364-0.47,0.284-0.781
			c-0.052-0.206-0.063-0.41-0.058-0.617c0.037-1.034,0.029-2.061-0.604-2.95c-0.172-0.239-0.101-0.393,0.068-0.566
			c0.585-0.607,1.141-1.244,1.754-1.82c0.947-0.891,1.436-2.013,1.746-3.234c0.028-0.113,0.001-0.242-0.002-0.363
			C21.401,15.316,21.106,15.001,20.921,14.654z M20.001,15.959c-0.507,0.624-0.813,1.358-1.146,2.078
			c-0.106,0.229-0.243,0.448-0.425,0.586c-0.507,0.378-0.855,0.9-1.322,1.316c-0.354,0.315-0.558,0.767-0.86,1.134
			c-0.197,0.238-0.135,0.546,0.081,0.774c0.735,0.784,0.646,1.742,0.586,2.696c-0.015,0.214-0.149,0.283-0.323,0.25
			c-0.827-0.158-1.664-0.025-2.488-0.021c-0.84,0.007-1.679-0.094-2.522-0.037c-0.544,0.037-1.117,0.037-1.675-0.072
			c-0.203-0.041-0.187-0.166-0.197-0.286c-0.059-0.583-0.112-1.167-0.15-1.751c-0.013-0.173-0.046-0.338-0.08-0.505
			s-0.098-0.313-0.283-0.344c-0.192-0.029-0.346,0.073-0.429,0.229c-0.11,0.203-0.224,0.421-0.258,0.644
			C8.41,23.3,8.34,23.956,8.281,24.61c-0.016,0.177-0.032,0.263-0.235,0.275c-0.341,0.025-0.68,0.084-1.019,0.137
			c-0.234,0.037-0.31-0.06-0.284-0.286c0.019-0.169,0.003-0.342,0.003-0.513c-0.016-0.578,0.075-1.146,0.146-1.716
			c0.064-0.524,0.436-0.893,0.715-1.302c0.489-0.72,1.133-1.308,1.678-1.979c0.311-0.383,0.346-0.925,0.006-1.301
			c-0.333-0.367-0.501-0.781-0.545-1.251c-0.075-0.79-0.17-1.601,0.207-2.337c0.411-0.808,1.061-1.4,1.915-1.729
			c0.613-0.233,1.24-0.436,1.904-0.49c0.139-0.013,0.269-0.029,0.391,0.049c0.273,0.173,0.59,0.234,0.894,0.33
			c0.923,0.281,1.239,0.75,1.243,1.716c0.005,0.967-0.216,1.884-0.49,2.795c-0.095,0.311-0.126,0.626-0.102,0.944
			c0.033,0.423,0.281,0.522,0.692,0.479c0.637-0.07,0.834-0.576,1.183-0.97c0.627-0.712,1.097-1.554,1.808-2.195
			c0.082-0.074,0.151-0.17,0.246-0.219c0.299-0.155,0.604-0.4,0.955-0.236c0.357,0.169,0.34,0.594,0.479,0.909
			C20.101,15.796,20.058,15.889,20.001,15.959z"/>
		<path fill="#FFFFFF" d="M29.077,24.236c-0.479,0.105-0.938-0.067-1.413-0.023c-0.313,0.029-0.643,0.091-0.938,0.052
			c-0.661-0.087-1.283,0.074-1.917,0.17c-0.356,0.054-0.516,0.37-0.393,0.706c0.14,0.378,0.463,0.596,0.912,0.618
			c0.534,0.027,1.069-0.13,1.531-0.01c0.719-0.058,1.363-0.1,2.008-0.161c0.151-0.017,0.313-0.075,0.443-0.158
			c0.292-0.186,0.372-0.48,0.308-0.803C29.562,24.346,29.321,24.183,29.077,24.236z"/>
		<path fill="#FFFFFF" d="M29.088,21.279c-0.618-0.148-1.238-0.052-1.857-0.02c-0.703,0.036-1.39,0.323-2.029,0.151
			c-0.249,0-0.423,0.004-0.584,0.065c-0.298,0.116-0.522,0.306-0.479,0.652c0.041,0.334,0.276,0.505,0.602,0.546
			c0.146,0.018,0.295,0.02,0.439,0.011c0.305-0.019,0.61-0.084,0.912-0.066c1.021,0.055,2.021-0.105,3.026-0.237
			c0.314-0.041,0.559-0.188,0.546-0.527C29.65,21.518,29.403,21.356,29.088,21.279z"/>
		<path fill="#FFFFFF" d="M25.25,12.011c0.048,0,0.158,0.004,0.27-0.001c0.472-0.023,0.76-0.257,0.771-0.621
			c0.013-0.337-0.379-0.758-0.767-0.752c-0.39,0.006-0.787,0.01-1.161,0.144c-0.287,0.104-0.483,0.319-0.468,0.635
			c0.018,0.306,0.235,0.46,0.528,0.526C24.676,12.001,24.928,12.045,25.25,12.011z"/>
		<path fill="#FFFFFF" d="M28.972,10.678c-0.249-0.015-0.499,0.081-0.73,0.225c-0.191,0.118-0.3,0.29-0.263,0.524
			c0.037,0.233,0.194,0.368,0.408,0.424c0.188,0.05,0.383,0.079,0.577,0.092c0.449,0.03,0.789-0.234,0.807-0.613
			C29.788,10.951,29.466,10.679,28.972,10.678z"/>
	</g>
</g>
</svg>
