<?xml version="1.0" encoding="utf-8"?>
<!-- Generator: Adobe Illustrator 16.0.0, SVG Export Plug-In . SVG Version: 6.00 Build 0)  -->
<!DOCTYPE svg PUBLIC "-//W3C//DTD SVG 1.1//EN" "http://www.w3.org/Graphics/SVG/1.1/DTD/svg11.dtd">
<svg version="1.1" id="圖層_1" xmlns="http://www.w3.org/2000/svg" xmlns:xlink="http://www.w3.org/1999/xlink" x="0px" y="0px"
	 width="42.52px" height="42.52px" viewBox="-2.835 -2.835 42.52 42.52" enable-background="new -2.835 -2.835 42.52 42.52"
	 xml:space="preserve">
<g>
	<g>
		<path fill="#FFFFFF" d="M34.677,26.073c-0.395-0.739-0.794-1.479-1.151-2.237c-0.865-1.844-1.518-3.777-2.23-5.682
			c-0.41-1.092-0.611-2.247-0.949-3.356c-0.365-1.201-0.594-2.424-0.849-3.646c-0.129-0.619-0.24-1.248-0.313-1.871
			c-0.076-0.67-0.118-1.354-0.1-2.036c0.021-0.779-0.503-1.373-1.222-1.627c-0.713-0.255-1.434-0.404-2.182-0.412
			c-0.521-0.006-1.058-0.163-1.556-0.021c-0.968,0.277-1.955,0.198-2.922,0.172c-0.853-0.021-1.713-0.073-2.563-0.102
			c-1.811-0.059-3.625-0.05-5.438-0.066c-0.768-0.007-1.5-0.171-2.241-0.31c-0.754-0.144-1.499-0.338-2.252-0.485
			C8.333,4.319,8.02,4.457,7.848,4.823C7.776,4.976,7.675,5.092,7.535,5.18c-0.71,0.453-1.401,0.941-2.071,1.444
			c-0.807,0.604-1.652,1.141-2.5,1.678C2.78,8.418,2.592,8.557,2.351,8.552c-0.3-0.007-0.493,0.14-0.583,0.424
			c0,0.252,0.001,0.505,0.001,0.757c0.079,0.913,0.169,1.825,0.233,2.739c0.038,0.529,0.086,1.066,0.038,1.591
			c-0.073,0.804-0.12,1.604-0.12,2.405c0.001,1.242,0.001,2.484,0.023,3.727c0.027,1.435,0.243,2.841,0.448,4.252
			c0.1,0.677,0.199,1.351,0.271,2.027c0.098,0.91,0.119,1.832,0.266,2.732c0.151,0.928,0.257,1.864,0.487,2.778
			c0.145,0.578,0.665,0.968,1.254,0.959c0.49-0.008,0.861-0.301,1.282-0.471c0.171-0.07,0.314-0.088,0.492-0.002
			c0.8,0.391,1.614,0.543,2.462,0.141c0.146-0.067,0.305-0.147,0.464-0.067c0.381,0.188,0.758,0.078,1.131-0.004
			c0.389-0.084,0.646-0.468,0.588-0.832c-0.057-0.363-0.378-0.584-0.807-0.549c-0.161,0.012-0.33,0.081-0.479,0.018
			c-0.452-0.193-0.877-0.066-1.309,0.063c-0.404,0.121-0.806,0.236-1.237,0.113c-0.59-0.168-1.176-0.238-1.789-0.026
			c-0.347,0.12-0.475-0.037-0.549-0.445c-0.083-0.463-0.075-0.955-0.276-1.383c-0.438-0.931-0.417-1.941-0.506-2.914
			c-0.081-0.892-0.255-1.761-0.346-2.646c-0.105-1.021-0.287-2.041-0.334-3.065c-0.038-0.802-0.038-1.607-0.039-2.411
			c-0.001-1.771,0.041-3.545-0.152-5.313c-0.124-1.132-0.211-2.268-0.32-3.4c-0.014-0.143-0.049-0.26,0.133-0.331
			C3.481,9.252,3.83,8.987,4.204,8.77C5.57,7.979,6.808,7.001,8.093,6.095C8.369,5.901,8.58,5.818,8.887,5.906
			c0.334,0.097,0.673,0.173,1.01,0.256c1.375,0.342,2.765,0.572,4.189,0.567c1.117-0.003,2.23-0.052,3.352-0.02
			c2.406,0.067,4.815,0.271,7.225,0.019c0.478-0.05,0.933,0.104,1.399,0.066c0.612-0.045,1.133,0.428,1.172,1.042
			c0.056,0.813-0.043,1.623,0.076,2.448c0.177,1.229,0.441,2.436,0.684,3.647c0.17,0.854,0.486,1.665,0.722,2.499
			c0.31,1.104,0.677,2.185,1.136,3.225c0.608,1.382,1.091,2.816,1.821,4.146c0.169,0.307,0.421,0.555,0.556,0.881
			c0.312,0.746,0.688,1.459,1.135,2.133c0.13,0.191,0.102,0.306-0.095,0.416c-0.601,0.347-1.155,0.781-1.813,1.017
			c-0.366,0.131-0.669,0.428-1.039,0.475c-0.542,0.068-1.05,0.213-1.521,0.461c-0.771,0.404-1.604,0.564-2.439,0.729
			c-0.743,0.145-1.491,0.26-2.235,0.393c-0.683,0.121-1.371,0.209-2.055,0.328c-0.896,0.156-1.8,0.158-2.704,0.166
			c-0.895,0.008-1.777-0.107-2.67-0.088c-0.816,0.018-1.635-0.029-2.447,0.069c-0.321,0.041-0.602,0.063-0.701-0.346
			c-0.023-0.102-0.126-0.182-0.188-0.272c-0.389-0.566-0.724-1.175-0.88-1.832c-0.305-1.269-0.612-2.533-0.826-3.82
			c-0.146-0.879-0.326-1.756-0.449-2.639c-0.133-0.955-0.218-1.918-0.408-2.865c-0.25-1.239-0.359-2.5-0.636-3.735
			c-0.181-0.811-0.247-1.65-0.521-2.438c-0.255-0.735-0.317-1.5-0.48-2.248c-0.208-0.954-0.317-1.932-0.627-2.86
			C8.568,7.55,8.508,7.296,8.235,7.371C8.007,7.432,8.03,7.65,8.043,7.841c0.053,0.854,0.173,1.71,0.142,2.562
			c-0.052,1.432,0.285,2.807,0.47,4.201c0.115,0.87,0.328,1.728,0.468,2.593c0.18,1.125,0.327,2.258,0.493,3.385
			c0.105,0.723,0.223,1.442,0.328,2.168c0.175,1.178,0.354,2.354,0.642,3.51c0.168,0.672,0.241,1.356,0.443,2.021
			c0.251,0.818,0.489,1.636,0.873,2.404c0.256,0.514,0.611,0.971,0.839,1.49c0.209,0.477,0.535,0.713,1.032,0.688
			c0.913-0.036,1.829-0.071,2.737-0.166c1.293-0.135,2.598-0.079,3.887-0.286c0.771-0.125,1.56-0.15,2.333-0.255
			c0.641-0.084,1.271-0.219,1.905-0.325c0.865-0.15,1.737-0.271,2.595-0.455c0.817-0.181,1.617-0.437,2.429-0.646
			c0.274-0.072,0.561-0.106,0.839-0.17c1.137-0.246,2.22-0.631,3.207-1.256c0.547-0.346,1.088-0.703,1.525-1.184
			c0.395-0.435,0.371-0.994-0.044-1.402C34.989,26.52,34.805,26.313,34.677,26.073z"/>
		<path fill="#FFFFFF" d="M26.401,18.332c-0.053-0.229-0.008-0.475-0.063-0.724c-0.165-0.732-0.298-1.477-0.423-2.219
			c-0.139-0.816-0.234-1.641-0.38-2.457c-0.14-0.768-0.323-1.526-0.479-2.292c-0.225-1.116-0.633-1.55-1.646-1.576
			c-1.09-0.026-2.177-0.128-3.269-0.018c-0.955,0.097-1.908-0.082-2.865-0.058c-1.286,0.033-2.58,0.106-3.86,0.022
			c-0.652-0.042-1.25,0.156-1.879,0.153c-0.104-0.001-0.171,0.096-0.211,0.189c-0.074,0.173-0.128,0.348-0.122,0.54
			c0.023,0.769,0.101,1.533,0.171,2.293c0.108,1.183,0.323,2.354,0.543,3.521c0.145,0.763,0.256,1.533,0.494,2.285
			c0.156,0.498,0.294,1,0.541,1.458c0.198,0.37,0.504,0.614,0.938,0.729c0.42,0.109,0.844,0.025,1.258,0.105
			c1.396,0.266,2.794,0.114,4.188,0.022c1.258-0.082,2.52-0.121,3.771-0.344c0.801-0.146,1.613-0.236,2.407-0.412
			C26.284,19.387,26.442,19.127,26.401,18.332z M25.125,18.329c-0.393,0.201-0.776,0.367-1.238,0.281
			c-0.298-0.055-0.588,0.071-0.881,0.123c-1.051,0.188-2.104,0.314-3.175,0.335c-0.933,0.021-1.859,0.098-2.771,0.146
			c-0.451-0.027-0.885-0.042-1.314-0.083c-0.521-0.05-1.04-0.08-1.563-0.062c-0.245,0.01-0.361-0.099-0.415-0.319
			c-0.176-0.735-0.374-1.466-0.531-2.206c-0.177-0.833-0.325-1.673-0.474-2.514c-0.16-0.914-0.299-1.833-0.455-2.748
			c-0.052-0.308-0.129-0.606-0.194-0.909c-0.03-0.147-0.062-0.264,0.181-0.23c0.938,0.126,1.885,0.107,2.827,0.104
			c0.807-0.003,1.611-0.071,2.42-0.098c1.587-0.047,3.162-0.25,4.747-0.33c0.418-0.021,0.767,0.178,1.136,0.312
			c0.104,0.038,0.148,0.129,0.145,0.239c-0.031,0.733,0.267,1.409,0.4,2.111c0.16,0.826,0.19,1.68,0.449,2.481
			c0.32,1.003,0.438,2.061,0.82,3.046C25.307,18.181,25.282,18.248,25.125,18.329z"/>
		<path fill="#FFFFFF" d="M5.089,20.481c0.082,0.863,0.261,1.711,0.369,2.568c0.146,1.156,0.344,2.301,0.54,3.447
			c0.05,0.293,0.188,0.571,0.166,0.868c-0.025,0.332,0.088,0.605,0.249,0.88c0.137,0.231,0.322,0.385,0.604,0.352
			s0.479-0.197,0.589-0.457c0.077-0.18,0.064-0.365,0.042-0.551c-0.141-1.129-0.409-2.236-0.587-3.359
			c-0.116-0.731-0.227-1.469-0.336-2.201c-0.076-0.504-0.168-1.02-0.197-1.541c-0.021-0.393-0.043-0.789-0.086-1.184
			c-0.068-0.64-0.191-1.273-0.19-1.923c0-0.494-0.042-0.992-0.117-1.481c-0.189-1.255-0.112-2.521-0.234-3.779
			c-0.039-0.492-0.057-0.985-0.159-1.473c-0.04-0.191-0.088-0.373-0.311-0.412c-0.211-0.037-0.303,0.138-0.411,0.271
			c-0.08,0.099-0.101,0.221-0.126,0.345c-0.218,1.077-0.215,2.167-0.191,3.256c0.036,1.849,0.258,3.685,0.377,5.525
			C5.096,19.915,5.062,20.194,5.089,20.481z"/>
		<path fill="#FFFFFF" d="M24.648,23.798c0.265-0.113,0.54-0.287,0.484-0.623c-0.057-0.342-0.338-0.459-0.669-0.459
			c-0.354,0-0.673,0.156-1.014,0.207c-0.339,0.049-0.567,0.205-0.569,0.563c-0.002,0.308,0.302,0.502,0.76,0.496
			C23.946,23.928,24.316,23.938,24.648,23.798z"/>
		<path fill="#FFFFFF" d="M15.745,27.923c0.229,0.123,0.475,0.211,0.749,0.215c0.333-0.049,0.686-0.049,0.939-0.344
			c0.141-0.16,0.235-0.32,0.167-0.535c-0.066-0.213-0.229-0.33-0.439-0.344c-0.369-0.023-0.741-0.043-1.11-0.021
			c-0.296,0.021-0.502,0.211-0.57,0.506C15.425,27.635,15.546,27.817,15.745,27.923z"/>
		<path fill="#FFFFFF" d="M27.726,26.161c0.033,0.299,0.351,0.506,0.853,0.504c0.31-0.017,0.664-0.207,0.955-0.515
			c0.221-0.231,0.146-0.521-0.143-0.672c-0.396-0.211-0.797-0.139-1.187,0.013C27.909,25.604,27.686,25.803,27.726,26.161z"/>
		<path fill="#FFFFFF" d="M16.495,24.145c0.247-0.084,0.311-0.317,0.171-0.553c-0.116-0.195-0.284-0.365-0.524-0.379
			c-0.355-0.023-0.72-0.021-1.07,0.059c-0.262,0.06-0.396,0.246-0.391,0.519c0.006,0.268,0.146,0.446,0.404,0.51
			c0.155,0.037,0.317,0.031,0.553,0.051C15.907,24.436,16.199,24.247,16.495,24.145z"/>
		<path fill="#FFFFFF" d="M23.747,27.305c0.411,0.207,1.043,0.037,1.288-0.35c0.148-0.238,0.171-0.441-0.104-0.634
			c-0.245-0.17-0.487-0.288-0.744-0.26c-0.499-0.008-0.747,0.146-0.819,0.472C23.297,26.839,23.456,27.163,23.747,27.305z"/>
		<path fill="#FFFFFF" d="M27.809,22.218c-0.121,0.021-0.244,0.049-0.367,0.049c-0.334,0-0.592,0.113-0.652,0.469
			c-0.063,0.359,0.197,0.5,0.469,0.623c0.138,0.063,0.284,0.086,0.436,0.078c0.176-0.004,0.354-0.012,0.5-0.115
			c0.238-0.17,0.527-0.325,0.431-0.696C28.534,22.3,28.213,22.149,27.809,22.218z"/>
		<path fill="#FFFFFF" d="M20.435,23.827c0.269-0.154,0.304-0.369,0.122-0.625c-0.238-0.332-0.563-0.353-0.932-0.281
			c-0.442,0.084-0.657,0.256-0.646,0.574c0.014,0.315,0.318,0.555,0.718,0.555C19.969,24.063,20.209,23.956,20.435,23.827z"/>
		<path fill="#FFFFFF" d="M20.094,27.656c0.366-0.008,0.65-0.264,0.641-0.577s-0.35-0.593-0.698-0.58
			c-0.341,0.012-0.58,0.258-0.577,0.594C19.46,27.442,19.709,27.663,20.094,27.656z"/>
	</g>
</g>
</svg>
